<?xml version="1.0" encoding="UTF-8"?>
<svg id="Layer_2" data-name="Layer 2" xmlns="http://www.w3.org/2000/svg" viewBox="0 0 174.44 174.52">
  <defs>
    <style>
      .cls-1 {
        stroke-width: 0px;
      }
    </style>
  </defs>
  <g id="Layer_1-2" data-name="Layer 1">
    <g>
      <path class="cls-1" d="m149.9,87.22c-.25,2.79-.42,5.59-.77,8.38-.42,3.39-2.48,5.18-5.9,5.28-1.52.04-3.05.05-4.57,0-.91-.03-1.27.31-1.6,1.18-1.3,3.38-2.7,6.72-4.17,10.02-.37.83-.41,1.33.29,1.96,1.17,1.06,2.27,2.2,3.36,3.35,2.19,2.31,2.39,5.08.47,7.64-3.46,4.62-7.51,8.67-12.15,12.12-2.47,1.84-5.24,1.6-7.51-.52-1.45-1.35-2.73-3.53-4.37-3.84-1.53-.28-3.4,1.48-5.18,2.23-1.83.77-3.69,1.5-5.6,2.03-1.15.32-1.47.87-1.41,1.97.08,1.46.06,2.93,0,4.39-.14,3.34-1.92,5.3-5.22,5.79-5.6.82-11.2.81-16.8,0-3.2-.47-5.01-2.43-5.16-5.65-.08-1.64.07-3.29-.07-4.91-.04-.51-.58-1.2-1.07-1.42-3.36-1.48-6.76-2.89-10.19-4.23-.49-.19-1.36-.08-1.75.25-1.25,1.06-2.32,2.31-3.52,3.43-2.24,2.1-5.04,2.3-7.51.45-4.63-3.46-8.68-7.51-12.14-12.13-1.91-2.55-1.68-5.3.54-7.63,1.05-1.1,2.1-2.21,3.23-3.23.73-.66.78-1.17.36-2.1-1.48-3.3-2.87-6.65-4.17-10.02-.34-.88-.73-1.19-1.62-1.16-1.58.05-3.16.06-4.74,0-3.24-.13-5.22-1.93-5.69-5.12-.83-5.66-.83-11.32,0-16.98.46-3.09,2.39-4.88,5.55-5.07,1.63-.1,3.28-.07,4.92-.02.92.03,1.26-.33,1.59-1.19,1.3-3.37,2.7-6.71,4.17-10.02.37-.84.39-1.33-.3-1.96-1.17-1.07-2.27-2.2-3.36-3.35-2.15-2.26-2.39-5.02-.56-7.49,3.47-4.69,7.57-8.78,12.25-12.26,2.47-1.84,5.24-1.6,7.5.52,1.41,1.32,2.63,3.5,4.2,3.79,1.54.28,3.41-1.4,5.18-2.12,1.89-.77,3.8-1.54,5.77-2.09,1.16-.32,1.47-.87,1.41-1.97-.08-1.46-.06-2.93,0-4.39.14-3.35,1.91-5.3,5.21-5.78,5.6-.82,11.2-.82,16.8,0,3.2.47,5,2.42,5.16,5.65.08,1.64-.07,3.29.08,4.91.04.51.58,1.2,1.07,1.42,3.36,1.48,6.76,2.89,10.18,4.23.49.19,1.36.08,1.75-.25,1.21-1.01,2.25-2.21,3.39-3.31,2.32-2.23,5.09-2.48,7.63-.58,4.63,3.45,8.68,7.5,12.14,12.13,1.91,2.55,1.68,5.31-.53,7.64-1.05,1.1-2.11,2.21-3.23,3.22-.73.66-.79,1.17-.37,2.1,1.48,3.3,2.87,6.65,4.17,10.02.34.88.73,1.19,1.62,1.16,1.58-.05,3.16-.06,4.74,0,3.24.13,5.28,1.92,5.68,5.11.35,2.78.53,5.59.79,8.42Zm-28.32-45.78c-2.11,2.17-3.91,4.01-5.68,5.87-1.29,1.35-2.67,1.52-4.25.53-4.25-2.66-8.83-4.54-13.7-5.72-2.17-.52-2.72-1.31-2.74-3.62-.02-2.45,0-4.91,0-7.31-.29-.15-.44-.3-.59-.3-4.79-.05-9.57-.11-14.36-.05-.35,0-.97.9-.99,1.4-.11,2.1-.04,4.22-.05,6.32-.02,2.26-.61,3.08-2.78,3.6-4.77,1.13-9.22,2.99-13.41,5.53-2.12,1.28-2.98,1.16-4.78-.64-1.73-1.73-3.43-3.5-5.44-5.56-3.86,3.87-7.55,7.57-11.36,11.39,2.2,2.17,4.03,3.97,5.87,5.77,1.14,1.11,1.54,2.39.67,3.79-2.83,4.57-4.84,9.47-6.09,14.69-.34,1.43-1.36,2.13-2.83,2.14-1.29.01-2.58,0-3.87,0-4.36,0-4.52,0-4.72,4.35-.17,3.83.06,7.67.12,11.65,2.93,0,5.38-.01,7.83,0,2.38.01,3.17.59,3.71,2.87,1.11,4.71,2.96,9.11,5.45,13.25,1.34,2.23,1.24,3.03-.66,4.91-1.7,1.69-3.45,3.33-5.52,5.32,3.88,3.89,7.56,7.59,11.45,11.49,2.06-2.14,3.79-3.97,5.56-5.75,1.62-1.63,2.53-1.75,4.5-.55,4.24,2.57,8.74,4.45,13.56,5.61,2.16.52,2.72,1.31,2.73,3.62.02,2.45,0,4.91,0,7.31.28.15.44.3.59.3,4.79.05,9.58.11,14.36.05.35,0,.97-.89,1-1.4.11-2.04.04-4.1.05-6.15.01-2.49.57-3.24,2.96-3.81,4.71-1.12,9.1-2.98,13.24-5.48,2.07-1.25,2.95-1.15,4.65.53,1.78,1.76,3.53,3.56,5.59,5.64,3.84-3.85,7.53-7.55,11.38-11.42-2.22-2.15-4.07-3.94-5.92-5.73-1.28-1.24-1.46-2.59-.51-4.11,2.73-4.35,4.64-9.05,5.83-14.04.42-1.76,1.51-2.53,3.29-2.49,2.17.04,4.34-.04,6.5.03,1.06.04,1.53-.37,1.53-1.38,0-4.44,0-8.88,0-13.33,0-1.07-.57-1.36-1.58-1.32-2.05.06-4.1.03-6.15.02-2.39-.02-3.16-.58-3.7-2.87-1.13-4.77-3.01-9.21-5.55-13.4-1.2-1.98-1.1-2.91.52-4.51,1.78-1.77,3.62-3.48,5.79-5.55-3.91-3.91-7.6-7.61-11.49-11.5Z"/>
      <path class="cls-1" d="m139.39,17.3c-.35-1.06-.63-1.76-.81-2.47-.38-1.54.33-2.96,1.67-3.45,1.47-.53,3,.07,3.59,1.63,1.57,4.16,3.11,8.33,4.52,12.54.73,2.19-.74,4.04-3,3.7-4.45-.67-8.88-1.51-13.3-2.38-1.58-.31-2.45-1.69-2.22-3.09.25-1.53,1.49-2.46,3.19-2.34.75.06,1.5.2,2.62.36-.61-.5-.95-.83-1.33-1.1-12.21-8.56-25.71-13.54-40.59-14.69-18.95-1.46-36.31,3.18-52.14,13.66-.71.47-1.55.96-2.36,1.04-1.36.14-2.35-.65-2.77-1.97-.46-1.44.13-2.58,1.36-3.28,4.99-2.81,9.79-6.11,15.06-8.24,29.87-12.09,58.25-9.02,84.96,9.05.41.28.83.53,1.57,1Z"/>
      <path class="cls-1" d="m35.04,157.23c.31.94.53,1.53.7,2.13.47,1.64-.15,3.02-1.62,3.61-1.43.57-2.97-.02-3.57-1.61-1.56-4.1-3.08-8.21-4.48-12.37-.76-2.25.78-4.06,3.16-3.69,4.39.68,8.76,1.5,13.13,2.36,1.59.31,2.46,1.69,2.23,3.09-.25,1.54-1.48,2.47-3.18,2.34-.75-.05-1.5-.2-2.7-.37.72.57,1.12.91,1.56,1.21,15.94,11,33.56,15.97,52.91,14.61,14.51-1.02,27.76-5.72,39.85-13.77.81-.54,2.04-1.07,2.86-.83.88.25,2,1.35,2.09,2.18.1.92-.58,2.41-1.38,2.88-4.93,2.91-9.76,6.16-15.03,8.29-29.87,12.11-58.24,8.98-84.96-9.05-.41-.28-.83-.53-1.56-1Z"/>
      <path class="cls-1" d="m156.83,131.51c2.6,0,4.11,2.31,2.84,4.08-2.68,3.74-5.58,7.33-8.53,10.87-.98,1.18-2.75,1.05-3.78.01-1.09-1.1-1.25-2.45-.33-3.66,2.65-3.48,5.36-6.92,8.13-10.3.47-.57,1.33-.81,1.66-1Z"/>
      <path class="cls-1" d="m17.56,43.03c-2.59-.03-4.07-2.36-2.8-4.12,2.66-3.69,5.52-7.24,8.44-10.73.97-1.16,2.43-1.05,3.65-.08,1.15.91,1.37,2.54.42,3.77-2.63,3.43-5.3,6.83-8.03,10.18-.46.57-1.34.8-1.68.98Z"/>
      <path class="cls-1" d="m7.29,65.32c-2.44.03-3.95-1.54-3.39-3.27,1.22-3.77,2.65-7.47,4.19-11.13.56-1.33,2.24-1.62,3.5-.99,1.31.66,1.9,2.06,1.35,3.58-.6,1.65-1.36,3.23-1.98,4.87-.62,1.64-1.01,3.38-1.79,4.94-.46.92-1.47,1.58-1.88,2Z"/>
      <path class="cls-1" d="m164.57,124.89c-2.46-.05-3.78-1.83-3.12-3.72,1.21-3.47,2.52-6.91,3.9-10.32.54-1.34,1.73-1.89,3.17-1.53,1.54.39,2.48,1.57,2.02,2.99-1.23,3.82-2.69,7.58-4.23,11.29-.29.69-1.39,1.04-1.75,1.29Z"/>
      <path class="cls-1" d="m173.98,77.16c-.16,1.69-1.04,2.86-2.49,3.08-1.57.24-2.85-.6-3.19-2.29-.7-3.49-1.35-7-1.96-10.5-.28-1.61.68-2.97,2.19-3.3,1.38-.3,2.89.5,3.23,2.03.82,3.64,1.48,7.32,2.21,10.99Z"/>
      <path class="cls-1" d="m.46,97.45c.13-1.76,1.06-2.98,2.57-3.16,1.54-.19,2.78.69,3.12,2.4.68,3.43,1.31,6.87,1.91,10.32.28,1.61-.63,2.97-2.11,3.35-1.44.36-2.98-.48-3.34-2.1-.79-3.58-1.44-7.2-2.15-10.8Z"/>
      <path class="cls-1" d="m0,83.34c.32-2.9.59-5.81.99-8.7.27-1.93,1.61-2.95,3.21-2.67,1.66.28,2.49,1.61,2.3,3.53-.29,2.91-.58,5.81-.8,8.73-.16,2.22-1.15,3.45-2.92,3.4-1.77-.05-2.76-1.35-2.72-3.56,0-.23,0-.47,0-.7-.02,0-.04,0-.07,0Z"/>
      <path class="cls-1" d="m174.44,91.02c-.33,2.96-.6,5.93-1.01,8.88-.27,1.92-1.63,2.94-3.23,2.65-1.65-.29-2.47-1.61-2.27-3.55.3-2.91.59-5.81.81-8.72.16-2.21,1.17-3.44,2.94-3.37,1.77.06,2.74,1.34,2.68,3.58,0,.18,0,.35,0,.53.03,0,.05,0,.08.01Z"/>
      <path class="cls-1" d="m87.28,54.06c18.13-.06,33.09,14.86,33.14,33.05.05,18.28-14.65,33.21-32.84,33.35-18.62.14-33.46-14.58-33.57-33.3-.11-18.16,14.84-33.03,33.26-33.1Zm27.52,33.27c-.03-15.3-12.43-27.77-27.51-27.66-15.46.11-27.64,12.31-27.65,27.69,0,15.24,12.46,27.54,27.86,27.48,14.98-.06,27.34-12.51,27.3-27.51Z"/>
    </g>
  </g>
</svg>