<?xml version="1.0" encoding="utf-8"?>
<!-- Generator: Adobe Illustrator 28.0.0, SVG Export Plug-In . SVG Version: 6.00 Build 0)  -->
<svg version="1.1" id="Layer_1" xmlns="http://www.w3.org/2000/svg" xmlns:xlink="http://www.w3.org/1999/xlink" x="0px" y="0px"
	 viewBox="0 0 841.9 595.3" style="enable-background:new 0 0 841.9 595.3;" xml:space="preserve">
<style type="text/css">
	.st0{fill:#0801A5;}
	.st1{fill:#0903A6;}
	.st2{fill:#0A03A6;}
	.st3{fill:#0902A6;}
	.st4{fill:#FCFE06;}
	.st5{fill:#FBFD07;}
	.st6{fill:#8A8952;}
</style>
<g>
	<path class="st0" d="M274.7,403h-1.5c-63.4,0-126.9,0-190.3,0c-1.9,0-1.7,0.2-1.7-1.7c0-4.5,0-8.9,0-13.4c0-0.4,0-0.8,0-1.2
		c0-0.3-0.2-0.5-0.5-0.5c-0.4,0-0.8,0-1.2,0c-4.3,0-8.6,0-13,0c-0.4,0-0.8,0-1.2,0c-0.2,0-0.4-0.2-0.4-0.4c0-0.2,0-0.3,0-0.5
		c0-0.5,0-0.9,0-1.4c0-63.2,0-126.4,0-189.6c0-2.4-0.3-2,2-2c63.2,0,126.4,0,189.5,0c0.6,0,1.5-0.3,1.9,0.1c0.6,0.5,0.2,1.3,0.2,2
		c0,4.3,0,8.6,0,13c0,0.4,0,0.8,0,1.2c0,0.3,0.2,0.4,0.5,0.5c0.4,0,0.8,0,1.2,0c4.2,0,8.4,0,12.7,0c0.3,0,0.6,0,0.9,0
		c0.6,0,1,0.4,1,1.1c0,0.4,0,0.7,0,1.1c0,30.3,0,60.7,0,91c0,0.7-0.3,1.5,0.2,2.2c0.7,0,1.3-0.4,2-0.7c15.5-6.3,31.4-11.8,47.5-16.5
		c13.4-3.9,26.9-7.2,40.5-10.2c8.3-1.8,16.5-3.3,24.9-4.7c4.9-0.8,9.8-1.5,14.8-2.3c4.2-0.6,8.4-1.2,12.7-1.7
		c4.1-0.5,8.2-0.9,12.3-1.3c3.8-0.4,7.6-0.8,11.4-1.1c3.3-0.3,6.6-0.5,9.9-0.7c4.3-0.3,8.5-0.6,12.8-0.8c4.3-0.2,8.5-0.3,12.8-0.5
		c10.7-0.4,21.5-0.4,32.2-0.2c5.9,0.1,11.8,0.3,17.7,0.6c6.5,0.3,13,0.7,19.5,1.2c6,0.5,12.1,1,18.1,1.7c5.6,0.6,11.1,1.2,16.7,2
		c5.8,0.8,11.7,1.6,17.5,2.6c5.2,0.9,10.4,1.8,15.6,2.8c9.7,1.8,19.3,3.9,28.9,6.3c13.6,3.3,27.1,7.1,40.5,11.5
		c18.6,6.2,36.9,13.4,54.5,21.9c12.8,6.2,25.3,13.1,37.3,20.8c0.5,0.3,1,0.6,1.4,0.9c0.7,0.6,0.8,1.6,0.4,2.4
		c-0.4,0.7-1.2,1.1-2.1,0.8c-0.9-0.2-1.9-0.5-2.8-0.8c-14.9-4.8-30.1-9-45.3-12.7c-10.9-2.7-21.8-5-32.7-7.2
		c-6.8-1.4-13.7-2.7-20.5-3.8c-6.6-1.1-13.1-2.2-19.7-3.2c-5.3-0.8-10.7-1.5-16-2.3c-6-0.8-12.1-1.6-18.2-2.3
		c-5.1-0.6-10.3-1.1-15.5-1.6c-4.9-0.5-9.7-1-14.6-1.4c-3-0.3-6.1-0.5-9.1-0.7c-3.4-0.3-6.9-0.5-10.3-0.8c-1.8-0.1-3.6-0.2-5.3-0.3
		c-6.7-0.4-13.3-0.7-20-1.1c-10.4-0.5-20.8-0.8-31.3-1c-12.1-0.2-24.2-0.2-36.3,0c-7.7,0.1-15.4,0.3-23,0.6
		c-6.8,0.2-13.6,0.6-20.4,0.9c-4.9,0.2-9.8,0.6-14.8,0.9c-5.9,0.4-11.8,0.9-17.6,1.4c-4,0.3-7.9,0.6-11.9,1
		c-4.5,0.4-8.9,0.9-13.3,1.4c-4,0.4-8,0.9-12,1.3c-3.6,0.4-7.2,0.9-10.7,1.4c-3.9,0.5-7.9,1.1-11.8,1.6c-4.3,0.6-8.6,1.3-13,1.9
		c-4,0.6-8,1.3-12,2c-5.8,1-11.7,2.1-17.5,3.2c-6.7,1.3-13.4,2.8-20.1,4.1c-1.1,0.2-2.2,0.5-3.3,0.7c-0.4,0.1-0.6,0.3-0.6,0.7
		c0,0.5,0,1,0,1.5c0,25.4,0,50.9,0,76.3C274.9,401.7,275.1,402.3,274.7,403L274.7,403z M773.1,336.8c0.4,0.3,0.9,0.5,1.6,0.4
		c-0.4-0.4-0.8-0.7-1.2-0.8c-0.2-0.1-0.5-0.3-0.6,0C772.7,336.7,773,336.8,773.1,336.8z M274.9,313.7c0,2,0,4.1,0,6.1
		c0,0.8,0.1,0.9,0.9,0.7c0.2,0,0.5-0.1,0.7-0.2c2.5-0.6,5.1-1.1,7.6-1.6c5.9-1.2,11.7-2.4,17.6-3.5c5.3-1,10.7-1.9,16.1-2.9
		c4.1-0.7,8.1-1.4,12.2-2c3.7-0.6,7.3-1.1,11-1.6c3.2-0.5,6.3-0.9,9.5-1.3c3.6-0.5,7.3-1,10.9-1.4c2.9-0.4,5.8-0.7,8.6-1
		c3.4-0.4,6.8-0.8,10.2-1.1c2.4-0.2,4.8-0.5,7.1-0.7c2.9-0.3,5.8-0.6,8.7-0.8c2.8-0.2,5.6-0.5,8.4-0.7c3.3-0.3,6.6-0.6,9.9-0.8
		c3.7-0.3,7.5-0.5,11.3-0.7c4.6-0.3,9.2-0.6,13.9-0.8c3.3-0.2,6.7-0.3,10.1-0.4c8.7-0.4,17.5-0.6,26.2-0.8
		c21.2-0.3,42.4-0.2,63.6,0.8c7.2,0.3,14.4,0.7,21.6,1.1c1.8,0.1,3.7,0.2,5.5,0.3c3.9,0.3,7.8,0.5,11.7,0.8c2.9,0.2,5.9,0.5,8.8,0.7
		c2.9,0.2,5.9,0.5,8.8,0.8c2.5,0.2,5.1,0.5,7.6,0.7c3.3,0.3,6.7,0.7,10,1.1c3.9,0.4,7.9,0.9,11.8,1.3c4.3,0.5,8.7,1.1,13,1.7
		c4.6,0.6,9.3,1.3,13.9,1.9c5.4,0.8,10.8,1.7,16.2,2.6c6.5,1.1,13,2.3,19.5,3.5c10.4,2,20.7,4.2,31,6.6c14.4,3.3,28.6,7.1,42.7,11.3
		c3.2,1,6.5,2,9.8,3c0.4,0.1,0.8,0.2,1.2,0.3c0.1,0,0.2-0.1,0.2-0.2c0-0.1,0.1-0.2,0-0.3c-0.3-0.2-0.6-0.5-0.8-0.6
		c-3.5-2.1-7-4.3-10.6-6.4c-14.8-8.6-30.1-16.1-45.9-22.6c-24.6-10.2-50-18.2-75.9-24.4c-7.7-1.8-15.4-3.5-23.1-5
		c-5.3-1-10.6-2-15.9-2.9c-5-0.8-9.9-1.6-14.9-2.3c-5.1-0.7-10.2-1.4-15.3-2c-4.3-0.5-8.7-0.9-13.1-1.3c-5.5-0.5-10.9-1-16.4-1.4
		c-5.2-0.4-10.4-0.7-15.5-0.9c-7.6-0.3-15.3-0.6-22.9-0.6c-13-0.1-26,0.1-39.1,0.8c-5,0.2-10.1,0.6-15.1,0.9
		c-5.9,0.4-11.9,0.9-17.8,1.5c-5,0.5-9.9,1-14.9,1.6c-5.8,0.7-11.7,1.6-17.5,2.4c-6.6,1-13.2,2.1-19.8,3.4c-9.9,1.9-19.8,4-29.6,6.4
		c-20.7,5.1-41,11.3-61,18.9c-4,1.5-8,3.2-12,4.8c-0.6,0.2-0.8,0.5-0.8,1.1c0,2,0,4.1,0,6.1L274.9,313.7z M152.7,295.6
		c0-0.8,0-1.3,0-1.9c0-20.4,0-40.8,0-61.2c0-1.7,0-1.7-1.2-2.9c-0.5-0.5-0.9-0.7-1.6-0.6c-3.1,0-6.2,0-9.3,0c-1.8,0-1.8,0-3.1,1.4
		c-0.3,0.4-0.5,0.7-0.5,1.2c0,0.3,0,0.6,0,0.9c0,43.3,0,86.7,0,130c0,1.4,0.5,2.5,1.5,3.4c0.3,0.2,0.6,0.4,1,0.4c3.6,0,7.2,0,10.8,0
		c0.4,0,0.8-0.2,1.1-0.5c1.4-1.3,1.4-1.3,1.4-3.3c0-20.3,0-40.6,0-60.9c0-0.5,0-0.9,0-1.4c0-0.2,0-0.4,0.3-0.5
		c0.3,0.4,0.6,0.8,0.9,1.2c9.3,12.4,18.7,24.8,28,37.2c6.8,9.1,13.6,18.1,20.5,27.2c0.5,0.7,1,1,1.9,1c4.2,0,8.4,0,12.7,0
		c2.5,0,1.8,0.4,2.9-1.8c0.6-1.2,0.7-1-0.2-2.3c-16.2-21.1-32.4-42.2-48.6-63.3c-1.2-1.5-1.2-1.1,0-2.6c16-20.8,32-41.6,48-62.4
		c0.5-0.6,1.1-1.2,1.4-2c-0.3-0.7-0.7-1.5-1-2.2c0-0.1-0.1-0.2-0.1-0.3c-0.2-0.3-0.4-0.5-0.7-0.4c-0.4,0-0.7,0-1.1,0
		c-4.2,0-8.4,0-12.7,0c-1.8,0-1.4-0.3-2.5,1.2c-16.1,21.4-32.2,42.7-48.3,64.1C153.6,294.7,153.4,295.1,152.7,295.6L152.7,295.6z"/>
	<path class="st1" d="M401.3,375.1c0.4-0.2,0.4-0.5,0.5-0.7c4.9-14.1,9.8-28.2,14.7-42.3c0.6-1.8,0.3-1.5,2.1-1.5c3.1,0,6.2,0,9.3,0
		c0.6,0,1.1,0.2,1.4,0.7c0,0.1,0.1,0.2,0.2,0.2c0.6,0.6,0.6,1.2,0.2,1.9c-1.5,3.9-3.1,7.8-4.6,11.6c-5.7,14.5-11.3,29-17,43.4
		c-0.8,2-0.3,1.7-2.5,1.7c-2.9,0-5.9,0-8.9,0c-0.4,0-0.7,0-1.1,0c-0.3,0-0.6-0.2-0.7-0.5c-0.1-0.3-0.2-0.7-0.4-1
		c-5.8-14.6-11.6-29.3-17.4-43.9c-0.2-0.5-0.3-1.1-0.8-1.5c-0.1,0.3-0.3,0.6-0.4,0.8c-5.9,15-11.9,29.9-17.8,44.9
		c-0.1,0.2-0.2,0.5-0.3,0.7c-0.1,0.3-0.3,0.5-0.7,0.5c-0.2,0-0.3,0-0.5,0c-3.7,0-7.3,0-11,0c-0.7,0-1-0.2-1.2-0.8
		c-1.2-3.2-2.4-6.5-3.7-9.7c-5.8-15.2-11.5-30.4-17.3-45.6c0,0,0-0.1-0.1-0.1c-0.6-1.6-0.6-1.7,0.5-3c0.2-0.3,0.4-0.4,0.8-0.4
		c0.8,0,1.5,0,2.3,0c2.8,0,5.5,0,8.2,0c1,0,1,0,1.3,0.9c1.3,3.9,2.6,7.7,3.8,11.6c3.1,9.5,6.3,19,9.4,28.5c0.4,1.3,0.8,2.5,1.2,3.8
		c0,0.1,0.1,0.2,0.2,0.2c0.1,0,0.2,0,0.2-0.1c0.1-0.2,0.2-0.5,0.3-0.7c1.8-5.6,4.2-10.9,6.3-16.3c3.5-8.8,7-17.5,10.6-26.3
		c0.7-1.8,0.4-1.5,2.1-1.5c3.9,0,7.8,0,11.8,0c0.4,0,0.7,0,1.1,0c0.3,0,0.5,0.1,0.6,0.4c0.1,0.2,0.2,0.4,0.2,0.6
		c4.2,10.4,8.4,20.8,12.6,31.2c1.5,3.9,2.8,7.8,4,11.9C401.2,374.8,401.2,374.9,401.3,375.1L401.3,375.1z"/>
	<path class="st2" d="M623.1,360.5c0-8.8,0-17.6,0-26.4c0-0.2,0-0.5,0-0.8c-0.2-1.1,0.5-1.8,1.2-2.4c0.1-0.1,0.4-0.2,0.6-0.2
		c0.2,0,0.5,0,0.8,0c10.2,0,20.3,0,30.5,0c3.8,0,7.5,0.2,11.2,0.8c5.6,0.9,10.8,2.8,15.3,6.3c4.9,3.8,8.1,8.8,9.5,14.9
		c1.2,5.4,1.2,10.8-0.3,16.2c-2.7,9.4-8.9,15.6-18,18.8c-3.5,1.2-7.1,1.8-10.7,2.2c-3.8,0.4-7.6,0.5-11.4,0.5c-8.4,0-16.9,0-25.3,0
		c-0.2,0-0.5,0-0.8,0c-0.8,0.1-1.3-0.2-1.9-0.8c-0.6-0.6-0.6-1.2-0.6-1.9C623.1,378.6,623.1,369.5,623.1,360.5L623.1,360.5z
		 M636.6,360.4c0,6.4,0,12.7,0,19.1c0,1.4,0,1.3,1.3,1.3c5.2,0,10.5,0,15.7,0c2.7,0,5.4-0.1,8.1-0.4c2.3-0.3,4.5-0.8,6.7-1.6
		c2.9-1.1,5.3-3,7.1-5.5c1.1-1.5,1.9-3.2,2.5-5c1.5-5.1,1.6-10.2,0.2-15.4c-0.5-1.9-1.3-3.6-2.6-5.2c-2.9-3.6-6.6-5.8-11.1-6.7
		c-3-0.6-6.1-0.8-9.1-0.8c-5.8-0.1-11.7,0-17.5-0.1c-1.3,0-1.3,0-1.3,1.4C636.6,347.8,636.6,354.1,636.6,360.4L636.6,360.4z"/>
	<path class="st3" d="M477.5,391.3c-6.7-0.1-13.1-1-19.3-3.3c-4.4-1.7-8.5-3.9-12-7.1c-4.1-3.8-6.9-8.4-8.3-13.8
		c-0.5-2.1-0.8-4.2-0.7-6.3c0.1-3.6,0.6-7.1,1.9-10.5c1.8-4.8,4.8-8.7,8.9-11.8c4.5-3.5,9.6-5.8,15.2-7.2c6.6-1.6,13.4-1.9,20.1-1.4
		c5.3,0.5,10.4,1.7,15.3,3.7c4,1.7,7.7,3.9,10.8,7c4.8,4.7,7.5,10.4,8.1,17.1c0.5,5.9-0.6,11.5-3.5,16.6c-2.3,3.9-5.4,7.1-9.2,9.6
		c-3.7,2.4-7.6,4-11.8,5.2C487.9,390.6,482.6,391.2,477.5,391.3L477.5,391.3z M477.7,382.1c2.3,0,5-0.2,7.7-0.8
		c3.9-0.8,7.6-2.3,10.8-4.7c3.1-2.3,5.3-5.2,6.5-8.8c1.5-4.6,1.5-9.2,0.2-13.8c-1.4-4.9-4.5-8.5-8.8-11c-3.6-2.1-7.4-3.2-11.5-3.8
		c-4-0.5-7.9-0.4-11.9,0.2c-4.1,0.7-7.9,2.1-11.5,4.3c-3.4,2.1-5.6,5-6.9,8.8c-1.1,3.4-1.4,7-1.2,10.5c0.3,5,2.4,9.2,6.2,12.5
		c2.1,1.8,4.5,3.2,7,4.2C468.5,381.4,472.9,382,477.7,382.1L477.7,382.1z"/>
	<path class="st3" d="M568.6,391.3c-6.5-0.1-12.9-0.9-19-3.3c-3.8-1.4-7.3-3.3-10.5-5.8c-5-4-8.4-9.1-9.9-15.4
		c-0.4-1.6-0.6-3.2-0.6-4.8c-0.1-3.7,0.3-7.3,1.5-10.8c1.7-5.1,4.7-9.2,8.9-12.5c4.6-3.7,9.9-6.1,15.7-7.5c5.5-1.3,11-1.7,16.7-1.5
		c5.6,0.2,11,1.1,16.3,3c3.9,1.4,7.6,3.3,10.8,5.9c5.6,4.5,9.2,10.2,10.2,17.3c1.6,11.4-2.3,20.6-11.5,27.5
		c-3.6,2.6-7.6,4.3-11.8,5.6C579.8,390.5,574.2,391.2,568.6,391.3L568.6,391.3z M569.2,382.1c2.3,0,4.9-0.2,7.6-0.8
		c4.3-0.9,8.3-2.6,11.8-5.5c2.7-2.2,4.6-5,5.6-8.4c0.9-3,1.1-6,0.9-9c-0.6-6.8-3.8-12-9.7-15.5c-3.6-2.1-7.5-3.2-11.7-3.7
		c-3.1-0.4-6.3-0.4-9.4,0c-4.8,0.5-9.2,1.9-13.3,4.4c-3.9,2.3-6.3,5.7-7.5,10c-1,3.4-1.2,6.9-0.8,10.4c0.5,4.8,2.6,8.8,6.4,11.9
		c2,1.7,4.2,2.9,6.7,3.9C559.8,381.5,564.2,382.1,569.2,382.1L569.2,382.1z"/>
	<path class="st4" d="M274.9,313.7c0-2,0-4.1,0-6.1c0-0.6,0.2-0.9,0.8-1.1c4-1.6,8-3.2,12-4.8c19.9-7.6,40.3-13.8,61-18.9
		c9.8-2.4,19.7-4.5,29.6-6.4c6.6-1.2,13.2-2.4,19.8-3.4c5.8-0.9,11.7-1.7,17.5-2.4c5-0.6,9.9-1.1,14.9-1.6
		c5.9-0.6,11.9-1.1,17.8-1.5c5-0.4,10.1-0.7,15.1-0.9c13-0.6,26-0.9,39.1-0.8c7.6,0.1,15.3,0.3,22.9,0.6c5.2,0.2,10.4,0.5,15.5,0.9
		c5.5,0.4,11,0.9,16.4,1.4c4.4,0.4,8.7,0.8,13.1,1.3c5.1,0.6,10.2,1.3,15.3,2c5,0.7,10,1.4,14.9,2.3c5.3,0.9,10.6,1.9,15.9,2.9
		c7.7,1.5,15.4,3.2,23.1,5c25.9,6.2,51.3,14.1,75.9,24.4c15.8,6.6,31.1,14,45.9,22.6c3.6,2.1,7.1,4.3,10.6,6.4
		c0.3,0.2,0.6,0.4,0.8,0.6c0,0,0,0.2,0,0.3c0,0.1-0.2,0.2-0.2,0.2c-0.4-0.1-0.8-0.2-1.2-0.3c-3.2-1-6.5-2-9.8-3
		c-14.1-4.2-28.4-8-42.7-11.3c-10.3-2.4-20.6-4.6-31-6.6c-6.5-1.2-13-2.4-19.5-3.5c-5.4-0.9-10.8-1.8-16.2-2.6
		c-4.6-0.7-9.3-1.3-13.9-1.9c-4.3-0.6-8.7-1.2-13-1.7c-3.9-0.5-7.9-0.9-11.8-1.3c-3.3-0.4-6.7-0.7-10-1.1c-2.5-0.3-5.1-0.5-7.6-0.7
		c-2.9-0.3-5.9-0.5-8.8-0.8c-2.9-0.2-5.9-0.5-8.8-0.7c-3.9-0.3-7.8-0.6-11.7-0.8c-1.8-0.1-3.7-0.3-5.5-0.3
		c-7.2-0.4-14.4-0.7-21.6-1.1c-21.2-1-42.4-1.1-63.6-0.8c-8.8,0.1-17.5,0.3-26.2,0.8c-3.3,0.2-6.7,0.2-10.1,0.4
		c-4.6,0.2-9.2,0.5-13.9,0.8c-3.8,0.2-7.5,0.5-11.3,0.7c-3.3,0.2-6.6,0.5-9.9,0.8c-2.8,0.2-5.6,0.5-8.4,0.7
		c-2.9,0.3-5.8,0.5-8.7,0.8c-2.4,0.2-4.8,0.5-7.1,0.7c-3.4,0.4-6.8,0.7-10.2,1.1c-2.9,0.3-5.8,0.6-8.6,1c-3.6,0.5-7.3,0.9-10.9,1.4
		c-3.2,0.4-6.3,0.9-9.5,1.3c-3.7,0.5-7.3,1.1-11,1.6c-4.1,0.6-8.1,1.3-12.2,2c-5.4,0.9-10.7,1.9-16.1,2.9
		c-5.9,1.1-11.8,2.4-17.6,3.5c-2.5,0.5-5.1,1.1-7.6,1.6c-0.2,0.1-0.5,0.1-0.7,0.2c-0.8,0.1-0.9,0.1-0.9-0.7c0-2,0-4.1,0-6.1
		L274.9,313.7z"/>
	<path class="st5" d="M152.7,295.6c0.7-0.4,0.9-0.9,1.2-1.3c16.1-21.4,32.2-42.7,48.3-64.1c1.1-1.5,0.7-1.2,2.5-1.2
		c4.2,0,8.4,0,12.7,0c0.4,0,0.7,0,1.1,0c0.4,0,0.6,0.2,0.7,0.4c0.1,0.1,0.1,0.2,0.1,0.3c0.3,0.7,0.7,1.5,1,2.2
		c-0.3,0.8-0.9,1.4-1.4,2c-16,20.8-32,41.6-48,62.4c-1.2,1.6-1.2,1.1,0,2.6c16.2,21.1,32.4,42.2,48.6,63.3c1,1.3,0.9,1,0.2,2.3
		c-1.1,2.2-0.4,1.8-2.9,1.8c-4.2,0-8.4,0-12.7,0c-0.9,0-1.4-0.3-1.9-1c-6.8-9.1-13.6-18.1-20.5-27.2c-9.3-12.4-18.7-24.8-28-37.2
		c-0.3-0.4-0.6-0.8-0.9-1.2c-0.3,0.1-0.3,0.3-0.3,0.5c0,0.5,0,0.9,0,1.4c0,20.3,0,40.6,0,60.9c0,2,0,2-1.4,3.3
		c-0.3,0.3-0.6,0.5-1.1,0.5c-3.6,0-7.2,0-10.8,0c-0.4,0-0.7-0.1-1-0.4c-1-0.9-1.5-2-1.5-3.4c0-43.3,0-86.7,0-130c0-0.3,0-0.6,0-0.9
		c0-0.5,0.2-0.9,0.5-1.2c1.3-1.4,1.3-1.4,3.1-1.4c3.1,0,6.2,0,9.3,0c0.7,0,1.1,0.2,1.6,0.6c1.2,1.2,1.2,1.2,1.2,2.9
		c0,20.4,0,40.8,0,61.2C152.7,294.3,152.7,294.9,152.7,295.6L152.7,295.6z"/>
	<path class="st6" d="M773.5,336.4c0.5,0.1,0.8,0.4,1.2,0.8c-0.7,0.2-1.1,0-1.6-0.4C773.3,336.7,773.4,336.6,773.5,336.4z"/>
	<path class="st4" d="M773.5,336.4c-0.1,0.1-0.2,0.3-0.3,0.4c-0.2-0.1-0.4-0.2-0.3-0.4C773,336.1,773.3,336.4,773.5,336.4z"/>
</g>
</svg>
