<?xml version="1.0" encoding="utf-8"?>
<!-- Generator: Adobe Illustrator 24.1.2, SVG Export Plug-In . SVG Version: 6.00 Build 0)  -->
<svg version="1.1" id="Layer_1" xmlns="http://www.w3.org/2000/svg" xmlns:xlink="http://www.w3.org/1999/xlink" x="0px" y="0px"
	 viewBox="0 0 44.3 18.2" style="enable-background:new 0 0 44.3 18.2;" xml:space="preserve">
<style type="text/css">
	.st0{fill:#505254;}
</style>
<g>
	<path class="st0" d="M6.3,12C7.7,11.7,9,11.2,9,9.6c0-0.4-0.1-0.9-0.2-1.2C8.1,7,6.4,6.8,4.3,6.7l0,0H0.4H0.1V7l1,0.3h0.1
		c0,0.1,0,1.3,0,2.7c0,1.2,0,3.1,0,4.6s0,2.7,0,2.7l-1.1,0.3V18h0.3h2.1c2.3,0,4.7,0,6-0.9c0.6-0.5,1-1.3,1-2.2
		c0-0.6-0.2-1.3-0.6-1.7C8.3,12.5,7.3,12.3,6.3,12z M3.1,10.7c0-1.6,0-3.2,0-3.3l0,0h0.1c1.2,0,2.2,0,2.9,0.4c1,0.5,1.2,1.9,0.8,2.9
		c-0.5,1.1-2,1.2-3.8,1.2C3.1,11.4,3.1,11,3.1,10.7z M7.2,16.4c-0.7,1.1-2.2,1.1-4.1,1l0,0c0,0,0-1.6,0-3.3c0-0.5,0-1.1,0-1.6
		c0,0,0,0,0-0.1c1.6,0,3.1-0.1,3.9,0.8C7.7,13.9,7.8,15.4,7.2,16.4z"/>
	<path class="st0" d="M31.1,9.4c-0.2,0-0.5,0-0.6,0c-0.8,0.1-1.4,0.3-1.9,0.6c-1,0.7-1.7,1.7-1.7,3.5c0,0.1,0,0.2,0,0.3l0,0
		c0,0.1,0,0.2,0,0.3c0,1.7,0.7,2.8,1.7,3.5c0.5,0.3,1.1,0.6,1.9,0.6c0.2,0,0.5,0,0.6,0c1.6,0,2.7-0.9,3.3-1.9
		c0.4-0.6,0.5-1.2,0.5-2.4v-0.1c0-1.1-0.1-1.7-0.5-2.4C33.9,10.3,32.7,9.4,31.1,9.4z M31,17.6c0,0-0.2,0-0.3,0c-1.3,0-2-1.2-2-3.8
		s0.7-3.8,2-3.8c0.1,0,0.3,0,0.3,0c1.3,0,2,1.2,2,3.8C33,16.3,32.3,17.6,31,17.6z"/>
	<path class="st0" d="M43.2,17.4c0,0,0-4.9,0-5.4c0-1.4-1.1-2.6-2.6-2.6c-1.1,0-1.7,0.5-2.2,0.9c-0.1,0.1-0.3,0.3-0.4,0.3
		c0-0.2,0-1.2,0-1.2l-0.1-0.1L35.2,10v0.2l1.1,0.3c0,2.2,0,6.8,0,6.8l-1.1,0.3V18h0.3H39v-0.3l-1-0.3c0,0,0-4.2,0-6.2
		c0.4-0.5,1.2-0.8,1.9-0.7c0.7,0,1.4,0.5,1.5,1.2c0,0,0.1,0.3,0.1,0.6s0,5.2,0,5.2l-1.1,0.3V18h0.3h3.5v-0.3L43.2,17.4z"/>
	<path class="st0" d="M18.5,13.7c0-1.1-0.1-1.7-0.5-2.4c-0.6-1-1.7-1.9-3.3-1.9c-0.2,0-0.5,0-0.6,0c-0.8,0.1-1.4,0.3-1.9,0.6
		c-1,0.7-1.7,1.7-1.7,3.5c0,0.1,0,0.2,0,0.3l0,0c0,0.1,0,0.2,0,0.3c0,1.7,0.7,2.8,1.7,3.5c0.5,0.3,1.1,0.6,1.9,0.6
		c0.2,0,0.5,0,0.6,0c1.6,0,2.7-0.9,3.3-1.9c0.4-0.6,0.5-1.2,0.5-2.4V13.7z M14.6,17.6c0,0-0.2,0-0.3,0c-1.3,0-2-1.2-2-3.8
		s0.7-3.8,2-3.8c0.1,0,0.3,0,0.3,0c1.3,0,2,1.2,2,3.8C16.6,16.3,15.9,17.6,14.6,17.6z"/>
	<path class="st0" d="M23.7,13.6l2.5-3.5l0.2-0.3l-3-4l1.8-2.5l-2.4-3.2l-2.6,3.5l1.7,2.1L18.7,10l0.2,0.2l2.8,3.7l-2.6,3.5
		l-0.8,0.3V18h2.8v-0.3l-1.2-0.3l2.2-3l2.3,3.1l-0.7,0.2V18h4v-0.3l-1.2-0.4L23.7,13.6z M21.4,3.1l1.2-1.6l1.7,2.2l-1.2,1.6
		L21.4,3.1z M20.2,9l2-2.7l3.1,4.1l-2,2.7L20.2,9z"/>
</g>
</svg>
