<?xml version="1.0" encoding="utf-8"?>
<!-- Generator: Adobe Illustrator 24.1.3, SVG Export Plug-In . SVG Version: 6.00 Build 0)  -->
<svg version="1.1" id="Layer_1" xmlns="http://www.w3.org/2000/svg" xmlns:xlink="http://www.w3.org/1999/xlink" x="0px" y="0px"
	 viewBox="0 0 9.6 22.1" style="enable-background:new 0 0 9.6 22.1;" xml:space="preserve">
<style type="text/css">
	.st0{enable-background:new    ;}
	.st1{fill:#54C8E8;}
</style>
<g class="st0">
	<path class="st1" d="M3.3,10.3v5.5h5.4c0.3,0,0.4,0,0.4,0.3v0.6c0,0.3-0.1,0.3-0.4,0.3h-7c-0.3,0-0.4,0-0.4-0.4V3.4
		c0-0.3,0.1-0.5,0.4-0.5h7c0.2,0,0.4,0,0.4,0.3c0,0.3,0,0.7,0,0.8c0,0.2-0.1,0.2-0.4,0.2H3.3V9h4.6c0.2,0,0.4,0,0.4,0.3
		c0,0.3,0,0.7,0,0.8c0,0.2-0.1,0.2-0.4,0.2H3.3z"/>
</g>
</svg>
