<?xml version="1.0" encoding="utf-8"?>
<!-- Generator: Adobe Illustrator 24.1.3, SVG Export Plug-In . SVG Version: 6.00 Build 0)  -->
<svg version="1.1" id="Layer_1" xmlns="http://www.w3.org/2000/svg" xmlns:xlink="http://www.w3.org/1999/xlink" x="0px" y="0px"
	 viewBox="0 0 9.6 22.1" style="enable-background:new 0 0 9.6 22.1;" xml:space="preserve">
<style type="text/css">
	.st0{enable-background:new    ;}
	.st1{fill:#515355;}
</style>
<g>
	<path d="M960.9,536.3v-0.2c0-0.3,0-0.5,0.1-0.7c0.1-0.2,0.2-0.6,0.7-1c0.3-0.3,0.6-0.4,1-0.5c0.3,0,0.6,0.1,0.7,0.3
		c0.1,0.1,0.1,0.2,0,0.3c0,0.1-0.1,0.1-0.2,0.2c-0.1,0.1-0.2,0.1-0.3,0c-0.2-0.2-0.4-0.3-0.7-0.3c-0.2,0-0.4,0.1-0.4,0.3
		c-0.1,0.2-0.2,0.6-0.2,1.3v0.4h1c0.1,0.1,0,0.3-0.1,0.4h-0.9v2.4c0,0.6,0.1,0.7,0.8,0.7v0.2h-2.1v-0.2c0.6-0.1,0.6-0.1,0.6-0.7
		v-2.5h-0.6l0-0.1l0.2-0.3H960.9z"/>
	<path d="M964.9,536.2c1.1,0,1.9,0.9,1.9,1.9c0,1.4-1.1,2-1.9,2c-1.2,0-2-0.9-2-1.9C963,536.8,964.1,536.2,964.9,536.2L964.9,536.2z
		 M964.8,536.4c-0.5,0-1,0.5-1,1.5c0,1.1,0.5,1.9,1.2,1.9c0.5,0,1-0.3,1-1.5C966,537.2,965.6,536.4,964.8,536.4L964.8,536.4z"/>
	<path d="M969.9,540v-0.2c0.5-0.1,0.6-0.1,0.6-0.7v-1.4c0-0.6-0.2-1-0.8-1c-0.3,0-0.7,0.2-0.9,0.4v2c0,0.6,0,0.6,0.6,0.7v0.2h-1.9
		v-0.2c0.6-0.1,0.6-0.1,0.6-0.7v-1.7c0-0.6-0.1-0.6-0.5-0.7v-0.2c0.4-0.1,0.9-0.2,1.3-0.3v0.7c0.2-0.1,0.4-0.3,0.6-0.4
		c0.2-0.2,0.5-0.3,0.7-0.3c0.7,0,1.1,0.5,1.1,1.3v1.6c0,0.6,0.1,0.6,0.6,0.7v0.2H969.9z"/>
	<path d="M974.1,540c-0.2,0.1-0.3,0.1-0.4,0.1c-0.6,0-0.9-0.3-0.9-1v-2.5h-0.6l0-0.1l0.2-0.3h0.4v-0.6l0.6-0.6l0.1,0v1.2h1
		c0.1,0.1,0.1,0.3-0.1,0.4h-0.9v2.2c0,0.7,0.3,0.8,0.5,0.8c0.2,0,0.4-0.1,0.5-0.1l0.1,0.2L974.1,540z"/>
	<path d="M977.2,538.3h-2l0.1-0.5h2.1L977.2,538.3z"/>
	<path d="M978.7,536.3v-0.2c0-0.3,0-0.5,0.1-0.7c0.1-0.2,0.2-0.6,0.7-1c0.3-0.3,0.6-0.4,1-0.5c0.3,0,0.6,0.1,0.7,0.3
		c0.1,0.1,0.1,0.2,0,0.3c0,0.1-0.1,0.1-0.2,0.2c-0.1,0.1-0.2,0.1-0.3,0c-0.2-0.2-0.4-0.3-0.7-0.3c-0.2,0-0.4,0.1-0.4,0.3
		c-0.1,0.2-0.2,0.6-0.2,1.3v0.4h1c0.1,0.1,0,0.3-0.1,0.4h-0.9v2.4c0,0.6,0.1,0.7,0.8,0.7v0.2h-2.1v-0.2c0.6-0.1,0.6-0.1,0.6-0.7
		v-2.5h-0.6l0-0.1l0.2-0.3H978.7z"/>
	<path d="M983.6,540.1c-0.2,0-0.4-0.1-0.4-0.2c-0.1-0.1-0.2-0.2-0.2-0.4c-0.4,0.2-0.8,0.5-1,0.5c-0.7,0-1.1-0.5-1.1-1.1
		c0-0.4,0.2-0.7,0.7-0.8c0.6-0.2,1.2-0.4,1.3-0.6v-0.2c0-0.6-0.3-0.9-0.7-0.9c-0.2,0-0.3,0.1-0.4,0.2c-0.1,0.1-0.2,0.3-0.3,0.6
		c-0.1,0.2-0.1,0.2-0.3,0.2c-0.2,0-0.4-0.2-0.4-0.4c0-0.1,0.1-0.2,0.3-0.4c0.3-0.2,0.8-0.5,1.3-0.6c0.3,0,0.5,0.1,0.7,0.2
		c0.3,0.3,0.4,0.6,0.4,1.1v1.5c0,0.4,0.2,0.5,0.3,0.5c0.1,0,0.2,0,0.3-0.1l0.1,0.2L983.6,540.1z M982.9,537.9
		c-0.2,0.1-0.5,0.3-0.7,0.3c-0.3,0.1-0.5,0.3-0.5,0.6c0,0.5,0.3,0.7,0.6,0.7c0.2,0,0.5-0.1,0.6-0.3V537.9z"/>
	<path d="M989.5,540v-0.2c0.5-0.1,0.6-0.1,0.6-0.7v-1.4c0-0.6-0.2-1-0.8-1c-0.3,0-0.6,0.2-0.9,0.4c0,0.1,0,0.2,0,0.4v1.6
		c0,0.5,0.1,0.6,0.6,0.6v0.2h-1.9v-0.2c0.5-0.1,0.6-0.1,0.6-0.7v-1.4c0-0.6-0.2-1-0.7-1c-0.3,0-0.7,0.2-0.9,0.4v2
		c0,0.6,0.1,0.6,0.5,0.7v0.2h-1.9v-0.2c0.6-0.1,0.6-0.1,0.6-0.7v-1.7c0-0.5,0-0.6-0.5-0.7v-0.2c0.4-0.1,0.9-0.2,1.3-0.3v0.7
		c0.2-0.1,0.4-0.3,0.6-0.4c0.2-0.1,0.4-0.2,0.7-0.2c0.4,0,0.8,0.3,1,0.7c0.3-0.2,0.5-0.3,0.7-0.5c0.2-0.1,0.4-0.2,0.7-0.2
		c0.7,0,1.1,0.5,1.1,1.3v1.6c0,0.6,0.1,0.6,0.6,0.7v0.2H989.5z"/>
	<path d="M991.9,540v-0.2c0.5-0.1,0.6-0.1,0.6-0.7v-1.7c0-0.5,0-0.6-0.5-0.7v-0.2c0.5-0.1,0.9-0.2,1.3-0.3v2.9
		c0,0.6,0.1,0.6,0.6,0.7v0.2H991.9z M992.3,535c0-0.3,0.2-0.5,0.5-0.5s0.5,0.2,0.5,0.5c0,0.2-0.2,0.5-0.5,0.5
		C992.6,535.4,992.3,535.2,992.3,535z"/>
	<path d="M994.1,540v-0.2c0.5-0.1,0.6-0.1,0.6-0.7v-4c0-0.6-0.1-0.6-0.6-0.7v-0.2c0.5-0.1,1-0.2,1.3-0.3v5.2c0,0.6,0.1,0.6,0.6,0.7
		v0.2H994.1z"/>
	<path d="M1000.5,536.5c-0.5,0.1-0.5,0.1-0.8,0.6c-0.2,0.4-0.5,1.2-1.1,2.5c-0.6,1.4-0.8,1.9-0.9,2.3c0,0.2-0.2,0.2-0.3,0.2
		c-0.3,0-0.5-0.2-0.5-0.4c0-0.1,0.1-0.2,0.2-0.3c0.3-0.2,0.5-0.4,0.7-0.8c0.2-0.3,0.2-0.5,0.3-0.6c0.1-0.1,0-0.2,0-0.4
		c-0.4-1-0.8-2.1-1-2.6c-0.2-0.4-0.3-0.6-0.8-0.6v-0.2h1.8l0,0.2c-0.4,0.1-0.5,0.1-0.3,0.5l0.8,2.1c0.2-0.5,0.6-1.6,0.8-2.1
		c0.1-0.3,0-0.4-0.4-0.5v-0.2h1.6V536.5z"/>
	<path d="M1001.3,536.5c0.3,0,0.5,0.2,0.5,0.5c0,0.3-0.2,0.5-0.5,0.5c-0.3,0-0.5-0.2-0.5-0.5C1000.8,536.7,1001,536.5,1001.3,536.5
		L1001.3,536.5z M1001.3,540.1c-0.3,0-0.5-0.2-0.5-0.5c0-0.3,0.2-0.5,0.5-0.5s0.5,0.2,0.5,0.5
		C1001.8,539.9,1001.6,540.1,1001.3,540.1L1001.3,540.1z"/>
	<path d="M1005.8,534c0,0.2-0.2,1.4-0.2,2l-0.3,0.1c-0.1-0.8-0.2-1.7-0.3-1.9L1005.8,534L1005.8,534z"/>
	<path d="M1009.1,534.4c1.1,0,2,0.2,2.5,0.7c0.4,0.4,0.8,1,0.8,1.8c0,1-0.4,1.8-1.1,2.3c-0.7,0.5-1.6,0.7-2.7,0.7h-2.2v-0.2
		c0.8-0.1,0.8-0.1,0.8-0.8v-3.4c0-0.7-0.1-0.8-0.8-0.8v-0.3H1009.1z M1008.1,538.8c0,0.7,0.3,0.8,0.9,0.8c1.6,0,2.4-1.2,2.4-2.5
		c0-0.9-0.3-1.6-1-2c-0.4-0.3-0.9-0.4-1.6-0.4c-0.4,0-0.6,0.1-0.7,0.1c-0.1,0.1-0.1,0.2-0.1,0.5V538.8z"/>
	<path d="M1013.1,540v-0.2c0.7-0.1,0.8-0.1,0.8-0.8v-3.4c0-0.7-0.1-0.8-0.8-0.8v-0.3h2.4v0.3c-0.7,0-0.8,0.1-0.8,0.8v3.4
		c0,0.7,0.1,0.8,0.8,0.8v0.2H1013.1z"/>
	<path d="M1022.3,534.7c-0.5,0-0.7,0.1-0.7,0.5c0,0.3-0.1,0.7-0.1,1.5v3.4h-0.3l-3.8-4.5h0l0,2.1c0,0.8,0,1.2,0.1,1.4
		c0,0.4,0.2,0.6,0.8,0.6v0.2h-2.1v-0.2c0.5,0,0.7-0.1,0.8-0.6c0-0.3,0.1-0.7,0.1-1.5v-1.8c0-0.6,0-0.7-0.2-0.9
		c-0.2-0.2-0.4-0.3-0.8-0.3v-0.3h1.3l3.7,4.2h0v-2c0-0.8,0-1.2-0.1-1.4c0-0.4-0.2-0.5-0.9-0.5v-0.3h2.1V534.7z"/>
	<path d="M1031.3,534.7c-0.5,0-0.7,0.1-0.7,0.5c0,0.3-0.1,0.7-0.1,1.5v3.4h-0.3l-3.8-4.5h0l0,2.1c0,0.8,0,1.2,0.1,1.4
		c0,0.4,0.2,0.6,0.8,0.6v0.2h-2.1v-0.2c0.5,0,0.7-0.1,0.8-0.6c0-0.3,0.1-0.7,0.1-1.5v-1.8c0-0.6,0-0.7-0.2-0.9
		c-0.2-0.2-0.4-0.3-0.8-0.3v-0.3h1.3l3.7,4.2h0v-2c0-0.8,0-1.2-0.1-1.4c0-0.4-0.2-0.5-0.9-0.5v-0.3h2.1V534.7z"/>
	<path d="M1035,539.2c-0.6,0.7-1.2,0.9-1.5,0.9c-1.1,0-1.7-0.9-1.7-1.8c0-0.6,0.2-1.1,0.6-1.5c0.4-0.4,0.8-0.7,1.3-0.7h0
		c0.7,0,1.3,0.6,1.3,1.3c0,0.2,0,0.2-0.2,0.3c-0.2,0-1.2,0.1-2.3,0.1c0,1.1,0.7,1.6,1.3,1.6c0.4,0,0.7-0.1,1-0.4L1035,539.2z
		 M1033.5,536.5c-0.4,0-0.8,0.3-0.9,1c0.5,0,0.9,0,1.4,0c0.2,0,0.2-0.1,0.2-0.2C1034.2,536.9,1033.9,536.5,1033.5,536.5
		L1033.5,536.5z"/>
	<path d="M1037.5,540v-0.2c0.4-0.1,0.4-0.1,0.3-0.4l-0.6-1c-0.2,0.3-0.4,0.6-0.5,0.9c-0.2,0.3-0.1,0.4,0.3,0.4v0.2h-1.6v-0.2
		c0.5-0.1,0.6-0.1,1-0.6c0.3-0.3,0.5-0.6,0.7-1l-0.8-1.2c-0.3-0.4-0.4-0.5-0.9-0.6v-0.2h1.8v0.2c-0.4,0.1-0.4,0.1-0.2,0.4l0.5,0.8
		c0.2-0.3,0.4-0.5,0.5-0.8c0.2-0.3,0.1-0.3-0.3-0.4v-0.2h1.6v0.2c-0.5,0.1-0.6,0.1-1,0.5c-0.2,0.2-0.4,0.5-0.7,0.9l0.9,1.3
		c0.3,0.5,0.4,0.6,0.9,0.6v0.2H1037.5z"/>
	<path d="M1041.4,540c-0.2,0.1-0.3,0.1-0.4,0.1c-0.6,0-0.9-0.3-0.9-1v-2.5h-0.6l0-0.1l0.2-0.3h0.4v-0.6l0.6-0.6l0.1,0v1.2h1
		c0.1,0.1,0.1,0.3-0.1,0.4h-0.9v2.2c0,0.7,0.3,0.8,0.5,0.8c0.2,0,0.4-0.1,0.5-0.1l0.1,0.2L1041.4,540z"/>
	<path d="M1048.2,540v-0.2c0.5-0.1,0.6-0.2,0.5-0.5c-0.1-0.3-0.3-0.8-0.5-1.3h-1.9c-0.1,0.4-0.3,0.7-0.4,1.1
		c-0.2,0.5-0.1,0.6,0.5,0.7v0.2h-1.9v-0.2c0.6-0.1,0.7-0.1,1-0.9l1.8-4.5l0.3-0.1c0.6,1.5,1.1,3,1.7,4.5c0.3,0.8,0.4,0.8,1,0.9v0.2
		H1048.2z M1047.4,535.5L1047.4,535.5c-0.3,0.7-0.6,1.4-0.8,2.1h1.6L1047.4,535.5z"/>
	<path d="M1052.2,537.1c0.3-0.5,0.6-0.9,1-0.9c0.3,0,0.5,0.2,0.5,0.4c0,0.2-0.1,0.4-0.3,0.5c-0.1,0-0.2,0-0.2,0
		c-0.1-0.1-0.2-0.2-0.4-0.2c-0.2,0-0.5,0.3-0.7,0.7v1.5c0,0.6,0,0.6,0.7,0.7v0.2h-2.1v-0.2c0.5-0.1,0.6-0.1,0.6-0.7v-1.8
		c0-0.5,0-0.6-0.5-0.7v-0.2c0.4-0.1,0.8-0.2,1.3-0.4L1052.2,537.1L1052.2,537.1z"/>
	<path d="M1056.9,540.1c-0.2,0-0.4-0.1-0.4-0.2c-0.1-0.1-0.2-0.2-0.2-0.4c-0.4,0.2-0.8,0.5-1,0.5c-0.7,0-1.1-0.5-1.1-1.1
		c0-0.4,0.2-0.7,0.7-0.8c0.6-0.2,1.2-0.4,1.3-0.6v-0.2c0-0.6-0.3-0.9-0.7-0.9c-0.2,0-0.3,0.1-0.4,0.2c-0.1,0.1-0.2,0.3-0.3,0.6
		c-0.1,0.2-0.1,0.2-0.3,0.2c-0.2,0-0.4-0.2-0.4-0.4c0-0.1,0.1-0.2,0.3-0.4c0.3-0.2,0.8-0.5,1.3-0.6c0.3,0,0.5,0.1,0.7,0.2
		c0.3,0.3,0.4,0.6,0.4,1.1v1.5c0,0.4,0.2,0.5,0.3,0.5c0.1,0,0.2,0,0.3-0.1l0.1,0.2L1056.9,540.1z M1056.3,537.9
		c-0.2,0.1-0.5,0.3-0.7,0.3c-0.3,0.1-0.5,0.3-0.5,0.6c0,0.5,0.3,0.7,0.6,0.7c0.2,0,0.5-0.1,0.6-0.3V537.9z"/>
	<path d="M1059.8,536.3c0.2-0.1,0.3-0.1,0.4-0.1c1,0,1.8,0.8,1.8,1.8c0,1.2-1,2.1-2.2,2.1c-0.4,0-0.8-0.1-1.3-0.3v-4.7
		c0-0.5,0-0.6-0.6-0.7v-0.2c0.4-0.1,1-0.2,1.3-0.3v2.6L1059.8,536.3z M1059.1,539c0,0.1,0,0.2,0.1,0.3c0.1,0.2,0.3,0.5,0.8,0.5
		c0.7,0,1.1-0.6,1.1-1.6c0-1-0.6-1.5-1.3-1.5c-0.2,0-0.5,0.1-0.6,0.1V539z"/>
	<path d="M1062.5,540v-0.2c0.5-0.1,0.6-0.1,0.6-0.7v-1.7c0-0.5,0-0.6-0.5-0.7v-0.2c0.5-0.1,0.9-0.2,1.3-0.3v2.9
		c0,0.6,0.1,0.6,0.6,0.7v0.2H1062.5z M1063,535c0-0.3,0.2-0.5,0.5-0.5s0.5,0.2,0.5,0.5c0,0.2-0.2,0.5-0.5,0.5
		C1063.2,535.4,1063,535.2,1063,535z"/>
	<path d="M1068.3,539.2c-0.4,0.5-1,0.9-1.5,0.9c-1.1,0-1.8-0.9-1.8-1.8c0-0.7,0.3-1.2,0.9-1.7c0.5-0.4,1-0.5,1.3-0.5h0
		c0.4,0,0.6,0.1,0.8,0.2c0.1,0.1,0.1,0.2,0.1,0.3c0,0.2-0.2,0.4-0.3,0.4c-0.1,0-0.1,0-0.2-0.1c-0.3-0.3-0.6-0.4-0.9-0.4
		c-0.5,0-1,0.4-1,1.3c0,1.2,0.9,1.6,1.3,1.6c0.4,0,0.7-0.1,1-0.5L1068.3,539.2z"/>
	<path d="M1069.5,534c0,0.2-0.2,1.4-0.2,2l-0.3,0.1c-0.1-0.8-0.2-1.7-0.3-1.9L1069.5,534L1069.5,534z"/>
	<path d="M1070.7,538.8c0.3,0,0.8,0.4,0.8,1c0,0.7-0.6,1.1-1.2,1.2l-0.1-0.3c0.4-0.2,0.7-0.4,0.7-0.7c0-0.3-0.2-0.5-0.6-0.6
		c0,0-0.1-0.1-0.1-0.2C1070.3,539,1070.5,538.8,1070.7,538.8L1070.7,538.8z M1070.9,536.5c0.3,0,0.5,0.2,0.5,0.5
		c0,0.3-0.2,0.5-0.5,0.5s-0.5-0.2-0.5-0.5C1070.4,536.7,1070.6,536.5,1070.9,536.5L1070.9,536.5z"/>
</g>
<g>
	<path d="M960.9,536.3v-0.2c0-0.3,0-0.5,0.1-0.7c0.1-0.2,0.2-0.6,0.7-1c0.3-0.3,0.6-0.4,1-0.5c0.3,0,0.6,0.1,0.7,0.3
		c0.1,0.1,0.1,0.2,0,0.3c0,0.1-0.1,0.1-0.2,0.2c-0.1,0.1-0.2,0.1-0.3,0c-0.2-0.2-0.4-0.3-0.7-0.3c-0.2,0-0.4,0.1-0.4,0.3
		c-0.1,0.2-0.2,0.6-0.2,1.3v0.4h1c0.1,0.1,0,0.3-0.1,0.4h-0.9v2.4c0,0.6,0.1,0.7,0.8,0.7v0.2h-2.1v-0.2c0.6-0.1,0.6-0.1,0.6-0.7
		v-2.5h-0.6l0-0.1l0.2-0.3H960.9z"/>
	<path d="M964.9,536.2c1.1,0,1.9,0.9,1.9,1.9c0,1.4-1.1,2-1.9,2c-1.2,0-2-0.9-2-1.9C963,536.8,964.1,536.2,964.9,536.2L964.9,536.2z
		 M964.8,536.4c-0.5,0-1,0.5-1,1.5c0,1.1,0.5,1.9,1.2,1.9c0.5,0,1-0.3,1-1.5C966,537.2,965.6,536.4,964.8,536.4L964.8,536.4z"/>
	<path d="M969.9,540v-0.2c0.5-0.1,0.6-0.1,0.6-0.7v-1.4c0-0.6-0.2-1-0.8-1c-0.3,0-0.7,0.2-0.9,0.4v2c0,0.6,0,0.6,0.6,0.7v0.2h-1.9
		v-0.2c0.6-0.1,0.6-0.1,0.6-0.7v-1.7c0-0.6-0.1-0.6-0.5-0.7v-0.2c0.4-0.1,0.9-0.2,1.3-0.3v0.7c0.2-0.1,0.4-0.3,0.6-0.4
		c0.2-0.2,0.5-0.3,0.7-0.3c0.7,0,1.1,0.5,1.1,1.3v1.6c0,0.6,0.1,0.6,0.6,0.7v0.2H969.9z"/>
	<path d="M974.1,540c-0.2,0.1-0.3,0.1-0.4,0.1c-0.6,0-0.9-0.3-0.9-1v-2.5h-0.6l0-0.1l0.2-0.3h0.4v-0.6l0.6-0.6l0.1,0v1.2h1
		c0.1,0.1,0.1,0.3-0.1,0.4h-0.9v2.2c0,0.7,0.3,0.8,0.5,0.8c0.2,0,0.4-0.1,0.5-0.1l0.1,0.2L974.1,540z"/>
	<path d="M977.2,538.3h-2l0.1-0.5h2.1L977.2,538.3z"/>
	<path d="M978.7,536.3v-0.2c0-0.3,0-0.5,0.1-0.7c0.1-0.2,0.2-0.6,0.7-1c0.3-0.3,0.6-0.4,1-0.5c0.3,0,0.6,0.1,0.7,0.3
		c0.1,0.1,0.1,0.2,0,0.3c0,0.1-0.1,0.1-0.2,0.2c-0.1,0.1-0.2,0.1-0.3,0c-0.2-0.2-0.4-0.3-0.7-0.3c-0.2,0-0.4,0.1-0.4,0.3
		c-0.1,0.2-0.2,0.6-0.2,1.3v0.4h1c0.1,0.1,0,0.3-0.1,0.4h-0.9v2.4c0,0.6,0.1,0.7,0.8,0.7v0.2h-2.1v-0.2c0.6-0.1,0.6-0.1,0.6-0.7
		v-2.5h-0.6l0-0.1l0.2-0.3H978.7z"/>
	<path d="M983.6,540.1c-0.2,0-0.4-0.1-0.4-0.2c-0.1-0.1-0.2-0.2-0.2-0.4c-0.4,0.2-0.8,0.5-1,0.5c-0.7,0-1.1-0.5-1.1-1.1
		c0-0.4,0.2-0.7,0.7-0.8c0.6-0.2,1.2-0.4,1.3-0.6v-0.2c0-0.6-0.3-0.9-0.7-0.9c-0.2,0-0.3,0.1-0.4,0.2c-0.1,0.1-0.2,0.3-0.3,0.6
		c-0.1,0.2-0.1,0.2-0.3,0.2c-0.2,0-0.4-0.2-0.4-0.4c0-0.1,0.1-0.2,0.3-0.4c0.3-0.2,0.8-0.5,1.3-0.6c0.3,0,0.5,0.1,0.7,0.2
		c0.3,0.3,0.4,0.6,0.4,1.1v1.5c0,0.4,0.2,0.5,0.3,0.5c0.1,0,0.2,0,0.3-0.1l0.1,0.2L983.6,540.1z M982.9,537.9
		c-0.2,0.1-0.5,0.3-0.7,0.3c-0.3,0.1-0.5,0.3-0.5,0.6c0,0.5,0.3,0.7,0.6,0.7c0.2,0,0.5-0.1,0.6-0.3V537.9z"/>
	<path d="M989.5,540v-0.2c0.5-0.1,0.6-0.1,0.6-0.7v-1.4c0-0.6-0.2-1-0.8-1c-0.3,0-0.6,0.2-0.9,0.4c0,0.1,0,0.2,0,0.4v1.6
		c0,0.5,0.1,0.6,0.6,0.6v0.2h-1.9v-0.2c0.5-0.1,0.6-0.1,0.6-0.7v-1.4c0-0.6-0.2-1-0.7-1c-0.3,0-0.7,0.2-0.9,0.4v2
		c0,0.6,0.1,0.6,0.5,0.7v0.2h-1.9v-0.2c0.6-0.1,0.6-0.1,0.6-0.7v-1.7c0-0.5,0-0.6-0.5-0.7v-0.2c0.4-0.1,0.9-0.2,1.3-0.3v0.7
		c0.2-0.1,0.4-0.3,0.6-0.4c0.2-0.1,0.4-0.2,0.7-0.2c0.4,0,0.8,0.3,1,0.7c0.3-0.2,0.5-0.3,0.7-0.5c0.2-0.1,0.4-0.2,0.7-0.2
		c0.7,0,1.1,0.5,1.1,1.3v1.6c0,0.6,0.1,0.6,0.6,0.7v0.2H989.5z"/>
	<path d="M991.9,540v-0.2c0.5-0.1,0.6-0.1,0.6-0.7v-1.7c0-0.5,0-0.6-0.5-0.7v-0.2c0.5-0.1,0.9-0.2,1.3-0.3v2.9
		c0,0.6,0.1,0.6,0.6,0.7v0.2H991.9z M992.3,535c0-0.3,0.2-0.5,0.5-0.5s0.5,0.2,0.5,0.5c0,0.2-0.2,0.5-0.5,0.5
		C992.6,535.4,992.3,535.2,992.3,535z"/>
	<path d="M994.1,540v-0.2c0.5-0.1,0.6-0.1,0.6-0.7v-4c0-0.6-0.1-0.6-0.6-0.7v-0.2c0.5-0.1,1-0.2,1.3-0.3v5.2c0,0.6,0.1,0.6,0.6,0.7
		v0.2H994.1z"/>
	<path d="M1000.5,536.5c-0.5,0.1-0.5,0.1-0.8,0.6c-0.2,0.4-0.5,1.2-1.1,2.5c-0.6,1.4-0.8,1.9-0.9,2.3c0,0.2-0.2,0.2-0.3,0.2
		c-0.3,0-0.5-0.2-0.5-0.4c0-0.1,0.1-0.2,0.2-0.3c0.3-0.2,0.5-0.4,0.7-0.8c0.2-0.3,0.2-0.5,0.3-0.6c0.1-0.1,0-0.2,0-0.4
		c-0.4-1-0.8-2.1-1-2.6c-0.2-0.4-0.3-0.6-0.8-0.6v-0.2h1.8l0,0.2c-0.4,0.1-0.5,0.1-0.3,0.5l0.8,2.1c0.2-0.5,0.6-1.6,0.8-2.1
		c0.1-0.3,0-0.4-0.4-0.5v-0.2h1.6V536.5z"/>
	<path d="M1001.3,536.5c0.3,0,0.5,0.2,0.5,0.5c0,0.3-0.2,0.5-0.5,0.5c-0.3,0-0.5-0.2-0.5-0.5C1000.8,536.7,1001,536.5,1001.3,536.5
		L1001.3,536.5z M1001.3,540.1c-0.3,0-0.5-0.2-0.5-0.5c0-0.3,0.2-0.5,0.5-0.5s0.5,0.2,0.5,0.5
		C1001.8,539.9,1001.6,540.1,1001.3,540.1L1001.3,540.1z"/>
	<path d="M1005.8,534c0,0.2-0.2,1.4-0.2,2l-0.3,0.1c-0.1-0.8-0.2-1.7-0.3-1.9L1005.8,534L1005.8,534z"/>
	<path d="M1009.1,534.4c1.1,0,2,0.2,2.5,0.7c0.4,0.4,0.8,1,0.8,1.8c0,1-0.4,1.8-1.1,2.3c-0.7,0.5-1.6,0.7-2.7,0.7h-2.2v-0.2
		c0.8-0.1,0.8-0.1,0.8-0.8v-3.4c0-0.7-0.1-0.8-0.8-0.8v-0.3H1009.1z M1008.1,538.8c0,0.7,0.3,0.8,0.9,0.8c1.6,0,2.4-1.2,2.4-2.5
		c0-0.9-0.3-1.6-1-2c-0.4-0.3-0.9-0.4-1.6-0.4c-0.4,0-0.6,0.1-0.7,0.1c-0.1,0.1-0.1,0.2-0.1,0.5V538.8z"/>
	<path d="M1013.1,540v-0.2c0.7-0.1,0.8-0.1,0.8-0.8v-3.4c0-0.7-0.1-0.8-0.8-0.8v-0.3h2.4v0.3c-0.7,0-0.8,0.1-0.8,0.8v3.4
		c0,0.7,0.1,0.8,0.8,0.8v0.2H1013.1z"/>
	<path d="M1022.3,534.7c-0.5,0-0.7,0.1-0.7,0.5c0,0.3-0.1,0.7-0.1,1.5v3.4h-0.3l-3.8-4.5h0l0,2.1c0,0.8,0,1.2,0.1,1.4
		c0,0.4,0.2,0.6,0.8,0.6v0.2h-2.1v-0.2c0.5,0,0.7-0.1,0.8-0.6c0-0.3,0.1-0.7,0.1-1.5v-1.8c0-0.6,0-0.7-0.2-0.9
		c-0.2-0.2-0.4-0.3-0.8-0.3v-0.3h1.3l3.7,4.2h0v-2c0-0.8,0-1.2-0.1-1.4c0-0.4-0.2-0.5-0.9-0.5v-0.3h2.1V534.7z"/>
	<path d="M1031.3,534.7c-0.5,0-0.7,0.1-0.7,0.5c0,0.3-0.1,0.7-0.1,1.5v3.4h-0.3l-3.8-4.5h0l0,2.1c0,0.8,0,1.2,0.1,1.4
		c0,0.4,0.2,0.6,0.8,0.6v0.2h-2.1v-0.2c0.5,0,0.7-0.1,0.8-0.6c0-0.3,0.1-0.7,0.1-1.5v-1.8c0-0.6,0-0.7-0.2-0.9
		c-0.2-0.2-0.4-0.3-0.8-0.3v-0.3h1.3l3.7,4.2h0v-2c0-0.8,0-1.2-0.1-1.4c0-0.4-0.2-0.5-0.9-0.5v-0.3h2.1V534.7z"/>
	<path d="M1035,539.2c-0.6,0.7-1.2,0.9-1.5,0.9c-1.1,0-1.7-0.9-1.7-1.8c0-0.6,0.2-1.1,0.6-1.5c0.4-0.4,0.8-0.7,1.3-0.7h0
		c0.7,0,1.3,0.6,1.3,1.3c0,0.2,0,0.2-0.2,0.3c-0.2,0-1.2,0.1-2.3,0.1c0,1.1,0.7,1.6,1.3,1.6c0.4,0,0.7-0.1,1-0.4L1035,539.2z
		 M1033.5,536.5c-0.4,0-0.8,0.3-0.9,1c0.5,0,0.9,0,1.4,0c0.2,0,0.2-0.1,0.2-0.2C1034.2,536.9,1033.9,536.5,1033.5,536.5
		L1033.5,536.5z"/>
	<path d="M1037.5,540v-0.2c0.4-0.1,0.4-0.1,0.3-0.4l-0.6-1c-0.2,0.3-0.4,0.6-0.5,0.9c-0.2,0.3-0.1,0.4,0.3,0.4v0.2h-1.6v-0.2
		c0.5-0.1,0.6-0.1,1-0.6c0.3-0.3,0.5-0.6,0.7-1l-0.8-1.2c-0.3-0.4-0.4-0.5-0.9-0.6v-0.2h1.8v0.2c-0.4,0.1-0.4,0.1-0.2,0.4l0.5,0.8
		c0.2-0.3,0.4-0.5,0.5-0.8c0.2-0.3,0.1-0.3-0.3-0.4v-0.2h1.6v0.2c-0.5,0.1-0.6,0.1-1,0.5c-0.2,0.2-0.4,0.5-0.7,0.9l0.9,1.3
		c0.3,0.5,0.4,0.6,0.9,0.6v0.2H1037.5z"/>
	<path d="M1041.4,540c-0.2,0.1-0.3,0.1-0.4,0.1c-0.6,0-0.9-0.3-0.9-1v-2.5h-0.6l0-0.1l0.2-0.3h0.4v-0.6l0.6-0.6l0.1,0v1.2h1
		c0.1,0.1,0.1,0.3-0.1,0.4h-0.9v2.2c0,0.7,0.3,0.8,0.5,0.8c0.2,0,0.4-0.1,0.5-0.1l0.1,0.2L1041.4,540z"/>
	<path d="M1048.2,540v-0.2c0.5-0.1,0.6-0.2,0.5-0.5c-0.1-0.3-0.3-0.8-0.5-1.3h-1.9c-0.1,0.4-0.3,0.7-0.4,1.1
		c-0.2,0.5-0.1,0.6,0.5,0.7v0.2h-1.9v-0.2c0.6-0.1,0.7-0.1,1-0.9l1.8-4.5l0.3-0.1c0.6,1.5,1.1,3,1.7,4.5c0.3,0.8,0.4,0.8,1,0.9v0.2
		H1048.2z M1047.4,535.5L1047.4,535.5c-0.3,0.7-0.6,1.4-0.8,2.1h1.6L1047.4,535.5z"/>
	<path d="M1052.2,537.1c0.3-0.5,0.6-0.9,1-0.9c0.3,0,0.5,0.2,0.5,0.4c0,0.2-0.1,0.4-0.3,0.5c-0.1,0-0.2,0-0.2,0
		c-0.1-0.1-0.2-0.2-0.4-0.2c-0.2,0-0.5,0.3-0.7,0.7v1.5c0,0.6,0,0.6,0.7,0.7v0.2h-2.1v-0.2c0.5-0.1,0.6-0.1,0.6-0.7v-1.8
		c0-0.5,0-0.6-0.5-0.7v-0.2c0.4-0.1,0.8-0.2,1.3-0.4L1052.2,537.1L1052.2,537.1z"/>
	<path d="M1056.9,540.1c-0.2,0-0.4-0.1-0.4-0.2c-0.1-0.1-0.2-0.2-0.2-0.4c-0.4,0.2-0.8,0.5-1,0.5c-0.7,0-1.1-0.5-1.1-1.1
		c0-0.4,0.2-0.7,0.7-0.8c0.6-0.2,1.2-0.4,1.3-0.6v-0.2c0-0.6-0.3-0.9-0.7-0.9c-0.2,0-0.3,0.1-0.4,0.2c-0.1,0.1-0.2,0.3-0.3,0.6
		c-0.1,0.2-0.1,0.2-0.3,0.2c-0.2,0-0.4-0.2-0.4-0.4c0-0.1,0.1-0.2,0.3-0.4c0.3-0.2,0.8-0.5,1.3-0.6c0.3,0,0.5,0.1,0.7,0.2
		c0.3,0.3,0.4,0.6,0.4,1.1v1.5c0,0.4,0.2,0.5,0.3,0.5c0.1,0,0.2,0,0.3-0.1l0.1,0.2L1056.9,540.1z M1056.3,537.9
		c-0.2,0.1-0.5,0.3-0.7,0.3c-0.3,0.1-0.5,0.3-0.5,0.6c0,0.5,0.3,0.7,0.6,0.7c0.2,0,0.5-0.1,0.6-0.3V537.9z"/>
	<path d="M1059.8,536.3c0.2-0.1,0.3-0.1,0.4-0.1c1,0,1.8,0.8,1.8,1.8c0,1.2-1,2.1-2.2,2.1c-0.4,0-0.8-0.1-1.3-0.3v-4.7
		c0-0.5,0-0.6-0.6-0.7v-0.2c0.4-0.1,1-0.2,1.3-0.3v2.6L1059.8,536.3z M1059.1,539c0,0.1,0,0.2,0.1,0.3c0.1,0.2,0.3,0.5,0.8,0.5
		c0.7,0,1.1-0.6,1.1-1.6c0-1-0.6-1.5-1.3-1.5c-0.2,0-0.5,0.1-0.6,0.1V539z"/>
	<path d="M1062.5,540v-0.2c0.5-0.1,0.6-0.1,0.6-0.7v-1.7c0-0.5,0-0.6-0.5-0.7v-0.2c0.5-0.1,0.9-0.2,1.3-0.3v2.9
		c0,0.6,0.1,0.6,0.6,0.7v0.2H1062.5z M1063,535c0-0.3,0.2-0.5,0.5-0.5s0.5,0.2,0.5,0.5c0,0.2-0.2,0.5-0.5,0.5
		C1063.2,535.4,1063,535.2,1063,535z"/>
	<path d="M1068.3,539.2c-0.4,0.5-1,0.9-1.5,0.9c-1.1,0-1.8-0.9-1.8-1.8c0-0.7,0.3-1.2,0.9-1.7c0.5-0.4,1-0.5,1.3-0.5h0
		c0.4,0,0.6,0.1,0.8,0.2c0.1,0.1,0.1,0.2,0.1,0.3c0,0.2-0.2,0.4-0.3,0.4c-0.1,0-0.1,0-0.2-0.1c-0.3-0.3-0.6-0.4-0.9-0.4
		c-0.5,0-1,0.4-1,1.3c0,1.2,0.9,1.6,1.3,1.6c0.4,0,0.7-0.1,1-0.5L1068.3,539.2z"/>
	<path d="M1069.5,534c0,0.2-0.2,1.4-0.2,2l-0.3,0.1c-0.1-0.8-0.2-1.7-0.3-1.9L1069.5,534L1069.5,534z"/>
	<path d="M1070.7,538.8c0.3,0,0.8,0.4,0.8,1c0,0.7-0.6,1.1-1.2,1.2l-0.1-0.3c0.4-0.2,0.7-0.4,0.7-0.7c0-0.3-0.2-0.5-0.6-0.6
		c0,0-0.1-0.1-0.1-0.2C1070.3,539,1070.5,538.8,1070.7,538.8L1070.7,538.8z M1070.9,536.5c0.3,0,0.5,0.2,0.5,0.5
		c0,0.3-0.2,0.5-0.5,0.5s-0.5-0.2-0.5-0.5C1070.4,536.7,1070.6,536.5,1070.9,536.5L1070.9,536.5z"/>
</g>
<g class="st0">
	<path class="st1" d="M3.3,10.3v5.5h5.4c0.3,0,0.4,0,0.4,0.3v0.6c0,0.3-0.1,0.3-0.4,0.3h-7c-0.3,0-0.4,0-0.4-0.4V3.4
		c0-0.3,0.1-0.5,0.4-0.5h7c0.2,0,0.4,0,0.4,0.3c0,0.3,0,0.7,0,0.8c0,0.2-0.1,0.2-0.4,0.2H3.3V9h4.6c0.2,0,0.4,0,0.4,0.3
		c0,0.3,0,0.7,0,0.8c0,0.2-0.1,0.2-0.4,0.2H3.3z"/>
</g>
</svg>
