<?xml version="1.0" encoding="utf-8"?>
<!-- Generator: Adobe Illustrator 24.1.0, SVG Export Plug-In . SVG Version: 6.00 Build 0)  -->
<svg version="1.1" id="Layer_1" xmlns="http://www.w3.org/2000/svg" xmlns:xlink="http://www.w3.org/1999/xlink" x="0px" y="0px"
	 viewBox="0 0 511.1 387.8" style="enable-background:new 0 0 511.1 387.8;" xml:space="preserve">
<style type="text/css">
	.st0{fill:none;stroke:#59C2E2;stroke-width:0.5;stroke-miterlimit:10;}
</style>
<g>
	<path class="st0" d="M1,193.8c-0.4,106.6,17.7,193,40.5,193.1c22.7,0.1,143.4-92.1,143.8-198.6C185.7,81.7,65.6,1.1,42.9,1
		C20.2,0.9,1.4,87.2,1,193.8"/>
	<path class="st0" d="M510.8,194.6c-2.2,106.5-22.4,192.6-45.1,192.1c-22.7-0.5-204.4-98-202.2-204.6C265.7,75.6,451,0.3,473.7,0.8
		C496.4,1.3,513,88,510.8,194.6"/>
	<path class="st0" d="M305.9,300.4c-0.5-0.5-1-1-1.5-1.5c-4-4-7.9-8.1-11.6-12.3c-0.6-0.6-1.1-1.3-1.7-1.9
		c-3.7-4.2-7.2-8.5-10.6-12.9c-0.4-0.5-0.7-1-1.1-1.4c-3.4-4.5-6.6-9.1-9.5-13.8c-0.1-0.1-0.1-0.2-0.2-0.3c-2.9-4.6-5.4-9.3-7.7-14
		c-0.3-0.7-0.7-1.4-1-2.1c-2.2-4.5-4-9.1-5.6-13.7c-0.3-0.8-0.6-1.7-0.8-2.5c-1.5-4.6-2.7-9.3-3.6-14c-0.1-0.7-0.2-1.4-0.3-2.1
		c-0.8-5-1.3-9.9-1.3-14.9c0-5.3,0.4-10.4,1.1-15.5c0.1-0.9,0.2-1.7,0.3-2.6c0.7-4.8,1.8-9.6,3.1-14.2c0.2-0.8,0.5-1.7,0.7-2.5
		c1.4-4.8,3.1-9.4,5-14c0.1-0.1,0.1-0.3,0.2-0.4c2-4.7,4.4-9.2,6.9-13.6c0.2-0.4,0.4-0.8,0.7-1.2c2.6-4.4,5.4-8.7,8.5-12.9
		c0.3-0.4,0.6-0.8,0.9-1.3c9.8-13.2,21.6-25.3,34.7-36.3c0,0,0,0,0,0C257.9,32.1,192.3,1,179.3,0.9c-12.9-0.1-24.5,27.7-32.3,71.3
		c0.8,0.8,1.5,1.8,2.2,2.6c1.9,2.2,3.8,4.4,5.6,6.6c1.9,2.2,3.7,4.5,5.5,6.8c1.8,2.3,3.5,4.6,5.2,6.9c1.8,2.5,3.5,5,5.1,7.5
		c1.6,2.4,3.1,4.7,4.6,7.2c1.6,2.7,3.1,5.5,4.7,8.2c1.3,2.4,2.6,4.8,3.9,7.3c1.5,3,2.7,6,4,9.1c1,2.5,2.1,4.9,3.1,7.4
		c1.2,3.3,2.2,6.7,3.2,10.1c0.7,2.4,1.5,4.8,2.2,7.2c1,3.9,1.6,7.8,2.3,11.8c0.4,2.1,0.9,4.1,1.1,6.2c0.8,6.2,1.2,12.4,1.2,18.8
		c0,6.3-0.5,12.5-1.3,18.6c-0.3,2.1-0.8,4.2-1.2,6.2c-0.7,4-1.4,8-2.4,11.9c-0.6,2.5-1.5,4.9-2.2,7.3c-1,3.4-2.1,6.9-3.3,10.2
		c-1,2.6-2.1,5.1-3.1,7.7c-1.3,3.1-2.6,6.1-4.1,9.2c-1.3,2.6-2.6,5.2-4,7.8c-1.5,2.8-3,5.5-4.6,8.3c-1.6,2.6-3.1,5.2-4.8,7.8
		c-1.6,2.5-3.2,4.9-4.9,7.4c-1.8,2.6-3.6,5.2-5.5,7.7c-1.6,2.2-3.3,4.3-5,6.5c-2,2.6-4.1,5.1-6.2,7.6c-0.4,0.5-0.9,1.1-1.3,1.6
		c7.3,39.8,18.2,65,30.4,65.1c13.7,0.1,86.1-28.3,141.5-74.2c0,0,0,0,0,0C314.4,308.7,310.1,304.6,305.9,300.4"/>
</g>
</svg>
