<?xml version="1.0" encoding="utf-8"?>
<!-- Generator: Adobe Illustrator 24.1.0, SVG Export Plug-In . SVG Version: 6.00 Build 0)  -->
<svg version="1.1" id="Layer_1" xmlns="http://www.w3.org/2000/svg" xmlns:xlink="http://www.w3.org/1999/xlink" x="0px" y="0px"
	 viewBox="0 0 25 29.2" style="enable-background:new 0 0 25 29.2;" xml:space="preserve">
<style type="text/css">
	.st0{fill:#FFFFFF;}
</style>
<g>
	<g>
		<path class="st0" d="M17,4.7c0.2,0,0.4-0.1,0.6-0.2v3c0,0.4,0.4,0.8,0.8,0.8s0.8-0.4,0.8-0.8v-3c0.3,0.3,0.8,0.3,1.1,0
			c0.3-0.3,0.3-0.8,0-1.1L18.9,2c-0.1-0.1-0.4-0.2-0.6-0.2c-0.2,0-0.4,0.1-0.6,0.2l-1.3,1.3c-0.3,0.3-0.3,0.8,0,1.1
			C16.6,4.6,16.8,4.7,17,4.7z M24.8,5.6c-0.3-0.3-0.8-0.3-1.1,0v-3c0-0.4-0.4-0.8-0.8-0.8c-0.4,0-0.8,0.4-0.8,0.8v3
			c-0.3-0.3-0.8-0.3-1.1,0c-0.3,0.3-0.3,0.8,0,1.1L22.3,8c0.2,0.2,0.4,0.2,0.6,0.2c0.2,0,0.4-0.1,0.6-0.2l1.3-1.3
			C25.1,6.4,25.1,5.9,24.8,5.6z M19.5,12.2c-0.4,0-0.9,0.1-1.3,0.2c-0.6-1.1-1.8-1.9-3.1-1.9c-0.5,0-1,0.1-1.4,0.3
			c-0.6-1.1-1.8-1.9-3.1-1.9c-0.3,0-0.7,0-1,0.1c0-0.3,0-0.7,0-1l0-3.3c0-0.9,0-1.3,0-1.5h0c0-0.9-0.4-1.8-1.2-2.4
			C7.7,0.3,6.9,0,6,0C4.1,0,2.5,1.6,2.5,3.5v10.7c-1.3,0.4-2.4,1.6-2.5,3.3c-0.1,2.7,0.1,6.1,2.5,8.5c2,2.1,5.2,3.1,9.6,3.1
			c4,0,7-1.2,8.8-3.5c1.3-1.6,2-3.8,2-6.4l0-3.6C23,13.8,21.4,12.2,19.5,12.2z M12.2,27.6c-9.5,0-10.7-4.8-10.6-10c0-1.2,1.1-2,2-2
			V18c0,0.3,0.2,0.3,0.3,0.3c0.1,0,0.3,0,0.3-0.3c0-0.3,0-14.4,0-14.4C4.1,2.5,5,1.6,6,1.6C7,1.6,8,2.3,8,3.3c0,0,0,7.1,0,8.9
			c0,0,0,0,0,0v0.4c0,0.2,0.1,0.3,0.3,0.3c0.2,0,0.3-0.1,0.3-0.3v-0.1c0-1.1,0.9-1.9,1.9-1.9c1.1,0,1.9,0.9,1.9,1.9l0,1.4
			c0,0.2,0.1,0.3,0.3,0.3c0.2,0,0.3-0.1,0.3-0.3l0-0.1c0-1,0.9-1.7,1.9-1.7c1.1,0,1.9,0.9,1.9,1.9l0,1.4c0,0.2,0.1,0.3,0.3,0.3
			c0.2,0,0.3-0.1,0.3-0.3l0-0.1c0-0.9,1-1.6,1.9-1.6c1.1,0,1.9,0.9,1.9,1.9l0,3.6C21.4,22.6,20.1,27.6,12.2,27.6z"/>
	</g>
</g>
</svg>
