<?xml version="1.0" standalone="no"?>
<!DOCTYPE svg PUBLIC "-//W3C//DTD SVG 1.1//EN" "http://www.w3.org/Graphics/SVG/1.1/DTD/svg11.dtd" >
<svg xmlns="http://www.w3.org/2000/svg" xmlns:xlink="http://www.w3.org/1999/xlink" version="1.1">
<metadata>
Created by FontForge 20170731 at Fri Oct  8 20:14:55 1999
 By Aleksey,,,
Copyright (c) 1992, 1996, 1998, 1999 Adobe Systems Incorporated.  All Rights Reserved.Barmeno is either a registered trademark or trademark of Berthold Types Limited in the United States and/or other countries.
</metadata>
<defs>
<font id="Barmeno-Medium" horiz-adv-x="542" >
  <font-face 
    font-family="Barmeno Regular"
    font-weight="500"
    font-stretch="normal"
    units-per-em="1000"
    panose-1="2 11 6 0 0 0 0 0 0 0"
    ascent="750"
    descent="-250"
    x-height="518"
    cap-height="706"
    bbox="-147 -250 1096 937"
    underline-thickness="50"
    underline-position="-200"
    unicode-range="U+0020-FB02"
  />
<missing-glyph horiz-adv-x="271" 
 />
    <glyph glyph-name=".notdef" horiz-adv-x="271" 
 />
    <glyph glyph-name=".null" horiz-adv-x="0" 
 />
    <glyph glyph-name="nonmarkingreturn" horiz-adv-x="333" 
 />
    <glyph glyph-name="space" unicode=" " horiz-adv-x="271" 
 />
    <glyph glyph-name="space" unicode="&#xa0;" horiz-adv-x="271" 
 />
    <glyph glyph-name="exclam" unicode="!" horiz-adv-x="292" 
d="M239 683l-39 -425q-1 -14 -5.5 -17.5t-17.5 -3.5q-30 0 -33 1q-9 1 -12 20l-37 427q-1 13 3 17t17 4h102q13 0 18 -4t4 -19zM241 66q-2 -30 -23.5 -51t-52.5 -21q-34 0 -55 23t-21 52q0 31 22.5 53t53.5 22q32 0 54.5 -22.5t21.5 -55.5z" />
    <glyph glyph-name="quotedbl" unicode="&#x22;" horiz-adv-x="396" 
d="M342 687l-39 -253h-23l-39 244q-1 7 -1 19q0 26 16.5 39t37.5 13q33 0 44 -24q6 -16 4 -38zM155 687l-40 -253h-23l-39 244q0 4 -0.5 10t-0.5 9q0 26 17 39t38 13q31 0 43 -23q7 -15 5 -39z" />
    <glyph glyph-name="numbersign" unicode="#" horiz-adv-x="583" 
d="M559 307v-77h-150l-33 -230h-80l33 230h-111l-32 -230h-81l33 230h-138v77h149l16 107h-141v77h151l31 215h80l-30 -215h110l31 215h78l-29 -215h138v-77h-149l-16 -107h140zM229 307h111l15 107h-111z" />
    <glyph glyph-name="dollar" unicode="$" 
d="M293 648v-234q53 -23 73 -32.5t44 -25t41 -33.5q53 -57 53 -134q0 -84 -56 -140q-23 -23 -53.5 -37.5t-50.5 -19t-51 -8.5v-66q0 -9 -2 -11.5t-10 -2.5q-34 0 -34 13v67q-65 6 -110 26t-64.5 47t-26.5 47t-7 38q0 24 15 39.5t37 15.5q16 0 29 -9t18 -17.5t13 -23.5
q17 -35 36 -53.5t60 -28.5v243q-40 17 -60.5 27t-52 30.5t-47.5 40.5t-28.5 52t-12.5 71q0 75 50 130t151 61v67q0 9 3 11.5t12 2.5q16 0 21 -0.5t7.5 -3t2.5 -9.5v-68q83 -6 132.5 -47t49.5 -84q0 -25 -15 -38.5t-35 -13.5q-15 0 -26 7.5t-17.5 17t-18.5 32.5
q-16 25 -30 36t-40 18zM293 289v-226q54 3 78.5 33t24.5 69q0 28 -10.5 50.5t-30.5 37.5t-32 21.5t-30 14.5zM247 432v218q-30 -3 -50.5 -15t-29.5 -29t-12.5 -31t-3.5 -27q0 -25 9 -45t26 -34t29 -21t32 -16z" />
    <glyph glyph-name="percent" unicode="%" horiz-adv-x="792" 
d="M304 487q0 -104 -36 -168t-101 -64q-63 0 -100.5 61t-37.5 170q0 110 38.5 170.5t100.5 60.5q64 0 100 -63.5t36 -166.5zM224 493q0 175 -58 175q-57 0 -57 -171q0 -187 58 -187q57 0 57 183zM763 222q0 -104 -36.5 -168t-101.5 -64q-62 0 -100 60t-38 171t38.5 171
t100.5 60q65 0 101 -63t36 -167zM683 228q0 175 -59 175q-57 0 -57 -171q0 -187 58 -187t58 183zM598 677l-347 -658q-7 -13 -11.5 -16t-15.5 -3q-26 0 -32 1t-6 8t7 20l348 658q9 20 26 20q39 0 39 -10q0 -4 -8 -20z" />
    <glyph glyph-name="ampersand" unicode="&#x26;" horiz-adv-x="667" 
d="M495 24l-80 104q-15 -24 -23.5 -36.5t-29.5 -36t-40 -36.5t-48.5 -23.5t-62.5 -10.5q-81 0 -130 53t-49 121q0 98 97 172q16 11 89 56q-42 59 -60.5 97.5t-18.5 79.5q0 69 50.5 113t142.5 44q83 0 128.5 -39.5t45.5 -100.5q0 -58 -38.5 -100t-112.5 -86l88 -114
q77 114 158 114q33 0 45 -16.5t12 -34.5q0 -10 -3.5 -19.5t-17.5 -19.5t-37 -11q-44 -2 -63 -11t-54 -52l152 -196q11 -13 11 -21q0 -14 -20 -14h-85q-19 0 -25.5 3.5t-20.5 20.5zM374 181l-116 153q-33 -21 -50.5 -34t-37 -41.5t-19.5 -60.5q0 -41 28.5 -74.5t73.5 -33.5
q30 0 56.5 18t38 33.5t26.5 39.5zM316 446q93 59 93 122q0 37 -23.5 60.5t-57.5 23.5q-30 0 -54 -20.5t-24 -57.5q0 -21 10 -43.5t20.5 -37.5t35.5 -47z" />
    <glyph glyph-name="quotesingle" unicode="'" horiz-adv-x="208" 
d="M155 687l-40 -253h-23l-39 244q0 4 -0.5 10t-0.5 9q0 26 17 39t38 13q32 0 43 -24q7 -16 5 -38z" />
    <glyph glyph-name="parenleft" unicode="(" horiz-adv-x="313" 
d="M295 805q-125 -177 -125 -448q0 -129 30 -244q31 -117 91 -202q18 -26 18 -34t-6.5 -14.5t-15.5 -6.5q-21 0 -61.5 41t-65.5 75q-115 156 -115 388q0 215 108 366q23 33 65.5 79t65.5 46q21 0 21 -21q0 -9 -10 -25z" />
    <glyph glyph-name="parenright" unicode=")" horiz-adv-x="313" 
d="M18 -99q125 177 125 448q0 129 -30 244q-31 118 -91 203q-18 25 -18 34q0 8 6.5 14.5t15.5 6.5q21 0 61.5 -41t65.5 -75q115 -157 115 -388q0 -215 -108 -367q-22 -32 -65 -78t-66 -46q-21 0 -21 21q0 10 10 24z" />
    <glyph glyph-name="asterisk" unicode="*" horiz-adv-x="333" 
d="M146 580q5 25 5 34q0 23 -15 23q-17 0 -41 -33q-15 -23 -22 -30t-18 -7q-26 0 -26 41q0 16 8 25t14 10.5t17 3.5q58 8 58 29q0 20 -56 30q-16 3 -22.5 5.5t-12.5 12.5t-6 28q0 35 26 35q10 0 16 -5.5t20 -26.5q28 -39 48 -39q13 0 13 23q0 20 -6 41q-8 31 -8 45
q0 40 29 40q28 0 28 -41q0 -6 -6 -42t-6 -43q0 -23 14 -23q18 0 46 38q10 14 14 19t9.5 9t12.5 4q25 0 25 -36q0 -24 -11.5 -32t-39.5 -13q-46 -7 -46 -28q0 -19 47 -28q18 -3 26.5 -6t16 -13t7.5 -28q0 -35 -25 -35q-11 0 -17 6t-20 26q-28 38 -45 38q-14 0 -14 -24
q0 -15 5 -39q8 -35 8 -44q0 -39 -30 -39q-13 0 -21 10.5t-8 27.5q0 13 9 51z" />
    <glyph glyph-name="plus" unicode="+" horiz-adv-x="500" 
d="M468 331v-80h-179v-179h-80v179h-178v80h178v179h80v-179h179z" />
    <glyph glyph-name="comma" unicode="," horiz-adv-x="250" 
d="M79 29q-27 23 -27 51t21 45.5t48 17.5q34 0 57.5 -27t23.5 -74q0 -68 -48.5 -125t-81.5 -57q-11 0 -17.5 6.5t-6.5 15.5q0 12 24 41q30 43 30 64t-23 42z" />
    <glyph glyph-name="hyphen" unicode="-" horiz-adv-x="313" 
d="M275 307v-55q0 -11 -3.5 -15t-14.5 -4h-179q-12 0 -15.5 4t-3.5 17v51q0 19 18 19h179q11 0 15 -3t4 -14z" />
    <glyph glyph-name="hyphen" unicode="&#xad;" horiz-adv-x="313" 
d="M275 307v-55q0 -11 -3.5 -15t-14.5 -4h-179q-12 0 -15.5 4t-3.5 17v51q0 19 18 19h179q11 0 15 -3t4 -14z" />
    <glyph glyph-name="period" unicode="." horiz-adv-x="250" 
d="M198 66q-1 -30 -21.5 -51t-51.5 -21t-52.5 21.5t-21.5 53.5q0 34 23 54t50 20q31 0 53 -22.5t21 -54.5z" />
    <glyph glyph-name="slash" unicode="/" horiz-adv-x="458" 
d="M445 807l-355 -938q-7 -13 -13 -13q-2 0 -8 2l-46 18q-13 4 -13 13q0 3 2 9l357 938q7 13 14 13q4 0 49 -17q15 -5 15 -14q0 -5 -2 -11z" />
    <glyph glyph-name="zero" unicode="0" 
d="M491 355q0 -165 -57.5 -268t-162.5 -103q-99 0 -159.5 97t-60.5 272q0 177 61 273.5t160 96.5q105 0 161.5 -102t57.5 -266zM365 365q0 112 -19 190q-21 93 -76 93q-30 0 -51 -30t-29 -80t-11 -88t-3 -80q0 -117 19 -201q22 -100 76 -100q37 0 57 41q37 71 37 255z" />
    <glyph glyph-name="one" unicode="1" 
d="M251 23v526q-125 -43 -171 -43q-20 0 -29.5 10t-9.5 22q0 25 30 32q77 22 124.5 45.5t97.5 68.5q33 31 51 31q31 0 31 -38v-656q0 -13 -5 -17t-17 -4h-79q-13 0 -18 4.5t-5 18.5z" />
    <glyph glyph-name="two" unicode="2" 
d="M378 328l-168 -213h246q14 0 18.5 -4t4.5 -17v-72q0 -13 -3.5 -17.5t-16.5 -4.5h-387q-30 0 -30 23q0 10 14 30l209 275q30 41 44.5 63.5t26.5 53t12 59.5q0 47 -28 80t-74 33q-81 0 -108 -95q-4 -15 -7 -23t-12 -16t-22 -8q-17 0 -27.5 13t-10.5 37q0 75 57.5 136
t156.5 61q92 0 146 -54.5t54 -130.5q0 -39 -17 -81t-33 -66t-45 -62z" />
    <glyph glyph-name="three" unicode="3" 
d="M345 405q48 -23 79 -55q59 -63 59 -148q0 -38 -12.5 -75t-39 -70t-73.5 -53t-109 -20q-91 0 -151 46.5t-60 100.5q0 25 16.5 42t38.5 17q33 0 54 -38q17 -29 26.5 -42t33 -28t52.5 -15q46 0 73.5 31.5t27.5 77.5q0 112 -160 159q-11 3 -16 5.5t-10.5 9t-5.5 15.5
q0 8 5 14.5t9.5 9t14.5 7.5q29 12 44.5 19.5t39 24t34.5 39t11 51.5q0 40 -25.5 68t-68.5 28q-29 0 -51 -14t-30 -26.5t-19 -34.5q-7 -14 -10.5 -20t-11.5 -12.5t-18 -6.5q-14 0 -24.5 11.5t-10.5 32.5q0 59 54 113t148 54q84 0 136.5 -46t52.5 -117q0 -92 -103 -155z" />
    <glyph glyph-name="four" unicode="4" 
d="M456 154h-52v-139q0 -12 -3.5 -16.5t-17.5 -4.5h-81q-11 0 -14.5 4t-3.5 16v140h-218q-41 0 -41 32q0 11 17 41l280 460q18 28 43 28q39 0 39 -45v-443h51q12 0 16.5 -3.5t4.5 -14.5q0 -42 -1 -45q-2 -10 -19 -10zM128 227h160v290z" />
    <glyph glyph-name="five" unicode="5" 
d="M431 592h-254l-15 -183q67 24 119 24q90 0 151 -59.5t61 -164.5q0 -96 -61.5 -160.5t-172.5 -64.5q-93 0 -151.5 45t-58.5 100q0 29 17.5 44t37.5 15q28 0 49 -31q17 -30 28 -45t33.5 -29.5t50.5 -14.5q48 0 77 33.5t29 85.5q0 62 -41 105.5t-107 43.5q-34 0 -91 -17
q-21 -7 -27 -7q-29 0 -29 31q0 5 1 21l25 320q1 14 7 18t20 4h302q13 0 18 -4.5t5 -16.5v-69q0 -9 -1 -13.5t-6 -7.5t-16 -3z" />
    <glyph glyph-name="six" unicode="6" 
d="M177 356q71 49 138 49q77 0 129 -54t52 -150q0 -95 -58.5 -156t-157.5 -61q-93 0 -154 59q-78 74 -78 224q0 91 28 169t70.5 129.5t94 88t97.5 53t83 16.5q17 0 28.5 -8t11.5 -23t-9.5 -22t-30.5 -15q-207 -76 -244 -299zM170 289q-1 -9 -1 -32q0 -42 8.5 -82t36 -74
t69.5 -34t68.5 32.5t26.5 85.5q0 52 -28 95t-86 43q-47 0 -94 -34z" />
    <glyph glyph-name="seven" unicode="7" 
d="M131 45l243 549h-290q-13 0 -17 4.5t-4 17.5v70q0 12 4 16.5t18 4.5h382q33 0 33 -25q0 -11 -14 -42q-148 -335 -211 -595q-6 -30 -11.5 -37.5t-24.5 -7.5h-93q-23 0 -23 17q0 8 8 28z" />
    <glyph glyph-name="eight" unicode="8" 
d="M347 391q30 -21 44.5 -31.5t38.5 -32.5t35 -40.5t20.5 -46t9.5 -58.5q0 -83 -61.5 -140.5t-169.5 -57.5q-107 0 -162 55t-55 129q0 35 11 64.5t34.5 54.5t42 40t51.5 38q-33 24 -53 43t-39.5 57.5t-19.5 83.5q0 75 52.5 124.5t150.5 49.5q92 0 141.5 -43.5t49.5 -113.5
q0 -32 -9.5 -58.5t-30 -48.5t-37 -35t-44.5 -33zM247 321q-33 -27 -48 -41.5t-28 -39t-13 -52.5q0 -44 29 -82t85 -38q47 0 75.5 27.5t28.5 69.5q0 26 -8.5 47t-30 41.5t-38.5 32.5t-52 35zM288 433q77 47 77 118q0 42 -27 70.5t-68 28.5q-37 0 -63.5 -23t-26.5 -62
q0 -72 108 -132z" />
    <glyph glyph-name="nine" unicode="9" 
d="M362 357q-73 -51 -138 -51q-78 0 -129 55.5t-51 149.5q0 91 57.5 151.5t160.5 60.5q113 0 171 -75t58 -204q0 -99 -30.5 -181t-75.5 -132t-98.5 -84.5t-97.5 -48.5t-75 -14q-37 0 -37 30q0 15 10.5 22.5t50.5 22.5q98 38 155 116t69 182zM369 424q3 90 -24 156.5
t-89 66.5q-43 0 -69 -33.5t-26 -84.5q0 -54 29 -96.5t86 -42.5q47 0 93 34z" />
    <glyph glyph-name="colon" unicode=":" horiz-adv-x="292" 
d="M241 66q-1 -31 -22 -51.5t-52 -20.5t-53 22t-22 53q0 34 23.5 54t51.5 20q30 0 52.5 -22.5t21.5 -54.5zM241 338q-1 -31 -22.5 -51.5t-51.5 -20.5q-32 0 -53.5 21.5t-21.5 53.5q0 34 24 54t51 20q30 0 52.5 -22t21.5 -55z" />
    <glyph glyph-name="semicolon" unicode=";" horiz-adv-x="292" 
d="M121 29q-27 23 -27 52q0 28 20.5 45.5t46.5 17.5q33 0 56.5 -27t23.5 -75q0 -67 -47.5 -124.5t-79.5 -57.5q-12 0 -18 6.5t-6 15.5q0 11 23 41q30 41 30 65q0 20 -22 41zM244 338q-1 -31 -22.5 -51.5t-51.5 -20.5q-32 0 -53.5 21t-21.5 54q0 35 23.5 54.5t50.5 19.5
q31 0 53 -22.5t22 -54.5z" />
    <glyph glyph-name="less" unicode="&#x3c;" horiz-adv-x="500" 
d="M500 155v-87l-500 242v86l500 242v-87l-401 -198z" />
    <glyph glyph-name="equal" unicode="=" horiz-adv-x="500" 
d="M500 238v-78h-500v78h500zM500 419v-78h-500v78h500z" />
    <glyph glyph-name="greater" unicode="&#x3e;" horiz-adv-x="500" 
d="M500 310l-500 -242v87l401 198l-401 198v87l500 -242v-86z" />
    <glyph glyph-name="question" unicode="?" horiz-adv-x="417" 
d="M177 260l-15 132q0 3 -0.5 7.5t-0.5 6.5q0 23 24 38q31 20 46 32t30.5 37t15.5 54q0 33 -20 57t-54 24q-18 0 -30.5 -6t-20.5 -18.5t-10.5 -18t-7.5 -19.5q-6 -19 -10 -28.5t-16 -19.5t-30 -10q-23 0 -39 16.5t-16 43.5q0 53 50 94t143 41q91 0 135.5 -43t44.5 -97
q0 -29 -14 -55.5t-28 -41.5t-46 -43q-39 -35 -49.5 -66.5t-14.5 -98.5q-2 -27 -5.5 -33t-17.5 -6h-30q-7 1 -10 4.5t-4 16.5zM284 66q-1 -30 -22.5 -51t-52.5 -21q-32 0 -53 23t-21 53q0 31 22 52.5t52 21.5q32 0 54 -22.5t21 -55.5z" />
    <glyph glyph-name="at" unicode="@" horiz-adv-x="896" 
d="M787 76l33 -40q-167 -160 -366 -160q-46 0 -94.5 9.5t-101.5 35.5t-94 65t-68 104t-27 147q0 90 34 175.5t93.5 152t147 107t186.5 40.5q133 0 215 -77.5t82 -211.5t-71 -243.5t-159 -109.5q-80 0 -84 85q-60 -84 -143 -84q-21 0 -41 7t-42 23.5t-35 51t-13 83.5
q0 108 64 195t148 87q78 0 114 -85l15 62h68l-33 -150q-28 -137 -28 -174q0 -21 9.5 -31.5t20.5 -10.5q46 0 99 90t53 201q0 116 -68.5 177t-178.5 61q-156 0 -276.5 -125t-120.5 -301q0 -144 95 -222.5t234 -78.5q182 0 333 145zM541 348q1 53 -24.5 79t-57.5 26
q-63 0 -102 -70t-39 -146q0 -32 9 -54t23 -31.5t25 -13t21 -3.5q57 0 100.5 64.5t44.5 148.5z" />
    <glyph glyph-name="A" unicode="A" horiz-adv-x="604" 
d="M458 18l-73 203h-203l-71 -202q-5 -12 -9 -15.5t-17 -3.5h-66q-19 0 -19 13q0 7 6 19l244 655q4 11 8.5 15t15.5 4h58q11 0 15 -2.5t9 -12.5l244 -664q4 -8 4 -14q0 -13 -17 -13h-101q-13 0 -18 3t-10 15zM207 296h153l-77 231z" />
    <glyph glyph-name="B" unicode="B" horiz-adv-x="583" 
d="M58 43v623q0 16 4 23t16 11q42 14 160 14q136 0 199 -39q76 -46 76 -134q0 -101 -107 -155q-4 -2 -11.5 -5t-11.5 -4q3 -1 10.5 -2.5t11.5 -2.5q73 -19 109.5 -69t36.5 -114q0 -117 -113 -167q-70 -29 -200 -29q-114 0 -158 13q-14 4 -18 11t-4 26zM191 632v-229
q40 -2 70 1q38 4 64 19t36.5 35.5t14 35t3.5 27.5q0 40 -16.5 66t-43.5 35t-42 11.5t-32 2.5q-25 0 -54 -4zM191 334v-255q30 -4 65 -4q73 0 114.5 30t41.5 93q0 138 -179 138q-14 0 -42 -2z" />
    <glyph glyph-name="C" unicode="C" horiz-adv-x="604" 
d="M479 548q-15 23 -23.5 34t-25.5 27.5t-37 23.5t-46 7q-72 0 -120 -66.5t-48 -182.5q0 -141 61.5 -222.5t153.5 -81.5q61 0 121 41q26 18 37 18q13 0 22.5 -9t9.5 -24q0 -40 -62.5 -84.5t-160.5 -44.5q-81 0 -145 31t-102.5 84t-58.5 118.5t-20 139.5q0 157 86.5 261
t236.5 104q102 0 168 -47.5t66 -98.5q0 -25 -17.5 -41.5t-42.5 -16.5q-34 0 -53 30z" />
    <glyph glyph-name="D" unicode="D" horiz-adv-x="667" 
d="M58 36v629q0 24 17 30q49 19 170 19q176 0 277 -91q110 -98 110 -270q0 -154 -95 -252q-108 -109 -315 -109q-108 0 -144 13q-19 5 -20 31zM194 627v-545q14 -1 31 -1q144 0 213 93q50 67 50 183q0 108 -52 183q-68 90 -198 90q-5 0 -44 -3z" />
    <glyph glyph-name="E" unicode="E" horiz-adv-x="479" 
d="M392 323h-199v-232h237q9 0 13 -1t7 -5.5t3 -13.5v-58q-2 -8 -6.5 -10.5t-16.5 -2.5h-348q-14 0 -19 4t-5 19v656q0 16 5 21.5t19 6.5h348q9 0 13 -0.5t7 -5t3 -13.5v-49q1 -14 -4 -18t-19 -4h-237v-206h200q12 0 16.5 -3.5t4.5 -15.5v-49q0 -13 -4.5 -16.5t-17.5 -3.5z
" />
    <glyph glyph-name="F" unicode="F" horiz-adv-x="458" 
d="M384 323h-191v-302q0 -13 -5 -17t-17 -4h-91q-14 0 -18 4t-4 18v661q0 13 4.5 18t17.5 6h343q13 0 17.5 -3t4.5 -15v-49q0 -13 -3.5 -18t-17.5 -5h-231v-206h191q13 0 17.5 -3t4.5 -15q0 -54 -1 -58q-2 -12 -21 -12z" />
    <glyph glyph-name="G" unicode="G" horiz-adv-x="646" 
d="M477 161v127h-106q-20 0 -22 12q-1 4 -1 52q0 12 5 15t18 3h212q14 0 18 -5t4 -20v-226q-1 -38 -17 -57q-26 -31 -81.5 -54.5t-136.5 -23.5q-74 0 -132.5 22t-96 57.5t-62 84.5t-34.5 99.5t-10 105.5q0 163 89.5 266.5t236.5 103.5q113 0 179 -51.5t66 -100.5
q0 -26 -17 -42.5t-42 -16.5q-17 0 -30.5 8.5t-19.5 16t-16 24.5q-15 23 -26 36.5t-37 28t-59 14.5q-78 0 -128 -70t-50 -200t51.5 -212t147.5 -82q47 0 74 19q15 11 19 25t4 41z" />
    <glyph glyph-name="H" unicode="H" horiz-adv-x="625" 
d="M431 22v301h-238v-302q0 -13 -4.5 -17t-16.5 -4h-93q-12 0 -17 4t-5 17v666q0 12 5 16t17 4h93q12 0 16.5 -4t4.5 -16v-276h238v274q0 9 1 13t5.5 6.5t13.5 2.5h94q13 0 17.5 -3.5t4.5 -16.5v-667q0 -9 -3 -13.5t-6.5 -5.5t-11.5 -1h-94q-13 0 -17 4.5t-4 17.5z" />
    <glyph glyph-name="I" unicode="I" horiz-adv-x="250" 
d="M194 685v-663q0 -13 -5.5 -17.5t-16.5 -4.5h-93q-12 1 -17 5t-5 17v663q1 12 4.5 16.5t16.5 4.5h95q12 0 16.5 -4t4.5 -17z" />
    <glyph glyph-name="J" unicode="J" horiz-adv-x="250" 
d="M191 685v-581q0 -29 -1 -44q-4 -74 -31 -133.5t-65.5 -93.5t-79 -52t-77.5 -18q-27 0 -37.5 11t-10.5 23q0 21 25 30q46 18 71 41q31 29 47 73t18.5 70.5t3.5 69.5v604q0 12 4 17t16 4h94q13 0 17.5 -4t5.5 -17z" />
    <glyph glyph-name="K" unicode="K" horiz-adv-x="562" 
d="M512 671l-203 -272l246 -367q7 -12 7 -18q0 -14 -18 -14h-109q-16 0 -21 3t-15 18l-209 326v-325q0 -13 -5 -17.5t-16 -4.5h-90q-7 0 -11 1t-7 5.5t-3 13.5v665q0 12 5 16.5t17 4.5h89q13 1 17 -3.5t4 -16.5v-281l208 281q10 14 15.5 17t20.5 3h70q19 2 19 -13
q0 -7 -11 -22z" />
    <glyph glyph-name="L" unicode="L" horiz-adv-x="458" 
d="M193 686v-594h229q13 0 16.5 -4t3.5 -16v-52q-1 -13 -5 -16.5t-17 -3.5h-342q-11 0 -15.5 3.5t-4.5 16.5v666q0 12 4.5 16t16.5 4h93q12 0 16.5 -4t4.5 -16z" />
    <glyph glyph-name="M" unicode="M" horiz-adv-x="792" 
d="M608 23v478l-197 -483q-6 -14 -10.5 -18t-15.5 -4q-19 0 -28 23l-197 482v-480q0 -12 -5 -16.5t-16 -4.5h-60q-13 0 -17 4.5t-4 18.5v662q0 12 4.5 16.5t16.5 4.5h95q14 0 19 -3.5t11 -17.5l194 -456l188 455q6 15 11 18.5t19 3.5h97q13 0 17 -3.5t4 -15.5v-666
q0 -14 -4.5 -17.5t-19.5 -3.5h-80q-14 0 -18 4.5t-4 18.5z" />
    <glyph glyph-name="N" unicode="N" horiz-adv-x="667" 
d="M187 688l319 -447v445q0 11 4 15.5t16 4.5h63q12 1 16 -3.5t4 -16.5v-666q0 -12 -4.5 -16t-16.5 -4h-56q-13 2 -26 21l-344 485v-484q0 -13 -4 -17.5t-16 -4.5h-63q-13 0 -17.5 3.5t-4.5 16.5v665q0 13 5 17t17 4h76q13 0 18.5 -3t13.5 -15z" />
    <glyph glyph-name="O" unicode="O" horiz-adv-x="708" 
d="M673 372q7 -168 -83.5 -278t-234.5 -110q-135 0 -227 97t-92 271q0 161 86 266t235 105q143 0 226.5 -101t89.5 -250zM532 370q-2 120 -45 189q-50 78 -133 78q-41 0 -75 -20q-102 -60 -102 -254q0 -56 8 -101q10 -57 32.5 -96.5t50 -56.5t48.5 -23.5t40 -6.5
q87 0 137 87q41 74 39 204z" />
    <glyph glyph-name="P" unicode="P" 
d="M57 22v646q0 15 3 20.5t13 9.5q44 16 175 16q283 0 283 -210q0 -110 -78.5 -164t-201.5 -54q-19 0 -58 3v-268q0 -13 -5 -17t-17 -4h-92q-14 1 -18 5.5t-4 16.5zM193 632v-264q18 -3 41 -3q158 0 158 138q0 133 -152 133q-23 0 -47 -4z" />
    <glyph glyph-name="Q" unicode="Q" horiz-adv-x="708" 
d="M450 -3q36 -124 217 -172q22 -5 31 -11t9 -21q0 -11 -8 -20t-27 -9q-11 0 -38 4.5t-75 19t-93.5 37t-90 65.5t-67.5 97q-72 12 -126 47t-85 85.5t-46.5 108t-15.5 120.5q0 178 91 276t229 98q141 0 229 -102t88 -264q0 -39 -5.5 -77t-21 -81.5t-39.5 -80t-64 -69
t-92 -51.5zM531 360q0 128 -48 202q-49 76 -129 76q-83 0 -134 -79q-44 -70 -44 -203q0 -131 44 -206q50 -83 133 -83q88 0 139 89q41 74 39 204z" />
    <glyph glyph-name="R" unicode="R" horiz-adv-x="562" 
d="M58 21v645q0 17 3 23t14 10q41 15 165 15q143 0 207 -51q65 -53 65 -147q0 -75 -46.5 -122t-109.5 -67l187 -294q8 -12 8 -19q0 -14 -20 -14h-101q-15 1 -20 4t-13 16l-150 256q-14 26 -36 26q-21 0 -21 -26v-252q0 -14 -4.5 -19t-18.5 -5h-87q-12 0 -17 4t-5 17z
M190 633v-269q47 -1 65 1q52 6 87 39t35 97q0 38 -11.5 65.5t-26.5 40.5t-38 20t-35.5 8t-30.5 1q-15 0 -45 -3z" />
    <glyph glyph-name="S" unicode="S" 
d="M292 430l47 -23q27 -14 42 -22.5t41.5 -29.5t40.5 -41t26 -53t12 -71q0 -95 -65 -150.5t-166 -55.5q-109 0 -169 54.5t-60 109.5q0 30 18.5 45.5t40.5 15.5q19 0 33.5 -10.5t20.5 -19.5t17 -28q39 -81 108 -81q41 0 67.5 26t26.5 68q0 26 -8 45t-29.5 36.5t-38.5 28
t-56 30.5l-55 28q-23 13 -38.5 23.5t-42 35t-41 59.5t-14.5 77q0 89 59.5 142t154.5 53q92 0 151.5 -42.5t59.5 -90.5q0 -25 -16.5 -41.5t-40.5 -16.5q-16 0 -28.5 7.5t-18 14.5t-14.5 22q-12 19 -21 30.5t-30 24.5t-46 13q-38 0 -62.5 -25.5t-24.5 -63.5q0 -23 8 -41.5
t27 -33.5t35.5 -24t48.5 -25z" />
    <glyph glyph-name="T" unicode="T" horiz-adv-x="500" 
d="M470 617h-152v-593q0 -13 -4.5 -18.5t-16.5 -5.5h-91q-14 1 -19 5.5t-5 18.5v593h-151q-13 0 -17.5 5t-4.5 17v47q0 13 5 17t17 4h439q12 0 17 -3.5t5 -15.5v-49q0 -12 -4.5 -17t-17.5 -5z" />
    <glyph glyph-name="U" unicode="U" horiz-adv-x="583" 
d="M534 687v-480q-2 -74 -21 -111q-5 -10 -10.5 -19.5t-23 -28t-39.5 -31t-60.5 -23t-85.5 -10.5q-170 0 -223 112q-21 44 -21 119v472q0 12 4 15.5t15 3.5h98q13 0 17 -3t4 -16v-457q0 -19 1.5 -32t8 -36t18.5 -37t36 -25.5t57 -11.5q117 0 117 132v465q0 13 4 17t16 4h67
q12 0 16.5 -3.5t4.5 -15.5z" />
    <glyph glyph-name="V" unicode="V" horiz-adv-x="562" 
d="M145 687l153 -464l153 464q4 12 8.5 15.5t16.5 3.5h66q21 0 21 -13q0 -4 -5 -16l-228 -658q-5 -12 -9 -15.5t-17 -3.5h-48q-7 1 -10 4t-7 14l-235 659q-4 13 -4 16q0 13 19 13h99q13 0 18 -3t9 -16z" />
    <glyph glyph-name="W" unicode="W" horiz-adv-x="833" 
d="M557 19l-143 427l-134 -426q-4 -12 -7 -15t-10 -4q-3 -1 -45 -1q-14 0 -19 3.5t-9 15.5l-187 656q-3 11 -3 16q0 15 19 15h94q13 0 17.5 -3.5t8.5 -18.5l115 -456l140 458q4 12 7 16t11 4h38q5 -1 7 -5t7 -18l142 -455l116 458q3 12 7.5 16t15.5 4h68q20 0 20 -13
q0 -3 -3 -18l-184 -655q-4 -12 -8 -16t-14 -4h-49q-8 1 -11 4.5t-7 14.5z" />
    <glyph glyph-name="X" unicode="X" 
d="M393 20l-135 236l-139 -236q-8 -13 -12.5 -16.5t-16.5 -3.5h-69q-20 0 -20 12q0 5 9 19l193 331l-171 316q-5 10 -5 14q0 14 19 14h90q15 0 21 -3t13 -16l110 -195l113 195q8 13 12.5 16t18.5 3h69q18 0 18 -13q0 -5 -6 -17l-168 -289l197 -356q6 -14 6 -17
q0 -14 -19 -14h-96q-13 0 -18.5 3t-13.5 17z" />
    <glyph glyph-name="Y" unicode="Y" 
d="M533 675l-195 -361v-295q0 -13 -5 -16t-17 -3h-97q-12 0 -16 4t-4 15v300l-191 356q-8 13 -8 18q0 13 18 13h107q13 0 17.5 -3t9.5 -14l135 -258l138 256q7 12 11.5 15.5t16.5 3.5h69q19 0 19 -12q0 -6 -8 -19z" />
    <glyph glyph-name="Z" unicode="Z" horiz-adv-x="500" 
d="M474 675l-278 -584h257q7 0 9.5 -0.5t6 -1.5t4.5 -4.5t1 -9.5v-59q0 -8 -3 -11.5t-6.5 -4t-11.5 -0.5h-408q-26 0 -26 12q0 3 7 18l279 587h-241q-12 0 -15.5 4t-3.5 16v50q0 11 4 15t16 4h394q19 0 19 -14q0 -5 -4 -17z" />
    <glyph glyph-name="bracketleft" unicode="[" horiz-adv-x="292" 
d="M163 780v-854h91q11 0 14.5 -3.5t3.5 -14.5q0 -27 -2.5 -33t-16.5 -6h-172q-11 0 -15.5 3t-4.5 14v933q0 11 4 14.5t15 3.5h174q13 0 15.5 -5.5t2.5 -30.5q0 -12 -3 -16.5t-15 -4.5h-91z" />
    <glyph glyph-name="backslash" unicode="\" horiz-adv-x="458" 
d="M436 -124l-46 -18q-6 -2 -9 -2q-6 0 -13 13l-354 938q-3 5 -3 11q0 9 15 14q48 17 49 17q7 0 14 -13l357 -938q2 -6 2 -9q0 -8 -12 -13z" />
    <glyph glyph-name="bracketright" unicode="]" horiz-adv-x="292" 
d="M129 -74v855h-91q-11 0 -14.5 3.5t-3.5 14.5q0 27 2.5 33t16.5 6h172q11 0 15.5 -3t4.5 -14v-934q0 -11 -4 -14.5t-15 -3.5h-174q-13 0 -15.5 5.5t-2.5 30.5q0 12 3 16.5t15 4.5h91z" />
    <glyph glyph-name="asciicircum" unicode="^" horiz-adv-x="729" 
d="M407 706l180 -369h-97l-124 259l-128 -259h-96l188 369h77z" />
    <glyph glyph-name="underscore" unicode="_" horiz-adv-x="500" 
d="M510 -75v-50h-520v50h520z" />
    <glyph glyph-name="grave" unicode="`" horiz-adv-x="271" 
d="M121 708l79 -85q14 -16 14 -29t-7.5 -19.5t-16.5 -6.5q-11 0 -25 12l-90 68q-19 19 -19 39q0 17 9.5 28.5t23.5 11.5q15 0 32 -19z" />
    <glyph glyph-name="a" unicode="a" horiz-adv-x="458" 
d="M410 356v-250q-1 -37 -9 -55.5t-35 -33.5q-54 -30 -147 -30q-14 0 -26 1t-38 4t-45.5 12.5t-40.5 24t-32.5 40.5t-11.5 59q0 60 44 102q21 21 55.5 37t65.5 25t102 28v51q0 19 -1.5 30.5t-6.5 28t-18.5 24.5t-34.5 8q-17 0 -29.5 -5t-21 -16.5t-11.5 -16.5t-8 -17
q-4 -13 -7.5 -19t-9.5 -14.5t-15.5 -12.5t-23.5 -4q-23 0 -38.5 14.5t-15.5 38.5q0 48 56 84.5t143 36.5q33 0 59.5 -6.5t43 -15t28 -24.5t17 -28.5t8.5 -34t3.5 -33t0.5 -33.5zM292 122v140q-30 -9 -45.5 -14.5t-38 -16.5t-33.5 -21.5t-19.5 -28t-8.5 -39.5q0 -38 22 -62
t61 -24q62 0 62 66z" />
    <glyph glyph-name="b" unicode="b" horiz-adv-x="521" 
d="M176 744v-274q64 61 139 61q81 0 127 -67t46 -176q0 -137 -67.5 -219t-184.5 -82q-98 0 -153 47q-21 18 -25.5 36.5t-4.5 67.5v606q0 12 4 16.5t16 4.5h79q14 0 19 -3.5t5 -17.5zM176 406v-240q0 -34 2 -44q5 -31 26 -44t43 -13q48 0 83 51.5t35 144.5q0 25 -3.5 50.5
t-13 58t-33 53t-57.5 20.5q-36 0 -82 -37z" />
    <glyph glyph-name="c" unicode="c" horiz-adv-x="458" 
d="M323 380q-8 18 -13 27t-15.5 21.5t-23.5 18.5t-30 6q-45 0 -74 -46t-29 -113q0 -81 37 -138t95 -57q60 0 101 67q8 12 11 16t8.5 8t12.5 4q26 0 26 -35q0 -24 -11 -52t-32 -55.5t-59.5 -46t-85.5 -18.5q-100 0 -154.5 78t-54.5 191q0 52 13 99.5t38.5 87.5t70.5 64
t103 24q78 0 123.5 -43t45.5 -87q0 -26 -16 -41.5t-38 -15.5q-33 0 -49 36z" />
    <glyph glyph-name="d" unicode="d" horiz-adv-x="521" 
d="M469 744v-641q0 -51 -32 -74q-25 -19 -73 -30.5t-97 -11.5q-112 0 -173.5 68t-61.5 190q0 114 59 200.5t163 86.5q46 0 91 -27v237q0 13 4.5 18.5t18.5 5.5h77q14 0 19 -4.5t5 -17.5zM345 143v296q-32 25 -65 25q-57 0 -90 -56.5t-33 -140.5q0 -93 34.5 -146t91.5 -53
q22 0 35.5 6.5t19 20t6.5 23t1 25.5z" />
    <glyph glyph-name="e" unicode="e" horiz-adv-x="479" 
d="M414 303l-277 -41q6 -49 21.5 -83.5t36.5 -51t40 -23.5t40 -7q69 0 119 66q13 18 19 23.5t15 5.5q10 0 18 -8.5t8 -22.5q0 -10 -5 -28.5t-19.5 -44.5t-35.5 -48t-57.5 -37.5t-80.5 -15.5q-101 0 -162.5 71.5t-61.5 201.5q0 71 19.5 125.5t52.5 85t71.5 45.5t80.5 15
q55 0 95.5 -22t60 -54.5t28.5 -61t9 -50.5q0 -16 -7 -25.5t-12.5 -11t-15.5 -3.5zM132 324l192 31q-3 46 -28 73.5t-59 27.5q-49 0 -75 -37.5t-30 -94.5z" />
    <glyph glyph-name="f" unicode="f" horiz-adv-x="292" 
d="M276 462h-75v-439q0 -15 -5 -19t-16 -4h-80q-13 -1 -17.5 4t-4.5 19v439h-54q-12 0 -16 2.5t-4 14.5q0 27 2.5 33t17.5 6h54q5 107 35 165q20 37 55.5 64t81.5 27q28 0 44 -13.5t16 -37.5q0 -22 -14 -33.5t-30 -11.5q-3 0 -18.5 2t-18.5 2q-23 0 -37.5 -18t-14.5 -53
q0 -59 22 -93h77q7 0 10.5 -0.5t6.5 -4t3 -10.5q0 -29 -1 -32q-2 -9 -19 -9z" />
    <glyph glyph-name="g" unicode="g" horiz-adv-x="500" 
d="M484 463l-78 -21q27 -48 27 -95q0 -84 -57.5 -127.5t-131.5 -43.5q-22 0 -58 6q-29 -34 -29 -50q0 -20 21.5 -26t76.5 -9l91 -4q18 -2 30 -3.5t36 -6t39.5 -13.5t32.5 -22t26 -35t9 -49q0 -30 -15 -62t-47 -65.5t-94.5 -55t-145.5 -21.5q-80 0 -138 28t-58 89
q0 69 94 125q-13 4 -22 8t-22 12.5t-19.5 22t-6.5 31.5q0 50 90 123q-16 9 -23.5 14.5t-21 20.5t-24.5 35q-20 41 -20 87q0 76 51.5 125.5t139.5 49.5q45 0 90 -16q37 -13 59 -13q9 0 51.5 7.5t43.5 7.5q8 1 10 -6q8 -24 8 -36q0 -8 -15 -12zM172 -12v1q-24 -23 -34 -38
t-10 -36q0 -37 36.5 -57t93.5 -20q56 0 102.5 25.5t46.5 62.5q0 16 -7 26.5t-21 16t-20 7t-20 3.5t-86 5t-81 4zM318 376q-8 41 -30 65.5t-54 24.5t-55 -23.5t-23 -67.5q0 -53 26.5 -88.5t64.5 -35.5q36 0 55 25t19 65q0 17 -3 35z" />
    <glyph glyph-name="h" unicode="h" horiz-adv-x="521" 
d="M342 22v316q0 50 -13 71q-22 35 -65 35t-86 -39v-381q0 -13 -4 -18.5t-17 -5.5h-83q-12 0 -16.5 4t-4.5 19v722q0 20 21 20h83q13 0 17 -3.5t4 -15.5v-272q63 57 143 57t119 -58q28 -41 28 -110v-339q0 -15 -4 -19.5t-17 -4.5h-81q-16 0 -20 3.5t-4 18.5z" />
    <glyph glyph-name="i" unicode="i" horiz-adv-x="229" 
d="M179 496v-474q0 -13 -4 -17.5t-18 -4.5h-87q-11 0 -14 4t-3 17v476q0 12 3.5 16.5t15.5 4.5h85q14 0 17.5 -4.5t4.5 -17.5zM181 653q1 -28 -17.5 -45.5t-47.5 -17.5q-31 0 -49.5 16.5t-18.5 43.5t18 45t50 18q31 0 47.5 -17t17.5 -43z" />
    <glyph glyph-name="j" unicode="j" horiz-adv-x="229" 
d="M178 495v-363q-1 -53 -2.5 -78.5t-9.5 -67t-22 -75.5q-32 -74 -83 -111.5t-92 -37.5q-17 0 -25.5 8.5t-8.5 19.5q0 17 18 28q60 40 78 99.5t20 199.5v378q0 14 4.5 18.5t18.5 4.5h83q14 0 17.5 -5t3.5 -18zM182 653q1 -27 -17.5 -45t-48.5 -18t-48.5 16.5t-18.5 43.5
t18 45t49 18t48 -18t18 -42z" />
    <glyph glyph-name="k" unicode="k" horiz-adv-x="500" 
d="M474 485l-175 -187l206 -268q9 -13 9 -17q0 -13 -20 -13h-104q-14 0 -19.5 2.5t-13.5 12.5l-180 240v-236q0 -13 -4.5 -16t-17.5 -3h-80q-13 0 -17 4t-4 16v726q0 12 4.5 15.5t15.5 3.5h81q9 0 12.5 -0.5t6.5 -4.5t3 -13v-449l180 200q12 13 18.5 16.5t21.5 3.5h68
q20 0 20 -13q0 -7 -11 -20z" />
    <glyph glyph-name="l" unicode="l" horiz-adv-x="229" 
d="M52 21v725q0 12 4.5 15.5t18.5 3.5h79q14 0 18 -3t4 -16v-725q0 -13 -4.5 -17t-17.5 -4h-79q-14 0 -18.5 3.5t-4.5 17.5z" />
    <glyph glyph-name="m" unicode="m" horiz-adv-x="792" 
d="M52 21v396q1 34 4.5 46t21.5 25q28 21 78.5 32t91.5 11q46 0 81 -11.5t47 -21t27 -24.5q33 33 79 46q38 11 88 11q77 0 119 -33q49 -40 49 -133v-344q0 -12 -4 -16.5t-16 -4.5h-83q-13 0 -17 4.5t-4 17.5v327q0 17 -0.5 28t-5 28t-12 26.5t-23.5 17t-38 7.5
q-34 0 -56 -20q-15 -13 -18.5 -27.5t-3.5 -43.5v-343q0 -13 -4 -17.5t-16 -4.5h-80q-13 0 -18.5 4t-5.5 17v334q0 104 -78 104q-34 0 -55 -20q-24 -22 -24 -74v-343q0 -13 -4.5 -17.5t-17.5 -4.5h-80q-14 0 -18 4.5t-4 16.5z" />
    <glyph glyph-name="n" unicode="n" horiz-adv-x="521" 
d="M467 373v-352q0 -13 -4.5 -17t-17.5 -4h-80q-14 0 -18 5t-4 18v338q0 21 -2 34t-9 31t-26 27.5t-49 9.5q-80 0 -80 -84v-355q0 -15 -5 -19.5t-19 -4.5h-79q-12 0 -16.5 4t-4.5 17v395q0 24 2 36t12.5 25t32.5 23q68 31 169 31q105 0 152 -39q21 -17 32 -40.5t12.5 -39
t1.5 -39.5z" />
    <glyph glyph-name="o" unicode="o" 
d="M509 265q2 -116 -62.5 -197t-176.5 -81q-108 0 -173 77t-65 195q0 119 66 195.5t174 76.5q77 0 132.5 -42.5t79 -100.5t25.5 -123zM379 271q-4 87 -35.5 136.5t-77.5 49.5q-49 0 -77 -52t-28 -131q0 -85 32.5 -144.5t81.5 -59.5q48 0 78 57.5t26 143.5z" />
    <glyph glyph-name="p" unicode="p" horiz-adv-x="521" 
d="M54 -214v615q0 54 12 70q16 23 71 41.5t119 18.5q107 0 166 -59q67 -65 67 -191q0 -72 -23 -137t-75 -110.5t-123 -45.5q-51 0 -91 26v-228q0 -12 -4.5 -16.5t-15.5 -4.5h-78q-14 0 -19.5 4t-5.5 17zM177 388v-297q38 -23 71 -23q54 0 84 55t30 139q0 98 -35.5 147
t-87.5 49q-28 0 -43 -13t-17 -25t-2 -32z" />
    <glyph glyph-name="q" unicode="q" horiz-adv-x="521" 
d="M345 -214v258q-66 -57 -130 -57q-86 0 -134.5 70.5t-48.5 173.5q0 50 13.5 99.5t41.5 96t80 75.5t120 29q90 0 146 -43q23 -18 29 -38.5t6 -58.5v-605q0 -9 -2.5 -13.5t-6.5 -5.5t-14 -1h-77q-10 0 -14 1t-6.5 5.5t-2.5 13.5zM345 119v251q0 18 -1.5 29t-7 26.5
t-19.5 23.5t-37 8q-59 0 -91 -60.5t-32 -141.5q0 -71 28.5 -122t79.5 -51q41 0 80 37z" />
    <glyph glyph-name="r" unicode="r" horiz-adv-x="375" 
d="M178 408v-387q-1 -12 -5 -16.5t-16 -4.5h-82q-13 0 -17.5 4t-4.5 17v418q0 24 5.5 36t23.5 21q63 35 183 35t120 -75q0 -23 -14.5 -38.5t-38.5 -15.5q-13 0 -22.5 5.5t-14 11.5t-14.5 21q-21 28 -50 28q-18 0 -30 -5.5t-16.5 -16t-5.5 -18t-1 -20.5z" />
    <glyph glyph-name="s" unicode="s" horiz-adv-x="437" 
d="M233 321l50 -23q24 -11 39 -20.5t36 -28t32 -45t11 -60.5q0 -24 -7.5 -48.5t-26 -50.5t-56 -42t-90.5 -16q-92 0 -139 40.5t-47 80.5q0 23 14.5 38.5t36.5 15.5q13 0 24.5 -6.5t16.5 -13l15 -19.5q16 -22 24 -32t23.5 -19t34.5 -9q27 0 45 17.5t18 44.5q0 33 -32 62
q-13 9 -100 51q-110 51 -110 146q0 60 43 103.5t131 43.5q82 0 124 -35t42 -72q0 -21 -13.5 -35t-34.5 -14t-32.5 10.5t-22.5 30.5q-26 49 -68 49q-28 0 -44 -19t-16 -41q0 -23 14 -41t27.5 -25.5t37.5 -17.5z" />
    <glyph glyph-name="t" unicode="t" horiz-adv-x="292" 
d="M267 463h-78v-309q0 -93 68 -96q16 0 23.5 -1t14 -7t6.5 -18q0 -19 -31 -31.5t-65 -12.5q-72 0 -109 44q-29 35 -29 102v329h-48q-13 0 -15.5 6t-2.5 33q0 16 17 16h49v56q0 14 3.5 20.5t14.5 14.5l72 46q13 8 18 8q14 0 14 -28v-117h76q7 0 10 -0.5t6 -3.5t3 -10
q0 -29 -2.5 -35t-14.5 -6z" />
    <glyph glyph-name="u" unicode="u" horiz-adv-x="521" 
d="M469 497v-373q0 -39 -6.5 -59.5t-32.5 -38.5q-64 -39 -173 -39q-68 0 -112.5 15.5t-63 43.5t-24 50.5t-5.5 53.5v349q0 19 21 19h82q12 1 17 -3.5t5 -16.5v-335q0 -18 2 -29.5t9 -28.5t26.5 -26t49.5 -9q28 0 46 7t25 21.5t8.5 25t1.5 27.5v346q0 12 4.5 16.5t16.5 4.5
h79q13 0 18.5 -4t5.5 -17z" />
    <glyph glyph-name="v" unicode="v" horiz-adv-x="458" 
d="M135 500l110 -344l109 347q4 10 8 12.5t15 2.5h64q17 0 17 -12q0 -7 -4 -16l-164 -473q-5 -11 -8.5 -14t-14.5 -3h-69q-12 0 -15.5 2.5t-7.5 13.5l-171 472q-4 13 -4 17q0 13 18 13h93q12 0 16 -3t8 -15z" />
    <glyph glyph-name="w" unicode="w" horiz-adv-x="688" 
d="M429 19l-85 268l-85 -270q-4 -11 -7.5 -14t-14.5 -3h-63q-11 0 -15 3.5t-8 14.5l-147 468q-4 13 -4 18q0 14 20 14h83q10 0 14.5 -1t8.5 -5.5t6 -13.5l92 -335l101 335q6 17 13 19q2 1 34 1q8 0 11 -3t7 -15l104 -337l92 335q3 12 7 16t15 4h59q20 0 20 -12q0 -4 -4 -18
l-145 -469q-4 -12 -7.5 -15.5t-13.5 -3.5h-64q-11 0 -15.5 3.5t-8.5 15.5z" />
    <glyph glyph-name="x" unicode="x" horiz-adv-x="437" 
d="M297 16l-88 153l-102 -153q-8 -11 -11.5 -13.5t-15.5 -2.5h-62q-17 0 -17 11q0 4 8 17l149 226l-137 232q-7 12 -7 19q0 13 18 13h87q12 0 16.5 -3t11.5 -14l83 -140l90 140q6 9 9 11.5t7 4t13 1.5h56q18 0 18 -12q0 -7 -9 -19l-133 -208l148 -250q8 -14 8 -18
q0 -11 -17 -11h-93q-15 0 -19 2t-11 14z" />
    <glyph glyph-name="y" unicode="y" horiz-adv-x="479" 
d="M474 485l-200 -554q-10 -26 -17 -42.5t-23.5 -44t-35 -44t-47.5 -29.5t-64 -13q-44 0 -66 18t-22 44q0 23 15.5 38.5t38.5 15.5q7 0 29.5 -5.5t30.5 -5.5q29 0 48.5 26.5t41.5 93.5l-193 503q-5 14 -5 18q0 14 19 14h92q10 0 14 -2t6 -5t6 -15l118 -346l111 346
q5 14 9.5 18t18.5 4h60q20 0 20 -14q0 -5 -5 -19z" />
    <glyph glyph-name="z" unicode="z" horiz-adv-x="417" 
d="M382 486l-200 -415h186q20 0 20 -16q0 -43 -1 -46q-2 -9 -19 -9h-325q-18 0 -18 12q0 4 7 20l203 415h-173q-11 0 -15 3t-4 13q0 41 1 43q1 12 18 12h304q22 0 22 -14q0 -6 -6 -18z" />
    <glyph glyph-name="braceleft" unicode="{" horiz-adv-x="292" 
d="M175 643v-61q0 -40 -0.5 -57.5t-2 -45.5t-5 -40t-10 -29.5t-16 -25.5t-23 -16t-32.5 -12v-4q22 -5 38 -14.5t25.5 -23.5t15 -33t7.5 -42t3 -51.5t0 -61.5v-62q0 -34 0.5 -49.5t4.5 -37.5t12 -31.5t23 -18.5t38 -11q17 -2 20.5 -4t3.5 -14q0 -24 -5 -28q-4 -1 -17 -1
q-30 0 -54 3.5t-42 8.5t-32 16.5t-23 20t-15 25.5t-9.5 28t-5 33.5t-2 34.5t-0.5 38v96q0 37 -1.5 59t-8 44.5t-20 35t-35.5 16.5q-15 3 -18 8t-3 27q1 10 4 12t18 5q23 5 37 18.5t19.5 38.5t6.5 43.5t1 54.5v95q0 68 6 101.5t29 60.5q42 47 132 47q38 0 38 -12v-22
q0 -8 -4 -10t-20 -3q-23 -2 -38 -11t-23 -19.5t-12 -33t-4.5 -38t-0.5 -47.5z" />
    <glyph glyph-name="bar" unicode="|" horiz-adv-x="229" 
d="M154 750v-1000h-80v1000h80z" />
    <glyph glyph-name="braceright" unicode="}" horiz-adv-x="292" 
d="M117 582v61q0 32 -0.5 47.5t-4.5 38t-12 33t-23 19.5t-38 11q-16 1 -20 3t-4 10v22q0 12 38 12q90 0 132 -47q23 -27 29 -60.5t6 -101.5v-95q0 -36 1 -54.5t6.5 -43.5t19.5 -38.5t37 -18.5q15 -3 18 -5t4 -12q0 -22 -3 -27t-18 -8q-22 -4 -35.5 -16.5t-20 -35t-8 -44.5
t-1.5 -59v-96q0 -26 -0.5 -38t-2 -34.5t-5 -33.5t-9.5 -28t-15 -25.5t-23 -20t-32 -16.5t-42 -8.5t-54 -3.5q-13 0 -17 1q-5 4 -5 28q0 12 3.5 14t20.5 4q23 2 38 11t23 18.5t12 31.5t4.5 37.5t0.5 49.5v62q-1 33 0 61.5t3 51.5t7.5 42t15 33t25.5 23.5t38 14.5v4
q-19 4 -32.5 12t-23 16t-16 25.5t-10 29.5t-5 40t-2 45.5t-0.5 57.5z" />
    <glyph glyph-name="asciitilde" unicode="~" horiz-adv-x="729" 
d="M567 366l38 -71q-62 -80 -137 -80q-30 0 -99 31q-79 39 -110 39q-27 0 -44 -13t-51 -54l-40 71q15 22 28 36.5t42.5 31t62.5 16.5q41 0 111 -33q76 -36 103 -36q47 0 96 62z" />
    <glyph glyph-name="exclamdown" unicode="&#xa1;" horiz-adv-x="292" 
d="M53 23l39 425q1 14 5.5 17.5t16.5 3.5h33q11 0 12 -20l38 -427q1 -14 -3 -18t-17 -4h-103q-13 0 -17.5 4t-3.5 19zM51 641q1 30 23 50.5t53 20.5q33 0 54 -23t21 -52q0 -31 -22 -53t-53 -22q-32 0 -54.5 23t-21.5 56z" />
    <glyph glyph-name="cent" unicode="&#xa2;" horiz-adv-x="458" 
d="M260 463v-372q66 1 105 60q14 22 20 28.5t16 6.5t17.5 -8t7.5 -23q0 -47 -43 -103q-44 -56 -123 -65v-67q0 -8 -3 -10t-11 -3q-18 0 -21.5 1.5t-4.5 11.5v67q-86 13 -137 84.5t-51 183.5q0 111 51 188t137 89v69q0 12 13 12q19 0 23 -1.5t4 -10.5v-68q77 -3 123 -45.5
t46 -83.5q0 -24 -15 -36t-32 -12q-14 0 -24 7.5t-14.5 15.5t-11.5 24q-13 28 -27 41t-45 19zM220 102v359q-93 -27 -93 -164q0 -64 22.5 -119t70.5 -76z" />
    <glyph glyph-name="sterling" unicode="&#xa3;" horiz-adv-x="625" 
d="M429 355h-124q13 -55 13 -100q0 -23 -2 -41q18 -13 42 -34q28 -25 45 -39t42 -28t44 -14q26 0 48 22q11 11 14.5 15t9 7t11.5 3q15 0 23 -12q5 -9 5 -21q0 -39 -32 -84t-96 -45q-36 0 -71.5 20t-54 38.5t-53.5 57.5q-45 -116 -139 -116q-56 0 -88.5 38.5t-32.5 91.5
q0 62 41 105.5t102 43.5q25 0 60 -11q-7 49 -30 103h-108q-11 1 -14 3t-4 13q0 27 2.5 33t15.5 7h83q-34 79 -34 131q0 81 55 130.5t147 49.5q51 0 92.5 -16.5t65 -42t36 -51.5t12.5 -48q0 -27 -15.5 -41.5t-36.5 -14.5q-13 0 -22.5 4t-16 13t-9.5 14.5t-8 17.5
q-7 22 -12 33.5t-16 28t-28.5 24t-40.5 7.5q-38 0 -59.5 -26.5t-21.5 -72.5q0 -40 26 -140h134q20 0 20 -14q0 -29 -2.5 -35.5t-17.5 -6.5zM240 156q-42 34 -73 34q-27 0 -43.5 -17.5t-16.5 -42.5q0 -29 18 -45.5t40 -16.5q54 0 75 88z" />
    <glyph glyph-name="currency" unicode="&#xa4;" horiz-adv-x="667" 
d="M624 570l-75 -75q18 -30 26 -45t16 -44t8 -64q0 -38 -8 -69t-16.5 -46.5t-26.5 -43.5l76 -77l-61 -59l-75 76q-31 -19 -45.5 -26.5t-44 -15.5t-64.5 -8q-37 0 -67.5 8t-46 16.5t-42.5 26.5l-76 -76l-60 60l76 75q-18 28 -26.5 43.5t-16.5 46.5t-8 68q0 79 51 154l-75 75
l60 60l75 -75q74 51 157 51q35 0 64.5 -8t45.5 -16.5t44 -26.5l75 75zM519 340q1 84 -55 136t-129 52q-79 0 -133.5 -53.5t-54.5 -133.5q0 -84 55.5 -137t130.5 -53q77 0 131 52.5t55 136.5z" />
    <glyph glyph-name="yen" unicode="&#xa5;" 
d="M338 314v-41h133q16 0 19 -6.5t3 -37.5q0 -12 -4.5 -15t-17.5 -3h-133v-192q0 -13 -5 -16t-17 -3h-97q-12 0 -16 4t-4 15v192h-128q-13 0 -17.5 3.5t-5.5 15.5q0 30 3 36.5t18 6.5h130v47l-17 31h-111q-13 0 -17.5 3.5t-5.5 15.5q0 30 3 36.5t18 6.5h80l-141 262
q-8 15 -8 18q0 14 18 14h107q13 0 17 -3t10 -14l135 -259l138 256q7 13 11.5 16.5t16.5 3.5h69q19 0 19 -13q0 -6 -8 -19l-142 -262h80q16 0 19 -6.5t3 -37.5q0 -12 -4.5 -15t-17.5 -3h-113z" />
    <glyph glyph-name="brokenbar" unicode="&#xa6;" horiz-adv-x="229" 
d="M75 -175v350h80v-350h-80zM155 325h-80v350h80v-350z" />
    <glyph glyph-name="section" unicode="&#xa7;" horiz-adv-x="479" 
d="M211 122l-44 20q-25 12 -42 22t-42 30t-38.5 47.5t-13.5 61.5q0 38 19 71t35 47t42 32q-54 54 -54 119q0 68 46 109.5t126 41.5q81 0 128 -39.5t47 -84.5q0 -28 -15.5 -42t-34.5 -14q-34 0 -54 43q-8 16 -12.5 23.5t-14 19.5t-21.5 17.5t-28 5.5q-30 0 -46.5 -20
t-16.5 -46q0 -42 27.5 -64t95.5 -52q32 -14 50 -24t45 -30t40.5 -46.5t13.5 -59.5q0 -80 -91 -146q74 -59 74 -140q0 -68 -48 -116t-132 -48q-91 0 -143.5 47t-52.5 96q0 25 15 43t40 18q17 0 30 -9.5t18 -18.5t11 -24t11 -23.5t15.5 -23t26 -21.5t35.5 -7q26 0 45.5 18
t19.5 50q0 22 -8.5 40t-28 33t-34 23t-41.5 21zM302 198q49 41 49 87q0 36 -26 56.5t-80 42.5q-42 18 -68 33q-48 -41 -48 -86q0 -49 67 -85q7 -3 52 -23.5t54 -24.5z" />
    <glyph glyph-name="dieresis" unicode="&#xa8;" horiz-adv-x="271" 
d="M107 656q1 -26 -16.5 -45t-49.5 -19q-29 0 -47 17.5t-18 44.5q0 28 20 45t47 17q26 0 44.5 -17t19.5 -43zM295 656q1 -26 -16 -45t-49 -19q-30 0 -48 17.5t-18 43.5q0 28 20 45.5t47 17.5q26 0 44.5 -16.5t19.5 -43.5z" />
    <glyph glyph-name="copyright" unicode="&#xa9;" horiz-adv-x="833" 
d="M557 258l56 -49q-77 -91 -188 -91q-106 0 -172 67.5t-66 168.5t67 169.5t169 68.5q50 0 92.5 -18t59 -33t38.5 -39l-56 -53q-21 22 -34 33t-40 23t-58 12q-65 0 -112.5 -44.5t-47.5 -119.5q0 -70 46.5 -115t113.5 -45q75 0 132 65zM772 351q-1 -148 -103.5 -251
t-252.5 -103q-145 0 -250 101t-105 256q0 149 103.5 252t251.5 103q153 0 255 -105t101 -253zM740 352q0 136 -92 230.5t-230 94.5q-137 0 -231 -94.5t-94 -228.5q0 -138 95 -231.5t229 -93.5q138 0 230.5 95t92.5 228z" />
    <glyph glyph-name="ordfeminine" unicode="&#xaa;" horiz-adv-x="292" 
d="M259 605v-156q-1 -16 -2.5 -24.5t-7.5 -17t-18 -14.5q-33 -19 -92 -19q-14 0 -27.5 2t-38.5 9t-40 27t-15 51q0 22 9 39.5t21 28.5t37.5 21.5t44 16t54.5 14.5q0 52 -5.5 69.5t-31.5 17.5q-31 0 -42 -34q-4 -10 -7 -15t-10.5 -10.5t-18.5 -5.5q-15 0 -25 9t-10 24
q0 31 35 54t89 23q36 0 58.5 -10t30.5 -30t10 -33t2 -37zM184 459v86q-30 -9 -45 -15t-29 -21.5t-14 -37.5t13 -37t37 -15q17 0 26.5 7.5t10.5 14t1 18.5z" />
    <glyph glyph-name="guillemotleft" unicode="&#xab;" horiz-adv-x="437" 
d="M332 249l53 -95q6 -12 6 -19q0 -9 -6 -16t-15 -7q-13 0 -27 19q-66 90 -113 129q-22 18 -22 31q0 12 17 27q52 44 103 110q20 27 26 32.5t15 5.5q8 0 15 -6t7 -16q0 -6 -7 -20l-53 -95q-13 -26 -13 -38t14 -42zM157 249l52 -95q7 -14 7 -19q0 -9 -6.5 -16t-15.5 -7
q-11 0 -27 19q-60 84 -113 129q-21 17 -21 31t17 27q54 47 102 110q21 27 27 32.5t14 5.5q9 0 15.5 -6t6.5 -16q0 -8 -7 -20l-53 -95q-13 -24 -13 -38t15 -42z" />
    <glyph glyph-name="logicalnot" unicode="&#xac;" horiz-adv-x="667" 
d="M587 1v252h-587v79h667v-331h-80z" />
    <glyph glyph-name="registered" unicode="&#xae;" horiz-adv-x="833" 
d="M266 580h146q74 0 105 -11q35 -12 53.5 -41t18.5 -63q0 -82 -92 -106q29 -13 43 -32t21 -62q8 -56 14 -80.5t20 -53.5h-91q-13 26 -24 98q-10 73 -31 88.5t-103 15.5v-202h-80v449zM347 518v-121h66q19 0 30 1t29 6t27.5 19t9.5 36q0 39 -32 53q-16 6 -79 6h-51zM773 352
q-1 -149 -104 -252t-253 -103q-143 0 -249 101t-106 255q0 152 104.5 254t250.5 102q153 0 255.5 -104.5t101.5 -252.5zM741 352q1 134 -92.5 229.5t-230.5 95.5q-136 0 -230.5 -95t-94.5 -229q0 -136 95 -230t229 -94q136 0 229.5 94t94.5 229z" />
    <glyph glyph-name="macron" unicode="&#xaf;" horiz-adv-x="271" 
d="M3 689h263q19 0 21 -11q1 -3 1 -46q0 -12 -5 -15t-18 -3h-259q-20 0 -22 11q-1 3 -1 46q0 11 4 14.5t16 3.5z" />
    <glyph glyph-name="macron" unicode="&#x2c9;" horiz-adv-x="271" 
d="M3 689h263q19 0 21 -11q1 -3 1 -46q0 -12 -5 -15t-18 -3h-259q-20 0 -22 11q-1 3 -1 46q0 11 4 14.5t16 3.5z" />
    <glyph glyph-name="degree" unicode="&#xb0;" horiz-adv-x="354" 
d="M177 755q67 0 114 -47t47 -114t-47 -114t-114 -47t-114.5 47t-47.5 114t47.5 114t114.5 47zM177 675q-33 0 -56 -23t-23 -56t23 -56t56 -23t56 23t23 56t-23 56t-56 23z" />
    <glyph glyph-name="plusminus" unicode="&#xb1;" horiz-adv-x="500" 
d="M291 342v-181h-79v181h-181v79h181v179h79v-179h178v-79h-178zM469 79v-79h-438v79h438z" />
    <glyph glyph-name="twosuperior" unicode="&#xb2;" horiz-adv-x="333" 
d="M234 470l-103 -131h150q6 0 9 -0.5t5 -3.5t2 -9v-47q0 -14 -16 -14h-238q-20 0 -20 15q0 8 9 20l130 170q19 27 27 39.5t16 32.5t8 38q0 28 -17 48.5t-45 20.5q-50 0 -66 -58q-3 -10 -4.5 -14.5t-7.5 -10t-14 -5.5q-25 0 -25 32q0 48 36 86t98 38q56 0 90.5 -34t34.5 -82
q0 -24 -10.5 -50.5t-19.5 -40t-29 -40.5z" />
    <glyph glyph-name="threesuperior" unicode="&#xb3;" horiz-adv-x="333" 
d="M216 518q30 -15 47 -33q37 -39 37 -93t-36.5 -95.5t-109.5 -41.5q-58 0 -95.5 29t-37.5 64q0 16 10.5 26.5t24.5 10.5q21 0 35 -24q9 -15 15 -24t20.5 -18.5t32.5 -9.5q28 0 45 19t17 48q0 65 -83 93q-24 7 -30 11.5t-6 12.5q0 12 19 20t28 12.5t23.5 14.5t21.5 23.5
t7 31.5q0 25 -15.5 42t-41.5 17q-18 0 -31 -8.5t-18 -16t-12 -21.5q-11 -24 -26 -24q-23 0 -23 28q0 37 34 71t93 34q53 0 85.5 -29.5t32.5 -73.5q0 -61 -63 -96z" />
    <glyph glyph-name="acute" unicode="&#xb4;" horiz-adv-x="271" 
d="M194 648l-89 -68q-14 -12 -25 -12q-9 0 -16.5 6.5t-7.5 19.5q0 15 14 29l79 85q17 19 32 19q14 0 23.5 -11.5t9.5 -28.5q0 -21 -20 -39z" />
    <glyph glyph-name="mu" unicode="&#xb5;" horiz-adv-x="521" 
d="M366 518h79q13 0 18.5 -4t5.5 -17v-373q0 -39 -6.5 -59.5t-32.5 -38.5q-62 -39 -173 -39q-45 0 -84 8v-208q0 -12 -4.5 -16.5t-15.5 -4.5h-76q-13 0 -19 3.5t-6 16.5v713q0 19 21 19h82q12 1 17 -3.5t5 -16.5v-335q0 -18 2 -29.5t9 -28.5t26.5 -26t49.5 -9q28 0 46 7
t25 21.5t8.5 25t1.5 27.5v346q0 12 4.5 16.5t16.5 4.5z" />
    <glyph glyph-name="mu" unicode="&#x3bc;" horiz-adv-x="521" 
d="M366 518h79q13 0 18.5 -4t5.5 -17v-373q0 -39 -6.5 -59.5t-32.5 -38.5q-62 -39 -173 -39q-45 0 -84 8v-208q0 -12 -4.5 -16.5t-15.5 -4.5h-76q-13 0 -19 3.5t-6 16.5v713q0 19 21 19h82q12 1 17 -3.5t5 -16.5v-335q0 -18 2 -29.5t9 -28.5t26.5 -26t49.5 -9q28 0 46 7
t25 21.5t8.5 25t1.5 27.5v346q0 12 4.5 16.5t16.5 4.5z" />
    <glyph glyph-name="paragraph" unicode="&#xb6;" horiz-adv-x="667" 
d="M309 706h230v-54h-34v-818h-58v818h-145v-818h-57v485q-26 6 -39 10t-32.5 14.5t-35.5 27.5q-51 52 -51 135q0 62 30 110q19 30 44 49.5t55 27.5t48 10t45 3z" />
    <glyph glyph-name="periodcentered" unicode="&#xb7;" horiz-adv-x="250" 
d="M198 274q-1 -31 -22 -51.5t-51 -20.5q-31 0 -52.5 21.5t-21.5 53.5q0 34 23 54t50 20q31 0 53 -22t21 -55z" />
    <glyph glyph-name="periodcentered" unicode="&#x2219;" horiz-adv-x="250" 
d="M198 274q-1 -31 -22 -51.5t-51 -20.5q-31 0 -52.5 21.5t-21.5 53.5q0 34 23 54t50 20q31 0 53 -22t21 -55z" />
    <glyph glyph-name="cedilla" unicode="&#xb8;" horiz-adv-x="271" 
d="M111 3h53l-15 -75q25 0 44 -7t27.5 -16t13.5 -21t6 -18t1 -11q0 -36 -30.5 -62t-81.5 -26q-29 0 -64 10t-35 30q0 19 19 19q4 0 19 -3q26 -6 49 -6q22 0 37 10t15 29q0 33 -49 33q-23 0 -20 22z" />
    <glyph glyph-name="onesuperior" unicode="&#xb9;" horiz-adv-x="333" 
d="M153 280v326q-81 -27 -104 -27q-26 0 -26 22q0 15 27 23q76 21 130 68q20 20 32 20q21 0 21 -25v-408q0 -14 -15 -14h-49q-9 0 -12.5 3t-3.5 12z" />
    <glyph glyph-name="ordmasculine" unicode="&#xba;" horiz-adv-x="354" 
d="M327 548q2 -73 -39 -123.5t-110 -50.5t-109.5 48.5t-40.5 122.5t41.5 122t108.5 48q71 0 109 -50.5t40 -116.5zM244 552q-2 53 -21.5 84t-48.5 31q-30 0 -47 -32.5t-17 -80.5q0 -53 20 -89.5t50 -36.5t48 35.5t16 88.5z" />
    <glyph glyph-name="guillemotright" unicode="&#xbb;" horiz-adv-x="437" 
d="M105 329l-52 95q-7 10 -7 20q0 9 6 15.5t16 6.5q12 0 26 -19q2 -2 11 -14l13.5 -18t14 -18t17 -20.5t17.5 -19.5t20.5 -20.5t20.5 -18.5q21 -18 21 -31q0 -14 -17 -27q-52 -44 -102 -110q-21 -27 -27 -32.5t-14 -5.5q-9 0 -15.5 6.5t-6.5 15.5q0 10 7 20l52 96
q14 23 14 37t-15 42zM281 329l-53 95q-6 12 -6 20q0 9 6 15.5t15 6.5q13 0 27 -19q61 -84 113 -129q22 -18 22 -30q0 -15 -17 -27q-57 -51 -103 -111q-20 -27 -26 -32.5t-15 -5.5t-15.5 6.5t-6.5 15.5q0 6 7 20l53 96q13 22 13 37q0 12 -14 42z" />
    <glyph glyph-name="onequarter" unicode="&#xbc;" horiz-adv-x="792" 
d="M153 280v326q-81 -27 -104 -27q-26 0 -26 22q0 15 27 23q76 21 130 68q20 20 32 20q21 0 21 -25v-408q0 -14 -15 -14h-49q-9 0 -12.5 3t-3.5 12zM709 418v-274q39 0 41 -2q4 -3 4 -22t-3 -22q-3 -2 -42 -2v-85q0 -9 -2.5 -11.5t-12.5 -2.5h-49q-9 0 -11 2.5t-3 11.5v85
h-135q-25 0 -25 21q0 10 11 27l173 285q13 18 28 18q26 0 26 -29zM538 144h96v174zM599 677l-346 -658q-7 -13 -11.5 -16t-15.5 -3q-27 0 -33 1t-6 8q0 4 7 20l348 658q7 12 11.5 15.5t15.5 3.5q38 0 38 -10q0 -4 -8 -19z" />
    <glyph glyph-name="onehalf" unicode="&#xbd;" horiz-adv-x="792" 
d="M153 280v326q-78 -26 -104 -26t-26 21q0 17 27 23q80 23 130 69q19 19 32 19q21 0 21 -24v-409q0 -14 -15 -14h-49q-9 0 -12.5 3t-3.5 12zM693 205l-103 -131h150q16 0 16 -13v-47q0 -14 -16 -14h-238q-20 0 -20 15q0 8 9 20l130 170q19 27 27 39.5t16 32.5t8 38
q0 28 -17 48.5t-45 20.5q-50 0 -66 -58q-3 -10 -4.5 -14.5t-7.5 -10t-15 -5.5q-24 0 -24 32q0 48 36 86t98 38q56 0 90.5 -34t34.5 -82q0 -24 -10.5 -50.5t-19.5 -40t-29 -40.5zM583 677l-347 -658q-7 -13 -11 -16t-16 -3q-27 0 -32.5 1t-5.5 8t7 20l348 658q7 13 12 16.5
t15 3.5q27 0 32.5 -1.5t5.5 -9.5q0 -3 -8 -19z" />
    <glyph glyph-name="threequarters" unicode="&#xbe;" horiz-adv-x="792" 
d="M216 518q30 -15 47 -33q37 -39 37 -93t-36.5 -95.5t-109.5 -41.5q-58 0 -95.5 29t-37.5 64q0 16 10.5 26.5t24.5 10.5q21 0 35 -24q9 -15 15 -24t20.5 -18.5t32.5 -9.5q28 0 45 19t17 48q0 65 -83 93q-23 8 -29 11.5t-6 12.5q0 13 18 20q19 8 28 12.5t23.5 14.5
t21.5 23.5t7 31.5q0 25 -15.5 42t-41.5 17q-18 0 -31 -8.5t-18 -16t-12 -21.5q-11 -24 -26 -24q-23 0 -23 28q0 37 34 71t93 34q53 0 85.5 -29.5t32.5 -73.5q0 -61 -63 -96zM709 418v-274q39 0 41 -2q4 -3 4 -22t-3 -22q-3 -2 -42 -2v-85q0 -9 -2.5 -11.5t-12.5 -2.5h-49
q-9 0 -11 2.5t-3 11.5v85h-135q-25 0 -25 21q0 10 11 27l173 285q13 18 28 18q26 0 26 -29zM538 144h96v173zM625 677l-347 -658q-7 -13 -11 -16t-15 -3q-27 0 -33 1t-6 8q0 4 7 20l348 658q7 13 12 16.5t15 3.5q27 0 32.5 -1.5t5.5 -9.5q0 -3 -8 -19z" />
    <glyph glyph-name="questiondown" unicode="&#xbf;" horiz-adv-x="417" 
d="M239 446l15 -132q0 -3 0.5 -7.5t0.5 -6.5q0 -23 -24 -38q-31 -20 -46 -32t-30.5 -37t-15.5 -54q0 -32 20 -56.5t54 -24.5q18 0 30.5 6t20.5 18.5t10.5 18t7.5 19.5q6 19 10 28.5t16 19.5t30 10q23 0 39 -16t16 -44q0 -52 -50 -93t-143 -41q-92 0 -136 42.5t-44 96.5
q0 30 14 56.5t28 40.5t47 44q38 34 48.5 65.5t14.5 98.5q2 27 5.5 33t18.5 6h29q8 -1 10.5 -4.5t3.5 -16.5zM133 641q1 30 22.5 50.5t51.5 20.5q33 0 53.5 -22.5t20.5 -52.5q0 -31 -22 -53t-52 -22q-31 0 -53 23t-21 56z" />
    <glyph glyph-name="Agrave" unicode="&#xc0;" horiz-adv-x="604" 
d="M458 18l-73 203h-203l-71 -202q-5 -12 -9 -15.5t-17 -3.5h-66q-19 0 -19 13q0 7 6 19l244 655q4 11 8.5 15t15.5 4h58q11 0 15 -2.5t9 -12.5l244 -664q4 -8 4 -14q0 -13 -17 -13h-101q-13 0 -18 3t-10 15zM207 296h153l-77 231zM232 916l89 -99q11 -13 11 -28
q0 -12 -7.5 -20.5t-17.5 -8.5q-7 0 -22 10l-96 71q-25 23 -25 48q0 18 10.5 31t26.5 13t31 -17z" />
    <glyph glyph-name="Aacute" unicode="&#xc1;" horiz-adv-x="604" 
d="M458 18l-73 203h-203l-71 -202q-5 -12 -9 -15.5t-17 -3.5h-66q-19 0 -19 13q0 7 6 19l244 655q4 11 8.5 15t15.5 4h58q11 0 15 -2.5t9 -12.5l244 -664q4 -8 4 -14q0 -13 -17 -13h-101q-13 0 -18 3t-10 15zM207 296h153l-77 231zM423 841l-96 -71q-15 -10 -22 -10
q-10 0 -17.5 8.5t-7.5 20.5q0 15 11 28l89 99q15 17 31 17t26.5 -13t10.5 -31q0 -25 -25 -48z" />
    <glyph glyph-name="Acircumflex" unicode="&#xc2;" horiz-adv-x="604" 
d="M458 18l-73 203h-203l-71 -202q-5 -12 -9 -15.5t-17 -3.5h-66q-19 0 -19 13q0 7 6 19l244 655q4 11 8.5 15t15.5 4h58q11 0 15 -2.5t9 -12.5l244 -664q4 -8 4 -14q0 -13 -17 -13h-101q-13 0 -18 3t-10 15zM207 296h153l-77 231zM268 812l-75 -47q-11 -9 -21 -9
q-7 0 -12.5 7t-5.5 16q0 15 23 35q60 54 84 81q21 25 37 25q13 0 34 -22q33 -37 84 -75q11 -9 14 -12t8 -8.5t6 -9t1 -9.5q0 -11 -6 -18t-13 -7q-6 0 -20 7l-75 47q-21 13 -31 13q-11 0 -32 -14z" />
    <glyph glyph-name="Atilde" unicode="&#xc3;" horiz-adv-x="604" 
d="M458 18l-73 203h-203l-71 -202q-5 -12 -9 -15.5t-17 -3.5h-66q-19 0 -19 13q0 7 6 19l244 655q4 11 8.5 15t15.5 4h58q11 0 15 -2.5t9 -12.5l244 -664q4 -8 4 -14q0 -13 -17 -13h-101q-13 0 -18 3t-10 15zM207 296h153l-77 231zM302 793q-37 23 -57 23t-37 -17
q-16 -20 -21.5 -24.5t-13.5 -4.5q-21 0 -21 27q0 28 24 62t72 34q28 0 71 -27q42 -24 61 -24q21 0 41 20q19 26 31 26q20 0 20 -25q0 -33 -24 -65t-72 -32q-30 0 -74 27z" />
    <glyph glyph-name="Adieresis" unicode="&#xc4;" horiz-adv-x="604" 
d="M458 18l-73 203h-203l-71 -202q-5 -12 -9 -15.5t-17 -3.5h-66q-19 0 -19 13q0 7 6 19l244 655q4 11 8.5 15t15.5 4h58q11 0 15 -2.5t9 -12.5l244 -664q4 -8 4 -14q0 -13 -17 -13h-101q-13 0 -18 3t-10 15zM207 296h153l-77 231zM272 834q1 -25 -16.5 -46t-52.5 -21
q-29 0 -49.5 16.5t-20.5 46.5t20.5 47.5t50.5 17.5q28 0 47.5 -16t20.5 -45zM469 834q1 -25 -16.5 -46t-52.5 -21q-29 0 -49.5 17t-20.5 46q0 30 20.5 47.5t50.5 17.5q27 0 47 -16t21 -45z" />
    <glyph glyph-name="Aring" unicode="&#xc5;" horiz-adv-x="604" 
d="M458 18l-73 203h-203l-71 -202q-5 -12 -9 -15.5t-17 -3.5h-66q-19 0 -19 13q0 7 6 19l244 655q4 11 8.5 15t15.5 4h58q11 0 15 -2.5t9 -12.5l244 -664q4 -8 4 -14q0 -13 -17 -13h-101q-13 0 -18 3t-10 15zM207 296h153l-77 231zM395 847q2 -40 -24 -68t-67 -28
t-67.5 27.5t-26.5 65.5q0 39 27.5 66t66.5 27q37 0 63 -26t28 -64zM344 846q-1 16 -12.5 28t-28.5 12q-18 0 -30 -12t-12 -30t12 -30t30 -12t30 13t11 31z" />
    <glyph glyph-name="AE" unicode="&#xc6;" horiz-adv-x="792" 
d="M473 323l47 -231h217q12 0 16 -4t4 -16v-53q0 -12 -4.5 -15.5t-15.5 -3.5h-312q-9 0 -13 1t-7.5 5.5t-5.5 13.5l-38 196h-186l-79 -197q-5 -13 -9.5 -16t-15.5 -3h-69q-19 0 -19 14q0 3 7 19l279 651q7 15 11.5 18.5t18.5 3.5h363q12 0 16 -4t4 -17v-52q0 -12 -3.5 -15.5
t-16.5 -3.5h-248l41 -203h207q12 0 16 -3.5t4 -15.5v-52q0 -10 -4 -13.5t-16 -3.5h-189zM204 291h142l-47 241z" />
    <glyph glyph-name="Ccedilla" unicode="&#xc7;" horiz-adv-x="604" 
d="M302 -88l9 76q-66 9 -117.5 40t-80.5 70t-47.5 88.5t-24.5 90t-6 80.5q0 157 86.5 261t236.5 104q102 0 167.5 -47.5t65.5 -98.5q0 -25 -17 -41.5t-43 -16.5q-16 0 -27.5 6.5t-17 13.5t-17.5 24q-47 78 -122 78q-72 0 -120 -66.5t-48 -182.5q0 -141 61.5 -222.5
t152.5 -81.5q62 0 122 41q26 18 37 18q12 0 21.5 -9t9.5 -24q0 -14 -12.5 -34t-37 -41.5t-70 -37t-101.5 -16.5l-11 -55q25 0 44 -7t27.5 -16.5t13.5 -21.5t6 -18t1 -11q0 -36 -30.5 -62t-81.5 -26q-29 0 -64 10t-35 30t19 20q1 0 2.5 -0.5t6 -1.5t10.5 -2q26 -6 49 -6
q22 0 37 10t15 30q0 33 -49 33q-23 0 -20 22z" />
    <glyph glyph-name="Egrave" unicode="&#xc8;" horiz-adv-x="479" 
d="M392 323h-199v-232h237q9 0 13 -1t7 -5.5t3 -13.5v-58q-2 -8 -6.5 -10.5t-16.5 -2.5h-348q-14 0 -19 4t-5 19v656q0 16 5 21.5t19 6.5h348q9 0 13 -0.5t7 -5t3 -13.5v-49q1 -14 -4 -18t-19 -4h-237v-206h200q12 0 16.5 -3.5t4.5 -15.5v-49q0 -13 -4.5 -16.5t-17.5 -3.5z
M180 916l89 -99q11 -13 11 -28q0 -12 -7.5 -20.5t-17.5 -8.5q-7 0 -22 10l-96 71q-25 23 -25 48q0 18 10.5 31t26.5 13t31 -17z" />
    <glyph glyph-name="Eacute" unicode="&#xc9;" horiz-adv-x="479" 
d="M392 323h-199v-232h237q9 0 13 -1t7 -5.5t3 -13.5v-58q-2 -8 -6.5 -10.5t-16.5 -2.5h-348q-14 0 -19 4t-5 19v656q0 16 5 21.5t19 6.5h348q9 0 13 -0.5t7 -5t3 -13.5v-49q1 -14 -4 -18t-19 -4h-237v-206h200q12 0 16.5 -3.5t4.5 -15.5v-49q0 -13 -4.5 -16.5t-17.5 -3.5z
M371 841l-96 -71q-15 -10 -22 -10q-10 0 -17.5 8.5t-7.5 20.5q0 15 11 28l89 99q15 17 31 17t26.5 -13t10.5 -31q0 -25 -25 -48z" />
    <glyph glyph-name="Ecircumflex" unicode="&#xca;" horiz-adv-x="479" 
d="M392 323h-199v-232h237q9 0 13 -1t7 -5.5t3 -13.5v-58q-2 -8 -6.5 -10.5t-16.5 -2.5h-348q-14 0 -19 4t-5 19v656q0 16 5 21.5t19 6.5h348q9 0 13 -0.5t7 -5t3 -13.5v-49q1 -14 -4 -18t-19 -4h-237v-206h200q12 0 16.5 -3.5t4.5 -15.5v-49q0 -13 -4.5 -16.5t-17.5 -3.5z
M216 812l-75 -47q-11 -9 -21 -9q-7 0 -12.5 7t-5.5 16q0 15 23 35q60 54 84 81q21 25 37 25q13 0 34 -22q33 -37 84 -75q11 -9 14 -12t8 -8.5t6 -9t1 -9.5q0 -11 -6 -18t-13 -7q-6 0 -20 7l-75 47q-21 13 -31 13q-11 0 -32 -14z" />
    <glyph glyph-name="Edieresis" unicode="&#xcb;" horiz-adv-x="479" 
d="M392 323h-199v-232h237q9 0 13 -1t7 -5.5t3 -13.5v-58q-2 -8 -6.5 -10.5t-16.5 -2.5h-348q-14 0 -19 4t-5 19v656q0 16 5 21.5t19 6.5h348q9 0 13 -0.5t7 -5t3 -13.5v-49q1 -14 -4 -18t-19 -4h-237v-206h200q12 0 16.5 -3.5t4.5 -15.5v-49q0 -13 -4.5 -16.5t-17.5 -3.5z
M219 834q1 -25 -16.5 -46t-52.5 -21q-29 0 -49.5 16.5t-20.5 46.5t20.5 47.5t50.5 17.5q28 0 47.5 -16t20.5 -45zM416 834q1 -25 -16.5 -46t-52.5 -21q-29 0 -49.5 17t-20.5 46q0 30 20.5 47.5t50.5 17.5q27 0 47 -16t21 -45z" />
    <glyph glyph-name="Igrave" unicode="&#xcc;" horiz-adv-x="250" 
d="M194 685v-663q0 -13 -5.5 -17.5t-16.5 -4.5h-93q-12 1 -17 5t-5 17v663q1 12 4.5 16.5t16.5 4.5h95q12 0 16.5 -4t4.5 -17zM55 916l89 -99q11 -13 11 -28q0 -12 -7.5 -20.5t-17.5 -8.5q-7 0 -22 10l-96 71q-25 23 -25 48q0 18 10.5 31t26.5 13t31 -17z" />
    <glyph glyph-name="Iacute" unicode="&#xcd;" horiz-adv-x="250" 
d="M194 685v-663q0 -13 -5.5 -17.5t-16.5 -4.5h-93q-12 1 -17 5t-5 17v663q1 12 4.5 16.5t16.5 4.5h95q12 0 16.5 -4t4.5 -17zM246 841l-96 -71q-15 -10 -22 -10q-10 0 -17.5 8.5t-7.5 20.5q0 15 11 28l89 99q15 17 31 17t26.5 -13t10.5 -31q0 -25 -25 -48z" />
    <glyph glyph-name="Icircumflex" unicode="&#xce;" horiz-adv-x="250" 
d="M194 685v-663q0 -13 -5.5 -17.5t-16.5 -4.5h-93q-12 1 -17 5t-5 17v663q1 12 4.5 16.5t16.5 4.5h95q12 0 16.5 -4t4.5 -17zM91 812l-75 -47q-11 -9 -21 -9q-7 0 -12.5 7t-5.5 16q0 15 23 35q60 54 84 81q21 25 37 25q13 0 34 -22q33 -37 84 -75q11 -9 14 -12t8 -8.5t6 -9
t1 -9.5q0 -11 -6 -18t-13 -7q-6 0 -20 7l-75 47q-21 13 -31 13q-11 0 -32 -14z" />
    <glyph glyph-name="Idieresis" unicode="&#xcf;" horiz-adv-x="250" 
d="M194 685v-663q0 -13 -5.5 -17.5t-16.5 -4.5h-93q-12 1 -17 5t-5 17v663q1 12 4.5 16.5t16.5 4.5h95q12 0 16.5 -4t4.5 -17zM94 834q1 -25 -16.5 -46t-52.5 -21q-29 0 -49.5 16.5t-20.5 46.5t20.5 47.5t50.5 17.5q28 0 47.5 -16t20.5 -45zM291 834q1 -25 -16.5 -46
t-52.5 -21q-29 0 -49.5 17t-20.5 46q0 30 20.5 47.5t50.5 17.5q27 0 47 -16t21 -45z" />
    <glyph glyph-name="Eth" unicode="&#xd0;" horiz-adv-x="667" 
d="M58 36v306h-47q-10 1 -11 16v47q0 13 11 16h47v244q1 16 4 21.5t13 8.5q49 19 170 19q176 0 277 -91q110 -98 110 -269q0 -155 -95 -253q-108 -109 -315 -109q-108 0 -144 13q-19 5 -20 31zM194 627v-206h159q16 0 17 -10q1 -3 1 -51q0 -11 -4 -14.5t-15 -3.5h-158v-260
q14 -1 31 -1q144 0 213 93q50 69 50 183q0 108 -52 183q-68 90 -198 90q-5 0 -44 -3z" />
    <glyph glyph-name="Ntilde" unicode="&#xd1;" horiz-adv-x="667" 
d="M187 688l319 -447v445q0 11 4 15.5t16 4.5h63q12 1 16 -3.5t4 -16.5v-666q0 -12 -4.5 -16t-16.5 -4h-56q-13 2 -26 21l-344 485v-484q0 -13 -4 -17.5t-16 -4.5h-63q-13 0 -17.5 3.5t-4.5 16.5v665q0 13 5 17t17 4h76q13 0 18.5 -3t13.5 -15zM323 793q-37 23 -57 23
t-37 -17q-16 -20 -21.5 -24.5t-13.5 -4.5q-21 0 -21 27q0 28 24 62t72 34q28 0 71 -27q42 -24 61 -24q21 0 41 20q19 26 31 26q20 0 20 -25q0 -33 -24 -65t-72 -32q-30 0 -74 27z" />
    <glyph glyph-name="Ograve" unicode="&#xd2;" horiz-adv-x="708" 
d="M673 372q7 -168 -83.5 -278t-234.5 -110q-135 0 -227 97t-92 271q0 161 86 266t235 105q143 0 226.5 -101t89.5 -250zM532 370q-2 120 -45 189q-50 78 -133 78q-41 0 -75 -20q-102 -60 -102 -254q0 -56 8 -101q10 -57 32.5 -96.5t50 -56.5t48.5 -23.5t40 -6.5
q87 0 137 87q41 74 39 204zM284 916l89 -99q11 -13 11 -28q0 -12 -7.5 -20.5t-17.5 -8.5q-7 0 -22 10l-96 71q-25 23 -25 48q0 18 10.5 31t26.5 13t31 -17z" />
    <glyph glyph-name="Oacute" unicode="&#xd3;" horiz-adv-x="708" 
d="M673 372q7 -168 -83.5 -278t-234.5 -110q-135 0 -227 97t-92 271q0 161 86 266t235 105q143 0 226.5 -101t89.5 -250zM532 370q-2 120 -45 189q-50 78 -133 78q-41 0 -75 -20q-102 -60 -102 -254q0 -56 8 -101q10 -57 32.5 -96.5t50 -56.5t48.5 -23.5t40 -6.5
q87 0 137 87q41 74 39 204zM475 841l-96 -71q-15 -10 -22 -10q-10 0 -17.5 8.5t-7.5 20.5q0 15 11 28l89 99q15 17 31 17t26.5 -13t10.5 -31q0 -25 -25 -48z" />
    <glyph glyph-name="Ocircumflex" unicode="&#xd4;" horiz-adv-x="708" 
d="M673 372q7 -168 -83.5 -278t-234.5 -110q-135 0 -227 97t-92 271q0 161 86 266t235 105q143 0 226.5 -101t89.5 -250zM532 370q-2 120 -45 189q-50 78 -133 78q-41 0 -75 -20q-102 -60 -102 -254q0 -56 8 -101q10 -57 32.5 -96.5t50 -56.5t48.5 -23.5t40 -6.5
q87 0 137 87q41 74 39 204zM320 812l-75 -47q-11 -9 -21 -9q-7 0 -12.5 7t-5.5 16q0 15 23 35q60 54 84 81q21 25 37 25q13 0 34 -22q33 -37 84 -75q11 -9 14 -12t8 -8.5t6 -9t1 -9.5q0 -11 -6 -18t-13 -7q-6 0 -20 7l-75 47q-21 13 -31 13q-11 0 -32 -14z" />
    <glyph glyph-name="Otilde" unicode="&#xd5;" horiz-adv-x="708" 
d="M673 372q7 -168 -83.5 -278t-234.5 -110q-135 0 -227 97t-92 271q0 161 86 266t235 105q143 0 226.5 -101t89.5 -250zM532 370q-2 120 -45 189q-50 78 -133 78q-41 0 -75 -20q-102 -60 -102 -254q0 -56 8 -101q10 -57 32.5 -96.5t50 -56.5t48.5 -23.5t40 -6.5
q87 0 137 87q41 74 39 204zM344 793q-37 23 -57 23t-37 -17q-16 -20 -21.5 -24.5t-13.5 -4.5q-21 0 -21 27q0 28 24 62t72 34q28 0 71 -27q42 -24 61 -24q21 0 41 20q19 26 31 26q20 0 20 -25q0 -33 -24 -65t-72 -32q-30 0 -74 27z" />
    <glyph glyph-name="Odieresis" unicode="&#xd6;" horiz-adv-x="708" 
d="M673 372q7 -168 -83.5 -278t-234.5 -110q-135 0 -227 97t-92 271q0 161 86 266t235 105q143 0 226.5 -101t89.5 -250zM532 370q-2 120 -45 189q-50 78 -133 78q-41 0 -75 -20q-102 -60 -102 -254q0 -56 8 -101q10 -57 32.5 -96.5t50 -56.5t48.5 -23.5t40 -6.5
q87 0 137 87q41 74 39 204zM326 834q1 -25 -16.5 -46t-52.5 -21q-29 0 -49.5 16.5t-20.5 46.5t20.5 47.5t50.5 17.5q28 0 47.5 -16t20.5 -45zM523 834q1 -25 -16.5 -46t-52.5 -21q-29 0 -49.5 17t-20.5 46q0 30 20.5 47.5t50.5 17.5q27 0 47 -16t21 -45z" />
    <glyph glyph-name="multiply" unicode="&#xd7;" horiz-adv-x="500" 
d="M307 293l150 -152l-56 -56l-150 150l-152 -150l-56 56l152 152l-152 150l56 55l152 -150l150 150l56 -55z" />
    <glyph glyph-name="Oslash" unicode="&#xd8;" horiz-adv-x="708" 
d="M658 734l-76 -108q93 -109 93 -264q0 -168 -91.5 -273t-230.5 -105q-103 0 -187 63l-71 -102q-7 -10 -12 -10t-20.5 11.5t-15.5 17.5q0 3 6 12l75 107q-93 100 -93 257q0 170 90 276t234 106q107 0 185 -59l71 101q7 9 11 9t20.5 -11t16.5 -17t-5 -11zM511 524l-278 -388
q49 -60 119 -60q83 0 136.5 77t53.5 198q0 94 -31 173zM205 191l278 388q-54 65 -122 65q-74 0 -133.5 -70.5t-59.5 -208.5q0 -97 37 -174z" />
    <glyph glyph-name="Ugrave" unicode="&#xd9;" horiz-adv-x="583" 
d="M534 687v-480q-2 -74 -21 -111q-5 -10 -10.5 -19.5t-23 -28t-39.5 -31t-60.5 -23t-85.5 -10.5q-170 0 -223 112q-21 44 -21 119v472q0 12 4 15.5t15 3.5h98q13 0 17 -3t4 -16v-457q0 -19 1.5 -32t8 -36t18.5 -37t36 -25.5t57 -11.5q117 0 117 132v465q0 13 4 17t16 4h67
q12 0 16.5 -3.5t4.5 -15.5zM232 916l89 -99q11 -13 11 -28q0 -12 -7.5 -20.5t-17.5 -8.5q-7 0 -22 10l-96 71q-25 23 -25 48q0 18 10.5 31t26.5 13t31 -17z" />
    <glyph glyph-name="Uacute" unicode="&#xda;" horiz-adv-x="583" 
d="M534 687v-480q-2 -74 -21 -111q-5 -10 -10.5 -19.5t-23 -28t-39.5 -31t-60.5 -23t-85.5 -10.5q-170 0 -223 112q-21 44 -21 119v472q0 12 4 15.5t15 3.5h98q13 0 17 -3t4 -16v-457q0 -19 1.5 -32t8 -36t18.5 -37t36 -25.5t57 -11.5q117 0 117 132v465q0 13 4 17t16 4h67
q12 0 16.5 -3.5t4.5 -15.5zM423 841l-96 -71q-15 -10 -22 -10q-10 0 -17.5 8.5t-7.5 20.5q0 15 11 28l89 99q15 17 31 17t26.5 -13t10.5 -31q0 -25 -25 -48z" />
    <glyph glyph-name="Ucircumflex" unicode="&#xdb;" horiz-adv-x="583" 
d="M534 687v-480q-2 -74 -21 -111q-5 -10 -10.5 -19.5t-23 -28t-39.5 -31t-60.5 -23t-85.5 -10.5q-170 0 -223 112q-21 44 -21 119v472q0 12 4 15.5t15 3.5h98q13 0 17 -3t4 -16v-457q0 -19 1.5 -32t8 -36t18.5 -37t36 -25.5t57 -11.5q117 0 117 132v465q0 13 4 17t16 4h67
q12 0 16.5 -3.5t4.5 -15.5zM268 812l-75 -47q-11 -9 -21 -9q-7 0 -12.5 7t-5.5 16q0 15 23 35q60 54 84 81q21 25 37 25q13 0 34 -22q33 -37 84 -75q11 -9 14 -12t8 -8.5t6 -9t1 -9.5q0 -11 -6 -18t-13 -7q-6 0 -20 7l-75 47q-21 13 -31 13q-11 0 -32 -14z" />
    <glyph glyph-name="Udieresis" unicode="&#xdc;" horiz-adv-x="583" 
d="M534 687v-480q-2 -74 -21 -111q-5 -10 -10.5 -19.5t-23 -28t-39.5 -31t-60.5 -23t-85.5 -10.5q-170 0 -223 112q-21 44 -21 119v472q0 12 4 15.5t15 3.5h98q13 0 17 -3t4 -16v-457q0 -19 1.5 -32t8 -36t18.5 -37t36 -25.5t57 -11.5q117 0 117 132v465q0 13 4 17t16 4h67
q12 0 16.5 -3.5t4.5 -15.5zM274 834q1 -25 -16.5 -46t-52.5 -21q-29 0 -49.5 16.5t-20.5 46.5t20.5 47.5t50.5 17.5q28 0 47.5 -16t20.5 -45zM471 834q1 -25 -16.5 -46t-52.5 -21q-29 0 -49.5 17t-20.5 46q0 30 20.5 47.5t50.5 17.5q27 0 47 -16t21 -45z" />
    <glyph glyph-name="Yacute" unicode="&#xdd;" 
d="M533 675l-195 -361v-295q0 -13 -5 -16t-17 -3h-97q-12 0 -16 4t-4 15v300l-191 356q-8 13 -8 18q0 13 18 13h107q13 0 17.5 -3t9.5 -14l135 -258l138 256q7 12 11.5 15.5t16.5 3.5h69q19 0 19 -12q0 -6 -8 -19zM402 841l-96 -71q-15 -10 -22 -10q-10 0 -17.5 8.5
t-7.5 20.5q0 15 11 28l89 99q15 17 31 17t26.5 -13t10.5 -31q0 -25 -25 -48z" />
    <glyph glyph-name="Thorn" unicode="&#xde;" 
d="M171 0h-92q-13 0 -17.5 4.5t-4.5 17.5v663q0 12 4 16.5t18 5.5h92q13 0 17.5 -4t4.5 -17v-119q55 13 103 13q66 0 113.5 -21t70 -47t35.5 -61.5t14.5 -52.5t1.5 -32q0 -84 -55 -141q-74 -75 -225 -75q-19 0 -58 3v-132q0 -13 -5 -17t-17 -4zM193 497v-265q18 -3 41 -3
q158 0 158 140q0 57 -26 91q-32 43 -104 43q-33 0 -69 -6z" />
    <glyph glyph-name="germandbls" unicode="&#xdf;" 
d="M177 576v-556q-1 -13 -4.5 -16.5t-16.5 -3.5h-80q-14 1 -18 3.5t-5 15.5v446q3 128 42 201q60 112 192 112q77 0 123 -40t46 -98q0 -25 -10 -51t-19 -40t-27 -39q-32 -43 -39.5 -57t-7.5 -29q0 -19 12 -33.5t53 -50.5q35 -29 55 -49.5t39.5 -58.5t19.5 -80
q0 -70 -47.5 -117.5t-134.5 -47.5q-66 0 -95.5 24.5t-29.5 52.5q0 20 14 33t33 13q18 0 41 -21q30 -30 58 -30q24 0 41 17t17 46q0 20 -9.5 38.5t-18.5 28t-28 26.5l-60 50q-23 19 -35.5 31t-25.5 36.5t-13 50.5q0 21 8 41.5t16.5 33.5t25.5 35q26 35 35.5 49.5t17.5 34
t8 38.5q0 34 -23 61t-63 27q-85 0 -87 -127z" />
    <glyph glyph-name="agrave" unicode="&#xe0;" horiz-adv-x="458" 
d="M410 356v-250q-1 -37 -9 -55.5t-35 -33.5q-54 -30 -147 -30q-14 0 -26 1t-38 4t-45.5 12.5t-40.5 24t-32.5 40.5t-11.5 59q0 60 44 102q21 21 55.5 37t65.5 25t102 28v51q0 19 -1.5 30.5t-6.5 28t-18.5 24.5t-34.5 8q-17 0 -29.5 -5t-21 -16.5t-11.5 -16.5t-8 -17
q-4 -13 -7.5 -19t-9.5 -14.5t-15.5 -12.5t-23.5 -4q-23 0 -38.5 14.5t-15.5 38.5q0 48 56 84.5t143 36.5q33 0 59.5 -6.5t43 -15t28 -24.5t17 -28.5t8.5 -34t3.5 -33t0.5 -33.5zM292 122v140q-30 -9 -45.5 -14.5t-38 -16.5t-33.5 -21.5t-19.5 -28t-8.5 -39.5q0 -38 22 -62
t61 -24q62 0 62 66zM167 708l79 -85q14 -16 14 -29t-7.5 -19.5t-16.5 -6.5q-11 0 -25 12l-90 68q-19 19 -19 39q0 17 9.5 28.5t23.5 11.5q15 0 32 -19z" />
    <glyph glyph-name="aacute" unicode="&#xe1;" horiz-adv-x="458" 
d="M410 356v-250q-1 -37 -9 -55.5t-35 -33.5q-54 -30 -147 -30q-14 0 -26 1t-38 4t-45.5 12.5t-40.5 24t-32.5 40.5t-11.5 59q0 60 44 102q21 21 55.5 37t65.5 25t102 28v51q0 19 -1.5 30.5t-6.5 28t-18.5 24.5t-34.5 8q-17 0 -29.5 -5t-21 -16.5t-11.5 -16.5t-8 -17
q-4 -13 -7.5 -19t-9.5 -14.5t-15.5 -12.5t-23.5 -4q-23 0 -38.5 14.5t-15.5 38.5q0 48 56 84.5t143 36.5q33 0 59.5 -6.5t43 -15t28 -24.5t17 -28.5t8.5 -34t3.5 -33t0.5 -33.5zM292 122v140q-30 -9 -45.5 -14.5t-38 -16.5t-33.5 -21.5t-19.5 -28t-8.5 -39.5q0 -38 22 -62
t61 -24q62 0 62 66zM347 648l-89 -68q-14 -12 -25 -12q-9 0 -16.5 6.5t-7.5 19.5q0 15 14 29l79 85q17 19 32 19q14 0 23.5 -11.5t9.5 -28.5q0 -21 -20 -39z" />
    <glyph glyph-name="acircumflex" unicode="&#xe2;" horiz-adv-x="458" 
d="M410 356v-250q-1 -37 -9 -55.5t-35 -33.5q-54 -30 -147 -30q-14 0 -26 1t-38 4t-45.5 12.5t-40.5 24t-32.5 40.5t-11.5 59q0 60 44 102q21 21 55.5 37t65.5 25t102 28v51q0 19 -1.5 30.5t-6.5 28t-18.5 24.5t-34.5 8q-17 0 -29.5 -5t-21 -16.5t-11.5 -16.5t-8 -17
q-4 -13 -7.5 -19t-9.5 -14.5t-15.5 -12.5t-23.5 -4q-23 0 -38.5 14.5t-15.5 38.5q0 48 56 84.5t143 36.5q33 0 59.5 -6.5t43 -15t28 -24.5t17 -28.5t8.5 -34t3.5 -33t0.5 -33.5zM292 122v140q-30 -9 -45.5 -14.5t-38 -16.5t-33.5 -21.5t-19.5 -28t-8.5 -39.5q0 -38 22 -62
t61 -24q62 0 62 66zM197 615l-60 -41q-16 -9 -23 -9q-8 0 -13.5 6t-5.5 15q0 12 22 31q49 41 81 79q18 22 31 22t28 -15q40 -41 84 -77q28 -23 30 -28q1 -3 1 -8q0 -9 -6.5 -16t-14.5 -7q-9 0 -19 8l-68 42q-22 11 -33 11q-12 0 -34 -13z" />
    <glyph glyph-name="atilde" unicode="&#xe3;" horiz-adv-x="458" 
d="M410 356v-250q-1 -37 -9 -55.5t-35 -33.5q-54 -30 -147 -30q-14 0 -26 1t-38 4t-45.5 12.5t-40.5 24t-32.5 40.5t-11.5 59q0 60 44 102q21 21 55.5 37t65.5 25t102 28v51q0 19 -1.5 30.5t-6.5 28t-18.5 24.5t-34.5 8q-17 0 -29.5 -5t-21 -16.5t-11.5 -16.5t-8 -17
q-4 -13 -7.5 -19t-9.5 -14.5t-15.5 -12.5t-23.5 -4q-23 0 -38.5 14.5t-15.5 38.5q0 48 56 84.5t143 36.5q33 0 59.5 -6.5t43 -15t28 -24.5t17 -28.5t8.5 -34t3.5 -33t0.5 -33.5zM292 122v140q-30 -9 -45.5 -14.5t-38 -16.5t-33.5 -21.5t-19.5 -28t-8.5 -39.5q0 -38 22 -62
t61 -24q62 0 62 66zM238 604q-47 31 -65 31q-26 0 -46 -26q-13 -20 -24 -20q-21 0 -21 26q0 31 26 61.5t67 30.5q29 0 67 -26q37 -23 58 -23q26 0 42 21q2 3 4.5 6t4 5l3 4t2.5 3l2.5 2.5l2 2t1.5 1l2 1t2.5 0.5h2.5q18 0 18 -25q0 -30 -24.5 -62t-66.5 -32q-33 0 -58 19z
" />
    <glyph glyph-name="adieresis" unicode="&#xe4;" horiz-adv-x="458" 
d="M410 356v-250q-1 -37 -9 -55.5t-35 -33.5q-54 -30 -147 -30q-14 0 -26 1t-38 4t-45.5 12.5t-40.5 24t-32.5 40.5t-11.5 59q0 60 44 102q21 21 55.5 37t65.5 25t102 28v51q0 19 -1.5 30.5t-6.5 28t-18.5 24.5t-34.5 8q-17 0 -29.5 -5t-21 -16.5t-11.5 -16.5t-8 -17
q-4 -13 -7.5 -19t-9.5 -14.5t-15.5 -12.5t-23.5 -4q-23 0 -38.5 14.5t-15.5 38.5q0 48 56 84.5t143 36.5q33 0 59.5 -6.5t43 -15t28 -24.5t17 -28.5t8.5 -34t3.5 -33t0.5 -33.5zM292 122v140q-30 -9 -45.5 -14.5t-38 -16.5t-33.5 -21.5t-19.5 -28t-8.5 -39.5q0 -38 22 -62
t61 -24q62 0 62 66zM205 656q1 -26 -16.5 -45t-49.5 -19q-29 0 -47 17.5t-18 44.5q0 28 20 45t47 17q26 0 44.5 -17t19.5 -43zM393 656q1 -26 -16 -45t-49 -19q-30 0 -48 17.5t-18 43.5q0 28 20 45.5t47 17.5q26 0 44.5 -16.5t19.5 -43.5z" />
    <glyph glyph-name="aring" unicode="&#xe5;" horiz-adv-x="458" 
d="M410 356v-250q-1 -37 -9 -55.5t-35 -33.5q-54 -30 -147 -30q-14 0 -26 1t-38 4t-45.5 12.5t-40.5 24t-32.5 40.5t-11.5 59q0 60 44 102q21 21 55.5 37t65.5 25t102 28v51q0 19 -1.5 30.5t-6.5 28t-18.5 24.5t-34.5 8q-17 0 -29.5 -5t-21 -16.5t-11.5 -16.5t-8 -17
q-4 -13 -7.5 -19t-9.5 -14.5t-15.5 -12.5t-23.5 -4q-23 0 -38.5 14.5t-15.5 38.5q0 48 56 84.5t143 36.5q33 0 59.5 -6.5t43 -15t28 -24.5t17 -28.5t8.5 -34t3.5 -33t0.5 -33.5zM292 122v140q-30 -9 -45.5 -14.5t-38 -16.5t-33.5 -21.5t-19.5 -28t-8.5 -39.5q0 -38 22 -62
t61 -24q62 0 62 66zM317 651q0 -37 -23.5 -60.5t-59.5 -23.5q-35 0 -59.5 24t-24.5 60q0 35 24 59t60 24q34 0 58.5 -22.5t24.5 -60.5zM273 653q-1 17 -12 27t-27 10q-17 0 -28 -11.5t-11 -27.5q0 -17 11.5 -28t27.5 -11q15 0 27.5 11.5t11.5 29.5z" />
    <glyph glyph-name="ae" unicode="&#xe6;" horiz-adv-x="729" 
d="M661 295l-250 -36q6 -68 37 -114q35 -48 89 -48q63 0 102 59q16 25 22 31.5t16 6.5t18 -8t8 -24q0 -22 -10.5 -50t-31 -57t-57.5 -48.5t-82 -19.5q-60 0 -108 40q-23 20 -43 53q-9 -16 -16.5 -25.5t-27 -28.5t-52 -29t-75.5 -10q-82 0 -128.5 41.5t-46.5 100.5
q0 37 17.5 65.5t42.5 46t65.5 31t72.5 19.5t78 13q-4 79 -9 100q-13 59 -64 59q-22 0 -37 -10.5t-20 -20.5t-12 -29q-7 -17 -11.5 -25.5t-17 -18t-30.5 -9.5q-21 0 -36.5 14.5t-15.5 39.5q0 42 49 84.5t143 42.5q37 0 64.5 -8.5t42.5 -24.5t21 -25.5t13 -24.5q53 83 145 83
q52 0 90 -23.5t55.5 -58t25 -63t7.5 -50.5q0 -16 -6.5 -24.5t-14 -11t-22.5 -5.5zM409 319l180 26q-3 62 -27.5 86.5t-54.5 24.5q-40 0 -68.5 -35.5t-29.5 -101.5zM303 245q-25 -4 -41.5 -7t-40.5 -10.5t-38 -18t-25 -28.5t-11 -41q0 -34 20.5 -59t55.5 -25q82 0 82 132
q0 27 -2 57z" />
    <glyph glyph-name="ccedilla" unicode="&#xe7;" horiz-adv-x="458" 
d="M190 -88l9 79q-82 18 -124.5 92.5t-42.5 172.5q0 52 13 99.5t38.5 87.5t70.5 64t103 24q78 0 123.5 -43t45.5 -87q0 -26 -16 -41.5t-37 -15.5q-16 0 -28 9t-16.5 17t-11.5 23q-28 60 -76 60q-45 0 -74 -46t-29 -113q0 -81 37 -138t95 -57q60 0 101 67q8 12 11 16t8.5 8
t12.5 4q26 0 26 -35q0 -33 -17 -69.5t-60 -68.5t-101 -34l-12 -58q25 0 44 -7t27.5 -16.5t13.5 -21.5t6 -18t1 -11q0 -36 -30.5 -62t-81.5 -26q-29 0 -64.5 10t-35.5 30t19 20l19 -4q28 -6 50 -6t37 10t15 30q0 33 -49 33q-23 0 -20 22z" />
    <glyph glyph-name="egrave" unicode="&#xe8;" horiz-adv-x="479" 
d="M414 303l-277 -41q6 -49 21.5 -83.5t36.5 -51t40 -23.5t40 -7q69 0 119 66q13 18 19 23.5t15 5.5q10 0 18 -8.5t8 -22.5q0 -10 -5 -28.5t-19.5 -44.5t-35.5 -48t-57.5 -37.5t-80.5 -15.5q-101 0 -162.5 71.5t-61.5 201.5q0 71 19.5 125.5t52.5 85t71.5 45.5t80.5 15
q55 0 95.5 -22t60 -54.5t28.5 -61t9 -50.5q0 -16 -7 -25.5t-12.5 -11t-15.5 -3.5zM132 324l192 31q-3 46 -28 73.5t-59 27.5q-49 0 -75 -37.5t-30 -94.5zM182 708l79 -85q14 -16 14 -29t-7.5 -19.5t-16.5 -6.5q-11 0 -25 12l-90 68q-19 19 -19 39q0 17 9.5 28.5t23.5 11.5
q15 0 32 -19z" />
    <glyph glyph-name="eacute" unicode="&#xe9;" horiz-adv-x="479" 
d="M414 303l-277 -41q6 -49 21.5 -83.5t36.5 -51t40 -23.5t40 -7q69 0 119 66q13 18 19 23.5t15 5.5q10 0 18 -8.5t8 -22.5q0 -10 -5 -28.5t-19.5 -44.5t-35.5 -48t-57.5 -37.5t-80.5 -15.5q-101 0 -162.5 71.5t-61.5 201.5q0 71 19.5 125.5t52.5 85t71.5 45.5t80.5 15
q55 0 95.5 -22t60 -54.5t28.5 -61t9 -50.5q0 -16 -7 -25.5t-12.5 -11t-15.5 -3.5zM132 324l192 31q-3 46 -28 73.5t-59 27.5q-49 0 -75 -37.5t-30 -94.5zM362 648l-89 -68q-14 -12 -25 -12q-9 0 -16.5 6.5t-7.5 19.5q0 15 14 29l79 85q17 19 32 19q14 0 23.5 -11.5
t9.5 -28.5q0 -21 -20 -39z" />
    <glyph glyph-name="ecircumflex" unicode="&#xea;" horiz-adv-x="479" 
d="M414 303l-277 -41q6 -49 21.5 -83.5t36.5 -51t40 -23.5t40 -7q69 0 119 66q13 18 19 23.5t15 5.5q10 0 18 -8.5t8 -22.5q0 -10 -5 -28.5t-19.5 -44.5t-35.5 -48t-57.5 -37.5t-80.5 -15.5q-101 0 -162.5 71.5t-61.5 201.5q0 71 19.5 125.5t52.5 85t71.5 45.5t80.5 15
q55 0 95.5 -22t60 -54.5t28.5 -61t9 -50.5q0 -16 -7 -25.5t-12.5 -11t-15.5 -3.5zM132 324l192 31q-3 46 -28 73.5t-59 27.5q-49 0 -75 -37.5t-30 -94.5zM212 615l-60 -41q-16 -9 -23 -9q-8 0 -13.5 6t-5.5 15q0 12 22 31q49 41 81 79q18 22 31 22t28 -15q40 -41 84 -77
q28 -23 30 -28q1 -3 1 -8q0 -9 -6.5 -16t-14.5 -7q-9 0 -19 8l-68 42q-22 11 -33 11q-12 0 -34 -13z" />
    <glyph glyph-name="edieresis" unicode="&#xeb;" horiz-adv-x="479" 
d="M414 303l-277 -41q6 -49 21.5 -83.5t36.5 -51t40 -23.5t40 -7q69 0 119 66q13 18 19 23.5t15 5.5q10 0 18 -8.5t8 -22.5q0 -10 -5 -28.5t-19.5 -44.5t-35.5 -48t-57.5 -37.5t-80.5 -15.5q-101 0 -162.5 71.5t-61.5 201.5q0 71 19.5 125.5t52.5 85t71.5 45.5t80.5 15
q55 0 95.5 -22t60 -54.5t28.5 -61t9 -50.5q0 -16 -7 -25.5t-12.5 -11t-15.5 -3.5zM132 324l192 31q-3 46 -28 73.5t-59 27.5q-49 0 -75 -37.5t-30 -94.5zM220 656q1 -26 -16.5 -45t-49.5 -19q-29 0 -47 17.5t-18 44.5q0 28 20 45t47 17q26 0 44.5 -17t19.5 -43zM408 656
q1 -26 -16 -45t-49 -19q-30 0 -48 17.5t-18 43.5q0 28 20 45.5t47 17.5q26 0 44.5 -16.5t19.5 -43.5z" />
    <glyph glyph-name="igrave" unicode="&#xec;" horiz-adv-x="229" 
d="M179 496v-474q0 -12 -4 -17t-18 -5h-87q-11 0 -14 4t-3 17v476q0 12 3.5 16.5t15.5 4.5h85q14 0 17.5 -4.5t4.5 -17.5zM47 708l79 -85q14 -16 14 -29t-7.5 -19.5t-16.5 -6.5q-11 0 -25 12l-90 68q-19 19 -19 39q0 17 9.5 28.5t23.5 11.5q15 0 32 -19z" />
    <glyph glyph-name="iacute" unicode="&#xed;" horiz-adv-x="229" 
d="M179 496v-474q0 -12 -4 -17t-18 -5h-87q-11 0 -14 4t-3 17v476q0 12 3.5 16.5t15.5 4.5h85q14 0 17.5 -4.5t4.5 -17.5zM227 648l-89 -68q-14 -12 -25 -12q-9 0 -16.5 6.5t-7.5 19.5q0 15 14 29l79 85q17 19 32 19q14 0 23.5 -11.5t9.5 -28.5q0 -21 -20 -39z" />
    <glyph glyph-name="icircumflex" unicode="&#xee;" horiz-adv-x="229" 
d="M179 496v-474q0 -12 -4 -17t-18 -5h-87q-11 0 -14 4t-3 17v476q0 12 3.5 16.5t15.5 4.5h85q14 0 17.5 -4.5t4.5 -17.5zM77 615l-60 -41q-16 -9 -23 -9q-8 0 -13.5 6t-5.5 15q0 12 22 31q49 41 81 79q18 22 31 22t28 -15q40 -41 84 -77q28 -23 30 -28q1 -3 1 -8
q0 -9 -6.5 -16t-14.5 -7q-9 0 -19 8l-68 42q-22 11 -33 11q-12 0 -34 -13z" />
    <glyph glyph-name="idieresis" unicode="&#xef;" horiz-adv-x="229" 
d="M179 496v-474q0 -12 -4 -17t-18 -5h-87q-11 0 -14 4t-3 17v476q0 12 3.5 16.5t15.5 4.5h85q14 0 17.5 -4.5t4.5 -17.5zM85 656q1 -26 -16.5 -45t-49.5 -19q-29 0 -47 17.5t-18 44.5q0 28 20 45t47 17q26 0 44.5 -17t19.5 -43zM273 656q1 -26 -16 -45t-49 -19
q-30 0 -48 17.5t-18 43.5q0 28 20 45.5t47 17.5q26 0 44.5 -16.5t19.5 -43.5z" />
    <glyph glyph-name="eth" unicode="&#xf0;" 
d="M348 501l3 -3q0 8 -21 55q-17 36 -37 62l-114 -37q-8 -4 -15 -4t-17 19.5t-10 24.5t13 10l107 36q-20 25 -30 35q-31 29 -31 34q0 6 3.5 9t15.5 9l53 20q13 5 18 5q13 0 38 -22.5t47 -52.5l60 21q10 2 11 2q6 0 16.5 -21.5t10.5 -24.5q0 -5 -13 -9l-50 -16
q103 -158 103 -354q0 -56 -10.5 -106.5t-35.5 -99.5t-74.5 -78.5t-118.5 -29.5q-107 0 -172.5 76.5t-65.5 194.5q0 125 68 199t156 74q54 0 92 -28zM379 268q-2 77 -32.5 131.5t-81.5 54.5q-49 0 -77 -51.5t-28 -131.5q0 -84 32 -143.5t83 -59.5q52 0 79 59.5t25 140.5z" />
    <glyph glyph-name="ntilde" unicode="&#xf1;" horiz-adv-x="521" 
d="M467 373v-352q0 -13 -4.5 -17t-17.5 -4h-80q-14 0 -18 5t-4 18v338q0 21 -2 34t-9 31t-26 27.5t-49 9.5q-80 0 -80 -84v-355q0 -15 -5 -19.5t-19 -4.5h-79q-12 0 -16.5 4t-4.5 17v395q0 24 2 36t12.5 25t32.5 23q68 31 169 31q105 0 152 -39q21 -17 32 -40.5t12.5 -39
t1.5 -39.5zM263 604q-47 31 -65 31q-26 0 -46 -26q-13 -20 -24 -20q-21 0 -21 26q0 31 26 61.5t67 30.5q29 0 67 -26q37 -23 58 -23q26 0 42 21q2 3 4.5 6t4 5l3 4t2.5 3l2.5 2.5l2 2t1.5 1l2 1t2.5 0.5h2.5q18 0 18 -25q0 -30 -24.5 -62t-66.5 -32q-33 0 -58 19z" />
    <glyph glyph-name="ograve" unicode="&#xf2;" 
d="M509 265q2 -116 -62.5 -197t-176.5 -81q-108 0 -173 77t-65 195q0 119 66 195.5t174 76.5q77 0 132.5 -42.5t79 -100.5t25.5 -123zM379 271q-4 87 -35.5 136.5t-77.5 49.5q-49 0 -77 -52t-28 -131q0 -85 32.5 -144.5t81.5 -59.5q48 0 78 57.5t26 143.5zM204 708l79 -85
q14 -16 14 -29t-7.5 -19.5t-16.5 -6.5q-11 0 -25 12l-90 68q-19 19 -19 39q0 17 9.5 28.5t23.5 11.5q15 0 32 -19z" />
    <glyph glyph-name="oacute" unicode="&#xf3;" 
d="M509 265q2 -116 -62.5 -197t-176.5 -81q-108 0 -173 77t-65 195q0 119 66 195.5t174 76.5q77 0 132.5 -42.5t79 -100.5t25.5 -123zM379 271q-4 87 -35.5 136.5t-77.5 49.5q-49 0 -77 -52t-28 -131q0 -85 32.5 -144.5t81.5 -59.5q48 0 78 57.5t26 143.5zM384 648l-89 -68
q-14 -12 -25 -12q-9 0 -16.5 6.5t-7.5 19.5q0 15 14 29l79 85q17 19 32 19q14 0 23.5 -11.5t9.5 -28.5q0 -21 -20 -39z" />
    <glyph glyph-name="ocircumflex" unicode="&#xf4;" 
d="M509 265q2 -116 -62.5 -197t-176.5 -81q-108 0 -173 77t-65 195q0 119 66 195.5t174 76.5q77 0 132.5 -42.5t79 -100.5t25.5 -123zM379 271q-4 87 -35.5 136.5t-77.5 49.5q-49 0 -77 -52t-28 -131q0 -85 32.5 -144.5t81.5 -59.5q48 0 78 57.5t26 143.5zM234 615l-60 -41
q-16 -9 -23 -9q-8 0 -13.5 6t-5.5 15q0 12 22 31q49 41 81 79q18 22 31 22t28 -15q40 -41 84 -77q28 -23 30 -28q1 -3 1 -8q0 -9 -6.5 -16t-14.5 -7q-9 0 -19 8l-68 42q-22 11 -33 11q-12 0 -34 -13z" />
    <glyph glyph-name="otilde" unicode="&#xf5;" 
d="M509 265q2 -116 -62.5 -197t-176.5 -81q-108 0 -173 77t-65 195q0 119 66 195.5t174 76.5q77 0 132.5 -42.5t79 -100.5t25.5 -123zM379 271q-4 87 -35.5 136.5t-77.5 49.5q-49 0 -77 -52t-28 -131q0 -85 32.5 -144.5t81.5 -59.5q48 0 78 57.5t26 143.5zM275 604
q-47 31 -65 31q-26 0 -46 -26q-13 -20 -24 -20q-21 0 -21 26q0 31 26 61.5t67 30.5q29 0 67 -26q37 -23 58 -23q26 0 42 21q2 3 4.5 6t4 5l3 4t2.5 3l2.5 2.5l2 2t1.5 1l2 1t2.5 0.5h2.5q18 0 18 -25q0 -30 -24.5 -62t-66.5 -32q-33 0 -58 19z" />
    <glyph glyph-name="odieresis" unicode="&#xf6;" 
d="M509 265q2 -116 -62.5 -197t-176.5 -81q-108 0 -173 77t-65 195q0 119 66 195.5t174 76.5q77 0 132.5 -42.5t79 -100.5t25.5 -123zM379 271q-4 87 -35.5 136.5t-77.5 49.5q-49 0 -77 -52t-28 -131q0 -85 32.5 -144.5t81.5 -59.5q48 0 78 57.5t26 143.5zM241 656
q1 -26 -16.5 -45t-49.5 -19q-29 0 -47 17.5t-18 44.5q0 28 20 45t47 17q26 0 44.5 -17t19.5 -43zM429 656q1 -26 -16 -45t-49 -19q-30 0 -48 17.5t-18 43.5q0 28 20 45.5t47 17.5q26 0 44.5 -16.5t19.5 -43.5z" />
    <glyph glyph-name="divide" unicode="&#xf7;" horiz-adv-x="500" 
d="M308 145q-1 -25 -17.5 -40t-40.5 -15q-22 0 -38.5 15.5t-16.5 39.5q0 25 16.5 41t39.5 16q24 0 40.5 -16t16.5 -41zM308 435q0 -20 -14.5 -38t-41.5 -18q-25 0 -41 16t-16 39q0 25 16.5 41t40.5 16q25 0 40.5 -17t15.5 -39zM500 330v-79h-500v79h500z" />
    <glyph glyph-name="oslash" unicode="&#xf8;" 
d="M505 538l-61 -83q65 -81 65 -199q0 -115 -67 -192t-173 -77q-83 0 -143 50l-57 -80q-8 -8 -11 -8q-5 0 -17.5 9.5t-12.5 14.5q0 6 7 14l59 80q-62 80 -62 191q0 115 65.5 194t177.5 79q81 0 138 -45l59 80q6 8 11 8t16.5 -9.5t11.5 -15.5q0 -5 -6 -11zM372 356l-186 -238
q32 -56 87 -56q53 0 85.5 52.5t32.5 129.5q0 36 -19 112zM170 171l186 238q-34 56 -85 56q-50 0 -84.5 -49t-34.5 -134q0 -50 18 -111z" />
    <glyph glyph-name="ugrave" unicode="&#xf9;" horiz-adv-x="521" 
d="M469 497v-373q0 -39 -6.5 -59.5t-32.5 -38.5q-64 -39 -173 -39q-68 0 -112.5 15.5t-63 43.5t-24 50.5t-5.5 53.5v349q0 19 21 19h82q12 1 17 -3.5t5 -16.5v-335q0 -18 2 -29.5t9 -28.5t26.5 -26t49.5 -9q28 0 46 7t25 21.5t8.5 25t1.5 27.5v346q0 12 4.5 16.5t16.5 4.5
h79q13 0 18.5 -4t5.5 -17zM192 708l79 -85q14 -16 14 -29t-7.5 -19.5t-16.5 -6.5q-11 0 -25 12l-90 68q-19 19 -19 39q0 17 9.5 28.5t23.5 11.5q15 0 32 -19z" />
    <glyph glyph-name="uacute" unicode="&#xfa;" horiz-adv-x="521" 
d="M469 497v-373q0 -39 -6.5 -59.5t-32.5 -38.5q-64 -39 -173 -39q-68 0 -112.5 15.5t-63 43.5t-24 50.5t-5.5 53.5v349q0 19 21 19h82q12 1 17 -3.5t5 -16.5v-335q0 -18 2 -29.5t9 -28.5t26.5 -26t49.5 -9q28 0 46 7t25 21.5t8.5 25t1.5 27.5v346q0 12 4.5 16.5t16.5 4.5
h79q13 0 18.5 -4t5.5 -17zM372 648l-89 -68q-14 -12 -25 -12q-9 0 -16.5 6.5t-7.5 19.5q0 15 14 29l79 85q17 19 32 19q14 0 23.5 -11.5t9.5 -28.5q0 -21 -20 -39z" />
    <glyph glyph-name="ucircumflex" unicode="&#xfb;" horiz-adv-x="521" 
d="M469 497v-373q0 -39 -6.5 -59.5t-32.5 -38.5q-64 -39 -173 -39q-68 0 -112.5 15.5t-63 43.5t-24 50.5t-5.5 53.5v349q0 19 21 19h82q12 1 17 -3.5t5 -16.5v-335q0 -18 2 -29.5t9 -28.5t26.5 -26t49.5 -9q28 0 46 7t25 21.5t8.5 25t1.5 27.5v346q0 12 4.5 16.5t16.5 4.5
h79q13 0 18.5 -4t5.5 -17zM222 615l-60 -41q-16 -9 -23 -9q-8 0 -13.5 6t-5.5 15q0 12 22 31q49 41 81 79q18 22 31 22t28 -15q40 -41 84 -77q28 -23 30 -28q1 -3 1 -8q0 -9 -6.5 -16t-14.5 -7q-9 0 -19 8l-68 42q-22 11 -33 11q-12 0 -34 -13z" />
    <glyph glyph-name="udieresis" unicode="&#xfc;" horiz-adv-x="521" 
d="M469 497v-373q0 -39 -6.5 -59.5t-32.5 -38.5q-64 -39 -173 -39q-68 0 -112.5 15.5t-63 43.5t-24 50.5t-5.5 53.5v349q0 19 21 19h82q12 1 17 -3.5t5 -16.5v-335q0 -18 2 -29.5t9 -28.5t26.5 -26t49.5 -9q28 0 46 7t25 21.5t8.5 25t1.5 27.5v346q0 12 4.5 16.5t16.5 4.5
h79q13 0 18.5 -4t5.5 -17zM227 656q1 -26 -16.5 -45t-49.5 -19q-29 0 -47 17.5t-18 44.5q0 28 20 45t47 17q26 0 44.5 -17t19.5 -43zM415 656q1 -26 -16 -45t-49 -19q-30 0 -48 17.5t-18 43.5q0 28 20 45.5t47 17.5q26 0 44.5 -16.5t19.5 -43.5z" />
    <glyph glyph-name="yacute" unicode="&#xfd;" horiz-adv-x="479" 
d="M474 485l-200 -554q-10 -26 -17 -42.5t-23.5 -44t-35 -44t-47.5 -29.5t-64 -13q-44 0 -66 18t-22 44q0 23 15.5 38.5t38.5 15.5q7 0 29.5 -5.5t30.5 -5.5q29 0 48.5 26.5t41.5 93.5l-193 503q-5 14 -5 18q0 14 19 14h92q10 0 14 -2t6 -5t6 -15l118 -346l111 346
q5 14 9.5 18t18.5 4h60q20 0 20 -14q0 -5 -5 -19zM351 648l-89 -68q-14 -12 -25 -12q-9 0 -16.5 6.5t-7.5 19.5q0 15 14 29l79 85q17 19 32 19q14 0 23.5 -11.5t9.5 -28.5q0 -21 -20 -39z" />
    <glyph glyph-name="thorn" unicode="&#xfe;" horiz-adv-x="521" 
d="M157 -235h-78q-14 0 -19.5 4t-5.5 17v958q0 13 4 17t16 5h79q14 0 19 -4t5 -18v-235q46 24 103 24q99 0 154 -71.5t55 -179.5q0 -115 -58.5 -204.5t-162.5 -89.5q-51 0 -91 26v-228q0 -12 -4.5 -16.5t-15.5 -4.5zM177 388v-297q38 -23 71 -23q54 0 84 55t30 140
q0 33 -5.5 65t-18 63t-36.5 50t-57 19q-24 0 -39 -6.5t-20.5 -19.5t-7 -22t-1.5 -24z" />
    <glyph glyph-name="ydieresis" unicode="&#xff;" horiz-adv-x="479" 
d="M474 485l-200 -554q-10 -26 -17 -42.5t-23.5 -44t-35 -44t-47.5 -29.5t-64 -13q-44 0 -66 18t-22 44q0 23 15.5 38.5t38.5 15.5q7 0 29.5 -5.5t30.5 -5.5q29 0 48.5 26.5t41.5 93.5l-193 503q-5 14 -5 18q0 14 19 14h92q10 0 14 -2t6 -5t6 -15l118 -346l111 346
q5 14 9.5 18t18.5 4h60q20 0 20 -14q0 -5 -5 -19zM220 656q1 -26 -16.5 -45t-49.5 -19q-29 0 -47 17.5t-18 44.5q0 28 20 45t47 17q26 0 44.5 -17t19.5 -43zM408 656q1 -26 -16 -45t-49 -19q-30 0 -48 17.5t-18 43.5q0 28 20 45.5t47 17.5q26 0 44.5 -16.5t19.5 -43.5z" />
    <glyph glyph-name="dotlessi" unicode="&#x131;" horiz-adv-x="229" 
d="M179 496v-474q0 -12 -4 -17t-18 -5h-87q-11 0 -14 4t-3 17v476q0 12 3.5 16.5t15.5 4.5h85q14 0 17.5 -4.5t4.5 -17.5z" />
    <glyph glyph-name="Lslash" unicode="&#x141;" horiz-adv-x="458" 
d="M317 442l-124 -79v-271h229q13 0 16.5 -4t3.5 -16v-52q-1 -13 -5 -16.5t-17 -3.5h-342q-11 0 -15.5 3.5t-4.5 16.5v256l-38 -24q-6 -4 -10 -4q-10 0 -10 16v49q0 15 15 25l43 28v320q0 12 4.5 16t16.5 4h93q12 0 16.5 -4t4.5 -16v-233l115 75q12 6 14 6q9 0 9 -16v-54
q0 -13 -14 -22z" />
    <glyph glyph-name="lslash" unicode="&#x142;" horiz-adv-x="229" 
d="M216 476l-40 -36v-419q0 -13 -4.5 -17t-17.5 -4h-79q-14 0 -18.5 3.5t-4.5 17.5v307l-27 -24q-6 -6 -12 -6q-13 0 -13 20v41q1 10 14 23l38 34v330q0 9 3 13t7 5t13 1h79q14 0 18 -3t4 -16v-218q31 28 34 29q19 11 19 -16q0 -37 -2 -46.5t-11 -18.5z" />
    <glyph glyph-name="OE" unicode="&#x152;" horiz-adv-x="917" 
d="M871 0h-356q-19 0 -21 10q-1 3 -1 42q-65 -68 -168 -68q-130 0 -209.5 102t-79.5 266q0 177 82.5 274t212.5 97q97 0 162 -68q0 44 5 48q4 3 16 3h357q13 0 16.5 -4t3.5 -15v-49q0 -9 -0.5 -12.5t-5 -6.5t-13.5 -3h-250v-204h213q13 0 17 -3t5 -15v-50q0 -13 -4 -16.5
t-18 -3.5h-213v-232h249q9 0 13.5 -2.5t5.5 -6t1 -12.5v-52q0 -19 -20 -19zM493 259v181q0 56 -14.5 97.5t-33 60.5t-43 30t-35 12.5t-19.5 1.5q-71 0 -122 -72t-51 -204q0 -56 10 -109q16 -80 58 -131.5t109 -51.5q64 0 109 61q32 47 32 124z" />
    <glyph glyph-name="oe" unicode="&#x153;" horiz-adv-x="792" 
d="M729 298l-263 -37q12 -81 38 -117q35 -47 91 -47q64 0 111 68l11 16.5t9 8.5t14 4q25 0 25 -35q0 -15 -5.5 -35t-19 -44.5t-33.5 -45t-52 -34t-70 -13.5q-65 0 -114 39q-30 25 -51 65q-10 -19 -19 -31.5t-28 -32t-49 -30t-68 -10.5q-103 0 -163.5 74.5t-60.5 199.5
q0 116 59 193.5t165 77.5q38 0 67.5 -10t49 -29.5t28.5 -32t20 -32.5q49 103 160 103q50 0 88.5 -20.5t58 -52t29 -62t9.5 -57.5q0 -16 -6 -25t-12.5 -11.5t-18.5 -4.5zM464 321l187 27q-3 37 -14.5 61.5t-27.5 33.5t-25.5 11.5t-19.5 2.5q-45 0 -74 -43q-20 -30 -26 -93z
M357 278q-6 82 -35 135q-27 47 -70 47q-28 0 -48.5 -19.5t-30.5 -50t-15 -61t-5 -59.5q0 -82 29.5 -141.5t80.5 -59.5q52 0 73.5 51t21.5 125q0 22 -1 33z" />
    <glyph glyph-name="Scaron" unicode="&#x160;" 
d="M292 430l47 -23q27 -14 42 -22.5t41.5 -29.5t40.5 -41t26 -53t12 -71q0 -95 -65 -150.5t-166 -55.5q-109 0 -169 54.5t-60 109.5q0 30 18.5 45.5t40.5 15.5q19 0 33.5 -10.5t20.5 -19.5t17 -28q39 -81 108 -81q41 0 67.5 26t26.5 68q0 26 -8 45t-29.5 36.5t-38.5 28
t-56 30.5l-55 28q-23 13 -38.5 23.5t-42 35t-41 59.5t-14.5 77q0 89 59.5 142t154.5 53q92 0 151.5 -42.5t59.5 -90.5q0 -25 -16.5 -41.5t-40.5 -16.5q-16 0 -28.5 7.5t-18 14.5t-14.5 22q-12 19 -21 30.5t-30 24.5t-46 13q-38 0 -62.5 -25.5t-24.5 -63.5q0 -23 8 -41.5
t27 -33.5t35.5 -24t48.5 -25zM300 865l75 47q11 9 20 9q7 0 13 -7t6 -16q0 -10 -4 -15.5t-19 -19.5q-59 -53 -84 -81q-22 -25 -37 -25t-34 22q-34 37 -84 75q-29 23 -29 39q0 11 6 18.5t13 7.5t19 -8l76 -47q17 -13 31 -13q11 0 32 14z" />
    <glyph glyph-name="scaron" unicode="&#x161;" horiz-adv-x="437" 
d="M233 321l50 -23q24 -11 39 -20.5t36 -28t32 -45t11 -60.5q0 -24 -7.5 -48.5t-26 -50.5t-56 -42t-90.5 -16q-92 0 -139 40.5t-47 80.5q0 23 14.5 38.5t36.5 15.5q13 0 24.5 -6.5t16.5 -13l15 -19.5q16 -22 24 -32t23.5 -19t34.5 -9q27 0 45 17.5t18 44.5q0 33 -32 62
q-13 9 -100 51q-110 51 -110 146q0 60 43 103.5t131 43.5q82 0 124 -35t42 -72q0 -21 -13.5 -35t-34.5 -14t-32.5 10.5t-22.5 30.5q-26 49 -68 49q-28 0 -44 -19t-16 -41q0 -23 14 -41t27.5 -25.5t37.5 -17.5zM250 668l61 41q16 9 23 9q8 0 13.5 -6t5.5 -15q0 -12 -22 -31
q-50 -42 -81 -79q-18 -22 -32 -22q-12 0 -27 15q-45 46 -84 77q-22 17 -26.5 22t-4.5 14t6.5 16t14.5 7q9 0 19 -8l68 -42q20 -11 33 -11q16 0 33 13z" />
    <glyph glyph-name="Ydieresis" unicode="&#x178;" 
d="M533 675l-195 -361v-295q0 -13 -5 -16t-17 -3h-97q-12 0 -16 4t-4 15v300l-191 356q-8 13 -8 18q0 13 18 13h107q13 0 17.5 -3t9.5 -14l135 -258l138 256q7 12 11.5 15.5t16.5 3.5h69q19 0 19 -12q0 -6 -8 -19zM250 834q1 -25 -16.5 -46t-52.5 -21q-29 0 -49.5 16.5
t-20.5 46.5t20.5 47.5t50.5 17.5q28 0 47.5 -16t20.5 -45zM447 834q1 -25 -16.5 -46t-52.5 -21q-29 0 -49.5 17t-20.5 46q0 30 20.5 47.5t50.5 17.5q27 0 47 -16t21 -45z" />
    <glyph glyph-name="Zcaron" unicode="&#x17d;" horiz-adv-x="500" 
d="M474 675l-278 -584h257q7 0 9.5 -0.5t6 -1.5t4.5 -4.5t1 -9.5v-59q0 -8 -3 -11.5t-6.5 -4t-11.5 -0.5h-408q-26 0 -26 12q0 3 7 18l279 587h-241q-12 0 -15.5 4t-3.5 16v50q0 11 4 15t16 4h394q19 0 19 -14q0 -5 -4 -17zM289 865l75 47q11 9 20 9q7 0 13 -7t6 -16
q0 -10 -4 -15.5t-19 -19.5q-59 -53 -84 -81q-22 -25 -37 -25t-34 22q-34 37 -84 75q-29 23 -29 39q0 11 6 18.5t13 7.5t19 -8l76 -47q17 -13 31 -13q11 0 32 14z" />
    <glyph glyph-name="zcaron" unicode="&#x17e;" horiz-adv-x="417" 
d="M382 486l-200 -415h186q20 0 20 -16q0 -43 -1 -46q-2 -9 -19 -9h-325q-18 0 -18 12q0 4 7 20l203 415h-173q-11 0 -15 3t-4 13q0 41 1 43q1 12 18 12h304q22 0 22 -14q0 -6 -6 -18zM250 668l61 41q16 9 23 9q8 0 13.5 -6t5.5 -15q0 -12 -22 -31q-50 -42 -81 -79
q-18 -22 -32 -22q-12 0 -27 15q-45 46 -84 77q-22 17 -26.5 22t-4.5 14t6.5 16t14.5 7q9 0 19 -8l68 -42q20 -11 33 -11q16 0 33 13z" />
    <glyph glyph-name="florin" unicode="&#x192;" horiz-adv-x="313" 
d="M289 405h-75l-28 -260q-17 -145 -63 -223q-33 -55 -80 -86t-90 -31q-29 0 -49.5 14t-20.5 40q0 21 15 34.5t36 13.5q12 0 22 -6q24 -11 34 -11q16 0 27 9t14 16.5t6 18.5q5 16 21 151l33 320h-55q-7 0 -10 0.5t-5.5 3t-2.5 8.5q0 21 3.5 31t8 11.5t13.5 1.5h53
q18 109 53 165q23 36 61 63.5t86 27.5q24 0 39.5 -11.5t15.5 -33.5q0 -24 -15.5 -37.5t-34.5 -13.5q-5 0 -18 2t-18 2q-26 0 -43.5 -22t-17.5 -69q0 -48 14 -73h77q18 0 18 -12q0 -15 -4 -35q-3 -9 -20 -9z" />
    <glyph glyph-name="circumflex" unicode="&#x2c6;" horiz-adv-x="271" 
d="M99 615l-60 -41q-16 -9 -23 -9q-8 0 -13.5 6t-5.5 15q0 12 22 31q49 41 81 79q18 22 31 22t28 -15q40 -41 84 -77q28 -23 30 -28q1 -3 1 -8q0 -9 -6.5 -16t-14.5 -7q-9 0 -19 8l-68 42q-22 11 -33 11q-12 0 -34 -13z" />
    <glyph glyph-name="caron" unicode="&#x2c7;" horiz-adv-x="271" 
d="M171 668l61 41q16 9 23 9q8 0 13.5 -6t5.5 -15q0 -12 -22 -31q-50 -42 -81 -79q-18 -22 -32 -22q-12 0 -27 15q-45 46 -84 77q-22 17 -26.5 22t-4.5 14t6.5 16t14.5 7q9 0 19 -8l68 -42q20 -11 33 -11q16 0 33 13z" />
    <glyph glyph-name="breve" unicode="&#x2d8;" horiz-adv-x="271" 
d="M58 701q6 -16 9.5 -23.5t12.5 -18.5t23 -16t35 -5q54 0 72 50q3 11 4.5 15.5t4.5 9.5t6 6t9 1q23 0 23 -31q0 -49 -33 -85t-87 -36q-56 0 -90 36.5t-34 86.5q0 29 24 29q13 0 21 -19z" />
    <glyph glyph-name="dotaccent" unicode="&#x2d9;" horiz-adv-x="271" 
d="M201 656q1 -26 -16.5 -45t-49.5 -19q-30 0 -47.5 18t-17.5 44q0 28 19.5 45t46.5 17t45.5 -16.5t19.5 -43.5z" />
    <glyph glyph-name="ring" unicode="&#x2da;" horiz-adv-x="271" 
d="M219 651q0 -37 -23.5 -60.5t-59.5 -23.5q-35 0 -59.5 24t-24.5 60q0 35 24 59t60 24q34 0 58.5 -22.5t24.5 -60.5zM175 653q-1 17 -12 27t-27 10q-17 0 -28 -11.5t-11 -27.5q0 -17 11.5 -28t27.5 -11q15 0 27.5 11.5t11.5 29.5z" />
    <glyph glyph-name="ogonek" unicode="&#x2db;" horiz-adv-x="271" 
d="M164 19l58 10q-16 -14 -23 -22q-45 -42 -63.5 -67.5t-18.5 -47.5q0 -18 10.5 -32.5t34.5 -14.5q3 0 23 4t24 4q8 0 14 -5.5t6 -13.5q0 -18 -29 -30.5t-63 -12.5q-45 0 -70 25.5t-25 59.5q0 25 9.5 45.5t31 39.5t36.5 29.5t45 28.5z" />
    <glyph glyph-name="tilde" unicode="&#x2dc;" horiz-adv-x="271" 
d="M139 604q-47 31 -65 31q-26 0 -46 -26q-13 -20 -24 -20q-21 0 -21 26q0 31 26 61.5t67 30.5q29 0 67 -26q37 -23 58 -23q26 0 42 21q2 3 4.5 6t4 5l3 4t2.5 3l2.5 2.5l2 2t1.5 1l2 1t2.5 0.5h2.5q18 0 18 -25q0 -30 -24.5 -62t-66.5 -32q-33 0 -58 19z" />
    <glyph glyph-name="hungarumlaut" unicode="&#x2dd;" horiz-adv-x="271" 
d="M239 662l-67 -83q-12 -12 -22 -12q-9 0 -15 5.5t-6 13.5q0 7 8 22l50 89q17 29 36 29q13 0 22 -9t9 -22q0 -14 -15 -33zM125 662l-67 -83q-10 -12 -22 -12q-9 0 -14.5 5.5t-5.5 13.5q0 7 8 22l49 89q17 29 36 29q13 0 22 -9t9 -22q0 -14 -15 -33z" />
    <glyph glyph-name="endash" unicode="&#x2013;" horiz-adv-x="562" 
d="M69 324h402q19 0 22 -11q1 -3 1 -45q0 -12 -5 -15t-18 -3h-400q-19 0 -22 11q-1 4 -1 44q1 11 5 15t16 4z" />
    <glyph glyph-name="emdash" unicode="&#x2014;" horiz-adv-x="708" 
d="M78 324h553q10 0 14.5 -3t4.5 -14q0 -28 -2.5 -34t-17.5 -6h-552q-15 0 -17.5 6t-2.5 35q0 16 20 16z" />
    <glyph glyph-name="quoteleft" unicode="&#x2018;" horiz-adv-x="250" 
d="M181 697q-37 -45 -37 -71q0 -17 16 -38q28 -33 28 -55q0 -24 -17 -39.5t-42 -15.5q-30 0 -52 23.5t-22 67.5q0 63 42.5 118t70.5 55q10 0 16.5 -7t6.5 -16t-10 -22z" />
    <glyph glyph-name="quoteright" unicode="&#x2019;" horiz-adv-x="250" 
d="M69 522q37 45 37 71q0 18 -16 38q-28 33 -28 55q0 24 17 40t42 16q31 0 52.5 -23.5t21.5 -67.5q0 -64 -42.5 -118.5t-71.5 -54.5q-10 0 -16 6.5t-6 15.5q0 11 10 22z" />
    <glyph glyph-name="quotesinglbase" unicode="&#x201a;" horiz-adv-x="250" 
d="M69 -76q37 45 37 71q0 18 -16 38q-28 33 -28 55q0 23 17 39t42 16q31 0 52.5 -23t21.5 -68q0 -63 -43 -118t-71 -55q-9 0 -15.5 7t-6.5 16q0 11 10 22z" />
    <glyph glyph-name="quotedblleft" unicode="&#x201c;" horiz-adv-x="417" 
d="M348 697q-37 -47 -37 -71q0 -17 16 -38q28 -31 28 -55t-17 -39.5t-42 -15.5q-30 0 -51.5 23t-21.5 68q0 64 42.5 118.5t70.5 54.5q10 0 16.5 -7t6.5 -16q0 -8 -11 -22zM180 697q-37 -46 -37 -71q0 -17 16 -38q29 -32 29 -55t-17 -39t-42 -16q-31 0 -52.5 23t-21.5 68
q0 64 42.5 118.5t70.5 54.5q10 0 16.5 -7t6.5 -16q0 -10 -11 -22z" />
    <glyph glyph-name="quotedblright" unicode="&#x201d;" horiz-adv-x="417" 
d="M69 522q36 47 36 71q0 19 -15 38q-12 14 -16.5 19.5t-8.5 15.5t-4 20q0 24 17.5 40t41.5 16q30 0 52 -23.5t22 -68.5q0 -64 -42.5 -118t-70.5 -54q-10 0 -16.5 6.5t-6.5 15.5q0 8 11 22zM237 522q36 47 36 71q0 15 -15 38q-12 14 -16.5 19.5t-8.5 15.5t-4 20
q0 24 17.5 40t41.5 16q30 0 52 -23t22 -68q0 -64 -42.5 -118.5t-70.5 -54.5q-10 0 -16.5 6.5t-6.5 15.5q0 10 11 22z" />
    <glyph glyph-name="quotedblbase" unicode="&#x201e;" horiz-adv-x="417" 
d="M69 -76q36 47 36 71q0 17 -15 38q-12 14 -16.5 19.5t-8.5 15.5t-4 20q0 24 17.5 39.5t41.5 15.5q30 0 52 -23t22 -68q0 -64 -42.5 -118.5t-70.5 -54.5q-10 0 -16.5 7t-6.5 16q0 8 11 22zM237 -76q36 47 36 71q0 19 -15 38q-29 32 -29 55q0 24 17.5 39.5t41.5 15.5
q30 0 52 -22.5t22 -68.5q0 -64 -42.5 -118.5t-70.5 -54.5q-10 0 -16.5 7t-6.5 16q0 10 11 22z" />
    <glyph glyph-name="dagger" unicode="&#x2020;" horiz-adv-x="479" 
d="M432 401l-148 12l22 -389q1 -14 -3 -18.5t-17 -4.5h-90q-14 0 -18 4.5t-4 18.5l22 389l-149 -12q-15 -1 -19.5 3.5t-4.5 18.5v64q1 13 5 17t17 3l151 -12l-22 190q-1 13 4 17t18 4h86q13 0 17.5 -3.5t3.5 -17.5l-19 -190l150 12q13 1 17.5 -2.5t4.5 -17.5v-65
q0 -13 -5 -17.5t-19 -3.5z" />
    <glyph glyph-name="daggerdbl" unicode="&#x2021;" horiz-adv-x="500" 
d="M447 180l-154 13l18 -172q2 -12 -2 -16.5t-16 -4.5h-85q-12 0 -16 4t-3 17l19 172l-154 -13q-14 -1 -18 3.5t-4 16.5v63q0 20 21 17l155 -12v206l-154 -12q-14 -1 -18 3t-4 16v64q0 20 21 17l155 -13l-20 138q-1 9 1.5 13t6.5 5t11 1h87q13 0 16 -4.5t1 -15.5l-18 -137
l154 13q13 1 17 -2.5t4 -15.5v-64q0 -11 -4 -15t-16 -3l-155 12v-206l155 12q12 1 16 -2.5t4 -15.5v-64q0 -11 -4.5 -15t-16.5 -3z" />
    <glyph glyph-name="bullet" unicode="&#x2022;" horiz-adv-x="333" 
d="M297 353q0 -57 -36.5 -93.5t-92.5 -36.5q-55 0 -93 37.5t-38 92.5q0 53 38 91.5t93 38.5q53 0 90.5 -36t38.5 -94z" />
    <glyph glyph-name="ellipsis" unicode="&#x2026;" horiz-adv-x="1000" 
d="M240 66q-1 -30 -21.5 -51t-51.5 -21t-52.5 21.5t-21.5 53.5q0 34 23 54t50 20q31 0 53 -22.5t21 -54.5zM573 66q-1 -30 -22 -51t-51 -21q-31 0 -52.5 21.5t-21.5 53.5q0 34 23 54t50 20q31 0 53 -22.5t21 -54.5zM906 66q-1 -30 -21.5 -51t-51.5 -21t-52.5 21.5
t-21.5 53.5q0 34 23 54t50 20q31 0 53 -22.5t21 -54.5z" />
    <glyph glyph-name="perthousand" unicode="&#x2030;" horiz-adv-x="1125" 
d="M304 487q0 -104 -36 -168t-101 -64q-63 0 -100.5 61t-37.5 170q0 110 38.5 170.5t100.5 60.5q64 0 100 -63.5t36 -166.5zM224 493q0 175 -58 175q-57 0 -57 -171q0 -187 58 -187q57 0 57 183zM763 222q0 -104 -36.5 -168t-101.5 -64q-62 0 -100 60t-38 171t38.5 171
t100.5 60q65 0 101 -63t36 -167zM683 228q0 175 -59 175q-57 0 -57 -171q0 -187 58 -187t58 183zM598 677l-347 -658q-7 -13 -11 -16t-15 -3q-27 0 -33 1t-6 8q0 4 7 20l348 658q7 12 11.5 15.5t15.5 3.5q38 0 38 -10q0 -4 -8 -19zM1096 222q0 -104 -36 -168t-101 -64
q-62 0 -100 60t-38 171t38.5 171t100.5 60q64 0 100 -63.5t36 -166.5zM1016 228q0 175 -58 175q-57 0 -57 -171q0 -187 58 -187q57 0 57 183z" />
    <glyph glyph-name="guilsinglleft" unicode="&#x2039;" horiz-adv-x="271" 
d="M161 250l53 -96q6 -12 6 -20q0 -9 -6 -15.5t-16 -6.5q-12 0 -26 19q-61 84 -113 129q-22 17 -22 31q0 12 17 27q49 41 103 110q20 27 26 32.5t15 5.5q8 0 14.5 -6.5t6.5 -15.5q0 -10 -7 -20l-52 -95q-13 -24 -13 -38q0 -13 14 -41z" />
    <glyph glyph-name="guilsinglright" unicode="&#x203a;" horiz-adv-x="271" 
d="M110 329l-53 95q-6 12 -6 20q0 9 6 15.5t15 6.5q13 0 27 -19q61 -84 113 -129q22 -17 22 -31q0 -12 -17 -27q-54 -45 -103 -110q-20 -27 -26 -32.5t-15 -5.5t-15.5 6.5t-6.5 15.5q0 6 7 20l53 96q13 22 13 37q0 14 -14 42z" />
    <glyph glyph-name="fraction" unicode="&#x2044;" horiz-adv-x="125" 
d="M265 677l-347 -658q-7 -13 -11.5 -16t-15.5 -3q-27 0 -32.5 1t-5.5 8t7 20l348 658q6 12 11 15.5t16 3.5q38 0 38 -10q0 -4 -8 -19z" />
    <glyph glyph-name="fraction" unicode="&#x2215;" horiz-adv-x="125" 
d="M265 677l-347 -658q-7 -13 -11.5 -16t-15.5 -3q-27 0 -32.5 1t-5.5 8t7 20l348 658q6 12 11 15.5t16 3.5q38 0 38 -10q0 -4 -8 -19z" />
    <glyph glyph-name="Euro" unicode="&#x20ac;" 
d="M114 252q17 -126 77 -197t156 -71q75 0 128 43.5t53 89.5q0 58 -53 58q-35 0 -50 -30q-4 -7 -12 -28.5t-13.5 -30.5t-20.5 -18t-37 -9q-45 0 -71.5 45t-34.5 148h155q12 0 15.5 3.5t7.5 15.5l8 22q4 13 -1.5 17t-20.5 4h-167v39v39h206q12 0 15.5 3t7.5 16l8 22
q4 13 -1.5 17t-20.5 4h-212q8 104 34.5 149t71.5 45q22 0 37 -9t20.5 -18t13.5 -30.5t12 -28.5q15 -30 50 -30q53 0 53 58q0 48 -52.5 90.5t-128.5 42.5q-97 0 -156.5 -71t-76.5 -198h-55q-12 0 -15.5 -3.5t-7.5 -15.5l-7 -22q-5 -13 0.5 -17t20.5 -4h59q-1 -13 -1 -38
q0 -27 1 -40h-50q-12 0 -15.5 -3.5t-7.5 -15.5l-8 -22q-4 -13 1.5 -17t20.5 -4h64z" />
    <glyph glyph-name="trademark" unicode="&#x2122;" horiz-adv-x="687" 
d="M636 706v-332h-57l2 205l3 68l-16 -56l-68 -217h-52l-67 217l-17 55l4 -67l2 -205h-56v332h79l83 -262l81 262h79zM181 657v-283h-58v283h-107v49h270v-49h-105z" />
    <glyph glyph-name="minus" unicode="&#x2212;" horiz-adv-x="500" 
d="M500 333v-81h-500v81h500z" />
    <glyph glyph-name="fi" unicode="&#xfb01;" horiz-adv-x="521" 
d="M276 462h-75v-439q0 -15 -5 -19t-16 -4h-80q-13 -1 -17.5 4t-4.5 19v439h-54q-12 0 -16 2.5t-4 14.5q0 27 2.5 33t17.5 6h54q5 107 35 165q20 37 55.5 64t81.5 27q27 0 43.5 -13.5t16.5 -37.5q0 -22 -14 -33.5t-30 -11.5q-3 0 -18.5 2t-18.5 2q-23 0 -37.5 -18t-14.5 -53
q0 -59 22 -93h77q7 0 10.5 -0.5t6.5 -4t3 -10.5q0 -29 -1 -32q-2 -9 -19 -9zM470 496v-474q0 -13 -4 -17.5t-18 -4.5h-87q-11 -1 -14 3.5t-3 17.5v476q0 11 3.5 16t15.5 5h85q14 0 17.5 -4.5t4.5 -17.5zM473 653q1 -28 -17.5 -45.5t-47.5 -17.5q-31 0 -49.5 16.5t-18.5 43.5
t18 45t50 18q30 0 47 -17.5t18 -42.5z" />
    <glyph glyph-name="fl" unicode="&#xfb02;" horiz-adv-x="521" 
d="M276 462h-75v-439q0 -15 -5 -19t-16 -4h-80q-13 -1 -17.5 4t-4.5 19v439h-54q-12 0 -16 2.5t-4 14.5q0 27 2.5 33t17.5 6h54q5 107 35 165q20 37 55.5 64t81.5 27q28 0 44 -13.5t16 -37.5q0 -22 -14 -33.5t-30 -11.5q-3 0 -18.5 2t-18.5 2q-23 0 -37.5 -18t-14.5 -53
q0 -59 22 -93h77q7 0 10.5 -0.5t6.5 -4t3 -10.5q0 -29 -1 -32q-2 -9 -19 -9zM344 21v725q0 12 4.5 15.5t18.5 3.5h79q14 0 18 -3t4 -16v-725q0 -14 -4.5 -17.5t-17.5 -3.5h-79q-14 0 -18.5 3.5t-4.5 17.5z" />
    </font>
</defs>
</svg>
