<?xml version="1.0" standalone="no"?>
<!DOCTYPE svg PUBLIC "-//W3C//DTD SVG 1.1//EN" "http://www.w3.org/Graphics/SVG/1.1/DTD/svg11.dtd" >
<svg xmlns="http://www.w3.org/2000/svg" xmlns:xlink="http://www.w3.org/1999/xlink" version="1.1">
<metadata>
Created by FontForge 20170731 at Fri Oct  8 20:14:55 1999
 By Aleksey,,,
Copyright (c) 1992, 1996, 1998, 1999 Adobe Systems Incorporated.  All Rights Reserved.Barmeno is either a registered trademark or trademark of Berthold Types Limited in the United States and/or other countries.
</metadata>
<defs>
<font id="Barmeno-Regular" horiz-adv-x="250" >
  <font-face 
    font-family="Barmeno Regular"
    font-weight="400"
    font-stretch="normal"
    units-per-em="1000"
    panose-1="2 11 5 0 0 0 0 0 0 0"
    ascent="750"
    descent="-250"
    x-height="518"
    cap-height="706"
    bbox="-141 -250 1092.03 924"
    underline-thickness="50"
    underline-position="-200"
    unicode-range="U+0020-FB02"
  />
<missing-glyph 
 />
    <glyph glyph-name=".notdef" 
 />
    <glyph glyph-name=".null" horiz-adv-x="0" 
 />
    <glyph glyph-name="nonmarkingreturn" horiz-adv-x="333" 
 />
    <glyph glyph-name="space" unicode=" " 
 />
    <glyph glyph-name="space" unicode="&#xa0;" 
 />
    <glyph glyph-name="exclam" unicode="!" horiz-adv-x="292" 
d="M230 53q-1 -26 -20 -42.5t-44 -16.5q-29 0 -46 19.5t-17 42.5q0 25 18 44t45 19q28 0 47 -19.5t17 -46.5zM219 685l-27 -444q-1 -11 -4.5 -14t-14.5 -3q-23 0 -27.5 2.5t-5.5 15.5l-26 443q-1 10 1.5 14.5t6.5 5.5t13 1h62q14 0 18.5 -3t3.5 -18z" />
    <glyph glyph-name="quotedbl" unicode="&#x22;" horiz-adv-x="396" 
d="M335 700l-35 -255h-19l-32 242q-1 6 -1 16q0 24 14 35t31 11q42 0 42 -49zM148 700l-35 -255h-19l-33 242q0 3 -0.5 8.5t-0.5 7.5q0 24 14.5 35t31.5 11q42 0 42 -49z" />
    <glyph glyph-name="numbersign" unicode="#" horiz-adv-x="583" 
d="M563 313v-55h-175l-34 -258h-61l36 258h-101l-38 -258h-57l35 258h-167v55h174l14 97h-167v57h175l32 239h60l-33 -239h100l32 239h60l-32 -239h167v-57h-175l-13 -97h168zM235 313h101l13 97h-101z" />
    <glyph glyph-name="dollar" unicode="$" horiz-adv-x="500" 
d="M268 668v-265q90 -45 95 -48q109 -65 109 -173q0 -79 -55 -136q-50 -49 -149 -61v-69v-6t-1 -3.5t-3 -1.5h-6q-19 0 -23 1.5t-4 10.5v68q-106 9 -160 65q-43 45 -43 83q0 19 12 30t27 11q13 0 22.5 -7t14 -15t12.5 -25q10 -22 20 -35.5t34.5 -28t60.5 -19.5v283
q-51 25 -77.5 40t-58 40.5t-45 58t-13.5 74.5q0 77 50 127q48 47 144 54v68q0 9 3.5 11t20.5 2q9 0 11 -2t2 -12v-67q77 -6 124.5 -43.5t47.5 -73.5q0 -17 -11 -28t-26 -11q-16 0 -25.5 9.5t-27.5 40.5q-28 45 -82 53zM268 309v-265q38 3 64.5 16.5t38 33t15.5 35.5t4 33
q0 33 -12.5 59t-35.5 44t-37.5 26t-36.5 18zM231 420v249q-44 -5 -67 -21q-48 -33 -48 -94q0 -27 9 -48t28.5 -37.5t34.5 -25.5t43 -23z" />
    <glyph glyph-name="percent" unicode="%" horiz-adv-x="792" 
d="M300 490q1 -100 -34 -167t-100 -67q-58 0 -95.5 60t-37.5 168q0 106 36 169t99 63q60 0 95.5 -62t36.5 -164zM238 489q0 190 -72 190q-21 0 -36.5 -19.5t-22.5 -51t-9.5 -59.5t-2.5 -57q0 -32 3 -62t10 -62.5t22 -52t36 -19.5q23 0 39 21.5t22.5 57t8.5 61.5t2 53z
M758 225q1 -100 -33.5 -167t-100.5 -67q-58 0 -95.5 60t-37.5 168q0 106 36 169t99 63q60 0 95.5 -62t36.5 -164zM696 224q0 190 -72 190q-21 0 -36.5 -19.5t-22 -51t-9.5 -59t-3 -56.5q0 -32 3 -62.5t10 -63t22 -52t36 -19.5q23 0 39 21.5t22.5 57t8.5 61.5t2 53zM592 680
l-350 -663q-6 -12 -10 -14.5t-14 -2.5q-18 0 -22 1t-4 8q0 5 6 17l352 663q6 12 10 15t14 3h12.5t7.5 -1t5 -3t1 -5q0 -4 -8 -18z" />
    <glyph glyph-name="ampersand" unicode="&#x26;" horiz-adv-x="625" 
d="M500 23l-95 121q-20 -35 -34.5 -55.5t-40.5 -48t-59.5 -41.5t-73.5 -14q-77 0 -126 51.5t-49 120.5t48 126q22 27 50.5 47t94.5 58q-47 64 -64 101.5t-17 76.5q0 69 47.5 112t134.5 43q79 0 121 -39.5t42 -97.5q0 -35 -14.5 -65t-43.5 -55t-49 -38.5t-54 -32.5l104 -133
q76 119 156 119q23 0 33.5 -11.5t10.5 -26.5q0 -36 -50 -40q-21 -1 -32.5 -3t-28 -11.5t-31.5 -27.5q-20 -25 -28 -37l148 -189q11 -17 11 -21q0 -12 -19 -12h-50q-18 0 -23 3t-19 20zM374 184l-130 166q-31 -19 -49 -31.5t-41 -33.5t-34 -45.5t-11 -53.5q0 -47 32 -85.5
t84 -38.5q27 0 50 10t42 31t30 37t27 44zM289 431q22 13 36 23t35.5 29t32.5 42t11 49q0 41 -26.5 68t-66.5 27q-35 0 -65 -23.5t-30 -69.5q0 -35 15 -62t58 -83z" />
    <glyph glyph-name="quotesingle" unicode="'" horiz-adv-x="208" 
d="M148 700l-35 -255h-19l-33 242q0 3 -0.5 8.5t-0.5 7.5q0 24 14.5 35t31.5 11q42 0 42 -49z" />
    <glyph glyph-name="parenleft" unicode="(" horiz-adv-x="292" 
d="M275 802q-67 -83 -101 -211q-29 -111 -29 -237q0 -271 128 -445q14 -18 14 -26q0 -7 -4.5 -12t-11.5 -5q-5 0 -12.5 4.5t-15 11.5t-17 17t-17.5 19.5t-16.5 20t-14 17.5t-10.5 13l-4 6q-115 163 -115 386q0 207 106 361q16 24 55.5 71t57.5 47q16 0 16 -17q0 -10 -9 -21z
" />
    <glyph glyph-name="parenright" unicode=")" horiz-adv-x="292" 
d="M17 -96q39 49 66 112q64 143 64 337q0 271 -128 444q-14 19 -14 26q0 17 16 17q17 0 55 -44t52 -65q115 -163 115 -385q0 -209 -106 -361q-16 -24 -55.5 -71.5t-57.5 -47.5q-6 0 -11 5t-5 13q0 9 9 20z" />
    <glyph glyph-name="asterisk" unicode="*" horiz-adv-x="313" 
d="M138 580q4 21 4 34q0 26 -14 26q-20 0 -48 -35q-23 -29 -31 -32q-3 -1 -6 -1q-22 0 -22 35q0 12 3.5 19.5t10.5 11t11 4.5t12 2q60 11 60 34t-56 33q-15 3 -22 5.5t-13.5 11.5t-6.5 24q0 17 7.5 25.5t16.5 8.5q11 0 30 -27q1 -1 2 -2.5t2 -2.5q28 -37 52 -37q13 0 13 22
q0 14 -4 42q-8 39 -8 49q0 35 25 35q24 0 24 -36q0 -6 -4.5 -43.5t-4.5 -44.5q0 -24 14 -24q22 0 49 35q17 23 22.5 28t13.5 5q22 0 22 -30q0 -22 -10 -29t-41 -15q-46 -13 -46 -32q0 -17 47 -31q21 -6 29 -9t14.5 -12t6.5 -25q0 -29 -20 -29q-8 0 -14 5t-24 28
q-29 35 -49 35q-15 0 -15 -29q0 -6 5.5 -40.5t5.5 -41.5q0 -36 -25 -36q-10 0 -17.5 9.5t-7.5 27.5q0 8 7 49z" />
    <glyph glyph-name="plus" unicode="+" horiz-adv-x="500" 
d="M469 322v-60h-189v-190h-60v190h-190v60h190v187h60v-187h189z" />
    <glyph glyph-name="comma" unicode="," 
d="M92 22q-11 8 -15.5 12t-10 13.5t-5.5 21.5q0 22 16.5 35t38.5 13q31 0 51.5 -24.5t20.5 -65.5q0 -55 -41.5 -102t-66.5 -47q-18 0 -18 16q0 9 22 33q30 40 30 61q0 17 -22 34z" />
    <glyph glyph-name="hyphen" unicode="-" horiz-adv-x="313" 
d="M74 314h163q10 0 14 -3t4 -12v-45q-1 -11 -16 -11h-165q-10 0 -13.5 4t-3.5 14q0 40 1 43q2 10 16 10z" />
    <glyph glyph-name="hyphen" unicode="&#xad;" horiz-adv-x="313" 
d="M74 314h163q10 0 14 -3t4 -12v-45q-1 -11 -16 -11h-165q-10 0 -13.5 4t-3.5 14q0 40 1 43q2 10 16 10z" />
    <glyph glyph-name="period" unicode="." 
d="M186 53q-1 -26 -19 -42.5t-43 -16.5t-43.5 17.5t-18.5 44.5q0 29 19.5 45t42.5 16q26 0 44.5 -18.5t17.5 -45.5z" />
    <glyph glyph-name="slash" unicode="/" horiz-adv-x="437" 
d="M424 807l-352 -932q-4 -12 -11 -12q-4 0 -10 2q-9 3 -15.5 6t-9.5 4t-5 2t-3 1q-7 4 -7 10q0 5 2 11l351 926q6 17 12 17t36 -12q15 -5 15 -12q0 -2 -3 -11z" />
    <glyph glyph-name="zero" unicode="0" horiz-adv-x="542" 
d="M483 359q2 -160 -54 -267t-159 -107q-93 0 -152.5 96t-59.5 269q0 169 57.5 270t157.5 101q96 0 152 -100t58 -262zM388 358q0 37 -1.5 72.5t-9 80.5t-19.5 78t-35 55.5t-53 22.5q-36 0 -61 -32t-36.5 -84t-16 -97t-4.5 -91q0 -136 27 -223q31 -96 91 -96q38 0 64 34.5
t36.5 91.5t14 99.5t3.5 88.5z" />
    <glyph glyph-name="one" unicode="1" horiz-adv-x="542" 
d="M262 16v559q-47 -22 -93.5 -36.5t-67 -18t-27.5 -3.5q-29 0 -29 24q0 14 9.5 19.5t40.5 13.5q119 30 193 111q16 18 22.5 23t16.5 5q21 0 21 -27v-671q0 -10 -4 -12.5t-14 -2.5h-50q-11 0 -14.5 3t-3.5 13z" />
    <glyph glyph-name="two" unicode="2" horiz-adv-x="542" 
d="M362 321l-190 -238h276q13 0 17 -3t4 -15q0 -51 -1 -54q-1 -11 -18 -11h-374q-22 0 -22 15q0 8 11 22l210 275q48 64 71.5 111.5t23.5 93.5q0 54 -31.5 90.5t-81.5 36.5q-41 0 -74.5 -28t-46.5 -82q-3 -17 -5.5 -24.5t-9 -14.5t-17.5 -7q-29 0 -29 36q0 74 54 135.5
t147 61.5q82 0 133.5 -52.5t51.5 -128.5q0 -41 -18 -85.5t-34 -68.5t-47 -65z" />
    <glyph glyph-name="three" unicode="3" horiz-adv-x="542" 
d="M324 406q46 -21 78 -49.5t46 -58.5t19 -52.5t5 -44.5q0 -33 -11 -67.5t-34.5 -69.5t-69.5 -57t-108 -22q-91 0 -146 48.5t-55 92.5q0 20 13 33t30 13q22 0 41 -31q10 -20 18 -32.5t23 -29.5t37 -26t49 -9q56 0 90 41t34 95q0 10 -1 20.5t-9.5 34t-24 43t-48.5 40
t-78 32.5q-26 6 -32.5 10t-6.5 14t6 14.5t19 9.5q25 9 41 17t42.5 25.5t40.5 44t14 59.5q0 40 -27 72.5t-76 32.5q-81 0 -113 -90q-1 -2 -2 -5q-11 -28 -23 -32q-3 -1 -8 -1q-25 0 -25 33q0 62 54 115t138 53q73 0 122 -44t49 -111q0 -96 -111 -161z" />
    <glyph glyph-name="four" unicode="4" horiz-adv-x="542" 
d="M447 164h-62v-153q0 -11 -3 -14t-14 -3h-51q-11 1 -14 3.5t-3 12.5v154h-241q-23 0 -23 18q0 7 13 29l276 482q13 21 30 21q14 0 21 -7.5t8 -14t1 -18.5v-454h62q14 0 16.5 -6t2.5 -34q0 -8 -2 -11.5t-5.5 -4t-11.5 -0.5zM117 220h183v345z" />
    <glyph glyph-name="five" unicode="5" horiz-adv-x="542" 
d="M423 623h-252l-17 -226q76 28 125 28q88 0 146.5 -59.5t58.5 -157.5q0 -99 -62 -161t-161 -62q-85 0 -141.5 44t-56.5 94q0 23 13 33.5t28 10.5q11 0 19.5 -6.5t12.5 -12t11 -18.5q44 -85 118 -85q56 0 93 39t37 104q0 68 -43.5 116.5t-112.5 48.5q-47 0 -99 -22
q-33 -14 -36 -14q-17 0 -15 34l24 332q2 14 7 19t20 5h282q23 0 23 -19v-50q-1 -15 -22 -15z" />
    <glyph glyph-name="six" unicode="6" horiz-adv-x="542" 
d="M155 335q80 59 154 59q75 0 126 -52.5t51 -144.5q0 -90 -54.5 -151t-149.5 -61q-102 0 -162 73t-60 200q0 196 122 330q46 51 105.5 83.5t92 41t49.5 8.5q26 0 26 -21q0 -16 -27 -25q-72 -26 -113 -57q-45 -34 -77 -74t-48.5 -83t-22.5 -67.5t-12 -58.5zM150 284
q-3 -131 38 -186t97 -55q53 0 84 39.5t31 96.5q0 18 -3.5 37t-13 40t-24 37.5t-38 27t-53.5 10.5q-58 0 -118 -47z" />
    <glyph glyph-name="seven" unicode="7" horiz-adv-x="542" 
d="M150 37l253 587h-310q-11 0 -14.5 3.5t-3.5 15.5q0 50 1 52q1 11 17 11h370q27 0 27 -17q0 -7 -7 -24q-3 -8 -33 -81q-141 -339 -193 -545q-7 -28 -11.5 -34t-21.5 -5h-63q-19 0 -19 12q0 6 8 25z" />
    <glyph glyph-name="eight" unicode="8" horiz-adv-x="542" 
d="M324 390q41 -26 60.5 -41t47.5 -42.5t40 -59t12 -70.5q0 -82 -62.5 -137t-158.5 -55t-150.5 52t-54.5 130q0 46 23.5 86t51 62.5t76.5 54.5q-26 18 -39 29t-36.5 35.5t-35 55t-11.5 66.5q0 69 44 113q50 53 146 53q83 0 130 -42t47 -110q0 -34 -11 -62t-34 -51t-40 -36
t-45 -31zM252 340q-45 -34 -63.5 -50.5t-33 -43.5t-14.5 -62q0 -56 34 -97.5t98 -41.5q56 0 90 33.5t34 83.5q0 74 -82 135q-5 3 -32.5 22t-30.5 21zM283 420q94 56 94 137q0 45 -29.5 77.5t-77.5 32.5q-43 0 -73 -26.5t-30 -70.5q0 -85 116 -150z" />
    <glyph glyph-name="nine" unicode="9" horiz-adv-x="542" 
d="M382 375q-27 -20 -42 -29.5t-45 -20.5t-61 -11q-72 0 -124.5 52t-52.5 148q0 91 55 149t148 58q103 0 160.5 -74t57.5 -203q0 -71 -16 -133.5t-42.5 -108t-61 -83.5t-69.5 -62t-70 -41t-62 -24t-45 -7q-25 0 -25 20q0 11 7.5 16t35.5 14q111 39 177.5 134.5t74.5 205.5z
M386 425q2 36 -3 74.5t-18 77.5t-41 64t-67 25q-50 0 -81.5 -38t-31.5 -99q0 -60 33 -105.5t93 -45.5q57 0 116 47z" />
    <glyph glyph-name="colon" unicode=":" horiz-adv-x="292" 
d="M230 53q-1 -26 -19.5 -42.5t-44.5 -16.5q-25 0 -44 17.5t-19 44.5q0 29 20 45t44 16q26 0 44.5 -18.5t18.5 -45.5zM230 315q-1 -26 -19.5 -43t-44.5 -17q-25 0 -44 17.5t-19 44.5q0 29 20 45.5t44 16.5q26 0 44.5 -18.5t18.5 -45.5z" />
    <glyph glyph-name="semicolon" unicode=";" horiz-adv-x="292" 
d="M133 22q-30 22 -30 47q0 21 16.5 34.5t37.5 13.5q31 0 50.5 -24.5t19.5 -65.5q0 -56 -40.5 -103t-65.5 -47q-17 0 -17 16q0 9 21 34q30 35 30 61q0 17 -22 34zM230 315q-1 -27 -20 -43.5t-43 -16.5q-25 0 -44 17t-19 45q0 30 20 46t43 16q27 0 45.5 -18.5t17.5 -45.5z
" />
    <glyph glyph-name="less" unicode="&#x3c;" horiz-adv-x="500" 
d="M500 132v-64l-500 251v70l500 249v-64l-434 -220z" />
    <glyph glyph-name="equal" unicode="=" horiz-adv-x="500" 
d="M500 232v-59h-500v59h500zM500 408v-59h-500v59h500z" />
    <glyph glyph-name="greater" unicode="&#x3e;" horiz-adv-x="500" 
d="M500 319l-500 -251v64l434 222l-434 220v64l500 -249v-70z" />
    <glyph glyph-name="question" unicode="?" horiz-adv-x="417" 
d="M183 244l-12 147q-1 18 3 25.5t22 21.5q33 23 48.5 36t30.5 39t15 57q0 36 -21.5 65.5t-64.5 29.5q-22 0 -38 -7.5t-24.5 -22t-12 -22.5t-7.5 -21q-5 -17 -8 -25.5t-13 -17t-24 -8.5q-15 0 -29 12t-14 36q0 51 47 91.5t131 40.5q80 0 124.5 -41t44.5 -98q0 -29 -13 -55.5
t-24.5 -38.5t-33.5 -33q-49 -47 -63 -81.5t-15 -114.5q0 -16 -1 -22t-5 -9t-14 -3q-19 0 -23.5 2.5t-5.5 16.5zM270 53q-1 -26 -20 -42.5t-44 -16.5q-27 0 -44 19.5t-17 42.5q0 24 17.5 43.5t44.5 19.5t45.5 -19.5t17.5 -46.5z" />
    <glyph glyph-name="at" unicode="@" horiz-adv-x="896" 
d="M790 66l27 -32q-38 -36 -50 -45q-55 -45 -137 -79t-178 -34q-70 0 -135.5 21t-122.5 62t-91.5 112.5t-34.5 162.5q0 123 58.5 232t165.5 177.5t237 68.5q136 0 217 -77t81 -210q0 -136 -70.5 -244.5t-159.5 -108.5q-19 0 -33.5 5.5t-22.5 14.5t-11.5 15t-5.5 12
q-5 16 -5 46q-22 -27 -36 -42.5t-46.5 -32.5t-69.5 -17q-19 0 -38.5 7t-40.5 23t-34 49.5t-13 80.5q0 111 63.5 196.5t145.5 85.5q84 0 119 -95l17 72h59l-33 -146q-29 -136 -29 -174q0 -21 8 -34t15 -15.5t13 -2.5q30 0 67 39.5t66 112.5t29 153q0 110 -68 176.5t-188 66.5
q-111 0 -206 -60t-150 -160.5t-55 -216.5q0 -142 95 -226.5t244 -84.5q111 0 221 59q56 31 116 87zM548 347q1 59 -27 87t-61 28q-46 0 -82 -38t-52.5 -88.5t-16.5 -98.5q0 -34 9.5 -57.5t25 -34t28.5 -14.5t25 -4q58 0 103.5 65.5t47.5 154.5z" />
    <glyph glyph-name="A" unicode="A" horiz-adv-x="604" 
d="M496 15l-99 263h-215l-97 -262q-3 -8 -6 -11.5t-5.5 -4t-10.5 -0.5h-47q-16 0 -16 9l2 7q3 8 3 9l259 666q4 10 7.5 12.5t11.5 2.5h43q9 -1 14 -13l260 -668q4 -12 4 -16q0 -9 -14 -9h-69q-13 0 -17 2t-8 13zM203 335h173l-86 239z" />
    <glyph glyph-name="B" unicode="B" horiz-adv-x="583" 
d="M66 40v632q0 22 16 27q37 13 152 13q123 0 187 -39q72 -46 72 -130q0 -56 -32.5 -95t-76.5 -60q-7 -4 -23 -10q4 -1 11.5 -2.5t11.5 -2.5q75 -18 115 -67.5t40 -118.5q0 -193 -309 -193q-111 0 -148 13q-10 3 -13 9t-3 24zM163 649v-253q47 -2 84 1q45 4 76.5 19t45 36.5
t18.5 38.5t5 34q0 129 -158 129q-36 0 -71 -5zM163 343v-285q48 -5 83 -5q86 0 137.5 33t51.5 104q0 62 -36 100q-31 35 -73 45t-98 10q-17 0 -65 -2z" />
    <glyph glyph-name="C" unicode="C" horiz-adv-x="604" 
d="M498 561q-59 99 -151 99q-89 0 -148.5 -77t-59.5 -203q0 -140 68 -231.5t174 -91.5q70 0 140 46q25 16 34 16t15.5 -7t6.5 -17q0 -32 -64 -71t-152 -39q-105 0 -180.5 53t-110.5 136t-35 184q0 67 18.5 129t55 115.5t100.5 86t147 32.5q102 0 167 -47t65 -93
q0 -20 -13.5 -33t-32.5 -13q-27 0 -44 26z" />
    <glyph glyph-name="D" unicode="D" horiz-adv-x="667" 
d="M66 26v642q0 15 3 20.5t12 7.5q47 17 159 17q105 0 184 -33t122.5 -87.5t64 -115t20.5 -125.5q0 -165 -108 -262q-109 -97 -307 -97q-94 0 -134 10q-16 5 -16 23zM165 647v-588q19 -3 52 -3q155 0 231.5 79.5t76.5 219.5q0 132 -70 210q-77 87 -227 87q-33 0 -63 -5z" />
    <glyph glyph-name="E" unicode="E" horiz-adv-x="479" 
d="M392 338h-228v-274h270q8 0 11 -0.5t5.5 -4t2.5 -11.5v-32q0 -10 -4.5 -13t-14.5 -3h-348q-12 0 -16 3t-4 15v664q0 13 4 18.5t16 5.5h348q19 0 19 -15q0 -35 -1 -38q-1 -11 -18 -11h-270v-241h228q7 0 10 -0.5t6 -4t3 -10.5q0 -36 -1 -39q-2 -9 -18 -9z" />
    <glyph glyph-name="F" unicode="F" horiz-adv-x="458" 
d="M387 338h-223v-319q0 -13 -4 -16t-16 -3h-57q-13 0 -17 2.5t-4 15.5v666q0 13 3.5 17.5t14.5 5.5h345q7 0 9 -0.5t5.5 -2t4 -4t0.5 -7.5q0 -34 -1 -38q0 -14 -18 -13h-265v-241h223q11 0 15 -3t4 -14q0 -32 -1 -35q-1 -11 -18 -11z" />
    <glyph glyph-name="G" unicode="G" horiz-adv-x="667" 
d="M521 145v147h-136q-12 0 -15.5 3t-3.5 16v31q2 9 19 9h214q12 1 15 -4t3 -17v-210q-1 -27 -2.5 -35t-10.5 -20q-26 -34 -84.5 -57t-136.5 -23q-88 0 -156 30t-109 81.5t-61.5 116.5t-20.5 140q0 163 91.5 265.5t240.5 102.5q112 0 181.5 -52t69.5 -98q0 -21 -14 -34
t-32 -13t-29 11t-30 39q-15 22 -28 36.5t-46.5 31.5t-74.5 17q-92 0 -157 -75t-65 -215q0 -138 66 -228.5t182 -90.5q66 0 103 25q18 12 22.5 27t4.5 43z" />
    <glyph glyph-name="H" unicode="H" horiz-adv-x="625" 
d="M461 19v319h-296v-319q0 -13 -4 -16t-15 -3h-61q-10 0 -14 3.5t-4 15.5v670q0 10 4 13.5t14 3.5h61q11 1 15 -2t4 -15v-288h296v285q0 13 2.5 17t15.5 3h61q12 0 15.5 -2.5t3.5 -14.5v-673q0 -8 -2.5 -11.5t-5.5 -4t-11 -0.5h-61q-12 0 -15 3.5t-3 15.5z" />
    <glyph glyph-name="I" unicode="I" horiz-adv-x="229" 
d="M164 688v-668q0 -13 -4 -16.5t-16 -3.5h-60q-10 0 -14.5 3.5t-4.5 16.5v666q0 12 4 16.5t15 3.5h60q11 0 15.5 -3.5t4.5 -14.5z" />
    <glyph glyph-name="J" unicode="J" horiz-adv-x="229" 
d="M163 686v-578q-1 -32 -2.5 -51.5t-7.5 -55t-21 -69.5t-39 -66q-31 -40 -72 -66t-64 -32.5t-35 -6.5q-33 0 -33 26q0 14 23 23q47 21 71 44q35 33 54 80t22.5 74.5t4.5 71.5v608q0 11 3 14.5t13 3.5h64q12 0 15.5 -3.5t3.5 -16.5z" />
    <glyph glyph-name="K" unicode="K" horiz-adv-x="542" 
d="M484 676l-222 -282l271 -369q6 -8 6 -14q0 -11 -13 -11h-79q-14 0 -18.5 2t-12.5 12l-254 357v-356q0 -10 -4.5 -12.5t-14.5 -2.5h-57q-12 0 -16 3.5t-4 16.5v666q0 12 4 16t15 4h58q12 1 15.5 -3t3.5 -16v-297l237 296q13 18 25 20h55q15 0 15 -11q0 -5 -10 -19z" />
    <glyph glyph-name="L" unicode="L" horiz-adv-x="458" 
d="M165 689v-623h263q11 0 14 -4t3 -14v-39q-2 -9 -18 -9h-344q-17 0 -17 17v672q0 11 3.5 14t13.5 4h64q11 0 14 -3.5t4 -14.5z" />
    <glyph glyph-name="M" unicode="M" horiz-adv-x="792" 
d="M631 19v540l-221 -540q-7 -16 -10 -19.5t-11 -3.5t-11.5 4t-10.5 19l-224 540v-541q0 -12 -4 -15t-14 -3h-49q-10 2 -10 19v668q0 11 3.5 15t14.5 4h68q11 0 15.5 -3t8.5 -16l222 -519l212 518q6 14 10 17t16 3h69q12 0 16 -2.5t4 -14.5v-672q-1 -11 -4.5 -14t-15.5 -3
h-56q-12 0 -15 3t-3 16z" />
    <glyph glyph-name="N" unicode="N" horiz-adv-x="688" 
d="M168 691l376 -521v517q0 17 10 19h52q9 0 12 -3.5t3 -14.5v-670q0 -12 -3.5 -15t-13.5 -3h-38q-11 1 -22 14l-399 554v-549q0 -17 -9 -18q-2 -1 -52 -1q-10 0 -13.5 4t-3.5 15v668q0 12 3.5 15.5t15.5 3.5h58q10 0 13.5 -2t10.5 -13z" />
    <glyph glyph-name="O" unicode="O" horiz-adv-x="708" 
d="M673 374q8 -164 -83 -276.5t-234 -112.5q-139 0 -230 103t-91 265q0 69 19.5 133t57.5 117.5t101.5 86t143.5 32.5q74 0 134 -29.5t98 -79.5t59.5 -111t24.5 -128zM569 371q-2 83 -25 144t-58 91t-68 43t-65 13q-48 0 -92 -25q-122 -72 -122 -278q0 -59 10 -105
q19 -96 77 -149t129 -53q46 0 90 24t75 72q52 81 49 223z" />
    <glyph glyph-name="P" unicode="P" horiz-adv-x="521" 
d="M66 18v653q0 16 4 21q7 9 62.5 15t110.5 6q137 0 202 -57q60 -55 60 -144q0 -84 -57 -139q-74 -73 -228 -73q-27 0 -56 3v-285q0 -11 -4 -14.5t-14 -3.5h-61q-11 0 -15 3.5t-4 14.5zM164 651v-290q30 -4 48 -4q190 0 190 154q0 146 -178 146q-26 0 -60 -6z" />
    <glyph glyph-name="Q" unicode="Q" horiz-adv-x="729" 
d="M447 -4v-1q16 -64 72 -108q69 -54 172 -78q16 -4 21.5 -5.5t9.5 -6t4 -11.5q0 -20 -25 -20q-48 0 -135 27q-173 57 -237 195q-139 15 -216 114.5t-77 246.5q0 167 90.5 269.5t236.5 102.5q151 0 239.5 -104t88.5 -263q0 -138 -67 -233.5t-177 -124.5zM587 360
q-4 138 -60 214q-64 89 -163 89q-49 0 -94.5 -25t-75.5 -69q-55 -79 -55 -212q0 -150 66.5 -230.5t158.5 -80.5q51 0 96.5 25.5t76.5 73.5q54 82 50 215z" />
    <glyph glyph-name="R" unicode="R" horiz-adv-x="542" 
d="M67 17v651q0 16 3 21.5t13 9.5q38 14 155 14q134 0 193 -50q60 -48 60 -139q0 -71 -45.5 -121t-129.5 -71l203 -304q7 -12 7 -18q0 -10 -16 -10h-72q-14 0 -17.5 2t-11.5 14l-167 267q-24 37 -52 37q-27 0 -27 -36v-263q0 -13 -4 -17t-15 -4h-58q-11 0 -15 3t-4 14z
M163 652v-287q64 -1 80 0q68 6 108.5 44t40.5 103q0 145 -165 145q-31 0 -64 -5z" />
    <glyph glyph-name="S" unicode="S" horiz-adv-x="521" 
d="M277 413l52 -24q22 -11 36 -18.5t39 -27t39.5 -39t26.5 -51t12 -67.5q0 -89 -62 -145t-159 -56q-106 0 -164 53t-58 98q0 23 14 36t33 13q14 0 24.5 -7t15.5 -14.5t12 -21.5q8 -17 15.5 -28.5t23 -29t39 -27t52.5 -9.5q54 0 87.5 33.5t33.5 83.5q0 31 -10.5 54.5
t-35 42.5t-44 29.5t-56.5 28.5l-54 26q-141 67 -141 187q0 82 56.5 135t150.5 53q83 0 140.5 -39.5t57.5 -81.5q0 -20 -12 -33t-31 -13q-27 0 -48 35q-14 21 -24.5 33.5t-34 26t-53.5 13.5q-48 0 -79.5 -32t-31.5 -77q0 -28 9.5 -48.5t32.5 -38t40.5 -27t55.5 -26.5z" />
    <glyph glyph-name="T" unicode="T" horiz-adv-x="500" 
d="M475 642h-176v-623q-1 -8 -2 -11.5t-4.5 -5.5t-11.5 -2h-58q-9 0 -13 1t-6.5 5.5t-2.5 13.5v622h-175q-11 0 -14.5 4t-3.5 15q0 31 2.5 38t15.5 7h449q13 0 15.5 -7t2.5 -39q0 -11 -3.5 -14.5t-14.5 -3.5z" />
    <glyph glyph-name="U" unicode="U" horiz-adv-x="583" 
d="M527 688v-478q-2 -85 -29 -128q-58 -97 -204 -97q-155 0 -210 103q-27 49 -27 136v465q0 12 3.5 15t14.5 3h63q12 0 15.5 -3t3.5 -15v-448q0 -182 146 -182q85 0 124 59q22 34 22 103v467q0 11 3 15t13 4q48 0 51 -1q11 -1 11 -18z" />
    <glyph glyph-name="V" unicode="V" horiz-adv-x="562" 
d="M107 688l188 -525l183 525q4 11 7.5 14.5t12.5 3.5h55q9 -3 9 -11q0 -3 -3 -15l-243 -665q-4 -10 -7.5 -12.5t-13.5 -2.5q-24 0 -30 2t-10 13l-251 665l-4 15q0 11 17 11h66q13 0 16.5 -2.5t7.5 -15.5z" />
    <glyph glyph-name="W" unicode="W" horiz-adv-x="854" 
d="M596 15l-174 496l-162 -495q-4 -12 -6.5 -14t-13.5 -2q-25 0 -31.5 2t-10.5 14l-194 660q-4 13 -4 17q0 13 17 13h63q12 1 16 -2.5t7 -17.5l137 -509l166 506q5 16 7.5 19.5t8.5 3.5h23q6 0 12 -18l172 -511l141 510q3 12 7 15.5t14 3.5h52q11 -2 11 -11q0 -5 -4 -19
l-194 -660q-3 -10 -6 -13t-11 -3h-29q-9 1 -14 15z" />
    <glyph glyph-name="X" unicode="X" horiz-adv-x="542" 
d="M434 16l-171 284l-174 -280q-8 -14 -12 -17t-13 -3h-49q-15 0 -15 11q0 4 7 15l215 345l-181 307q-7 10 -7 16q0 14 16 12h63q13 0 17 -2t10 -13l138 -229l143 229q7 11 10 13q4 2 59 2q13 0 13 -10q0 -6 -5 -13l-180 -293l217 -364q7 -11 7 -16q0 -10 -14 -10h-67
q-13 0 -16.5 2.5t-10.5 13.5z" />
    <glyph glyph-name="Y" unicode="Y" horiz-adv-x="542" 
d="M535 679l-216 -361v-302q0 -8 -2.5 -11.5t-6 -4t-11.5 -0.5h-65q-10 0 -13 3.5t-3 12.5v307l-211 356q-7 12 -7 17q0 10 15 10h72q18 0 24 -14l172 -294l171 292q7 11 9.5 13t9.5 3h56q12 0 12 -10q0 -6 -6 -17z" />
    <glyph glyph-name="Z" unicode="Z" horiz-adv-x="500" 
d="M477 677l-327 -613h311q10 0 13.5 -2.5t3.5 -12.5q0 -40 -1 -42q-1 -7 -14 -7h-423q-23 0 -23 10q0 3 8 19l326 613h-289q-11 0 -14 4q-3 3 -3 42q0 11 3 14.5t15 3.5h394q25 0 25 -11q0 -8 -5 -18z" />
    <glyph glyph-name="bracketleft" unicode="[" horiz-adv-x="271" 
d="M144 787v-868h101q10 0 12.5 -3.5t2.5 -13.5q0 -19 -2.5 -23.5t-14.5 -4.5h-158q-12 0 -15.5 3.5t-3.5 14.5v923q0 11 4 14.5t16 3.5h157q10 0 13.5 -2.5t3.5 -12.5q0 -21 -2.5 -26t-13.5 -5h-100z" />
    <glyph glyph-name="backslash" unicode="\" horiz-adv-x="437" 
d="M73 825l351 -926q3 -9 3 -11q0 -5 -7 -10q-2 0 -4.5 -1t-10.5 -4.5t-19 -7.5q-6 -2 -10 -2q-6 0 -11 12l-352 932q-3 9 -3 11q0 6 15 12q32 12 36 12q6 0 12 -17z" />
    <glyph glyph-name="bracketright" unicode="]" horiz-adv-x="271" 
d="M126 -80v868h-101q-10 0 -12.5 3.5t-2.5 13.5q0 19 2.5 23.5t14.5 4.5h158q12 0 15.5 -3.5t3.5 -14.5v-923q0 -11 -4 -14.5t-16 -3.5h-157q-10 0 -13.5 2.5t-3.5 12.5q0 22 2 26.5t14 4.5h100z" />
    <glyph glyph-name="asciicircum" unicode="^" horiz-adv-x="729" 
d="M399 706l174 -356h-76l-131 273l-134 -273h-76l180 356h63z" />
    <glyph glyph-name="underscore" unicode="_" horiz-adv-x="500" 
d="M510 -75v-50h-520v50h520z" />
    <glyph glyph-name="grave" unicode="`" 
d="M103 706l87 -89q10 -10 10 -22q0 -11 -5.5 -17t-12.5 -6q-5 0 -17 7l-97 69q-19 14 -19 37q0 15 8 25.5t20 10.5q11 0 26 -15z" />
    <glyph glyph-name="a" unicode="a" horiz-adv-x="437" 
d="M386 370v-265q-1 -37 -9 -56.5t-34 -33.5q-51 -27 -141 -27q-16 0 -29.5 1t-43 8t-49.5 20t-36.5 41t-16.5 66q0 21 4.5 39t16 33.5t22.5 27t33.5 23.5t38.5 19.5t48 18.5t51 17t58 17v51q0 17 -0.5 27t-4.5 27t-11 27t-22.5 18t-36.5 8q-58 0 -84 -65q-5 -14 -8.5 -20.5
t-13 -14.5t-23.5 -8t-27 10.5t-13 31.5q0 47 52 83t130 36q42 0 71.5 -12.5t44 -27.5t22.5 -41.5t9.5 -40.5t1.5 -38zM299 115v157l-61.5 -20.5t-48 -19.5t-40.5 -24.5t-21.5 -29.5t-9.5 -41q0 -6 0.5 -13t6 -23.5t15 -28t30.5 -21t50 -9.5q27 0 44.5 7t24.5 20t8.5 22.5
t1.5 23.5z" />
    <glyph glyph-name="b" unicode="b" horiz-adv-x="521" 
d="M145 745v-280q72 65 156 65q82 0 134.5 -64.5t52.5 -181.5q0 -148 -73.5 -222t-183.5 -74q-91 0 -145 46q-21 18 -26 36.5t-5 64.5v610q0 12 3.5 16t15.5 4h49q14 0 18 -3.5t4 -16.5zM145 408v-260q0 -100 96 -100q67 0 113 53.5t46 155.5q0 87 -34 146.5t-105 59.5
q-60 0 -116 -55z" />
    <glyph glyph-name="c" unicode="c" horiz-adv-x="458" 
d="M343 391q-11 21 -17 31t-18 24.5t-28 20.5t-37 6q-54 0 -92 -50.5t-38 -136.5q0 -104 44.5 -161t105.5 -57q70 0 119 80q8 13 11 17.5t7.5 7.5t10.5 3q3 0 7 -1t9 -7t5 -16q0 -18 -10.5 -44t-31.5 -54t-60 -47t-87 -19q-97 0 -154 75t-57 191q0 123 59 199.5t164 76.5
q77 0 124 -44.5t47 -82.5q0 -21 -13 -31.5t-28 -10.5q-27 0 -42 30z" />
    <glyph glyph-name="d" unicode="d" horiz-adv-x="521" 
d="M466 745v-639q0 -37 -14 -56q-23 -32 -78.5 -47t-106.5 -15q-108 0 -171.5 66.5t-63.5 188.5q0 71 25.5 135t80.5 108t129 44q55 0 109 -33v246q0 13 3.5 17.5t15.5 4.5h51q12 0 16.5 -3.5t3.5 -16.5zM376 129v312q-44 37 -96 37q-69 0 -113.5 -60t-44.5 -151
q0 -102 45.5 -159.5t119.5 -57.5q31 0 50.5 7.5t27 22t9 24t2.5 25.5z" />
    <glyph glyph-name="e" unicode="e" horiz-adv-x="479" 
d="M414 320l-306 -45q6 -100 50 -152.5t105 -52.5q84 0 138 88q11 19 15.5 24t13.5 5q20 0 20 -24q0 -10 -5.5 -28.5t-20.5 -44.5t-36 -48t-57.5 -38t-80.5 -16q-54 0 -104.5 26.5t-81.5 89.5q-32 62 -32 154q0 98 34 161q7 14 17.5 27.5t32 35t57 35t78.5 13.5
q55 0 96 -21.5t60 -53t27.5 -57.5t8.5 -46q0 -13 -5.5 -20.5t-10 -9t-13.5 -2.5zM108 324l239 37q-5 48 -35 80t-72 32q-58 0 -91 -40t-41 -109z" />
    <glyph glyph-name="f" unicode="f" horiz-adv-x="271" 
d="M255 473h-81v-452q0 -13 -4.5 -17t-15.5 -4h-52q-12 0 -15 4.5t-3 17.5v451h-56q-12 0 -15.5 2t-3.5 12q0 22 2.5 26.5t15.5 4.5h57q7 109 31 161q19 41 52.5 67.5t72.5 26.5q20 0 32.5 -10.5t12.5 -28.5q0 -31 -30 -35h-31q-65 0 -65 -105q0 -46 13 -76h83q14 1 17 -4
t3 -28q0 -9 -4.5 -11t-15.5 -2z" />
    <glyph glyph-name="g" unicode="g" horiz-adv-x="479" 
d="M466 475l-85 -20q34 -49 34 -107q0 -84 -55.5 -127t-124.5 -43q-23 0 -61 8q-40 -37 -40 -63q0 -12 7 -19t23.5 -11t30.5 -5.5t41 -2.5l107 -6q160 -11 160 -121q0 -28 -15.5 -59.5t-47.5 -62.5t-92 -51.5t-138 -20.5q-52 0 -92 11q-47 13 -73.5 41t-26.5 64
q0 70 105 137q-21 6 -33.5 10t-28 19.5t-15.5 37.5q0 42 89 118q-46 26 -68 71q-20 40 -20 86q0 76 50 123.5t130 47.5q36 0 78 -14q36 -14 60 -14q9 0 53 7t46 7q13 0 13 -31q0 -7 -11 -10zM167 9q-22 -20 -31.5 -30t-20 -28.5t-10.5 -37.5q0 -44 42 -65.5t102 -21.5
q62 0 117 31.5t55 77.5q0 61 -99 67q-4 0 -41.5 1.5t-70 3t-43.5 2.5zM328 378q-10 51 -44 85q-24 19 -56 19q-40 0 -69.5 -26.5t-29.5 -84.5q0 -63 33 -100t76 -37q38 0 65.5 26t27.5 82q0 18 -3 36z" />
    <glyph glyph-name="h" unicode="h" horiz-adv-x="521" 
d="M372 20v324q0 48 -13 72q-12 23 -36 37t-53 14q-60 0 -121 -56v-387q0 -14 -3.5 -19t-15.5 -5h-53q-11 0 -14.5 4.5t-3.5 16.5v726q0 17 18 18h53q11 0 15 -3.5t4 -14.5v-280q67 63 154 63q155 0 159 -174v-332q0 -15 -3 -19.5t-16 -4.5h-50q-10 1 -13.5 1.5t-5.5 4.5
t-2 14z" />
    <glyph glyph-name="i" unicode="i" horiz-adv-x="208" 
d="M148 499v-481q0 -12 -4 -15t-16 -3h-54q-11 0 -13 3t-2 15v481q0 11 2.5 15t14.5 4h52q12 0 16 -3.5t4 -15.5zM158 662q0 -22 -15 -38.5t-39 -16.5q-25 0 -39.5 15t-14.5 37q0 23 15.5 38t39.5 15q21 0 36.5 -14t16.5 -36z" />
    <glyph glyph-name="j" unicode="j" horiz-adv-x="208" 
d="M153 498v-345q-2 -148 -35 -229q-18 -44 -44 -78t-50.5 -51t-42.5 -25t-27 -8q-23 0 -23 19q0 13 14 22q27 17 46.5 38t32 49.5t20 51t11 62t5 62.5t2.5 71v360q0 13 4 17t16 4h53q11 0 14.5 -4t3.5 -16zM161 662q1 -22 -13.5 -38.5t-39.5 -16.5t-39.5 15t-14.5 37
q0 23 15.5 38t38.5 15t37.5 -14.5t15.5 -35.5z" />
    <glyph glyph-name="k" unicode="k" horiz-adv-x="458" 
d="M428 489l-183 -204l212 -259q8 -11 8 -16q0 -10 -13 -10h-68q-12 0 -16.5 2.5t-13.5 12.5l-206 255v-255q0 -7 -2 -10.5t-5.5 -4t-11.5 -0.5h-53q-11 0 -14 3t-3 13v733q0 16 17 16h53q11 0 15 -2t4 -12v-466l196 215q12 12 17 15t18 3q44 0 52 -1.5t8 -9.5q0 -5 -11 -18
z" />
    <glyph glyph-name="l" unicode="l" horiz-adv-x="208" 
d="M60 18v731q0 10 4.5 13t15.5 3h50q12 0 15.5 -2.5t3.5 -13.5v-731q0 -11 -4 -14.5t-15 -3.5h-51q-12 0 -15.5 3t-3.5 15z" />
    <glyph glyph-name="m" unicode="m" horiz-adv-x="771" 
d="M58 19v402q0 29 4 43t21 26q24 18 69.5 29t89.5 11q103 0 150 -60q16 17 28.5 27t48 21.5t82.5 11.5q46 0 79 -12.5t48.5 -28t24 -42t9.5 -40.5t1 -38v-350q0 -18 -18 -19h-53q-10 0 -14 3.5t-4 15.5v326q0 22 -1 34.5t-6.5 33t-14.5 32t-28.5 20.5t-46.5 9
q-41 0 -69 -23q-19 -17 -23.5 -34.5t-4.5 -47.5v-350q0 -11 -3 -15t-14 -4h-52q-12 0 -16 3t-4 15v336q0 123 -96 123q-98 0 -98 -108v-350q0 -12 -4 -15.5t-16 -3.5h-51q-10 0 -14 3.5t-4 15.5z" />
    <glyph glyph-name="n" unicode="n" horiz-adv-x="521" 
d="M462 365v-345q0 -18 -12 -20h-55q-13 0 -17.5 3.5t-4.5 16.5v336q0 20 -1 31.5t-7 31t-17.5 30.5t-35 20t-56.5 9q-37 0 -61.5 -9.5t-33 -26.5t-11 -27.5t-2.5 -25.5v-369q0 -13 -4.5 -16.5t-16.5 -3.5h-49q-11 -1 -15 3t-4 16v403q0 30 8 45.5t32 27.5q67 35 172 35
q54 0 92.5 -12.5t57 -28t28.5 -42t11.5 -42t1.5 -40.5z" />
    <glyph glyph-name="o" unicode="o" horiz-adv-x="521" 
d="M489 262q2 -108 -60 -191t-167 -83q-107 0 -168.5 80.5t-61.5 189.5q0 111 62.5 191.5t166.5 80.5q45 0 83.5 -17t64 -44t44 -62.5t27 -72t9.5 -72.5zM394 269q-4 98 -44.5 151.5t-94.5 53.5q-59 0 -94.5 -56t-35.5 -146q0 -101 42 -162t99 -61q58 0 95 60t33 160z" />
    <glyph glyph-name="p" unicode="p" horiz-adv-x="521" 
d="M59 -216v604q1 62 12 78q17 25 70 44.5t115 19.5q66 0 114 -23t72.5 -61t35.5 -78.5t11 -84.5q0 -68 -23 -132.5t-78 -113t-132 -48.5q-57 0 -108 35v-241q0 -18 -17 -18h-50q-12 0 -17 4t-5 15zM148 385v-303q55 -33 100 -33q64 0 106.5 58t42.5 159q0 93 -43 151
t-119 58q-31 0 -50 -8t-26.5 -24t-9 -27.5t-1.5 -30.5z" />
    <glyph glyph-name="q" unicode="q" horiz-adv-x="521" 
d="M372 -218v267q-71 -61 -142 -61q-92 0 -144.5 71.5t-52.5 172.5q0 52 15 102.5t44 95.5t79.5 72.5t114.5 27.5q90 0 144 -43q21 -18 26 -36.5t6 -54.5v-614q0 -11 -4 -14t-16 -3h-50q-12 0 -16 2.5t-4 14.5zM372 109v261q0 46 -7 62q-19 44 -83 44q-74 0 -117 -65
t-43 -157q0 -82 37 -139.5t102 -57.5q61 0 111 52z" />
    <glyph glyph-name="r" unicode="r" horiz-adv-x="333" 
d="M149 411v-394q-1 -11 -4.5 -14t-13.5 -3h-51q-12 0 -16 3t-4 14v418q0 27 5 38.5t21 21.5q58 35 159 35q103 0 103 -58q0 -18 -11.5 -30.5t-29.5 -12.5q-9 0 -15.5 3.5t-11.5 7.5t-15 16q-25 25 -55 25q-21 0 -34 -6.5t-18.5 -19.5t-6.5 -21t-2 -23z" />
    <glyph glyph-name="s" unicode="s" horiz-adv-x="417" 
d="M213 312l43 -20q28 -14 42.5 -23t36.5 -27.5t32.5 -44.5t10.5 -59q0 -69 -47 -111q-44 -39 -121 -39q-47 0 -83 13t-54.5 32.5t-27 37t-8.5 30.5q0 20 12.5 31.5t28.5 11.5q23 0 40 -26q5 -8 13 -23q32 -50 86 -50q37 0 57 22.5t20 53.5q0 22 -7.5 39t-25 30t-29 19.5
t-34.5 17.5q-40 19 -59.5 30t-45 31t-36 45t-10.5 58q0 58 41 98.5t118 40.5q76 0 116 -34.5t40 -66.5q0 -17 -10.5 -27.5t-26.5 -10.5q-12 0 -21 5.5t-13 11.5t-10 17q-9 16 -14.5 24t-23 19t-39.5 11q-37 0 -56 -23.5t-19 -49.5t15 -46t29.5 -28.5t39.5 -19.5z" />
    <glyph glyph-name="t" unicode="t" horiz-adv-x="271" 
d="M250 474h-88v-325q1 -53 12 -72q18 -35 60 -35q2 0 13 0.5t13 0.5q20 0 20 -20q0 -17 -26.5 -25t-51.5 -8q-69 0 -105 46q-24 32 -24 95v343h-53q-10 0 -12.5 2.5t-2.5 12.5q0 20 2 24t13 5h53v60q0 20 15 35l46 41q12 11 17 11q11 0 11 -25v-122h87q10 0 13 -2.5
t3 -11.5q0 -21 -2 -25.5t-13 -4.5z" />
    <glyph glyph-name="u" unicode="u" horiz-adv-x="500" 
d="M447 499v-375q-1 -43 -8.5 -64t-33.5 -37q-66 -35 -164 -35q-93 0 -142 39q-46 39 -46 119v354q0 10 3.5 14t14.5 4h52q11 0 15.5 -3.5t4.5 -15.5v-332q0 -20 1 -31t7 -30.5t17 -30t33.5 -19t53.5 -8.5q37 0 59.5 9t31 28t10.5 32t2 38v342q0 18 12 20q3 1 55 1
q12 0 16.5 -4t5.5 -15z" />
    <glyph glyph-name="v" unicode="v" horiz-adv-x="437" 
d="M97 502l135 -379l130 381q4 13 12 14h50q13 0 13 -10q0 -4 -4 -16l-175 -477q-5 -11 -7.5 -13t-11.5 -2h-39q-9 1 -15 16l-181 476q-4 10 -4 14q0 12 14 12h61q11 0 14 -2.5t8 -13.5z" />
    <glyph glyph-name="w" unicode="w" horiz-adv-x="646" 
d="M422 15l-99 322l-99 -322q-4 -10 -7 -12.5t-13 -2.5h-35q-8 0 -13 15l-152 474q-4 15 -4 17q0 12 15 12h55q12 0 16 -3.5t8 -15.5l110 -369l108 369l5 15q2 4 22 4q6 0 8 -2.5t5 -13.5l114 -376l105 373q3 12 6.5 15.5t14.5 3.5q38 0 46 -1.5t8 -9.5q0 -2 -5 -18
l-148 -474q-2 -9 -5 -12t-10 -3h-42q-9 0 -14 15z" />
    <glyph glyph-name="x" unicode="x" horiz-adv-x="417" 
d="M314 15l-109 182l-122 -182q-7 -10 -11 -12.5t-16 -2.5h-48q-8 4 -8 9l2 3q1 4 3.5 7.5t2.5 4.5l157 235l-140 231q-8 14 -8 17q0 11 15 11h60q11 0 14.5 -2.5t9.5 -12.5l103 -166l106 165q8 12 11 13q5 3 53 3q15 0 15 -9q0 -5 -8 -17l-139 -216l153 -250q8 -14 8 -18
q0 -8 -13 -8h-62q-13 0 -17.5 2t-11.5 13z" />
    <glyph glyph-name="y" unicode="y" horiz-adv-x="458" 
d="M453 489l-204 -560q-13 -34 -25.5 -59t-33.5 -52.5t-51.5 -42t-68.5 -14.5q-70 0 -70 47q0 18 11.5 30.5t31.5 12.5q4 0 26.5 -4.5t27.5 -4.5q33 0 58 33.5t53 124.5l-194 489q-6 14 -6 17q0 12 18 12h59q12 0 15 -3t8 -15l141 -385l130 385q6 17 16 18h49q14 0 14 -11
q0 -5 -5 -18z" />
    <glyph glyph-name="z" unicode="z" horiz-adv-x="396" 
d="M365 488l-228 -433h220q15 0 15 -13v-29q0 -13 -17 -13h-318q-16 0 -16 10q0 5 7 18l231 434h-203q-13 0 -15 3q-4 3 -4 38q0 10 4 12t15 3h297q19 0 19 -12q0 -4 -7 -18z" />
    <glyph glyph-name="braceleft" unicode="{" horiz-adv-x="354" 
d="M140 355v-4q17 -4 30 -12t21.5 -16t14.5 -25.5t9 -29t4.5 -40t2 -46t0.5 -57.5v-65q0 -32 1 -50t5 -38.5t13 -31.5t24.5 -20t38.5 -12q8 -1 10.5 -1.5t4.5 -3t2 -7.5q0 -17 -3 -20.5t-18 -3.5q-81 0 -122 46q-23 27 -29 61.5t-6 100.5v97q0 38 -2 60.5t-8.5 46t-21.5 35
t-39 13.5q-10 1 -10 12v15t1 8t3 5t6 1q25 2 40.5 15t21.5 39.5t7.5 46t1.5 55.5v97q0 66 6 100t29 61q41 48 121 48q14 0 18 -2t4 -9q0 -17 -2.5 -21t-14.5 -5q-24 -4 -39.5 -13t-24 -19.5t-12.5 -31.5t-5 -38t-1 -50v-65q0 -41 -0.5 -58.5t-2 -46t-4.5 -40.5t-9 -29
t-14.5 -24.5t-21.5 -15t-30 -12.5z" />
    <glyph glyph-name="bar" unicode="|" horiz-adv-x="229" 
d="M144 750v-1000h-59v1000h59z" />
    <glyph glyph-name="braceright" unicode="}" horiz-adv-x="354" 
d="M133 60v65q0 40 0.5 57.5t2 46t4.5 40t9 29t14.5 25.5t21.5 16t30 12v4q-17 5 -30 12.5t-21.5 15t-14.5 24.5t-9 29t-4.5 40.5t-2 46t-0.5 58.5v65q0 33 -1 50t-5 38t-12.5 31.5t-24 19.5t-39.5 13q-12 1 -14.5 5t-2.5 21q0 7 4 9t18 2q42 0 74 -14q29 -13 46.5 -31
t24.5 -48.5t9 -51t2 -64.5v-97q0 -36 1.5 -55.5t7.5 -46t21.5 -39.5t40.5 -15q10 -1 10 -10q0 -30 -10 -31q-20 -2 -33.5 -11t-21 -21t-11 -34t-4.5 -40t-1 -49v-97q0 -66 -6 -100.5t-29 -61.5q-41 -46 -122 -46q-15 0 -18 3.5t-3 20.5q0 7 3 8.5t14 3.5q23 3 38.5 12
t24.5 20t13 31.5t5 38.5t1 50z" />
    <glyph glyph-name="asciitilde" unicode="~" horiz-adv-x="729" 
d="M564 356l31 -55q-61 -77 -128 -77q-31 0 -96 31q-49 24 -70 31.5t-43 7.5q-27 0 -43 -12.5t-48 -52.5l-33 54q54 80 123 80q39 0 113 -35q75 -35 97 -35q51 0 97 63z" />
    <glyph glyph-name="exclamdown" unicode="&#xa1;" horiz-adv-x="292" 
d="M62 654q1 26 20 42t44 16q28 0 45 -19.5t17 -42.5q0 -24 -18 -43t-45 -19t-45.5 19t-17.5 47zM72 22l27 443q1 11 5 14t15 3q22 0 27 -2.5t6 -15.5l25 -442q1 -15 -3.5 -18.5t-17.5 -3.5h-62q-9 0 -13 1t-6.5 5.5t-2.5 15.5z" />
    <glyph glyph-name="cent" unicode="&#xa2;" horiz-adv-x="458" 
d="M262 479v-418q79 2 119 79q12 27 16.5 33t13.5 6q7 0 13.5 -5.5t6.5 -18.5q0 -44 -43 -100q-47 -61 -126 -67v-65q0 -10 -3.5 -12t-19.5 -2q-8 0 -10 3t-2 12v64q-93 11 -144 84.5t-51 181.5q0 110 53.5 188.5t141.5 88.5v69q0 8 2 10t10 2q12 0 16 -0.5t5.5 -3t1.5 -9.5
v-68q74 -1 122 -45.5t48 -80.5q0 -18 -12 -28t-26 -10q-17 0 -24.5 9t-18.5 36q-14 31 -32.5 46t-56.5 21zM227 67v411q-38 -11 -61 -31q-57 -53 -57 -159q0 -71 24 -128q32 -76 94 -93z" />
    <glyph glyph-name="sterling" unicode="&#xa3;" horiz-adv-x="583" 
d="M416 366h-143q19 -63 19 -126q0 -17 -2 -39q20 -14 44 -38q33 -31 49 -45.5t43.5 -31t47.5 -16.5q29 0 54 30q13 18 25 18q20 0 20 -22q0 -38 -31 -74.5t-84 -36.5q-60 0 -116 54q-6 5 -36.5 37.5t-32.5 34.5q-9 -33 -24 -59q-42 -67 -113 -67q-52 0 -82.5 35.5
t-30.5 84.5q0 61 39 103t101 42q36 0 74 -19q-2 49 -36 135h-118q-12 1 -14.5 5t-2.5 23q0 10 3.5 12.5t14.5 2.5h97q-41 75 -41 142q0 77 53.5 123.5t138.5 46.5q48 0 85.5 -14.5t57.5 -34.5t33 -44.5t16.5 -40t3.5 -24.5q0 -23 -12.5 -34.5t-29.5 -11.5q-13 0 -21 4
t-13.5 14.5t-8 17.5t-6.5 24q-10 43 -37.5 67.5t-68.5 24.5q-45 0 -71 -29.5t-26 -77.5q0 -28 5 -51.5t25 -101.5h153q8 0 11 -0.5t5 -4t2 -10.5q0 -19 -2.5 -23t-16.5 -5zM235 151q-46 42 -84 42q-34 0 -52 -21t-18 -51q0 -34 20.5 -52.5t45.5 -18.5q62 0 88 101z" />
    <glyph glyph-name="currency" unicode="&#xa4;" horiz-adv-x="667" 
d="M610 569l-74 -73q16 -21 24.5 -35t19 -48.5t10.5 -74.5q0 -84 -55 -156l74 -75l-46 -45l-73 75q-26 -18 -41.5 -27t-47 -18t-68.5 -9t-67 8.5t-46.5 18t-42.5 27.5l-74 -73l-45 45l74 73q-19 29 -27.5 44t-18 46.5t-9.5 67.5q0 84 55 156l-73 73l45 45l73 -73
q24 17 39.5 26.5t48 19t70.5 9.5q37 0 70.5 -10t47.5 -18.5t38 -25.5l73 73zM529 340q0 87 -57.5 142t-135.5 55q-82 0 -140 -54.5t-58 -143.5q0 -82 56.5 -139.5t140.5 -57.5q81 0 137.5 56t56.5 142z" />
    <glyph glyph-name="yen" unicode="&#xa5;" horiz-adv-x="542" 
d="M319 232v-215q0 -12 -4 -14.5t-16 -2.5h-65q-10 0 -13 3.5t-3 13.5v215h-156q-10 0 -13.5 4t-3.5 14q0 24 2.5 29.5t14.5 5.5h156v38l-22 38h-134q-10 0 -13.5 4t-3.5 14q0 24 2.5 29.5t14.5 5.5h102l-157 265q-7 11 -7 16q0 11 15 11h72q18 0 24 -14l172 -295l171 293
q10 15 19 16h56q12 0 12 -11q0 -5 -6 -16l-159 -265h94q10 0 13.5 -3t3.5 -12q0 -27 -2 -32.5t-14 -5.5h-127l-25 -43v-33h151q10 0 13.5 -3t3.5 -12q0 -26 -2 -32t-14 -6h-152z" />
    <glyph glyph-name="brokenbar" unicode="&#xa6;" horiz-adv-x="229" 
d="M85 -175v350h60v-350h-60zM145 325h-60v350h60v-350z" />
    <glyph glyph-name="section" unicode="&#xa7;" horiz-adv-x="458" 
d="M212 126l-45 20q-26 12 -43.5 22t-42 29.5t-37.5 47.5t-13 62q0 84 100 151q-17 17 -25.5 28t-19.5 37t-11 54q0 62 41.5 103t115.5 41q77 0 121 -40t44 -81q0 -23 -12.5 -33.5t-26.5 -10.5q-28 0 -45 40q-6 15 -11 24t-15 22t-24.5 19.5t-32.5 6.5q-35 0 -54.5 -23
t-19.5 -55q0 -26 9 -45t31 -34.5t38.5 -24t52.5 -24.5q22 -10 35 -16.5t36 -21t35.5 -29.5t23 -38t10.5 -50q0 -76 -92 -152q20 -16 31.5 -27t27 -41.5t15.5 -66.5q0 -66 -44 -113t-121 -47q-87 0 -137 47.5t-50 94.5q0 23 13.5 35.5t30.5 12.5q15 0 25 -8.5t15 -18.5
t17 -39q26 -65 90 -65q30 0 53.5 20.5t23.5 61.5q0 25 -8.5 44t-29 35t-33.5 23.5t-42 22.5zM293 180q61 52 61 106q0 21 -9 38.5t-28 30.5t-35.5 21.5t-43.5 19.5q-45 20 -72 36q-59 -50 -59 -105q0 -21 7.5 -37.5t24.5 -30t26.5 -19t31.5 -17.5q47 -20 96 -43z" />
    <glyph glyph-name="dieresis" unicode="&#xa8;" 
d="M92 664q0 -24 -15 -40t-39 -16t-40 15.5t-16 39.5q0 25 16.5 40t39.5 15t38.5 -15t15.5 -39zM269 664q0 -24 -15.5 -40t-39.5 -16q-23 0 -39 15.5t-16 39.5q0 25 16 40t39 15q24 0 39.5 -15t15.5 -39z" />
    <glyph glyph-name="copyright" unicode="&#xa9;" horiz-adv-x="833" 
d="M567 253l42 -35q-12 -17 -24 -29q-63 -65 -165 -65q-96 0 -161.5 65.5t-65.5 162.5q0 103 67.5 168.5t162.5 65.5q107 0 186 -92l-42 -39q-18 21 -32 34t-44.5 27t-64.5 14q-73 0 -124 -49.5t-51 -126.5q0 -72 50 -123t124 -51q36 0 67 14t44.5 26.5t30.5 32.5zM772 351
q-1 -148 -103.5 -251t-252.5 -103q-144 0 -249.5 101.5t-105.5 254.5q0 150 104 253t252 103q152 0 254 -104.5t101 -253.5zM740 352q0 136 -92.5 230.5t-229.5 94.5t-231 -95t-94 -228q0 -138 95 -231.5t229 -93.5q137 0 230 95t93 228z" />
    <glyph glyph-name="ordfeminine" unicode="&#xaa;" horiz-adv-x="271" 
d="M241 614v-165q-1 -23 -6 -35.5t-22 -21.5q-30 -17 -88 -17q-13 0 -25 2t-34.5 8.5t-36.5 26t-14 49.5q0 26 11 45t38 33.5t50 22.5t70 22q0 62 -6 74q-11 21 -39 21q-33 0 -51 -39q-9 -28 -29 -28q-10 0 -18 7t-8 21q0 30 32.5 52.5t81.5 22.5q33 0 54 -10.5t28.5 -30
t9.5 -31t2 -29.5zM184 455v96q-33 -11 -47 -16t-31.5 -15t-24 -22t-6.5 -29q0 -7 2 -15t7.5 -18.5t18.5 -17t33 -6.5q22 0 33.5 8t13 15.5t1.5 19.5z" />
    <glyph glyph-name="guillemotleft" unicode="&#xab;" horiz-adv-x="375" 
d="M280 253l53 -100q6 -12 6 -17q0 -7 -5 -12t-11 -5q-9 0 -22 17q-60 90 -97 124q-27 24 -27 32q0 9 17 24q48 45 92 108q18 25 23 30.5t11 5.5t11.5 -4.5t5.5 -12.5t-5 -16l-53 -99q-13 -22 -13 -36q0 -9 14 -39zM130 253l53 -100q5 -8 5 -17q0 -17 -16 -17q-10 0 -21 17
q-56 85 -97 124q-27 24 -27 33q0 8 16 23q46 40 93 108q24 34 29 35q2 1 5 1q6 0 11.5 -4.5t5.5 -12.5t-5 -16l-53 -99q-13 -22 -13 -36q0 -13 14 -39z" />
    <glyph glyph-name="logicalnot" unicode="&#xac;" horiz-adv-x="667" 
d="M607 0v262h-607v59h607h60v-321h-60z" />
    <glyph glyph-name="registered" unicode="&#xae;" horiz-adv-x="833" 
d="M274 577h137q73 0 103 -11q33 -12 50.5 -39.5t17.5 -60.5q0 -44 -28 -72.5t-71 -34.5q34 -12 49 -33.5t22 -64.5q6 -41 9 -55.5t8.5 -34t15.5 -39.5h-75q-14 30 -24 97q-10 76 -34.5 93t-114.5 17v-207h-65v445zM340 527v-136h74q19 0 30.5 1t31 7t30 21.5t10.5 40.5
q0 31 -21 49q-13 12 -31 14.5t-64 2.5h-60zM773 351q-1 -148 -104 -251t-253 -103q-143 0 -249 101t-106 255q0 151 104.5 253.5t250.5 102.5q153 0 255.5 -105t101.5 -253zM741 352q1 135 -92 230t-231 95q-136 0 -230.5 -95t-94.5 -229q0 -136 94.5 -230t228.5 -94
q137 0 230.5 93.5t94.5 229.5z" />
    <glyph glyph-name="macron" unicode="&#xaf;" 
d="M7 693h234q13 0 17 -2.5t4 -15.5v-34q-1 -11 -18 -11h-234q-18 0 -20 10q-1 2 -1 37q0 16 18 16z" />
    <glyph glyph-name="macron" unicode="&#x2c9;" 
d="M7 693h234q13 0 17 -2.5t4 -15.5v-34q-1 -11 -18 -11h-234q-18 0 -20 10q-1 2 -1 37q0 16 18 16z" />
    <glyph glyph-name="degree" unicode="&#xb0;" horiz-adv-x="354" 
d="M177 748q61 0 104 -43t43 -104t-43 -104t-104 -43t-104 43t-43 104t43 104t104 43zM177 688q-37 0 -62 -25.5t-25 -61.5t25 -61.5t62 -25.5q36 0 61.5 25.5t25.5 61.5t-25.5 61.5t-61.5 25.5z" />
    <glyph glyph-name="plusminus" unicode="&#xb1;" horiz-adv-x="500" 
d="M281 342v-190h-59v190h-191v59h191v190h59v-190h188v-59h-188zM469 59v-59h-438v59h438z" />
    <glyph glyph-name="twosuperior" unicode="&#xb2;" horiz-adv-x="333" 
d="M225 466l-115 -146h167q9 0 12 -3q3 -2 3 -37q0 -10 -3 -12.5t-12 -2.5h-231q-15 0 -15 11q0 4 7 15l131 170q58 77 58 126q0 33 -19 55t-49 22q-56 0 -73 -67q-3 -11 -4.5 -15.5t-6 -9.5t-11.5 -5q-20 0 -20 25q0 47 34.5 85.5t91.5 38.5q52 0 84.5 -33.5t32.5 -80.5
q0 -56 -62 -136z" />
    <glyph glyph-name="threesuperior" unicode="&#xb3;" horiz-adv-x="333" 
d="M203 519q90 -41 90 -127q0 -21 -7 -43.5t-22.5 -44t-44 -35t-66.5 -13.5q-57 0 -91.5 30t-34.5 59q0 13 8 21.5t20 8.5q13 0 26 -20q10 -18 16 -27.5t23 -20.5t39 -11q34 0 54.5 25t20.5 57q0 79 -105 106q-19 4 -19 15q0 9 11 14q19 7 30 12t27.5 16t24.5 27t8 36
q0 24 -16 43.5t-46 19.5q-47 0 -69 -54q-9 -25 -21 -25q-18 0 -18 22q0 37 33.5 71.5t87.5 34.5q46 0 77 -28t31 -70q0 -61 -67 -99z" />
    <glyph glyph-name="acute" unicode="&#xb4;" 
d="M182 648l-97 -69q-12 -7 -17 -7q-7 0 -13 6t-6 17q0 12 10 22l88 89q15 15 26 15q12 0 19.5 -10.5t7.5 -25.5q0 -23 -18 -37z" />
    <glyph glyph-name="mu" unicode="&#xb5;" horiz-adv-x="500" 
d="M447 499v-375q-1 -43 -8.5 -64t-33.5 -37q-66 -35 -163 -35q-60 0 -99 14v-220q0 -17 -17 -17h-52q-21 -1 -21 18v717q0 10 3.5 14t15.5 4h51q11 0 15.5 -3.5t4.5 -15.5v-332q0 -20 1 -31t7 -30.5t17 -30t33.5 -19t53.5 -8.5q37 0 59.5 9t31 28t10.5 32t2 38v342
q0 18 12 20q3 1 55 1q12 0 16.5 -4t5.5 -15z" />
    <glyph glyph-name="mu" unicode="&#x3bc;" horiz-adv-x="500" 
d="M447 499v-375q-1 -43 -8.5 -64t-33.5 -37q-66 -35 -163 -35q-60 0 -99 14v-220q0 -17 -17 -17h-52q-21 -1 -21 18v717q0 10 3.5 14t15.5 4h51q11 0 15.5 -3.5t4.5 -15.5v-332q0 -20 1 -31t7 -30.5t17 -30t33.5 -19t53.5 -8.5q37 0 59.5 9t31 28t10.5 32t2 38v342
q0 18 12 20q3 1 55 1q12 0 16.5 -4t5.5 -15z" />
    <glyph glyph-name="paragraph" unicode="&#xb6;" horiz-adv-x="667" 
d="M310 706h221v-44h-33v-829h-46v829h-157v-829h-46v497q-25 4 -37 7t-34.5 15.5t-40.5 31.5q-47 50 -47 128q0 71 39 120q25 32 61.5 49.5t60.5 20.5t59 4z" />
    <glyph glyph-name="periodcentered" unicode="&#xb7;" 
d="M186 271q-1 -26 -19 -42.5t-43 -16.5t-43.5 17t-18.5 45q0 29 19.5 45t42.5 16q26 0 44.5 -18.5t17.5 -45.5z" />
    <glyph glyph-name="periodcentered" unicode="&#x2219;" 
d="M186 271q-1 -26 -19 -42.5t-43 -16.5t-43.5 17t-18.5 45q0 29 19.5 45t42.5 16q26 0 44.5 -18.5t17.5 -45.5z" />
    <glyph glyph-name="cedilla" unicode="&#xb8;" 
d="M103 0h46l-16 -69q43 3 66.5 -18t23.5 -50q0 -34 -30 -59t-78 -25q-26 0 -57.5 9.5t-31.5 25.5q0 3 1 6t5 6t10 3q1 0 20 -5q28 -5 44 -5q25 0 41.5 11t16.5 33q0 32 -50 36q-9 1 -13 2t-6.5 5t-1.5 13z" />
    <glyph glyph-name="onesuperior" unicode="&#xb9;" horiz-adv-x="333" 
d="M159 278v342q-26 -12 -53.5 -20.5t-42 -11.5t-19.5 -3q-19 0 -19 17q0 10 6 13.5t25 8.5q73 20 119 68q18 19 26 19q15 0 15 -18v-415q0 -13 -14 -13q-43 0 -43 13z" />
    <glyph glyph-name="ordmasculine" unicode="&#xba;" horiz-adv-x="333" 
d="M310 547q2 -68 -37 -120t-105 -52q-67 0 -105.5 50.5t-38.5 118.5q0 70 39.5 120.5t103.5 50.5q68 0 104.5 -52.5t38.5 -115.5zM248 551q-3 60 -27.5 93t-56.5 33q-36 0 -57.5 -34.5t-21.5 -89.5q0 -62 25.5 -99.5t59.5 -37.5q36 0 58.5 36.5t19.5 98.5z" />
    <glyph glyph-name="guillemotright" unicode="&#xbb;" horiz-adv-x="375" 
d="M94 326l-52 100q-6 12 -6 17q0 7 5 12t11 5q9 0 22 -17q54 -83 97 -123q27 -26 27 -33q0 -9 -17 -24q-49 -46 -92 -108q-18 -25 -23 -30.5t-11 -5.5q-7 0 -12 4.5t-5 12.5t5 16l53 99q13 22 13 36q0 11 -15 39zM245 326l-53 100q-6 10 -6 17t5 12t11 5q11 0 22 -17
q59 -88 97 -123q19 -18 23 -22.5t4 -11.5q0 -8 -17 -23q-48 -45 -92 -108q-18 -25 -23 -30.5t-11 -5.5t-11.5 4.5t-5.5 12.5t5 16l53 99q13 22 13 36q0 9 -14 39z" />
    <glyph glyph-name="onequarter" unicode="&#xbc;" horiz-adv-x="792" 
d="M159 278v342q-26 -12 -53.5 -20.5t-42 -11t-19.5 -2.5q-19 0 -19 16q0 10 5.5 13.5t25.5 9.5q45 13 70 28t49 39q18 19 26 19q15 0 15 -18v-415q0 -13 -14 -13q-43 0 -43 13zM698 420v-280h42q8 -1 8 -14q0 -20 -3 -22q-2 -2 -47 -2v-92q0 -12 -8 -13h-36q-12 0 -12 13
v92h-148q-16 0 -16 13q0 4 8 18l170 299q7 14 21 14q21 0 21 -26zM533 140h109v205zM583 679l-350 -661q-7 -13 -10.5 -15.5t-14.5 -2.5h-12.5t-7.5 1t-5 3t-1 5q0 5 6 17l353 662q6 12 10 15t14 3q18 0 22 -1t4 -7q0 -4 -8 -19z" />
    <glyph glyph-name="onehalf" unicode="&#xbd;" horiz-adv-x="792" 
d="M159 277v343q-26 -12 -53.5 -20.5t-42 -11.5t-19.5 -3q-19 0 -19 17q0 10 5.5 13.5t25.5 9.5q73 19 119 67q18 19 26 19q15 0 15 -18v-416q0 -12 -14 -12q-30 0 -36.5 1.5t-6.5 10.5zM683 201l-115 -146h167q9 0 12 -3q3 -2 3 -37q0 -10 -3 -12.5t-12 -2.5h-231
q-15 0 -15 11q0 4 7 15l131 170q58 77 58 126q0 33 -19 55t-50 22q-56 0 -72 -67q-3 -11 -4.5 -15.5t-6.5 -9.5t-12 -5q-19 0 -19 25q0 47 34.5 85.5t91.5 38.5q52 0 84.5 -33.5t32.5 -80.5q0 -56 -62 -136zM584 679l-351 -662q-7 -12 -10.5 -14.5t-14.5 -2.5h-12.5t-7 1
t-4.5 3t-1 5q0 5 6 17l353 662q5 12 9.5 15t14.5 3q18 0 21.5 -1t3.5 -7q0 -4 -7 -19z" />
    <glyph glyph-name="threequarters" unicode="&#xbe;" horiz-adv-x="792" 
d="M203 519q90 -41 90 -127q0 -21 -7 -43.5t-22.5 -44t-44 -35t-66.5 -13.5q-57 0 -91.5 30t-34.5 59q0 13 8 21.5t20 8.5q13 0 26 -20q10 -18 16 -27.5t23 -20.5t39 -11q34 0 54.5 25t20.5 57q0 79 -105 106q-19 4 -19 15q0 9 11 14q19 7 30 12t27.5 16t24.5 27t8 36
q0 24 -16 43.5t-46 19.5q-47 0 -69 -54q-9 -25 -21 -25q-18 0 -18 22q0 37 33.5 71.5t87.5 34.5q46 0 77 -28t31 -70q0 -61 -67 -99zM698 420v-280h42q8 -1 8 -14q0 -20 -3 -22q-2 -2 -47 -2v-92q0 -12 -8 -13h-36q-12 0 -12 13v92h-148q-16 0 -16 13q0 4 8 18l170 299
q7 14 21 14q21 0 21 -26zM533 140h109v205zM605 679l-351 -661q-7 -13 -10.5 -15.5t-13.5 -2.5q-18 0 -22 1t-4 8q0 3 6 17l353 662q8 18 24 18q26 0 26 -8q0 -4 -8 -19z" />
    <glyph glyph-name="questiondown" unicode="&#xbf;" horiz-adv-x="417" 
d="M234 462l12 -147q1 -18 -3 -25.5t-22 -21.5q-33 -23 -48.5 -36t-31 -39t-15.5 -57q0 -36 21.5 -65.5t65.5 -29.5q22 0 38 7.5t24.5 22t12 22.5t7.5 21q5 17 8 25.5t13 17t24 8.5q15 0 29 -12t14 -36q0 -51 -47 -91.5t-131 -40.5q-80 0 -125 41t-45 98q0 29 13 55.5
t24.5 38.5t33.5 33q49 47 63.5 81.5t15.5 114.5q0 16 1 22t5 9t14 3q19 0 23.5 -2.5t5.5 -16.5zM147 654q1 26 19.5 42t43.5 16q27 0 44 -19.5t17 -42.5q0 -25 -17.5 -43.5t-44.5 -18.5t-45.5 19.5t-16.5 46.5z" />
    <glyph glyph-name="Agrave" unicode="&#xc0;" horiz-adv-x="604" 
d="M496 15l-99 263h-215l-97 -262q-3 -8 -6 -11.5t-5.5 -4t-10.5 -0.5h-47q-16 0 -16 9l2 7q3 8 3 9l259 666q4 10 7.5 12.5t11.5 2.5h43q9 -1 14 -13l260 -668q4 -12 4 -16q0 -9 -14 -9h-69q-13 0 -17 2t-8 13zM203 335h173l-86 239zM214 910l94 -97q12 -12 12 -26
q0 -11 -5.5 -18t-13.5 -7t-18 8l-106 75q-20 18 -20 40q0 17 9.5 28t21.5 11t26 -14z" />
    <glyph glyph-name="Aacute" unicode="&#xc1;" horiz-adv-x="604" 
d="M496 15l-99 263h-215l-97 -262q-3 -8 -6 -11.5t-5.5 -4t-10.5 -0.5h-47q-16 0 -16 9l2 7q3 8 3 9l259 666q4 10 7.5 12.5t11.5 2.5h43q9 -1 14 -13l260 -668q4 -12 4 -16q0 -9 -14 -9h-69q-13 0 -17 2t-8 13zM203 335h173l-86 239zM426 845l-106 -75q-10 -8 -18 -8
t-13.5 7t-5.5 18q0 14 12 26l94 97q14 14 26 14t21.5 -11t9.5 -28q0 -22 -20 -40z" />
    <glyph glyph-name="Acircumflex" unicode="&#xc2;" horiz-adv-x="604" 
d="M496 15l-99 263h-215l-97 -262q-3 -8 -6 -11.5t-5.5 -4t-10.5 -0.5h-47q-16 0 -16 9l2 7q3 8 3 9l259 666q4 10 7.5 12.5t11.5 2.5h43q9 -1 14 -13l260 -668q4 -12 4 -16q0 -9 -14 -9h-69q-13 0 -17 2t-8 13zM203 335h173l-86 239zM267 821l-82 -53q-9 -9 -17 -9
q-5 0 -9 5.5t-4 12.5q0 10 17 27q58 52 90 87q25 25 34 25t27 -19q40 -44 90 -83q28 -21 28 -35q0 -18 -14 -18q-3 0 -17 7l-83 55q-24 14 -30 14q-9 0 -30 -16z" />
    <glyph glyph-name="Atilde" unicode="&#xc3;" horiz-adv-x="604" 
d="M496 15l-99 263h-215l-97 -262q-3 -8 -6 -11.5t-5.5 -4t-10.5 -0.5h-47q-16 0 -16 9l2 7q3 8 3 9l259 666q4 10 7.5 12.5t11.5 2.5h43q9 -1 14 -13l260 -668q4 -12 4 -16q0 -9 -14 -9h-69q-13 0 -17 2t-8 13zM203 335h173l-86 239zM290 795q-25 17 -35.5 22t-24.5 5
q-25 0 -43 -20q-16 -22 -20 -26.5t-11 -4.5q-16 0 -16 21q0 25 24.5 58.5t72.5 33.5q31 0 71 -28q42 -28 66 -28q25 0 44 23q13 19 17 23t10 4q16 0 16 -19q0 -29 -23.5 -61.5t-70.5 -32.5q-15 0 -29 4.5t-21.5 9t-26.5 16.5z" />
    <glyph glyph-name="Adieresis" unicode="&#xc4;" horiz-adv-x="604" 
d="M496 15l-99 263h-215l-97 -262q-3 -8 -6 -11.5t-5.5 -4t-10.5 -0.5h-47q-16 0 -16 9l2 7q3 8 3 9l259 666q4 10 7.5 12.5t11.5 2.5h43q9 -1 14 -13l260 -668q4 -12 4 -16q0 -9 -14 -9h-69q-13 0 -17 2t-8 13zM203 335h173l-86 239zM266 841q0 -23 -14.5 -40.5
t-42.5 -17.5q-23 0 -40.5 15t-17.5 41t18 41.5t41 15.5q22 0 39 -15t17 -40zM449 841q0 -23 -15 -40.5t-42 -17.5q-23 0 -40.5 15t-17.5 41t18 41.5t41 15.5q22 0 39 -15t17 -40z" />
    <glyph glyph-name="Aring" unicode="&#xc5;" horiz-adv-x="604" 
d="M496 15l-99 263h-215l-97 -262q-3 -8 -6 -11.5t-5.5 -4t-10.5 -0.5h-47q-16 0 -16 9l2 7q3 8 3 9l259 666q4 10 7.5 12.5t11.5 2.5h43q9 -1 14 -13l260 -668q4 -12 4 -16q0 -9 -14 -9h-69q-13 0 -17 2t-8 13zM203 335h173l-86 239zM385 841q2 -37 -21 -63t-61 -26
q-37 0 -61.5 25t-24.5 60q0 34 25 59t61 25q35 0 57.5 -23.5t24.5 -56.5zM342 838q-1 16 -11 28t-29 12q-18 0 -30 -11.5t-12 -29.5t11.5 -30t29.5 -12q19 0 30.5 12.5t10.5 30.5z" />
    <glyph glyph-name="AE" unicode="&#xc6;" horiz-adv-x="812" 
d="M469 340l55 -275h240q10 0 13 -3.5t3 -13.5q0 -34 -2.5 -41t-15.5 -7h-305q-13 0 -17 2t-7 13l-49 255h-193l-105 -254q-6 -16 -22 -16h-47q-17 0 -17 13q0 5 6 18l284 655q6 13 10.5 16.5t18.5 3.5h367q10 0 13 -2.5t3 -9.5q1 -4 1 -40q0 -10 -3 -13t-14 -3h-279
l50 -236h229q14 0 16 -9q1 -4 1 -40q0 -13 -17 -13h-217zM215 327h158l-51 265z" />
    <glyph glyph-name="Ccedilla" unicode="&#xc7;" horiz-adv-x="604" 
d="M304 -81l8 69q-76 11 -132.5 49.5t-86.5 93.5t-44 111.5t-14 115.5q0 67 18.5 129t55 115.5t101 86t147.5 32.5q101 0 166 -47t65 -93q0 -20 -13.5 -33t-32.5 -13q-13 0 -22.5 6t-14 12t-11.5 17q-57 90 -146 90t-149 -77t-60 -203q0 -140 68 -231.5t174 -91.5
q71 0 141 46q25 16 34 16t15.5 -7t6.5 -17q0 -13 -14.5 -30.5t-41 -36t-71 -31t-95.5 -12.5l-12 -53q43 3 66.5 -18.5t23.5 -49.5q0 -34 -30 -59.5t-78 -25.5q-26 0 -57.5 9.5t-31.5 25.5q0 15 15 15q1 0 20 -5q28 -5 45 -5q24 0 41 11.5t17 32.5q0 33 -52 36q-11 1 -15.5 5
t-3.5 15z" />
    <glyph glyph-name="Egrave" unicode="&#xc8;" horiz-adv-x="479" 
d="M392 338h-228v-274h270q8 0 11 -0.5t5.5 -4t2.5 -11.5v-32q0 -10 -4.5 -13t-14.5 -3h-348q-12 0 -16 3t-4 15v664q0 13 4 18.5t16 5.5h348q19 0 19 -15q0 -35 -1 -38q-1 -11 -18 -11h-270v-241h228q7 0 10 -0.5t6 -4t3 -10.5q0 -36 -1 -39q-2 -9 -18 -9zM162 910l94 -97
q12 -12 12 -26q0 -11 -5.5 -18t-13.5 -7t-18 8l-106 75q-20 18 -20 40q0 17 9.5 28t21.5 11t26 -14z" />
    <glyph glyph-name="Eacute" unicode="&#xc9;" horiz-adv-x="479" 
d="M392 338h-228v-274h270q8 0 11 -0.5t5.5 -4t2.5 -11.5v-32q0 -10 -4.5 -13t-14.5 -3h-348q-12 0 -16 3t-4 15v664q0 13 4 18.5t16 5.5h348q19 0 19 -15q0 -35 -1 -38q-1 -11 -18 -11h-270v-241h228q7 0 10 -0.5t6 -4t3 -10.5q0 -36 -1 -39q-2 -9 -18 -9zM374 845
l-106 -75q-10 -8 -18 -8t-13.5 7t-5.5 18q0 14 12 26l94 97q14 14 26 14t21.5 -11t9.5 -28q0 -22 -20 -40z" />
    <glyph glyph-name="Ecircumflex" unicode="&#xca;" horiz-adv-x="479" 
d="M392 338h-228v-274h270q8 0 11 -0.5t5.5 -4t2.5 -11.5v-32q0 -10 -4.5 -13t-14.5 -3h-348q-12 0 -16 3t-4 15v664q0 13 4 18.5t16 5.5h348q19 0 19 -15q0 -35 -1 -38q-1 -11 -18 -11h-270v-241h228q7 0 10 -0.5t6 -4t3 -10.5q0 -36 -1 -39q-2 -9 -18 -9zM215 821l-82 -53
q-9 -9 -17 -9q-5 0 -9 5.5t-4 12.5q0 10 17 27q58 52 90 87q25 25 34 25t27 -19q40 -44 90 -83q28 -21 28 -35q0 -18 -14 -18q-3 0 -17 7l-83 55q-24 14 -30 14q-9 0 -30 -16z" />
    <glyph glyph-name="Edieresis" unicode="&#xcb;" horiz-adv-x="479" 
d="M392 338h-228v-274h270q8 0 11 -0.5t5.5 -4t2.5 -11.5v-32q0 -10 -4.5 -13t-14.5 -3h-348q-12 0 -16 3t-4 15v664q0 13 4 18.5t16 5.5h348q19 0 19 -15q0 -35 -1 -38q-1 -11 -18 -11h-270v-241h228q7 0 10 -0.5t6 -4t3 -10.5q0 -36 -1 -39q-2 -9 -18 -9zM215 841
q0 -23 -14.5 -40.5t-42.5 -17.5q-23 0 -40.5 15t-17.5 41t18 41.5t41 15.5q22 0 39 -15t17 -40zM398 841q0 -23 -15 -40.5t-42 -17.5q-23 0 -40.5 15t-17.5 41t18 41.5t41 15.5q22 0 39 -15t17 -40z" />
    <glyph glyph-name="Igrave" unicode="&#xcc;" horiz-adv-x="229" 
d="M164 688v-668q0 -13 -4 -16.5t-16 -3.5h-60q-10 0 -14.5 3.5t-4.5 16.5v666q0 12 4 16.5t15 3.5h60q11 0 15.5 -3.5t4.5 -14.5zM27 910l94 -97q12 -12 12 -26q0 -11 -5.5 -18t-13.5 -7t-18 8l-106 75q-20 18 -20 40q0 17 9.5 28t21.5 11t26 -14z" />
    <glyph glyph-name="Iacute" unicode="&#xcd;" horiz-adv-x="229" 
d="M164 688v-668q0 -13 -4 -16.5t-16 -3.5h-60q-10 0 -14.5 3.5t-4.5 16.5v666q0 12 4 16.5t15 3.5h60q11 0 15.5 -3.5t4.5 -14.5zM239 845l-106 -75q-10 -8 -18 -8t-13.5 7t-5.5 18q0 14 12 26l94 97q14 14 26 14t21.5 -11t9.5 -28q0 -22 -20 -40z" />
    <glyph glyph-name="Icircumflex" unicode="&#xce;" horiz-adv-x="229" 
d="M164 688v-668q0 -13 -4 -16.5t-16 -3.5h-60q-10 0 -14.5 3.5t-4.5 16.5v666q0 12 4 16.5t15 3.5h60q11 0 15.5 -3.5t4.5 -14.5zM80 821l-82 -53q-9 -9 -17 -9q-5 0 -9 5.5t-4 12.5q0 10 17 27q58 52 90 87q25 25 34 25t27 -19q40 -44 90 -83q28 -21 28 -35q0 -18 -14 -18
q-3 0 -17 7l-83 55q-24 14 -30 14q-9 0 -30 -16z" />
    <glyph glyph-name="Idieresis" unicode="&#xcf;" horiz-adv-x="229" 
d="M164 688v-668q0 -13 -4 -16.5t-16 -3.5h-60q-10 0 -14.5 3.5t-4.5 16.5v666q0 12 4 16.5t15 3.5h60q11 0 15.5 -3.5t4.5 -14.5zM80 841q0 -23 -14.5 -40.5t-42.5 -17.5q-23 0 -40.5 15t-17.5 41t18 41.5t41 15.5q22 0 39 -15t17 -40zM263 841q0 -23 -15 -40.5t-42 -17.5
q-23 0 -40.5 15t-17.5 41t18 41.5t41 15.5q22 0 39 -15t17 -40z" />
    <glyph glyph-name="Eth" unicode="&#xd0;" horiz-adv-x="667" 
d="M66 26v331h-50q-10 0 -12.5 1t-3.5 7v42q0 10 3 12.5t13 2.5h50v246q0 15 3 20t12 8q47 17 159 17q105 0 184 -33t122.5 -87.5t64 -115t20.5 -125.5q0 -165 -108 -262q-109 -97 -307 -97q-94 0 -134 10q-16 5 -16 23zM165 647v-225h194q10 0 13 -3q2 -2 2 -43
q0 -10 -2.5 -13t-13.5 -3h-193v-301q19 -3 52 -3q155 0 231.5 79.5t76.5 219.5q0 132 -70 210q-77 87 -227 87q-33 0 -63 -5z" />
    <glyph glyph-name="Ntilde" unicode="&#xd1;" horiz-adv-x="688" 
d="M168 691l376 -521v517q0 17 10 19h52q9 0 12 -3.5t3 -14.5v-670q0 -12 -3.5 -15t-13.5 -3h-38q-11 1 -22 14l-399 554v-549q0 -17 -9 -18q-2 -1 -52 -1q-10 0 -13.5 4t-3.5 15v668q0 12 3.5 15.5t15.5 3.5h58q10 0 13.5 -2t10.5 -13zM342 795q-25 17 -35.5 22t-24.5 5
q-25 0 -43 -20q-16 -22 -20 -26.5t-11 -4.5q-16 0 -16 21q0 25 24.5 58.5t72.5 33.5q31 0 71 -28q42 -28 66 -28q25 0 44 23q13 19 17 23t10 4q16 0 16 -19q0 -29 -23.5 -61.5t-70.5 -32.5q-15 0 -29 4.5t-21.5 9t-26.5 16.5z" />
    <glyph glyph-name="Ograve" unicode="&#xd2;" horiz-adv-x="708" 
d="M673 374q8 -164 -83 -276.5t-234 -112.5q-139 0 -230 103t-91 265q0 69 19.5 133t57.5 117.5t101.5 86t143.5 32.5q74 0 134 -29.5t98 -79.5t59.5 -111t24.5 -128zM569 371q-2 83 -25 144t-58 91t-68 43t-65 13q-48 0 -92 -25q-122 -72 -122 -278q0 -59 10 -105
q19 -96 77 -149t129 -53q46 0 90 24t75 72q52 81 49 223zM266 910l94 -97q12 -12 12 -26q0 -11 -5.5 -18t-13.5 -7t-18 8l-106 75q-20 18 -20 40q0 17 9.5 28t21.5 11t26 -14z" />
    <glyph glyph-name="Oacute" unicode="&#xd3;" horiz-adv-x="708" 
d="M673 374q8 -164 -83 -276.5t-234 -112.5q-139 0 -230 103t-91 265q0 69 19.5 133t57.5 117.5t101.5 86t143.5 32.5q74 0 134 -29.5t98 -79.5t59.5 -111t24.5 -128zM569 371q-2 83 -25 144t-58 91t-68 43t-65 13q-48 0 -92 -25q-122 -72 -122 -278q0 -59 10 -105
q19 -96 77 -149t129 -53q46 0 90 24t75 72q52 81 49 223zM478 845l-106 -75q-10 -8 -18 -8t-13.5 7t-5.5 18q0 14 12 26l94 97q14 14 26 14t21.5 -11t9.5 -28q0 -22 -20 -40z" />
    <glyph glyph-name="Ocircumflex" unicode="&#xd4;" horiz-adv-x="708" 
d="M673 374q8 -164 -83 -276.5t-234 -112.5q-139 0 -230 103t-91 265q0 69 19.5 133t57.5 117.5t101.5 86t143.5 32.5q74 0 134 -29.5t98 -79.5t59.5 -111t24.5 -128zM569 371q-2 83 -25 144t-58 91t-68 43t-65 13q-48 0 -92 -25q-122 -72 -122 -278q0 -59 10 -105
q19 -96 77 -149t129 -53q46 0 90 24t75 72q52 81 49 223zM319 821l-82 -53q-9 -9 -17 -9q-5 0 -9 5.5t-4 12.5q0 10 17 27q58 52 90 87q25 25 34 25t27 -19q40 -44 90 -83q28 -21 28 -35q0 -18 -14 -18q-3 0 -17 7l-83 55q-24 14 -30 14q-9 0 -30 -16z" />
    <glyph glyph-name="Otilde" unicode="&#xd5;" horiz-adv-x="708" 
d="M673 374q8 -164 -83 -276.5t-234 -112.5q-139 0 -230 103t-91 265q0 69 19.5 133t57.5 117.5t101.5 86t143.5 32.5q74 0 134 -29.5t98 -79.5t59.5 -111t24.5 -128zM569 371q-2 83 -25 144t-58 91t-68 43t-65 13q-48 0 -92 -25q-122 -72 -122 -278q0 -59 10 -105
q19 -96 77 -149t129 -53q46 0 90 24t75 72q52 81 49 223zM342 795q-25 17 -35.5 22t-24.5 5q-25 0 -43 -20q-16 -22 -20 -26.5t-11 -4.5q-16 0 -16 21q0 25 24.5 58.5t72.5 33.5q31 0 71 -28q42 -28 66 -28q25 0 44 23q13 19 17 23t10 4q16 0 16 -19q0 -29 -23.5 -61.5
t-70.5 -32.5q-15 0 -29 4.5t-21.5 9t-26.5 16.5z" />
    <glyph glyph-name="Odieresis" unicode="&#xd6;" horiz-adv-x="708" 
d="M673 374q8 -164 -83 -276.5t-234 -112.5q-139 0 -230 103t-91 265q0 69 19.5 133t57.5 117.5t101.5 86t143.5 32.5q74 0 134 -29.5t98 -79.5t59.5 -111t24.5 -128zM569 371q-2 83 -25 144t-58 91t-68 43t-65 13q-48 0 -92 -25q-122 -72 -122 -278q0 -59 10 -105
q19 -96 77 -149t129 -53q46 0 90 24t75 72q52 81 49 223zM323 841q0 -23 -14.5 -40.5t-42.5 -17.5q-23 0 -40.5 15t-17.5 41t18 41.5t41 15.5q22 0 39 -15t17 -40zM506 841q0 -23 -15 -40.5t-42 -17.5q-23 0 -40.5 15t-17.5 41t18 41.5t41 15.5q22 0 39 -15t17 -40z" />
    <glyph glyph-name="multiply" unicode="&#xd7;" horiz-adv-x="500" 
d="M292 291l148 -148l-42 -42l-148 148l-148 -148l-42 42l148 148l-148 148l42 42l148 -148l148 148l42 -42z" />
    <glyph glyph-name="Oslash" unicode="&#xd8;" horiz-adv-x="708" 
d="M647 743l-77 -110q103 -113 103 -273q0 -162 -92 -268.5t-229 -106.5q-97 0 -180 62l-73 -108q-6 -7 -10 -7t-17 9.5t-13 13.5q0 3 5 10l76 110q-105 102 -105 273q0 99 37.5 183.5t111.5 137t171 52.5q102 0 183 -59l72 104q9 11 12 10q4 0 17 -8.5t14 -14.5
q0 -2 -6 -10zM523 563l-306 -452q59 -59 133 -59q98 0 161.5 85t63.5 228q0 110 -52 198zM189 146l307 454q-18 17 -30 26.5t-42.5 22.5t-64.5 13q-98 0 -162 -86t-64 -227q0 -112 56 -203z" />
    <glyph glyph-name="Ugrave" unicode="&#xd9;" horiz-adv-x="583" 
d="M527 688v-478q-2 -85 -29 -128q-58 -97 -204 -97q-155 0 -210 103q-27 49 -27 136v465q0 12 3.5 15t14.5 3h63q12 0 15.5 -3t3.5 -15v-448q0 -182 146 -182q85 0 124 59q22 34 22 103v467q0 11 3 15t13 4q48 0 51 -1q11 -1 11 -18zM204 910l94 -97q12 -12 12 -26
q0 -11 -5.5 -18t-13.5 -7t-18 8l-106 75q-20 18 -20 40q0 17 9.5 28t21.5 11t26 -14z" />
    <glyph glyph-name="Uacute" unicode="&#xda;" horiz-adv-x="583" 
d="M527 688v-478q-2 -85 -29 -128q-58 -97 -204 -97q-155 0 -210 103q-27 49 -27 136v465q0 12 3.5 15t14.5 3h63q12 0 15.5 -3t3.5 -15v-448q0 -182 146 -182q85 0 124 59q22 34 22 103v467q0 11 3 15t13 4q48 0 51 -1q11 -1 11 -18zM416 845l-106 -75q-10 -8 -18 -8
t-13.5 7t-5.5 18q0 14 12 26l94 97q14 14 26 14t21.5 -11t9.5 -28q0 -22 -20 -40z" />
    <glyph glyph-name="Ucircumflex" unicode="&#xdb;" horiz-adv-x="583" 
d="M527 688v-478q-2 -85 -29 -128q-58 -97 -204 -97q-155 0 -210 103q-27 49 -27 136v465q0 12 3.5 15t14.5 3h63q12 0 15.5 -3t3.5 -15v-448q0 -182 146 -182q85 0 124 59q22 34 22 103v467q0 11 3 15t13 4q48 0 51 -1q11 -1 11 -18zM257 821l-82 -53q-9 -9 -17 -9
q-5 0 -9 5.5t-4 12.5q0 10 17 27q58 52 90 87q25 25 34 25t27 -19q40 -44 90 -83q28 -21 28 -35q0 -18 -14 -18q-3 0 -17 7l-83 55q-24 14 -30 14q-9 0 -30 -16z" />
    <glyph glyph-name="Udieresis" unicode="&#xdc;" horiz-adv-x="583" 
d="M527 688v-478q-2 -85 -29 -128q-58 -97 -204 -97q-155 0 -210 103q-27 49 -27 136v465q0 12 3.5 15t14.5 3h63q12 0 15.5 -3t3.5 -15v-448q0 -182 146 -182q85 0 124 59q22 34 22 103v467q0 11 3 15t13 4q48 0 51 -1q11 -1 11 -18zM258 841q0 -23 -14.5 -40.5
t-42.5 -17.5q-23 0 -40.5 15t-17.5 41t18 41.5t41 15.5q22 0 39 -15t17 -40zM441 841q0 -23 -15 -40.5t-42 -17.5q-23 0 -40.5 15t-17.5 41t18 41.5t41 15.5q22 0 39 -15t17 -40z" />
    <glyph glyph-name="Yacute" unicode="&#xdd;" horiz-adv-x="542" 
d="M535 679l-216 -361v-302q0 -8 -2.5 -11.5t-6 -4t-11.5 -0.5h-65q-10 0 -13 3.5t-3 12.5v307l-211 356q-7 12 -7 17q0 10 15 10h72q18 0 24 -14l172 -294l171 292q7 11 9.5 13t9.5 3h56q12 0 12 -10q0 -6 -6 -17zM395 845l-106 -75q-10 -8 -18 -8t-13.5 7t-5.5 18
q0 14 12 26l94 97q14 14 26 14t21.5 -11t9.5 -28q0 -22 -20 -40z" />
    <glyph glyph-name="Thorn" unicode="&#xde;" horiz-adv-x="521" 
d="M146 0h-61q-11 0 -15 3t-4 14v671q0 11 4 14.5t15 3.5h61q11 0 14.5 -3t3.5 -15v-133q61 18 114 18q110 0 168.5 -57.5t58.5 -145.5q0 -83 -57 -139q-74 -73 -228 -73q-27 0 -56 3v-144q0 -11 -3.5 -14t-14.5 -3zM164 508v-289q30 -4 48 -4q190 0 190 157q0 62 -27 97
q-37 50 -121 50q-50 0 -90 -11z" />
    <glyph glyph-name="germandbls" unicode="&#xdf;" horiz-adv-x="500" 
d="M149 572v-553q1 -13 -2.5 -16t-15.5 -3h-50q-10 1 -13.5 1.5t-5.5 4t-2 11.5v490q3 164 79 230q47 40 116 40q66 0 109 -37.5t43 -96.5q0 -57 -59 -136q-34 -47 -41.5 -61t-7.5 -31q0 -24 15.5 -42t60.5 -54q54 -42 83 -82t29 -97q0 -70 -46 -111t-121 -41q-56 0 -86 21
t-30 47q0 16 10.5 26.5t25.5 10.5t33 -18q33 -31 66 -31q29 0 50.5 20.5t21.5 57.5q0 24 -11.5 45.5t-23 33.5t-34.5 31l-56 49q-22 19 -33 30t-21 31t-10 43q0 19 7.5 39t15 32t24.5 35q26 36 35.5 51t18.5 37.5t9 44.5q0 40 -25 69t-66 29q-25 0 -43.5 -11.5t-27.5 -26
t-14 -39t-6 -38t-1 -35.5z" />
    <glyph glyph-name="agrave" unicode="&#xe0;" horiz-adv-x="437" 
d="M386 370v-265q-1 -37 -9 -56.5t-34 -33.5q-51 -27 -141 -27q-16 0 -29.5 1t-43 8t-49.5 20t-36.5 41t-16.5 66q0 21 4.5 39t16 33.5t22.5 27t33.5 23.5t38.5 19.5t48 18.5t51 17t58 17v51q0 17 -0.5 27t-4.5 27t-11 27t-22.5 18t-36.5 8q-58 0 -84 -65q-5 -14 -8.5 -20.5
t-13 -14.5t-23.5 -8t-27 10.5t-13 31.5q0 47 52 83t130 36q42 0 71.5 -12.5t44 -27.5t22.5 -41.5t9.5 -40.5t1.5 -38zM299 115v157l-61.5 -20.5t-48 -19.5t-40.5 -24.5t-21.5 -29.5t-9.5 -41q0 -6 0.5 -13t6 -23.5t15 -28t30.5 -21t50 -9.5q27 0 44.5 7t24.5 20t8.5 22.5
t1.5 23.5zM151 706l87 -89q10 -10 10 -22q0 -11 -5.5 -17t-12.5 -6q-5 0 -17 7l-97 69q-19 14 -19 37q0 15 8 25.5t20 10.5q11 0 26 -15z" />
    <glyph glyph-name="aacute" unicode="&#xe1;" horiz-adv-x="437" 
d="M386 370v-265q-1 -37 -9 -56.5t-34 -33.5q-51 -27 -141 -27q-16 0 -29.5 1t-43 8t-49.5 20t-36.5 41t-16.5 66q0 21 4.5 39t16 33.5t22.5 27t33.5 23.5t38.5 19.5t48 18.5t51 17t58 17v51q0 17 -0.5 27t-4.5 27t-11 27t-22.5 18t-36.5 8q-58 0 -84 -65q-5 -14 -8.5 -20.5
t-13 -14.5t-23.5 -8t-27 10.5t-13 31.5q0 47 52 83t130 36q42 0 71.5 -12.5t44 -27.5t22.5 -41.5t9.5 -40.5t1.5 -38zM299 115v157l-61.5 -20.5t-48 -19.5t-40.5 -24.5t-21.5 -29.5t-9.5 -41q0 -6 0.5 -13t6 -23.5t15 -28t30.5 -21t50 -9.5q27 0 44.5 7t24.5 20t8.5 22.5
t1.5 23.5zM342 648l-97 -69q-12 -7 -17 -7q-7 0 -13 6t-6 17q0 12 10 22l88 89q15 15 26 15q12 0 19.5 -10.5t7.5 -25.5q0 -23 -18 -37z" />
    <glyph glyph-name="acircumflex" unicode="&#xe2;" horiz-adv-x="437" 
d="M386 370v-265q-1 -37 -9 -56.5t-34 -33.5q-51 -27 -141 -27q-16 0 -29.5 1t-43 8t-49.5 20t-36.5 41t-16.5 66q0 21 4.5 39t16 33.5t22.5 27t33.5 23.5t38.5 19.5t48 18.5t51 17t58 17v51q0 17 -0.5 27t-4.5 27t-11 27t-22.5 18t-36.5 8q-58 0 -84 -65q-5 -14 -8.5 -20.5
t-13 -14.5t-23.5 -8t-27 10.5t-13 31.5q0 47 52 83t130 36q42 0 71.5 -12.5t44 -27.5t22.5 -41.5t9.5 -40.5t1.5 -38zM299 115v157l-61.5 -20.5t-48 -19.5t-40.5 -24.5t-21.5 -29.5t-9.5 -41q0 -6 0.5 -13t6 -23.5t15 -28t30.5 -21t50 -9.5q27 0 44.5 7t24.5 20t8.5 22.5
t1.5 23.5zM195 625l-73 -50q-11 -9 -17 -9q-14 0 -14 16q0 10 17 26q63 54 89 87q14 20 24 20q11 0 21 -13q50 -53 90 -84q19 -16 23 -21t4 -12t-4.5 -12t-9.5 -5q-4 0 -16 7l-81 52q-18 10 -26 10q-10 0 -27 -12z" />
    <glyph glyph-name="atilde" unicode="&#xe3;" horiz-adv-x="437" 
d="M386 370v-265q-1 -37 -9 -56.5t-34 -33.5q-51 -27 -141 -27q-16 0 -29.5 1t-43 8t-49.5 20t-36.5 41t-16.5 66q0 21 4.5 39t16 33.5t22.5 27t33.5 23.5t38.5 19.5t48 18.5t51 17t58 17v51q0 17 -0.5 27t-4.5 27t-11 27t-22.5 18t-36.5 8q-58 0 -84 -65q-5 -14 -8.5 -20.5
t-13 -14.5t-23.5 -8t-27 10.5t-13 31.5q0 47 52 83t130 36q42 0 71.5 -12.5t44 -27.5t22.5 -41.5t9.5 -40.5t1.5 -38zM299 115v157l-61.5 -20.5t-48 -19.5t-40.5 -24.5t-21.5 -29.5t-9.5 -41q0 -6 0.5 -13t6 -23.5t15 -28t30.5 -21t50 -9.5q27 0 44.5 7t24.5 20t8.5 22.5
t1.5 23.5zM238 607q-21 16 -29.5 21.5t-19.5 10t-22 4.5q-31 0 -51 -30q-11 -18 -21 -18q-16 0 -16 20q0 25 24.5 57t66.5 32q25 0 63 -25q26 -19 38 -24.5t28 -5.5q29 0 49 32q11 16 19 16q14 0 14 -20q0 -27 -23 -58t-64 -31q-32 0 -56 19z" />
    <glyph glyph-name="adieresis" unicode="&#xe4;" horiz-adv-x="437" 
d="M386 370v-265q-1 -37 -9 -56.5t-34 -33.5q-51 -27 -141 -27q-16 0 -29.5 1t-43 8t-49.5 20t-36.5 41t-16.5 66q0 21 4.5 39t16 33.5t22.5 27t33.5 23.5t38.5 19.5t48 18.5t51 17t58 17v51q0 17 -0.5 27t-4.5 27t-11 27t-22.5 18t-36.5 8q-58 0 -84 -65q-5 -14 -8.5 -20.5
t-13 -14.5t-23.5 -8t-27 10.5t-13 31.5q0 47 52 83t130 36q42 0 71.5 -12.5t44 -27.5t22.5 -41.5t9.5 -40.5t1.5 -38zM299 115v157l-61.5 -20.5t-48 -19.5t-40.5 -24.5t-21.5 -29.5t-9.5 -41q0 -6 0.5 -13t6 -23.5t15 -28t30.5 -21t50 -9.5q27 0 44.5 7t24.5 20t8.5 22.5
t1.5 23.5zM193 664q0 -24 -15 -40t-39 -16t-40 15.5t-16 39.5q0 25 16.5 40t39.5 15t38.5 -15t15.5 -39zM370 664q0 -24 -15.5 -40t-39.5 -16q-23 0 -39 15.5t-16 39.5q0 25 16 40t39 15q24 0 39.5 -15t15.5 -39z" />
    <glyph glyph-name="aring" unicode="&#xe5;" horiz-adv-x="437" 
d="M386 370v-265q-1 -37 -9 -56.5t-34 -33.5q-51 -27 -141 -27q-16 0 -29.5 1t-43 8t-49.5 20t-36.5 41t-16.5 66q0 21 4.5 39t16 33.5t22.5 27t33.5 23.5t38.5 19.5t48 18.5t51 17t58 17v51q0 17 -0.5 27t-4.5 27t-11 27t-22.5 18t-36.5 8q-58 0 -84 -65q-5 -14 -8.5 -20.5
t-13 -14.5t-23.5 -8t-27 10.5t-13 31.5q0 47 52 83t130 36q42 0 71.5 -12.5t44 -27.5t22.5 -41.5t9.5 -40.5t1.5 -38zM299 115v157l-61.5 -20.5t-48 -19.5t-40.5 -24.5t-21.5 -29.5t-9.5 -41q0 -6 0.5 -13t6 -23.5t15 -28t30.5 -21t50 -9.5q27 0 44.5 7t24.5 20t8.5 22.5
t1.5 23.5zM305 646q-1 -33 -23 -54.5t-53 -21.5t-53 21t-22 55q0 33 21.5 54t53.5 21q31 0 53.5 -20.5t22.5 -54.5zM269 648q-1 16 -11 26.5t-28 10.5t-29 -11.5t-11 -26.5q0 -17 12 -28.5t28 -11.5q15 0 27.5 11.5t11.5 29.5z" />
    <glyph glyph-name="ae" unicode="&#xe6;" horiz-adv-x="729" 
d="M660 308l-268 -41q2 -43 11 -79q17 -61 53 -90t73 -29q51 0 89 38q18 18 37 58q5 10 7.5 14t6.5 7.5t10 3.5q21 0 21 -26q0 -17 -6.5 -38.5t-21 -46t-34.5 -44.5t-51.5 -33.5t-67.5 -13.5q-34 0 -62 12q-62 24 -98 96q-45 -108 -167 -108q-78 0 -122 43.5t-44 98.5
q0 42 22.5 73t66 50t89 30.5t109.5 20.5q-7 82 -14 106q-20 67 -77 67q-21 0 -36 -6t-24.5 -18t-14 -20t-9.5 -22q-9 -25 -18.5 -37t-28.5 -12q-16 0 -28 11t-12 32q0 39 47 82t138 43q35 0 61 -9t41.5 -27t21.5 -28t13 -27q55 91 149 91q45 0 80 -19.5t52.5 -45t28.5 -55
t13.5 -45t2.5 -20.5q0 -14 -7 -22.5t-13 -10.5t-19 -4zM392 315l214 33q-6 65 -33 94.5t-64 29.5q-48 0 -82 -42t-35 -115zM317 256q-47 -7 -76 -13.5t-61 -19t-47.5 -33.5t-15.5 -51q0 -37 26 -65.5t68 -28.5q56 0 87 48q22 36 22 107q0 8 -3 56z" />
    <glyph glyph-name="ccedilla" unicode="&#xe7;" horiz-adv-x="458" 
d="M199 -81l8 71q-79 14 -127 85t-48 179q0 123 59 199.5t164 76.5q77 0 124 -44.5t47 -82.5q0 -21 -13.5 -31.5t-28.5 -10.5q-25 0 -41 30q-11 21 -17 31t-18 24.5t-28 20.5t-37 6q-54 0 -92 -50.5t-38 -136.5q0 -104 44.5 -161t104.5 -57q71 0 120 80q8 13 11 17.5
t7.5 7.5t10.5 3q20 0 20 -24q0 -15 -8.5 -38.5t-27 -52t-56.5 -49.5t-87 -24l-13 -57q43 3 66.5 -18t23.5 -50q0 -34 -30 -59t-78 -25q-26 0 -57 9.5t-31 25.5q0 15 15 15q1 0 20 -5q28 -5 44 -5q25 0 41.5 11t16.5 33q0 30 -51 36q-12 1 -16.5 4.5t-3.5 15.5z" />
    <glyph glyph-name="egrave" unicode="&#xe8;" horiz-adv-x="479" 
d="M414 320l-306 -45q6 -100 50 -152.5t105 -52.5q84 0 138 88q11 19 15.5 24t13.5 5q20 0 20 -24q0 -10 -5.5 -28.5t-20.5 -44.5t-36 -48t-57.5 -38t-80.5 -16q-54 0 -104.5 26.5t-81.5 89.5q-32 62 -32 154q0 98 34 161q7 14 17.5 27.5t32 35t57 35t78.5 13.5
q55 0 96 -21.5t60 -53t27.5 -57.5t8.5 -46q0 -13 -5.5 -20.5t-10 -9t-13.5 -2.5zM108 324l239 37q-5 48 -35 80t-72 32q-58 0 -91 -40t-41 -109zM172 706l87 -89q10 -10 10 -22q0 -11 -5.5 -17t-12.5 -6q-5 0 -17 7l-97 69q-19 14 -19 37q0 15 8 25.5t20 10.5q11 0 26 -15z
" />
    <glyph glyph-name="eacute" unicode="&#xe9;" horiz-adv-x="479" 
d="M414 320l-306 -45q6 -100 50 -152.5t105 -52.5q84 0 138 88q11 19 15.5 24t13.5 5q20 0 20 -24q0 -10 -5.5 -28.5t-20.5 -44.5t-36 -48t-57.5 -38t-80.5 -16q-54 0 -104.5 26.5t-81.5 89.5q-32 62 -32 154q0 98 34 161q7 14 17.5 27.5t32 35t57 35t78.5 13.5
q55 0 96 -21.5t60 -53t27.5 -57.5t8.5 -46q0 -13 -5.5 -20.5t-10 -9t-13.5 -2.5zM108 324l239 37q-5 48 -35 80t-72 32q-58 0 -91 -40t-41 -109zM363 648l-97 -69q-12 -7 -17 -7q-7 0 -13 6t-6 17q0 12 10 22l88 89q15 15 26 15q12 0 19.5 -10.5t7.5 -25.5q0 -23 -18 -37z
" />
    <glyph glyph-name="ecircumflex" unicode="&#xea;" horiz-adv-x="479" 
d="M414 320l-306 -45q6 -100 50 -152.5t105 -52.5q84 0 138 88q11 19 15.5 24t13.5 5q20 0 20 -24q0 -10 -5.5 -28.5t-20.5 -44.5t-36 -48t-57.5 -38t-80.5 -16q-54 0 -104.5 26.5t-81.5 89.5q-32 62 -32 154q0 98 34 161q7 14 17.5 27.5t32 35t57 35t78.5 13.5
q55 0 96 -21.5t60 -53t27.5 -57.5t8.5 -46q0 -13 -5.5 -20.5t-10 -9t-13.5 -2.5zM108 324l239 37q-5 48 -35 80t-72 32q-58 0 -91 -40t-41 -109zM216 625l-73 -50q-11 -9 -17 -9q-14 0 -14 16q0 10 17 26q63 54 89 87q14 20 24 20q11 0 21 -13q50 -53 90 -84q19 -16 23 -21
t4 -12t-4.5 -12t-9.5 -5q-4 0 -16 7l-81 52q-18 10 -26 10q-10 0 -27 -12z" />
    <glyph glyph-name="edieresis" unicode="&#xeb;" horiz-adv-x="479" 
d="M414 320l-306 -45q6 -100 50 -152.5t105 -52.5q84 0 138 88q11 19 15.5 24t13.5 5q20 0 20 -24q0 -10 -5.5 -28.5t-20.5 -44.5t-36 -48t-57.5 -38t-80.5 -16q-54 0 -104.5 26.5t-81.5 89.5q-32 62 -32 154q0 98 34 161q7 14 17.5 27.5t32 35t57 35t78.5 13.5
q55 0 96 -21.5t60 -53t27.5 -57.5t8.5 -46q0 -13 -5.5 -20.5t-10 -9t-13.5 -2.5zM108 324l239 37q-5 48 -35 80t-72 32q-58 0 -91 -40t-41 -109zM215 664q0 -24 -15 -40t-39 -16t-40 15.5t-16 39.5q0 25 16.5 40t39.5 15t38.5 -15t15.5 -39zM392 664q0 -24 -15.5 -40
t-39.5 -16q-23 0 -39 15.5t-16 39.5q0 25 16 40t39 15q24 0 39.5 -15t15.5 -39z" />
    <glyph glyph-name="igrave" unicode="&#xec;" horiz-adv-x="208" 
d="M148 499v-480q0 -13 -4 -16t-16 -3h-54q-11 0 -13 3.5t-2 15.5v480q0 11 2.5 15t14.5 4h52q12 0 16 -3.5t4 -15.5zM25 706l87 -89q10 -10 10 -22q0 -11 -5.5 -17t-12.5 -6q-5 0 -17 7l-97 69q-19 14 -19 37q0 15 8 25.5t20 10.5q11 0 26 -15z" />
    <glyph glyph-name="iacute" unicode="&#xed;" horiz-adv-x="208" 
d="M148 499v-480q0 -13 -4 -16t-16 -3h-54q-11 0 -13 3.5t-2 15.5v480q0 11 2.5 15t14.5 4h52q12 0 16 -3.5t4 -15.5zM216 648l-97 -69q-12 -7 -17 -7q-7 0 -13 6t-6 17q0 12 10 22l88 89q15 15 26 15q12 0 19.5 -10.5t7.5 -25.5q0 -23 -18 -37z" />
    <glyph glyph-name="icircumflex" unicode="&#xee;" horiz-adv-x="208" 
d="M148 499v-480q0 -13 -4 -16t-16 -3h-54q-11 0 -13 3.5t-2 15.5v480q0 11 2.5 15t14.5 4h52q12 0 16 -3.5t4 -15.5zM69 625l-73 -50q-11 -9 -17 -9q-14 0 -14 16q0 10 17 26q63 54 89 87q14 20 24 20q11 0 21 -13q50 -53 90 -84q19 -16 23 -21t4 -12t-4.5 -12t-9.5 -5
q-4 0 -16 7l-81 52q-18 10 -26 10q-10 0 -27 -12z" />
    <glyph glyph-name="idieresis" unicode="&#xef;" horiz-adv-x="208" 
d="M148 499v-480q0 -13 -4 -16t-16 -3h-54q-11 0 -13 3.5t-2 15.5v480q0 11 2.5 15t14.5 4h52q12 0 16 -3.5t4 -15.5zM68 664q0 -24 -15 -40t-39 -16t-40 15.5t-16 39.5q0 25 16.5 40t39.5 15t38.5 -15t15.5 -39zM245 664q0 -24 -15.5 -40t-39.5 -16q-23 0 -39 15.5
t-16 39.5q0 25 16 40t39 15q24 0 39.5 -15t15.5 -39z" />
    <glyph glyph-name="eth" unicode="&#xf0;" horiz-adv-x="521" 
d="M436 676l-56 -18q46 -56 78 -146.5t32 -206.5q0 -146 -61 -231.5t-167 -85.5q-108 0 -169 81t-61 188q0 119 63.5 196.5t155.5 77.5q88 0 133 -76q-22 98 -84 178l-128 -43q-1 0 -6.5 -1.5t-7.5 -1.5q-6 0 -14.5 17.5t-8.5 21.5q0 6 14 11l119 38q-30 37 -58 60
q-12 10 -12 15q0 6 35 19q2 0 3.5 0.5t3.5 1.5l10 3q11 3 12 3q10 0 35.5 -24t49.5 -52l67 22q6 2 9 2q6 0 15 -18.5t9 -21.5q0 -6 -11 -9zM394 259q-2 92 -40 154t-100 62q-57 0 -93 -55.5t-36 -146.5q0 -99 41 -161.5t102 -62.5q60 0 94 59.5t32 150.5z" />
    <glyph glyph-name="ntilde" unicode="&#xf1;" horiz-adv-x="521" 
d="M462 365v-345q0 -18 -12 -20h-55q-13 0 -17.5 3.5t-4.5 16.5v336q0 20 -1 31.5t-7 31t-17.5 30.5t-35 20t-56.5 9q-37 0 -61.5 -9.5t-33 -26.5t-11 -27.5t-2.5 -25.5v-369q0 -13 -4.5 -16.5t-16.5 -3.5h-49q-11 -1 -15 3t-4 16v403q0 30 8 45.5t32 27.5q67 35 172 35
q54 0 92.5 -12.5t57 -28t28.5 -42t11.5 -42t1.5 -40.5zM269 607q-21 16 -29.5 21.5t-19.5 10t-22 4.5q-31 0 -51 -30q-11 -18 -21 -18q-16 0 -16 20q0 25 24.5 57t66.5 32q25 0 63 -25q26 -19 38 -24.5t28 -5.5q29 0 49 32q11 16 19 16q14 0 14 -20q0 -27 -23 -58t-64 -31
q-32 0 -56 19z" />
    <glyph glyph-name="ograve" unicode="&#xf2;" horiz-adv-x="521" 
d="M489 262q2 -108 -60 -191t-167 -83q-107 0 -168.5 80.5t-61.5 189.5q0 111 62.5 191.5t166.5 80.5q45 0 83.5 -17t64 -44t44 -62.5t27 -72t9.5 -72.5zM394 269q-4 98 -44.5 151.5t-94.5 53.5q-59 0 -94.5 -56t-35.5 -146q0 -101 42 -162t99 -61q58 0 95 60t33 160z
M182 706l87 -89q10 -10 10 -22q0 -11 -5.5 -17t-12.5 -6q-5 0 -17 7l-97 69q-19 14 -19 37q0 15 8 25.5t20 10.5q11 0 26 -15z" />
    <glyph glyph-name="oacute" unicode="&#xf3;" horiz-adv-x="521" 
d="M489 262q2 -108 -60 -191t-167 -83q-107 0 -168.5 80.5t-61.5 189.5q0 111 62.5 191.5t166.5 80.5q45 0 83.5 -17t64 -44t44 -62.5t27 -72t9.5 -72.5zM394 269q-4 98 -44.5 151.5t-94.5 53.5q-59 0 -94.5 -56t-35.5 -146q0 -101 42 -162t99 -61q58 0 95 60t33 160z
M373 648l-97 -69q-12 -7 -17 -7q-7 0 -13 6t-6 17q0 12 10 22l88 89q15 15 26 15q12 0 19.5 -10.5t7.5 -25.5q0 -23 -18 -37z" />
    <glyph glyph-name="ocircumflex" unicode="&#xf4;" horiz-adv-x="521" 
d="M489 262q2 -108 -60 -191t-167 -83q-107 0 -168.5 80.5t-61.5 189.5q0 111 62.5 191.5t166.5 80.5q45 0 83.5 -17t64 -44t44 -62.5t27 -72t9.5 -72.5zM394 269q-4 98 -44.5 151.5t-94.5 53.5q-59 0 -94.5 -56t-35.5 -146q0 -101 42 -162t99 -61q58 0 95 60t33 160z
M226 625l-73 -50q-11 -9 -17 -9q-14 0 -14 16q0 10 17 26q63 54 89 87q14 20 24 20q11 0 21 -13q50 -53 90 -84q19 -16 23 -21t4 -12t-4.5 -12t-9.5 -5q-4 0 -16 7l-81 52q-18 10 -26 10q-10 0 -27 -12z" />
    <glyph glyph-name="otilde" unicode="&#xf5;" horiz-adv-x="521" 
d="M489 262q2 -108 -60 -191t-167 -83q-107 0 -168.5 80.5t-61.5 189.5q0 111 62.5 191.5t166.5 80.5q45 0 83.5 -17t64 -44t44 -62.5t27 -72t9.5 -72.5zM394 269q-4 98 -44.5 151.5t-94.5 53.5q-59 0 -94.5 -56t-35.5 -146q0 -101 42 -162t99 -61q58 0 95 60t33 160z
M269 607q-21 16 -29.5 21.5t-19.5 10t-22 4.5q-31 0 -51 -30q-11 -18 -21 -18q-16 0 -16 20q0 25 24.5 57t66.5 32q25 0 63 -25q26 -19 38 -24.5t28 -5.5q29 0 49 32q11 16 19 16q14 0 14 -20q0 -27 -23 -58t-64 -31q-32 0 -56 19z" />
    <glyph glyph-name="odieresis" unicode="&#xf6;" horiz-adv-x="521" 
d="M489 262q2 -108 -60 -191t-167 -83q-107 0 -168.5 80.5t-61.5 189.5q0 111 62.5 191.5t166.5 80.5q45 0 83.5 -17t64 -44t44 -62.5t27 -72t9.5 -72.5zM394 269q-4 98 -44.5 151.5t-94.5 53.5q-59 0 -94.5 -56t-35.5 -146q0 -101 42 -162t99 -61q58 0 95 60t33 160z
M226 664q0 -24 -15 -40t-39 -16t-40 15.5t-16 39.5q0 25 16.5 40t39.5 15t38.5 -15t15.5 -39zM403 664q0 -24 -15.5 -40t-39.5 -16q-23 0 -39 15.5t-16 39.5q0 25 16 40t39 15q24 0 39.5 -15t15.5 -39z" />
    <glyph glyph-name="divide" unicode="&#xf7;" horiz-adv-x="500" 
d="M298 160q0 -21 -14 -33t-30 -12q-20 0 -34 12.5t-14 32.5q0 18 13 32t32 14q17 0 32 -12t15 -34zM298 420q0 -19 -13 -32t-33 -13q-19 0 -32.5 12.5t-13.5 32.5q0 21 14.5 33.5t30.5 12.5q18 0 32.5 -11.5t14.5 -34.5zM500 320v-59h-500v59h500z" />
    <glyph glyph-name="oslash" unicode="&#xf8;" horiz-adv-x="521" 
d="M477 538l-57 -82q68 -83 68 -199q0 -108 -63.5 -188.5t-165.5 -80.5q-77 0 -137 53l-57 -81q-5 -7 -9 -7q-3 0 -13.5 7.5t-10.5 12.5q0 3 7 13l58 80q-65 79 -65 192q0 111 63.5 191.5t167.5 80.5q75 0 131 -48l58 79q5 8 11 8q4 0 12 -7t8 -12q0 -6 -6 -12zM372 391
l-206 -289q39 -55 98 -55q61 0 100 60.5t39 145.5q0 76 -31 138zM147 137l207 290q-44 53 -97 53q-64 0 -102 -62.5t-38 -143.5q0 -66 30 -137z" />
    <glyph glyph-name="ugrave" unicode="&#xf9;" horiz-adv-x="500" 
d="M447 499v-375q-1 -43 -8.5 -64t-33.5 -37q-66 -35 -164 -35q-93 0 -142 39q-46 39 -46 119v354q0 10 3.5 14t14.5 4h52q11 0 15.5 -3.5t4.5 -15.5v-332q0 -20 1 -31t7 -30.5t17 -30t33.5 -19t53.5 -8.5q37 0 59.5 9t31 28t10.5 32t2 38v342q0 18 12 20q3 1 55 1
q12 0 16.5 -4t5.5 -15zM171 706l87 -89q10 -10 10 -22q0 -11 -5.5 -17t-12.5 -6q-5 0 -17 7l-97 69q-19 14 -19 37q0 15 8 25.5t20 10.5q11 0 26 -15z" />
    <glyph glyph-name="uacute" unicode="&#xfa;" horiz-adv-x="500" 
d="M447 499v-375q-1 -43 -8.5 -64t-33.5 -37q-66 -35 -164 -35q-93 0 -142 39q-46 39 -46 119v354q0 10 3.5 14t14.5 4h52q11 0 15.5 -3.5t4.5 -15.5v-332q0 -20 1 -31t7 -30.5t17 -30t33.5 -19t53.5 -8.5q37 0 59.5 9t31 28t10.5 32t2 38v342q0 18 12 20q3 1 55 1
q12 0 16.5 -4t5.5 -15zM362 648l-97 -69q-12 -7 -17 -7q-7 0 -13 6t-6 17q0 12 10 22l88 89q15 15 26 15q12 0 19.5 -10.5t7.5 -25.5q0 -23 -18 -37z" />
    <glyph glyph-name="ucircumflex" unicode="&#xfb;" horiz-adv-x="500" 
d="M447 499v-375q-1 -43 -8.5 -64t-33.5 -37q-66 -35 -164 -35q-93 0 -142 39q-46 39 -46 119v354q0 10 3.5 14t14.5 4h52q11 0 15.5 -3.5t4.5 -15.5v-332q0 -20 1 -31t7 -30.5t17 -30t33.5 -19t53.5 -8.5q37 0 59.5 9t31 28t10.5 32t2 38v342q0 18 12 20q3 1 55 1
q12 0 16.5 -4t5.5 -15zM215 625l-73 -50q-11 -9 -17 -9q-14 0 -14 16q0 10 17 26q63 54 89 87q14 20 24 20q11 0 21 -13q50 -53 90 -84q19 -16 23 -21t4 -12t-4.5 -12t-9.5 -5q-4 0 -16 7l-81 52q-18 10 -26 10q-10 0 -27 -12z" />
    <glyph glyph-name="udieresis" unicode="&#xfc;" horiz-adv-x="500" 
d="M447 499v-375q-1 -43 -8.5 -64t-33.5 -37q-66 -35 -164 -35q-93 0 -142 39q-46 39 -46 119v354q0 10 3.5 14t14.5 4h52q11 0 15.5 -3.5t4.5 -15.5v-332q0 -20 1 -31t7 -30.5t17 -30t33.5 -19t53.5 -8.5q37 0 59.5 9t31 28t10.5 32t2 38v342q0 18 12 20q3 1 55 1
q12 0 16.5 -4t5.5 -15zM211 664q0 -24 -15 -40t-39 -16t-40 15.5t-16 39.5q0 25 16.5 40t39.5 15t38.5 -15t15.5 -39zM388 664q0 -24 -15.5 -40t-39.5 -16q-23 0 -39 15.5t-16 39.5q0 25 16 40t39 15q24 0 39.5 -15t15.5 -39z" />
    <glyph glyph-name="yacute" unicode="&#xfd;" horiz-adv-x="458" 
d="M453 489l-204 -560q-13 -34 -25.5 -59t-33.5 -52.5t-51.5 -42t-68.5 -14.5q-70 0 -70 47q0 18 11.5 30.5t31.5 12.5q4 0 26.5 -4.5t27.5 -4.5q33 0 58 33.5t53 124.5l-194 489q-6 14 -6 17q0 12 18 12h59q12 0 15 -3t8 -15l141 -385l130 385q6 17 16 18h49q14 0 14 -11
q0 -5 -5 -18zM351 648l-97 -69q-12 -7 -17 -7q-7 0 -13 6t-6 17q0 12 10 22l88 89q15 15 26 15q12 0 19.5 -10.5t7.5 -25.5q0 -23 -18 -37z" />
    <glyph glyph-name="thorn" unicode="&#xfe;" horiz-adv-x="521" 
d="M131 -235h-50q-12 0 -17 4t-5 15v961q0 12 3.5 16t15.5 5h48q14 0 18 -3.5t4 -17.5v-242q65 30 125 30q106 0 161 -74.5t55 -177.5q0 -48 -13.5 -97t-40.5 -93.5t-73.5 -73t-105.5 -28.5q-57 0 -108 35v-241q0 -18 -17 -18zM148 383v-301q55 -33 100 -33q64 0 106.5 58
t42.5 158q0 87 -35 149t-113 62q-62 0 -85 -27q-16 -17 -16 -66z" />
    <glyph glyph-name="ydieresis" unicode="&#xff;" horiz-adv-x="458" 
d="M453 489l-204 -560q-13 -34 -25.5 -59t-33.5 -52.5t-51.5 -42t-68.5 -14.5q-70 0 -70 47q0 18 11.5 30.5t31.5 12.5q4 0 26.5 -4.5t27.5 -4.5q33 0 58 33.5t53 124.5l-194 489q-6 14 -6 17q0 12 18 12h59q12 0 15 -3t8 -15l141 -385l130 385q6 17 16 18h49q14 0 14 -11
q0 -5 -5 -18zM203 664q0 -24 -15 -40t-39 -16t-40 15.5t-16 39.5q0 25 16.5 40t39.5 15t38.5 -15t15.5 -39zM380 664q0 -24 -15.5 -40t-39.5 -16q-23 0 -39 15.5t-16 39.5q0 25 16 40t39 15q24 0 39.5 -15t15.5 -39z" />
    <glyph glyph-name="dotlessi" unicode="&#x131;" horiz-adv-x="208" 
d="M148 499v-480q0 -13 -4 -16t-16 -3h-54q-11 0 -13 3.5t-2 15.5v480q0 11 2.5 15t14.5 4h52q12 0 16 -3.5t4 -15.5z" />
    <glyph glyph-name="Lslash" unicode="&#x141;" horiz-adv-x="458" 
d="M295 446l-130 -85v-295h263q11 0 14 -4t3 -14v-39q-2 -9 -18 -9h-344q-17 0 -17 17v280l-47 -31q-6 -4 -11 -4q-3 0 -5 2q-3 3 -3 45q0 15 12 25l54 35v320q0 11 3.5 14t13.5 4h64q11 0 14 -3.5t4 -14.5v-255l119 78q10 7 15 7q7 0 7 -12v-41q-1 -13 -11 -20z" />
    <glyph glyph-name="lslash" unicode="&#x142;" horiz-adv-x="208" 
d="M197 487l-48 -50v-419q0 -11 -4 -14.5t-15 -3.5h-51q-12 0 -15.5 3t-3.5 15v325l-37 -38q-7 -7 -12 -7q-10 0 -10 18q0 27 1.5 35t10.5 17l47 50v331q0 10 4.5 13t15.5 3h50q12 0 15.5 -2.5t3.5 -13.5v-237l36 39q11 8 16.5 5.5t6.5 -11.5q3 -41 -11 -58z" />
    <glyph glyph-name="OE" unicode="&#x152;" horiz-adv-x="938" 
d="M895 0h-352q-18 0 -20 10q-1 3 -1 49q-67 -74 -180 -74q-140 0 -223.5 105t-83.5 265q0 161 84 263.5t226 102.5q105 0 177 -72q0 45 1 48q3 9 19 9h353q10 0 13 -3.5t3 -14.5q0 -39 -2 -42q-3 -4 -14 -4h-280v-239h244q11 0 14.5 -3t3.5 -14q0 -38 -3 -43q-4 -4 -14 -4
h-245v-273h280q11 0 14 -4q2 -3 2 -49q0 -13 -16 -13zM522 217v256q0 55 -17.5 95t-45.5 59.5t-54 28t-51 8.5q-89 0 -153.5 -80.5t-64.5 -222.5q0 -149 65 -230.5t157 -81.5q72 0 122 52q20 20 29.5 43t11 36t1.5 37z" />
    <glyph glyph-name="oe" unicode="&#x153;" horiz-adv-x="792" 
d="M730 309l-277 -42q8 -95 39 -140q39 -58 102 -58q74 0 119 90q10 19 15 25t14 6q20 0 20 -27q0 -22 -10.5 -50.5t-31 -57t-57 -48t-80.5 -19.5q-114 0 -165 116q-10 -21 -19 -36t-28 -36t-49 -32.5t-69 -11.5q-109 0 -165 80t-56 193q0 111 57 190t160 79q39 0 70 -11.5
t51.5 -33t29.5 -35.5t21 -37q47 117 161 117q42 0 75 -16t52 -38.5t31.5 -49.5t17 -48t4.5 -35q0 -17 -8.5 -24t-23.5 -10zM453 315l216 33q-4 41 -17 68.5t-31 38.5t-29.5 14.5t-22.5 3.5q-54 0 -86 -51q-25 -39 -30 -107zM375 283q-3 27 -10.5 56.5t-21.5 62.5t-39.5 54
t-58.5 21q-42 0 -71.5 -33.5t-41 -78.5t-11.5 -95q0 -99 41 -160t97 -61q33 0 61 21q57 45 57 170q0 13 -2 43z" />
    <glyph glyph-name="Scaron" unicode="&#x160;" horiz-adv-x="521" 
d="M277 413l52 -24q22 -11 36 -18.5t39 -27t39.5 -39t26.5 -51t12 -67.5q0 -89 -62 -145t-159 -56q-106 0 -164 53t-58 98q0 23 14 36t33 13q14 0 24.5 -7t15.5 -14.5t12 -21.5q8 -17 15.5 -28.5t23 -29t39 -27t52.5 -9.5q54 0 87.5 33.5t33.5 83.5q0 31 -10.5 54.5
t-35 42.5t-44 29.5t-56.5 28.5l-54 26q-141 67 -141 187q0 82 56.5 135t150.5 53q83 0 140.5 -39.5t57.5 -81.5q0 -20 -12 -33t-31 -13q-27 0 -48 35q-14 21 -24.5 33.5t-34 26t-53.5 13.5q-48 0 -79.5 -32t-31.5 -77q0 -28 9.5 -48.5t32.5 -38t40.5 -27t55.5 -26.5z
M288 855l81 53q11 8 17 8q13 0 13 -17q0 -13 -17 -27q-57 -52 -90 -87q-22 -25 -34 -25q-9 0 -27 18q-27 35 -90 84q-28 21 -28 35q0 18 14 18q3 0 17 -7l84 -55q19 -14 29 -14q9 0 31 16z" />
    <glyph glyph-name="scaron" unicode="&#x161;" horiz-adv-x="417" 
d="M213 312l43 -20q28 -14 42.5 -23t36.5 -27.5t32.5 -44.5t10.5 -59q0 -69 -47 -111q-44 -39 -121 -39q-47 0 -83 13t-54.5 32.5t-27 37t-8.5 30.5q0 20 12.5 31.5t28.5 11.5q23 0 40 -26q5 -8 13 -23q32 -50 86 -50q37 0 57 22.5t20 53.5q0 22 -7.5 39t-25 30t-29 19.5
t-34.5 17.5q-40 19 -59.5 30t-45 31t-36 45t-10.5 58q0 58 41 98.5t118 40.5q76 0 116 -34.5t40 -66.5q0 -17 -10.5 -27.5t-26.5 -10.5q-12 0 -21 5.5t-13 11.5t-10 17q-9 16 -14.5 24t-23 19t-39.5 11q-37 0 -56 -23.5t-19 -49.5t15 -46t29.5 -28.5t39.5 -19.5zM234 656
l73 50q11 9 17 9q14 0 14 -16q0 -10 -17 -26q-63 -54 -89 -87q-14 -20 -24 -20q-9 0 -22 13q-38 44 -89 84q-20 17 -24 21.5t-4 11.5t5 12t10 5q4 0 16 -7l81 -52q16 -10 26 -10t27 12z" />
    <glyph glyph-name="Ydieresis" unicode="&#x178;" horiz-adv-x="542" 
d="M535 679l-216 -361v-302q0 -8 -2.5 -11.5t-6 -4t-11.5 -0.5h-65q-10 0 -13 3.5t-3 12.5v307l-211 356q-7 12 -7 17q0 10 15 10h72q18 0 24 -14l172 -294l171 292q7 11 9.5 13t9.5 3h56q12 0 12 -10q0 -6 -6 -17zM236 841q0 -23 -14.5 -40.5t-42.5 -17.5q-23 0 -40.5 15
t-17.5 41t18 41.5t41 15.5q22 0 39 -15t17 -40zM419 841q0 -23 -15 -40.5t-42 -17.5q-23 0 -40.5 15t-17.5 41t18 41.5t41 15.5q22 0 39 -15t17 -40z" />
    <glyph glyph-name="Zcaron" unicode="&#x17d;" horiz-adv-x="500" 
d="M477 677l-327 -613h311q10 0 13.5 -2.5t3.5 -12.5q0 -40 -1 -42q-1 -7 -14 -7h-423q-23 0 -23 10q0 3 8 19l326 613h-289q-11 0 -14 4q-3 3 -3 42q0 11 3 14.5t15 3.5h394q25 0 25 -11q0 -8 -5 -18zM278 855l81 53q11 8 17 8q13 0 13 -17q0 -13 -17 -27q-57 -52 -90 -87
q-22 -25 -34 -25q-9 0 -27 18q-27 35 -90 84q-28 21 -28 35q0 18 14 18q3 0 17 -7l84 -55q19 -14 29 -14q9 0 31 16z" />
    <glyph glyph-name="zcaron" unicode="&#x17e;" horiz-adv-x="396" 
d="M365 488l-228 -433h220q15 0 15 -13v-29q0 -13 -17 -13h-318q-16 0 -16 10q0 5 7 18l231 434h-203q-13 0 -15 3q-4 3 -4 38q0 10 4 12t15 3h297q19 0 19 -12q0 -4 -7 -18zM233 656l73 50q11 9 17 9q14 0 14 -16q0 -10 -17 -26q-63 -54 -89 -87q-14 -20 -24 -20
q-9 0 -22 13q-38 44 -89 84q-20 17 -24 21.5t-4 11.5t5 12t10 5q4 0 16 -7l81 -52q16 -10 26 -10t27 12z" />
    <glyph glyph-name="florin" unicode="&#x192;" horiz-adv-x="396" 
d="M323 416h-82l-27 -262q-17 -142 -46 -210q-31 -70 -72.5 -102.5t-79.5 -32.5q-27 0 -42.5 12.5t-15.5 32.5q0 18 10.5 29.5t28.5 11.5q12 0 24 -6q18 -10 26 -10q28 0 40 37q13 38 32 181l33 319h-56q-12 0 -15.5 1.5t-3.5 9.5q0 24 3.5 29t16.5 5h57q11 105 39 161
q22 42 57 68.5t74 26.5q18 0 30 -9.5t12 -27.5q0 -32 -32 -37h-30q-71 0 -71 -125q0 -30 9 -57h83q19 0 19 -13q0 -16 -2.5 -22.5t-6 -8t-12.5 -1.5z" />
    <glyph glyph-name="circumflex" unicode="&#x2c6;" 
d="M95 625l-73 -50q-11 -9 -17 -9q-14 0 -14 16q0 10 17 26q63 54 89 87q14 20 24 20q11 0 21 -13q50 -53 90 -84q19 -16 23 -21t4 -12t-4.5 -12t-9.5 -5q-4 0 -16 7l-81 52q-18 10 -26 10q-10 0 -27 -12z" />
    <glyph glyph-name="caron" unicode="&#x2c7;" 
d="M156 656l73 50q11 9 17 9q14 0 14 -16q0 -10 -17 -26q-63 -54 -89 -87q-14 -20 -24 -20q-9 0 -22 13q-38 44 -89 84q-20 17 -24 21.5t-4 11.5t5 12t10 5q4 0 16 -7l81 -52q16 -10 26 -10t27 12z" />
    <glyph glyph-name="breve" unicode="&#x2d8;" 
d="M41 697q5 -17 9 -25t13 -20.5t25 -18t39 -5.5q63 0 80 55q5 21 7.5 26t11.5 5q18 0 18 -25q0 -53 -34 -86.5t-83 -33.5q-59 0 -90 38t-31 84q0 23 19 23q12 0 16 -17z" />
    <glyph glyph-name="dotaccent" unicode="&#x2d9;" 
d="M180 663q0 -24 -15.5 -39.5t-39.5 -15.5q-23 0 -39 15.5t-16 39.5t16.5 39.5t38.5 15.5q24 0 39.5 -15.5t15.5 -39.5z" />
    <glyph glyph-name="ring" unicode="&#x2da;" 
d="M200 646q-1 -33 -23 -54.5t-53 -21.5t-53 21t-22 55q0 33 21.5 54t53.5 21q31 0 53.5 -20.5t22.5 -54.5zM164 648q-1 16 -11.5 26.5t-27.5 10.5q-18 0 -29 -11.5t-11 -26.5q0 -17 12 -28.5t28 -11.5q15 0 27.5 11.5t11.5 29.5z" />
    <glyph glyph-name="ogonek" unicode="&#x2db;" 
d="M191 27q-3 -6 -21 -21q-66 -54 -66 -97q0 -19 11 -33t34 -14q7 0 17 2q24 8 28 8q15 0 15 -15q0 -13 -23 -24.5t-53 -11.5q-43 0 -67.5 25t-24.5 57q0 47 60 86q40 25 90 38z" />
    <glyph glyph-name="tilde" unicode="&#x2dc;" 
d="M133 607q-21 16 -29.5 21.5t-19.5 10t-22 4.5q-31 0 -51 -30q-10 -18 -21 -18q-16 0 -16 20q0 25 24.5 57t66.5 32q25 0 63 -25q26 -19 38 -24.5t28 -5.5q29 0 49 32q11 16 19 16q14 0 14 -20q0 -27 -23 -58t-64 -31q-32 0 -56 19z" />
    <glyph glyph-name="hungarumlaut" unicode="&#x2dd;" 
d="M222 664l-65 -83q-10 -12 -19 -12q-7 0 -12.5 5.5t-5.5 12.5q0 5 8 21l49 90q15 25 32 25q11 0 19 -8t8 -20t-14 -31zM114 664l-64 -83q-10 -12 -19 -12q-7 0 -12.5 5.5t-5.5 12.5t7 21l49 90q15 25 32 25q11 0 19 -8t8 -20q0 -15 -14 -31z" />
    <glyph glyph-name="endash" unicode="&#x2013;" horiz-adv-x="542" 
d="M78 314h385q12 0 16.5 -3t4.5 -15v-29q-1 -8 -5 -9.5t-16 -1.5h-384q-18 0 -21 10v32q0 10 4.5 13t15.5 3z" />
    <glyph glyph-name="emdash" unicode="&#x2014;" horiz-adv-x="688" 
d="M74 314h539q10 0 13.5 -2.5t3.5 -11.5q0 -22 -2.5 -26.5t-14.5 -4.5h-537q-7 0 -9.5 0.5t-5 2.5t-3 5t-0.5 9q0 20 2 24t14 4z" />
    <glyph glyph-name="quoteleft" unicode="&#x2018;" 
d="M172 704q-37 -37 -37 -63q0 -17 19 -36q23 -25 23 -44t-13.5 -32t-33.5 -13q-24 0 -43.5 20t-19.5 60q0 60 38 103t60 43q18 0 18 -17q0 -8 -11 -21z" />
    <glyph glyph-name="quoteright" unicode="&#x2019;" 
d="M78 553q37 37 37 64q0 17 -19 36q-23 23 -23 43q0 19 13.5 32.5t33.5 13.5q24 0 43.5 -20t19.5 -60q0 -60 -38 -103t-61 -43q-17 0 -17 17q0 9 11 20z" />
    <glyph glyph-name="quotesinglbase" unicode="&#x201a;" 
d="M78 -71q37 37 37 63q0 18 -19 37q-23 23 -23 43q0 19 13.5 32t33.5 13q24 0 43.5 -19.5t19.5 -60.5q0 -60 -38 -102.5t-61 -42.5q-17 0 -17 17q0 9 11 20z" />
    <glyph glyph-name="quotedblleft" unicode="&#x201c;" horiz-adv-x="396" 
d="M318 704q-36 -39 -36 -63q0 -17 19 -36q22 -24 22 -44q0 -19 -13 -32t-33 -13q-24 0 -43 20t-19 60q0 60 37.5 103t59.5 43q18 0 18 -17q0 -7 -12 -21zM170 704q-36 -39 -36 -63q0 -17 19 -36q22 -24 22 -44q0 -18 -13 -31.5t-33 -13.5q-24 0 -43 20t-19 60
q0 60 37.5 103t59.5 43q7 0 12 -5t5 -12q0 -8 -11 -21z" />
    <glyph glyph-name="quotedblright" unicode="&#x201d;" horiz-adv-x="396" 
d="M77 553q36 36 36 63q0 19 -18 37q-23 23 -23 43q0 19 13.5 32.5t33.5 13.5q23 0 42.5 -20t19.5 -61q0 -60 -37.5 -102.5t-59.5 -42.5q-18 0 -18 17q0 9 11 20zM226 553q36 39 36 63q0 18 -19 37q-22 22 -22 43q0 19 13 32.5t33 13.5q24 0 43 -20.5t19 -59.5
q0 -60 -37.5 -103t-59.5 -43q-18 0 -18 17q0 9 12 20z" />
    <glyph glyph-name="quotedblbase" unicode="&#x201e;" horiz-adv-x="396" 
d="M77 -71q37 37 37 63q0 16 -19 37q-23 23 -23 43q0 19 13.5 32t33.5 13q24 0 43 -19.5t19 -60.5q0 -60 -37.5 -102.5t-59.5 -42.5q-18 0 -18 17q0 9 11 20zM226 -71q36 39 36 63q0 18 -19 37q-22 22 -22 43q0 19 13 32.5t33 13.5q24 0 43 -20.5t19 -59.5
q0 -61 -37.5 -103.5t-59.5 -42.5q-18 0 -18 17q0 8 12 20z" />
    <glyph glyph-name="dagger" unicode="&#x2020;" horiz-adv-x="458" 
d="M413 417l-151 12l16 -408q0 -14 -3.5 -17.5t-15.5 -3.5h-60q-12 0 -16 3.5t-3 16.5l14 409l-148 -12q-21 -2 -23 11v53q0 13 4 16.5t19 1.5l148 -12l-14 198q-1 14 2.5 17t17.5 4h58q13 0 16.5 -4t2.5 -17l-15 -198l151 12q13 2 17 0t5 -10q1 -4 1 -55q0 -13 -4.5 -16
t-18.5 -1z" />
    <glyph glyph-name="daggerdbl" unicode="&#x2021;" horiz-adv-x="479" 
d="M430 193l-157 16l13 -190q1 -12 -2 -15.5t-15 -3.5h-60q-10 0 -14 3.5t-3 15.5l17 190l-159 -16q-11 -1 -14.5 2.5t-3.5 13.5v50q-1 11 3 14t15 2l159 -15v228l-159 -15q-10 -1 -14 2.5t-4 13.5v49q-1 11 3 14t15 2l159 -16l-17 150q-1 12 2.5 15.5t14.5 2.5h62
q12 1 14.5 -3.5t0.5 -14.5l-13 -150l160 16q10 1 12.5 -2.5t2.5 -13.5v-49q1 -11 -3 -14.5t-15 -2.5l-157 15v-227l158 15q10 1 13.5 -2t3.5 -13v-51q0 -10 -3.5 -13.5t-14.5 -2.5z" />
    <glyph glyph-name="bullet" unicode="&#x2022;" horiz-adv-x="333" 
d="M286 353q-1 -50 -33 -84.5t-83 -34.5q-54 0 -88.5 35t-34.5 84q0 46 33.5 82.5t87.5 36.5q52 0 85.5 -35t32.5 -84z" />
    <glyph glyph-name="ellipsis" unicode="&#x2026;" horiz-adv-x="1000" 
d="M228 53q-1 -26 -19 -42.5t-43 -16.5t-43.5 17.5t-18.5 44.5q0 29 19.5 45t42.5 16q26 0 44.5 -18.5t17.5 -45.5zM561 53q-1 -26 -19 -42.5t-43 -16.5t-43.5 17.5t-18.5 44.5q0 29 19.5 45t42.5 16q26 0 44.5 -18.5t17.5 -45.5zM894 53q-1 -26 -19 -42.5t-43 -16.5
t-43.5 17.5t-18.5 44.5q0 29 19.5 45t42.5 16q26 0 44.5 -18.5t17.5 -45.5z" />
    <glyph glyph-name="perthousand" unicode="&#x2030;" horiz-adv-x="1125" 
d="M300 490q1 -100 -34 -167t-100 -67q-58 0 -95.5 60t-37.5 168q0 106 36 169t99 63q60 0 95.5 -62t36.5 -164zM238 489q0 190 -72 190q-21 0 -36.5 -19.5t-22.5 -51t-9.5 -59.5t-2.5 -57q0 -45 4.5 -85t21.5 -75.5t45 -35.5q23 0 39 21.5t22.5 57t8.5 61.5t2 53zM758 225
q1 -100 -33.5 -167t-100.5 -67q-58 0 -95.5 60t-37.5 168q0 106 36 169t99 63q60 0 95.5 -62t36.5 -164zM696 224q0 190 -72 190q-21 0 -36.5 -19.5t-22.5 -51t-9.5 -59.5t-2.5 -57q0 -45 4.5 -85t21.5 -75.5t45 -35.5q23 0 39 21.5t22.5 57t8.5 61.5t2 53zM593 679
l-350 -661q-6 -12 -10 -14.5t-14 -2.5q-19 0 -22.5 1t-3.5 7q0 5 6 17l352 662q6 12 10 15t14 3q16 0 20.5 -1t4.5 -7t-7 -19zM1092 225q1 -100 -33.5 -167t-100.5 -67q-58 0 -95.5 60t-37.5 168q0 106 36 169t99 63q60 0 95.5 -62t36.5 -164zM1030 224q0 190 -72 190
q-21 0 -36.5 -19.5t-22.5 -51t-9.5 -59.5t-2.5 -57q0 -45 4.5 -85t21.5 -75.5t45 -35.5q23 0 39 21.5t22.5 57t8.5 61.5t2 53z" />
    <glyph glyph-name="guilsinglleft" unicode="&#x2039;" horiz-adv-x="229" 
d="M132 253l53 -100q6 -10 6 -17t-5 -12t-11 -5q-11 0 -22 17q-56 85 -97 124q-27 24 -27 33q0 8 17 23q51 48 92 108q18 25 23 30.5t11 5.5t11.5 -4.5t5.5 -12.5t-5 -16l-53 -99q-13 -22 -13 -36q0 -9 14 -39z" />
    <glyph glyph-name="guilsinglright" unicode="&#x203a;" horiz-adv-x="229" 
d="M97 326l-53 100q-6 10 -6 17t5 12t11 5q11 0 22 -17q59 -88 97 -123q19 -18 23 -22.5t4 -11.5q0 -8 -17 -23q-48 -45 -92 -108q-18 -25 -23 -30.5t-11 -5.5t-11.5 4.5t-5.5 12.5t5 16l53 99q13 22 13 36q0 9 -14 39z" />
    <glyph glyph-name="fraction" unicode="&#x2044;" horiz-adv-x="125" 
d="M259 679l-350 -662q-6 -12 -10 -14.5t-14 -2.5q-18 0 -22 1t-4 8q0 3 6 17l352 662q6 12 10 15t14 3q26 0 26 -8q0 -4 -8 -19z" />
    <glyph glyph-name="fraction" unicode="&#x2215;" horiz-adv-x="125" 
d="M259 679l-350 -662q-6 -12 -10 -14.5t-14 -2.5q-18 0 -22 1t-4 8q0 3 6 17l352 662q6 12 10 15t14 3q26 0 26 -8q0 -4 -8 -19z" />
    <glyph glyph-name="Euro" unicode="&#x20ac;" horiz-adv-x="542" 
d="M512 125q0 -43 -50 -91.5t-126 -48.5q-188 0 -219 283h-70q-11 0 -15.5 3.5t-1.5 11.5l6 19q4 17 8 18q3 1 8 1h61q-1 11 -1 32q0 29 1 44h-65q-11 0 -15.5 3.5t-1.5 11.5l6 20q5 16 9 17q2 1 7 1h65q10 75 34 133.5t72 98t112 39.5q76 0 126 -48.5t50 -91.5
q0 -46 -45 -46q-27 0 -40 32q-2 4 -7.5 21t-11 27.5t-15 24t-25 20.5t-35.5 7q-50 0 -82 -59t-41 -158h229q11 0 15.5 -3t1.5 -12l-6 -19q-3 -9 -3.5 -11t-3.5 -5t-5.5 -3h-9.5h-221q-1 -14 -1 -44v-32h190q11 0 15.5 -3.5t1.5 -11.5l-6 -19q-4 -15 -6.5 -17t-15.5 -2h-176
q8 -103 38.5 -163.5t82.5 -60.5q20 0 35.5 6t26 20t15.5 22t12 27t8 20q13 32 40 32q45 0 45 -46z" />
    <glyph glyph-name="trademark" unicode="&#x2122;" horiz-adv-x="687" 
d="M620 707v-332h-46v217l2 68l-17 -58l-72 -227h-42l-72 227l-17 57l3 -67v-217h-45v332h67l87 -273l85 273h67zM180 665v-290h-47v290h-109v42h262v-42h-106z" />
    <glyph glyph-name="minus" unicode="&#x2212;" horiz-adv-x="500" 
d="M500 321v-59h-500v59h500z" />
    <glyph glyph-name="fi" unicode="&#xfb01;" horiz-adv-x="479" 
d="M256 473h-81v-452q0 -13 -4.5 -17t-15.5 -4h-52q-12 0 -15 4.5t-3 17.5v451h-56q-12 0 -15.5 2t-3.5 12q0 22 2.5 26.5t15.5 4.5h57q7 109 31 161q19 41 52.5 67.5t72.5 26.5q19 0 32 -10.5t13 -28.5q0 -15 -9 -24t-21 -11h-8.5h-14h-8.5q-65 0 -65 -105q0 -46 13 -76h83
q14 1 17 -4t3 -28q0 -9 -4.5 -11t-15.5 -2zM419 499v-480q0 -12 -4 -15.5t-16 -3.5h-54q-7 0 -10.5 2t-4 5.5t-0.5 11.5v480q0 11 2.5 15t14.5 4h52q12 0 16 -3.5t4 -15.5zM428 662q1 -23 -14 -39t-40 -16t-39 15t-14 37q0 23 15.5 38t38.5 15q22 0 37 -14t16 -36z" />
    <glyph glyph-name="fl" unicode="&#xfb02;" horiz-adv-x="479" 
d="M256 473h-81v-452q0 -13 -4.5 -17t-15.5 -4h-52q-12 0 -15 4.5t-3 17.5v451h-56q-12 0 -15.5 2t-3.5 12q0 22 2.5 26.5t15.5 4.5h57q7 109 31 161q19 41 52.5 67.5t72.5 26.5q20 0 32.5 -10.5t12.5 -28.5q0 -31 -30 -35h-31q-65 0 -65 -105q0 -46 13 -76h83q14 1 17 -4
t3 -28q0 -9 -4 -11t-16 -2zM331 18v732q0 10 4.5 13t15.5 3h50q12 0 15.5 -3t3.5 -14v-731q0 -11 -4 -14.5t-15 -3.5h-51q-12 0 -15.5 3t-3.5 15z" />
    </font>
</defs>
</svg>
