<?xml version="1.0" standalone="no"?>
<!DOCTYPE svg PUBLIC "-//W3C//DTD SVG 1.1//EN" "http://www.w3.org/Graphics/SVG/1.1/DTD/svg11.dtd" >
<svg xmlns="http://www.w3.org/2000/svg" xmlns:xlink="http://www.w3.org/1999/xlink" version="1.1">
<metadata>
Created by FontForge 20170731 at Fri Jul 24 01:14:48 2015
 By Aleksey,,,
Copyright A~A^(c) 2008 - 2011 Linotype GmbH, www.linotype.com. All rights reserved. This font software may not be reproduced, modified, disclosed or transferred without the express written approval of Linotype GmbH.
</metadata>
<defs>
<font id="DINNextArabic-Bold" horiz-adv-x="556" >
  <font-face 
    font-family="DIN Next Arabic"
    font-weight="400"
    font-stretch="normal"
    units-per-em="1000"
    panose-1="0 0 0 0 0 0 0 0 0 0"
    ascent="750"
    descent="-250"
    x-height="484"
    cap-height="680"
    bbox="-189.692 -453 1391 1389"
    underline-thickness="50"
    underline-position="-200"
    unicode-range="U+000D-FEFC"
  />
<missing-glyph horiz-adv-x="506" 
d="M198 124v67q0 10 10 10h71q10 0 10 -10v-67q0 -10 -10 -10h-71q-10 0 -10 10zM277 243h-68q-10 0 -10 10v24q0 29 19 54l46 60q23 30 23 52q0 18 -11.5 30t-29.5 12q-36 0 -48 -39q-2 -11 -11 -9l-65 10q-10 0 -8 11q9 49 44 77t92 28q56 0 91.5 -33.5t35.5 -83.5
q0 -39 -32 -82l-45 -60q-13 -18 -13 -38v-13q0 -10 -10 -10zM69 609v-538q0 -6 6 -6h356q6 0 6 6v538q0 6 -6 6h-356q-6 0 -6 -6zM0 10v660q0 10 10 10h486q10 0 10 -10v-660q0 -10 -10 -10h-486q-10 0 -10 10z" />
    <glyph glyph-name="uniFB50" unicode="&#x671;" horiz-adv-x="261" arabic-form="isolated" 
d="M201 670v-660q0 -10 -10 -10h-121q-10 0 -10 10v660q0 10 10 10h121q10 0 10 -10zM153 865q-20 0 -54 -14v-43h67q14 0 17.5 5.5t3.5 20.5q0 31 -34 31zM18 808h12q10 0 10 18v82q0 7 8 7h43q8 0 8 -7v-8q36 14 67 14q80 0 80 -83q0 -43 -14 -57.5t-48 -14.5h-166
q-7 0 -7 7v35q0 7 7 7z" />
    <glyph glyph-name="aAlifWasla.fina" unicode="&#x671;" horiz-adv-x="276" arabic-form="final" 
d="M156 865q-20 0 -54 -14v-43h67q14 0 17.5 5.5t3.5 20.5q0 31 -34 31zM21 808h12q10 0 10 18v82q0 7 8 7h43q8 0 8 -7v-8q36 14 67 14q80 0 80 -83q0 -43 -14 -57.5t-48 -14.5h-166q-7 0 -7 7v35q0 7 7 7zM60 126v544q0 10 10 10h121q10 0 10 -10v-496q0 -29 11.5 -41
t36.5 -12h27q40 0 40 -63q0 -35 -9 -46.5t-31 -11.5h-99q-63 0 -90 30t-27 96z" />
    <glyph glyph-name="uniFB56" unicode="&#x67e;" horiz-adv-x="856" arabic-form="isolated" 
d="M241 121h374q27 0 38 11.5t11 41.5v237q0 10 10 10h122q10 0 10 -10v-285q0 -67 -27 -96.5t-92 -29.5h-519q-63 0 -90 30t-27 96v221q0 10 10 10h122q10 0 10 -10v-173q0 -29 11.5 -41t36.5 -12zM478 -347h-101q-10 0 -10 10v98q0 10 10 10h101q10 0 10 -10v-98
q0 -10 -10 -10zM555 -206h-101q-10 0 -10 10v98q0 10 10 10h101q10 0 10 -10v-98q0 -10 -10 -10zM400 -206h-100q-10 0 -10 10v98q0 10 10 10h100q10 0 10 -10v-98q0 -10 -10 -10z" />
    <glyph glyph-name="aPeh.fina" unicode="&#x67e;" horiz-adv-x="901" arabic-form="final" 
d="M664 196v215q0 10 10 10h122q10 0 10 -10v-238q5 -52 76 -52h22q40 0 40 -60q0 -61 -40 -61q-42 0 -68.5 10t-43.5 40q-15 -29 -43 -39.5t-84 -10.5h-497q-63 0 -90 30t-27 96v221q0 10 10 10h122q10 0 10 -10v-173q0 -29 11.5 -41t36.5 -12h374q31 0 40 15t9 60z
M477 -347h-101q-10 0 -10 10v98q0 10 10 10h101q10 0 10 -10v-98q0 -10 -10 -10zM554 -206h-101q-10 0 -10 10v98q0 10 10 10h101q10 0 10 -10v-98q0 -10 -10 -10zM399 -206h-100q-10 0 -10 10v98q0 10 10 10h100q10 0 10 -10v-98q0 -10 -10 -10z" />
    <glyph glyph-name="aPeh.init" unicode="&#x67e;" horiz-adv-x="319" arabic-form="initial" 
d="M134 0h-134q-21 0 -30.5 13t-9.5 44q0 64 40 64h62q25 0 36.5 12t11.5 41v237q0 10 10 10h121q10 0 10 -10v-285q0 -66 -27 -96t-90 -30zM217 -347h-101q-10 0 -10 10v98q0 10 10 10h101q10 0 10 -10v-98q0 -10 -10 -10zM294 -206h-101q-10 0 -10 10v98q0 10 10 10h101
q10 0 10 -10v-98q0 -10 -10 -10zM139 -206h-100q-10 0 -10 10v98q0 10 10 10h100q10 0 10 -10v-98q0 -10 -10 -10z" />
    <glyph glyph-name="aPeh.medi" unicode="&#x67e;" horiz-adv-x="353" arabic-form="medial" 
d="M233 -347h-101q-10 0 -10 10v98q0 10 10 10h101q10 0 10 -10v-98q0 -10 -10 -10zM310 -206h-101q-10 0 -10 10v98q0 10 10 10h101q10 0 10 -10v-98q0 -10 -10 -10zM155 -206h-100q-10 0 -10 10v98q0 10 10 10h100q10 0 10 -10v-98q0 -10 -10 -10zM113 203v208q0 10 10 10
h121q10 0 10 -10v-236q5 -54 76 -54h23q40 0 40 -60q0 -61 -40 -61q-43 0 -69.5 10t-43.5 40q-15 -30 -45 -40t-89 -10h-103q-21 0 -30.5 13t-9.5 46t9.5 47.5t30.5 14.5h62q31 0 39.5 17t8.5 65z" />
    <glyph glyph-name="uniFB66" unicode="&#x679;" horiz-adv-x="856" arabic-form="isolated" 
d="M241 121h374q27 0 38 11.5t11 41.5v237q0 10 10 10h122q10 0 10 -10v-285q0 -67 -27 -96.5t-92 -29.5h-519q-63 0 -90 30t-27 96v221q0 10 10 10h122q10 0 10 -10v-173q0 -29 11.5 -41t36.5 -12zM449 545q-19 0 -54 -13v-43h67q14 0 17.5 5t3.5 20q0 31 -34 31zM314 489
h12q10 0 10 11v152q0 7 8 7h43q8 0 8 -7v-71q37 14 67 14q80 0 80 -81q0 -41 -13 -58t-41 -17h-174q-7 0 -7 7v36q0 7 7 7z" />
    <glyph glyph-name="aTteh.fina" unicode="&#x679;" horiz-adv-x="901" arabic-form="final" 
d="M449 545q-19 0 -54 -13v-43h67q14 0 17.5 5t3.5 20q0 31 -34 31zM314 489h12q10 0 10 11v152q0 7 8 7h43q8 0 8 -7v-71q37 14 67 14q80 0 80 -81q0 -41 -13 -58t-41 -17h-174q-7 0 -7 7v36q0 7 7 7zM664 196v215q0 10 10 10h122q10 0 10 -10v-238q5 -52 76 -52h22
q40 0 40 -60q0 -61 -40 -61q-42 0 -68.5 10t-43.5 40q-15 -29 -43 -39.5t-84 -10.5h-497q-63 0 -90 30t-27 96v221q0 10 10 10h122q10 0 10 -10v-173q0 -29 11.5 -41t36.5 -12h374q31 0 40 15t9 60z" />
    <glyph glyph-name="aTteh.init" unicode="&#x679;" horiz-adv-x="285" arabic-form="initial" 
d="M174 609q-19 0 -54 -13v-43h67q14 0 17.5 5t3.5 20q0 31 -34 31zM39 553h12q10 0 10 11v152q0 7 8 7h43q8 0 8 -7v-71q37 14 67 14q80 0 80 -81q0 -41 -13 -58t-41 -17h-174q-7 0 -7 7v36q0 7 7 7zM108 0h-108q-21 0 -30.5 7.5t-9.5 27.5q0 29 10.5 57.5t29.5 28.5h35
q25 0 36.5 12t11.5 41v237q0 10 10 10h122q10 0 10 -10v-285q0 -66 -27 -96t-90 -30z" />
    <glyph glyph-name="aTteh.medi" unicode="&#x679;" horiz-adv-x="323" arabic-form="medial" 
d="M182 609q-19 0 -54 -13v-43h67q14 0 17.5 5t3.5 20q0 31 -34 31zM47 553h12q10 0 10 11v152q0 7 8 7h43q8 0 8 -7v-71q37 14 67 14q80 0 80 -81q0 -41 -13 -58t-41 -17h-174q-7 0 -7 7v36q0 7 7 7zM214 50q-17 -30 -45.5 -40t-85.5 -10h-80q-22 0 -31 7t-9 28q0 32 10 59
t32 27h33q30 0 39 16.5t9 63.5v210q0 10 40 10h92q10 0 10 -10v-236q5 -54 76 -54h23q40 0 40 -60q0 -61 -40 -61q-43 0 -69.5 10t-43.5 40z" />
    <glyph glyph-name="uniFB6A" unicode="&#x6a4;" horiz-adv-x="979" arabic-form="isolated" 
d="M710 317q-82 0 -82 -98q0 -56 19.5 -79t62.5 -23t62.5 22t19.5 77q0 101 -82 101zM710 0h-545q-63 0 -90 30t-27 96v221q0 10 10 10h122q10 0 10 -10v-173q0 -29 11.5 -41t36.5 -12h267q-16 31 -16 90q0 121 62.5 174t158.5 53q99 0 160 -52.5t61 -174.5
q0 -211 -221 -211zM757 665h-100q-10 0 -10 10v98q0 10 10 10h100q10 0 10 -10v-98q0 -10 -10 -10zM834 522h-101q-10 0 -10 10v98q0 10 10 10h101q10 0 10 -10v-98q0 -10 -10 -10zM679 522h-100q-10 0 -10 10v98q0 10 10 10h100q10 0 10 -10v-98q0 -10 -10 -10z" />
    <glyph glyph-name="aVeh.fina" unicode="&#x6a4;" horiz-adv-x="973" arabic-form="final" 
d="M694 339q-34 0 -57.5 -21.5t-23.5 -63.5q0 -77 81 -116q81 39 81 116q0 42 -23.5 63.5t-57.5 21.5zM694 438q104 0 163 -44.5t59 -128.5q0 -89 -77 -145q11 1 32 1h102q21 0 30.5 -13t9.5 -47q0 -33 -9.5 -47t-30.5 -14h-124q-109 0 -154 24q-48 -24 -162 -24h-368
q-63 0 -90 30t-27 96v226q0 10 10 10h122q10 0 10 -10v-178q0 -35 16 -44t57 -9h286q-35 24 -56 62t-21 82q0 84 59 128.5t163 44.5zM747 665h-100q-10 0 -10 10v98q0 10 10 10h100q10 0 10 -10v-98q0 -10 -10 -10zM824 522h-101q-10 0 -10 10v98q0 10 10 10h101
q10 0 10 -10v-98q0 -10 -10 -10zM669 522h-100q-10 0 -10 10v98q0 10 10 10h100q10 0 10 -10v-98q0 -10 -10 -10z" />
    <glyph glyph-name="aVeh.init" unicode="&#x6a4;" horiz-adv-x="554" arabic-form="initial" 
d="M285 317q-82 0 -82 -98q0 -56 19.5 -79t62.5 -23t62.5 22t19.5 77q0 101 -82 101zM285 0h-282q-22 0 -31 13t-9 48q0 60 40 60h77q-16 31 -16 90q0 121 62.5 174t158.5 53q99 0 160 -52.5t61 -174.5q0 -211 -221 -211zM336 665h-100q-10 0 -10 10v98q0 10 10 10h100
q10 0 10 -10v-98q0 -10 -10 -10zM413 522h-101q-10 0 -10 10v98q0 10 10 10h101q10 0 10 -10v-98q0 -10 -10 -10zM258 522h-100q-10 0 -10 10v98q0 10 10 10h100q10 0 10 -10v-98q0 -10 -10 -10z" />
    <glyph glyph-name="aVeh.medi" unicode="&#x6a4;" horiz-adv-x="560" arabic-form="medial" 
d="M281 339q-35 0 -58 -21t-23 -63q0 -78 81 -117q81 39 81 117q0 41 -23.5 62.5t-57.5 21.5zM281 438q104 0 163 -44t59 -128q0 -91 -78 -146q11 1 33 1h102q21 0 30.5 -13t9.5 -47q0 -33 -9.5 -47t-30.5 -14h-149q-90 0 -129 24q-44 -24 -137 -24h-145q-21 0 -30.5 14.5
t-9.5 47.5q0 32 9.5 45.5t30.5 13.5h136q-77 53 -77 145q0 84 59 128t163 44zM333 665h-100q-10 0 -10 10v98q0 10 10 10h100q10 0 10 -10v-98q0 -10 -10 -10zM410 522h-101q-10 0 -10 10v98q0 10 10 10h101q10 0 10 -10v-98q0 -10 -10 -10zM255 522h-100q-10 0 -10 10v98
q0 10 10 10h100q10 0 10 -10v-98q0 -10 -10 -10z" />
    <glyph glyph-name="uniFB7A" unicode="&#x686;" horiz-adv-x="578" arabic-form="isolated" 
d="M285 -205h-72q-96 0 -143 37.5t-47 127.5q0 161 167 161h120q48 0 63.5 15t15.5 60q0 121 -104 121q-50 0 -101 -44q-8 -5 -14 -1l-60 71q-8 10 -2 15q80 80 187 80q124 0 182 -67.5t58 -181.5q0 -109 -41 -149t-128 -40h-151q-49 0 -49 -42q0 -24 13 -33t51 -9h55
q10 0 10 -10v-101q0 -10 -10 -10zM444 -222h-65q-7 0 -7 7v64q0 6 7 6h65q7 0 7 -6v-64q0 -7 -7 -7zM494 -130h-65q-7 0 -7 7v63q0 7 7 7h65q7 0 7 -7v-63q0 -7 -7 -7zM394 -130h-65q-7 0 -7 7v63q0 7 7 7h65q6 0 6 -7v-63q0 -7 -6 -7z" />
    <glyph glyph-name="aTcheh.fina" unicode="&#x686;" horiz-adv-x="633" arabic-form="final" 
d="M287 -205h-72q-96 0 -143 37.5t-47 127.5q0 161 167 161h119q47 0 62.5 15t15.5 60q0 121 -102 121q-54 0 -103 -44q-7 -7 -14 -1l-59 71q-9 9 -3 15q80 80 188 80q124 0 182 -67.5t58 -181.5q0 -4 -0.5 -9.5t-0.5 -7.5q7 -51 76 -51h23q40 0 40 -60q0 -61 -40 -61
q-46 0 -75.5 12.5t-48.5 48.5q-34 -61 -143 -61h-151q-48 0 -48 -42q0 -24 13 -33t51 -9h55q10 0 10 -10v-101q0 -10 -10 -10zM446 -222h-65q-7 0 -7 7v64q0 6 7 6h65q7 0 7 -6v-64q0 -7 -7 -7zM496 -130h-65q-7 0 -7 7v63q0 7 7 7h65q7 0 7 -7v-63q0 -7 -7 -7zM396 -130
h-65q-7 0 -7 7v63q0 7 7 7h65q6 0 6 -7v-63q0 -7 -6 -7z" />
    <glyph glyph-name="aTcheh.init" unicode="&#x686;" horiz-adv-x="520" arabic-form="initial" 
d="M304 0h-304q-40 0 -40 59q0 62 40 62h248q47 0 62.5 17t15.5 69q0 47 -24.5 78.5t-77.5 31.5q-54 0 -103 -44q-7 -7 -14 -1l-59 71q-9 9 -3 15q84 80 193 80q121 0 178 -65.5t57 -170.5q0 -118 -41 -160t-128 -42zM298 -347h-101q-10 0 -10 10v98q0 10 10 10h101
q10 0 10 -10v-98q0 -10 -10 -10zM375 -206h-101q-10 0 -10 10v98q0 10 10 10h101q10 0 10 -10v-98q0 -10 -10 -10zM220 -206h-100q-10 0 -10 10v98q0 10 10 10h100q10 0 10 -10v-98q0 -10 -10 -10z" />
    <glyph glyph-name="aTcheh.medi" unicode="&#x686;" horiz-adv-x="571" arabic-form="medial" 
d="M45 358q80 80 188 80q124 0 182 -67.5t58 -181.5v-16q7 -52 75 -52h23q40 0 40 -60q0 -61 -40 -61q-46 0 -75.5 12.5t-48.5 48.5q-34 -61 -143 -61h-304q-40 0 -40 59q0 33 9 47.5t31 14.5h248q47 0 62.5 15t15.5 60q0 121 -102 121q-54 0 -103 -44q-7 -7 -14 -1l-59 71
q-9 9 -3 15zM298 -347h-101q-10 0 -10 10v98q0 10 10 10h101q10 0 10 -10v-98q0 -10 -10 -10zM375 -206h-101q-10 0 -10 10v98q0 10 10 10h101q10 0 10 -10v-98q0 -10 -10 -10zM220 -206h-100q-10 0 -10 10v98q0 10 10 10h100q10 0 10 -10v-98q0 -10 -10 -10z" />
    <glyph glyph-name="uniFB88" unicode="&#x688;" horiz-adv-x="496" arabic-form="isolated" 
d="M446 258v-87q0 -95 -36 -133t-115 -38h-242q-10 0 -10 10v101q0 10 10 10h172q48 0 61.5 14t13.5 54v54q0 74 -90 74h-115q-10 0 -10 10v101q0 10 10 10h174q177 0 177 -180zM257 609q-19 0 -54 -13v-43h67q14 0 17.5 5t3.5 20q0 31 -34 31zM122 553h12q10 0 10 11v152
q0 7 8 7h43q8 0 8 -7v-71q37 14 67 14q80 0 80 -81q0 -41 -13 -58t-41 -17h-174q-7 0 -7 7v36q0 7 7 7z" />
    <glyph glyph-name="aDdal.fina" unicode="&#x688;" horiz-adv-x="544" arabic-form="final" 
d="M53 121h172q48 0 61.5 14t13.5 54v54q0 74 -90 74h-115q-10 0 -10 10v101q0 10 10 10h157q97 0 145.5 -42t48.5 -138v-83q5 -54 76 -54h22q40 0 40 -60q0 -61 -40 -61q-46 0 -74.5 12t-46.5 45q-32 -57 -128 -57h-242q-10 0 -10 10v101q0 10 10 10zM257 609
q-19 0 -54 -13v-43h67q14 0 17.5 5t3.5 20q0 31 -34 31zM122 553h12q10 0 10 11v152q0 7 8 7h43q8 0 8 -7v-71q37 14 67 14q80 0 80 -81q0 -41 -13 -58t-41 -17h-174q-7 0 -7 7v36q0 7 7 7z" />
    <glyph glyph-name="uniFB8A" unicode="&#x698;" horiz-adv-x="309" arabic-form="isolated" 
d="M58 -205h-46q-10 0 -10 10v101q0 10 10 10h22q41 0 58.5 20.5t17.5 64.5v410q0 10 10 10h122q10 0 10 -10v-415q0 -103 -47 -152t-147 -49zM231 665h-100q-10 0 -10 10v98q0 10 10 10h100q10 0 10 -10v-98q0 -10 -10 -10zM308 522h-101q-10 0 -10 10v98q0 10 10 10h101
q10 0 10 -10v-98q0 -10 -10 -10zM153 522h-100q-10 0 -10 10v98q0 10 10 10h100q10 0 10 -10v-98q0 -10 -10 -10z" />
    <glyph glyph-name="aJeh.fina" unicode="&#x698;" horiz-adv-x="350" arabic-form="final" 
d="M110 45v366q0 10 10 10h122q10 0 10 -10v-236q5 -54 76 -54h22q40 0 40 -60q0 -61 -40 -61q-70 0 -98 34v-16q0 -116 -45 -169.5t-149 -53.5h-46q-10 0 -10 10v101q0 10 10 10h22q49 0 62.5 29t13.5 100zM232 665h-100q-10 0 -10 10v98q0 10 10 10h100q10 0 10 -10v-98
q0 -10 -10 -10zM309 522h-101q-10 0 -10 10v98q0 10 10 10h101q10 0 10 -10v-98q0 -10 -10 -10zM154 522h-100q-10 0 -10 10v98q0 10 10 10h100q10 0 10 -10v-98q0 -10 -10 -10z" />
    <glyph glyph-name="uniFB8C" unicode="&#x691;" horiz-adv-x="309" arabic-form="isolated" 
d="M58 -205h-46q-10 0 -10 10v101q0 10 10 10h22q41 0 58.5 20.5t17.5 64.5v410q0 10 10 10h122q10 0 10 -10v-415q0 -103 -47 -152t-147 -49zM202 609q-19 0 -54 -13v-43h67q14 0 17.5 5t3.5 20q0 31 -34 31zM67 553h12q10 0 10 11v152q0 7 8 7h43q8 0 8 -7v-71
q37 14 67 14q80 0 80 -81q0 -41 -13 -58t-41 -17h-174q-7 0 -7 7v36q0 7 7 7z" />
    <glyph glyph-name="aRreh.fina" unicode="&#x691;" horiz-adv-x="350" arabic-form="final" 
d="M110 45v366q0 10 10 10h122q10 0 10 -10v-236q5 -54 76 -54h22q40 0 40 -60q0 -61 -40 -61q-70 0 -98 34v-16q0 -116 -45 -169.5t-149 -53.5h-46q-10 0 -10 10v101q0 10 10 10h22q49 0 62.5 29t13.5 100zM202 609q-19 0 -54 -13v-43h67q14 0 17.5 5t3.5 20q0 31 -34 31z
M67 553h12q10 0 10 11v152q0 7 8 7h43q8 0 8 -7v-71q37 14 67 14q80 0 80 -81q0 -41 -13 -58t-41 -17h-174q-7 0 -7 7v36q0 7 7 7z" />
    <glyph glyph-name="uniFB8E" unicode="&#x6a9;" horiz-adv-x="881" arabic-form="isolated" 
d="M679 0h-514q-63 0 -90 30t-27 96v221q0 10 10 10h122q10 0 10 -10v-173q0 -35 15.5 -44t56.5 -9h347q48 0 61.5 13t13.5 54v46q0 47 -25 61.5t-85 14.5h-130q-10 0 -10 28v64q0 7 9 16l226 266q6 7 13 3l82 -70q8 -8 4 -14l-149 -174q107 -4 159.5 -42.5t52.5 -141.5v-74
q0 -95 -36.5 -133t-115.5 -38z" />
    <glyph glyph-name="aKeheh.fina" unicode="&#x6a9;" horiz-adv-x="928" arabic-form="final" 
d="M679 0h-514q-63 0 -90 30t-27 96v221q0 10 10 10h122q10 0 10 -10v-173q0 -29 11.5 -41t36.5 -12h371q48 0 61.5 13t13.5 54v46q0 42 -21 59t-69 17h-150q-10 0 -10 28v64q0 7 9 16l226 266q6 7 13 3l82 -70q8 -8 4 -14l-149 -174q106 -2 159 -41.5t53 -142.5v-44
q0 -21 -1 -32q8 -48 76 -48h22q40 0 40 -60q0 -61 -40 -61q-46 0 -74 11.5t-47 44.5q-33 -56 -128 -56z" />
    <glyph glyph-name="aKeheh.init" unicode="&#x6a9;" horiz-adv-x="495" arabic-form="initial" 
d="M383 603l-150 -174q112 -4 162 -45.5t50 -153.5v-59q0 -95 -36 -133t-115 -38h-294q-21 0 -30.5 14.5t-9.5 49.5q0 33 9 45t31 12h224q48 0 61.5 13t13.5 54v46q0 40 -21 58t-69 18h-150q-10 0 -10 10v82q0 6 22 31l212 251q6 7 13 3l83 -70q8 -8 4 -14z" />
    <glyph glyph-name="aKeheh.medi" unicode="&#x6a9;" horiz-adv-x="543" arabic-form="medial" 
d="M383 603l-150 -174q108 -4 160 -42t52 -142v-73q0 -24 20.5 -37.5t55.5 -13.5h22q40 0 40 -60q0 -61 -40 -61q-46 0 -74.5 12t-46.5 45q-32 -57 -128 -57h-294q-21 0 -30.5 14.5t-9.5 49.5q0 33 9 45t31 12h224q48 0 61.5 13t13.5 54v46q0 40 -21 58t-69 18h-150
q-10 0 -10 10v82q0 6 20 29l214 253q6 7 13 3l83 -70q8 -8 4 -14z" />
    <glyph glyph-name="uniFB92" unicode="&#x6af;" horiz-adv-x="881" arabic-form="isolated" 
d="M679 0h-514q-63 0 -90 30t-27 96v221q0 10 10 10h122q10 0 10 -10v-173q0 -35 15.5 -44t56.5 -9h347q48 0 61.5 13t13.5 54v46q0 47 -25 61.5t-85 14.5h-130q-10 0 -10 28v64q0 7 9 16l226 266q6 7 13 3l82 -70q8 -8 4 -14l-149 -174q107 -4 159.5 -42.5t52.5 -141.5v-74
q0 -95 -36.5 -133t-115.5 -38zM630 718l-222 -261q-6 -7 -13 -3l-70 58q-8 5 -4 14l222 261q6 7 13 3l70 -58q8 -8 4 -14z" />
    <glyph glyph-name="aGaf.fina" unicode="&#x6af;" horiz-adv-x="923" arabic-form="final" 
d="M637 718l-222 -261q-6 -7 -13 -3l-70 58q-8 5 -4 14l222 261q6 7 13 3l70 -58q8 -8 4 -14zM686 0h-514q-63 0 -90 30t-27 96v221q0 10 10 10h122q10 0 10 -10v-173q0 -29 11.5 -41t36.5 -12h371q48 0 61.5 13t13.5 54v46q0 42 -21 59t-69 17h-150q-10 0 -10 28v64
q0 7 9 16l226 266q6 7 13 3l82 -70q8 -8 4 -14l-149 -174q106 -2 159 -41.5t53 -142.5v-44q0 -21 -1 -32q8 -48 76 -48h22q40 0 40 -60q0 -61 -40 -61q-46 0 -74 11.5t-47 44.5q-33 -56 -128 -56z" />
    <glyph glyph-name="aGaf.init" unicode="&#x6af;" horiz-adv-x="551" arabic-form="initial" 
d="M301 718l-222 -261q-6 -7 -13 -3l-70 58q-8 5 -4 14l222 261q6 7 13 3l70 -58q8 -8 4 -14zM439 603l-150 -174q112 -4 162 -45.5t50 -153.5v-59q0 -95 -36 -133t-115 -38h-350q-21 0 -30.5 14.5t-9.5 49.5q0 33 9 45t31 12h280q48 0 61.5 13t13.5 54v46q0 40 -21 58
t-69 18h-150q-10 0 -10 10v82q0 6 22 31l212 251q6 7 13 3l83 -70q8 -8 4 -14z" />
    <glyph glyph-name="aGaf.medi" unicode="&#x6af;" horiz-adv-x="596" arabic-form="medial" 
d="M300 718l-222 -261q-6 -7 -13 -3l-70 58q-8 5 -4 14l222 261q6 7 13 3l70 -58q8 -8 4 -14zM437 603l-150 -174q108 -4 160 -42t52 -142v-73q6 -51 76 -51h22q40 0 40 -60q0 -61 -40 -61q-46 0 -74.5 12t-46.5 45q-32 -57 -128 -57h-348q-21 0 -30.5 14.5t-9.5 49.5
q0 33 9 45t31 12h278q48 0 61.5 13t13.5 54v46q0 40 -21 58t-69 18h-150q-10 0 -10 10v82q0 6 20 29l214 253q6 7 13 3l83 -70q8 -8 4 -14z" />
    <glyph glyph-name="uniFB9E" unicode="&#x6ba;" horiz-adv-x="609" arabic-form="isolated" 
d="M97 222q5 6 15 3l108 -35q8 -5 4 -13q-38 -74 -38 -142q0 -65 33.5 -95.5t81.5 -30.5q109 0 109 119v300q0 10 10 10h121q10 0 10 -10v-306q0 -119 -69.5 -177.5t-183.5 -58.5q-113 0 -184.5 59t-71.5 179q0 110 55 198z" />
    <glyph glyph-name="aNunGhunna.fina" unicode="&#x6ba;" horiz-adv-x="646" arabic-form="final" 
d="M410 28v300q0 10 10 10h121q10 0 10 -10v-153q5 -54 76 -54h19q40 0 40 -60q0 -61 -40 -61q-67 0 -95 31v-9q0 -119 -69.5 -177.5t-183.5 -58.5q-113 0 -184.5 59t-71.5 179q0 110 55 198q5 6 15 3l108 -35q8 -5 4 -13q-38 -74 -38 -142q0 -65 33.5 -95.5t81.5 -30.5
q109 0 109 119z" />
    <glyph glyph-name="aHehYeh.fina" unicode="&#x6c0;" horiz-adv-x="568" arabic-form="final" 
d="M151 616h36q-14 26 -14 53q0 41 28.5 70.5t81.5 29.5q61 0 91 -40q4 -5 0 -9l-30 -31q-6 -5 -10 -1q-23 23 -47 23q-19 0 -31 -12t-12 -32q0 -31 29 -51h100q6 0 6 -7v-45q0 -7 -6 -7h-222q-6 0 -6 7v45q0 7 6 7zM256 159q84 0 84 89v69h-80q-41 0 -62.5 -19t-21.5 -65
q0 -74 80 -74zM239 438h101v43q0 10 10 10h121q10 0 10 -10v-307q0 -29 11.5 -41t36.5 -12h32q40 0 40 -61q0 -34 -9 -47t-31 -13h-104q-51 0 -77.5 16.5t-35.5 57.5q-46 -36 -113 -36q-85 0 -139.5 48t-54.5 147q0 58 17 99.5t46.5 63.5t63.5 32t75 10z" />
    <glyph glyph-name="uniFBA6" unicode="&#x6c1;" horiz-adv-x="532" arabic-form="isolated" 
d="M263 317q-82 0 -82 -101q0 -55 20.5 -78.5t61.5 -23.5q43 0 62.5 23t19.5 79q0 101 -82 101zM263 -7q-221 0 -221 218q0 122 61 174.5t160 52.5t160 -52.5t61 -174.5q0 -218 -221 -218z" />
    <glyph glyph-name="aHehGoal.fina" unicode="&#x6c1;" horiz-adv-x="536" arabic-form="final" 
d="M446 411v-218q0 -39 13 -55.5t52 -16.5h25q21 0 30.5 -13.5t9.5 -48.5q0 -59 -40 -59h-87q-144 0 -144 141v153h-49q-44 0 -59.5 -23t-15.5 -82v-179q0 -10 -10 -10h-121q-10 0 -10 10v224q0 187 197 187h199q10 0 10 -10z" />
    <glyph glyph-name="aHehGoal.init" unicode="&#x6c1;" horiz-adv-x="297" arabic-form="initial" 
d="M193 -170q-22 -2 -34 -2q-56 0 -94 26.5t-38 92.5q0 23 6 53h-33q-21 0 -30.5 7.5t-9.5 27.5q0 29 10.5 57.5t29.5 28.5h35q25 0 36.5 12t11.5 41v237q0 10 10 10h122q10 0 10 -10v-285q0 -58 -20 -87.5t-67 -36.5q-3 -15 -3 -28q0 -46 58 -46q10 0 10 -10v-78
q0 -9 -10 -10z" />
    <glyph glyph-name="aHehGoal.medi" unicode="&#x6c1;" horiz-adv-x="486" arabic-form="medial" 
d="M-1 121h175q10 0 10 -10v-83q0 -53 15 -74.5t59 -21.5v39q0 75 39.5 112.5t105.5 37.5h83q40 0 40 -60q0 -34 -9 -47.5t-31 -13.5h-31q-33 0 -47.5 -16t-14.5 -55v-114q0 -10 -10 -10h-117q-106 0 -161.5 41.5t-55.5 119.5v34h-50q-21 0 -30.5 13t-9.5 45q0 63 40 63z
" />
    <glyph glyph-name="uniFBAA" unicode="&#x6be;" horiz-adv-x="726" arabic-form="isolated" 
d="M106 121h67q-14 34 -14 70q0 76 45 114t111 38q161 0 161 -152q0 -32 -18 -70q75 0 75 95q0 75 -46 111.5t-125 36.5q-75 0 -145 -22q-15 -9 -18 2l-21 75q-4 15 6 18q111 41 209 41q81 0 139 -22t89 -60.5t44.5 -82t13.5 -94.5q0 -116 -45 -167.5t-156 -51.5h-288
q-23 0 -29.5 -6.5t-6.5 -27.5v-44q0 -10 -10 -10h-122q-10 0 -10 10v110q0 89 94 89zM316 258q-28 0 -43.5 -18.5t-15.5 -52.5q0 -65 53 -70h11q52 0 52 70q0 71 -57 71z" />
    <glyph glyph-name="aHehDoachashmi.fina" unicode="&#x6be;" horiz-adv-x="715" arabic-form="final" 
d="M433 -103q72 0 72 53q0 55 -65 55h-85v-47q0 -61 78 -61zM435 317q-37 0 -58.5 -25.5t-21.5 -75.5v-97h84q75 0 75 100q0 48 -21 73t-58 25zM106 121h110v92q0 62 19 107.5t52 70t69.5 36t78.5 11.5q97 0 157 -47.5t60 -153.5q0 -72 -29 -116h93q21 0 30.5 -14t9.5 -47
q0 -60 -40 -60h-94q21 -31 21 -69q0 -74 -57.5 -111t-152.5 -37q-217 0 -217 160v57h-26q-23 0 -29.5 -6.5t-6.5 -27.5v-44q0 -10 -10 -10h-122q-10 0 -10 10v110q0 89 94 89z" />
    <glyph glyph-name="aHehDoachashmi.init" unicode="&#x6be;" horiz-adv-x="651" arabic-form="initial" 
d="M241 258q-28 0 -43.5 -18.5t-15.5 -52.5q0 -65 53 -70h11q52 0 52 70q0 71 -57 71zM403 0h-403q-40 0 -40 59q0 62 40 62h98q-14 34 -14 70q0 76 45 114t111 38q161 0 161 -152q0 -32 -18 -70q75 0 75 95q0 75 -46 111.5t-125 36.5q-75 0 -145 -22q-15 -9 -18 2l-21 75
q-4 15 6 18q111 41 209 41q81 0 139 -22t89 -60.5t44.5 -82t13.5 -94.5q0 -116 -45 -167.5t-156 -51.5z" />
    <glyph glyph-name="aHehDoachashmi.medi" unicode="&#x6be;" horiz-adv-x="584" arabic-form="medial" 
d="M302 -101q72 0 72 52q0 29 -17 43t-64 14h-69v-49q0 -32 19 -46t59 -14zM301 317q-77 0 -77 -92v-106h84q37 0 56 28.5t19 75.5q0 94 -82 94zM-40 59q0 62 40 62h85v96q0 62 18.5 107t50.5 68.5t68 34.5t78 11q99 0 160 -46.5t61 -150.5q0 -76 -29 -120h93q21 0 30.5 -14
t9.5 -47t-9.5 -46.5t-30.5 -13.5h-94q21 -31 21 -71q0 -75 -57 -110.5t-153 -35.5q-217 0 -217 158v59h-85q-40 0 -40 59z" />
    <glyph glyph-name="uniFBAE" unicode="&#x6d2;" horiz-adv-x="779" arabic-form="isolated" 
d="M357 344q-24 -32 -70 -67.5t-76.5 -62.5t-30.5 -50q0 -43 74 -43h495q10 0 10 -10v-101q0 -10 -10 -10h-503q-205 0 -205 140q0 41 22.5 80.5t51.5 66.5t72 67.5t68 71.5q6 8 15 1l86 -69q6 -6 1 -14z" />
    <glyph glyph-name="aYehBarri.fina" unicode="&#x6d2;" horiz-adv-x="349" arabic-form="final" 
d="M166 -45q0 -24 16.5 -31.5t64.5 -7.5h324q10 0 10 -34v-77q0 -10 -10 -10h-370q-178 0 -178 156q0 81 49.5 125.5t131.5 44.5h145q21 0 30.5 -13t9.5 -47t-9 -47.5t-31 -13.5h-129q-30 0 -42 -11t-12 -34z" />
    <glyph glyph-name="uniFBB0" unicode="&#x6d3;" horiz-adv-x="819" arabic-form="isolated" 
d="M364 344q-24 -32 -70 -67.5t-76.5 -62.5t-30.5 -50q0 -43 74 -43h495q10 0 10 -10v-101q0 -10 -10 -10h-503q-205 0 -205 140q0 41 22.5 80.5t51.5 66.5t72 67.5t68 71.5q6 8 15 1l86 -69q6 -6 1 -14zM61 523h37q-14 26 -14 53q0 41 28 70.5t81 29.5q62 0 92 -40
q3 -5 -1 -9l-30 -31q-5 -6 -10 -1q-21 23 -47 23q-19 0 -31 -12t-12 -32q0 -33 30 -51h100q6 0 6 -7v-45q0 -7 -6 -7h-223q-6 0 -6 7v45q0 7 6 7z" />
    <glyph glyph-name="aYehBarriHamzaabove.fina" unicode="&#x6d3;" horiz-adv-x="349" arabic-form="final" 
d="M53 239h37q-14 26 -14 53q0 41 28 70.5t81 29.5q62 0 92 -40q3 -5 -1 -9l-30 -31q-5 -6 -10 -1q-21 23 -47 23q-19 0 -31 -12t-12 -32q0 -33 30 -51h100q6 0 6 -7v-45q0 -7 -6 -7h-223q-6 0 -6 7v45q0 7 6 7zM166 -45q0 -24 16.5 -31.5t64.5 -7.5h324q10 0 10 -34v-77
q0 -10 -10 -10h-370q-178 0 -178 156q0 81 49.5 125.5t131.5 44.5h145q21 0 30.5 -13t9.5 -47t-9 -47.5t-31 -13.5h-129q-30 0 -42 -11t-12 -34z" />
    <glyph glyph-name="aAlifMaksura.init" unicode="&#x649;" horiz-adv-x="285" arabic-form="initial" 
d="M108 0h-108q-21 0 -30.5 7.5t-9.5 27.5q0 29 10.5 57.5t29.5 28.5h35q25 0 36.5 12t11.5 41v237q0 10 10 10h122q10 0 10 -10v-285q0 -66 -27 -96t-90 -30z" />
    <glyph glyph-name="aAlifMaksura.medi" unicode="&#x649;" horiz-adv-x="323" arabic-form="medial" 
d="M211 50q-17 -30 -45.5 -40t-85.5 -10h-80q-22 0 -31 7t-9 28q0 32 10 59t32 27h33q30 0 39 16.5t9 63.5v210q0 10 40 10h92q10 0 10 -10v-236q5 -54 76 -54h23q40 0 40 -60q0 -61 -40 -61q-43 0 -69.5 10t-43.5 40z" />
    <glyph glyph-name="uniFBFC" unicode="&#x6cc;" horiz-adv-x="809" arabic-form="isolated" 
d="M33 26q0 103 54 196q5 6 15 3l108 -35q8 -5 4 -13q-38 -74 -38 -142q0 -64 43 -90.5t105 -26.5h176q96 0 96 47q0 14 -16 29.5t-40.5 30t-53 35t-53 42.5t-40.5 55t-16 71q0 83 60.5 133.5t152.5 50.5q125 0 188 -76q4 -5 -3 -14l-66 -70q-6 -4 -14 1q-41 38 -93 38
q-33 0 -55.5 -16.5t-22.5 -47.5q0 -25 23.5 -49.5t56.5 -46.5t66 -46t56.5 -58t23.5 -74q0 -73 -53 -115.5t-157 -42.5h-234q-138 0 -205.5 60t-67.5 171z" />
    <glyph glyph-name="aYehFarsi.fina" unicode="&#x6cc;" horiz-adv-x="790" arabic-form="final" 
d="M327 -82h168q101 0 101 45q0 26 -32 44t-129 54q-16 6 -25 9t-6 12l32 99q3 10 12 7q19 -7 58 -23t59 -23.5t50 -14t57 -6.5h118q40 0 40 -59q0 -62 -40 -62h-65q17 -27 17 -60q0 -66 -52.5 -105.5t-157.5 -39.5h-223q-138 0 -205.5 59.5t-67.5 167.5q0 102 64 201
q4 9 15 3l102 -51q8 -5 3 -13q-41 -66 -41 -127q0 -64 43 -90.5t105 -26.5z" />
    <glyph glyph-name="aYehFarsi.init" unicode="&#x6cc;" horiz-adv-x="319" arabic-form="initial" 
d="M134 0h-134q-21 0 -30.5 13t-9.5 44q0 64 40 64h62q25 0 36.5 12t11.5 41v237q0 10 10 10h121q10 0 10 -10v-285q0 -66 -27 -96t-90 -30zM281 -205h-101q-10 0 -10 10v98q0 10 10 10h101q10 0 10 -10v-98q0 -10 -10 -10zM126 -205h-100q-10 0 -10 10v98q0 10 10 10h100
q10 0 10 -10v-98q0 -10 -10 -10z" />
    <glyph glyph-name="aYehFarsi.medi" unicode="&#x6cc;" horiz-adv-x="353" arabic-form="medial" 
d="M311 -205h-101q-10 0 -10 10v98q0 10 10 10h101q10 0 10 -10v-98q0 -10 -10 -10zM156 -205h-100q-10 0 -10 10v98q0 10 10 10h100q10 0 10 -10v-98q0 -10 -10 -10zM113 203v208q0 10 10 10h121q10 0 10 -10v-236q5 -54 76 -54h23q40 0 40 -60q0 -61 -40 -61
q-43 0 -69.5 10t-43.5 40q-15 -30 -45 -40t-89 -10h-103q-21 0 -30.5 13t-9.5 46t9.5 47.5t30.5 14.5h62q31 0 39.5 17t8.5 65z" />
    <glyph glyph-name="aShadda_aDammatan" unicode="&#xfc5e;" horiz-adv-x="0" arabic-form="isolated" 
d="M-128 830v71q0 10 10 10h22q10 0 10 -10v-74q0 -40 33 -40t33 36v78q0 10 10 10h22q10 0 10 -10v-78q0 -36 33 -36t33 40v74q0 10 10 10h22q10 0 10 -10v-71q0 -37 -19 -60t-56 -23t-56 22q-19 -22 -53 -22q-37 0 -55.5 23t-18.5 60zM51 1072l33 -1v16q0 25 -10.5 39.5
t-26.5 14.5q-18 0 -27 -11t-9 -27t13.5 -23.5t26.5 -7.5zM-133 1085h-13q-10 0 -10 10v18q0 10 10 10h9q35 0 56.5 -22t21.5 -68q0 -22 12.5 -28.5t43.5 -6.5q60 0 77 37h-29q-35 0 -55 18.5t-20 50.5t22 54.5t54 22.5q34 0 55.5 -23.5t21.5 -69.5q0 -128 -126 -128
q-47 0 -72 14.5t-25 58.5q0 52 -33 52z" />
    <glyph glyph-name="aShadda_aKasratan" unicode="&#xfc5f;" horiz-adv-x="0" arabic-form="isolated" 
d="M-127 991v71q0 10 10 10h22q10 0 10 -10v-74q0 -40 33 -40t33 36v78q0 10 10 10h22q10 0 10 -10v-78q0 -36 33 -36t33 40v74q0 10 10 10h22q10 0 10 -10v-71q0 -37 -19 -60t-56 -23t-56 22q-19 -22 -53 -22q-37 0 -55.5 23t-18.5 60zM129 750h-254q-10 0 -10 10v20
q0 10 10 10h254q10 0 10 -10v-20q0 -10 -10 -10zM129 819h-254q-10 0 -10 10v21q0 10 10 10h254q10 0 10 -10v-21q0 -10 -10 -10z" />
    <glyph glyph-name="aShadda_aFatha" unicode="&#xfc60;" horiz-adv-x="0" arabic-form="isolated" 
d="M125 965h-254q-10 0 -10 10v20q0 10 10 10h254q10 0 10 -10v-20q0 -10 -10 -10zM-127 830v71q0 10 10 10h22q10 0 10 -10v-74q0 -40 33 -40t33 36v78q0 10 10 10h22q10 0 10 -10v-78q0 -36 33 -36t33 40v74q0 10 10 10h22q10 0 10 -10v-71q0 -37 -19 -60t-56 -23t-56 22
q-19 -22 -53 -22q-37 0 -55.5 23t-18.5 60z" />
    <glyph glyph-name="aShadda_aDamma" unicode="&#xfc61;" horiz-adv-x="0" arabic-form="isolated" 
d="M-74 997h29q65 0 77 37h-28q-35 0 -55 18.5t-20 50.5t22 54.5t54 22.5q34 0 55 -23t21 -70q0 -70 -33 -99t-93 -29h-29q-10 0 -10 10v18q0 10 10 10zM9 1072l33 -1v16q0 25 -10.5 39.5t-26.5 14.5q-18 0 -27 -11t-9 -27t13.5 -23.5t26.5 -7.5zM-127 830v71q0 10 10 10h22
q10 0 10 -10v-74q0 -40 33 -40t33 36v78q0 10 10 10h22q10 0 10 -10v-78q0 -36 33 -36t33 40v74q0 10 10 10h22q10 0 10 -10v-71q0 -37 -19 -60t-56 -23t-56 22q-19 -22 -53 -22q-37 0 -55.5 23t-18.5 60z" />
    <glyph glyph-name="aShadda_aKasra" unicode="&#xfc62;" horiz-adv-x="0" arabic-form="isolated" 
d="M128 750h-254q-10 0 -10 10v20q0 10 10 10h254q10 0 10 -10v-20q0 -10 -10 -10zM-128 926v71q0 10 10 10h22q10 0 10 -10v-74q0 -40 33 -40t33 36v78q0 10 10 10h22q10 0 10 -10v-78q0 -36 33 -36t33 40v74q0 10 10 10h22q10 0 10 -10v-71q0 -37 -19 -60t-56 -23t-56 22
q-19 -22 -53 -22q-37 0 -55.5 23t-18.5 60z" />
    <glyph glyph-name="aShadda_aAlifabove" unicode="&#xfc63;" horiz-adv-x="0" arabic-form="isolated" 
d="M-127 830v71q0 10 10 10h22q10 0 10 -10v-74q0 -40 33 -40t33 36v78q0 10 10 10h22q10 0 10 -10v-78q0 -36 33 -36t33 40v74q0 10 10 10h22q10 0 10 -10v-71q0 -37 -19 -60t-56 -23t-56 22q-19 -22 -53 -22q-37 0 -55.5 23t-18.5 60zM22 1092v-124q0 -10 -10 -10h-24
q-10 0 -10 10v124q0 10 10 10h24q10 0 10 -10z" />
    <glyph glyph-name="aAllah" unicode="&#xfdf2;" horiz-adv-x="1451" arabic-form="isolated" 
d="M1391 670v-660q0 -10 -10 -10h-121q-10 0 -10 10v660q0 10 10 10h121q10 0 10 -10zM253 159q83 0 83 89v69h-80q-41 0 -62.5 -19t-21.5 -65q0 -74 81 -74zM988 0h-116q-76 0 -105 50q-15 -28 -42.5 -39t-78.5 -11h-193q-51 0 -77.5 16.5t-35.5 57.5q-44 -36 -112 -36
q-86 0 -140.5 48t-54.5 147q0 110 57.5 157.5t145.5 47.5h100v43q0 10 10 10h122q10 0 10 -10v-307q0 -29 11.5 -41t36.5 -12h65q32 0 40 20t8 71v458q0 10 10 10h122q10 0 10 -10v-495q0 -54 76 -54h58q25 0 36.5 12t11.5 41v496q0 10 10 10h122q10 0 10 -10v-544
q0 -66 -27 -96t-90 -30z" />
    <glyph glyph-name="aAllahlong" unicode="&#xfdfa;" horiz-adv-x="1057" arabic-form="isolated" 
d="M979 10q-6 32 -26 32q-16 0 -20 -25q5 -18 31 -18q13 0 15 11zM214 -39q0 19 -24 35q-20 14 -34 14t-14 -12t26 -27q27 -15 39 -15q7 0 7 5zM190 448l-1 39q-16 -9 -41 -17q-34 -16 -34 -25q0 -10 25 -10q29 0 51 13zM324 665q0 -32 -21 -32q-13 0 -21 8q-18 -15 -30 -15
q-21 0 -21 27q0 19 3 27l6 6q0 -37 17 -37q12 0 19 16l-2 23l9 14l4 -30q1 -16 15 -16q11 0 11 12q0 2 -3 25l7 10q7 -14 7 -38zM171 225l-2 38q-88 -34 -88 -52q0 -10 31 -10q34 0 59 24zM618 612l197 93l-6 -22l-195 -96zM632 -121q0 -16 -2 -30q-6 -13 -25 -13
q-10 0 -14 4q-15 -16 -30 -16q-6 0 -16.5 8.5t-12.5 8.5q-8 0 -37 -17q-29 -18 -70 -18q-44 0 -44 8q0 7 32 7t46 2q17 3 35 16q26 19 40 19q6 0 19 -8l13 -8q15 0 18 17q1 13 11 13q4 0 4 -6q0 -8 -1 -9q2 -5 11 -6q12 0 12 12q0 16 11 16zM989 420q0 7 -18 16q-17 9 -26 9
q-21 0 -60 -24q-37 -24 -47 -34q1 -1 20 -1q49 0 82 8q49 10 49 26zM553 74l49 -37l-26 -31l-48 35l-28 -36l-50 36l29 35l47 -35zM460 673l16 -226q-3 -66 -13 -73l-25 242zM979 664l-9 -25q-41 -14 -116 -51q-96 -46 -96 -61q0 -11 26 -25l-9 -24q-33 10 -33 40
q0 29 26 44q135 76 211 102zM1008 2q0 -50 -39 -108q-42 -64 -89 -64q-24 0 -59 16q-37 18 -37 23q0 4 5 4q10 0 27 -7q22 -8 37 -8q68 0 138 106l-7 22q-18 -26 -37 -26q-15 0 -25.5 13.5t-10.5 31.5q0 21 15 50q16 31 28 31t32 -24q22 -25 22 -60zM1017 437q0 -14 -16 -39
q-15 -24 -31 -31q-46 -21 -116 -21q-37 0 -48 2q-24 -47 -38 -47q-4 0 -4 6q0 16 22 47q-43 16 -48 26q-41 -26 -50 -26q7 -139 25 -176q19 -38 87 -39q-22 16 -22 44q0 32 32 76q24 32 61 32q27 0 53 -17q24 -17 24 -31q-26 9 -52 9q-34 0 -65 -14q-26 -12 -26 -27
q0 -14 25 -39q23 -24 44 -29q18 1 68 18q58 19 67 25l-17 -37q-101 -53 -191 -53q-97 0 -119 73q-30 -65 -57 -65q-26 0 -67 44q-65 -56 -197 -56q-37 0 -70 5q4 -32 9 -52q9 -36 23 -50q44 -44 176 -44q112 0 165 32q15 37 28 37q4 0 4 -8q0 -14 -12 -44q6 -13 27 -13
q27 0 49 12q21 66 33 66q4 0 4 -11q0 -23 -10 -43q26 -13 44 -13q8 0 8 4q0 1 -8 38l17 36q12 -36 12 -52q0 -67 -44 -67q-23 0 -48 19q-15 -26 -59 -26q-48 0 -48 26q-20 -14 -64 -24q-48 -11 -121 -11q-97 0 -143 28q-59 35 -60 126l-22 -32q-17 -25 -26 -26
q12 -21 12 -41q0 -26 -16 -42q-8 -8 -21 -8q-20 0 -61 23q-14 -31 -42 -47q-5 -3 -24 -5t-21 -2l-11 -4q-6 0 -6 5q0 4 24 15q32 12 39 19l34 26q-10 16 -10 40q0 21 18 41q18 21 34 21q0 -1 1 -1l1 -1h4q16 -10 29 -10q18 0 36 23l23 42q-38 12 -55 27q-29 26 -41 85
q-29 -50 -79 -50q-17 0 -39 8q-16 6 -16 12q0 25 43 58q38 29 85 44l-2 17l20 33q8 -108 21 -141q14 -32 56 -45l-13 132l19 43l17 -180q52 -6 95 -6q104 0 177 40q14 38 19 38q4 0 4 -9q0 -14 -4 -25q38 -35 59 -35q26 0 42 43l-13 161q-73 0 -90 74q-8 -32 -14 -42
q-11 -25 -27 -30l3 -3q36 0 52.5 -8.5t16.5 -29.5q0 -30 -25 -46q-86 -59 -160 -59q-46 0 -74 23.5t-28 65.5q0 36 16 67q-28 8 -38 43q-18 -51 -57 -51q-47 0 -47 77l-27 -24q-7 -7 -39 -7q-49 0 -49 18q0 12 13 31q14 23 25 27l76 37v10l17 36l4 -120q1 -42 32 -42
q15 0 29.5 10.5t16.5 22.5l-16 114l18 39l28 -161q9 -21 33 -21q23 0 23 13q0 26 -16 74q-2 7 -20 65l13 33q40 -120 40 -157q0 -21 -10 -44q-12 -28 -25 -28q-5 0 -9 3q-7 -15 -7 -39q0 -75 91 -75q72 0 142 48q2 2 2 3q0 6 -38 12q-60 9 -61 10q-4 3 -4 8q0 9 17 32
q60 25 64 53q1 1 1 14q0 94 -20 231l17 56q23 -205 38 -256q18 -57 72 -66l-5 96l21 45l8 -140q28 11 60 36l30 -21q13 -9 39 -15q20 21 65 55q53 38 70 38q18 0 41 -14q26 -15 26 -33z" />
    <glyph glyph-name="uniFE80" unicode="&#x621;" horiz-adv-x="425" arabic-form="isolated" 
d="M29 99h55q-20 35 -20 79q0 68 45.5 116.5t131.5 48.5q47 0 86.5 -18.5t60.5 -47.5q6 -9 0 -15l-50 -53q-8 -8 -16 -1q-36 36 -75 36q-30 0 -48 -18.5t-18 -50.5q0 -47 37 -76h170q10 0 10 -11v-77q0 -11 -10 -11h-359q-10 0 -10 11v77q0 11 10 11z" />
    <glyph glyph-name="uniFE81" unicode="&#x622;" horiz-adv-x="261" arabic-form="isolated" 
d="M201 670v-660q0 -10 -10 -10h-121q-10 0 -10 10v660q0 10 10 10h121q10 0 10 -10zM-62 768q20 80 87 80q31 0 94.5 -27t90.5 -27q15 0 20.5 7.5t5.5 26.5q0 10 10 10h53q10 0 10 -10q0 -105 -85 -105q-42 0 -103 25t-78 25q-23 0 -33 -28q-3 -10 -13 -7l-52 17
q-10 3 -7 13z" />
    <glyph glyph-name="aAlifMadda.fina" unicode="&#x622;" horiz-adv-x="276" arabic-form="final" 
d="M-61 768q20 80 87 80q31 0 94.5 -27t90.5 -27q15 0 20.5 7.5t5.5 26.5q0 10 10 10h53q10 0 10 -10q0 -105 -85 -105q-42 0 -102.5 25t-78.5 25q-23 0 -33 -28q-3 -10 -13 -7l-52 17q-10 3 -7 13zM60 126v544q0 10 10 10h121q10 0 10 -10v-496q0 -29 11.5 -41t36.5 -12h27
q40 0 40 -63q0 -35 -9 -46.5t-31 -11.5h-99q-63 0 -90 30t-27 96z" />
    <glyph glyph-name="uniFE83" unicode="&#x623;" horiz-adv-x="261" arabic-form="isolated" 
d="M201 670v-660q0 -10 -10 -10h-121q-10 0 -10 10v660q0 10 10 10h121q10 0 10 -10zM16 789h37q-14 26 -14 53q0 41 28 70.5t81 29.5q62 0 92 -40q3 -5 -1 -9l-30 -31q-5 -6 -10 -1q-21 23 -47 23q-19 0 -31 -12t-12 -32q0 -33 30 -51h100q6 0 6 -7v-45q0 -7 -6 -7h-223
q-6 0 -6 7v45q0 7 6 7z" />
    <glyph glyph-name="aAlifHamza.fina" unicode="&#x623;" horiz-adv-x="276" arabic-form="final" 
d="M60 126v544q0 10 10 10h121q10 0 10 -10v-496q0 -29 11.5 -41t36.5 -12h27q40 0 40 -63q0 -35 -9 -46.5t-31 -11.5h-99q-63 0 -90 30t-27 96zM18 789h37q-14 26 -14 53q0 41 28 70.5t81 29.5q62 0 92 -40q3 -5 -1 -9l-30 -31q-5 -6 -10 -1q-21 23 -47 23q-19 0 -31 -12
t-12 -32q0 -33 30 -51h100q6 0 6 -7v-45q0 -7 -6 -7h-223q-6 0 -6 7v45q0 7 6 7z" />
    <glyph glyph-name="uniFE85" unicode="&#x624;" horiz-adv-x="539" arabic-form="isolated" 
d="M270 317q-41 0 -62 -27.5t-21 -76.5q0 -52 21.5 -72t63.5 -20h77v97q0 99 -79 99zM292 -205h-146q-10 0 -10 10v101q0 10 10 10h115q45 0 66.5 16t21.5 68h-42q-66 0 -108.5 7.5t-79 29t-53 63.5t-16.5 108q0 119 62.5 174.5t156.5 55.5q99 0 159 -52t60 -172v-233
q0 -95 -47 -140.5t-149 -45.5zM149 580h35q-14 23 -14 50q0 40 28.5 69t84.5 29q66 0 95 -41q4 -5 -1 -10l-32 -34q-4 -4 -9 2q-25 22 -50 22q-20 0 -31.5 -11t-11.5 -30q0 -31 29 -46h105q6 0 6 -7v-47q0 -7 -6 -7h-228q-6 0 -6 7v47q0 7 6 7z" />
    <glyph glyph-name="aWawHamza.fina" unicode="&#x624;" horiz-adv-x="550" arabic-form="final" 
d="M264 317q-39 0 -61 -28t-22 -76q0 -52 21.5 -72t63.5 -20h77v97q0 99 -79 99zM286 -205h-146q-10 0 -10 10v101q0 10 10 10h115q45 0 66.5 17.5t21.5 66.5h-96q-102 0 -152.5 48.5t-50.5 159.5q0 119 62.5 174.5t156.5 55.5q99 0 159 -52t60 -172v-93h68q40 0 40 -60
q0 -37 -9 -49t-31 -12h-68v-19q0 -95 -47 -140.5t-149 -45.5zM155 580h35q-14 23 -14 50q0 40 28.5 69t84.5 29q66 0 95 -41q4 -5 -1 -10l-32 -34q-4 -4 -9 2q-25 22 -50 22q-20 0 -31.5 -11t-11.5 -30q0 -31 29 -46h105q6 0 6 -7v-47q0 -7 -6 -7h-228q-6 0 -6 7v47q0 7 6 7
z" />
    <glyph glyph-name="uniFE87" unicode="&#x625;" horiz-adv-x="261" arabic-form="isolated" 
d="M201 670v-660q0 -10 -10 -10h-121q-10 0 -10 10v660q0 10 10 10h121q10 0 10 -10zM13 -223h37q-14 26 -14 53q0 41 28 70.5t81 29.5q62 0 92 -40q3 -5 -1 -9l-30 -31q-5 -6 -10 -1q-21 23 -47 23q-19 0 -31 -12t-12 -32q0 -33 30 -51h100q6 0 6 -7v-45q0 -7 -6 -7h-223
q-6 0 -6 7v45q0 7 6 7z" />
    <glyph glyph-name="aAlifHamzabelow.fina" unicode="&#x625;" horiz-adv-x="276" arabic-form="final" 
d="M60 126v544q0 10 10 10h121q10 0 10 -10v-496q0 -29 11.5 -41t36.5 -12h27q40 0 40 -63q0 -35 -9 -46.5t-31 -11.5h-99q-63 0 -90 30t-27 96zM14 -223h37q-14 26 -14 53q0 41 28 70.5t81 29.5q62 0 92 -40q3 -5 -1 -9l-30 -31q-5 -6 -10 -1q-21 23 -47 23q-19 0 -31 -12
t-12 -32q0 -33 30 -51h100q6 0 6 -7v-45q0 -7 -6 -7h-223q-6 0 -6 7v45q0 7 6 7z" />
    <glyph glyph-name="uniFE89" unicode="&#x626;" horiz-adv-x="809" arabic-form="isolated" 
d="M66 405h35q-14 23 -14 50q0 40 28.5 69t84.5 29q66 0 95 -41q5 -4 -1 -10l-32 -34q-4 -4 -9 2q-25 22 -50 22q-20 0 -31.5 -11t-11.5 -30q0 -31 29 -46h105q6 0 6 -7v-47q0 -7 -6 -7h-228q-6 0 -6 7v47q0 7 6 7zM33 26q0 103 54 196q5 6 15 3l108 -35q8 -5 4 -13
q-38 -74 -38 -142q0 -64 43 -90.5t105 -26.5h176q96 0 96 47q0 14 -16 29.5t-40.5 30t-53 35t-53 42.5t-40.5 55t-16 71q0 83 60.5 133.5t152.5 50.5q125 0 188 -76q4 -5 -3 -14l-66 -70q-6 -4 -14 1q-41 38 -93 38q-33 0 -55.5 -16.5t-22.5 -47.5q0 -25 23.5 -49.5
t56.5 -46.5t66 -46t56.5 -58t23.5 -74q0 -73 -53 -115.5t-157 -42.5h-234q-138 0 -205.5 60t-67.5 171z" />
    <glyph glyph-name="aYehHamza.fina" unicode="&#x626;" horiz-adv-x="790" arabic-form="final" 
d="M69 405h35q-14 23 -14 50q0 40 28.5 69t84.5 29q66 0 95 -41q4 -4 -1 -10l-32 -34q-4 -4 -9 2q-25 22 -50 22q-20 0 -31.5 -11t-11.5 -30q0 -31 29 -46h105q6 0 6 -7v-47q0 -7 -6 -7h-228q-6 0 -6 7v47q0 7 6 7zM327 -82h168q101 0 101 45q0 26 -32 44t-129 54
q-16 6 -25 9t-6 12l32 99q3 10 12 7q19 -7 58 -23t59 -23.5t50 -14t57 -6.5h118q40 0 40 -59q0 -62 -40 -62h-65q17 -27 17 -60q0 -66 -52.5 -105.5t-157.5 -39.5h-223q-138 0 -205.5 59.5t-67.5 167.5q0 102 64 201q4 9 15 3l102 -51q8 -5 3 -13q-41 -66 -41 -127
q0 -64 43 -90.5t105 -26.5z" />
    <glyph glyph-name="aYehHamza.init" unicode="&#x626;" horiz-adv-x="293" arabic-form="initial" 
d="M40 580h35q-14 23 -14 50q0 40 28.5 69t84.5 29q66 0 95 -41q5 -5 -1 -10l-32 -34q-4 -4 -9 2q-25 22 -50 22q-20 0 -31.5 -11t-11.5 -30q0 -31 29 -46h105q6 0 6 -7v-47q0 -7 -6 -7h-228q-6 0 -6 7v47q0 7 6 7zM111 0h-108q-21 0 -30.5 7.5t-9.5 27.5q0 29 10.5 57.5
t29.5 28.5h35q25 0 36.5 12t11.5 41v237q0 10 10 10h122q10 0 10 -10v-285q0 -66 -27 -96t-90 -30z" />
    <glyph glyph-name="aYehHamza.medi" unicode="&#x626;" horiz-adv-x="323" arabic-form="medial" 
d="M44 580h35q-14 23 -14 50q0 40 28.5 69t84.5 29q66 0 95 -41q5 -5 -1 -10l-32 -34q-4 -4 -9 2q-25 22 -50 22q-20 0 -31.5 -11t-11.5 -30q0 -31 29 -46h105q6 0 6 -7v-47q0 -7 -6 -7h-228q-6 0 -6 7v47q0 7 6 7zM214 50q-17 -30 -45.5 -40t-85.5 -10h-80q-22 0 -31 7
t-9 28q0 32 10 59t32 27h33q30 0 39 16.5t9 63.5v210q0 10 40 10h92q10 0 10 -10v-236q5 -54 76 -54h23q40 0 40 -60q0 -61 -40 -61q-43 0 -69.5 10t-43.5 40z" />
    <glyph glyph-name="uniFE8D" unicode="&#x627;" horiz-adv-x="261" arabic-form="isolated" 
d="M201 670v-660q0 -10 -10 -10h-121q-10 0 -10 10v660q0 10 10 10h121q10 0 10 -10z" />
    <glyph glyph-name="aAlif.fina" unicode="&#x627;" horiz-adv-x="276" arabic-form="final" 
d="M60 126v544q0 10 10 10h121q10 0 10 -10v-496q0 -29 11.5 -41t36.5 -12h27q40 0 40 -63q0 -35 -9 -46.5t-31 -11.5h-99q-63 0 -90 30t-27 96z" />
    <glyph glyph-name="uniFE8F" unicode="&#x628;" horiz-adv-x="856" arabic-form="isolated" 
d="M241 121h374q27 0 38 11.5t11 41.5v237q0 10 10 10h122q10 0 10 -10v-285q0 -67 -27 -96.5t-92 -29.5h-519q-63 0 -90 30t-27 96v221q0 10 10 10h122q10 0 10 -10v-173q0 -29 11.5 -41t36.5 -12zM490 -205h-124q-10 0 -10 10v98q0 10 10 10h124q10 0 10 -10v-98
q0 -10 -10 -10z" />
    <glyph glyph-name="aBeh.fina" unicode="&#x628;" horiz-adv-x="901" arabic-form="final" 
d="M664 196v215q0 10 10 10h122q10 0 10 -10v-238q5 -52 76 -52h22q40 0 40 -60q0 -61 -40 -61q-42 0 -68.5 10t-43.5 40q-15 -29 -43 -39.5t-84 -10.5h-497q-63 0 -90 30t-27 96v221q0 10 10 10h122q10 0 10 -10v-173q0 -29 11.5 -41t36.5 -12h374q31 0 40 15t9 60z
M490 -205h-124q-10 0 -10 10v98q0 10 10 10h124q10 0 10 -10v-98q0 -10 -10 -10z" />
    <glyph glyph-name="aBeh.init" unicode="&#x628;" horiz-adv-x="285" arabic-form="initial" 
d="M204 -204h-124q-10 0 -10 10v98q0 10 10 10h124q10 0 10 -10v-98q0 -10 -10 -10zM108 0h-108q-21 0 -30.5 7.5t-9.5 27.5q0 29 10.5 57.5t29.5 28.5h35q25 0 36.5 12t11.5 41v237q0 10 10 10h122q10 0 10 -10v-285q0 -66 -27 -96t-90 -30z" />
    <glyph glyph-name="aBeh.medi" unicode="&#x628;" horiz-adv-x="323" arabic-form="medial" 
d="M218 -204h-124q-10 0 -10 10v98q0 10 10 10h124q10 0 10 -10v-98q0 -10 -10 -10zM214 50q-17 -30 -45.5 -40t-85.5 -10h-80q-22 0 -31 7t-9 28q0 32 10 59t32 27h33q30 0 39 16.5t9 63.5v210q0 10 40 10h92q10 0 10 -10v-236q5 -54 76 -54h23q40 0 40 -60q0 -61 -40 -61
q-43 0 -69.5 10t-43.5 40z" />
    <glyph glyph-name="uniFE93" unicode="&#x629;" horiz-adv-x="532" arabic-form="isolated" 
d="M263 317q-82 0 -82 -101q0 -55 20.5 -78.5t61.5 -23.5q43 0 62.5 23t19.5 79q0 101 -82 101zM263 -7q-221 0 -221 218q0 122 61 174.5t160 52.5t160 -52.5t61 -174.5q0 -218 -221 -218zM391 522h-101q-10 0 -10 10v98q0 10 10 10h101q10 0 10 -10v-98q0 -10 -10 -10z
M236 522h-100q-10 0 -10 10v98q0 10 10 10h100q10 0 10 -10v-98q0 -10 -10 -10z" />
    <glyph glyph-name="aTehMarbuta.fina" unicode="&#x629;" horiz-adv-x="568" arabic-form="final" 
d="M391 562h-101q-10 0 -10 10v98q0 10 10 10h101q10 0 10 -10v-98q0 -10 -10 -10zM236 562h-100q-10 0 -10 10v98q0 10 10 10h100q10 0 10 -10v-98q0 -10 -10 -10zM256 159q83 0 83 89v69h-80q-41 0 -62.5 -19t-21.5 -65q0 -74 81 -74zM239 438h100v43q0 10 10 10h122
q10 0 10 -10v-307q0 -29 11.5 -41t36.5 -12h31q40 0 40 -61q0 -34 -9 -47t-31 -13h-104q-51 0 -77.5 16.5t-35.5 57.5q-44 -36 -112 -36q-86 0 -140.5 48t-54.5 147q0 110 57.5 157.5t145.5 47.5z" />
    <glyph glyph-name="uniFE95" unicode="&#x62a;" horiz-adv-x="856" arabic-form="isolated" 
d="M241 121h374q27 0 38 11.5t11 41.5v237q0 10 10 10h122q10 0 10 -10v-285q0 -67 -27 -96.5t-92 -29.5h-519q-63 0 -90 30t-27 96v221q0 10 10 10h122q10 0 10 -10v-173q0 -29 11.5 -41t36.5 -12zM555 465h-101q-10 0 -10 10v98q0 10 10 10h101q10 0 10 -10v-98
q0 -10 -10 -10zM400 465h-100q-10 0 -10 10v98q0 10 10 10h100q10 0 10 -10v-98q0 -10 -10 -10z" />
    <glyph glyph-name="aTeh.fina" unicode="&#x62a;" horiz-adv-x="901" arabic-form="final" 
d="M555 465h-101q-10 0 -10 10v98q0 10 10 10h101q10 0 10 -10v-98q0 -10 -10 -10zM400 465h-100q-10 0 -10 10v98q0 10 10 10h100q10 0 10 -10v-98q0 -10 -10 -10zM664 196v215q0 10 10 10h122q10 0 10 -10v-238q5 -52 76 -52h22q40 0 40 -60q0 -61 -40 -61q-42 0 -68.5 10
t-43.5 40q-15 -29 -43 -39.5t-84 -10.5h-497q-63 0 -90 30t-27 96v221q0 10 10 10h122q10 0 10 -10v-173q0 -29 11.5 -41t36.5 -12h374q31 0 40 15t9 60z" />
    <glyph glyph-name="aTeh.init" unicode="&#x62a;" horiz-adv-x="319" arabic-form="initial" 
d="M303 522h-101q-10 0 -10 10v98q0 10 10 10h101q10 0 10 -10v-98q0 -10 -10 -10zM148 522h-100q-10 0 -10 10v98q0 10 10 10h100q10 0 10 -10v-98q0 -10 -10 -10zM134 0h-134q-21 0 -30.5 13t-9.5 44q0 64 40 64h62q25 0 36.5 12t11.5 41v237q0 10 10 10h121q10 0 10 -10
v-285q0 -66 -27 -96t-90 -30z" />
    <glyph glyph-name="aTeh.medi" unicode="&#x62a;" horiz-adv-x="353" arabic-form="medial" 
d="M312 522h-101q-10 0 -10 10v98q0 10 10 10h101q10 0 10 -10v-98q0 -10 -10 -10zM157 522h-100q-10 0 -10 10v98q0 10 10 10h100q10 0 10 -10v-98q0 -10 -10 -10zM113 203v208q0 10 10 10h121q10 0 10 -10v-236q5 -54 76 -54h23q40 0 40 -60q0 -61 -40 -61q-43 0 -69.5 10
t-43.5 40q-15 -30 -45 -40t-89 -10h-103q-21 0 -30.5 13t-9.5 46t9.5 47.5t30.5 14.5h62q31 0 39.5 17t8.5 65z" />
    <glyph glyph-name="uniFE99" unicode="&#x62b;" horiz-adv-x="856" arabic-form="isolated" 
d="M241 121h374q27 0 38 11.5t11 41.5v237q0 10 10 10h122q10 0 10 -10v-285q0 -67 -27 -96.5t-92 -29.5h-519q-63 0 -90 30t-27 96v221q0 10 10 10h122q10 0 10 -10v-173q0 -29 11.5 -41t36.5 -12zM481 608h-100q-10 0 -10 10v98q0 10 10 10h100q10 0 10 -10v-98
q0 -10 -10 -10zM558 465h-101q-10 0 -10 10v98q0 10 10 10h101q10 0 10 -10v-98q0 -10 -10 -10zM403 465h-100q-10 0 -10 10v98q0 10 10 10h100q10 0 10 -10v-98q0 -10 -10 -10z" />
    <glyph glyph-name="aTheh.fina" unicode="&#x62b;" horiz-adv-x="901" arabic-form="final" 
d="M664 196v215q0 10 10 10h122q10 0 10 -10v-238q5 -52 76 -52h22q40 0 40 -60q0 -61 -40 -61q-42 0 -68.5 10t-43.5 40q-15 -29 -43 -39.5t-84 -10.5h-497q-63 0 -90 30t-27 96v221q0 10 10 10h122q10 0 10 -10v-173q0 -29 11.5 -41t36.5 -12h374q31 0 40 15t9 60z
M481 608h-100q-10 0 -10 10v98q0 10 10 10h100q10 0 10 -10v-98q0 -10 -10 -10zM558 465h-101q-10 0 -10 10v98q0 10 10 10h101q10 0 10 -10v-98q0 -10 -10 -10zM403 465h-100q-10 0 -10 10v98q0 10 10 10h100q10 0 10 -10v-98q0 -10 -10 -10z" />
    <glyph glyph-name="aTheh.init" unicode="&#x62b;" horiz-adv-x="319" arabic-form="initial" 
d="M134 0h-134q-21 0 -30.5 13t-9.5 44q0 64 40 64h62q25 0 36.5 12t11.5 41v237q0 10 10 10h121q10 0 10 -10v-285q0 -66 -27 -96t-90 -30zM225 665h-100q-10 0 -10 10v98q0 10 10 10h100q10 0 10 -10v-98q0 -10 -10 -10zM302 522h-101q-10 0 -10 10v98q0 10 10 10h101
q10 0 10 -10v-98q0 -10 -10 -10zM147 522h-100q-10 0 -10 10v98q0 10 10 10h100q10 0 10 -10v-98q0 -10 -10 -10z" />
    <glyph glyph-name="aTheh.medi" unicode="&#x62b;" horiz-adv-x="353" arabic-form="medial" 
d="M236 665h-100q-10 0 -10 10v98q0 10 10 10h100q10 0 10 -10v-98q0 -10 -10 -10zM313 522h-101q-10 0 -10 10v98q0 10 10 10h101q10 0 10 -10v-98q0 -10 -10 -10zM158 522h-100q-10 0 -10 10v98q0 10 10 10h100q10 0 10 -10v-98q0 -10 -10 -10zM113 203v208q0 10 10 10
h121q10 0 10 -10v-236q5 -54 76 -54h23q40 0 40 -60q0 -61 -40 -61q-43 0 -69.5 10t-43.5 40q-15 -30 -45 -40t-89 -10h-103q-21 0 -30.5 13t-9.5 46t9.5 47.5t30.5 14.5h62q31 0 39.5 17t8.5 65z" />
    <glyph glyph-name="uniFE9D" unicode="&#x62c;" horiz-adv-x="585" arabic-form="isolated" 
d="M449 -202h-109q-10 0 -10 10v98q0 10 10 10h109q10 0 10 -10v-98q0 -10 -10 -10zM368 0h-151q-49 0 -49 -42q0 -24 13 -33t51 -9h55q10 0 10 -10v-101q0 -10 -10 -10h-72q-96 0 -143 37.5t-47 127.5q0 161 167 161h120q48 0 63.5 15t15.5 60q0 121 -104 121
q-50 0 -101 -44q-8 -5 -14 -1l-60 71q-8 10 -2 15q80 80 187 80q124 0 182 -67.5t58 -181.5q0 -109 -41 -149t-128 -40z" />
    <glyph glyph-name="aJim.fina" unicode="&#x62c;" horiz-adv-x="633" arabic-form="final" 
d="M451 -202h-109q-10 0 -10 10v98q0 10 10 10h109q10 0 10 -10v-98q0 -10 -10 -10zM370 0h-151q-51 0 -51 -42q0 -24 13 -33t51 -9h55q10 0 10 -10v-101q0 -10 -10 -10h-72q-96 0 -143 37.5t-47 127.5q0 161 167 161h122q47 0 62.5 15t15.5 60q0 121 -102 121
q-54 0 -103 -44q-7 -7 -14 -1l-59 71q-9 9 -3 15q80 80 188 80q124 0 182 -67.5t58 -181.5q0 -4 -0.5 -9.5t-0.5 -7.5q7 -51 76 -51h23q40 0 40 -60q0 -61 -40 -61q-46 0 -75.5 12.5t-48.5 48.5q-34 -61 -143 -61z" />
    <glyph glyph-name="aJim.init" unicode="&#x62c;" horiz-adv-x="520" arabic-form="initial" 
d="M304 0h-304q-40 0 -40 59q0 62 40 62h248q47 0 62.5 17t15.5 69q0 47 -24.5 78.5t-77.5 31.5q-54 0 -103 -44q-7 -7 -14 -1l-59 71q-9 9 -3 15q84 80 193 80q121 0 178 -65.5t57 -170.5q0 -118 -41 -160t-128 -42zM305 -203h-124q-10 0 -10 10v98q0 10 10 10h124
q10 0 10 -10v-98q0 -10 -10 -10z" />
    <glyph glyph-name="aJim.medi" unicode="&#x62c;" horiz-adv-x="571" arabic-form="medial" 
d="M45 358q80 80 188 80q124 0 182 -67.5t58 -181.5v-16q7 -52 75 -52h23q40 0 40 -60q0 -61 -40 -61q-46 0 -75.5 12.5t-48.5 48.5q-34 -61 -143 -61h-304q-40 0 -40 59q0 33 9 47.5t31 14.5h248q47 0 62.5 15t15.5 60q0 121 -102 121q-54 0 -103 -44q-7 -7 -14 -1l-59 71
q-9 9 -3 15zM304 -203h-124q-10 0 -10 10v98q0 10 10 10h124q10 0 10 -10v-98q0 -10 -10 -10z" />
    <glyph glyph-name="uniFEA1" unicode="&#x62d;" horiz-adv-x="585" arabic-form="isolated" 
d="M368 0h-151q-49 0 -49 -42q0 -24 13 -33t51 -9h88q10 0 10 -10v-101q0 -10 -10 -10h-105q-96 0 -143 37.5t-47 127.5q0 161 167 161h120q48 0 63.5 15t15.5 60q0 121 -104 121q-50 0 -101 -44q-8 -5 -14 -1l-60 71q-8 10 -2 15q80 80 187 80q124 0 182 -67.5t58 -181.5
q0 -109 -41 -149t-128 -40z" />
    <glyph glyph-name="aHah.fina" unicode="&#x62d;" horiz-adv-x="633" arabic-form="final" 
d="M367 0h-151q-48 0 -48 -42q0 -24 13 -33t51 -9h88q10 0 10 -10v-101q0 -10 -10 -10h-105q-96 0 -143 37.5t-47 127.5q0 161 167 161h119q47 0 62.5 15t15.5 60q0 121 -102 121q-54 0 -103 -44q-7 -7 -14 -1l-59 71q-9 9 -3 15q80 80 188 80q124 0 182 -67.5t58 -181.5
q0 -4 -0.5 -9.5t-0.5 -7.5q7 -51 76 -51h23q40 0 40 -60q0 -61 -40 -61q-46 0 -75.5 12.5t-48.5 48.5q-34 -61 -143 -61z" />
    <glyph glyph-name="aHah.init" unicode="&#x62d;" horiz-adv-x="520" arabic-form="initial" 
d="M304 0h-304q-40 0 -40 59q0 62 40 62h248q47 0 62.5 17t15.5 69q0 47 -24.5 78.5t-77.5 31.5q-54 0 -103 -44q-7 -7 -14 -1l-59 71q-9 9 -3 15q84 80 193 80q121 0 178 -65.5t57 -170.5q0 -118 -41 -160t-128 -42z" />
    <glyph glyph-name="aHah.medi" unicode="&#x62d;" horiz-adv-x="571" arabic-form="medial" 
d="M45 358q80 80 188 80q124 0 182 -67.5t58 -181.5v-16q7 -52 75 -52h23q40 0 40 -60q0 -61 -40 -61q-46 0 -75.5 12.5t-48.5 48.5q-34 -61 -143 -61h-304q-40 0 -40 59q0 33 9 47.5t31 14.5h248q47 0 62.5 15t15.5 60q0 121 -102 121q-54 0 -103 -44q-7 -7 -14 -1l-59 71
q-9 9 -3 15z" />
    <glyph glyph-name="uniFEA5" unicode="&#x62e;" horiz-adv-x="585" arabic-form="isolated" 
d="M368 0h-151q-49 0 -49 -42q0 -24 13 -33t51 -9h88q10 0 10 -10v-101q0 -10 -10 -10h-105q-96 0 -143 37.5t-47 127.5q0 161 167 161h120q48 0 63.5 15t15.5 60q0 121 -104 121q-50 0 -101 -44q-8 -5 -14 -1l-60 71q-8 10 -2 15q80 80 187 80q124 0 182 -67.5t58 -181.5
q0 -109 -41 -149t-128 -40zM368 522h-124q-10 0 -10 10v98q0 10 10 10h124q10 0 10 -10v-98q0 -10 -10 -10z" />
    <glyph glyph-name="aKhah.fina" unicode="&#x62e;" horiz-adv-x="633" arabic-form="final" 
d="M370 522h-124q-10 0 -10 10v98q0 10 10 10h124q10 0 10 -10v-98q0 -10 -10 -10zM370 0h-151q-48 0 -48 -42q0 -24 13 -33t51 -9h88q10 0 10 -10v-101q0 -10 -10 -10h-105q-96 0 -143 37.5t-47 127.5q0 161 167 161h119q47 0 62.5 15t15.5 60q0 121 -102 121
q-54 0 -103 -44q-7 -7 -14 -1l-59 71q-9 9 -3 15q80 80 188 80q124 0 182 -67.5t58 -181.5q0 -4 -0.5 -9.5t-0.5 -7.5q7 -51 76 -51h23q40 0 40 -60q0 -61 -40 -61q-46 0 -75.5 12.5t-48.5 48.5q-34 -61 -143 -61z" />
    <glyph glyph-name="aKhah.init" unicode="&#x62e;" horiz-adv-x="520" arabic-form="initial" 
d="M300 522h-124q-10 0 -10 10v98q0 10 10 10h124q10 0 10 -10v-98q0 -10 -10 -10zM304 0h-304q-40 0 -40 59q0 62 40 62h248q47 0 62.5 17t15.5 69q0 47 -24.5 78.5t-77.5 31.5q-54 0 -103 -44q-7 -7 -14 -1l-59 71q-9 9 -3 15q84 80 193 80q121 0 178 -65.5t57 -170.5
q0 -118 -41 -160t-128 -42z" />
    <glyph glyph-name="aKhah.medi" unicode="&#x62e;" horiz-adv-x="571" arabic-form="medial" 
d="M300 522h-124q-10 0 -10 10v98q0 10 10 10h124q10 0 10 -10v-98q0 -10 -10 -10zM45 358q80 80 188 80q124 0 182 -67.5t58 -181.5v-16q7 -52 75 -52h23q40 0 40 -60q0 -61 -40 -61q-46 0 -75.5 12.5t-48.5 48.5q-34 -61 -143 -61h-304q-40 0 -40 59q0 33 9 47.5t31 14.5
h248q47 0 62.5 15t15.5 60q0 121 -102 121q-54 0 -103 -44q-7 -7 -14 -1l-59 71q-9 9 -3 15z" />
    <glyph glyph-name="uniFEA9" unicode="&#x62f;" horiz-adv-x="496" arabic-form="isolated" 
d="M446 258v-87q0 -95 -36 -133t-115 -38h-242q-10 0 -10 10v101q0 10 10 10h172q48 0 61.5 14t13.5 54v54q0 74 -90 74h-115q-10 0 -10 10v101q0 10 10 10h174q177 0 177 -180z" />
    <glyph glyph-name="aDal.fina" unicode="&#x62f;" horiz-adv-x="544" arabic-form="final" 
d="M53 121h172q48 0 61.5 14t13.5 54v54q0 74 -90 74h-115q-10 0 -10 10v101q0 10 10 10h157q97 0 145.5 -42t48.5 -138v-83q5 -54 76 -54h22q40 0 40 -60q0 -61 -40 -61q-46 0 -74.5 12t-46.5 45q-32 -57 -128 -57h-242q-10 0 -10 10v101q0 10 10 10z" />
    <glyph glyph-name="uniFEAB" unicode="&#x630;" horiz-adv-x="496" arabic-form="isolated" 
d="M446 258v-87q0 -95 -36 -133t-115 -38h-242q-10 0 -10 10v101q0 10 10 10h172q48 0 61.5 14t13.5 54v54q0 74 -90 74h-115q-10 0 -10 10v101q0 10 10 10h174q177 0 177 -180zM281 522h-124q-10 0 -10 10v98q0 10 10 10h124q10 0 10 -10v-98q0 -10 -10 -10z" />
    <glyph glyph-name="aDhal.fina" unicode="&#x630;" horiz-adv-x="544" arabic-form="final" 
d="M276 522h-124q-10 0 -10 10v98q0 10 10 10h124q10 0 10 -10v-98q0 -10 -10 -10zM56 121h172q48 0 61.5 14t13.5 54v54q0 74 -90 74h-115q-10 0 -10 10v101q0 10 10 10h157q97 0 145.5 -42t48.5 -138v-83q5 -54 76 -54h22q40 0 40 -60q0 -61 -40 -61q-46 0 -74.5 12
t-46.5 45q-32 -57 -128 -57h-242q-10 0 -10 10v101q0 10 10 10z" />
    <glyph glyph-name="uniFEAD" unicode="&#x631;" horiz-adv-x="309" arabic-form="isolated" 
d="M58 -205h-46q-10 0 -10 10v101q0 10 10 10h22q41 0 58.5 20.5t17.5 64.5v410q0 10 10 10h122q10 0 10 -10v-415q0 -103 -47 -152t-147 -49z" />
    <glyph glyph-name="aReh.fina" unicode="&#x631;" horiz-adv-x="350" arabic-form="final" 
d="M110 45v366q0 10 10 10h122q10 0 10 -10v-236q5 -54 76 -54h22q40 0 40 -60q0 -61 -40 -61q-70 0 -98 34v-16q0 -116 -45 -169.5t-149 -53.5h-46q-10 0 -10 10v101q0 10 10 10h22q49 0 62.5 29t13.5 100z" />
    <glyph glyph-name="uniFEAF" unicode="&#x632;" horiz-adv-x="309" arabic-form="isolated" 
d="M58 -205h-46q-10 0 -10 10v101q0 10 10 10h22q41 0 58.5 20.5t17.5 64.5v410q0 10 10 10h122q10 0 10 -10v-415q0 -103 -47 -152t-147 -49zM243 522h-124q-10 0 -10 10v98q0 10 10 10h124q10 0 10 -10v-98q0 -10 -10 -10z" />
    <glyph glyph-name="aZeh.fina" unicode="&#x632;" horiz-adv-x="350" arabic-form="final" 
d="M242 522h-124q-10 0 -10 10v98q0 10 10 10h124q10 0 10 -10v-98q0 -10 -10 -10zM110 45v366q0 10 10 10h122q10 0 10 -10v-236q5 -54 76 -54h22q40 0 40 -60q0 -61 -40 -61q-70 0 -98 34v-16q0 -116 -45 -169.5t-149 -53.5h-46q-10 0 -10 10v101q0 10 10 10h22
q49 0 62.5 29t13.5 100z" />
    <glyph glyph-name="uniFEB1" unicode="&#x633;" horiz-adv-x="1120" arabic-form="isolated" 
d="M542 339v-164q0 -54 64 -54q37 0 46 14t9 57v147q0 10 10 10h122q10 0 10 -10v-163q0 -55 67 -55q35 0 43 14t8 58v218q0 10 10 10h122q10 0 10 -10v-285q0 -66 -27 -96t-90 -30h-55q-73 0 -101 53q-14 -30 -41.5 -41.5t-78.5 -11.5h-39q-61 0 -90 35v-13
q0 -119 -69.5 -177.5t-183.5 -58.5q-113 0 -184.5 59t-71.5 179q0 110 55 198q5 6 15 3l108 -35q8 -5 4 -13q-38 -74 -38 -142q0 -65 33.5 -95.5t81.5 -30.5q109 0 109 119v311q0 10 10 10h122q10 0 10 -10z" />
    <glyph glyph-name="aSin.fina" unicode="&#x633;" horiz-adv-x="1161" arabic-form="final" 
d="M946 0h-55q-73 0 -101 53q-14 -30 -41.5 -41.5t-78.5 -11.5h-39q-61 0 -90 35v-13q0 -119 -69.5 -177.5t-183.5 -58.5q-113 0 -184.5 59t-71.5 179q0 110 55 198q5 6 15 3l108 -35q8 -5 4 -13q-38 -74 -38 -142q0 -65 33.5 -95.5t81.5 -30.5q109 0 109 119v311
q0 10 10 10h122q10 0 10 -10v-164q0 -54 64 -54q37 0 46 14t9 57v147q0 10 10 10h122q10 0 10 -10v-163q0 -55 67 -55q35 0 43 14t8 58v218q0 10 10 10h122q10 0 10 -10v-236q5 -54 76 -54h22q40 0 40 -60q0 -61 -40 -61q-42 0 -68 10.5t-44 39.5q-14 -28 -38.5 -39
t-64.5 -11z" />
    <glyph glyph-name="aSin.init" unicode="&#x633;" horiz-adv-x="833" arabic-form="initial" 
d="M382 0h-39q-74 0 -102 53q-14 -31 -41 -42t-80 -11h-120q-21 0 -30.5 12t-9.5 44q0 35 9.5 50t30.5 15h67q28 0 36.5 13.5t8.5 54.5v150q0 10 10 10h122q10 0 10 -10v-164q0 -54 64 -54q37 0 46 14t9 57v147q0 10 10 10h122q10 0 10 -10v-163q0 -55 67 -55q35 0 43 14
t8 58v218q0 10 10 10h122q10 0 10 -10v-285q0 -66 -27 -96t-90 -30h-55q-73 0 -101 53q-14 -30 -41.5 -41.5t-78.5 -11.5z" />
    <glyph glyph-name="aSin.medi" unicode="&#x633;" horiz-adv-x="874" arabic-form="medial" 
d="M658 0h-55q-73 0 -101 53q-14 -30 -41.5 -41.5t-78.5 -11.5h-39q-74 0 -102 53q-14 -31 -41 -42t-80 -11h-120q-21 0 -30.5 12t-9.5 44q0 35 9.5 50t30.5 15h67q28 0 36.5 13.5t8.5 54.5v150q0 10 10 10h122q10 0 10 -10v-164q0 -54 64 -54q37 0 46 14t9 57v147
q0 10 10 10h122q10 0 10 -10v-163q0 -55 67 -55q35 0 43 14t8 58v218q0 10 10 10h122q10 0 10 -10v-236q5 -54 76 -54h23q40 0 40 -60q0 -61 -40 -61q-43 0 -69.5 10t-43.5 40q-24 -50 -103 -50z" />
    <glyph glyph-name="uniFEB5" unicode="&#x634;" horiz-adv-x="1120" arabic-form="isolated" 
d="M542 339v-164q0 -54 64 -54q37 0 46 14t9 57v147q0 10 10 10h122q10 0 10 -10v-163q0 -55 67 -55q35 0 43 14t8 58v218q0 10 10 10h122q10 0 10 -10v-285q0 -66 -27 -96t-90 -30h-55q-73 0 -101 53q-14 -30 -41.5 -41.5t-78.5 -11.5h-39q-61 0 -90 35v-13
q0 -119 -69.5 -177.5t-183.5 -58.5q-113 0 -184.5 59t-71.5 179q0 110 55 198q5 6 15 3l108 -35q8 -5 4 -13q-38 -74 -38 -142q0 -65 33.5 -95.5t81.5 -30.5q109 0 109 119v311q0 10 10 10h122q10 0 10 -10zM780 665h-100q-10 0 -10 10v98q0 10 10 10h100q10 0 10 -10v-98
q0 -10 -10 -10zM857 522h-101q-10 0 -10 10v98q0 10 10 10h101q10 0 10 -10v-98q0 -10 -10 -10zM702 522h-100q-10 0 -10 10v98q0 10 10 10h100q10 0 10 -10v-98q0 -10 -10 -10z" />
    <glyph glyph-name="aShin.fina" unicode="&#x634;" horiz-adv-x="1161" arabic-form="final" 
d="M946 0h-55q-73 0 -101 53q-14 -30 -41.5 -41.5t-78.5 -11.5h-39q-61 0 -90 35v-13q0 -119 -69.5 -177.5t-183.5 -58.5q-113 0 -184.5 59t-71.5 179q0 110 55 198q5 6 15 3l108 -35q8 -5 4 -13q-38 -74 -38 -142q0 -65 33.5 -95.5t81.5 -30.5q109 0 109 119v311
q0 10 10 10h122q10 0 10 -10v-164q0 -54 64 -54q37 0 46 14t9 57v147q0 10 10 10h122q10 0 10 -10v-163q0 -55 67 -55q35 0 43 14t8 58v218q0 10 10 10h122q10 0 10 -10v-236q5 -54 76 -54h22q40 0 40 -60q0 -61 -40 -61q-42 0 -68 10.5t-44 39.5q-14 -28 -38.5 -39
t-64.5 -11zM780 665h-100q-10 0 -10 10v98q0 10 10 10h100q10 0 10 -10v-98q0 -10 -10 -10zM857 522h-101q-10 0 -10 10v98q0 10 10 10h101q10 0 10 -10v-98q0 -10 -10 -10zM702 522h-100q-10 0 -10 10v98q0 10 10 10h100q10 0 10 -10v-98q0 -10 -10 -10z" />
    <glyph glyph-name="aShin.init" unicode="&#x634;" horiz-adv-x="833" arabic-form="initial" 
d="M382 0h-39q-74 0 -102 53q-14 -31 -41 -42t-80 -11h-120q-21 0 -30.5 12t-9.5 44q0 35 9.5 50t30.5 15h67q28 0 36.5 13.5t8.5 54.5v150q0 10 10 10h122q10 0 10 -10v-164q0 -54 64 -54q37 0 46 14t9 57v147q0 10 10 10h122q10 0 10 -10v-163q0 -55 67 -55q35 0 43 14
t8 58v218q0 10 10 10h122q10 0 10 -10v-285q0 -66 -27 -96t-90 -30h-55q-73 0 -101 53q-14 -30 -41.5 -41.5t-78.5 -11.5zM490 665h-100q-10 0 -10 10v98q0 10 10 10h100q10 0 10 -10v-98q0 -10 -10 -10zM567 522h-101q-10 0 -10 10v98q0 10 10 10h101q10 0 10 -10v-98
q0 -10 -10 -10zM412 522h-100q-10 0 -10 10v98q0 10 10 10h100q10 0 10 -10v-98q0 -10 -10 -10z" />
    <glyph glyph-name="aShin.medi" unicode="&#x634;" horiz-adv-x="874" arabic-form="medial" 
d="M661 0h-55q-73 0 -101 53q-14 -30 -41.5 -41.5t-78.5 -11.5h-39q-74 0 -102 53q-14 -31 -41 -42t-80 -11h-120q-21 0 -30.5 12t-9.5 44q0 35 9.5 50t30.5 15h67q28 0 36.5 13.5t8.5 54.5v150q0 10 10 10h122q10 0 10 -10v-164q0 -54 64 -54q37 0 46 14t9 57v147
q0 10 10 10h122q10 0 10 -10v-163q0 -55 67 -55q35 0 43 14t8 58v218q0 10 10 10h122q10 0 10 -10v-236q5 -54 76 -54h23q40 0 40 -60q0 -61 -40 -61q-43 0 -69.5 10t-43.5 40q-24 -50 -103 -50zM494 665h-100q-10 0 -10 10v98q0 10 10 10h100q10 0 10 -10v-98
q0 -10 -10 -10zM571 522h-101q-10 0 -10 10v98q0 10 10 10h101q10 0 10 -10v-98q0 -10 -10 -10zM416 522h-100q-10 0 -10 10v98q0 10 10 10h100q10 0 10 -10v-98q0 -10 -10 -10z" />
    <glyph glyph-name="uniFEB9" unicode="&#x635;" horiz-adv-x="1050" arabic-form="isolated" 
d="M728 317q-85 0 -187 -45v-151h197q77 0 97.5 13.5t20.5 70.5q0 58 -28 85t-100 27zM87 222q5 6 15 3l108 -35q8 -5 4 -13q-38 -74 -38 -142q0 -65 33.5 -95.5t81.5 -30.5q109 0 109 119v392q0 10 10 10h121q10 0 10 -10v-31q107 49 213 49q249 0 249 -240
q0 -119 -45 -158.5t-166 -39.5h-172q-47 0 -80 4q-6 -111 -74.5 -164.5t-177.5 -53.5q-113 0 -184.5 59t-71.5 179q0 110 55 198z" />
    <glyph glyph-name="aSad.fina" unicode="&#x635;" horiz-adv-x="1101" arabic-form="final" 
d="M728 317q-85 0 -187 -45v-151h197q77 0 97.5 13.5t20.5 70.5q0 58 -28 85t-100 27zM32 24q0 110 55 198q5 6 15 3l108 -35q8 -5 4 -13q-38 -74 -38 -142q0 -65 33.5 -95.5t81.5 -30.5q109 0 109 119v392q0 10 10 10h121q10 0 10 -10v-31q107 49 213 49q249 0 249 -241
q0 -4 -0.5 -11.5t-0.5 -10.5q5 -54 76 -54h22q40 0 40 -60q0 -61 -40 -61q-48 0 -77.5 13.5t-46.5 49.5q-22 -37 -63 -50t-117 -13h-184q-41 0 -72 4q-6 -111 -74.5 -164.5t-177.5 -53.5q-113 0 -184.5 59t-71.5 179z" />
    <glyph glyph-name="aSad.init" unicode="&#x635;" horiz-adv-x="731" arabic-form="initial" 
d="M408 317q-84 0 -186 -45v-112q0 -15 -2 -39h198q78 0 98.5 13t20.5 71t-28 85t-101 27zM81 193v226q0 10 10 10h121q10 0 10 -10v-30q111 49 213 49q248 0 248 -240q0 -116 -44.5 -157t-157.5 -41h-186q-96 0 -112 21q-17 -14 -40.5 -17.5t-70.5 -3.5h-72q-21 0 -30.5 13
t-9.5 47q0 37 8.5 49t31.5 12h40q26 0 33.5 15t7.5 57z" />
    <glyph glyph-name="aSad.medi" unicode="&#x635;" horiz-adv-x="781" arabic-form="medial" 
d="M408 317q-84 0 -186 -45v-112q0 -15 -2 -39h198q78 0 98.5 13t20.5 71t-28 85t-101 27zM81 207v212q0 10 10 10h121q10 0 10 -10v-30q111 49 213 49q125 0 186.5 -58.5t61.5 -182.5q0 -16 -1 -23q2 -24 22 -38.5t55 -14.5h22q40 0 40 -60q0 -61 -40 -61q-47 0 -77 13.5
t-47 49.5q-21 -37 -61 -50t-113 -13h-193q-94 0 -107 21q-25 -21 -94 -21h-89q-21 0 -30.5 13t-9.5 47q0 37 8.5 49t31.5 12h40q19 0 28.5 12.5t11 27.5t1.5 46z" />
    <glyph glyph-name="uniFEBD" unicode="&#x636;" horiz-adv-x="1050" arabic-form="isolated" 
d="M728 317q-85 0 -187 -45v-151h197q77 0 97.5 13.5t20.5 70.5q0 58 -28 85t-100 27zM87 222q5 6 15 3l108 -35q8 -5 4 -13q-38 -74 -38 -142q0 -65 33.5 -95.5t81.5 -30.5q109 0 109 119v392q0 10 10 10h121q10 0 10 -10v-31q107 49 213 49q249 0 249 -240
q0 -119 -45 -158.5t-166 -39.5h-172q-47 0 -80 4q-6 -111 -74.5 -164.5t-177.5 -53.5q-113 0 -184.5 59t-71.5 179q0 110 55 198zM795 522h-124q-10 0 -10 10v98q0 10 10 10h124q10 0 10 -10v-98q0 -10 -10 -10z" />
    <glyph glyph-name="aDad.fina" unicode="&#x636;" horiz-adv-x="1101" arabic-form="final" 
d="M795 522h-124q-10 0 -10 10v98q0 10 10 10h124q10 0 10 -10v-98q0 -10 -10 -10zM728 317q-85 0 -187 -45v-151h197q77 0 97.5 13.5t20.5 70.5q0 58 -28 85t-100 27zM32 24q0 110 55 198q5 6 15 3l108 -35q8 -5 4 -13q-38 -74 -38 -142q0 -65 33.5 -95.5t81.5 -30.5
q109 0 109 119v392q0 10 10 10h121q10 0 10 -10v-31q107 49 213 49q249 0 249 -241q0 -4 -0.5 -11.5t-0.5 -10.5q5 -54 76 -54h22q40 0 40 -60q0 -61 -40 -61q-48 0 -77.5 13.5t-46.5 49.5q-22 -37 -63 -50t-117 -13h-184q-41 0 -72 4q-6 -111 -74.5 -164.5t-177.5 -53.5
q-113 0 -184.5 59t-71.5 179z" />
    <glyph glyph-name="aDad.init" unicode="&#x636;" horiz-adv-x="731" arabic-form="initial" 
d="M479 522h-124q-10 0 -10 10v98q0 10 10 10h124q10 0 10 -10v-98q0 -10 -10 -10zM408 317q-84 0 -186 -45v-112q0 -15 -2 -39h198q78 0 98.5 13t20.5 71t-28 85t-101 27zM81 193v226q0 10 10 10h121q10 0 10 -10v-30q111 49 213 49q248 0 248 -240q0 -116 -44.5 -157
t-157.5 -41h-186q-96 0 -112 21q-17 -14 -40.5 -17.5t-70.5 -3.5h-72q-21 0 -30.5 13t-9.5 47q0 37 8.5 49t31.5 12h40q26 0 33.5 15t7.5 57z" />
    <glyph glyph-name="aDad.medi" unicode="&#x636;" horiz-adv-x="781" arabic-form="medial" 
d="M482 522h-124q-10 0 -10 10v98q0 10 10 10h124q10 0 10 -10v-98q0 -10 -10 -10zM411 317q-84 0 -186 -45v-112q0 -15 -2 -39h198q78 0 98.5 13t20.5 71t-28 85t-101 27zM84 207v212q0 10 10 10h121q10 0 10 -10v-30q111 49 213 49q125 0 186.5 -58.5t61.5 -182.5
q0 -16 -1 -23q2 -24 22 -38.5t55 -14.5h22q40 0 40 -60q0 -61 -40 -61q-47 0 -77 13.5t-47 49.5q-21 -37 -61 -50t-113 -13h-193q-94 0 -107 21q-25 -21 -94 -21h-89q-21 0 -30.5 13t-9.5 47q0 37 8.5 49t31.5 12h40q19 0 28.5 12.5t11 27.5t1.5 46z" />
    <glyph glyph-name="uniFEC1" unicode="&#x637;" horiz-adv-x="758" arabic-form="isolated" 
d="M435 317q-84 0 -186 -45v-112q0 -15 -2 -39h198q78 0 98.5 13t20.5 71t-28 85t-101 27zM28 121h39q26 0 33.5 24t7.5 74v451q0 10 10 10h121q10 0 10 -10v-281q111 49 213 49q248 0 248 -240q0 -116 -44.5 -157t-159.5 -41h-240q-41 0 -56 21q-31 -21 -116 -21h-66
q-10 0 -10 10v101q0 10 10 10z" />
    <glyph glyph-name="aTah.fina" unicode="&#x637;" horiz-adv-x="808" arabic-form="final" 
d="M435 317q-84 0 -186 -45v-112q0 -15 -2 -39h198q78 0 98.5 13t20.5 71t-28 85t-101 27zM210 21q-31 -21 -116 -21h-66q-10 0 -10 10v101q0 10 10 10h39q26 0 33.5 24t7.5 74v451q0 10 10 10h121q10 0 10 -10v-281q111 49 213 49q125 0 186.5 -58.5t61.5 -182.5v-22
q0 -54 76 -54h22q40 0 40 -60q0 -61 -40 -61q-47 0 -77 13.5t-47 49.5q-22 -37 -62.5 -50t-115.5 -13h-240q-41 0 -56 21z" />
    <glyph glyph-name="aTah.init" unicode="&#x637;" horiz-adv-x="743" arabic-form="initial" 
d="M421 317q-86 0 -186 -45v-112q0 -21 -3 -39h198q78 0 98.5 13t20.5 71t-28 85t-100 27zM94 223v447q1 10 10 10h121q10 0 10 -10v-281q109 49 212 49q249 0 249 -240q0 -117 -45.5 -157.5t-162.5 -40.5h-236q-40 0 -57 21q-16 -14 -38.5 -17.5t-65.5 -3.5h-91
q-21 0 -30.5 13t-9.5 47q0 37 9 49t31 12h43q33 0 42 25.5t9 76.5z" />
    <glyph glyph-name="aTah.medi" unicode="&#x637;" horiz-adv-x="794" arabic-form="medial" 
d="M421 317q-86 0 -186 -45v-112q0 -21 -3 -39h198q78 0 98.5 13t20.5 71t-28 85t-100 27zM0 121h43q33 0 42 25.5t9 76.5v447q1 10 10 10h121q10 0 10 -10v-281q109 49 212 49q249 0 249 -241q0 -4 -0.5 -11.5t-0.5 -10.5q5 -54 76 -54h23q40 0 40 -60q0 -61 -40 -61
q-47 0 -77 13.5t-48 49.5q-22 -37 -62 -50t-116 -13h-239q-40 0 -57 21q-21 -21 -117 -21h-78q-21 0 -30.5 13t-9.5 47q0 37 8.5 49t31.5 12z" />
    <glyph glyph-name="uniFEC5" unicode="&#x638;" horiz-adv-x="758" arabic-form="isolated" 
d="M435 317q-84 0 -186 -45v-112q0 -15 -2 -39h198q78 0 98.5 13t20.5 71t-28 85t-101 27zM28 121h39q26 0 33.5 24t7.5 74v451q0 10 10 10h121q10 0 10 -10v-281q111 49 213 49q248 0 248 -240q0 -116 -44.5 -157t-159.5 -41h-240q-41 0 -56 21q-31 -21 -116 -21h-66
q-10 0 -10 10v101q0 10 10 10zM529 522h-124q-10 0 -10 10v98q0 10 10 10h124q10 0 10 -10v-98q0 -10 -10 -10z" />
    <glyph glyph-name="aZah.fina" unicode="&#x638;" horiz-adv-x="808" arabic-form="final" 
d="M529 522h-124q-10 0 -10 10v98q0 10 10 10h124q10 0 10 -10v-98q0 -10 -10 -10zM438 317q-84 0 -186 -45v-112q0 -15 -2 -39h198q78 0 98.5 13t20.5 71t-28 85t-101 27zM213 21q-31 -21 -116 -21h-66q-10 0 -10 10v101q0 10 10 10h39q26 0 33.5 24t7.5 74v451q0 10 10 10
h121q10 0 10 -10v-281q111 49 213 49q125 0 186.5 -58.5t61.5 -182.5v-22q0 -54 76 -54h22q40 0 40 -60q0 -61 -40 -61q-47 0 -77 13.5t-47 49.5q-22 -37 -62.5 -50t-115.5 -13h-240q-41 0 -56 21z" />
    <glyph glyph-name="aZah.init" unicode="&#x638;" horiz-adv-x="743" arabic-form="initial" 
d="M516 522h-124q-10 0 -10 10v98q0 10 10 10h124q10 0 10 -10v-98q0 -10 -10 -10zM421 317q-86 0 -186 -45v-112q0 -21 -3 -39h198q78 0 98.5 13t20.5 71t-28 85t-100 27zM94 223v447q1 10 10 10h121q10 0 10 -10v-281q109 49 212 49q249 0 249 -240q0 -117 -45.5 -157.5
t-162.5 -40.5h-236q-40 0 -57 21q-16 -14 -38.5 -17.5t-65.5 -3.5h-91q-21 0 -30.5 13t-9.5 47q0 37 9 49t31 12h43q33 0 42 25.5t9 76.5z" />
    <glyph glyph-name="aZah.medi" unicode="&#x638;" horiz-adv-x="794" arabic-form="medial" 
d="M516 522h-124q-10 0 -10 10v98q0 10 10 10h124q10 0 10 -10v-98q0 -10 -10 -10zM424 317q-86 0 -186 -45v-112q0 -21 -3 -39h198q78 0 98.5 13t20.5 71t-28 85t-100 27zM3 121h43q33 0 42 25.5t9 76.5v447q1 10 10 10h121q10 0 10 -10v-281q109 49 212 49q249 0 249 -241
q0 -4 -0.5 -11.5t-0.5 -10.5q5 -54 76 -54h23q40 0 40 -60q0 -61 -40 -61q-47 0 -77 13.5t-48 49.5q-22 -37 -62 -50t-116 -13h-239q-41 0 -57 21q-21 -21 -117 -21h-78q-21 0 -30.5 13t-9.5 47q0 37 8.5 49t31.5 12z" />
    <glyph glyph-name="uniFEC9" unicode="&#x639;" horiz-adv-x="555" arabic-form="isolated" 
d="M28 -46q0 120 99 154q-44 55 -44 127q0 86 56.5 144.5t164.5 58.5q132 0 195 -76q6 -7 -2 -15l-63 -75q-8 -8 -15 0q-43 45 -99 45q-41 0 -65.5 -24.5t-24.5 -69.5q0 -66 62 -102h213q10 0 10 -10v-101q0 -10 -10 -10h-292q-41 0 -41 -42q0 -24 12 -33t47 -9h103
q10 0 10 -10v-101q0 -10 -10 -10h-116q-190 0 -190 159z" />
    <glyph glyph-name="aAyn.fina" unicode="&#x639;" horiz-adv-x="584" arabic-form="final" 
d="M334 -205h-99q-103 0 -155 34.5t-52 113.5q0 136 168 172q-38 96 -119 148q-14 9 -14 38v65q0 24 72.5 48t162.5 24q118 0 176.5 -42.5t58.5 -112.5q0 -88 -94 -160q24 -2 38 -2h107q40 0 40 -59q0 -33 -9.5 -47.5t-30.5 -14.5h-158q-74 0 -121 31q-14 -5 -40 -12.5
t-38 -12t-27.5 -12t-21.5 -17t-6 -22.5q0 -22 19 -30.5t69 -8.5h74q10 0 10 -10v-101q0 -10 -10 -10zM309 145q78 48 78 110t-89 62q-64 0 -95 -18q79 -52 106 -154z" />
    <glyph glyph-name="aAyn.init" unicode="&#x639;" horiz-adv-x="520" arabic-form="initial" 
d="M0 121h80q-37 48 -37 114q0 86 56.5 144.5t164.5 58.5q132 0 195 -76q6 -7 -2 -15l-63 -75q-8 -8 -15 0q-43 45 -99 45q-41 0 -65.5 -24.5t-24.5 -69.5q0 -66 62 -102h218q10 0 10 -10v-101q0 -10 -10 -10h-470q-40 0 -40 59q0 33 9.5 47.5t30.5 14.5z" />
    <glyph glyph-name="aAyn.medi" unicode="&#x639;" horiz-adv-x="576" arabic-form="medial" 
d="M298 145q78 48 78 110t-89 62q-64 0 -95 -18q79 -52 106 -154zM287 438q118 0 176.5 -42.5t58.5 -112.5q0 -91 -97 -161q15 -1 46 -1h105q20 0 29 -13.5t9 -45.5q0 -62 -38 -62h-159q-80 0 -130 31q-57 -31 -136 -31h-151q-21 0 -29.5 11.5t-8.5 46.5q0 63 38 63h105
q50 0 74 7q-24 72 -113 135q-14 10 -14 38v65q0 26 75.5 49t159.5 23z" />
    <glyph glyph-name="uniFECD" unicode="&#x63a;" horiz-adv-x="555" arabic-form="isolated" 
d="M28 -46q0 120 99 154q-44 55 -44 127q0 86 56.5 144.5t164.5 58.5q132 0 195 -76q6 -7 -2 -15l-63 -75q-8 -8 -15 0q-43 45 -99 45q-41 0 -65.5 -24.5t-24.5 -69.5q0 -66 62 -102h213q10 0 10 -10v-101q0 -10 -10 -10h-292q-41 0 -41 -42q0 -24 12 -33t47 -9h103
q10 0 10 -10v-101q0 -10 -10 -10h-116q-190 0 -190 159zM364 522h-124q-10 0 -10 10v98q0 10 10 10h124q10 0 10 -10v-98q0 -10 -10 -10z" />
    <glyph glyph-name="aGhayn.fina" unicode="&#x63a;" horiz-adv-x="584" arabic-form="final" 
d="M372 522h-124q-10 0 -10 10v98q0 10 10 10h124q10 0 10 -10v-98q0 -10 -10 -10zM337 -205h-99q-103 0 -155 34.5t-52 113.5q0 136 168 172q-38 96 -119 148q-14 9 -14 38v65q0 24 72.5 48t162.5 24q118 0 176.5 -42.5t58.5 -112.5q0 -88 -94 -160q24 -2 38 -2h107
q40 0 40 -59q0 -33 -9.5 -47.5t-30.5 -14.5h-158q-74 0 -121 31q-14 -5 -40 -12.5t-38 -12t-27.5 -12t-21.5 -17t-6 -22.5q0 -22 19 -30.5t69 -8.5h74q10 0 10 -10v-101q0 -10 -10 -10zM312 145q78 48 78 110t-89 62q-64 0 -95 -18q79 -52 106 -154z" />
    <glyph glyph-name="aGhayn.init" unicode="&#x63a;" horiz-adv-x="520" arabic-form="initial" 
d="M323 522h-124q-10 0 -10 10v98q0 10 10 10h124q10 0 10 -10v-98q0 -10 -10 -10zM0 121h80q-37 48 -37 114q0 86 56.5 144.5t164.5 58.5q132 0 195 -76q6 -7 -2 -15l-63 -75q-8 -8 -15 0q-43 45 -99 45q-41 0 -65.5 -24.5t-24.5 -69.5q0 -66 62 -102h218q10 0 10 -10v-101
q0 -10 -10 -10h-470q-40 0 -40 59q0 33 9.5 47.5t30.5 14.5z" />
    <glyph glyph-name="aGhayn.medi" unicode="&#x63a;" horiz-adv-x="576" arabic-form="medial" 
d="M349 522h-124q-10 0 -10 10v98q0 10 10 10h124q10 0 10 -10v-98q0 -10 -10 -10zM298 145q78 48 78 110t-89 62q-64 0 -95 -18q79 -52 106 -154zM287 438q118 0 176.5 -42.5t58.5 -112.5q0 -91 -97 -161q15 -1 46 -1h105q20 0 29 -13.5t9 -45.5q0 -62 -38 -62h-159
q-80 0 -130 31q-57 -31 -136 -31h-151q-21 0 -29.5 11.5t-8.5 46.5q0 63 38 63h105q50 0 74 7q-24 72 -113 135q-14 10 -14 38v65q0 26 75.5 49t159.5 23z" />
    <glyph glyph-name="uniFED1" unicode="&#x641;" horiz-adv-x="979" arabic-form="isolated" 
d="M710 317q-82 0 -82 -98q0 -56 19.5 -79t62.5 -23t62.5 22t19.5 77q0 101 -82 101zM710 0h-545q-63 0 -90 30t-27 96v221q0 10 10 10h122q10 0 10 -10v-173q0 -29 11.5 -41t36.5 -12h267q-16 31 -16 90q0 121 62.5 174t158.5 53q99 0 160 -52.5t61 -174.5
q0 -211 -221 -211zM775 522h-124q-10 0 -10 10v98q0 10 10 10h124q10 0 10 -10v-98q0 -10 -10 -10z" />
    <glyph glyph-name="aFeh.fina" unicode="&#x641;" horiz-adv-x="973" arabic-form="final" 
d="M694 339q-34 0 -57.5 -21.5t-23.5 -63.5q0 -77 81 -116q81 39 81 116q0 42 -23.5 63.5t-57.5 21.5zM694 438q104 0 163 -44.5t59 -128.5q0 -89 -77 -145q11 1 32 1h102q21 0 30.5 -13t9.5 -47q0 -33 -9.5 -47t-30.5 -14h-124q-109 0 -154 24q-48 -24 -162 -24h-368
q-63 0 -90 30t-27 96v226q0 10 10 10h122q10 0 10 -10v-178q0 -35 16 -44t57 -9h286q-35 24 -56 62t-21 82q0 84 59 128.5t163 44.5zM751 522h-124q-10 0 -10 10v98q0 10 10 10h124q10 0 10 -10v-98q0 -10 -10 -10z" />
    <glyph glyph-name="aFeh.init" unicode="&#x641;" horiz-adv-x="554" arabic-form="initial" 
d="M346 522h-124q-10 0 -10 10v98q0 10 10 10h124q10 0 10 -10v-98q0 -10 -10 -10zM285 317q-82 0 -82 -98q0 -56 19.5 -79t62.5 -23t62.5 22t19.5 77q0 101 -82 101zM285 0h-282q-22 0 -31 13t-9 48q0 60 40 60h77q-16 31 -16 90q0 121 62.5 174t158.5 53q99 0 160 -52.5
t61 -174.5q0 -211 -221 -211z" />
    <glyph glyph-name="aFeh.medi" unicode="&#x641;" horiz-adv-x="560" arabic-form="medial" 
d="M281 339q-35 0 -58 -21t-23 -63q0 -78 81 -117q81 39 81 117q0 41 -23.5 62.5t-57.5 21.5zM281 438q104 0 163 -44t59 -128q0 -91 -78 -146q11 1 33 1h102q21 0 30.5 -13t9.5 -47q0 -33 -9.5 -47t-30.5 -14h-149q-90 0 -129 24q-44 -24 -137 -24h-145q-21 0 -30.5 14.5
t-9.5 47.5q0 32 9.5 45.5t30.5 13.5h136q-77 53 -77 145q0 84 59 128t163 44zM345 522h-124q-10 0 -10 10v98q0 10 10 10h124q10 0 10 -10v-98q0 -10 -10 -10z" />
    <glyph glyph-name="uniFED5" unicode="&#x642;" horiz-adv-x="827" arabic-form="isolated" 
d="M551 317q-39 0 -60 -26.5t-21 -75.5q0 -52 21.5 -73t62.5 -21h77v96q0 100 -80 100zM770 214v-266q0 -153 -211 -153h-253q-138 0 -205.5 59.5t-67.5 167.5q0 102 64 201q5 9 15 3l102 -51q8 -5 3 -13q-41 -66 -41 -127q0 -64 43 -90.5t105 -26.5h208q58 0 79.5 12
t21.5 38v32h-97q-101 0 -152 50t-51 161q0 119 61.5 173t155.5 54q100 0 160 -52t60 -172zM678 522h-101q-10 0 -10 10v98q0 10 10 10h101q10 0 10 -10v-98q0 -10 -10 -10zM523 522h-100q-10 0 -10 10v98q0 10 10 10h100q10 0 10 -10v-98q0 -10 -10 -10z" />
    <glyph glyph-name="aQaf.fina" unicode="&#x642;" horiz-adv-x="838" arabic-form="final" 
d="M682 522h-101q-10 0 -10 10v98q0 10 10 10h101q10 0 10 -10v-98q0 -10 -10 -10zM527 522h-100q-10 0 -10 10v98q0 10 10 10h100q10 0 10 -10v-98q0 -10 -10 -10zM554 317q-39 0 -60 -26.5t-21 -75.5q0 -52 21.5 -73t62.5 -21h77v96q0 100 -80 100zM327 -82h208
q58 0 79.5 12t21.5 38v32h-97q-101 0 -152 50t-51 161q0 119 61.5 173t155.5 54q100 0 160 -52t60 -172v-93h68q21 0 30.5 -13.5t9.5 -47.5q0 -33 -9.5 -46.5t-30.5 -13.5h-68v-52q0 -153 -211 -153h-253q-138 0 -205.5 59.5t-67.5 167.5q0 102 64 201q4 9 15 3l102 -51
q8 -5 3 -13q-41 -66 -41 -127q0 -64 43 -90.5t105 -26.5z" />
    <glyph glyph-name="aQaf.init" unicode="&#x642;" horiz-adv-x="559" arabic-form="initial" 
d="M414 522h-101q-10 0 -10 10v98q0 10 10 10h101q10 0 10 -10v-98q0 -10 -10 -10zM259 522h-100q-10 0 -10 10v98q0 10 10 10h100q10 0 10 -10v-98q0 -10 -10 -10zM288 317q-82 0 -82 -98q0 -56 19.5 -79t62.5 -23t62.5 22t19.5 77q0 101 -82 101zM288 0h-282q-22 0 -31 13
t-9 48q0 60 40 60h77q-16 31 -16 90q0 121 62.5 174t158.5 53q99 0 160 -52.5t61 -174.5q0 -211 -221 -211z" />
    <glyph glyph-name="aQaf.medi" unicode="&#x642;" horiz-adv-x="560" arabic-form="medial" 
d="M281 339q-35 0 -58 -21t-23 -63q0 -78 81 -117q81 39 81 117q0 41 -23.5 62.5t-57.5 21.5zM281 438q104 0 163 -44t59 -128q0 -91 -78 -146q11 1 33 1h102q21 0 30.5 -13t9.5 -47q0 -33 -9.5 -47t-30.5 -14h-149q-90 0 -129 24q-44 -24 -137 -24h-145q-21 0 -30.5 14.5
t-9.5 47.5q0 32 9.5 45.5t30.5 13.5h136q-77 53 -77 145q0 84 59 128t163 44zM411 522h-101q-10 0 -10 10v98q0 10 10 10h101q10 0 10 -10v-98q0 -10 -10 -10zM256 522h-100q-10 0 -10 10v98q0 10 10 10h100q10 0 10 -10v-98q0 -10 -10 -10z" />
    <glyph glyph-name="uniFED9" unicode="&#x643;" horiz-adv-x="863" arabic-form="isolated" 
d="M661 204v466q0 10 10 10h122q10 0 10 -10v-544q0 -67 -27 -96.5t-92 -29.5h-519q-63 0 -90 30t-27 96v221q0 10 10 10h122q10 0 10 -10v-173q0 -25 10.5 -37t23.5 -14t42 -2h346q31 0 40 17t9 66zM486 508l-46 -55h17q35 0 50.5 -18.5t15.5 -57.5v-21q0 -38 -14.5 -53
t-45.5 -15h-125q-10 0 -10 10v35q0 10 10 10h99q14 0 17.5 4t3.5 17q0 23 -6 28.5t-27 5.5h-56q-14 0 -14 14v30q0 5 10 18l74 88q8 10 16 2q2 -2 6.5 -5t7.5 -5.5t7 -6t6.5 -6.5t4 -6t1.5 -6.5t-2 -6.5z" />
    <glyph glyph-name="aKaf.fina" unicode="&#x643;" horiz-adv-x="901" arabic-form="final" 
d="M486 508l-46 -55h17q35 0 50.5 -18.5t15.5 -57.5v-21q0 -38 -14.5 -53t-45.5 -15h-125q-10 0 -10 10v35q0 10 10 10h99q14 0 17.5 4t3.5 17q0 23 -6 28.5t-27 5.5h-56q-14 0 -14 14v30q0 5 10 18l74 88q8 10 16 2q2 -2 6.5 -5t7.5 -5.5t7 -6t6.5 -6.5t4 -6t1.5 -6.5
t-2 -6.5zM661 201v469q0 10 10 10h122q10 0 10 -10v-495q5 -54 76 -54h22q40 0 40 -60q0 -61 -40 -61q-42 0 -68.5 10t-43.5 40q-15 -29 -44.5 -39.5t-85.5 -10.5h-494q-63 0 -90 30t-27 96v221q0 10 10 10h122q10 0 10 -10v-173q0 -35 16 -44t57 -9h349q31 0 40 16.5
t9 63.5z" />
    <glyph glyph-name="aKaf.init" unicode="&#x643;" horiz-adv-x="495" arabic-form="initial" 
d="M383 603l-150 -174q112 -4 162 -45.5t50 -153.5v-59q0 -95 -36 -133t-115 -38h-294q-21 0 -30.5 14.5t-9.5 49.5q0 33 9 45t31 12h224q48 0 61.5 13t13.5 54v46q0 40 -21 58t-69 18h-150q-10 0 -10 10v82q0 6 22 31l212 251q6 7 13 3l83 -70q8 -8 4 -14z" />
    <glyph glyph-name="aKaf.medi" unicode="&#x643;" horiz-adv-x="543" arabic-form="medial" 
d="M383 603l-150 -174q108 -4 160 -42t52 -142v-73q0 -24 20.5 -37.5t55.5 -13.5h22q40 0 40 -60q0 -61 -40 -61q-46 0 -74.5 12t-46.5 45q-32 -57 -128 -57h-294q-21 0 -30.5 14.5t-9.5 49.5q0 33 9 45t31 12h224q48 0 61.5 13t13.5 54v46q0 40 -21 58t-69 18h-150
q-10 0 -10 10v82q0 6 20 29l214 253q6 7 13 3l83 -70q8 -8 4 -14z" />
    <glyph glyph-name="uniFEDD" unicode="&#x644;" horiz-adv-x="611" arabic-form="isolated" 
d="M97 222q5 6 15 3l108 -35q8 -5 4 -13q-38 -74 -38 -142q0 -65 33.5 -95.5t81.5 -30.5q109 0 109 119v642q0 10 10 10h121q10 0 10 -10v-648q0 -119 -69.5 -177.5t-183.5 -58.5q-113 0 -184.5 59t-71.5 179q0 110 55 198z" />
    <glyph glyph-name="aLam.fina" unicode="&#x644;" horiz-adv-x="650" arabic-form="final" 
d="M551 31v-9q0 -119 -69.5 -177.5t-183.5 -58.5q-113 0 -184.5 59t-71.5 179q0 104 55 198q5 6 15 3l108 -35q8 -5 4 -13q-38 -74 -38 -142q0 -65 33.5 -95.5t81.5 -30.5q109 0 109 119v642q0 10 10 10h121q10 0 10 -10v-495q5 -54 76 -54h23q40 0 40 -60q0 -61 -40 -61
q-70 0 -99 31z" />
    <glyph glyph-name="aLam.init" unicode="&#x644;" horiz-adv-x="285" arabic-form="initial" 
d="M108 0h-108q-21 0 -30.5 7.5t-9.5 27.5q0 29 10.5 57.5t29.5 28.5h35q25 0 36.5 12t11.5 41v496q0 10 10 10h122q10 0 10 -10v-544q0 -66 -27 -96t-90 -30z" />
    <glyph glyph-name="aLam.medi" unicode="&#x644;" horiz-adv-x="323" arabic-form="medial" 
d="M83 212v458q0 10 10 10h122q10 0 10 -10v-495q0 -54 76 -54h23q40 0 40 -60q0 -61 -40 -61q-43 0 -69.5 10t-43.5 40q-15 -28 -42.5 -39t-78.5 -11h-90q-21 0 -30.5 7.5t-9.5 27.5q0 29 10.5 57.5t29.5 28.5h35q32 0 40 20t8 71z" />
    <glyph glyph-name="uniFEE1" unicode="&#x645;" horiz-adv-x="629" arabic-form="isolated" 
d="M361 317q-82 0 -82 -101q0 -56 19.5 -79t62.5 -23t62.5 23t19.5 79q0 101 -82 101zM361 -7q-97 0 -148 48q-6 -9 -19.5 -20t-21 -23t-7.5 -34v-169h-142v190q0 38 11.5 63.5t28 39t33.5 24t30 25t15 34.5q-1 12 -1 40q0 122 61 174.5t160 52.5t160 -52.5t61 -174.5
q0 -218 -221 -218z" />
    <glyph glyph-name="aMim.fina" unicode="&#x645;" horiz-adv-x="671" arabic-form="final" 
d="M361 317q-82 0 -82 -101q0 -56 19.5 -79t62.5 -23t62.5 23t19.5 79q0 101 -82 101zM361 -7q-97 0 -148 48q-6 -9 -19.5 -20t-21 -23t-7.5 -34v-169h-142v190q0 38 11.5 63.5t28 39t33.5 24t30 25t15 34.5q-1 12 -1 40q0 122 61 174.5t160 52.5t160 -52.5t61 -174.5
q0 -5 -0.5 -13.5t-0.5 -12.5q4 -64 62 -64h28q40 0 40 -60q0 -61 -40 -61q-45 0 -78 11t-57 47q-54 -65 -175 -65z" />
    <glyph glyph-name="aMim.init" unicode="&#x645;" horiz-adv-x="579" arabic-form="initial" 
d="M311 317q-83 0 -83 -101q0 -56 20 -79t63 -23t62.5 23t19.5 79q0 101 -82 101zM311 -7q-118 0 -172 61q-38 -54 -139 -54q-21 0 -30.5 13.5t-9.5 45.5q0 35 9.5 48.5t30.5 13.5h29q25 0 43.5 21.5t18.5 68.5v20q0 110 62 158.5t158 48.5q99 0 160 -52.5t61 -174.5
q0 -218 -221 -218z" />
    <glyph glyph-name="aMim.medi" unicode="&#x645;" horiz-adv-x="621" arabic-form="medial" 
d="M311 317q-82 0 -82 -101q0 -56 19.5 -79t62.5 -23t62.5 23t19.5 79q0 101 -82 101zM311 -7q-118 0 -172 61q-33 -54 -139 -54q-21 0 -30.5 13.5t-9.5 45.5q0 34 9 48t31 14h29q27 0 44.5 21t17.5 69v20q0 100 57 153.5t163 53.5q104 0 162.5 -57.5t58.5 -169.5
q0 -5 -0.5 -13.5t-0.5 -12.5q4 -64 62 -64h29q40 0 40 -60q0 -61 -40 -61q-101 0 -136 58q-54 -65 -175 -65z" />
    <glyph glyph-name="uniFEE5" unicode="&#x646;" horiz-adv-x="609" arabic-form="isolated" 
d="M380 416h-124q-10 0 -10 10v98q0 10 10 10h124q10 0 10 -10v-98q0 -10 -10 -10zM97 222q5 6 15 3l108 -35q8 -5 4 -13q-38 -74 -38 -142q0 -65 33.5 -95.5t81.5 -30.5q109 0 109 119v300q0 10 10 10h121q10 0 10 -10v-306q0 -119 -69.5 -177.5t-183.5 -58.5
q-113 0 -184.5 59t-71.5 179q0 110 55 198z" />
    <glyph glyph-name="aNun.fina" unicode="&#x646;" horiz-adv-x="646" arabic-form="final" 
d="M380 416h-124q-10 0 -10 10v98q0 10 10 10h124q10 0 10 -10v-98q0 -10 -10 -10zM410 28v300q0 10 10 10h121q10 0 10 -10v-153q5 -54 76 -54h19q40 0 40 -60q0 -61 -40 -61q-67 0 -95 31v-9q0 -119 -69.5 -177.5t-183.5 -58.5q-113 0 -184.5 59t-71.5 179q0 110 55 198
q5 6 15 3l108 -35q8 -5 4 -13q-38 -74 -38 -142q0 -65 33.5 -95.5t81.5 -30.5q109 0 109 119z" />
    <glyph glyph-name="aNun.init" unicode="&#x646;" horiz-adv-x="278" arabic-form="initial" 
d="M221 522h-124q-10 0 -10 10v98q0 10 10 10h124q10 0 10 -10v-98q0 -10 -10 -10zM111 0h-108q-21 0 -30.5 7.5t-9.5 27.5q0 29 10.5 57.5t29.5 28.5h35q25 0 36.5 12t11.5 41v237q0 10 10 10h122q10 0 10 -10v-285q0 -66 -27 -96t-90 -30z" />
    <glyph glyph-name="aNun.medi" unicode="&#x646;" horiz-adv-x="323" arabic-form="medial" 
d="M221 522h-124q-10 0 -10 10v98q0 10 10 10h124q10 0 10 -10v-98q0 -10 -10 -10zM214 50q-17 -30 -45.5 -40t-85.5 -10h-80q-22 0 -31 7t-9 28q0 32 10 59t32 27h33q30 0 39 16.5t9 63.5v210q0 10 40 10h92q10 0 10 -10v-236q5 -54 76 -54h23q40 0 40 -60q0 -61 -40 -61
q-43 0 -69.5 10t-43.5 40z" />
    <glyph glyph-name="aHeh.isol" unicode="&#x647;" horiz-adv-x="726" arabic-form="isolated" 
d="M106 121h67q-14 34 -14 70q0 76 45 114t111 38q161 0 161 -152q0 -32 -18 -70q75 0 75 95q0 75 -46 111.5t-125 36.5q-75 0 -145 -22q-15 -9 -18 2l-21 75q-4 15 6 18q111 41 209 41q81 0 139 -22t89 -60.5t44.5 -82t13.5 -94.5q0 -116 -45 -167.5t-156 -51.5h-288
q-23 0 -29.5 -6.5t-6.5 -27.5v-44q0 -10 -10 -10h-122q-10 0 -10 10v110q0 89 94 89zM316 258q-28 0 -43.5 -18.5t-15.5 -52.5q0 -65 53 -70h11q52 0 52 70q0 71 -57 71z" />
    <glyph glyph-name="aHeh.fina" unicode="&#x647;" horiz-adv-x="557" arabic-form="final" 
d="M253 159q83 0 83 89v69h-80q-41 0 -62.5 -19t-21.5 -65q0 -74 81 -74zM236 438h100v43q0 10 10 10h122q10 0 10 -10v-307q0 -29 11.5 -41t36.5 -12h31q40 0 40 -61q0 -34 -9 -47t-31 -13h-104q-51 0 -77.5 16.5t-35.5 57.5q-44 -36 -112 -36q-86 0 -140.5 48t-54.5 147
q0 110 57.5 157.5t145.5 47.5z" />
    <glyph glyph-name="aHeh.init" unicode="&#x647;" horiz-adv-x="651" arabic-form="initial" 
d="M241 258q-28 0 -43.5 -18.5t-15.5 -52.5q0 -65 53 -70h11q52 0 52 70q0 71 -57 71zM403 0h-403q-40 0 -40 59q0 62 40 62h98q-14 34 -14 70q0 76 45 114t111 38q161 0 161 -152q0 -32 -18 -70q75 0 75 95q0 75 -46 111.5t-125 36.5q-75 0 -145 -22q-15 -9 -18 2l-21 75
q-4 15 6 18q111 41 209 41q81 0 139 -22t89 -60.5t44.5 -82t13.5 -94.5q0 -116 -45 -167.5t-156 -51.5z" />
    <glyph glyph-name="aHeh.medi" unicode="&#x647;" horiz-adv-x="584" arabic-form="medial" 
d="M302 -101q72 0 72 52q0 29 -17 43t-64 14h-69v-49q0 -32 19 -46t59 -14zM301 317q-77 0 -77 -92v-106h84q37 0 56 28.5t19 75.5q0 94 -82 94zM-40 59q0 62 40 62h85v96q0 62 18.5 107t50.5 68.5t68 34.5t78 11q99 0 160 -46.5t61 -150.5q0 -76 -29 -120h93q21 0 30.5 -14
t9.5 -47t-9.5 -46.5t-30.5 -13.5h-94q21 -31 21 -71q0 -75 -57 -110.5t-153 -35.5q-217 0 -217 158v59h-85q-40 0 -40 59z" />
    <glyph glyph-name="uniFEED" unicode="&#x648;" horiz-adv-x="539" arabic-form="isolated" 
d="M264 317q-41 0 -62 -27.5t-21 -76.5q0 -52 21.5 -72t63.5 -20h77v97q0 99 -79 99zM286 -205h-146q-10 0 -10 10v101q0 10 10 10h115q45 0 66.5 16t21.5 68h-42q-66 0 -108.5 7.5t-79 29t-53 63.5t-16.5 108q0 119 62.5 174.5t156.5 55.5q99 0 159 -52t60 -172v-233
q0 -95 -47 -140.5t-149 -45.5z" />
    <glyph glyph-name="aWaw.fina" unicode="&#x648;" horiz-adv-x="550" arabic-form="final" 
d="M264 317q-39 0 -61 -28t-22 -76q0 -52 21.5 -72t63.5 -20h77v97q0 99 -79 99zM286 -205h-146q-10 0 -10 10v101q0 10 10 10h115q45 0 66.5 17.5t21.5 66.5h-96q-102 0 -152.5 48.5t-50.5 159.5q0 119 62.5 174.5t156.5 55.5q99 0 159 -52t60 -172v-93h68q40 0 40 -60
q0 -37 -9 -49t-31 -12h-68v-19q0 -95 -47 -140.5t-149 -45.5z" />
    <glyph glyph-name="uniFEEF" unicode="&#x649;" horiz-adv-x="809" arabic-form="isolated" 
d="M33 26q0 103 54 196q5 6 15 3l108 -35q8 -5 4 -13q-38 -74 -38 -142q0 -64 43 -90.5t105 -26.5h176q96 0 96 47q0 14 -16 29.5t-40.5 30t-53 35t-53 42.5t-40.5 55t-16 71q0 83 60.5 133.5t152.5 50.5q125 0 188 -76q4 -5 -3 -14l-66 -70q-6 -4 -14 1q-41 38 -93 38
q-33 0 -55.5 -16.5t-22.5 -47.5q0 -25 23.5 -49.5t56.5 -46.5t66 -46t56.5 -58t23.5 -74q0 -73 -53 -115.5t-157 -42.5h-234q-138 0 -205.5 60t-67.5 171z" />
    <glyph glyph-name="aAlifMaksura.fina" unicode="&#x649;" horiz-adv-x="787" arabic-form="final" 
d="M324 -82h168q101 0 101 45q0 26 -32 44t-129 54q-16 6 -25 9t-6 12l32 99q3 10 12 7q19 -7 58 -23t59 -23.5t50 -14t57 -6.5h118q40 0 40 -59q0 -62 -40 -62h-65q17 -27 17 -60q0 -66 -52.5 -105.5t-157.5 -39.5h-223q-138 0 -205.5 59.5t-67.5 167.5q0 102 64 201
q5 9 15 3l102 -51q8 -5 3 -13q-41 -66 -41 -127q0 -64 43 -90.5t105 -26.5z" />
    <glyph glyph-name="uniFEF1" unicode="&#x64a;" horiz-adv-x="809" arabic-form="isolated" 
d="M33 101q0 103 54 196q5 6 15 3l108 -35q8 -5 4 -13q-38 -74 -38 -142q0 -64 43 -90.5t105 -26.5h176q96 0 96 47q0 14 -16 29.5t-40.5 30t-53 35t-53 42.5t-40.5 55t-16 71q0 83 60.5 133.5t152.5 50.5q125 0 188 -76q4 -5 -3 -14l-66 -70q-6 -4 -14 1q-41 38 -93 38
q-33 0 -55.5 -16.5t-22.5 -47.5q0 -25 23.5 -49.5t56.5 -46.5t66 -46t56.5 -58t23.5 -74q0 -73 -53 -115.5t-157 -42.5h-234q-138 0 -205.5 60t-67.5 171zM529 -312h-101q-10 0 -10 10v98q0 10 10 10h101q10 0 10 -10v-98q0 -10 -10 -10zM374 -312h-100q-10 0 -10 10v98
q0 10 10 10h100q10 0 10 -10v-98q0 -10 -10 -10z" />
    <glyph glyph-name="aYeh.fina" unicode="&#x64a;" horiz-adv-x="790" arabic-form="final" 
d="M526 -390h-101q-10 0 -10 10v98q0 10 10 10h101q10 0 10 -10v-98q0 -10 -10 -10zM371 -390h-100q-10 0 -10 10v98q0 10 10 10h100q10 0 10 -10v-98q0 -10 -10 -10zM327 -82h168q101 0 101 45q0 26 -32 44t-129 54q-16 6 -25 9t-6 12l32 99q3 10 12 7q19 -7 58 -23
t59 -23.5t50 -14t57 -6.5h118q40 0 40 -59q0 -62 -40 -62h-65q17 -27 17 -60q0 -66 -52.5 -105.5t-157.5 -39.5h-223q-138 0 -205.5 59.5t-67.5 167.5q0 102 64 201q4 9 15 3l102 -51q8 -5 3 -13q-41 -66 -41 -127q0 -64 43 -90.5t105 -26.5z" />
    <glyph glyph-name="aYeh.init" unicode="&#x64a;" horiz-adv-x="319" arabic-form="initial" 
d="M134 0h-134q-21 0 -30.5 13t-9.5 44q0 64 40 64h62q25 0 36.5 12t11.5 41v237q0 10 10 10h121q10 0 10 -10v-285q0 -66 -27 -96t-90 -30zM294 -205h-101q-10 0 -10 10v98q0 10 10 10h101q10 0 10 -10v-98q0 -10 -10 -10zM139 -205h-100q-10 0 -10 10v98q0 10 10 10h100
q10 0 10 -10v-98q0 -10 -10 -10z" />
    <glyph glyph-name="aYeh.medi" unicode="&#x64a;" horiz-adv-x="353" arabic-form="medial" 
d="M307 -205h-101q-10 0 -10 10v98q0 10 10 10h101q10 0 10 -10v-98q0 -10 -10 -10zM152 -205h-100q-10 0 -10 10v98q0 10 10 10h100q10 0 10 -10v-98q0 -10 -10 -10zM113 203v208q0 10 10 10h121q10 0 10 -10v-236q5 -54 76 -54h23q40 0 40 -60q0 -61 -40 -61
q-43 0 -69.5 10t-43.5 40q-15 -30 -45 -40t-89 -10h-103q-21 0 -30.5 13t-9.5 46t9.5 47.5t30.5 14.5h62q31 0 39.5 17t8.5 65z" />
    <glyph glyph-name="aLam.init_aAlifMadda.fina" unicode="&#xfef5;" horiz-adv-x="682" arabic-form="isolated" 
d="M80 638q20 80 87 80q31 0 94.5 -27t90.5 -27q15 0 20.5 7.5t5.5 26.5q0 10 10 10h53q10 0 10 -10q0 -105 -85 -105q-42 0 -103 25t-78 25q-23 0 -33 -28q-3 -10 -13 -7l-52 17q-10 3 -7 13zM341 529v-408h91q25 0 36.5 12t11.5 41v496q0 10 10 10h122q10 0 10 -10v-544
q0 -66 -27 -96t-90 -30h-465q-10 0 -10 10v101q0 10 10 10h159v408q0 10 10 10h122q10 0 10 -10z" />
    <glyph glyph-name="aLam.medi_aAlifMadda.fina" unicode="&#xfef6;" horiz-adv-x="720" arabic-form="final" 
d="M80 638q20 80 87 80q31 0 94.5 -27t90.5 -27q15 0 20.5 7.5t5.5 26.5q0 10 10 10h53q10 0 10 -10q0 -105 -85 -105q-42 0 -103 25t-78 25q-23 0 -33 -28q-3 -10 -13 -7l-52 17q-10 3 -7 13zM622 670v-501q8 -48 75 -48h23q40 0 40 -60q0 -61 -40 -61q-41 0 -67.5 10
t-45.5 40q-14 -29 -42.5 -39.5t-83.5 -10.5h-441q-10 0 -10 10v101q0 10 10 10h159v408q0 10 10 10h122q10 0 10 -10v-408h91q25 0 36.5 12t11.5 41v496q0 10 10 10h122q10 0 10 -10z" />
    <glyph glyph-name="aLam.init_aAlifHamza.fina" unicode="&#xfef7;" horiz-adv-x="682" arabic-form="isolated" 
d="M155 665h37q-14 26 -14 53q0 41 28 70.5t81 29.5q62 0 92 -40q3 -5 -1 -9l-30 -31q-5 -6 -10 -1q-21 23 -47 23q-19 0 -31 -12t-12 -32q0 -33 30 -51h100q6 0 6 -7v-45q0 -7 -6 -7h-223q-6 0 -6 7v45q0 7 6 7zM341 529v-408h91q25 0 36.5 12t11.5 41v496q0 10 10 10h122
q10 0 10 -10v-544q0 -66 -27 -96t-90 -30h-465q-10 0 -10 10v101q0 10 10 10h159v408q0 10 10 10h122q10 0 10 -10z" />
    <glyph glyph-name="aLam.medi_aAlifHamza.fina" unicode="&#xfef8;" horiz-adv-x="720" arabic-form="final" 
d="M155 665h37q-14 26 -14 53q0 41 28 70.5t81 29.5q62 0 92 -40q3 -5 -1 -9l-30 -31q-5 -6 -10 -1q-21 23 -47 23q-19 0 -31 -12t-12 -32q0 -33 30 -51h100q6 0 6 -7v-45q0 -7 -6 -7h-223q-6 0 -6 7v45q0 7 6 7zM622 670v-501q8 -48 75 -48h23q40 0 40 -60q0 -61 -40 -61
q-41 0 -67.5 10t-45.5 40q-14 -29 -42.5 -39.5t-83.5 -10.5h-441q-10 0 -10 10v101q0 10 10 10h159v408q0 10 10 10h122q10 0 10 -10v-408h91q25 0 36.5 12t11.5 41v496q0 10 10 10h122q10 0 10 -10z" />
    <glyph glyph-name="aLam.init_aAlifHamzabelow.fina" unicode="&#xfef9;" horiz-adv-x="682" arabic-form="isolated" 
d="M156 -223h37q-14 26 -14 53q0 41 28 70.5t81 29.5q62 0 92 -40q3 -5 -1 -9l-30 -31q-5 -6 -10 -1q-21 23 -47 23q-19 0 -31 -12t-12 -32q0 -33 30 -51h100q6 0 6 -7v-45q0 -7 -6 -7h-223q-6 0 -6 7v45q0 7 6 7zM341 529v-408h91q25 0 36.5 12t11.5 41v496q0 10 10 10h122
q10 0 10 -10v-544q0 -66 -27 -96t-90 -30h-465q-10 0 -10 10v101q0 10 10 10h159v408q0 10 10 10h122q10 0 10 -10z" />
    <glyph glyph-name="aLam.medi_aAlifHamzabelow.fina" unicode="&#xfefa;" horiz-adv-x="720" arabic-form="final" 
d="M156 -223h37q-14 26 -14 53q0 41 28 70.5t81 29.5q62 0 92 -40q3 -5 -1 -9l-30 -31q-5 -6 -10 -1q-21 23 -47 23q-19 0 -31 -12t-12 -32q0 -33 30 -51h100q6 0 6 -7v-45q0 -7 -6 -7h-223q-6 0 -6 7v45q0 7 6 7zM622 670v-501q8 -48 75 -48h23q40 0 40 -60q0 -61 -40 -61
q-41 0 -67.5 10t-45.5 40q-14 -29 -42.5 -39.5t-83.5 -10.5h-441q-10 0 -10 10v101q0 10 10 10h159v408q0 10 10 10h122q10 0 10 -10v-408h91q25 0 36.5 12t11.5 41v496q0 10 10 10h122q10 0 10 -10z" />
    <glyph glyph-name="aLam.init_aAlif.fina" unicode="&#xfefb;" horiz-adv-x="682" arabic-form="isolated" 
d="M341 529v-408h91q25 0 36.5 12t11.5 41v496q0 10 10 10h122q10 0 10 -10v-544q0 -66 -27 -96t-90 -30h-465q-10 0 -10 10v101q0 10 10 10h159v408q0 10 10 10h122q10 0 10 -10z" />
    <glyph glyph-name="aLam.medi_aAlif.fina" unicode="&#xfefc;" horiz-adv-x="720" arabic-form="final" 
d="M622 670v-501q8 -48 75 -48h23q40 0 40 -60q0 -61 -40 -61q-41 0 -67.5 10t-45.5 40q-14 -29 -42.5 -39.5t-83.5 -10.5h-441q-10 0 -10 10v101q0 10 10 10h159v408q0 10 10 10h122q10 0 10 -10v-408h91q25 0 36.5 12t11.5 41v496q0 10 10 10h122q10 0 10 -10z" />
    <glyph glyph-name=".notdef" horiz-adv-x="506" 
d="M198 124v67q0 10 10 10h71q10 0 10 -10v-67q0 -10 -10 -10h-71q-10 0 -10 10zM277 243h-68q-10 0 -10 10v24q0 29 19 54l46 60q23 30 23 52q0 18 -11.5 30t-29.5 12q-36 0 -48 -39q-2 -11 -11 -9l-65 10q-10 0 -8 11q9 49 44 77t92 28q56 0 91.5 -33.5t35.5 -83.5
q0 -39 -32 -82l-45 -60q-13 -18 -13 -38v-13q0 -10 -10 -10zM69 609v-538q0 -6 6 -6h356q6 0 6 6v538q0 6 -6 6h-356q-6 0 -6 -6zM0 10v660q0 10 10 10h486q10 0 10 -10v-660q0 -10 -10 -10h-486q-10 0 -10 10z" />
    <glyph glyph-name=".null" horiz-adv-x="500" 
 />
    <glyph glyph-name=".null" horiz-adv-x="500" 
 />
    <glyph glyph-name="nonmarkingreturn" horiz-adv-x="333" 
 />
    <glyph glyph-name="CR" unicode="&#xd;" horiz-adv-x="0" 
 />
    <glyph glyph-name="space" unicode=" " horiz-adv-x="236" 
 />
    <glyph glyph-name="exclam" unicode="!" horiz-adv-x="312" 
d="M86 10v114q0 10 10 10h120q10 0 10 -10v-114q0 -10 -10 -10h-120q-10 0 -10 10zM197 199h-82q-10 0 -10 10l-24 461q0 10 10 10h130q10 0 10 -10l-24 -461q0 -10 -10 -10z" />
    <glyph glyph-name="quotedbl" unicode="&#x22;" horiz-adv-x="374" 
d="M147 472h-79q-10 0 -10 10v188q0 10 10 10h79q10 0 10 -10v-188q0 -10 -10 -10zM306 472h-79q-10 0 -10 10v188q0 10 10 10h79q10 0 10 -10v-188q0 -10 -10 -10z" />
    <glyph glyph-name="numbersign" unicode="#" horiz-adv-x="548" 
d="M213 294h104l14 102h-104zM66 10l25 185h-63q-10 0 -10 10v79q0 10 10 10h76l14 102h-64q-10 0 -10 10v79q0 10 10 10h78l24 175q1 10 11 10h89q10 0 9 -10l-24 -175h104l24 175q1 10 11 10h89q10 0 9 -10l-24 -175h66q10 0 10 -10v-79q0 -10 -10 -10h-80l-14 -102h68
q10 0 10 -10v-79q0 -10 -10 -10h-81l-25 -185q-1 -10 -11 -10h-89q-10 0 -9 10l25 185h-104l-25 -185q-1 -10 -11 -10h-89q-10 0 -9 10z" />
    <glyph glyph-name="dollar" unicode="$" 
d="M319 268v-150q51 20 51 83q0 47 -51 67zM253 420v143q-50 -19 -50 -73q0 -51 50 -70zM54 63q-9 8 -2 15l68 84q7 7 13 2q56 -46 120 -53v171q-89 14 -138.5 65.5t-49.5 131.5q0 83 52 141.5t136 68.5v59q0 10 10 10h46q10 0 10 -10v-59q87 -7 159 -54q8 -6 2 -15l-58 -84
q-6 -8 -14 -3q-46 28 -89 35v-161q189 -29 189 -199q0 -88 -50.5 -145t-138.5 -70v-61q0 -10 -10 -10h-46q-10 0 -10 10v58q-113 6 -199 73z" />
    <glyph glyph-name="percent" unicode="%" horiz-adv-x="814" 
d="M581 94q7 -24 35 -24t35 24q4 11 4 76t-4 77q-8 23 -35 23t-35 -23q-4 -12 -4 -77t4 -76zM487 74q-9 23 -9 96t9 97q31 82 129 82q48 0 82 -22t47 -60q9 -38 9 -97q0 -66 -9 -96q-13 -39 -47 -61t-82 -22q-96 0 -129 83zM198 409q27 0 35 23q4 12 4 77t-4 77
q-8 23 -35 23t-35 -23q-4 -12 -4 -77t4 -77q8 -23 35 -23zM198 330q-95 0 -129 82q-9 23 -9 97q0 73 9 97q31 82 129 82t129 -82q9 -24 9 -97q0 -74 -9 -97q-34 -82 -129 -82zM158 -1l395 682q6 10 16 10h84q10 0 4 -10l-395 -682q-6 -10 -16 -10h-83q-11 0 -5 10z" />
    <glyph glyph-name="ampersand" unicode="&#x26;" horiz-adv-x="648" 
d="M182 183q0 -35 20.5 -56t57.5 -21q46 0 95 48l-104 134q-69 -56 -69 -105zM279 451q36 27 49 45t13 37q0 23 -15 38.5t-38 15.5q-24 0 -38.5 -15t-14.5 -39q0 -28 44 -82zM54 172q0 55 28.5 103t97.5 103q-39 51 -56 84t-17 68q0 69 52 115t128 46q79 0 128 -46t49 -113
q0 -46 -25.5 -84t-88.5 -87l89 -113l66 76q7 7 14 1l69 -58q7 -6 1 -14l-80 -95l18 -22q18 -21 39 -21h15q10 0 10 -10v-95q0 -10 -10 -10h-42q-34 0 -57 12t-50 43l-8 9q-42 -41 -82 -58t-92 -17q-92 0 -144 50.5t-52 132.5z" />
    <glyph glyph-name="quotesingle" unicode="'" horiz-adv-x="215" 
d="M147 472h-79q-10 0 -10 10v188q0 10 10 10h79q10 0 10 -10v-188q0 -10 -10 -10z" />
    <glyph glyph-name="parenleft" unicode="(" horiz-adv-x="311" 
d="M180 -74q-129 177 -129 402t129 402q7 10 16 10h72q10 0 6 -10q-90 -182 -90 -402q0 -211 90 -402q4 -10 -6 -10h-72q-9 0 -16 10z" />
    <glyph glyph-name="parenright" unicode=")" horiz-adv-x="311" 
d="M37 -74q90 191 90 402q0 220 -90 402q-4 10 6 10h72q9 0 16 -10q129 -177 129 -402t-129 -402q-7 -10 -16 -10h-72q-10 0 -6 10z" />
    <glyph glyph-name="asterisk" unicode="*" horiz-adv-x="367" 
d="M211 374h-55q-10 0 -10 10l1 80l-69 -41q-9 -4 -14 4l-27 48q-4 9 4 14l69 38l-69 39q-8 5 -4 14l27 48q5 8 14 3l69 -41l-1 80q0 10 10 10h55q10 0 10 -10l-2 -80l69 41q9 5 14 -3l27 -48q5 -9 -3 -14l-70 -39l70 -38q8 -5 4 -14l-28 -48q-5 -8 -14 -4l-69 41l2 -80
q0 -10 -10 -10z" />
    <glyph glyph-name="plus" unicode="+" 
d="M217 59v152q0 6 -6 6h-150q-10 0 -10 10v98q0 10 10 10h150q6 0 6 6v152q0 10 10 10h102q10 0 10 -10v-152q0 -6 6 -6h150q10 0 10 -10v-98q0 -10 -10 -10h-150q-6 0 -6 -6v-152q0 -10 -10 -10h-102q-10 0 -10 10z" />
    <glyph glyph-name="comma" unicode="," horiz-adv-x="253" 
d="M60 -97v227q0 10 10 10h113q10 0 10 -10v-121q0 -11 -9 -20l-99 -90q-7 -7 -15 -7q-10 0 -10 11z" />
    <glyph glyph-name="hyphen" unicode="-" horiz-adv-x="392" 
d="M340 204h-288q-10 0 -10 10v102q0 10 10 10h288q10 0 10 -10v-102q0 -10 -10 -10z" />
    <glyph glyph-name="period" unicode="." horiz-adv-x="259" 
d="M60 10v120q0 10 10 10h119q10 0 10 -10v-120q0 -10 -10 -10h-119q-10 0 -10 10z" />
    <glyph glyph-name="slash" unicode="/" horiz-adv-x="436" 
d="M45 -1l217 682q3 10 13 10h109q10 0 7 -10l-218 -682q-3 -10 -13 -10h-108q-10 0 -7 10z" />
    <glyph glyph-name="zero" unicode="0" 
d="M209 153q15 -46 69 -46t69 46q8 29 8 187t-8 187q-15 46 -69 46t-69 -46q-8 -29 -8 -187t8 -187zM73 128q-15 47 -15 212q0 169 15 212q45 139 205 139t205 -139q15 -43 15 -212q0 -165 -15 -212q-47 -139 -205 -139t-205 139z" />
    <glyph glyph-name="one" unicode="1" 
d="M242 10v512h-2l-108 -74q-11 -8 -11 6v124q0 8 7 14l114 82q8 6 18 6h112q10 0 10 -10v-660q0 -10 -10 -10h-120q-10 0 -10 10z" />
    <glyph glyph-name="two" unicode="2" 
d="M65 10v93q0 6 5 14l239 284q40 48 40 94q0 35 -20 56.5t-54 21.5q-71 0 -80 -80q0 -10 -11 -8l-110 18q-10 1 -8 12q6 74 63 125t151 51q95 0 152 -55t57 -139q0 -83 -69 -165l-179 -211v-2h238q10 0 10 -10v-99q0 -10 -10 -10h-404q-10 0 -10 10z" />
    <glyph glyph-name="three" unicode="3" 
d="M56 145q-1 10 8 13l110 21q9 1 12 -8q21 -64 89 -64q38 0 61 24.5t23 63.5q0 46 -25 71t-70 25h-29q-10 0 -10 10v97q0 10 10 10h27q38 0 61 23t23 62q0 36 -20.5 58t-56.5 22q-59 0 -77 -63q-3 -9 -12 -7l-109 21q-9 2 -8 11q12 70 68.5 113t144.5 43q98 0 154 -52
t56 -136q0 -90 -76 -140v-2q36 -20 62.5 -61.5t26.5 -103.5q0 -92 -62.5 -149.5t-159.5 -57.5q-88 0 -147.5 41.5t-73.5 114.5z" />
    <glyph glyph-name="four" unicode="4" 
d="M316 99h-265q-10 0 -10 10v102q0 2 2 12l204 449q5 8 14 8h127q10 0 7 -10l-204 -447v-3h125q6 0 6 6v147q0 10 10 10h116q10 0 10 -10v-147q0 -6 6 -6h45q10 0 10 -10v-101q0 -10 -10 -10h-45q-6 0 -6 -6v-83q0 -10 -10 -10h-116q-10 0 -10 10v83q0 6 -6 6z" />
    <glyph glyph-name="five" unicode="5" 
d="M71 139q-1 9 8 11l108 21q9 1 12 -8q21 -56 79 -56q52 0 71 48q8 18 8 66q0 49 -8 67q-15 47 -71 47q-48 0 -69 -39q-4 -10 -13 -10h-107q-10 0 -10 10v374q0 10 10 10h380q10 0 10 -10v-99q0 -10 -10 -10h-261q-6 0 -6 -6v-134h3q36 32 102 32q137 0 175 -115
q14 -44 14 -116q0 -59 -15 -106q-20 -62 -73.5 -94.5t-127.5 -32.5q-86 0 -143.5 41.5t-65.5 108.5z" />
    <glyph glyph-name="six" unicode="6" 
d="M188 201q0 -42 24 -68t66 -26t66 26t24 68q0 43 -24.5 69t-65.5 26t-65.5 -26t-24.5 -69zM50 203q0 77 50 168l165 302q3 7 12 7h127q11 0 7 -10l-144 -263l2 -2q14 6 42 6q82 0 138.5 -56.5t56.5 -148.5q0 -100 -64.5 -158.5t-163.5 -58.5q-100 0 -164 58t-64 156z" />
    <glyph glyph-name="seven" unicode="7" 
d="M133 11l216 544v3h-143q-6 0 -6 -6v-71q0 -10 -10 -10h-111q-10 0 -10 10v189q0 10 10 10h407q10 0 10 -10v-104v-1q0 -1 -0.5 -2.5t-1 -4t-0.5 -4.5l-216 -545q-3 -9 -14 -9h-125q-11 0 -6 11z" />
    <glyph glyph-name="eight" unicode="8" 
d="M186 202q0 -42 25 -68.5t67 -26.5t67 26.5t25 68.5t-25 68t-67 26t-67 -26t-25 -68zM278 414q34 0 56 23t22 56q0 34 -21.5 57t-56.5 23t-56.5 -23t-21.5 -57q0 -33 22 -56t56 -23zM48 196q0 104 81 159v2q-27 19 -46.5 55t-19.5 81q0 83 57.5 140.5t157.5 57.5
t157.5 -57.5t57.5 -140.5q0 -45 -19.5 -81t-46.5 -55v-2q81 -55 81 -159q0 -92 -65 -149.5t-165 -57.5t-165 57.5t-65 149.5z" />
    <glyph glyph-name="nine" unicode="9" 
d="M278 384q41 0 65.5 26t24.5 69q0 42 -24 68t-66 26t-66 -26t-24 -68q0 -43 24.5 -69t65.5 -26zM145 10l144 263l-2 2q-14 -6 -42 -6q-82 0 -138.5 56.5t-56.5 148.5q0 100 64.5 158.5t163.5 58.5q100 0 164 -58t64 -156q0 -77 -50 -168l-165 -302q-4 -7 -12 -7h-127
q-11 0 -7 10z" />
    <glyph glyph-name="colon" unicode=":" horiz-adv-x="270" 
d="M65 10v120q0 10 10 10h120q10 0 10 -10v-120q0 -10 -10 -10h-120q-10 0 -10 10zM195 345h-120q-10 0 -10 10v119q0 10 10 10h120q10 0 10 -10v-119q0 -10 -10 -10z" />
    <glyph glyph-name="semicolon" unicode=";" horiz-adv-x="270" 
d="M69 -97v227q0 10 10 10h113q10 0 10 -10v-121q0 -12 -8 -20l-100 -90q-7 -7 -15 -7q-10 0 -10 11zM195 345h-120q-10 0 -10 10v119q0 10 10 10h120q10 0 10 -10v-119q0 -10 -10 -10z" />
    <glyph glyph-name="less" unicode="&#x3c;" 
d="M495 50l-434 170q-10 3 -10 14v84q0 11 10 14l434 170q10 3 10 -6v-109q0 -9 -10 -13l-265 -97v-2l265 -97q10 -4 10 -13v-109q0 -9 -10 -6z" />
    <glyph glyph-name="equal" unicode="=" 
d="M495 112h-434q-10 0 -10 10v98q0 10 10 10h434q10 0 10 -10v-98q0 -10 -10 -10zM495 322h-434q-10 0 -10 10v98q0 10 10 10h434q10 0 10 -10v-98q0 -10 -10 -10z" />
    <glyph glyph-name="greater" unicode="&#x3e;" 
d="M51 56v109q0 9 10 13l265 97v2l-265 97q-10 4 -10 13v109q0 9 10 6l434 -170q10 -3 10 -14v-84q0 -11 -10 -14l-434 -170q-10 -3 -10 6z" />
    <glyph glyph-name="question" unicode="?" horiz-adv-x="473" 
d="M158 10v114q0 10 10 10h120q10 0 10 -10v-114q0 -10 -10 -10h-120q-10 0 -10 10zM286 199h-116q-10 0 -10 10v42q0 48 29 84l70 91q38 49 38 80q0 30 -18 48t-48 18q-61 0 -75 -70q-3 -10 -13 -9l-108 16q-10 1 -8 12q11 79 66 124.5t142 45.5q89 0 145 -51.5t56 -128.5
q0 -61 -53 -130l-67 -88q-20 -27 -20 -60v-24q0 -10 -10 -10z" />
    <glyph glyph-name="at" unicode="@" horiz-adv-x="910" 
d="M382 198q15 -46 66 -46t66 46q6 18 6 67q0 47 -6 66q-17 47 -66 47t-66 -47q-6 -19 -6 -66q0 -49 6 -67zM43 265q0 180 113.5 292t295.5 112t295.5 -111.5t113.5 -289.5q0 -105 -51 -160t-127 -55q-91 0 -129 65h-1q-34 -64 -134 -64q-108 0 -143 95q-14 41 -14 116
q0 74 14 115q34 96 135 96q77 0 108 -51h1v31q0 9 8 9h96q8 0 8 -9v-243q0 -31 15 -47t38 -16q65 0 65 117q0 138 -80.5 221.5t-217.5 83.5t-217.5 -83.5t-80.5 -223.5q0 -137 80.5 -220t217.5 -83q110 0 207 47q9 4 14 -4l36 -65q5 -8 -4 -13q-105 -63 -253 -63
q-181 0 -295 112t-114 289z" />
    <glyph glyph-name="A" unicode="A" horiz-adv-x="644" 
d="M244 254h157l-77 238h-3zM14 10l234 660q3 10 13 10h126q10 0 13 -10l230 -660q3 -10 -7 -10h-130q-10 0 -13 10l-39 119h-238l-38 -119q-3 -10 -13 -10h-131q-10 0 -7 10z" />
    <glyph glyph-name="B" unicode="B" horiz-adv-x="610" 
d="M212 283v-158q0 -6 6 -6h112q45 0 68.5 22.5t23.5 62.5t-24 62.5t-68 22.5h-112q-6 0 -6 -6zM218 402h104q42 0 65.5 21t23.5 59t-23.5 58.5t-65.5 20.5h-104q-6 0 -6 -6v-147q0 -6 6 -6zM65 10v660q0 10 10 10h265q108 0 162.5 -48.5t54.5 -132.5q0 -101 -79 -145v-2
q37 -13 64 -55t27 -99q0 -198 -236 -198h-258q-10 0 -10 10z" />
    <glyph glyph-name="C" unicode="C" horiz-adv-x="575" 
d="M66 156q-19 54 -19 184q0 128 19 184q59 167 242 167q176 0 237 -151q5 -9 -5 -12l-109 -49q-9 -4 -14 5q-33 77 -108 77q-78 0 -102 -75q-11 -33 -11 -146t11 -146q24 -75 102 -75q75 0 108 77q5 9 14 5l109 -49q10 -3 5 -12q-61 -151 -237 -151q-183 0 -242 167z" />
    <glyph glyph-name="D" unicode="D" horiz-adv-x="630" 
d="M212 543v-406q0 -6 6 -6h77q53 0 83.5 17t42.5 58q11 26 11 134q0 105 -11 134q-15 41 -44.5 58t-81.5 17h-77q-6 0 -6 -6zM65 10v660q0 10 10 10h253q188 0 235 -153q18 -62 18 -187t-18 -187q-47 -153 -235 -153h-253q-10 0 -10 10z" />
    <glyph glyph-name="E" unicode="E" horiz-adv-x="565" 
d="M65 10v660q0 10 10 10h436q10 0 10 -10v-107q0 -10 -10 -10h-293q-6 0 -6 -6v-135q0 -6 6 -6h244q10 0 10 -10v-106q0 -10 -10 -10h-244q-6 0 -6 -6v-141q0 -6 6 -6h293q10 0 10 -10v-107q0 -10 -10 -10h-436q-10 0 -10 10z" />
    <glyph glyph-name="F" unicode="F" horiz-adv-x="557" 
d="M65 10v660q0 10 10 10h436q10 0 10 -10v-107q0 -10 -10 -10h-293q-6 0 -6 -6v-143q0 -6 6 -6h244q10 0 10 -10v-106q0 -10 -10 -10h-244q-6 0 -6 -6v-256q0 -10 -10 -10h-127q-10 0 -10 10z" />
    <glyph glyph-name="G" unicode="G" horiz-adv-x="628" 
d="M66 154q-19 56 -19 186t19 186q27 83 92 124t158 41q92 0 154.5 -40t87.5 -105q5 -11 -4 -15l-107 -45q-11 -3 -14 5q-40 70 -117 70q-85 0 -109 -76q-11 -33 -11 -145q0 -113 11 -146q24 -75 111 -75q39 0 68.5 18.5t40.5 51.5q8 27 8 67q0 6 -6 6h-92q-10 0 -10 10v96
q0 10 10 10h234q10 0 10 -10v-56q0 -101 -17 -153q-26 -81 -91.5 -125.5t-156.5 -44.5q-93 0 -158 41t-92 124z" />
    <glyph glyph-name="H" unicode="H" horiz-adv-x="658" 
d="M65 10v660q0 10 10 10h127q10 0 10 -10v-255q0 -6 6 -6h222q6 0 6 6v255q0 10 10 10h127q10 0 10 -10v-660q0 -10 -10 -10h-127q-10 0 -10 10v262q0 6 -6 6h-222q-6 0 -6 -6v-262q0 -10 -10 -10h-127q-10 0 -10 10z" />
    <glyph glyph-name="I" unicode="I" horiz-adv-x="277" 
d="M65 10v660q0 10 10 10h127q10 0 10 -10v-660q0 -10 -10 -10h-127q-10 0 -10 10z" />
    <glyph glyph-name="J" unicode="J" horiz-adv-x="521" 
d="M21 76q-5 8 1 14l93 71q7 4 14 -2q34 -40 83 -40q48 0 74 30.5t26 87.5v433q0 10 10 10h127q10 0 10 -10v-426q0 -126 -64.5 -190.5t-183.5 -64.5q-62 0 -114 24t-76 63z" />
    <glyph glyph-name="K" unicode="K" horiz-adv-x="645" 
d="M65 10v660q0 10 10 10h127q10 0 10 -10v-294l226 295q6 9 17 9h145q13 0 4 -13l-206 -258l225 -397q7 -12 -6 -12h-147q-10 0 -15 9l-154 286l-89 -112v-173q0 -10 -10 -10h-127q-10 0 -10 10z" />
    <glyph glyph-name="L" unicode="L" horiz-adv-x="550" 
d="M65 10v660q0 10 10 10h127q10 0 10 -10v-533q0 -6 6 -6h300q10 0 10 -10v-111q0 -10 -10 -10h-443q-10 0 -10 10z" />
    <glyph glyph-name="M" unicode="M" horiz-adv-x="763" 
d="M65 10v660q0 10 10 10h119q12 0 16 -10l172 -388h4l169 388q4 10 16 10h117q10 0 10 -10v-660q0 -10 -10 -10h-113q-10 0 -10 10v383h-4l-126 -287q-6 -13 -19 -13h-69q-13 0 -19 13l-126 287h-4v-383q0 -10 -10 -10h-113q-10 0 -10 10z" />
    <glyph glyph-name="N" unicode="N" horiz-adv-x="655" 
d="M65 10v660q0 10 10 10h120q11 0 17 -10l240 -428h5v428q0 10 10 10h113q10 0 10 -10v-660q0 -10 -10 -10h-119q-11 0 -17 10l-241 427h-5v-427q0 -10 -10 -10h-113q-10 0 -10 10z" />
    <glyph glyph-name="O" unicode="O" horiz-adv-x="628" 
d="M314 119q83 0 107 75q11 33 11 146t-11 146q-24 75 -107 75t-107 -75q-11 -33 -11 -146t11 -146q24 -75 107 -75zM314 -11q-194 0 -248 165q-19 56 -19 186q0 129 19 186q27 81 91.5 123t156.5 42t156.5 -42t91.5 -123q19 -57 19 -186q0 -130 -19 -186
q-54 -165 -248 -165z" />
    <glyph glyph-name="P" unicode="P" horiz-adv-x="605" 
d="M218 370h112q47 0 73 24t26 67t-26 67.5t-73 24.5h-112q-6 0 -6 -6v-171q0 -6 6 -6zM202 0h-127q-10 0 -10 10v660q0 10 10 10h264q110 0 173.5 -60t63.5 -159q0 -97 -64 -157.5t-173 -60.5h-121q-6 0 -6 -6v-227q0 -10 -10 -10z" />
    <glyph glyph-name="Q" unicode="Q" horiz-adv-x="628" 
d="M314 118q25 0 36 4l-43 43q-7 7 0 14l80 76q7 7 15 0l27 -27q4 31 4 112q0 114 -11 147q-24 75 -108 75t-108 -75q-11 -33 -11 -147t11 -147q24 -75 108 -75zM616 29l-80 -78q-8 -7 -15 0l-69 69q-61 -31 -138 -31q-194 0 -248 165q-19 56 -19 186q0 129 19 186
q27 81 91.5 123t156.5 42q195 0 248 -165q19 -57 19 -186t-19 -186q-8 -25 -17 -41l71 -70q7 -7 0 -14z" />
    <glyph glyph-name="R" unicode="R" horiz-adv-x="624" 
d="M218 384h120q42 0 67 23t25 62q0 38 -25 61t-67 23h-120q-6 0 -6 -6v-157q0 -6 6 -6zM583 0h-142q-11 0 -15 10l-117 249h-91q-6 0 -6 -6v-243q0 -10 -10 -10h-127q-10 0 -10 10v660q0 10 10 10h271q104 0 167.5 -58.5t63.5 -152.5q0 -66 -32 -115t-89 -74l134 -268
q4 -12 -7 -12z" />
    <glyph glyph-name="S" unicode="S" horiz-adv-x="595" 
d="M294 -11q-77 0 -148.5 26.5t-113.5 66.5q-8 8 -1 17l76 87q6 8 15 1q88 -70 178 -70q53 0 82 22t29 59q0 32 -23.5 50t-81.5 26l-36 5q-215 30 -215 204q0 94 65.5 151t175.5 57q139 0 231 -71q9 -6 2 -15l-61 -91q-6 -8 -14 -3q-77 52 -158 52q-44 0 -67.5 -20.5
t-23.5 -53.5q0 -31 24 -49t82 -26l36 -5q108 -15 161 -64.5t53 -141.5q0 -96 -69.5 -155t-197.5 -59z" />
    <glyph glyph-name="T" unicode="T" horiz-adv-x="557" 
d="M342 0h-127q-10 0 -10 10v533q0 6 -6 6h-172q-10 0 -10 10v111q0 10 10 10h503q10 0 10 -10v-111q0 -10 -10 -10h-172q-6 0 -6 -6v-533q0 -10 -10 -10z" />
    <glyph glyph-name="U" unicode="U" horiz-adv-x="645" 
d="M323 -11q-117 0 -189 68.5t-72 192.5v420q0 10 10 10h127q10 0 10 -10v-424q0 -60 31 -93.5t83 -33.5t82.5 33.5t30.5 93.5v424q0 10 10 10h127q10 0 10 -10v-420q0 -124 -72 -192.5t-188 -68.5z" />
    <glyph glyph-name="V" unicode="V" horiz-adv-x="595" 
d="M356 0h-116q-10 0 -13 10l-216 659q-3 11 9 11h130q10 0 13 -10l136 -446h3l132 446q3 10 13 10h129q11 0 8 -11l-216 -659q-3 -10 -12 -10z" />
    <glyph glyph-name="W" unicode="W" horiz-adv-x="865" 
d="M665 0h-100q-10 0 -13 10l-118 423h-2l-119 -423q-3 -10 -13 -10h-100q-9 0 -12 10l-176 660q-1 10 8 10h129q9 0 12 -10l98 -427h2l116 427q3 10 13 10h87q9 0 12 -10l120 -427h2l94 427q3 10 12 10h128q9 0 8 -10l-175 -660q-1 -10 -13 -10z" />
    <glyph glyph-name="X" unicode="X" horiz-adv-x="595" 
d="M576 0h-139q-11 0 -17 10l-121 207h-3l-122 -207q-6 -10 -17 -10h-138q-13 0 -6 12l203 339l-189 317q-5 12 6 12h139q10 0 16 -10l108 -184h3l108 184q6 10 16 10h139q10 0 6 -12l-190 -317l204 -339q4 -12 -6 -12z" />
    <glyph glyph-name="Y" unicode="Y" horiz-adv-x="568" 
d="M347 0h-127q-10 0 -10 10v261l-201 399q-4 10 7 10h130q11 0 15 -10l123 -248h3l123 248q4 10 15 10h126q5 0 7 -3t0 -7l-201 -399v-261q0 -10 -10 -10z" />
    <glyph glyph-name="Z" unicode="Z" horiz-adv-x="546" 
d="M496 0h-446q-10 0 -10 10v110q0 5 3 10l293 417v2h-275q-10 0 -10 10v111q0 10 10 10h435q10 0 10 -10v-110q0 -6 -3 -10l-294 -417v-2h287q10 0 10 -10v-111q0 -10 -10 -10z" />
    <glyph glyph-name="bracketleft" unicode="[" horiz-adv-x="302" 
d="M264 -84h-190q-10 0 -10 10v804q0 10 10 10h190q10 0 10 -10v-84q0 -10 -10 -10h-70q-6 0 -6 -6v-604q0 -6 6 -6h70q10 0 10 -10v-84q0 -10 -10 -10z" />
    <glyph glyph-name="backslash" unicode="\" horiz-adv-x="436" 
d="M384 -11h-109q-10 0 -13 10l-217 682q-3 10 7 10h108q10 0 13 -10l218 -682q3 -10 -7 -10z" />
    <glyph glyph-name="bracketright" unicode="]" horiz-adv-x="302" 
d="M228 -84h-190q-10 0 -10 10v84q0 10 10 10h70q6 0 6 6v604q0 6 -6 6h-70q-10 0 -10 10v84q0 10 10 10h190q10 0 10 -10v-804q0 -10 -10 -10z" />
    <glyph glyph-name="asciicircum" unicode="^" 
d="M499 253h-109q-10 0 -14 10l-97 248h-2l-98 -248q-3 -10 -13 -10h-109q-10 0 -7 10l171 407q4 10 14 10h86q10 0 14 -10l171 -407q3 -10 -7 -10z" />
    <glyph glyph-name="underscore" unicode="_" horiz-adv-x="520" 
d="M520 -152h-520v88h520v-88z" />
    <glyph glyph-name="grave" unicode="`" horiz-adv-x="454" 
d="M328 551h-92q-12 0 -19 10l-99 130q-3 4 -1.5 7t6.5 3h116q12 0 18 -10l76 -130q4 -10 -5 -10z" />
    <glyph glyph-name="a" unicode="a" horiz-adv-x="528" 
d="M245 94q90 0 90 67v33q0 6 -6 6h-68q-86 0 -86 -55q0 -51 70 -51zM458 0h-111q-10 0 -10 10v32h-1q-41 -53 -133 -53q-70 0 -115.5 37t-45.5 111q0 78 54 117t147 39h86q6 0 6 6v18q0 35 -21.5 50.5t-77.5 15.5q-66 0 -108 -31q-8 -6 -13 2l-45 79q-5 9 3 14
q68 48 180 48q116 0 165.5 -41.5t49.5 -133.5v-310q0 -10 -10 -10z" />
    <glyph glyph-name="b" unicode="b" horiz-adv-x="551" 
d="M286 107q57 0 75 52q9 24 9 83t-9 83q-18 52 -75 52q-56 0 -74 -52q-9 -24 -9 -83t9 -83q18 -52 74 -52zM331 -11q-88 0 -127 56h-1v-35q0 -10 -10 -10h-120q-10 0 -10 10v660q0 10 10 10h120q10 0 10 -10v-231h1q39 56 127 56q126 0 164 -116q17 -55 17 -137t-17 -137
q-38 -116 -164 -116z" />
    <glyph glyph-name="c" unicode="c" horiz-adv-x="481" 
d="M263 -11q-160 0 -209 137q-15 44 -15 116t15 116q49 137 209 137q61 0 108.5 -25t74.5 -66q5 -8 -2 -14l-87 -57q-9 -6 -15 2q-30 42 -77 42q-59 0 -75 -52q-9 -26 -9 -83t9 -83q16 -52 75 -52q47 0 77 42q6 8 15 2l87 -57q7 -6 2 -14q-27 -41 -74.5 -66t-108.5 -25z" />
    <glyph glyph-name="d" unicode="d" horiz-adv-x="551" 
d="M265 107q56 0 74 52q9 24 9 83t-9 83q-18 52 -74 52q-57 0 -75 -52q-9 -24 -9 -83t9 -83q18 -52 75 -52zM478 0h-120q-10 0 -10 10v35h-1q-39 -56 -127 -56q-126 0 -164 116q-17 55 -17 137t17 137q38 116 164 116q88 0 127 -56h1v231q0 10 10 10h120q10 0 10 -10v-660
q0 -10 -10 -10z" />
    <glyph glyph-name="e" unicode="e" horiz-adv-x="527" 
d="M184 293h160q6 0 6 6q0 18 -5 36q-18 53 -81 53t-81 -53q-5 -18 -5 -36q0 -6 6 -6zM270 -11q-165 0 -214 138q-17 48 -17 115q0 71 16 116q23 66 76.5 101.5t131.5 35.5q80 0 134 -35.5t75 -100.5q16 -48 16 -149q0 -10 -11 -10h-293q-6 0 -6 -6q2 -15 6 -27
q19 -64 100 -64q66 0 111 43q9 8 14 0l66 -62q7 -8 1 -14q-78 -81 -206 -81z" />
    <glyph glyph-name="f" unicode="f" horiz-adv-x="339" 
d="M210 0h-119q-10 0 -10 10v365q0 6 -6 6h-30q-10 0 -10 10v83q0 10 10 10h30q6 0 6 6v23q0 89 40.5 128t129.5 39h55q10 0 10 -10v-94q0 -10 -10 -10h-31q-33 0 -44 -10.5t-11 -41.5v-24q0 -6 6 -6h79q10 0 10 -10v-83q0 -10 -10 -10h-79q-6 0 -6 -6v-365q0 -10 -10 -10z
" />
    <glyph glyph-name="g" unicode="g" horiz-adv-x="543" 
d="M259 137q54 0 72 52q9 24 9 68t-9 68q-18 52 -72 52t-72 -52q-8 -22 -8 -68t8 -68q18 -52 72 -52zM239 -191q-54 0 -105.5 20.5t-77.5 52.5q-6 8 1 15l71 72q8 7 15 0q48 -42 100 -42q50 0 73.5 26t23.5 81v41h-1q-34 -56 -124 -56q-124 0 -162 117q-16 52 -16 121
q0 70 16 121q38 117 162 117q90 0 124 -56h1v35q0 10 10 10h120q10 0 10 -10v-422q0 -243 -241 -243z" />
    <glyph glyph-name="h" unicode="h" horiz-adv-x="553" 
d="M484 0h-120q-10 0 -10 10v278q0 41 -19 64.5t-56 23.5q-36 0 -56 -24t-20 -64v-278q0 -10 -10 -10h-120q-10 0 -10 10v660q0 10 10 10h120q10 0 10 -10v-230h1q41 55 125 55q79 0 122 -49t43 -131v-305q0 -10 -10 -10z" />
    <glyph glyph-name="i" unicode="i" horiz-adv-x="266" 
d="M193 0h-120q-10 0 -10 10v464q0 10 10 10h120q10 0 10 -10v-464q0 -10 -10 -10zM193 561h-120q-10 0 -10 10v99q0 10 10 10h120q10 0 10 -10v-99q0 -10 -10 -10z" />
    <glyph glyph-name="j" unicode="j" horiz-adv-x="266" 
d="M22 -180h-33q-10 0 -10 10v98q0 10 10 10h20q30 0 42 12t12 44v480q0 10 10 10h120q10 0 10 -10v-479q0 -91 -45.5 -133t-135.5 -42zM193 561h-120q-10 0 -10 10v99q0 10 10 10h120q10 0 10 -10v-99q0 -10 -10 -10z" />
    <glyph glyph-name="k" unicode="k" horiz-adv-x="531" 
d="M509 0h-133q-9 0 -15 10l-108 195l-50 -62v-133q0 -10 -10 -10h-120q-10 0 -10 10v660q0 10 10 10h120q10 0 10 -10v-367l139 171q9 10 19 10h128q5 0 6 -3.5t-2 -6.5l-148 -171l169 -293q3 -3 1.5 -6.5t-6.5 -3.5z" />
    <glyph glyph-name="l" unicode="l" horiz-adv-x="304" 
d="M264 -6h-53q-80 0 -115 36t-35 118v522q0 10 10 10h120q10 0 10 -10v-511q0 -46 42 -46h21q10 0 10 -10v-99q0 -10 -10 -10z" />
    <glyph glyph-name="m" unicode="m" horiz-adv-x="844" 
d="M775 0h-120q-10 0 -10 10v278q0 41 -19.5 64.5t-56.5 23.5q-35 0 -55 -24t-20 -64v-278q0 -10 -10 -10h-120q-10 0 -10 10v278q0 41 -19 64.5t-56 23.5q-36 0 -56 -24t-20 -64v-278q0 -10 -10 -10h-120q-10 0 -10 10v464q0 10 10 10h120q10 0 10 -10v-34h1q41 55 125 55
q87 0 130 -61h1q56 61 152 61q83 0 128 -48.5t45 -131.5v-305q0 -10 -10 -10z" />
    <glyph glyph-name="n" unicode="n" horiz-adv-x="553" 
d="M484 0h-120q-10 0 -10 10v278q0 41 -19 64.5t-56 23.5q-36 0 -56 -24t-20 -64v-278q0 -10 -10 -10h-120q-10 0 -10 10v464q0 10 10 10h120q10 0 10 -10v-34h1q41 55 125 55q79 0 122 -49t43 -131v-305q0 -10 -10 -10z" />
    <glyph glyph-name="o" unicode="o" horiz-adv-x="530" 
d="M265 107q59 0 75 52q9 30 9 83t-9 83q-16 52 -75 52t-75 -52q-9 -30 -9 -83t9 -83q16 -52 75 -52zM265 -11q-79 0 -134 35.5t-76 100.5q-16 51 -16 117t16 117q21 65 76 100.5t134 35.5t134 -35.5t76 -100.5q16 -51 16 -117t-16 -117q-21 -65 -76 -100.5t-134 -35.5z" />
    <glyph glyph-name="p" unicode="p" horiz-adv-x="551" 
d="M286 107q57 0 75 52q9 24 9 83t-9 83q-18 52 -75 52q-56 0 -74 -52q-9 -24 -9 -83t9 -83q18 -52 74 -52zM193 -180h-120q-10 0 -10 10v644q0 10 10 10h120q10 0 10 -10v-35h1q39 56 127 56q126 0 164 -116q17 -55 17 -137t-17 -137q-38 -116 -164 -116q-88 0 -127 56h-1
v-215q0 -10 -10 -10z" />
    <glyph glyph-name="q" unicode="q" horiz-adv-x="551" 
d="M265 107q56 0 74 52q9 24 9 83t-9 83q-18 52 -74 52q-57 0 -75 -52q-9 -24 -9 -83t9 -83q18 -52 75 -52zM478 -180h-120q-10 0 -10 10v215h-1q-39 -56 -127 -56q-126 0 -164 116q-17 55 -17 137t17 137q38 116 164 116q88 0 127 -56h1v35q0 10 10 10h120q10 0 10 -10
v-644q0 -10 -10 -10z" />
    <glyph glyph-name="r" unicode="r" horiz-adv-x="426" 
d="M193 0h-120q-10 0 -10 10v464q0 10 10 10h120q10 0 10 -10v-41h1q37 62 126 62q53 0 85 -29q8 -6 3 -14l-56 -102q-4 -6 -14 -2q-41 23 -70 22q-75 -4 -75 -105v-255q0 -10 -10 -10z" />
    <glyph glyph-name="s" unicode="s" horiz-adv-x="505" 
d="M253 -11q-132 0 -220 75q-7 7 0 14l65 73q6 6 14 0q69 -53 148 -53q75 0 75 46q0 18 -14.5 28t-54.5 14l-54 6q-158 18 -158 148q0 73 51.5 114t147.5 41q119 0 196 -60q7 -7 1 -15l-56 -69q-6 -7 -14 -2q-61 39 -131 39q-61 0 -61 -40q0 -18 13.5 -27t53.5 -13l53 -6
q161 -18 161 -147q-1 -77 -56.5 -121.5t-159.5 -44.5z" />
    <glyph glyph-name="t" unicode="t" horiz-adv-x="331" 
d="M280 -6h-53q-83 0 -118.5 38.5t-35.5 122.5v220q0 6 -6 6h-30q-10 0 -10 10v83q0 10 10 10h30q6 0 6 6v130q0 10 10 10h119q10 0 10 -10v-130q0 -6 6 -6h62q10 0 10 -10v-83q0 -10 -10 -10h-62q-6 0 -6 -6v-214q0 -27 10 -37.5t34 -10.5h24q10 0 10 -10v-99
q0 -10 -10 -10z" />
    <glyph glyph-name="u" unicode="u" horiz-adv-x="549" 
d="M476 0h-120q-10 0 -10 10v35h-1q-42 -56 -124 -56q-78 0 -120.5 49.5t-42.5 130.5v305q0 10 10 10h120q10 0 10 -10v-278q0 -40 19 -64t55 -24q35 0 54.5 23.5t19.5 64.5v278q0 10 10 10h120q10 0 10 -10v-464q0 -10 -10 -10z" />
    <glyph glyph-name="v" unicode="v" horiz-adv-x="508" 
d="M309 0h-110q-8 0 -12 10l-172 464q-4 10 8 10h126q10 0 13 -10l94 -287h2l90 287q3 10 13 10h124q12 0 8 -10l-172 -464q-4 -10 -12 -10z" />
    <glyph glyph-name="w" unicode="w" horiz-adv-x="763" 
d="M578 0h-100q-9 0 -12 10l-83 281h-2l-85 -281q-3 -10 -12 -10h-99q-9 0 -12 10l-155 464q-3 10 7 10h123q11 0 14 -10l80 -288h2l83 288q3 10 14 10h84q10 0 13 -10l85 -288h2l76 288q3 10 13 10h123q11 0 8 -10l-155 -464q-3 -10 -12 -10z" />
    <glyph glyph-name="x" unicode="x" horiz-adv-x="515" 
d="M489 0h-130q-9 0 -15 9l-87 132h-1l-86 -132q-8 -9 -16 -9h-129q-13 0 -7 10l163 241l-151 223q-6 10 7 10h130q11 0 17 -9l73 -114h1l74 114q8 9 16 9h129q14 0 8 -10l-151 -223l163 -241q6 -10 -8 -10z" />
    <glyph glyph-name="y" unicode="y" horiz-adv-x="507" 
d="M127 -180h-34q-10 0 -10 10v98q0 10 10 10h21q26 0 41 11.5t25 38.5l13 36l-180 450q-3 10 8 10h128q9 0 12 -10l97 -280h2l90 280q3 10 12 10h124q12 0 8 -10l-196 -515q-30 -80 -67.5 -109.5t-103.5 -29.5z" />
    <glyph glyph-name="z" unicode="z" horiz-adv-x="490" 
d="M434 0h-378q-10 0 -10 10v90q0 6 3 10l230 257v2h-210q-10 0 -10 10v95q0 10 10 10h365q10 0 10 -10v-95q0 -5 -3 -10l-228 -252v-2h221q10 0 10 -10v-95q0 -10 -10 -10z" />
    <glyph glyph-name="braceleft" unicode="{" horiz-adv-x="357" 
d="M319 -84h-67q-126 0 -126 123v153q0 42 -16.5 61.5t-52.5 19.5q-10 0 -10 10v94q0 10 10 10q36 0 52.5 19.5t16.5 61.5v149q0 123 126 123h67q10 0 10 -10v-84q0 -10 -10 -10h-28q-42 0 -42 -43v-137q0 -56 -16 -83t-56 -42v-2q40 -14 56 -42t16 -84v-140q0 -43 42 -43
h28q10 0 10 -10v-84q0 -10 -10 -10z" />
    <glyph glyph-name="bar" unicode="|" horiz-adv-x="335" 
d="M217 -84h-99q-10 0 -10 10v804q0 10 10 10h99q10 0 10 -10v-804q0 -10 -10 -10z" />
    <glyph glyph-name="braceright" unicode="}" horiz-adv-x="357" 
d="M105 -84h-67q-10 0 -10 10v84q0 10 10 10h28q42 0 42 43v140q0 56 16 84t56 42v2q-40 15 -56 42t-16 83v137q0 43 -42 43h-28q-10 0 -10 10v84q0 10 10 10h67q126 0 126 -123v-149q0 -42 16.5 -61.5t52.5 -19.5q10 0 10 -10v-94q0 -10 -10 -10q-36 0 -52.5 -19.5
t-16.5 -61.5v-153q0 -123 -126 -123z" />
    <glyph glyph-name="asciitilde" unicode="~" 
d="M510 296q-21 -49 -59 -77t-85 -28q-52 0 -105 35q-39 25 -65 25q-38 0 -65 -49q-5 -8 -15 -2l-67 41q-8 5 -3 14q21 49 59 77t85 28q52 0 105 -35q39 -25 65 -25q38 0 65 49q5 8 15 2l67 -41q7 -4 3 -14z" />
    <glyph glyph-name="uni00A0.001" unicode="&#xa0;" horiz-adv-x="236" 
 />
    <glyph glyph-name="exclamdown" unicode="&#xa1;" horiz-adv-x="312" 
d="M226 474v-114q0 -10 -10 -10h-120q-10 0 -10 10v114q0 10 10 10h120q10 0 10 -10zM115 285h82q10 0 10 -10l24 -461q0 -10 -10 -10h-130q-10 0 -10 10l24 461q0 10 10 10z" />
    <glyph glyph-name="cent" unicode="&#xa2;" 
d="M213 242q0 -58 9 -82q12 -37 42 -47v258q-32 -12 -42 -46q-9 -26 -9 -83zM329 572v-78q105 -12 157 -90q4 -9 -2 -14l-87 -57q-9 -7 -15 2q-23 33 -53 39v-264q31 7 53 40q6 8 15 1l87 -57q9 -4 2 -13q-52 -80 -157 -90v-79q0 -10 -10 -10h-45q-10 0 -10 10v79
q-134 13 -178 135q-15 43 -15 116q0 72 15 116q43 120 178 136v78q0 10 10 10h45q10 0 10 -10z" />
    <glyph glyph-name="sterling" unicode="&#xa3;" 
d="M481 0h-389q-10 0 -10 10v97q0 7 5 12q18 16 26 34t8 52v58q0 6 -6 6h-41q-10 0 -10 10v79q0 10 10 10h41q6 0 6 6v122q0 93 50.5 144t139.5 51q74 0 121 -37.5t59 -99.5q2 -8 -9 -11l-109 -24q-9 0 -11 9q-9 45 -50 45q-50 0 -50 -61v-138q0 -6 6 -6h121q10 0 10 -10
v-79q0 -10 -10 -10h-121q-6 0 -6 -6v-43q0 -67 -26 -99v-2h245q10 0 10 -10v-99q0 -10 -10 -10z" />
    <glyph glyph-name="currency" unicode="&#xa4;" 
d="M278 203q43 0 71 28.5t28 73.5t-28 73.5t-71 28.5t-70.5 -28.5t-27.5 -73.5t27.5 -73.5t70.5 -28.5zM520 134l-69 -69q-7 -7 -14 0l-60 60q-43 -25 -99 -25q-57 0 -100 25l-59 -59q-7 -7 -14 0l-68 69q-7 7 0 14l59 59q-23 44 -23 97q0 51 24 97l-60 60q-6 6 0 14l68 69
q7 7 14 0l59 -60q46 25 100 25q56 0 99 -25l60 60q7 7 14 0l68 -69q7 -7 0 -14l-60 -60q25 -43 25 -97q0 -52 -24 -97l60 -60q7 -7 0 -14z" />
    <glyph glyph-name="yen" unicode="&#xa5;" 
d="M338 0h-120q-10 0 -10 10v115q0 6 -6 6h-116q-10 0 -10 10v62q0 10 10 10h116q6 0 6 6v34q0 6 -6 6h-116q-10 0 -10 10v62q0 10 10 10h92v2l-148 327q-4 10 7 10h128q10 0 14 -10l100 -258h3l98 258q4 10 14 10h125q11 0 7 -10l-148 -327v-2h92q10 0 10 -10v-62
q0 -10 -10 -10h-116q-6 0 -6 -6v-34q0 -6 6 -6h116q10 0 10 -10v-62q0 -10 -10 -10h-116q-6 0 -6 -6v-115q0 -10 -10 -10z" />
    <glyph glyph-name="brokenbar" unicode="&#xa6;" horiz-adv-x="335" 
d="M217 -84h-99q-10 0 -10 10v336q0 10 10 10h99q10 0 10 -10v-336q0 -10 -10 -10zM217 388h-99q-10 0 -10 10v332q0 10 10 10h99q10 0 10 -10v-332q0 -10 -10 -10z" />
    <glyph glyph-name="section" unicode="&#xa7;" horiz-adv-x="558" 
d="M279 168q36 0 57.5 22.5t21.5 61.5t-21.5 61.5t-57.5 22.5t-57.5 -22.5t-21.5 -61.5t21.5 -61.5t57.5 -22.5zM276 -191q-86 0 -134 40t-54 102q-2 9 6 11l104 18q8 1 10 -7q7 -58 65 -58q65 0 65 57q0 33 -23.5 53t-85.5 35q-156 40 -156 191q0 51 23.5 91t64.5 62v1
q-64 42 -64 125q0 67 51.5 114t133.5 47q85 0 133 -42t52 -102q2 -9 -7 -10l-102 -18q-10 -1 -10 8q-9 58 -63 58q-29 0 -45 -15t-16 -41q0 -32 23.5 -51t81.5 -34q156 -42 156 -191q0 -52 -25 -92.5t-63 -60.5v-1q37 -23 52 -53.5t15 -78.5q0 -68 -51.5 -113t-136.5 -45z
" />
    <glyph glyph-name="dieresis" unicode="&#xa8;" horiz-adv-x="454" 
d="M173 561h-92q-10 0 -10 10v99q0 10 10 10h92q10 0 10 -10v-99q0 -10 -10 -10zM374 561h-93q-10 0 -10 10v99q0 10 10 10h93q10 0 10 -10v-99q0 -10 -10 -10z" />
    <glyph glyph-name="copyright" unicode="&#xa9;" horiz-adv-x="811" 
d="M415 144q-130 0 -168 110q-10 27 -10 86q0 58 10 87q37 110 168 110q96 0 143 -69q6 -8 -3 -14l-65 -42q-7 -7 -13 2q-24 32 -60 32q-50 0 -64 -45q-6 -17 -6 -61t6 -61q14 -44 64 -44q35 0 60 31q5 11 13 3l65 -43q11 -5 3 -13q-21 -32 -58.5 -50.5t-84.5 -18.5zM405 69
q116 0 192 77t76 194t-76 194t-192 77q-115 0 -191 -77t-76 -194t76 -194t191 -77zM405 -11q-149 0 -250 100.5t-101 250.5q0 149 101 250t250 101q150 0 251 -101t101 -250q0 -150 -101 -250.5t-251 -100.5z" />
    <glyph glyph-name="ordfeminine" unicode="&#xaa;" horiz-adv-x="356" 
d="M165 458q53 0 53 35v8q0 6 -6 6h-42q-40 0 -40 -25q0 -24 35 -24zM306 392h-77q-10 0 -10 10v13h-1q-26 -28 -82 -28q-43 0 -72.5 22t-29.5 65q0 96 129 96h49q6 0 6 6v6q0 28 -58 28q-36 0 -66 -16q-9 -5 -14 3l-30 51q-4 9 4 14q44 26 118 26q78 0 111 -25t33 -80v-181
q0 -10 -10 -10z" />
    <glyph glyph-name="guillemotleft" unicode="&#xab;" horiz-adv-x="563" 
d="M248 38l-220 219q-7 7 0 14l220 219q3 3 6.5 2t3.5 -6v-117q0 -10 -10 -20l-82 -81q-4 -4 0 -8l82 -81q10 -10 10 -20v-117q0 -5 -3.5 -6t-6.5 2zM492 38l-220 219q-7 7 0 14l220 219q3 3 6.5 2t3.5 -6v-117q0 -10 -10 -20l-82 -81q-4 -4 0 -8l82 -81q10 -10 10 -20v-117
q0 -5 -3.5 -6t-6.5 2z" />
    <glyph glyph-name="logicalnot" unicode="&#xac;" 
d="M495 84h-102q-10 0 -10 10v117q0 6 -6 6h-316q-10 0 -10 10v98q0 10 10 10h434q10 0 10 -10v-231q0 -10 -10 -10z" />
    <glyph glyph-name="uni00AD" unicode="&#xad;" horiz-adv-x="392" 
d="M340 204h-288q-10 0 -10 10v102q0 10 10 10h288q10 0 10 -10v-102q0 -10 -10 -10z" />
    <glyph glyph-name="registered" unicode="&#xae;" horiz-adv-x="440" 
d="M198 510h32q28 0 28 22t-28 22h-32q-4 0 -4 -4v-36q0 -4 4 -4zM187 388h-42q-7 0 -7 7v198q0 7 7 7h88q38 0 59 -18t21 -50q0 -44 -39 -60l40 -77q3 -7 -5 -7h-45q-7 0 -10 7l-34 70h-22q-4 0 -4 -5v-65q0 -7 -7 -7zM220 341q65 0 107 42.5t42 109.5q0 66 -42 108.5
t-107 42.5t-107 -42.5t-42 -108.5q0 -67 42 -109.5t107 -42.5zM220 301q-82 0 -137 55t-55 137q0 81 55 136t137 55t137 -55t55 -136q0 -82 -55 -137t-137 -55z" />
    <glyph glyph-name="macron" unicode="&#xaf;" horiz-adv-x="454" 
d="M368 575h-283q-10 0 -10 10v75q0 10 10 10h283q10 0 10 -10v-75q0 -10 -10 -10z" />
    <glyph glyph-name="degree" unicode="&#xb0;" horiz-adv-x="438" 
d="M219 467q31 0 50 20.5t19 52.5t-19 52t-50 20t-50 -20t-19 -52t19 -52.5t50 -20.5zM219 387q-66 0 -109.5 43.5t-43.5 109.5q0 65 43.5 108.5t109.5 43.5t109.5 -43.5t43.5 -108.5q0 -66 -43.5 -109.5t-109.5 -43.5z" />
    <glyph glyph-name="plusminus" unicode="&#xb1;" 
d="M495 0h-434q-10 0 -10 10v98q0 10 10 10h434q10 0 10 -10v-98q0 -10 -10 -10zM329 170h-102q-10 0 -10 10v151q0 6 -6 6h-150q-10 0 -10 10v98q0 10 10 10h150q6 0 6 6v151q0 10 10 10h102q10 0 10 -10v-151q0 -6 6 -6h150q10 0 10 -10v-98q0 -10 -10 -10h-150
q-6 0 -6 -6v-151q0 -10 -10 -10z" />
    <glyph glyph-name="twosuperior" unicode="&#xb2;" horiz-adv-x="358" 
d="M309 430h-261q-10 0 -10 10v66q0 9 8 17l144 147q25 25 25 50q0 37 -37 37q-35 0 -41 -38q-2 -11 -11 -9l-79 13q-8 2 -8 11q3 43 41 76.5t102 33.5q61 0 99 -33.5t38 -89.5q0 -52 -49 -103l-96 -98v-1h135q10 0 10 -10v-69q0 -10 -10 -10z" />
    <glyph glyph-name="threesuperior" unicode="&#xb3;" horiz-adv-x="358" 
d="M181 422q-59 0 -98.5 25t-48.5 72q-2 11 7 12l77 15q9 2 13 -7q14 -30 46 -30q20 0 32 11.5t12 30.5q0 43 -50 43h-17q-10 0 -10 10v66q0 10 10 10h14q44 0 44 38q0 39 -39 39q-28 0 -40 -25q-5 -9 -13 -7l-75 14q-9 2 -7 11q9 42 45 68t94 26q65 0 102 -32t37 -84
q0 -51 -42 -82v-1q21 -9 36 -34t15 -60q0 -60 -39 -94.5t-105 -34.5z" />
    <glyph glyph-name="acute" unicode="&#xb4;" horiz-adv-x="454" 
d="M217 551h-91q-10 0 -6 10l77 130q6 10 18 10h115q5 0 6.5 -3t-1.5 -7l-99 -130q-7 -10 -19 -10z" />
    <glyph glyph-name="micron" unicode="&#xb5;" horiz-adv-x="554" 
d="M481 0h-120q-10 0 -10 10v37h-1q-29 -48 -92 -54q-31 -3 -54 15h-1v-178q0 -10 -10 -10h-120q-10 0 -10 10v644q0 10 10 10h120q10 0 10 -10v-278q0 -88 74 -88t74 88v278q0 10 10 10h120q10 0 10 -10v-464q0 -10 -10 -10z" />
    <glyph glyph-name="paragraph" unicode="&#xb6;" horiz-adv-x="657" 
d="M569 -180h-96q-10 0 -10 10v740q0 6 -6 6h-69q-6 0 -6 -6v-740q0 -10 -10 -10h-96q-10 0 -10 10v408q-91 6 -148 67.5t-57 153.5q0 96 63.5 158.5t171.5 62.5h273q10 0 10 -10v-840q0 -10 -10 -10z" />
    <glyph glyph-name="periodcentered" unicode="&#xb7;" horiz-adv-x="259" 
d="M189 195h-119q-10 0 -10 10v119q0 10 10 10h119q10 0 10 -10v-119q0 -10 -10 -10z" />
    <glyph glyph-name="cedilla" unicode="&#xb8;" horiz-adv-x="454" 
d="M249 -160h-97q-10 0 -7 10l61 150q4 10 14 10h84q10 0 7 -10l-46 -150q-3 -10 -16 -10z" />
    <glyph glyph-name="onesuperior" unicode="&#xb9;" horiz-adv-x="358" 
d="M247 430h-86q-10 0 -10 10v282h-2l-64 -40q-4 -2 -7 0t-3 7v84q0 11 9 15l62 41q10 7 17 7h84q10 0 10 -10v-386q0 -10 -10 -10z" />
    <glyph glyph-name="ordmasculine" unicode="&#xba;" horiz-adv-x="372" 
d="M186 468q33 0 42 28q5 14 5 40t-5 40q-9 28 -42 28t-42 -28q-5 -14 -5 -40t5 -40q9 -28 42 -28zM186 384q-109 0 -142 88q-9 26 -9 64t9 64q33 88 142 88t142 -88q9 -26 9 -64t-9 -64q-33 -88 -142 -88z" />
    <glyph glyph-name="guillemotright" unicode="&#xbb;" horiz-adv-x="563" 
d="M292 257l-221 -219q-3 -3 -6.5 -2t-3.5 6v117q0 10 10 20l82 81q4 4 0 8l-82 81q-10 10 -10 20v117q0 5 3.5 6t6.5 -2l221 -219q7 -7 0 -14zM535 257l-220 -219q-3 -3 -6.5 -2t-3.5 6v117q0 10 10 20l82 81q4 4 0 8l-82 81q-10 10 -10 20v117q0 5 3.5 6t6.5 -2l220 -219
q7 -7 0 -14z" />
    <glyph glyph-name="onequarter" unicode="&#xbc;" horiz-adv-x="873" 
d="M263 -11h-84q-11 0 -5 10l395 682q6 10 16 10h84q11 0 5 -10l-395 -682q-6 -10 -16 -10zM745 0h-79q-10 0 -10 10v40q0 6 -6 6h-164q-10 0 -10 10v69q0 5 5 17l115 244q4 10 14 10h91q10 0 6 -10l-117 -251v-1h60q6 0 6 6v69q0 10 10 10h79q10 0 10 -10v-69q0 -6 6 -6h15
q10 0 10 -10v-68q0 -10 -10 -10h-15q-6 0 -6 -6v-40q0 -10 -10 -10zM259 274h-86q-10 0 -10 10v282h-2l-64 -40q-4 -2 -7 0t-3 7v84q0 11 9 15l62 41q10 7 17 7h84q10 0 10 -10v-386q0 -10 -10 -10z" />
    <glyph glyph-name="onehalf" unicode="&#xbd;" horiz-adv-x="907" 
d="M263 -11h-84q-11 0 -5 10l395 682q6 10 16 10h84q11 0 5 -10l-395 -682q-6 -10 -16 -10zM809 0h-261q-10 0 -10 10v66q0 9 8 17l144 147q25 25 25 50q0 37 -37 37q-35 0 -41 -38q-2 -11 -11 -9l-79 13q-8 2 -8 11q3 43 41 76.5t102 33.5q61 0 99 -33.5t38 -89.5
q0 -52 -49 -103l-96 -98v-1h135q10 0 10 -10v-69q0 -10 -10 -10zM259 274h-86q-10 0 -10 10v282h-2l-64 -40q-4 -2 -7 0t-3 7v84q0 11 9 15l62 41q10 7 17 7h84q10 0 10 -10v-386q0 -10 -10 -10z" />
    <glyph glyph-name="threequarters" unicode="&#xbe;" horiz-adv-x="941" 
d="M235 266q-59 0 -98.5 25t-48.5 72q-2 11 7 12l77 15q9 2 13 -7q14 -30 46 -30q20 0 32 11.5t12 30.5q0 43 -50 43h-17q-10 0 -10 10v66q0 10 10 10h14q44 0 44 38q0 39 -39 39q-28 0 -40 -25q-5 -9 -13 -7l-75 14q-9 2 -7 11q9 42 45 68t94 26q65 0 102 -32t37 -84
q0 -51 -42 -82v-1q21 -9 36 -34t15 -60q0 -60 -39 -94.5t-105 -34.5zM332 -11h-84q-11 0 -5 10l395 682q6 10 16 10h84q11 0 5 -10l-395 -682q-6 -10 -16 -10zM812 0h-79q-10 0 -10 10v40q0 6 -6 6h-164q-10 0 -10 10v69q0 5 5 17l115 244q4 10 14 10h91q10 0 6 -10
l-117 -251v-1h60q6 0 6 6v69q0 10 10 10h79q10 0 10 -10v-69q0 -6 6 -6h15q10 0 10 -10v-68q0 -10 -10 -10h-15q-6 0 -6 -6v-40q0 -10 -10 -10z" />
    <glyph glyph-name="questiondown" unicode="&#xbf;" horiz-adv-x="473" 
d="M317 474v-114q0 -10 -10 -10h-120q-10 0 -10 10v114q0 10 10 10h120q10 0 10 -10zM189 285h116q10 0 10 -10v-42q0 -48 -29 -84l-70 -91q-38 -49 -38 -80q0 -30 18 -48t48 -18q61 0 75 70q3 10 13 9l108 -16q10 -1 8 -12q-11 -79 -66 -124.5t-142 -45.5q-89 0 -145 51.5
t-56 128.5q0 61 53 130l67 88q20 27 20 60v24q0 10 10 10z" />
    <glyph glyph-name="Agrave" unicode="&#xc0;" horiz-adv-x="644" 
d="M370 754h-93q-10 0 -19 9l-123 116q-4 4 -2 7t7 3h120q12 0 19 -10l95 -115q8 -10 -4 -10zM244 254h157l-77 238h-3zM14 10l234 660q3 10 13 10h126q10 0 13 -10l230 -660q3 -10 -7 -10h-130q-10 0 -13 10l-39 119h-238l-38 -119q-3 -10 -13 -10h-131q-10 0 -7 10z" />
    <glyph glyph-name="Aacute" unicode="&#xc1;" horiz-adv-x="644" 
d="M369 754h-93q-12 0 -4 10l95 115q7 10 19 10h120q5 0 7 -3t-2 -7l-123 -116q-9 -9 -19 -9zM244 254h157l-77 238h-3zM14 10l234 660q3 10 13 10h126q10 0 13 -10l230 -660q3 -10 -7 -10h-130q-10 0 -13 10l-39 119h-238l-38 -119q-3 -10 -13 -10h-131q-10 0 -7 10z" />
    <glyph glyph-name="Acircumflex" unicode="&#xc2;" horiz-adv-x="644" 
d="M477 747h-80q-12 0 -22 10l-53 54h-2l-52 -54q-10 -10 -22 -10h-80q-12 0 -4 10l103 131q7 10 19 10h75q11 0 18 -10l104 -131q8 -10 -4 -10zM244 254h157l-77 238h-3zM14 10l234 660q3 10 13 10h126q10 0 13 -10l230 -660q3 -10 -7 -10h-130q-10 0 -13 10l-39 119h-238
l-38 -119q-3 -10 -13 -10h-131q-10 0 -7 10z" />
    <glyph glyph-name="Atilde" unicode="&#xc3;" horiz-adv-x="644" 
d="M385 748q-36 0 -75 21q-31 18 -58 18q-29 0 -71 -31q-9 -7 -9 2v72q0 10 8 21q35 35 77 35q33 0 75 -21q33 -18 58 -18q29 0 71 31q4 3 7 2t3 -4v-72q0 -12 -9 -21q-33 -35 -77 -35zM244 254h157l-77 238h-3zM14 10l234 660q3 10 13 10h126q10 0 13 -10l230 -660
q3 -10 -7 -10h-130q-10 0 -13 10l-39 119h-238l-38 -119q-3 -10 -13 -10h-131q-10 0 -7 10z" />
    <glyph glyph-name="Adieresis" unicode="&#xc4;" horiz-adv-x="644" 
d="M265 760h-90q-10 0 -10 10v98q0 10 10 10h90q10 0 10 -10v-98q0 -10 -10 -10zM468 760h-90q-10 0 -10 10v98q0 10 10 10h90q10 0 10 -10v-98q0 -10 -10 -10zM244 254h157l-77 238h-3zM14 10l234 660q3 10 13 10h126q10 0 13 -10l230 -660q3 -10 -7 -10h-130q-10 0 -13 10
l-39 119h-238l-38 -119q-3 -10 -13 -10h-131q-10 0 -7 10z" />
    <glyph glyph-name="Aring" unicode="&#xc5;" horiz-adv-x="644" 
d="M322 771q20 0 33 13.5t13 34.5q0 20 -13 34t-33 14t-33.5 -14t-13.5 -34q0 -21 13.5 -34.5t33.5 -13.5zM322 712q-46 0 -76.5 30.5t-30.5 76.5t30.5 76t76.5 30t76.5 -30t30.5 -76t-30.5 -76.5t-76.5 -30.5zM244 254h157l-77 238h-3zM14 10l234 660q3 10 13 10h126
q10 0 13 -10l230 -660q3 -10 -7 -10h-130q-10 0 -13 10l-39 119h-238l-38 -119q-3 -10 -13 -10h-131q-10 0 -7 10z" />
    <glyph glyph-name="AE" unicode="&#xc6;" horiz-adv-x="929" 
d="M426 553l-138 -299h135q6 0 6 6v293h-3zM875 0h-436q-10 0 -10 10v113q0 6 -6 6h-192l-55 -119q-4 -10 -14 -10h-141q-10 0 -6 10l317 660q4 10 14 10h529q10 0 10 -10v-107q0 -10 -10 -10h-293q-6 0 -6 -6v-135q0 -6 6 -6h244q10 0 10 -10v-106q0 -10 -10 -10h-244
q-6 0 -6 -6v-141q0 -6 6 -6h293q10 0 10 -10v-107q0 -10 -10 -10z" />
    <glyph glyph-name="Ccedilla" unicode="&#xc7;" horiz-adv-x="575" 
d="M298 -160h-97q-10 0 -7 10l58 144q-72 13 -116 51.5t-70 110.5q-19 54 -19 184q0 128 19 184q59 167 242 167q176 0 237 -151q5 -9 -5 -12l-109 -49q-9 -4 -14 5q-33 77 -108 77q-78 0 -102 -75q-11 -33 -11 -146t11 -146q24 -75 102 -75q75 0 108 77q5 9 14 5l109 -49
q10 -3 5 -12q-50 -125 -187 -147l-44 -143q-3 -10 -16 -10z" />
    <glyph glyph-name="Egrave" unicode="&#xc8;" horiz-adv-x="565" 
d="M65 10v660q0 10 10 10h436q10 0 10 -10v-107q0 -10 -10 -10h-293q-6 0 -6 -6v-135q0 -6 6 -6h244q10 0 10 -10v-106q0 -10 -10 -10h-244q-6 0 -6 -6v-141q0 -6 6 -6h293q10 0 10 -10v-107q0 -10 -10 -10h-436q-10 0 -10 10zM360 754h-93q-10 0 -19 9l-123 116q-4 4 -2 7
t7 3h120q12 0 19 -10l95 -115q8 -10 -4 -10z" />
    <glyph glyph-name="Eacute" unicode="&#xc9;" horiz-adv-x="565" 
d="M65 10v660q0 10 10 10h436q10 0 10 -10v-107q0 -10 -10 -10h-293q-6 0 -6 -6v-135q0 -6 6 -6h244q10 0 10 -10v-106q0 -10 -10 -10h-244q-6 0 -6 -6v-141q0 -6 6 -6h293q10 0 10 -10v-107q0 -10 -10 -10h-436q-10 0 -10 10zM307 754h-93q-12 0 -4 10l95 115q7 10 19 10
h120q5 0 7 -3t-2 -7l-123 -116q-9 -9 -19 -9z" />
    <glyph glyph-name="Ecircumflex" unicode="&#xca;" horiz-adv-x="565" 
d="M449 747h-80q-12 0 -22 10l-53 54h-2l-52 -54q-10 -10 -22 -10h-80q-12 0 -4 10l103 131q7 10 19 10h75q11 0 18 -10l104 -131q8 -10 -4 -10zM65 10v660q0 10 10 10h436q10 0 10 -10v-107q0 -10 -10 -10h-293q-6 0 -6 -6v-135q0 -6 6 -6h244q10 0 10 -10v-106
q0 -10 -10 -10h-244q-6 0 -6 -6v-141q0 -6 6 -6h293q10 0 10 -10v-107q0 -10 -10 -10h-436q-10 0 -10 10z" />
    <glyph glyph-name="Edieresis" unicode="&#xcb;" horiz-adv-x="565" 
d="M65 10v660q0 10 10 10h436q10 0 10 -10v-107q0 -10 -10 -10h-293q-6 0 -6 -6v-135q0 -6 6 -6h244q10 0 10 -10v-106q0 -10 -10 -10h-244q-6 0 -6 -6v-141q0 -6 6 -6h293q10 0 10 -10v-107q0 -10 -10 -10h-436q-10 0 -10 10zM236 760h-90q-10 0 -10 10v98q0 10 10 10h90
q10 0 10 -10v-98q0 -10 -10 -10zM439 760h-90q-10 0 -10 10v98q0 10 10 10h90q10 0 10 -10v-98q0 -10 -10 -10z" />
    <glyph glyph-name="Igrave" unicode="&#xcc;" horiz-adv-x="277" 
d="M191 754h-93q-10 0 -19 9l-123 116q-4 4 -2 7t7 3h120q12 0 19 -10l95 -115q8 -10 -4 -10zM65 10v660q0 10 10 10h127q10 0 10 -10v-660q0 -10 -10 -10h-127q-10 0 -10 10z" />
    <glyph glyph-name="Iacute" unicode="&#xcd;" horiz-adv-x="277" 
d="M183 754h-93q-12 0 -4 10l95 115q7 10 19 10h120q5 0 7 -3t-2 -7l-123 -116q-9 -9 -19 -9zM65 10v660q0 10 10 10h127q10 0 10 -10v-660q0 -10 -10 -10h-127q-10 0 -10 10z" />
    <glyph glyph-name="Icircumflex" unicode="&#xce;" horiz-adv-x="277" 
d="M294 747h-80q-12 0 -22 10l-53 54h-2l-52 -54q-10 -10 -22 -10h-80q-12 0 -4 10l103 131q7 10 19 10h75q11 0 18 -10l104 -131q8 -10 -4 -10zM65 10v660q0 10 10 10h127q10 0 10 -10v-660q0 -10 -10 -10h-127q-10 0 -10 10z" />
    <glyph glyph-name="Idieresis" unicode="&#xcf;" horiz-adv-x="277" 
d="M82 760h-90q-10 0 -10 10v98q0 10 10 10h90q10 0 10 -10v-98q0 -10 -10 -10zM285 760h-90q-10 0 -10 10v98q0 10 10 10h90q10 0 10 -10v-98q0 -10 -10 -10zM65 10v660q0 10 10 10h127q10 0 10 -10v-660q0 -10 -10 -10h-127q-10 0 -10 10z" />
    <glyph glyph-name="Eth" unicode="&#xd0;" horiz-adv-x="628" 
d="M218 131h77q53 0 83.5 17t42.5 58q11 26 11 134q0 105 -11 134q-15 41 -44.5 58t-81.5 17h-77q-6 0 -6 -6v-140q0 -6 6 -6h83q10 0 10 -10v-88q0 -10 -10 -10h-83q-6 0 -6 -6v-146q0 -6 6 -6zM328 0h-253q-10 0 -10 10v273q0 6 -6 6h-25q-10 0 -10 10v88q0 10 10 10h25
q6 0 6 6v267q0 10 10 10h253q188 0 235 -153q18 -62 18 -187t-18 -187q-47 -153 -235 -153z" />
    <glyph glyph-name="Ntilde" unicode="&#xd1;" horiz-adv-x="655" 
d="M65 10v660q0 10 10 10h120q11 0 17 -10l240 -428h5v428q0 10 10 10h113q10 0 10 -10v-660q0 -10 -10 -10h-119q-11 0 -17 10l-241 427h-5v-427q0 -10 -10 -10h-113q-10 0 -10 10zM391 748q-36 0 -75 21q-31 18 -58 18q-29 0 -71 -31q-9 -7 -9 2v72q0 10 8 21q35 35 77 35
q33 0 75 -21q33 -18 58 -18q29 0 71 31q4 3 7 2t3 -4v-72q0 -12 -9 -21q-33 -35 -77 -35z" />
    <glyph glyph-name="Ograve" unicode="&#xd2;" horiz-adv-x="628" 
d="M314 119q83 0 107 75q11 33 11 146t-11 146q-24 75 -107 75t-107 -75q-11 -33 -11 -146t11 -146q24 -75 107 -75zM314 -11q-194 0 -248 165q-19 56 -19 186q0 129 19 186q27 81 91.5 123t156.5 42t156.5 -42t91.5 -123q19 -57 19 -186q0 -130 -19 -186
q-54 -165 -248 -165zM376 754h-93q-10 0 -19 9l-123 116q-4 4 -2 7t7 3h120q12 0 19 -10l95 -115q8 -10 -4 -10z" />
    <glyph glyph-name="Oacute" unicode="&#xd3;" horiz-adv-x="628" 
d="M314 119q83 0 107 75q11 33 11 146t-11 146q-24 75 -107 75t-107 -75q-11 -33 -11 -146t11 -146q24 -75 107 -75zM314 -11q-194 0 -248 165q-19 56 -19 186q0 129 19 186q27 81 91.5 123t156.5 42t156.5 -42t91.5 -123q19 -57 19 -186q0 -130 -19 -186
q-54 -165 -248 -165zM344 754h-93q-12 0 -4 10l95 115q7 10 19 10h120q5 0 7 -3t-2 -7l-123 -116q-9 -9 -19 -9z" />
    <glyph glyph-name="Ocircumflex" unicode="&#xd4;" horiz-adv-x="628" 
d="M469 747h-80q-12 0 -22 10l-53 54h-2l-52 -54q-10 -10 -22 -10h-80q-12 0 -4 10l103 131q7 10 19 10h75q11 0 18 -10l104 -131q8 -10 -4 -10zM314 119q83 0 107 75q11 33 11 146t-11 146q-24 75 -107 75t-107 -75q-11 -33 -11 -146t11 -146q24 -75 107 -75zM314 -11
q-194 0 -248 165q-19 56 -19 186q0 129 19 186q27 81 91.5 123t156.5 42t156.5 -42t91.5 -123q19 -57 19 -186q0 -130 -19 -186q-54 -165 -248 -165z" />
    <glyph glyph-name="Otilde" unicode="&#xd5;" horiz-adv-x="628" 
d="M314 119q83 0 107 75q11 33 11 146t-11 146q-24 75 -107 75t-107 -75q-11 -33 -11 -146t11 -146q24 -75 107 -75zM314 -11q-194 0 -248 165q-19 56 -19 186q0 129 19 186q27 81 91.5 123t156.5 42t156.5 -42t91.5 -123q19 -57 19 -186q0 -130 -19 -186
q-54 -165 -248 -165zM377 748q-36 0 -75 21q-31 18 -58 18q-29 0 -71 -31q-9 -7 -9 2v72q0 10 8 21q35 35 77 35q33 0 75 -21q33 -18 58 -18q29 0 71 31q4 3 7 2t3 -4v-72q0 -12 -9 -21q-33 -35 -77 -35z" />
    <glyph glyph-name="Odieresis" unicode="&#xd6;" horiz-adv-x="628" 
d="M314 119q83 0 107 75q11 33 11 146t-11 146q-24 75 -107 75t-107 -75q-11 -33 -11 -146t11 -146q24 -75 107 -75zM314 -11q-194 0 -248 165q-19 56 -19 186q0 129 19 186q27 81 91.5 123t156.5 42t156.5 -42t91.5 -123q19 -57 19 -186q0 -130 -19 -186
q-54 -165 -248 -165zM257 760h-90q-10 0 -10 10v98q0 10 10 10h90q10 0 10 -10v-98q0 -10 -10 -10zM460 760h-90q-10 0 -10 10v98q0 10 10 10h90q10 0 10 -10v-98q0 -10 -10 -10z" />
    <glyph glyph-name="multiply" unicode="&#xd7;" 
d="M480 141l-67 -67q-7 -7 -14 0l-117 116q-4 4 -8 0l-118 -116q-7 -7 -14 0l-67 67q-7 7 0 14l117 117q4 4 0 8l-117 117q-7 7 0 14l68 68q7 7 14 0l117 -117q4 -4 9 0l116 117q7 7 14 0l67 -67q6 -8 0 -14l-116 -117q-4 -5 0 -9l116 -117q7 -7 0 -14z" />
    <glyph glyph-name="Oslash" unicode="&#xd8;" horiz-adv-x="628" 
d="M314 118q85 0 109 76q11 37 11 146q0 79 -5 117l-189 -316q29 -23 74 -23zM194 340q0 -81 5 -119l189 317q-30 24 -74 24q-83 0 -109 -76q-11 -36 -11 -146zM120 -30h-70q-11 0 -5 10l61 97q-26 35 -40 77q-12 35 -15.5 70.5t-3.5 115.5q0 129 19 186q27 81 91.5 123
t156.5 42q87 0 149 -38l30 48q5 9 15 9h70q11 0 5 -10l-61 -98q23 -29 40 -76q19 -57 19 -186q0 -130 -19 -186q-54 -165 -248 -165q-88 0 -149 37l-30 -47q-5 -9 -15 -9z" />
    <glyph glyph-name="Ugrave" unicode="&#xd9;" horiz-adv-x="645" 
d="M323 -11q-117 0 -189 68.5t-72 192.5v420q0 10 10 10h127q10 0 10 -10v-424q0 -60 31 -93.5t83 -33.5t82.5 33.5t30.5 93.5v424q0 10 10 10h127q10 0 10 -10v-420q0 -124 -72 -192.5t-188 -68.5zM383 754h-93q-10 0 -19 9l-123 116q-4 4 -2 7t7 3h120q12 0 19 -10
l95 -115q8 -10 -4 -10z" />
    <glyph glyph-name="Uacute" unicode="&#xda;" horiz-adv-x="645" 
d="M323 -11q-117 0 -189 68.5t-72 192.5v420q0 10 10 10h127q10 0 10 -10v-424q0 -60 31 -93.5t83 -33.5t82.5 33.5t30.5 93.5v424q0 10 10 10h127q10 0 10 -10v-420q0 -124 -72 -192.5t-188 -68.5zM357 754h-93q-12 0 -4 10l95 115q7 10 19 10h120q5 0 7 -3t-2 -7
l-123 -116q-9 -9 -19 -9z" />
    <glyph glyph-name="Ucircumflex" unicode="&#xdb;" horiz-adv-x="645" 
d="M477 747h-80q-12 0 -22 10l-53 54h-2l-52 -54q-10 -10 -22 -10h-80q-12 0 -4 10l103 131q7 10 19 10h75q11 0 18 -10l104 -131q8 -10 -4 -10zM323 -11q-117 0 -189 68.5t-72 192.5v420q0 10 10 10h127q10 0 10 -10v-424q0 -60 31 -93.5t83 -33.5t82.5 33.5t30.5 93.5v424
q0 10 10 10h127q10 0 10 -10v-420q0 -124 -72 -192.5t-188 -68.5z" />
    <glyph glyph-name="Udieresis" unicode="&#xdc;" horiz-adv-x="645" 
d="M323 -11q-117 0 -189 68.5t-72 192.5v420q0 10 10 10h127q10 0 10 -10v-424q0 -60 31 -93.5t83 -33.5t82.5 33.5t30.5 93.5v424q0 10 10 10h127q10 0 10 -10v-420q0 -124 -72 -192.5t-188 -68.5zM266 760h-90q-10 0 -10 10v98q0 10 10 10h90q10 0 10 -10v-98
q0 -10 -10 -10zM469 760h-90q-10 0 -10 10v98q0 10 10 10h90q10 0 10 -10v-98q0 -10 -10 -10z" />
    <glyph glyph-name="Yacute" unicode="&#xdd;" horiz-adv-x="568" 
d="M325 754h-93q-12 0 -4 10l95 115q7 10 19 10h120q5 0 7 -3t-2 -7l-123 -116q-9 -9 -19 -9zM347 0h-127q-10 0 -10 10v261l-201 399q-4 10 7 10h130q11 0 15 -10l123 -248h3l123 248q4 10 15 10h126q5 0 7 -3t0 -7l-201 -399v-261q0 -10 -10 -10z" />
    <glyph glyph-name="Thorn" unicode="&#xde;" horiz-adv-x="605" 
d="M218 262h112q47 0 73 24t26 67t-26 67.5t-73 24.5h-112q-6 0 -6 -6v-171q0 -6 6 -6zM202 0h-127q-10 0 -10 10v660q0 10 10 10h127q10 0 10 -10v-92q0 -6 6 -6h121q110 0 173.5 -60t63.5 -159q0 -98 -64 -158t-173 -60h-121q-6 0 -6 -6v-119q0 -10 -10 -10z" />
    <glyph glyph-name="germandbls" unicode="&#xdf;" horiz-adv-x="562" 
d="M321 -4h-35q-10 0 -10 10v95q0 10 10 10h25q49 0 64 39q4 12 4 76q0 65 -5 80q-14 44 -73 44h-14q-10 0 -10 10v94q0 10 10 10h24q59 0 59 55q0 57 -79 57q-47 0 -67.5 -21t-20.5 -67v-478q0 -10 -10 -10h-120q-10 0 -10 10v475q0 206 226 206q106 0 163 -43t57 -124
q0 -73 -56 -112v-2q40 -24 54 -67q12 -34 12 -118q0 -88 -13 -130q-17 -53 -61.5 -76t-123.5 -23z" />
    <glyph glyph-name="agrave" unicode="&#xe0;" horiz-adv-x="528" 
d="M342 551h-92q-12 0 -19 10l-99 130q-3 4 -1.5 7t6.5 3h116q12 0 18 -10l76 -130q4 -10 -5 -10zM245 94q90 0 90 67v33q0 6 -6 6h-68q-86 0 -86 -55q0 -51 70 -51zM458 0h-111q-10 0 -10 10v32h-1q-41 -53 -133 -53q-70 0 -115.5 37t-45.5 111q0 78 54 117t147 39h86
q6 0 6 6v18q0 35 -21.5 50.5t-77.5 15.5q-66 0 -108 -31q-8 -6 -13 2l-45 79q-5 9 3 14q68 48 180 48q116 0 165.5 -41.5t49.5 -133.5v-310q0 -10 -10 -10z" />
    <glyph glyph-name="aacute" unicode="&#xe1;" horiz-adv-x="528" 
d="M298 551h-91q-10 0 -6 10l77 130q6 10 18 10h115q5 0 6.5 -3t-1.5 -7l-99 -130q-7 -10 -19 -10zM245 94q90 0 90 67v33q0 6 -6 6h-68q-86 0 -86 -55q0 -51 70 -51zM458 0h-111q-10 0 -10 10v32h-1q-41 -53 -133 -53q-70 0 -115.5 37t-45.5 111q0 78 54 117t147 39h86
q6 0 6 6v18q0 35 -21.5 50.5t-77.5 15.5q-66 0 -108 -31q-8 -6 -13 2l-45 79q-5 9 3 14q68 48 180 48q116 0 165.5 -41.5t49.5 -133.5v-310q0 -10 -10 -10z" />
    <glyph glyph-name="acircumflex" unicode="&#xe2;" horiz-adv-x="528" 
d="M418 550h-80q-12 0 -22 10l-52 54h-2l-53 -54q-10 -10 -22 -10h-79q-5 0 -6.5 3t1.5 7l104 131q7 10 18 10h75q12 0 19 -10l103 -131q8 -10 -4 -10zM245 94q90 0 90 67v33q0 6 -6 6h-68q-86 0 -86 -55q0 -51 70 -51zM458 0h-111q-10 0 -10 10v32h-1q-41 -53 -133 -53
q-70 0 -115.5 37t-45.5 111q0 78 54 117t147 39h86q6 0 6 6v18q0 35 -21.5 50.5t-77.5 15.5q-66 0 -108 -31q-8 -6 -13 2l-45 79q-5 9 3 14q68 48 180 48q116 0 165.5 -41.5t49.5 -133.5v-310q0 -10 -10 -10z" />
    <glyph glyph-name="atilde" unicode="&#xe3;" horiz-adv-x="528" 
d="M327 552q-34 0 -75 22q-31 18 -58 18q-32 0 -71 -32q-9 -8 -9 3v72q0 9 8 20q36 36 77 36q31 0 75 -22q33 -18 58 -18q32 0 71 32q4 3 7 2t3 -5v-72q0 -11 -9 -20q-34 -36 -77 -36zM245 94q90 0 90 67v33q0 6 -6 6h-68q-86 0 -86 -55q0 -51 70 -51zM458 0h-111
q-10 0 -10 10v32h-1q-41 -53 -133 -53q-70 0 -115.5 37t-45.5 111q0 78 54 117t147 39h86q6 0 6 6v18q0 35 -21.5 50.5t-77.5 15.5q-66 0 -108 -31q-8 -6 -13 2l-45 79q-5 9 3 14q68 48 180 48q116 0 165.5 -41.5t49.5 -133.5v-310q0 -10 -10 -10z" />
    <glyph glyph-name="adieresis" unicode="&#xe4;" horiz-adv-x="528" 
d="M209 561h-92q-10 0 -10 10v99q0 10 10 10h92q10 0 10 -10v-99q0 -10 -10 -10zM410 561h-93q-10 0 -10 10v99q0 10 10 10h93q10 0 10 -10v-99q0 -10 -10 -10zM245 94q90 0 90 67v33q0 6 -6 6h-68q-86 0 -86 -55q0 -51 70 -51zM458 0h-111q-10 0 -10 10v32h-1
q-41 -53 -133 -53q-70 0 -115.5 37t-45.5 111q0 78 54 117t147 39h86q6 0 6 6v18q0 35 -21.5 50.5t-77.5 15.5q-66 0 -108 -31q-8 -6 -13 2l-45 79q-5 9 3 14q68 48 180 48q116 0 165.5 -41.5t49.5 -133.5v-310q0 -10 -10 -10z" />
    <glyph glyph-name="aring" unicode="&#xe5;" horiz-adv-x="528" 
d="M266 582q20 0 33 14t13 34q0 21 -13 35t-33 14t-33.5 -14t-13.5 -35q0 -20 13.5 -34t33.5 -14zM266 524q-46 0 -76.5 30t-30.5 76q0 47 30.5 77t76.5 30t76.5 -30t30.5 -77q0 -46 -30.5 -76t-76.5 -30zM245 94q90 0 90 67v33q0 6 -6 6h-68q-86 0 -86 -55q0 -51 70 -51z
M458 0h-111q-10 0 -10 10v32h-1q-41 -53 -133 -53q-70 0 -115.5 37t-45.5 111q0 78 54 117t147 39h86q6 0 6 6v18q0 35 -21.5 50.5t-77.5 15.5q-66 0 -108 -31q-8 -6 -13 2l-45 79q-5 9 3 14q68 48 180 48q116 0 165.5 -41.5t49.5 -133.5v-310q0 -10 -10 -10z" />
    <glyph glyph-name="ae" unicode="&#xe6;" horiz-adv-x="816" 
d="M245 94q90 0 90 67v33q0 6 -6 6h-68q-86 0 -86 -55q0 -51 70 -51zM473 293h160q6 0 6 6q0 18 -5 36q-18 53 -81 53t-81 -53q-5 -15 -5 -36q0 -6 6 -6zM560 -11q-108 0 -166 71h-1q-46 -71 -181 -71q-77 0 -123.5 37.5t-46.5 110.5q0 78 54 117t147 39h86q6 0 6 6v19
q0 35 -21.5 50t-77.5 15q-66 0 -108 -31q-8 -6 -13 2l-45 79q-5 9 3 14q68 48 180 48t162 -45h2q52 45 135 45q80 0 134 -35.5t75 -100.5q16 -48 16 -149q0 -10 -11 -10h-293q-6 0 -6 -6q0 -11 6 -27q21 -64 101 -64q64 0 110 43q8 6 14 0l66 -62q8 -8 1 -14
q-78 -81 -205 -81z" />
    <glyph glyph-name="ccedilla" unicode="&#xe7;" horiz-adv-x="481" 
d="M248 -160h-97q-10 0 -7 10l58 144q-57 14 -93 46t-55 86q-15 44 -15 116t15 116q49 137 209 137q61 0 108.5 -25t74.5 -66q5 -8 -2 -14l-87 -57q-9 -6 -15 2q-30 42 -77 42q-59 0 -75 -52q-9 -26 -9 -83t9 -83q16 -52 75 -52q47 0 77 42q6 8 15 2l87 -57q7 -6 2 -14
q-46 -70 -138 -87l-44 -143q-3 -10 -16 -10z" />
    <glyph glyph-name="egrave" unicode="&#xe8;" horiz-adv-x="527" 
d="M328 551h-92q-12 0 -19 10l-99 130q-3 4 -1.5 7t6.5 3h116q12 0 18 -10l76 -130q4 -10 -5 -10zM184 293h160q6 0 6 6q0 18 -5 36q-18 53 -81 53t-81 -53q-5 -18 -5 -36q0 -6 6 -6zM270 -11q-165 0 -214 138q-17 48 -17 115q0 71 16 116q23 66 76.5 101.5t131.5 35.5
q80 0 134 -35.5t75 -100.5q16 -48 16 -149q0 -10 -11 -10h-293q-6 0 -6 -6q2 -15 6 -27q19 -64 100 -64q66 0 111 43q9 8 14 0l66 -62q7 -8 1 -14q-78 -81 -206 -81z" />
    <glyph glyph-name="eacute" unicode="&#xe9;" horiz-adv-x="527" 
d="M184 293h160q6 0 6 6q0 18 -5 36q-18 53 -81 53t-81 -53q-5 -18 -5 -36q0 -6 6 -6zM270 -11q-165 0 -214 138q-17 48 -17 115q0 71 16 116q23 66 76.5 101.5t131.5 35.5q80 0 134 -35.5t75 -100.5q16 -48 16 -149q0 -10 -11 -10h-293q-6 0 -6 -6q2 -15 6 -27
q19 -64 100 -64q66 0 111 43q9 8 14 0l66 -62q7 -8 1 -14q-78 -81 -206 -81zM295 551h-91q-10 0 -6 10l77 130q6 10 18 10h115q5 0 6.5 -3t-1.5 -7l-99 -130q-7 -10 -19 -10z" />
    <glyph glyph-name="ecircumflex" unicode="&#xea;" horiz-adv-x="527" 
d="M184 293h160q6 0 6 6q0 18 -5 36q-18 53 -81 53t-81 -53q-5 -18 -5 -36q0 -6 6 -6zM270 -11q-165 0 -214 138q-17 48 -17 115q0 71 16 116q23 66 76.5 101.5t131.5 35.5q80 0 134 -35.5t75 -100.5q16 -48 16 -149q0 -10 -11 -10h-293q-6 0 -6 -6q2 -15 6 -27
q19 -64 100 -64q66 0 111 43q9 8 14 0l66 -62q7 -8 1 -14q-78 -81 -206 -81zM418 550h-80q-12 0 -22 10l-52 54h-2l-53 -54q-10 -10 -22 -10h-79q-5 0 -6.5 3t1.5 7l104 131q7 10 18 10h75q12 0 19 -10l103 -131q8 -10 -4 -10z" />
    <glyph glyph-name="edieresis" unicode="&#xeb;" horiz-adv-x="527" 
d="M184 293h160q6 0 6 6q0 18 -5 36q-18 53 -81 53t-81 -53q-5 -18 -5 -36q0 -6 6 -6zM270 -11q-165 0 -214 138q-17 48 -17 115q0 71 16 116q23 66 76.5 101.5t131.5 35.5q80 0 134 -35.5t75 -100.5q16 -48 16 -149q0 -10 -11 -10h-293q-6 0 -6 -6q2 -15 6 -27
q19 -64 100 -64q66 0 111 43q9 8 14 0l66 -62q7 -8 1 -14q-78 -81 -206 -81zM208 561h-92q-10 0 -10 10v99q0 10 10 10h92q10 0 10 -10v-99q0 -10 -10 -10zM409 561h-93q-10 0 -10 10v99q0 10 10 10h93q10 0 10 -10v-99q0 -10 -10 -10z" />
    <glyph glyph-name="igrave" unicode="&#xec;" horiz-adv-x="266" 
d="M183 551h-92q-12 0 -19 10l-99 130q-3 4 -1.5 7t6.5 3h116q12 0 18 -10l76 -130q4 -10 -5 -10zM193 0h-120q-10 0 -10 10v464q0 10 10 10h120q10 0 10 -10v-464q0 -10 -10 -10z" />
    <glyph glyph-name="iacute" unicode="&#xed;" horiz-adv-x="266" 
d="M193 0h-120q-10 0 -10 10v464q0 10 10 10h120q10 0 10 -10v-464q0 -10 -10 -10zM175 551h-91q-10 0 -6 10l77 130q6 10 18 10h115q5 0 6.5 -3t-1.5 -7l-99 -130q-7 -10 -19 -10z" />
    <glyph glyph-name="icircumflex" unicode="&#xee;" horiz-adv-x="266" 
d="M193 0h-120q-10 0 -10 10v464q0 10 10 10h120q10 0 10 -10v-464q0 -10 -10 -10zM288 550h-80q-12 0 -22 10l-52 54h-2l-53 -54q-10 -10 -22 -10h-79q-5 0 -6.5 3t1.5 7l104 131q7 10 18 10h75q12 0 19 -10l103 -131q8 -10 -4 -10z" />
    <glyph glyph-name="idieresis" unicode="&#xef;" horiz-adv-x="266" 
d="M193 0h-120q-10 0 -10 10v464q0 10 10 10h120q10 0 10 -10v-464q0 -10 -10 -10zM79 561h-92q-10 0 -10 10v99q0 10 10 10h92q10 0 10 -10v-99q0 -10 -10 -10zM280 561h-93q-10 0 -10 10v99q0 10 10 10h93q10 0 10 -10v-99q0 -10 -10 -10z" />
    <glyph glyph-name="eth" unicode="&#xf0;" horiz-adv-x="530" 
d="M266 104q60 0 79 55q10 30 10 67q0 40 -10 67q-18 56 -79 56q-60 0 -80 -56q-10 -27 -10 -67q0 -37 10 -67q20 -55 80 -55zM414 570l-59 -18l20 -28q61 -86 88.5 -152.5t27.5 -136.5q0 -65 -14 -107q-22 -66 -77.5 -102.5t-133.5 -36.5q-80 0 -135 35.5t-76 99.5
q-15 47 -15 98q0 57 14 102q19 60 63 93t107 33q42 0 64 -16h2l-59 81l-94 -28q-9 -2 -12 7l-20 65q-3 10 7 13l64 19l-57 79q-6 10 6 10h123q12 0 19 -10l31 -43l90 27q10 3 13 -6l20 -65q3 -10 -7 -13z" />
    <glyph glyph-name="ntilde" unicode="&#xf1;" horiz-adv-x="553" 
d="M339 552q-34 0 -75 22q-31 18 -58 18q-32 0 -71 -32q-9 -8 -9 3v72q0 9 8 20q36 36 77 36q31 0 75 -22q33 -18 58 -18q32 0 71 32q4 3 7 2t3 -5v-72q0 -11 -9 -20q-34 -36 -77 -36zM484 0h-120q-10 0 -10 10v278q0 41 -19 64.5t-56 23.5q-36 0 -56 -24t-20 -64v-278
q0 -10 -10 -10h-120q-10 0 -10 10v464q0 10 10 10h120q10 0 10 -10v-34h1q41 55 125 55q79 0 122 -49t43 -131v-305q0 -10 -10 -10z" />
    <glyph glyph-name="ograve" unicode="&#xf2;" horiz-adv-x="530" 
d="M324 551h-92q-12 0 -19 10l-99 130q-3 4 -1.5 7t6.5 3h116q12 0 18 -10l76 -130q4 -10 -5 -10zM265 107q59 0 75 52q9 30 9 83t-9 83q-16 52 -75 52t-75 -52q-9 -30 -9 -83t9 -83q16 -52 75 -52zM265 -11q-79 0 -134 35.5t-76 100.5q-16 51 -16 117t16 117
q21 65 76 100.5t134 35.5t134 -35.5t76 -100.5q16 -51 16 -117t-16 -117q-21 -65 -76 -100.5t-134 -35.5z" />
    <glyph glyph-name="oacute" unicode="&#xf3;" horiz-adv-x="530" 
d="M265 107q59 0 75 52q9 30 9 83t-9 83q-16 52 -75 52t-75 -52q-9 -30 -9 -83t9 -83q16 -52 75 -52zM265 -11q-79 0 -134 35.5t-76 100.5q-16 51 -16 117t16 117q21 65 76 100.5t134 35.5t134 -35.5t76 -100.5q16 -51 16 -117t-16 -117q-21 -65 -76 -100.5t-134 -35.5z
M300 551h-91q-10 0 -6 10l77 130q6 10 18 10h115q5 0 6.5 -3t-1.5 -7l-99 -130q-7 -10 -19 -10z" />
    <glyph glyph-name="ocircumflex" unicode="&#xf4;" horiz-adv-x="530" 
d="M265 107q59 0 75 52q9 30 9 83t-9 83q-16 52 -75 52t-75 -52q-9 -30 -9 -83t9 -83q16 -52 75 -52zM265 -11q-79 0 -134 35.5t-76 100.5q-16 51 -16 117t16 117q21 65 76 100.5t134 35.5t134 -35.5t76 -100.5q16 -51 16 -117t-16 -117q-21 -65 -76 -100.5t-134 -35.5z
M420 550h-80q-12 0 -22 10l-52 54h-2l-53 -54q-10 -10 -22 -10h-79q-5 0 -6.5 3t1.5 7l104 131q7 10 18 10h75q12 0 19 -10l103 -131q8 -10 -4 -10z" />
    <glyph glyph-name="otilde" unicode="&#xf5;" horiz-adv-x="530" 
d="M328 552q-34 0 -75 22q-31 18 -58 18q-32 0 -71 -32q-9 -8 -9 3v72q0 9 8 20q36 36 77 36q31 0 75 -22q33 -18 58 -18q32 0 71 32q4 3 7 2t3 -5v-72q0 -11 -9 -20q-34 -36 -77 -36zM265 107q59 0 75 52q9 30 9 83t-9 83q-16 52 -75 52t-75 -52q-9 -30 -9 -83t9 -83
q16 -52 75 -52zM265 -11q-79 0 -134 35.5t-76 100.5q-16 51 -16 117t16 117q21 65 76 100.5t134 35.5t134 -35.5t76 -100.5q16 -51 16 -117t-16 -117q-21 -65 -76 -100.5t-134 -35.5z" />
    <glyph glyph-name="odieresis" unicode="&#xf6;" horiz-adv-x="530" 
d="M265 107q59 0 75 52q9 30 9 83t-9 83q-16 52 -75 52t-75 -52q-9 -30 -9 -83t9 -83q16 -52 75 -52zM265 -11q-79 0 -134 35.5t-76 100.5q-16 51 -16 117t16 117q21 65 76 100.5t134 35.5t134 -35.5t76 -100.5q16 -51 16 -117t-16 -117q-21 -65 -76 -100.5t-134 -35.5z
M210 561h-92q-10 0 -10 10v99q0 10 10 10h92q10 0 10 -10v-99q0 -10 -10 -10zM411 561h-93q-10 0 -10 10v99q0 10 10 10h93q10 0 10 -10v-99q0 -10 -10 -10z" />
    <glyph glyph-name="divide" unicode="&#xf7;" 
d="M278 13q-32 0 -54 22t-22 54t22 54t54 22t54 -22t22 -54t-22 -54t-54 -22zM495 217h-434q-10 0 -10 10v98q0 10 10 10h434q10 0 10 -10v-98q0 -10 -10 -10zM278 387q-32 0 -54 22t-22 54t22 54t54 22t54 -22t22 -54t-22 -54t-54 -22z" />
    <glyph glyph-name="oslash" unicode="&#xf8;" horiz-adv-x="530" 
d="M265 106q61 0 77 52q9 30 9 84q0 45 -4 65l-130 -188q19 -13 48 -13zM179 242q0 -47 4 -67l131 189q-23 14 -49 14q-61 0 -77 -52q-9 -30 -9 -84zM265 -11q-70 0 -123 29l-28 -38q-7 -10 -19 -10h-51q-12 0 -4 10l54 75q-27 31 -39 70q-16 51 -16 117t16 117
q21 65 76 100.5t134 35.5q72 0 123 -30l29 39q7 10 19 10h50q11 0 5 -10l-56 -76q27 -30 40 -69q16 -51 16 -117t-16 -117q-21 -65 -76 -100.5t-134 -35.5z" />
    <glyph glyph-name="ugrave" unicode="&#xf9;" horiz-adv-x="549" 
d="M332 551h-92q-12 0 -19 10l-99 130q-3 4 -1.5 7t6.5 3h116q12 0 18 -10l76 -130q4 -10 -5 -10zM476 0h-120q-10 0 -10 10v35h-1q-42 -56 -124 -56q-78 0 -120.5 49.5t-42.5 130.5v305q0 10 10 10h120q10 0 10 -10v-278q0 -40 19 -64t55 -24q35 0 54.5 23.5t19.5 64.5v278
q0 10 10 10h120q10 0 10 -10v-464q0 -10 -10 -10z" />
    <glyph glyph-name="uacute" unicode="&#xfa;" horiz-adv-x="549" 
d="M476 0h-120q-10 0 -10 10v35h-1q-42 -56 -124 -56q-78 0 -120.5 49.5t-42.5 130.5v305q0 10 10 10h120q10 0 10 -10v-278q0 -40 19 -64t55 -24q35 0 54.5 23.5t19.5 64.5v278q0 10 10 10h120q10 0 10 -10v-464q0 -10 -10 -10zM309 551h-91q-10 0 -6 10l77 130q6 10 18 10
h115q5 0 6.5 -3t-1.5 -7l-99 -130q-7 -10 -19 -10z" />
    <glyph glyph-name="ucircumflex" unicode="&#xfb;" horiz-adv-x="549" 
d="M476 0h-120q-10 0 -10 10v35h-1q-42 -56 -124 -56q-78 0 -120.5 49.5t-42.5 130.5v305q0 10 10 10h120q10 0 10 -10v-278q0 -40 19 -64t55 -24q35 0 54.5 23.5t19.5 64.5v278q0 10 10 10h120q10 0 10 -10v-464q0 -10 -10 -10zM429 550h-80q-12 0 -22 10l-52 54h-2
l-53 -54q-10 -10 -22 -10h-79q-5 0 -6.5 3t1.5 7l104 131q7 10 18 10h75q12 0 19 -10l103 -131q8 -10 -4 -10z" />
    <glyph glyph-name="udieresis" unicode="&#xfc;" horiz-adv-x="549" 
d="M476 0h-120q-10 0 -10 10v35h-1q-42 -56 -124 -56q-78 0 -120.5 49.5t-42.5 130.5v305q0 10 10 10h120q10 0 10 -10v-278q0 -40 19 -64t55 -24q35 0 54.5 23.5t19.5 64.5v278q0 10 10 10h120q10 0 10 -10v-464q0 -10 -10 -10zM220 561h-92q-10 0 -10 10v99q0 10 10 10h92
q10 0 10 -10v-99q0 -10 -10 -10zM421 561h-93q-10 0 -10 10v99q0 10 10 10h93q10 0 10 -10v-99q0 -10 -10 -10z" />
    <glyph glyph-name="yacute" unicode="&#xfd;" horiz-adv-x="507" 
d="M294 551h-91q-10 0 -6 10l77 130q6 10 18 10h115q5 0 6.5 -3t-1.5 -7l-99 -130q-7 -10 -19 -10zM127 -180h-34q-10 0 -10 10v98q0 10 10 10h21q26 0 41 11.5t25 38.5l13 36l-180 450q-3 10 8 10h128q9 0 12 -10l97 -280h2l90 280q3 10 12 10h124q12 0 8 -10l-196 -515
q-30 -80 -67.5 -109.5t-103.5 -29.5z" />
    <glyph glyph-name="thorn" unicode="&#xfe;" horiz-adv-x="551" 
d="M286 107q57 0 75 52q9 24 9 83t-9 83q-18 52 -75 52q-56 0 -74 -52q-9 -24 -9 -83t9 -83q18 -52 74 -52zM193 -180h-120q-10 0 -10 10v840q0 10 10 10h120q10 0 10 -10v-231h1q39 56 127 56q126 0 164 -116q17 -55 17 -137t-17 -137q-38 -116 -164 -116q-88 0 -127 56h-1
v-215q0 -10 -10 -10z" />
    <glyph glyph-name="ydieresis" unicode="&#xff;" horiz-adv-x="507" 
d="M201 561h-92q-10 0 -10 10v99q0 10 10 10h92q10 0 10 -10v-99q0 -10 -10 -10zM402 561h-93q-10 0 -10 10v99q0 10 10 10h93q10 0 10 -10v-99q0 -10 -10 -10zM127 -180h-34q-10 0 -10 10v98q0 10 10 10h21q26 0 41 11.5t25 38.5l13 36l-180 450q-3 10 8 10h128q9 0 12 -10
l97 -280h2l90 280q3 10 12 10h124q12 0 8 -10l-196 -515q-30 -80 -67.5 -109.5t-103.5 -29.5z" />
    <glyph glyph-name="dotlessi" unicode="&#x131;" horiz-adv-x="266" 
d="M193 0h-120q-10 0 -10 10v464q0 10 10 10h120q10 0 10 -10v-464q0 -10 -10 -10z" />
    <glyph glyph-name="Lslash" unicode="&#x141;" horiz-adv-x="550" 
d="M518 0h-443q-10 0 -10 10v242l-46 -23q-10 -4 -10 6v94q0 10 10 14l46 23v304q0 10 10 10h127q10 0 10 -10v-236l127 65q10 4 10 -6v-94q0 -10 -10 -14l-127 -65v-183q0 -6 6 -6h300q10 0 10 -10v-111q0 -10 -10 -10z" />
    <glyph glyph-name="lslash" unicode="&#x142;" horiz-adv-x="305" 
d="M264 362l-63 -32v-171q0 -46 42 -46h21q10 0 10 -10v-99q0 -10 -10 -10h-53q-80 0 -115 36t-35 118v118l-32 -16q-10 -4 -10 6v89q0 11 10 15l32 16v294q0 10 10 10h120q10 0 10 -10v-230l63 32q10 4 10 -6v-89q0 -11 -10 -15z" />
    <glyph glyph-name="OE" unicode="&#x152;" horiz-adv-x="932" 
d="M314 119q83 0 107 75q11 33 11 146t-11 146q-24 75 -107 75t-107 -75q-11 -33 -11 -146t11 -146q24 -75 107 -75zM878 0h-436q-10 0 -10 10v22h-2q-48 -43 -128 -43q-182 0 -236 164q-12 35 -15.5 71.5t-3.5 115.5t3.5 115.5t15.5 71.5q54 164 236 164q80 0 128 -43h2v22
q0 10 10 10h436q10 0 10 -10v-107q0 -10 -10 -10h-293q-6 0 -6 -6v-135q0 -6 6 -6h244q10 0 10 -10v-106q0 -10 -10 -10h-244q-6 0 -6 -6v-141q0 -6 6 -6h293q10 0 10 -10v-107q0 -10 -10 -10z" />
    <glyph glyph-name="oe" unicode="&#x153;" horiz-adv-x="836" 
d="M265 107q58 0 75 53q9 27 9 82q0 53 -9 83q-16 52 -75 52t-75 -52q-9 -30 -9 -83q0 -55 9 -82q17 -53 75 -53zM493 293h159q6 0 6 6q0 18 -5 36q-18 53 -80 53q-63 0 -81 -53q-5 -18 -5 -36q0 -6 6 -6zM579 -11q-101 0 -157 59h-2q-59 -59 -155 -59q-79 0 -134 35.5
t-76 101.5q-16 51 -16 116q0 66 16 117q21 65 76 100.5t134 35.5q98 0 154 -56h2q50 56 151 56q80 0 134 -35.5t75 -100.5q15 -45 15 -149q0 -10 -10 -10h-293q-6 0 -6 -6q2 -18 5 -27q22 -64 101 -64q67 0 110 43q9 6 15 0l66 -62q8 -6 0 -14q-78 -81 -205 -81z" />
    <glyph glyph-name="Scaron" unicode="&#x160;" horiz-adv-x="595" 
d="M337 744h-75q-12 0 -19 10l-103 130q-8 10 4 10h80q12 0 22 -10l52 -54h2l53 54q10 10 22 10h80q12 0 4 -10l-104 -130q-7 -10 -18 -10zM294 -11q-77 0 -148.5 26.5t-113.5 66.5q-8 8 -1 17l76 87q6 8 15 1q88 -70 178 -70q53 0 82 22t29 59q0 32 -23.5 50t-81.5 26
l-36 5q-215 30 -215 204q0 94 65.5 151t175.5 57q139 0 231 -71q9 -6 2 -15l-61 -91q-6 -8 -14 -3q-77 52 -158 52q-44 0 -67.5 -20.5t-23.5 -53.5q0 -31 24 -49t82 -26l36 -5q108 -15 161 -64.5t53 -141.5q0 -96 -69.5 -155t-197.5 -59z" />
    <glyph glyph-name="scaron" unicode="&#x161;" horiz-adv-x="505" 
d="M253 -11q-132 0 -220 75q-7 7 0 14l65 73q6 6 14 0q69 -53 148 -53q75 0 75 46q0 18 -14.5 28t-54.5 14l-54 6q-158 18 -158 148q0 73 51.5 114t147.5 41q119 0 196 -60q7 -7 1 -15l-56 -69q-6 -7 -14 -2q-61 39 -131 39q-61 0 -61 -40q0 -18 13.5 -27t53.5 -13l53 -6
q161 -18 161 -147q-1 -77 -56.5 -121.5t-159.5 -44.5zM289 547h-75q-11 0 -18 10l-104 131q-3 4 -1.5 7t6.5 3h79q12 0 22 -10l53 -54h2l52 54q10 10 22 10h80q12 0 4 -10l-103 -131q-7 -10 -19 -10z" />
    <glyph glyph-name="Ydieresis" unicode="&#x178;" horiz-adv-x="568" 
d="M227 760h-90q-10 0 -10 10v98q0 10 10 10h90q10 0 10 -10v-98q0 -10 -10 -10zM430 760h-90q-10 0 -10 10v98q0 10 10 10h90q10 0 10 -10v-98q0 -10 -10 -10zM347 0h-127q-10 0 -10 10v261l-201 399q-4 10 7 10h130q11 0 15 -10l123 -248h3l123 248q4 10 15 10h126
q5 0 7 -3t0 -7l-201 -399v-261q0 -10 -10 -10z" />
    <glyph glyph-name="Zcaron" unicode="&#x17d;" horiz-adv-x="546" 
d="M496 0h-446q-10 0 -10 10v110q0 5 3 10l293 417v2h-275q-10 0 -10 10v111q0 10 10 10h435q10 0 10 -10v-110q0 -6 -3 -10l-294 -417v-2h287q10 0 10 -10v-111q0 -10 -10 -10zM311 744h-75q-12 0 -19 10l-103 130q-8 10 4 10h80q12 0 22 -10l52 -54h2l53 54q10 10 22 10
h80q12 0 4 -10l-104 -130q-7 -10 -18 -10z" />
    <glyph glyph-name="zcaron" unicode="&#x17e;" horiz-adv-x="490" 
d="M434 0h-378q-10 0 -10 10v90q0 6 3 10l230 257v2h-210q-10 0 -10 10v95q0 10 10 10h365q10 0 10 -10v-95q0 -5 -3 -10l-228 -252v-2h221q10 0 10 -10v-95q0 -10 -10 -10zM286 547h-75q-11 0 -18 10l-104 131q-3 4 -1.5 7t6.5 3h79q12 0 22 -10l53 -54h2l52 54
q10 10 22 10h80q12 0 4 -10l-103 -131q-7 -10 -19 -10z" />
    <glyph glyph-name="florin" unicode="&#x192;" 
d="M449 313h-94l-49 -322q-14 -94 -57 -132.5t-131 -38.5h-32q-10 0 -10 10v97q0 10 10 10h19q32 0 46.5 11.5t19.5 45.5l48 319h-61q-10 0 -10 10v84q0 10 10 10h77l15 95q14 90 57.5 129t128.5 39h34q10 0 10 -10v-97q0 -10 -10 -10h-21q-56 0 -64 -55l-14 -91h78
q10 0 10 -10v-84q0 -10 -10 -10z" />
    <glyph glyph-name="circumflex" unicode="&#x2c6;" horiz-adv-x="454" 
d="M382 550h-80q-12 0 -22 10l-52 54h-2l-53 -54q-10 -10 -22 -10h-79q-5 0 -6.5 3t1.5 7l104 131q7 10 18 10h75q12 0 19 -10l103 -131q8 -10 -4 -10z" />
    <glyph glyph-name="caron" unicode="&#x2c7;" horiz-adv-x="454" 
d="M264 547h-75q-11 0 -18 10l-104 131q-3 4 -1.5 7t6.5 3h79q12 0 22 -10l53 -54h2l52 54q10 10 22 10h80q12 0 4 -10l-103 -131q-7 -10 -19 -10z" />
    <glyph glyph-name="breve" unicode="&#x2d8;" horiz-adv-x="454" 
d="M227 546q-67 0 -109 36.5t-44 94.5q0 10 10 10h58q10 0 13 -10q16 -43 72 -43t71 43q4 10 14 10h57q11 0 11 -10q-4 -57 -45.5 -94t-107.5 -37z" />
    <glyph glyph-name="dotaccent" unicode="&#x2d9;" horiz-adv-x="454" 
d="M284 561h-115q-10 0 -10 10v99q0 10 10 10h115q10 0 10 -10v-99q0 -10 -10 -10z" />
    <glyph glyph-name="ring" unicode="&#x2da;" horiz-adv-x="454" 
d="M227 582q20 0 33 14t13 34q0 21 -13 35t-33 14t-33.5 -14t-13.5 -35q0 -20 13.5 -34t33.5 -14zM227 524q-46 0 -76.5 30t-30.5 76q0 47 30.5 77t76.5 30t76.5 -30t30.5 -77q0 -46 -30.5 -76t-76.5 -30z" />
    <glyph glyph-name="ogonek" unicode="&#x2db;" horiz-adv-x="454" 
d="M218 -191q-48 0 -75.5 24.5t-27.5 67.5q0 57 60 99q13 10 25 10h104q5 0 5.5 -4t-4.5 -6q-84 -43 -84 -75q0 -21 21 -21q7 0 25 8q8 5 13 -4l31 -59q4 -6 -4 -14q-37 -26 -89 -26z" />
    <glyph glyph-name="tilde" unicode="&#x2dc;" horiz-adv-x="454" 
d="M289 552q-34 0 -75 22q-31 18 -58 18q-32 0 -71 -32q-9 -8 -9 3v72q0 9 8 20q36 36 77 36q31 0 75 -22q33 -18 58 -18q32 0 71 32q4 3 7 2t3 -5v-72q0 -11 -9 -20q-34 -36 -77 -36z" />
    <glyph glyph-name="hungarumlaut" unicode="&#x2dd;" horiz-adv-x="454" 
d="M140 549h-81q-10 0 -6 10l67 131q4 10 16 10h97q11 0 5 -10l-80 -131q-6 -10 -18 -10zM312 549h-82q-10 0 -6 10l67 131q4 10 16 10h97q11 0 5 -10l-80 -131q-6 -10 -17 -10z" />
    <glyph glyph-name="pi" unicode="&#x3c0;" horiz-adv-x="598" 
d="M539 -6h-31q-78 0 -112 36t-34 117v210q0 6 -6 6h-118q-6 0 -6 -6v-347q0 -10 -10 -10h-119q-10 0 -10 10v347q0 6 -6 6h-44q-10 0 -10 10v101q0 10 10 10h507q10 0 10 -10v-101q0 -10 -10 -10h-43q-6 0 -6 -6v-203q0 -23 7.5 -32t25.5 -9h5q10 0 10 -10v-99
q0 -10 -10 -10z" />
    <glyph glyph-name="aComma" unicode="&#x60c;" horiz-adv-x="251" 
d="M191 237v-227q0 -10 -10 -10h-111q-10 0 -10 10v119q0 10 8 21l97 90q8 8 16 8q10 0 10 -11z" />
    <glyph glyph-name="aTahabove" unicode="&#x615;" horiz-adv-x="0" 
d="M15 609q-19 0 -54 -13v-43h67q14 0 17.5 5t3.5 20q0 31 -34 31zM-120 553h12q10 0 10 11v152q0 7 8 7h43q8 0 8 -7v-71q37 14 67 14q80 0 80 -81q0 -41 -13 -58t-41 -17h-174q-7 0 -7 7v36q0 7 7 7z" />
    <glyph glyph-name="aSemicolon" unicode="&#x61b;" horiz-adv-x="259" 
d="M60 10v120q0 10 10 10h119q10 0 10 -10v-120q0 -10 -10 -10h-119q-10 0 -10 10zM192 470v-227q0 -10 -10 -10h-111q-10 0 -10 10v119q0 10 8 21l97 90q8 8 16 8q10 0 10 -11z" />
    <glyph glyph-name="aQuestion" unicode="&#x61f;" horiz-adv-x="496" 
d="M314 123v-113q0 -10 -10 -10h-118q-10 0 -10 10v113q0 10 10 10h118q10 0 10 -10zM302 184h-113q-10 0 -10 10v11q0 35 -24 65l-52 64q-36 43 -51.5 74.5t-15.5 71.5q0 78 57 130.5t149 52.5q87 0 142.5 -47.5t65.5 -126.5q1 -9 -8 -11l-108 -16q-9 -1 -11 8
q-13 72 -78 72q-32 0 -51.5 -18.5t-19.5 -50.5q0 -20 10.5 -38.5t38.5 -53.5l57 -70q32 -39 32 -87v-30q0 -10 -10 -10z" />
    <glyph glyph-name="aHamza" unicode="&#x621;" horiz-adv-x="425" 
d="M29 99h55q-20 35 -20 79q0 68 45.5 116.5t131.5 48.5q47 0 86.5 -18.5t60.5 -47.5q6 -9 0 -15l-50 -53q-8 -8 -16 -1q-36 36 -75 36q-30 0 -48 -18.5t-18 -50.5q0 -47 37 -76h170q10 0 10 -11v-77q0 -11 -10 -11h-359q-10 0 -10 11v77q0 11 10 11z" />
    <glyph glyph-name="aAlifMadda" unicode="&#x622;" horiz-adv-x="261" 
d="M201 670v-660q0 -10 -10 -10h-121q-10 0 -10 10v660q0 10 10 10h121q10 0 10 -10zM-62 768q20 80 87 80q31 0 94.5 -27t90.5 -27q15 0 20.5 7.5t5.5 26.5q0 10 10 10h53q10 0 10 -10q0 -105 -85 -105q-42 0 -103 25t-78 25q-23 0 -33 -28q-3 -10 -13 -7l-52 17
q-10 3 -7 13z" />
    <glyph glyph-name="aAlifHamza" unicode="&#x623;" horiz-adv-x="261" 
d="M201 670v-660q0 -10 -10 -10h-121q-10 0 -10 10v660q0 10 10 10h121q10 0 10 -10zM16 789h37q-14 26 -14 53q0 41 28 70.5t81 29.5q62 0 92 -40q3 -5 -1 -9l-30 -31q-5 -6 -10 -1q-21 23 -47 23q-19 0 -31 -12t-12 -32q0 -33 30 -51h100q6 0 6 -7v-45q0 -7 -6 -7h-223
q-6 0 -6 7v45q0 7 6 7z" />
    <glyph glyph-name="aWawHamza" unicode="&#x624;" horiz-adv-x="539" 
d="M270 317q-41 0 -62 -27.5t-21 -76.5q0 -52 21.5 -72t63.5 -20h77v97q0 99 -79 99zM292 -205h-146q-10 0 -10 10v101q0 10 10 10h115q45 0 66.5 16t21.5 68h-42q-66 0 -108.5 7.5t-79 29t-53 63.5t-16.5 108q0 119 62.5 174.5t156.5 55.5q99 0 159 -52t60 -172v-233
q0 -95 -47 -140.5t-149 -45.5zM149 580h35q-14 23 -14 50q0 40 28.5 69t84.5 29q66 0 95 -41q4 -5 -1 -10l-32 -34q-4 -4 -9 2q-25 22 -50 22q-20 0 -31.5 -11t-11.5 -30q0 -31 29 -46h105q6 0 6 -7v-47q0 -7 -6 -7h-228q-6 0 -6 7v47q0 7 6 7z" />
    <glyph glyph-name="aAlifHamzabelow" unicode="&#x625;" horiz-adv-x="261" 
d="M201 670v-660q0 -10 -10 -10h-121q-10 0 -10 10v660q0 10 10 10h121q10 0 10 -10zM13 -223h37q-14 26 -14 53q0 41 28 70.5t81 29.5q62 0 92 -40q3 -5 -1 -9l-30 -31q-5 -6 -10 -1q-21 23 -47 23q-19 0 -31 -12t-12 -32q0 -33 30 -51h100q6 0 6 -7v-45q0 -7 -6 -7h-223
q-6 0 -6 7v45q0 7 6 7z" />
    <glyph glyph-name="aYehHamza" unicode="&#x626;" horiz-adv-x="809" 
d="M66 405h35q-14 23 -14 50q0 40 28.5 69t84.5 29q66 0 95 -41q5 -4 -1 -10l-32 -34q-4 -4 -9 2q-25 22 -50 22q-20 0 -31.5 -11t-11.5 -30q0 -31 29 -46h105q6 0 6 -7v-47q0 -7 -6 -7h-228q-6 0 -6 7v47q0 7 6 7zM33 26q0 103 54 196q5 6 15 3l108 -35q8 -5 4 -13
q-38 -74 -38 -142q0 -64 43 -90.5t105 -26.5h176q96 0 96 47q0 14 -16 29.5t-40.5 30t-53 35t-53 42.5t-40.5 55t-16 71q0 83 60.5 133.5t152.5 50.5q125 0 188 -76q4 -5 -3 -14l-66 -70q-6 -4 -14 1q-41 38 -93 38q-33 0 -55.5 -16.5t-22.5 -47.5q0 -25 23.5 -49.5
t56.5 -46.5t66 -46t56.5 -58t23.5 -74q0 -73 -53 -115.5t-157 -42.5h-234q-138 0 -205.5 60t-67.5 171z" />
    <glyph glyph-name="aAlif" unicode="&#x627;" horiz-adv-x="261" 
d="M201 670v-660q0 -10 -10 -10h-121q-10 0 -10 10v660q0 10 10 10h121q10 0 10 -10z" />
    <glyph glyph-name="aBeh" unicode="&#x628;" horiz-adv-x="856" 
d="M241 121h374q27 0 38 11.5t11 41.5v237q0 10 10 10h122q10 0 10 -10v-285q0 -67 -27 -96.5t-92 -29.5h-519q-63 0 -90 30t-27 96v221q0 10 10 10h122q10 0 10 -10v-173q0 -29 11.5 -41t36.5 -12zM490 -205h-124q-10 0 -10 10v98q0 10 10 10h124q10 0 10 -10v-98
q0 -10 -10 -10z" />
    <glyph glyph-name="aTehMarbuta" unicode="&#x629;" horiz-adv-x="532" 
d="M263 317q-82 0 -82 -101q0 -55 20.5 -78.5t61.5 -23.5q43 0 62.5 23t19.5 79q0 101 -82 101zM263 -7q-221 0 -221 218q0 122 61 174.5t160 52.5t160 -52.5t61 -174.5q0 -218 -221 -218zM391 522h-101q-10 0 -10 10v98q0 10 10 10h101q10 0 10 -10v-98q0 -10 -10 -10z
M236 522h-100q-10 0 -10 10v98q0 10 10 10h100q10 0 10 -10v-98q0 -10 -10 -10z" />
    <glyph glyph-name="aTeh" unicode="&#x62a;" horiz-adv-x="856" 
d="M241 121h374q27 0 38 11.5t11 41.5v237q0 10 10 10h122q10 0 10 -10v-285q0 -67 -27 -96.5t-92 -29.5h-519q-63 0 -90 30t-27 96v221q0 10 10 10h122q10 0 10 -10v-173q0 -29 11.5 -41t36.5 -12zM555 465h-101q-10 0 -10 10v98q0 10 10 10h101q10 0 10 -10v-98
q0 -10 -10 -10zM400 465h-100q-10 0 -10 10v98q0 10 10 10h100q10 0 10 -10v-98q0 -10 -10 -10z" />
    <glyph glyph-name="aTheh" unicode="&#x62b;" horiz-adv-x="856" 
d="M241 121h374q27 0 38 11.5t11 41.5v237q0 10 10 10h122q10 0 10 -10v-285q0 -67 -27 -96.5t-92 -29.5h-519q-63 0 -90 30t-27 96v221q0 10 10 10h122q10 0 10 -10v-173q0 -29 11.5 -41t36.5 -12zM481 608h-100q-10 0 -10 10v98q0 10 10 10h100q10 0 10 -10v-98
q0 -10 -10 -10zM558 465h-101q-10 0 -10 10v98q0 10 10 10h101q10 0 10 -10v-98q0 -10 -10 -10zM403 465h-100q-10 0 -10 10v98q0 10 10 10h100q10 0 10 -10v-98q0 -10 -10 -10z" />
    <glyph glyph-name="aJim" unicode="&#x62c;" horiz-adv-x="585" 
d="M449 -202h-109q-10 0 -10 10v98q0 10 10 10h109q10 0 10 -10v-98q0 -10 -10 -10zM368 0h-151q-49 0 -49 -42q0 -24 13 -33t51 -9h55q10 0 10 -10v-101q0 -10 -10 -10h-72q-96 0 -143 37.5t-47 127.5q0 161 167 161h120q48 0 63.5 15t15.5 60q0 121 -104 121
q-50 0 -101 -44q-8 -5 -14 -1l-60 71q-8 10 -2 15q80 80 187 80q124 0 182 -67.5t58 -181.5q0 -109 -41 -149t-128 -40z" />
    <glyph glyph-name="aHah" unicode="&#x62d;" horiz-adv-x="585" 
d="M368 0h-151q-49 0 -49 -42q0 -24 13 -33t51 -9h88q10 0 10 -10v-101q0 -10 -10 -10h-105q-96 0 -143 37.5t-47 127.5q0 161 167 161h120q48 0 63.5 15t15.5 60q0 121 -104 121q-50 0 -101 -44q-8 -5 -14 -1l-60 71q-8 10 -2 15q80 80 187 80q124 0 182 -67.5t58 -181.5
q0 -109 -41 -149t-128 -40z" />
    <glyph glyph-name="aKhah" unicode="&#x62e;" horiz-adv-x="585" 
d="M368 0h-151q-49 0 -49 -42q0 -24 13 -33t51 -9h88q10 0 10 -10v-101q0 -10 -10 -10h-105q-96 0 -143 37.5t-47 127.5q0 161 167 161h120q48 0 63.5 15t15.5 60q0 121 -104 121q-50 0 -101 -44q-8 -5 -14 -1l-60 71q-8 10 -2 15q80 80 187 80q124 0 182 -67.5t58 -181.5
q0 -109 -41 -149t-128 -40zM368 522h-124q-10 0 -10 10v98q0 10 10 10h124q10 0 10 -10v-98q0 -10 -10 -10z" />
    <glyph glyph-name="aDal" unicode="&#x62f;" horiz-adv-x="496" 
d="M446 258v-87q0 -95 -36 -133t-115 -38h-242q-10 0 -10 10v101q0 10 10 10h172q48 0 61.5 14t13.5 54v54q0 74 -90 74h-115q-10 0 -10 10v101q0 10 10 10h174q177 0 177 -180z" />
    <glyph glyph-name="aDhal" unicode="&#x630;" horiz-adv-x="496" 
d="M446 258v-87q0 -95 -36 -133t-115 -38h-242q-10 0 -10 10v101q0 10 10 10h172q48 0 61.5 14t13.5 54v54q0 74 -90 74h-115q-10 0 -10 10v101q0 10 10 10h174q177 0 177 -180zM281 522h-124q-10 0 -10 10v98q0 10 10 10h124q10 0 10 -10v-98q0 -10 -10 -10z" />
    <glyph glyph-name="aReh" unicode="&#x631;" horiz-adv-x="309" 
d="M58 -205h-46q-10 0 -10 10v101q0 10 10 10h22q41 0 58.5 20.5t17.5 64.5v410q0 10 10 10h122q10 0 10 -10v-415q0 -103 -47 -152t-147 -49z" />
    <glyph glyph-name="aZeh" unicode="&#x632;" horiz-adv-x="309" 
d="M58 -205h-46q-10 0 -10 10v101q0 10 10 10h22q41 0 58.5 20.5t17.5 64.5v410q0 10 10 10h122q10 0 10 -10v-415q0 -103 -47 -152t-147 -49zM243 522h-124q-10 0 -10 10v98q0 10 10 10h124q10 0 10 -10v-98q0 -10 -10 -10z" />
    <glyph glyph-name="aSin" unicode="&#x633;" horiz-adv-x="1120" 
d="M542 339v-164q0 -54 64 -54q37 0 46 14t9 57v147q0 10 10 10h122q10 0 10 -10v-163q0 -55 67 -55q35 0 43 14t8 58v218q0 10 10 10h122q10 0 10 -10v-285q0 -66 -27 -96t-90 -30h-55q-73 0 -101 53q-14 -30 -41.5 -41.5t-78.5 -11.5h-39q-61 0 -90 35v-13
q0 -119 -69.5 -177.5t-183.5 -58.5q-113 0 -184.5 59t-71.5 179q0 110 55 198q5 6 15 3l108 -35q8 -5 4 -13q-38 -74 -38 -142q0 -65 33.5 -95.5t81.5 -30.5q109 0 109 119v311q0 10 10 10h122q10 0 10 -10z" />
    <glyph glyph-name="aShin" unicode="&#x634;" horiz-adv-x="1120" 
d="M542 339v-164q0 -54 64 -54q37 0 46 14t9 57v147q0 10 10 10h122q10 0 10 -10v-163q0 -55 67 -55q35 0 43 14t8 58v218q0 10 10 10h122q10 0 10 -10v-285q0 -66 -27 -96t-90 -30h-55q-73 0 -101 53q-14 -30 -41.5 -41.5t-78.5 -11.5h-39q-61 0 -90 35v-13
q0 -119 -69.5 -177.5t-183.5 -58.5q-113 0 -184.5 59t-71.5 179q0 110 55 198q5 6 15 3l108 -35q8 -5 4 -13q-38 -74 -38 -142q0 -65 33.5 -95.5t81.5 -30.5q109 0 109 119v311q0 10 10 10h122q10 0 10 -10zM780 665h-100q-10 0 -10 10v98q0 10 10 10h100q10 0 10 -10v-98
q0 -10 -10 -10zM857 522h-101q-10 0 -10 10v98q0 10 10 10h101q10 0 10 -10v-98q0 -10 -10 -10zM702 522h-100q-10 0 -10 10v98q0 10 10 10h100q10 0 10 -10v-98q0 -10 -10 -10z" />
    <glyph glyph-name="aSad" unicode="&#x635;" horiz-adv-x="1050" 
d="M728 317q-85 0 -187 -45v-151h197q77 0 97.5 13.5t20.5 70.5q0 58 -28 85t-100 27zM87 222q5 6 15 3l108 -35q8 -5 4 -13q-38 -74 -38 -142q0 -65 33.5 -95.5t81.5 -30.5q109 0 109 119v392q0 10 10 10h121q10 0 10 -10v-31q107 49 213 49q249 0 249 -240
q0 -119 -45 -158.5t-166 -39.5h-172q-47 0 -80 4q-6 -111 -74.5 -164.5t-177.5 -53.5q-113 0 -184.5 59t-71.5 179q0 110 55 198z" />
    <glyph glyph-name="aDad" unicode="&#x636;" horiz-adv-x="1050" 
d="M728 317q-85 0 -187 -45v-151h197q77 0 97.5 13.5t20.5 70.5q0 58 -28 85t-100 27zM87 222q5 6 15 3l108 -35q8 -5 4 -13q-38 -74 -38 -142q0 -65 33.5 -95.5t81.5 -30.5q109 0 109 119v392q0 10 10 10h121q10 0 10 -10v-31q107 49 213 49q249 0 249 -240
q0 -119 -45 -158.5t-166 -39.5h-172q-47 0 -80 4q-6 -111 -74.5 -164.5t-177.5 -53.5q-113 0 -184.5 59t-71.5 179q0 110 55 198zM795 522h-124q-10 0 -10 10v98q0 10 10 10h124q10 0 10 -10v-98q0 -10 -10 -10z" />
    <glyph glyph-name="aTah" unicode="&#x637;" horiz-adv-x="758" 
d="M435 317q-84 0 -186 -45v-112q0 -15 -2 -39h198q78 0 98.5 13t20.5 71t-28 85t-101 27zM28 121h39q26 0 33.5 24t7.5 74v451q0 10 10 10h121q10 0 10 -10v-281q111 49 213 49q248 0 248 -240q0 -116 -44.5 -157t-159.5 -41h-240q-41 0 -56 21q-31 -21 -116 -21h-66
q-10 0 -10 10v101q0 10 10 10z" />
    <glyph glyph-name="aZah" unicode="&#x638;" horiz-adv-x="758" 
d="M435 317q-84 0 -186 -45v-112q0 -15 -2 -39h198q78 0 98.5 13t20.5 71t-28 85t-101 27zM28 121h39q26 0 33.5 24t7.5 74v451q0 10 10 10h121q10 0 10 -10v-281q111 49 213 49q248 0 248 -240q0 -116 -44.5 -157t-159.5 -41h-240q-41 0 -56 21q-31 -21 -116 -21h-66
q-10 0 -10 10v101q0 10 10 10zM529 522h-124q-10 0 -10 10v98q0 10 10 10h124q10 0 10 -10v-98q0 -10 -10 -10z" />
    <glyph glyph-name="aAyn" unicode="&#x639;" horiz-adv-x="555" 
d="M28 -46q0 120 99 154q-44 55 -44 127q0 86 56.5 144.5t164.5 58.5q132 0 195 -76q6 -7 -2 -15l-63 -75q-8 -8 -15 0q-43 45 -99 45q-41 0 -65.5 -24.5t-24.5 -69.5q0 -66 62 -102h213q10 0 10 -10v-101q0 -10 -10 -10h-292q-41 0 -41 -42q0 -24 12 -33t47 -9h103
q10 0 10 -10v-101q0 -10 -10 -10h-116q-190 0 -190 159z" />
    <glyph glyph-name="aGhayn" unicode="&#x63a;" horiz-adv-x="555" 
d="M28 -46q0 120 99 154q-44 55 -44 127q0 86 56.5 144.5t164.5 58.5q132 0 195 -76q6 -7 -2 -15l-63 -75q-8 -8 -15 0q-43 45 -99 45q-41 0 -65.5 -24.5t-24.5 -69.5q0 -66 62 -102h213q10 0 10 -10v-101q0 -10 -10 -10h-292q-41 0 -41 -42q0 -24 12 -33t47 -9h103
q10 0 10 -10v-101q0 -10 -10 -10h-116q-190 0 -190 159zM364 522h-124q-10 0 -10 10v98q0 10 10 10h124q10 0 10 -10v-98q0 -10 -10 -10z" />
    <glyph glyph-name="aKashida" unicode="&#x640;" horiz-adv-x="129" 
d="M129 0h-129q-21 0 -29 12t-8 44q0 36 8 50.5t29 14.5h129q40 0 40 -62q0 -35 -9 -47t-31 -12z" />
    <glyph glyph-name="aFeh" unicode="&#x641;" horiz-adv-x="979" 
d="M710 317q-82 0 -82 -98q0 -56 19.5 -79t62.5 -23t62.5 22t19.5 77q0 101 -82 101zM710 0h-545q-63 0 -90 30t-27 96v221q0 10 10 10h122q10 0 10 -10v-173q0 -29 11.5 -41t36.5 -12h267q-16 31 -16 90q0 121 62.5 174t158.5 53q99 0 160 -52.5t61 -174.5
q0 -211 -221 -211zM775 522h-124q-10 0 -10 10v98q0 10 10 10h124q10 0 10 -10v-98q0 -10 -10 -10z" />
    <glyph glyph-name="aQaf" unicode="&#x642;" horiz-adv-x="827" 
d="M551 317q-39 0 -60 -26.5t-21 -75.5q0 -52 21.5 -73t62.5 -21h77v96q0 100 -80 100zM770 214v-266q0 -153 -211 -153h-253q-138 0 -205.5 59.5t-67.5 167.5q0 102 64 201q5 9 15 3l102 -51q8 -5 3 -13q-41 -66 -41 -127q0 -64 43 -90.5t105 -26.5h208q58 0 79.5 12
t21.5 38v32h-97q-101 0 -152 50t-51 161q0 119 61.5 173t155.5 54q100 0 160 -52t60 -172zM678 522h-101q-10 0 -10 10v98q0 10 10 10h101q10 0 10 -10v-98q0 -10 -10 -10zM523 522h-100q-10 0 -10 10v98q0 10 10 10h100q10 0 10 -10v-98q0 -10 -10 -10z" />
    <glyph glyph-name="aKaf" unicode="&#x643;" horiz-adv-x="863" 
d="M661 204v466q0 10 10 10h122q10 0 10 -10v-544q0 -67 -27 -96.5t-92 -29.5h-519q-63 0 -90 30t-27 96v221q0 10 10 10h122q10 0 10 -10v-173q0 -25 10.5 -37t23.5 -14t42 -2h346q31 0 40 17t9 66zM486 508l-46 -55h17q35 0 50.5 -18.5t15.5 -57.5v-21q0 -38 -14.5 -53
t-45.5 -15h-125q-10 0 -10 10v35q0 10 10 10h99q14 0 17.5 4t3.5 17q0 23 -6 28.5t-27 5.5h-56q-14 0 -14 14v30q0 5 10 18l74 88q8 10 16 2q2 -2 6.5 -5t7.5 -5.5t7 -6t6.5 -6.5t4 -6t1.5 -6.5t-2 -6.5z" />
    <glyph glyph-name="aLam" unicode="&#x644;" horiz-adv-x="611" 
d="M97 222q5 6 15 3l108 -35q8 -5 4 -13q-38 -74 -38 -142q0 -65 33.5 -95.5t81.5 -30.5q109 0 109 119v642q0 10 10 10h121q10 0 10 -10v-648q0 -119 -69.5 -177.5t-183.5 -58.5q-113 0 -184.5 59t-71.5 179q0 110 55 198z" />
    <glyph glyph-name="aMim" unicode="&#x645;" horiz-adv-x="629" 
d="M361 317q-82 0 -82 -101q0 -56 19.5 -79t62.5 -23t62.5 23t19.5 79q0 101 -82 101zM361 -7q-97 0 -148 48q-6 -9 -19.5 -20t-21 -23t-7.5 -34v-169h-142v190q0 38 11.5 63.5t28 39t33.5 24t30 25t15 34.5q-1 12 -1 40q0 122 61 174.5t160 52.5t160 -52.5t61 -174.5
q0 -218 -221 -218z" />
    <glyph glyph-name="aNun" unicode="&#x646;" horiz-adv-x="609" 
d="M380 416h-124q-10 0 -10 10v98q0 10 10 10h124q10 0 10 -10v-98q0 -10 -10 -10zM97 222q5 6 15 3l108 -35q8 -5 4 -13q-38 -74 -38 -142q0 -65 33.5 -95.5t81.5 -30.5q109 0 109 119v300q0 10 10 10h121q10 0 10 -10v-306q0 -119 -69.5 -177.5t-183.5 -58.5
q-113 0 -184.5 59t-71.5 179q0 110 55 198z" />
    <glyph glyph-name="aHeh" unicode="&#x647;" horiz-adv-x="532" 
d="M263 317q-82 0 -82 -101q0 -55 20.5 -78.5t61.5 -23.5q43 0 62.5 23t19.5 79q0 101 -82 101zM263 -7q-221 0 -221 218q0 122 61 174.5t160 52.5t160 -52.5t61 -174.5q0 -218 -221 -218z" />
    <glyph glyph-name="aWaw" unicode="&#x648;" horiz-adv-x="539" 
d="M264 317q-41 0 -62 -27.5t-21 -76.5q0 -52 21.5 -72t63.5 -20h77v97q0 99 -79 99zM286 -205h-146q-10 0 -10 10v101q0 10 10 10h115q45 0 66.5 16t21.5 68h-42q-66 0 -108.5 7.5t-79 29t-53 63.5t-16.5 108q0 119 62.5 174.5t156.5 55.5q99 0 159 -52t60 -172v-233
q0 -95 -47 -140.5t-149 -45.5z" />
    <glyph glyph-name="aAlifMaksura" unicode="&#x649;" horiz-adv-x="809" 
d="M33 26q0 103 54 196q5 6 15 3l108 -35q8 -5 4 -13q-38 -74 -38 -142q0 -64 43 -90.5t105 -26.5h176q96 0 96 47q0 14 -16 29.5t-40.5 30t-53 35t-53 42.5t-40.5 55t-16 71q0 83 60.5 133.5t152.5 50.5q125 0 188 -76q4 -5 -3 -14l-66 -70q-6 -4 -14 1q-41 38 -93 38
q-33 0 -55.5 -16.5t-22.5 -47.5q0 -25 23.5 -49.5t56.5 -46.5t66 -46t56.5 -58t23.5 -74q0 -73 -53 -115.5t-157 -42.5h-234q-138 0 -205.5 60t-67.5 171z" />
    <glyph glyph-name="aYeh" unicode="&#x64a;" horiz-adv-x="809" 
d="M33 101q0 103 54 196q5 6 15 3l108 -35q8 -5 4 -13q-38 -74 -38 -142q0 -64 43 -90.5t105 -26.5h176q96 0 96 47q0 14 -16 29.5t-40.5 30t-53 35t-53 42.5t-40.5 55t-16 71q0 83 60.5 133.5t152.5 50.5q125 0 188 -76q4 -5 -3 -14l-66 -70q-6 -4 -14 1q-41 38 -93 38
q-33 0 -55.5 -16.5t-22.5 -47.5q0 -25 23.5 -49.5t56.5 -46.5t66 -46t56.5 -58t23.5 -74q0 -73 -53 -115.5t-157 -42.5h-234q-138 0 -205.5 60t-67.5 171zM529 -312h-101q-10 0 -10 10v98q0 10 10 10h101q10 0 10 -10v-98q0 -10 -10 -10zM374 -312h-100q-10 0 -10 10v98
q0 10 10 10h100q10 0 10 -10v-98q0 -10 -10 -10z" />
    <glyph glyph-name="aFathatan" unicode="&#x64b;" horiz-adv-x="0" 
d="M129 750h-254q-10 0 -10 10v20q0 10 10 10h254q10 0 10 -10v-20q0 -10 -10 -10zM129 819h-254q-10 0 -10 10v21q0 10 10 10h254q10 0 10 -10v-21q0 -10 -10 -10z" />
    <glyph glyph-name="aDammatan" unicode="&#x64c;" horiz-adv-x="0" 
d="M52 857l33 -1v16q0 25 -10.5 39.5t-26.5 14.5q-18 0 -27 -11t-9 -27t13.5 -23.5t26.5 -7.5zM-132 870h-13q-10 0 -10 10v18q0 10 10 10h9q35 0 56.5 -22t21.5 -68q0 -22 12.5 -28.5t43.5 -6.5q60 0 77 37h-29q-35 0 -55 18.5t-20 50.5t22 54.5t54 22.5q34 0 55.5 -23.5
t21.5 -69.5q0 -128 -126 -128q-47 0 -72 14.5t-25 58.5q0 52 -33 52z" />
    <glyph glyph-name="aKasratan" unicode="&#x64d;" horiz-adv-x="0" 
d="M131 -203h-254q-10 0 -10 10v20q0 10 10 10h254q10 0 10 -10v-20q0 -10 -10 -10zM131 -134h-254q-10 0 -10 10v21q0 10 10 10h254q10 0 10 -10v-21q0 -10 -10 -10z" />
    <glyph glyph-name="aFatha" unicode="&#x64e;" horiz-adv-x="0" 
d="M128 750h-254q-10 0 -10 10v20q0 10 10 10h254q10 0 10 -10v-20q0 -10 -10 -10z" />
    <glyph glyph-name="aDamma" unicode="&#x64f;" horiz-adv-x="0" 
d="M-78 782h29q65 0 77 37h-28q-35 0 -55 18.5t-20 50.5t22 54.5t54 22.5q34 0 55 -23t21 -70q0 -70 -33 -99t-93 -29h-29q-10 0 -10 10v18q0 10 10 10zM5 857l33 -1v16q0 25 -10.5 39.5t-26.5 14.5q-18 0 -27 -11t-9 -27t13.5 -23.5t26.5 -7.5z" />
    <glyph glyph-name="aKasra" unicode="&#x650;" horiz-adv-x="0" 
d="M131 -138h-254q-10 0 -10 10v20q0 10 10 10h254q10 0 10 -10v-20q0 -10 -10 -10z" />
    <glyph glyph-name="aShadda" unicode="&#x651;" horiz-adv-x="0" 
d="M-128 830v71q0 10 10 10h22q10 0 10 -10v-74q0 -40 33 -40t33 36v78q0 10 10 10h22q10 0 10 -10v-78q0 -36 33 -36t33 40v74q0 10 10 10h22q10 0 10 -10v-71q0 -37 -19 -60t-56 -23t-56 22q-19 -22 -53 -22q-37 0 -55.5 23t-18.5 60z" />
    <glyph glyph-name="aSukun" unicode="&#x652;" horiz-adv-x="0" 
d="M-44 831q0 -18 13 -31t31 -13t31 13t13 31t-13 31t-31 13t-31 -13t-13 -31zM-83 830q0 34 23.5 58.5t58.5 24.5q34 0 58.5 -24.5t24.5 -58.5q0 -35 -24.5 -58.5t-58.5 -23.5q-35 0 -58.5 23.5t-23.5 58.5z" />
    <glyph glyph-name="aMadda" unicode="&#x653;" horiz-adv-x="0" 
d="M-189 768q20 80 87 80q31 0 94.5 -27t90.5 -27q15 0 20.5 7.5t5.5 26.5q0 10 10 10h53q10 0 10 -10q0 -105 -85 -105q-42 0 -102.5 25t-78.5 25q-23 0 -33 -28q-3 -10 -13 -7l-52 17q-10 3 -7 13z" />
    <glyph glyph-name="aHamzaabove" unicode="&#x654;" horiz-adv-x="0" 
d="M-115 789h37q-14 26 -14 53q0 41 28 70.5t81 29.5q62 0 92 -40q3 -5 -1 -9l-30 -31q-5 -6 -10 -1q-21 23 -47 23q-19 0 -31 -12t-12 -32q0 -33 30 -51h100q6 0 6 -7v-45q0 -7 -6 -7h-223q-6 0 -6 7v45q0 7 6 7z" />
    <glyph glyph-name="aHamzabelow" unicode="&#x655;" horiz-adv-x="0" 
d="M-115 -223h37q-14 26 -14 53q0 41 28 70.5t81 29.5q62 0 92 -40q3 -5 -1 -9l-30 -31q-5 -6 -10 -1q-21 23 -47 23q-19 0 -31 -12t-12 -32q0 -33 30 -51h100q6 0 6 -7v-45q0 -7 -6 -7h-223q-6 0 -6 7v45q0 7 6 7z" />
    <glyph glyph-name="aAlifbelow" unicode="&#x656;" horiz-adv-x="0" 
d="M22 -114v-124q0 -10 -10 -10h-24q-10 0 -10 10v124q0 10 10 10h24q10 0 10 -10z" />
    <glyph glyph-name="aNasalnun" unicode="&#x658;" horiz-adv-x="0" 
d="M-90 843v48q0 10 10 10h22q10 0 10 -10v-53q0 -52 48 -52q47 0 47 52v53q0 10 10 10h22q10 0 10 -10v-48q0 -96 -89 -96q-90 0 -90 96z" />
    <glyph glyph-name="aZero" unicode="&#x660;" horiz-adv-x="532" 
d="M362 171l-59 -59q-19 -19 -34 -20t-38 20l-59 60q-20 20 -20 35.5t20 35.5l59 59q19 19 31.5 21t34.5 -17l65 -63q19 -19 19.5 -35t-19.5 -37z" />
    <glyph glyph-name="aOne" unicode="&#x661;" horiz-adv-x="532" 
d="M337 595v-585q0 -10 -10 -10h-122q-10 0 -10 10v585q0 10 10 10h122q10 0 10 -10z" />
    <glyph glyph-name="aTwo" unicode="&#x662;" horiz-adv-x="532" 
d="M105 10v468q0 127 120 127h240q10 0 10 -10v-101q0 -10 -10 -10h-158q-35 0 -48 -15.5t-13 -50.5v-408q0 -10 -10 -10h-121q-10 0 -10 10z" />
    <glyph glyph-name="aThree" unicode="&#x663;" horiz-adv-x="532" 
d="M167 595v-160h54v113q0 10 10 10h90q10 0 10 -10v-112q28 2 39.5 12.5t11.5 36.5v110q0 10 10 10h116q10 0 10 -10v-131q0 -81 -43 -114.5t-133 -33.5h-175v-306q0 -10 -10 -10h-121q-10 0 -10 10v585q0 10 10 10h121q10 0 10 -10z" />
    <glyph glyph-name="aFour" unicode="&#x664;" horiz-adv-x="532" 
d="M296 118h160q10 0 10 -10v-98q0 -10 -10 -10h-195q-84 0 -140 39.5t-56 118.5q0 107 92 155q-62 45 -62 126q0 80 51 123t137 43h133q10 0 10 -10v-98q0 -10 -10 -10h-99q-37 0 -54.5 -14t-17.5 -48q0 -61 72 -61h98q10 0 10 -10v-98q0 -10 -10 -10h-123q-36 0 -57.5 -17
t-21.5 -51q0 -60 83 -60z" />
    <glyph glyph-name="aFive" unicode="&#x665;" horiz-adv-x="532" 
d="M267 122q40 0 56.5 20.5t16.5 68.5v128q0 81 -17 115.5t-56 34.5t-56 -33.5t-17 -115.5v-129q0 -51 17.5 -70t55.5 -19zM265 0q-46 0 -79.5 7.5t-66 27.5t-49.5 62t-17 105v145q0 260 215 260q102 0 157.5 -59t55.5 -201v-140q0 -117 -58 -162t-158 -45z" />
    <glyph glyph-name="aSix" unicode="&#x666;" horiz-adv-x="532" 
d="M233 484h-150q-10 0 -10 10v101q0 10 10 10h232q120 0 120 -127v-468q0 -10 -10 -10h-121q-10 0 -10 10v408q0 35 -13 50.5t-48 15.5z" />
    <glyph glyph-name="aSeven" unicode="&#x667;" horiz-adv-x="532" 
d="M265 181l118 423q3 10 12 7l115 -29q11 -3 9 -11l-179 -556q-6 -20 -75 -20t-75 20l-177 556q-2 8 9 11l115 29q9 3 12 -7z" />
    <glyph glyph-name="aEight" unicode="&#x668;" horiz-adv-x="532" 
d="M267 423l-118 -423q-3 -10 -12 -7l-115 29q-11 3 -9 11l178 556q6 20 76 20q69 0 75 -20l177 -556q2 -8 -9 -11l-115 -29q-9 -3 -12 7z" />
    <glyph glyph-name="aNine" unicode="&#x669;" horiz-adv-x="532" 
d="M260 350h55v72q0 62 -57 62q-28 0 -45 -17.5t-17 -51.5q0 -65 64 -65zM315 228h-53q-205 0 -205 185q0 53 18 92t48.5 60t64.5 30.5t73 9.5q86 0 141 -39t55 -119v-437q0 -10 -10 -10h-122q-10 0 -10 10v218z" />
    <glyph glyph-name="aPercent" unicode="&#x66a;" horiz-adv-x="680" 
d="M587 71l-52 -52q-18 -18 -30.5 -18.5t-33.5 18.5l-52 53q-17 17 -17.5 31t17.5 32l52 52q17 17 29 18.5t30 -14.5l57 -56q17 -17 17.5 -31.5t-17.5 -32.5zM246 483l-52 -52q-18 -18 -30.5 -18.5t-33.5 18.5l-52 53q-17 17 -17.5 31t17.5 32l52 52q17 17 29 18.5t30 -14.5
l57 -56q17 -17 17.5 -31.5t-17.5 -32.5zM83 -2l386 622q6 10 13 10h109q10 0 7 -10l-386 -622q-6 -10 -13 -10h-109q-5 0 -7 3t0 7z" />
    <glyph glyph-name="aDecimal" unicode="&#x66b;" horiz-adv-x="242" 
d="M57 -94v227q0 10 10 10h111q10 0 10 -10v-119q0 -13 -8 -21l-97 -91q-7 -7 -16 -7q-10 0 -10 11z" />
    <glyph glyph-name="aThousands" unicode="&#x66c;" horiz-adv-x="230" 
d="M57 40v227q0 10 10 10h111q10 0 10 -10v-119q0 -13 -8 -21l-97 -91q-7 -7 -16 -7q-10 0 -10 11z" />
    <glyph glyph-name="aStar" unicode="&#x66d;" horiz-adv-x="343" 
d="M178 547l-68 -59q-7 -7 -14 -3l-9 6q-8 5 -3 14l38 81l-83 52q-6 5 -5 12l4 11q2 8 10 6l95 -12l20 95q1 10 10 10h12q9 0 10 -10l19 -95l95 12q8 2 10 -6l4 -11q1 -7 -5 -12l-83 -52l38 -81q5 -9 -3 -14l-9 -6q-6 -5 -14 3z" />
    <glyph glyph-name="aAlifabove" unicode="&#x670;" horiz-adv-x="0" 
d="M22 884v-124q0 -10 -10 -10h-24q-10 0 -10 10v124q0 10 10 10h24q10 0 10 -10z" />
    <glyph glyph-name="aAlifWasla" unicode="&#x671;" horiz-adv-x="261" 
d="M201 670v-660q0 -10 -10 -10h-121q-10 0 -10 10v660q0 10 10 10h121q10 0 10 -10zM153 865q-20 0 -54 -14v-43h67q14 0 17.5 5.5t3.5 20.5q0 31 -34 31zM18 808h12q10 0 10 18v82q0 7 8 7h43q8 0 8 -7v-8q36 14 67 14q80 0 80 -83q0 -43 -14 -57.5t-48 -14.5h-166
q-7 0 -7 7v35q0 7 7 7z" />
    <glyph glyph-name="aTteh" unicode="&#x679;" horiz-adv-x="856" 
d="M241 121h374q27 0 38 11.5t11 41.5v237q0 10 10 10h122q10 0 10 -10v-285q0 -67 -27 -96.5t-92 -29.5h-519q-63 0 -90 30t-27 96v221q0 10 10 10h122q10 0 10 -10v-173q0 -29 11.5 -41t36.5 -12zM449 545q-19 0 -54 -13v-43h67q14 0 17.5 5t3.5 20q0 31 -34 31zM314 489
h12q10 0 10 11v152q0 7 8 7h43q8 0 8 -7v-71q37 14 67 14q80 0 80 -81q0 -41 -13 -58t-41 -17h-174q-7 0 -7 7v36q0 7 7 7z" />
    <glyph glyph-name="aPeh" unicode="&#x67e;" horiz-adv-x="856" 
d="M241 121h374q27 0 38 11.5t11 41.5v237q0 10 10 10h122q10 0 10 -10v-285q0 -67 -27 -96.5t-92 -29.5h-519q-63 0 -90 30t-27 96v221q0 10 10 10h122q10 0 10 -10v-173q0 -29 11.5 -41t36.5 -12zM478 -347h-101q-10 0 -10 10v98q0 10 10 10h101q10 0 10 -10v-98
q0 -10 -10 -10zM555 -206h-101q-10 0 -10 10v98q0 10 10 10h101q10 0 10 -10v-98q0 -10 -10 -10zM400 -206h-100q-10 0 -10 10v98q0 10 10 10h100q10 0 10 -10v-98q0 -10 -10 -10z" />
    <glyph glyph-name="aTcheh" unicode="&#x686;" horiz-adv-x="578" 
d="M285 -205h-72q-96 0 -143 37.5t-47 127.5q0 161 167 161h120q48 0 63.5 15t15.5 60q0 121 -104 121q-50 0 -101 -44q-8 -5 -14 -1l-60 71q-8 10 -2 15q80 80 187 80q124 0 182 -67.5t58 -181.5q0 -109 -41 -149t-128 -40h-151q-49 0 -49 -42q0 -24 13 -33t51 -9h55
q10 0 10 -10v-101q0 -10 -10 -10zM444 -222h-65q-7 0 -7 7v64q0 6 7 6h65q7 0 7 -6v-64q0 -7 -7 -7zM494 -130h-65q-7 0 -7 7v63q0 7 7 7h65q7 0 7 -7v-63q0 -7 -7 -7zM394 -130h-65q-7 0 -7 7v63q0 7 7 7h65q6 0 6 -7v-63q0 -7 -6 -7z" />
    <glyph glyph-name="aDdal" unicode="&#x688;" horiz-adv-x="496" 
d="M446 258v-87q0 -95 -36 -133t-115 -38h-242q-10 0 -10 10v101q0 10 10 10h172q48 0 61.5 14t13.5 54v54q0 74 -90 74h-115q-10 0 -10 10v101q0 10 10 10h174q177 0 177 -180zM257 609q-19 0 -54 -13v-43h67q14 0 17.5 5t3.5 20q0 31 -34 31zM122 553h12q10 0 10 11v152
q0 7 8 7h43q8 0 8 -7v-71q37 14 67 14q80 0 80 -81q0 -41 -13 -58t-41 -17h-174q-7 0 -7 7v36q0 7 7 7z" />
    <glyph glyph-name="aRreh" unicode="&#x691;" horiz-adv-x="309" 
d="M58 -205h-46q-10 0 -10 10v101q0 10 10 10h22q41 0 58.5 20.5t17.5 64.5v410q0 10 10 10h122q10 0 10 -10v-415q0 -103 -47 -152t-147 -49zM202 609q-19 0 -54 -13v-43h67q14 0 17.5 5t3.5 20q0 31 -34 31zM67 553h12q10 0 10 11v152q0 7 8 7h43q8 0 8 -7v-71
q37 14 67 14q80 0 80 -81q0 -41 -13 -58t-41 -17h-174q-7 0 -7 7v36q0 7 7 7z" />
    <glyph glyph-name="aJeh" unicode="&#x698;" horiz-adv-x="309" 
d="M58 -205h-46q-10 0 -10 10v101q0 10 10 10h22q41 0 58.5 20.5t17.5 64.5v410q0 10 10 10h122q10 0 10 -10v-415q0 -103 -47 -152t-147 -49zM231 665h-100q-10 0 -10 10v98q0 10 10 10h100q10 0 10 -10v-98q0 -10 -10 -10zM308 522h-101q-10 0 -10 10v98q0 10 10 10h101
q10 0 10 -10v-98q0 -10 -10 -10zM153 522h-100q-10 0 -10 10v98q0 10 10 10h100q10 0 10 -10v-98q0 -10 -10 -10z" />
    <glyph glyph-name="aVeh" unicode="&#x6a4;" horiz-adv-x="979" 
d="M710 317q-82 0 -82 -98q0 -56 19.5 -79t62.5 -23t62.5 22t19.5 77q0 101 -82 101zM710 0h-545q-63 0 -90 30t-27 96v221q0 10 10 10h122q10 0 10 -10v-173q0 -29 11.5 -41t36.5 -12h267q-16 31 -16 90q0 121 62.5 174t158.5 53q99 0 160 -52.5t61 -174.5
q0 -211 -221 -211zM757 665h-100q-10 0 -10 10v98q0 10 10 10h100q10 0 10 -10v-98q0 -10 -10 -10zM834 522h-101q-10 0 -10 10v98q0 10 10 10h101q10 0 10 -10v-98q0 -10 -10 -10zM679 522h-100q-10 0 -10 10v98q0 10 10 10h100q10 0 10 -10v-98q0 -10 -10 -10z" />
    <glyph glyph-name="aKeheh" unicode="&#x6a9;" horiz-adv-x="881" 
d="M679 0h-514q-63 0 -90 30t-27 96v221q0 10 10 10h122q10 0 10 -10v-173q0 -35 15.5 -44t56.5 -9h347q48 0 61.5 13t13.5 54v46q0 47 -25 61.5t-85 14.5h-130q-10 0 -10 28v64q0 7 9 16l226 266q6 7 13 3l82 -70q8 -8 4 -14l-149 -174q107 -4 159.5 -42.5t52.5 -141.5v-74
q0 -95 -36.5 -133t-115.5 -38z" />
    <glyph glyph-name="aGaf" unicode="&#x6af;" horiz-adv-x="881" 
d="M679 0h-514q-63 0 -90 30t-27 96v221q0 10 10 10h122q10 0 10 -10v-173q0 -35 15.5 -44t56.5 -9h347q48 0 61.5 13t13.5 54v46q0 47 -25 61.5t-85 14.5h-130q-10 0 -10 28v64q0 7 9 16l226 266q6 7 13 3l82 -70q8 -8 4 -14l-149 -174q107 -4 159.5 -42.5t52.5 -141.5v-74
q0 -95 -36.5 -133t-115.5 -38zM630 718l-222 -261q-6 -7 -13 -3l-70 58q-8 5 -4 14l222 261q6 7 13 3l70 -58q8 -8 4 -14z" />
    <glyph glyph-name="aNunGhunna" unicode="&#x6ba;" horiz-adv-x="609" 
d="M97 222q5 6 15 3l108 -35q8 -5 4 -13q-38 -74 -38 -142q0 -65 33.5 -95.5t81.5 -30.5q109 0 109 119v300q0 10 10 10h121q10 0 10 -10v-306q0 -119 -69.5 -177.5t-183.5 -58.5q-113 0 -184.5 59t-71.5 179q0 110 55 198z" />
    <glyph glyph-name="aHehDoachashmi" unicode="&#x6be;" horiz-adv-x="726" 
d="M106 121h67q-14 34 -14 70q0 76 45 114t111 38q161 0 161 -152q0 -32 -18 -70q75 0 75 95q0 75 -46 111.5t-125 36.5q-75 0 -145 -22q-15 -9 -18 2l-21 75q-4 15 6 18q111 41 209 41q81 0 139 -22t89 -60.5t44.5 -82t13.5 -94.5q0 -116 -45 -167.5t-156 -51.5h-288
q-23 0 -29.5 -6.5t-6.5 -27.5v-44q0 -10 -10 -10h-122q-10 0 -10 10v110q0 89 94 89zM316 258q-28 0 -43.5 -18.5t-15.5 -52.5q0 -65 53 -70h11q52 0 52 70q0 71 -57 71z" />
    <glyph glyph-name="aHehYeh" unicode="&#x6c0;" horiz-adv-x="532" 
d="M149 574h37q-14 26 -14 53q0 41 28 70.5t81 29.5q62 0 92 -40q3 -5 -1 -9l-30 -31q-5 -6 -10 -1q-21 23 -47 23q-19 0 -31 -12t-12 -32q0 -33 30 -51h100q6 0 6 -7v-45q0 -7 -6 -7h-223q-6 0 -6 7v45q0 7 6 7zM263 317q-82 0 -82 -101q0 -55 20.5 -78.5t61.5 -23.5
q43 0 62.5 23t19.5 79q0 101 -82 101zM263 -7q-221 0 -221 218q0 122 61 174.5t160 52.5t160 -52.5t61 -174.5q0 -218 -221 -218z" />
    <glyph glyph-name="aHehGoal" unicode="&#x6c1;" horiz-adv-x="532" 
d="M263 317q-82 0 -82 -101q0 -55 20.5 -78.5t61.5 -23.5q43 0 62.5 23t19.5 79q0 101 -82 101zM263 -7q-221 0 -221 218q0 122 61 174.5t160 52.5t160 -52.5t61 -174.5q0 -218 -221 -218z" />
    <glyph glyph-name="aHehGoalHamzaabove" unicode="&#x6c2;" horiz-adv-x="532" 
d="M149 574h37q-14 26 -14 53q0 41 28 70.5t81 29.5q62 0 92 -40q3 -5 -1 -9l-30 -31q-5 -6 -10 -1q-21 23 -47 23q-19 0 -31 -12t-12 -32q0 -33 30 -51h100q6 0 6 -7v-45q0 -7 -6 -7h-223q-6 0 -6 7v45q0 7 6 7zM263 317q-82 0 -82 -101q0 -55 20.5 -78.5t61.5 -23.5
q43 0 62.5 23t19.5 79q0 101 -82 101zM263 -7q-221 0 -221 218q0 122 61 174.5t160 52.5t160 -52.5t61 -174.5q0 -218 -221 -218z" />
    <glyph glyph-name="aTehMarbutaGoal" unicode="&#x6c3;" horiz-adv-x="532" 
d="M263 317q-82 0 -82 -101q0 -55 20.5 -78.5t61.5 -23.5q43 0 62.5 23t19.5 79q0 101 -82 101zM263 -7q-221 0 -221 218q0 122 61 174.5t160 52.5t160 -52.5t61 -174.5q0 -218 -221 -218zM394 522h-101q-10 0 -10 10v98q0 10 10 10h101q10 0 10 -10v-98q0 -10 -10 -10z
M239 522h-100q-10 0 -10 10v98q0 10 10 10h100q10 0 10 -10v-98q0 -10 -10 -10z" />
    <glyph glyph-name="aYehFarsi" unicode="&#x6cc;" horiz-adv-x="809" 
d="M33 26q0 103 54 196q5 6 15 3l108 -35q8 -5 4 -13q-38 -74 -38 -142q0 -64 43 -90.5t105 -26.5h176q96 0 96 47q0 14 -16 29.5t-40.5 30t-53 35t-53 42.5t-40.5 55t-16 71q0 83 60.5 133.5t152.5 50.5q125 0 188 -76q4 -5 -3 -14l-66 -70q-6 -4 -14 1q-41 38 -93 38
q-33 0 -55.5 -16.5t-22.5 -47.5q0 -25 23.5 -49.5t56.5 -46.5t66 -46t56.5 -58t23.5 -74q0 -73 -53 -115.5t-157 -42.5h-234q-138 0 -205.5 60t-67.5 171z" />
    <glyph glyph-name="aYehBarri" unicode="&#x6d2;" horiz-adv-x="779" 
d="M357 344q-24 -32 -70 -67.5t-76.5 -62.5t-30.5 -50q0 -43 74 -43h495q10 0 10 -10v-101q0 -10 -10 -10h-503q-205 0 -205 140q0 41 22.5 80.5t51.5 66.5t72 67.5t68 71.5q6 8 15 1l86 -69q6 -6 1 -14z" />
    <glyph glyph-name="aYehBarriHamzaabove" unicode="&#x6d3;" horiz-adv-x="819" 
d="M364 344q-24 -32 -70 -67.5t-76.5 -62.5t-30.5 -50q0 -43 74 -43h495q10 0 10 -10v-101q0 -10 -10 -10h-503q-205 0 -205 140q0 41 22.5 80.5t51.5 66.5t72 67.5t68 71.5q6 8 15 1l86 -69q6 -6 1 -14zM61 523h37q-14 26 -14 53q0 41 28 70.5t81 29.5q62 0 92 -40
q3 -5 -1 -9l-30 -31q-5 -6 -10 -1q-21 23 -47 23q-19 0 -31 -12t-12 -32q0 -33 30 -51h100q6 0 6 -7v-45q0 -7 -6 -7h-223q-6 0 -6 7v45q0 7 6 7z" />
    <glyph glyph-name="aPeriodUrdu" unicode="&#x6d4;" horiz-adv-x="325" 
d="M213 121h66q10 0 10 -10v-101q0 -10 -10 -10h-90q-98 0 -163 53q-6 6 -1 14l49 86q5 8 13 3q54 -35 126 -35z" />
    <glyph glyph-name="aAe" unicode="&#x6d5;" horiz-adv-x="532" 
d="M263 317q-82 0 -82 -101q0 -55 20.5 -78.5t61.5 -23.5q43 0 62.5 23t19.5 79q0 101 -82 101zM263 -7q-221 0 -221 218q0 122 61 174.5t160 52.5t160 -52.5t61 -174.5q0 -218 -221 -218z" />
    <glyph glyph-name="aZeroFarsi" unicode="&#x6f0;" horiz-adv-x="532" 
d="M362 171l-59 -59q-19 -19 -34 -20t-38 20l-59 60q-20 20 -20 35.5t20 35.5l59 59q19 19 31.5 21t34.5 -17l65 -63q19 -19 19.5 -35t-19.5 -37z" />
    <glyph glyph-name="aOneFarsi" unicode="&#x6f1;" horiz-adv-x="532" 
d="M337 595v-585q0 -10 -10 -10h-122q-10 0 -10 10v585q0 10 10 10h122q10 0 10 -10z" />
    <glyph glyph-name="aTwoFarsi" unicode="&#x6f2;" horiz-adv-x="532" 
d="M105 10v468q0 127 120 127h240q10 0 10 -10v-101q0 -10 -10 -10h-158q-35 0 -48 -15.5t-13 -50.5v-408q0 -10 -10 -10h-121q-10 0 -10 10z" />
    <glyph glyph-name="aThreeFarsi" unicode="&#x6f3;" horiz-adv-x="532" 
d="M167 595v-160h54v113q0 10 10 10h90q10 0 10 -10v-112q28 2 39.5 12.5t11.5 36.5v110q0 10 10 10h116q10 0 10 -10v-131q0 -81 -43 -114.5t-133 -33.5h-175v-306q0 -10 -10 -10h-121q-10 0 -10 10v585q0 10 10 10h121q10 0 10 -10z" />
    <glyph glyph-name="aFourFarsi" unicode="&#x6f4;" horiz-adv-x="532" 
d="M320 606h23q10 0 10 -10v-57q0 -10 -10 -10q-27 0 -36 -10t-9 -35v-35q53 0 70.5 10.5t17.5 45.5v17q0 10 26 10h96q10 0 10 -10v-27q0 -78 -31.5 -115t-103.5 -39q-21 -1 -64 -1h-157v-330q0 -10 -40 -10h-91q-10 0 -10 10v585q0 10 10 10h121q10 0 10 -10v-146h47v49
q0 57 27 82.5t84 25.5z" />
    <glyph glyph-name="aFiveFarsi" unicode="&#x6f5;" horiz-adv-x="532" 
d="M46 218q0 43 1 71t5.5 73t12.5 75t24.5 65t39 56t57.5 35t80 14q57 0 99 -21.5t64.5 -54t36 -83.5t17 -95.5t3.5 -103.5q0 -27 -1 -48t-4.5 -53.5t-12.5 -56t-22.5 -46.5t-36 -35t-52.5 -12q-49 0 -88 33q-37 -32 -84 -32q-60 0 -99.5 54.5t-39.5 164.5zM348 235
q0 121 -17.5 188.5t-64.5 67.5q-45 0 -64 -57t-19 -175q0 -71 9 -104t34 -33q12 0 24.5 13t16.5 13t15.5 -13t25.5 -13q40 0 40 113z" />
    <glyph glyph-name="aSixFarsi" unicode="&#x6f6;" horiz-adv-x="532" 
d="M314 205l-156 -229q-5 -8 -14 -3l-94 70q-9 8 -3 14l176 255q-73 41 -73 124q0 81 52 125t133 44h113q10 0 10 -10v-101q0 -10 -10 -10h-78q-41 0 -61 -15.5t-20 -52.5q0 -35 23 -51t57 -16h78q10 0 10 -10v-101q0 -10 -10 -10h-59q-36 0 -49.5 -3.5t-24.5 -19.5z" />
    <glyph glyph-name="aSevenFarsi" unicode="&#x6f7;" horiz-adv-x="532" 
d="M265 181l118 423q3 10 12 7l115 -29q11 -3 9 -11l-179 -556q-6 -20 -75 -20t-75 20l-177 556q-2 8 9 11l115 29q9 3 12 -7z" />
    <glyph glyph-name="aEightFarsi" unicode="&#x6f8;" horiz-adv-x="532" 
d="M267 423l-118 -423q-3 -10 -12 -7l-115 29q-11 3 -9 11l178 556q6 20 76 20q69 0 75 -20l177 -556q2 -8 -9 -11l-115 -29q-9 -3 -12 7z" />
    <glyph glyph-name="aNineFarsi" unicode="&#x6f9;" horiz-adv-x="532" 
d="M260 350h55v72q0 62 -57 62q-28 0 -45 -17.5t-17 -51.5q0 -65 64 -65zM315 228h-53q-205 0 -205 185q0 53 18 92t48.5 60t64.5 30.5t73 9.5q86 0 141 -39t55 -119v-437q0 -10 -10 -10h-122q-10 0 -10 10v218z" />
    <glyph glyph-name="enspace" unicode="&#x2002;" horiz-adv-x="500" 
 />
    <glyph glyph-name="thinspace" unicode="&#x2009;" horiz-adv-x="100" 
 />
    <glyph glyph-name="hairspace" unicode="&#x200a;" horiz-adv-x="20" 
 />
    <glyph glyph-name="ZWNJ" unicode="&#x200c;" horiz-adv-x="33" 
d="M33 1321v-1319h-33v1319h33z" />
    <glyph glyph-name="ZWJ" unicode="&#x200d;" horiz-adv-x="33" 
d="M96 1245l-18 -18l-45 46v-1273h-33v1276l-49 -49l-17 18l63 63l-63 64l17 17l64 -63l63 63l18 -17l-63 -63v-1z" />
    <glyph glyph-name="LTR" unicode="&#x200e;" horiz-adv-x="32" 
d="M190 1308l-81 -81v61h-77v-1286h-32v1319h109v68z" />
    <glyph glyph-name="RTL" unicode="&#x200f;" horiz-adv-x="33" 
d="M-77 1321h110v-1319h-33v1286h-77v-61l-81 81l81 81v-68z" />
    <glyph glyph-name="uni2010" unicode="&#x2010;" horiz-adv-x="392" 
d="M340 204h-288q-10 0 -10 10v102q0 10 10 10h288q10 0 10 -10v-102q0 -10 -10 -10z" />
    <glyph glyph-name="endash" unicode="&#x2013;" horiz-adv-x="535" 
d="M505 207h-475q-10 0 -10 10v97q0 10 10 10h475q10 0 10 -10v-97q0 -10 -10 -10z" />
    <glyph glyph-name="emdash" unicode="&#x2014;" horiz-adv-x="894" 
d="M864 207h-834q-10 0 -10 10v97q0 10 10 10h834q10 0 10 -10v-97q0 -10 -10 -10z" />
    <glyph glyph-name="quoteleft" unicode="&#x2018;" horiz-adv-x="231" 
d="M165 472h-99q-10 0 -10 10v105q0 13 9 21l83 67q7 7 16 7q11 0 11 -11v-189q0 -10 -10 -10z" />
    <glyph glyph-name="quoteright" unicode="&#x2019;" horiz-adv-x="231" 
d="M67 470q-11 0 -11 11v189q0 10 10 10h99q10 0 10 -10v-105q0 -13 -9 -21l-83 -67q-7 -7 -16 -7z" />
    <glyph glyph-name="quotesinglbase" unicode="&#x201a;" horiz-adv-x="231" 
d="M67 -90q-11 0 -11 11v189q0 10 10 10h99q10 0 10 -10v-104q0 -14 -9 -22l-83 -66q-8 -8 -16 -8z" />
    <glyph glyph-name="quotedblleft" unicode="&#x201c;" horiz-adv-x="417" 
d="M165 472h-99q-10 0 -10 10v105q0 13 9 21l83 67q7 7 16 7q11 0 11 -11v-189q0 -10 -10 -10zM351 472h-99q-10 0 -10 10v105q0 13 9 21l83 67q7 7 16 7q11 0 11 -11v-189q0 -10 -10 -10z" />
    <glyph glyph-name="quotedblright" unicode="&#x201d;" horiz-adv-x="417" 
d="M67 470q-11 0 -11 11v189q0 10 10 10h99q10 0 10 -10v-105q0 -13 -9 -21l-83 -67q-7 -7 -16 -7zM253 470q-11 0 -11 11v189q0 10 10 10h99q10 0 10 -10v-105q0 -13 -9 -21l-83 -67q-7 -7 -16 -7z" />
    <glyph glyph-name="quotedblbase" unicode="&#x201e;" horiz-adv-x="417" 
d="M67 -90q-11 0 -11 11v189q0 10 10 10h99q10 0 10 -10v-104q0 -14 -9 -22l-83 -66q-8 -8 -16 -8zM253 -90q-11 0 -11 11v189q0 10 10 10h99q10 0 10 -10v-104q0 -14 -9 -22l-83 -66q-8 -8 -16 -8z" />
    <glyph glyph-name="dagger" unicode="&#x2020;" horiz-adv-x="548" 
d="M332 -180h-116q-10 0 -10 10v503q0 6 -6 6h-144q-10 0 -10 10v102q0 10 10 10h144q6 0 6 6v203q0 10 10 10h116q10 0 10 -10v-203q0 -6 6 -6h144q10 0 10 -10v-102q0 -10 -10 -10h-144q-6 0 -6 -6v-503q0 -10 -10 -10z" />
    <glyph glyph-name="daggerdbl" unicode="&#x2021;" horiz-adv-x="548" 
d="M332 -180h-116q-10 0 -10 10v170q0 6 -6 6h-144q-10 0 -10 10v102q0 10 10 10h144q6 0 6 6v232q0 6 -6 6h-144q-10 0 -10 10v102q0 10 10 10h144q6 0 6 6v170q0 10 10 10h116q10 0 10 -10v-170q0 -6 6 -6h144q10 0 10 -10v-102q0 -10 -10 -10h-144q-6 0 -6 -6v-232
q0 -6 6 -6h144q10 0 10 -10v-102q0 -10 -10 -10h-144q-6 0 -6 -6v-170q0 -10 -10 -10z" />
    <glyph glyph-name="bullet" unicode="&#x2022;" horiz-adv-x="475" 
d="M237 158q-66 0 -108 42t-42 108t42 108.5t108 42.5t108.5 -42.5t42.5 -108.5t-42.5 -108t-108.5 -42z" />
    <glyph glyph-name="ellipsis" unicode="&#x2026;" horiz-adv-x="777" 
d="M189 0h-119q-10 0 -10 10v120q0 10 10 10h119q10 0 10 -10v-120q0 -10 -10 -10zM448 0h-119q-10 0 -10 10v120q0 10 10 10h119q10 0 10 -10v-120q0 -10 -10 -10zM707 0h-119q-10 0 -10 10v120q0 10 10 10h119q10 0 10 -10v-120q0 -10 -10 -10z" />
    <glyph glyph-name="LTRE" unicode="&#x202a;" horiz-adv-x="500" 
 />
    <glyph glyph-name="RTLE" unicode="&#x202b;" horiz-adv-x="500" 
 />
    <glyph glyph-name="POP" unicode="&#x202c;" horiz-adv-x="500" 
 />
    <glyph glyph-name="LTRO" unicode="&#x202d;" horiz-adv-x="500" 
 />
    <glyph glyph-name="RTLO" unicode="&#x202e;" horiz-adv-x="500" 
 />
    <glyph glyph-name="perthousand" unicode="&#x2030;" horiz-adv-x="1136" 
d="M616 70q28 0 35 24q4 11 4 76t-4 77q-8 23 -35 23t-35 -23q-4 -12 -4 -77t4 -76q7 -24 35 -24zM938 70q28 0 35 24q4 11 4 76t-4 77q-8 23 -35 23q-28 0 -36 -23q-3 -8 -3 -77q0 -68 3 -76q8 -24 36 -24zM616 -9q-48 0 -82 22t-47 61q-9 30 -9 96q0 59 9 97q13 38 47 60
t82 22q98 0 129 -82q9 -24 9 -97t-9 -96q-33 -83 -129 -83zM938 -9q-48 0 -82.5 22t-46.5 61q-9 21 -9 96t9 97q31 82 129 82q97 0 128 -82q10 -25 10 -97t-10 -96q-12 -38 -46 -60.5t-82 -22.5zM198 409q27 0 36 23q3 8 3 77t-3 77q-9 23 -36 23t-35 -23q-4 -12 -4 -77
t4 -77q8 -23 35 -23zM198 330q-48 0 -82 22t-47 60q-9 30 -9 97q0 59 9 97q13 38 47 60t82 22q98 0 129 -82q9 -23 9 -97q0 -76 -9 -97q-12 -38 -46 -60t-83 -22zM247 -11h-84q-11 0 -5 10l395 682q6 10 16 10h84q11 0 5 -10l-395 -682q-6 -10 -16 -10z" />
    <glyph glyph-name="guilsinglleft" unicode="&#x2039;" horiz-adv-x="319" 
d="M248 38l-220 219q-7 7 0 14l220 219q3 3 6.5 2t3.5 -6v-117q0 -10 -10 -20l-82 -81q-4 -4 0 -8l82 -81q10 -10 10 -20v-117q0 -5 -3.5 -6t-6.5 2z" />
    <glyph glyph-name="guilsinglright" unicode="&#x203a;" horiz-adv-x="319" 
d="M291 257l-220 -219q-3 -3 -6.5 -2t-3.5 6v117q0 10 10 20l82 81q4 4 0 8l-82 81q-10 10 -10 20v117q0 5 3.5 6t6.5 -2l220 -219q7 -7 0 -14z" />
    <glyph glyph-name="fraction" unicode="&#x2044;" horiz-adv-x="166" 
d="M-78 -11h-84q-11 0 -5 10l395 682q6 10 16 10h84q11 0 5 -10l-395 -682q-6 -10 -16 -10z" />
    <glyph glyph-name="Euro" unicode="&#x20ac;" 
d="M316 -11q-166 0 -212 144q-14 42 -14 98q0 6 -6 6h-36q-10 0 -10 10v62q0 10 10 10h36q6 0 6 6v34q0 6 -6 6h-36q-10 0 -10 10v62q0 10 10 10h36q6 0 6 6q0 52 14 94q46 144 212 144q143 0 202 -121q4 -10 -5 -14l-95 -44q-10 -3 -15 5q-31 56 -85 56q-59 0 -79 -59
q-7 -23 -7 -61q0 -6 6 -6h166q10 0 10 -10l-10 -62q-1 -10 -10 -10h-156q-6 0 -6 -6v-34q0 -6 6 -6h146q10 0 10 -10l-10 -62q-1 -10 -10 -10h-136q-6 0 -6 -6q0 -42 7 -65q20 -59 79 -59q54 0 85 56q5 8 15 5l95 -44q9 -4 5 -14q-59 -121 -202 -121z" />
    <glyph glyph-name="liter" unicode="&#x2113;" horiz-adv-x="508" 
d="M374 599q0 42 -18 69t-46 27q-30 0 -49 -30t-19 -85v-247q132 143 132 266zM419 74l26 -37q-69 -52 -146 -52q-69 0 -107 35.5t-38 98.5v111l-74 -69q-3 5 -26 38l99 87v272q0 81 45 133t112 52q60 0 94 -36.5t34 -99.5q0 -149 -196 -327v-143q0 -52 25 -74t62 -22
q43 0 90 33z" />
    <glyph glyph-name="trademark" unicode="&#x2122;" horiz-adv-x="846" 
d="M236 286h-77q-10 0 -10 10v294q0 6 -6 6h-96q-10 0 -10 10v64q0 10 10 10h300q10 0 10 -10v-64q0 -10 -10 -10h-95q-6 0 -6 -6v-294q0 -10 -10 -10zM784 286h-69q-10 0 -10 10v194h-2l-62 -138q-4 -10 -13 -10h-47q-9 0 -13 10l-62 138h-3v-194q0 -10 -10 -10h-69
q-10 0 -10 10v374q0 10 10 10h68q10 0 14 -10l98 -216h3l96 216q4 10 15 10h66q10 0 10 -10v-374q0 -10 -10 -10z" />
    <glyph glyph-name="ohm" unicode="&#x2126;" horiz-adv-x="634" 
d="M577 0h-213q-10 0 -10 10v101q0 11 9 14q40 14 57.5 64t17.5 151q0 112 -12 146q-25 75 -109 75q-86 0 -109 -75q-12 -36 -12 -146q0 -102 17 -151.5t57 -63.5q10 -3 10 -14v-101q0 -10 -10 -10h-213q-10 0 -10 10v104q0 10 10 10h57v2q-67 48 -67 214q0 123 19 184
q26 83 92 125t159 42t159 -42t92 -125q19 -61 19 -184q0 -166 -68 -214v-2h58q10 0 10 -10v-104q0 -10 -10 -10z" />
    <glyph glyph-name="estimated" unicode="&#x212e;" horiz-adv-x="586" 
d="M426 276v133q-61 56 -134 56q-79 0 -132 -56v-133h266zM292 -11q-105 0 -170.5 73.5t-65.5 180.5q0 108 65.5 180t170.5 72t171.5 -70.5t66.5 -181.5h-370v-167q52 -52 132 -52q112 0 176 110l33 -21q-43 -66 -90.5 -95t-118.5 -29z" />
    <glyph glyph-name="partialdiff" unicode="&#x2202;" horiz-adv-x="549" 
d="M260 108q96 0 112 163q-43 37 -102 37q-46 0 -72.5 -28t-26.5 -79q0 -42 23.5 -67.5t65.5 -25.5zM250 -11q-95 0 -152.5 58.5t-57.5 150.5q0 95 58 158t152 63q77 0 127 -46h1q0 90 -35 145.5t-96 55.5q-48 0 -101 -39q-8 -5 -14 3l-51 75q-4 7 2 15q74 63 172 63
q119 0 186.5 -86t67.5 -246q0 -165 -65.5 -267.5t-193.5 -102.5z" />
    </font>
</defs>
</svg>
