<?xml version="1.0" standalone="no"?>
<!DOCTYPE svg PUBLIC "-//W3C//DTD SVG 1.1//EN" "http://www.w3.org/Graphics/SVG/1.1/DTD/svg11.dtd" >
<svg xmlns="http://www.w3.org/2000/svg" xmlns:xlink="http://www.w3.org/1999/xlink" version="1.1">
<metadata>
Created by FontForge 20170731 at Fri Jul 24 01:12:21 2015
 By Aleksey,,,
Copyright A^(c) 2008 - 2011 Linotype GmbH, www.linotype.com. All rights reserved. This font software may not be reproduced, modified, disclosed or transferred without the express written approval of Linotype GmbH.
</metadata>
<defs>
<font id="DINNextArabic-Medium" horiz-adv-x="549" >
  <font-face 
    font-family="DIN Next Arabic Med"
    font-weight="500"
    font-stretch="normal"
    units-per-em="1000"
    panose-1="0 0 0 0 0 0 0 0 0 0"
    ascent="750"
    descent="-250"
    x-height="482"
    cap-height="680"
    bbox="-183.111 -446 1346 1389"
    underline-thickness="50"
    underline-position="-200"
    unicode-range="U+000D-FEFC"
  />
<missing-glyph horiz-adv-x="483" 
d="M190 124v59q0 10 10 10h58q10 0 10 -10v-59q0 -10 -10 -10h-58q-10 0 -10 10zM256 237h-54q-10 0 -10 10v24q0 30 17 55l51 70q21 28 21 53q0 21 -13.5 35t-34.5 14q-43 0 -55 -45q-2 -11 -11 -9l-52 9q-9 1 -8 11q10 46 43 72.5t86 26.5q51 0 85 -33t34 -81
q0 -37 -26 -74l-50 -71q-13 -18 -13 -41v-16q0 -10 -10 -10zM59 619v-558q0 -6 6 -6h353q6 0 6 6v558q0 6 -6 6h-353q-6 0 -6 -6zM0 10v660q0 10 10 10h463q10 0 10 -10v-660q0 -10 -10 -10h-463q-10 0 -10 10z" />
    <glyph glyph-name="uniFB50" unicode="&#x671;" horiz-adv-x="243" arabic-form="isolated" 
d="M178 670v-660q0 -10 -10 -10h-93q-10 0 -10 10v660q0 10 10 10h93q10 0 10 -10zM144 867q-19 0 -60 -15v-50h76q14 0 18 5t4 23q0 37 -38 37zM13 802h12q10 0 10 11v91q0 7 8 7h33q8 0 8 -7v-10q36 16 67 16q80 0 80 -82q0 -36 -13 -52.5t-41 -16.5h-164q-7 0 -7 7v29
q0 7 7 7z" />
    <glyph glyph-name="aAlifWasla.fina" unicode="&#x671;" horiz-adv-x="261" arabic-form="final" 
d="M148 867q-19 0 -60 -15v-50h76q14 0 18 5t4 23q0 37 -38 37zM17 802h12q10 0 10 11v91q0 7 8 7h33q8 0 8 -7v-10q36 16 67 16q80 0 80 -82q0 -36 -13 -52.5t-41 -16.5h-164q-7 0 -7 7v29q0 7 7 7zM65 126v544q0 10 10 10h93q10 0 10 -10v-518q0 -29 11.5 -41t36.5 -12h35
q40 0 40 -51q0 -29 -9 -38.5t-31 -9.5h-79q-63 0 -90 30t-27 96z" />
    <glyph glyph-name="uniFB56" unicode="&#x67e;" horiz-adv-x="839" arabic-form="isolated" 
d="M213 99h414q27 0 38 11.5t11 41.5v253q0 10 10 10h92q10 0 10 -10v-279q0 -67 -27 -96.5t-92 -29.5h-499q-63 0 -90 30t-27 96v215q0 10 10 10h92q10 0 10 -10v-189q0 -29 11.5 -41t36.5 -12zM467 -316h-84q-10 0 -10 10v86q0 10 10 10h84q10 0 10 -10v-86q0 -10 -10 -10
zM399 -192h-84q-10 0 -10 10v86q0 10 10 10h84q10 0 10 -10v-86q0 -10 -10 -10zM529 -192h-84q-10 0 -10 10v86q0 10 10 10h84q10 0 10 -10v-86q0 -10 -10 -10z" />
    <glyph glyph-name="aPeh.fina" unicode="&#x67e;" horiz-adv-x="883" arabic-form="final" 
d="M788 405v-247q0 -29 22.5 -44t60.5 -15h17q40 0 40 -48q0 -29 -9 -40t-31 -11q-43 0 -70 10.5t-43 40.5q-14 -28 -41 -39.5t-75 -11.5h-489q-63 0 -90 30t-27 96v215q0 10 10 10h92q10 0 10 -10v-189q0 -29 11.5 -41t36.5 -12h414q32 0 40.5 17.5t8.5 69.5v219
q0 10 10 10h92q10 0 10 -10zM466 -316h-84q-10 0 -10 10v86q0 10 10 10h84q10 0 10 -10v-86q0 -10 -10 -10zM398 -192h-84q-10 0 -10 10v86q0 10 10 10h84q10 0 10 -10v-86q0 -10 -10 -10zM528 -192h-84q-10 0 -10 10v86q0 10 10 10h84q10 0 10 -10v-86q0 -10 -10 -10z" />
    <glyph glyph-name="aPeh.init" unicode="&#x67e;" horiz-adv-x="297" arabic-form="initial" 
d="M109 0h-109q-21 0 -30.5 10t-9.5 36q0 29 9.5 41t30.5 12h65q25 0 36.5 12t11.5 41v253q0 10 10 10h93q10 0 10 -10v-279q0 -66 -27 -96t-90 -30zM186 -316h-84q-10 0 -10 10v86q0 10 10 10h84q10 0 10 -10v-86q0 -10 -10 -10zM118 -192h-84q-10 0 -10 10v86q0 10 10 10
h84q10 0 10 -10v-86q0 -10 -10 -10zM248 -192h-84q-10 0 -10 10v86q0 10 10 10h84q10 0 10 -10v-86q0 -10 -10 -10z" />
    <glyph glyph-name="aPeh.medi" unicode="&#x67e;" horiz-adv-x="331" arabic-form="medial" 
d="M219 -316h-84q-10 0 -10 10v86q0 10 10 10h84q10 0 10 -10v-86q0 -10 -10 -10zM151 -192h-84q-10 0 -10 10v86q0 10 10 10h84q10 0 10 -10v-86q0 -10 -10 -10zM281 -192h-84q-10 0 -10 10v86q0 10 10 10h84q10 0 10 -10v-86q0 -10 -10 -10zM217 51q-14 -28 -41.5 -39.5
t-77.5 -11.5h-93q-21 0 -30.5 10t-9.5 37q0 29 9.5 40.5t30.5 11.5h65q33 0 40.5 19.5t7.5 78.5v208q0 10 17 10h86q10 0 10 -10v-244q0 -30 22 -46t61 -16h17q40 0 40 -48q0 -29 -9 -40t-31 -11q-44 0 -71 10.5t-43 40.5z" />
    <glyph glyph-name="uniFB66" unicode="&#x679;" horiz-adv-x="839" arabic-form="isolated" 
d="M213 99h414q27 0 38 11.5t11 41.5v253q0 10 10 10h92q10 0 10 -10v-279q0 -67 -27 -96.5t-92 -29.5h-499q-63 0 -90 30t-27 96v215q0 10 10 10h92q10 0 10 -10v-189q0 -29 11.5 -41t36.5 -12zM439 547q-21 0 -59 -16v-50h75q15 0 19 5.5t4 23.5q0 37 -39 37zM309 481h8
q10 0 12 6t2 30v135q0 7 8 7h33q8 0 8 -7v-78q33 15 67 15q80 0 80 -80q0 -38 -13 -54t-41 -16h-164q-7 0 -7 7v28q0 7 7 7z" />
    <glyph glyph-name="aTteh.fina" unicode="&#x679;" horiz-adv-x="883" arabic-form="final" 
d="M439 547q-21 0 -59 -16v-50h75q15 0 19 5.5t4 23.5q0 37 -39 37zM309 481h8q10 0 12 6t2 30v135q0 7 8 7h33q8 0 8 -7v-78q33 15 67 15q80 0 80 -80q0 -38 -13 -54t-41 -16h-164q-7 0 -7 7v28q0 7 7 7zM788 405v-247q0 -29 22.5 -44t60.5 -15h17q40 0 40 -48
q0 -29 -9 -40t-31 -11q-43 0 -70 10.5t-43 40.5q-14 -28 -41 -39.5t-75 -11.5h-489q-63 0 -90 30t-27 96v215q0 10 10 10h92q10 0 10 -10v-189q0 -29 11.5 -41t36.5 -12h414q32 0 40.5 17.5t8.5 69.5v219q0 10 10 10h92q10 0 10 -10z" />
    <glyph glyph-name="aTteh.init" unicode="&#x679;" horiz-adv-x="275" arabic-form="initial" 
d="M176 612q-21 0 -59 -16v-50h75q15 0 19 5.5t4 23.5q0 37 -39 37zM46 546h8q10 0 12 6t2 30v135q0 7 8 7h33q8 0 8 -7v-78q33 15 67 15q80 0 80 -80q0 -38 -13 -54t-41 -16h-164q-7 0 -7 7v28q0 7 7 7zM93 0h-93q-21 0 -30.5 7.5t-9.5 27.5q0 27 10 45.5t30 18.5h49
q25 0 36.5 12t11.5 41v253q0 10 10 10h93q10 0 10 -10v-279q0 -66 -27 -96t-90 -30z" />
    <glyph glyph-name="aTteh.medi" unicode="&#x679;" horiz-adv-x="310" arabic-form="medial" 
d="M183 612q-21 0 -59 -16v-50h75q15 0 19 5.5t4 23.5q0 37 -39 37zM53 546h8q10 0 12 6t2 30v135q0 7 8 7h33q8 0 8 -7v-78q33 15 67 15q80 0 80 -80q0 -38 -13 -54t-41 -16h-164q-7 0 -7 7v28q0 7 7 7zM215 405v-244q0 -30 22 -46t61 -16h17q40 0 40 -48q0 -29 -9 -40
t-31 -11q-44 0 -71 10.5t-43 40.5q-14 -29 -41 -40t-76 -11h-79q-22 0 -31 7t-9 28q0 27 10.5 45.5t30.5 18.5h48q32 0 40 18.5t8 75.5v212q0 10 10 10h93q10 0 10 -10z" />
    <glyph glyph-name="uniFB6A" unicode="&#x6a4;" horiz-adv-x="961" arabic-form="isolated" 
d="M702 333q-46 0 -70.5 -30.5t-24.5 -85.5q0 -65 23 -92t72 -27t71.5 26t22.5 88q0 121 -94 121zM702 0h-537q-63 0 -90 30t-27 96v215q0 10 10 10h92q10 0 10 -10v-189q0 -29 11.5 -41t36.5 -12h311q-23 44 -23 111q0 115 57.5 169t148.5 54q95 0 150.5 -53t55.5 -170
q0 -210 -206 -210zM743 644h-84q-10 0 -10 10v86q0 10 10 10h84q10 0 10 -10v-86q0 -10 -10 -10zM679 515h-84q-10 0 -10 10v86q0 10 10 10h84q10 0 10 -10v-86q0 -10 -10 -10zM809 515h-84q-10 0 -10 10v86q0 10 10 10h84q10 0 10 -10v-86q0 -10 -10 -10z" />
    <glyph glyph-name="aVeh.fina" unicode="&#x6a4;" horiz-adv-x="964" arabic-form="final" 
d="M208 99h360q-83 57 -83 155q0 83 54.5 131t155.5 48t155.5 -48t54.5 -131q0 -98 -83 -155h142q21 0 30.5 -10t9.5 -37q0 -29 -9.5 -40.5t-30.5 -11.5h-127q-101 0 -141 24q-33 -16 -70 -20t-104 -4h-357q-63 0 -90 30t-27 96v217q0 10 10 10h92q10 0 10 -10v-191
q0 -29 11.5 -41t36.5 -12zM695 344q-41 0 -68 -25.5t-27 -72.5q0 -88 95 -130q96 42 96 130q0 47 -27.5 72.5t-68.5 25.5zM740 644h-84q-10 0 -10 10v86q0 10 10 10h84q10 0 10 -10v-86q0 -10 -10 -10zM676 515h-84q-10 0 -10 10v86q0 10 10 10h84q10 0 10 -10v-86
q0 -10 -10 -10zM806 515h-84q-10 0 -10 10v86q0 10 10 10h84q10 0 10 -10v-86q0 -10 -10 -10z" />
    <glyph glyph-name="aVeh.init" unicode="&#x6a4;" horiz-adv-x="542" arabic-form="initial" 
d="M283 333q-45 0 -69.5 -30.5t-24.5 -85.5q0 -65 22.5 -92t71.5 -27q50 0 72.5 26t22.5 88q0 121 -95 121zM283 0h-278q-22 0 -31 10.5t-9 40.5q0 48 40 48h95q-23 44 -23 111q0 115 57.5 169t148.5 54q95 0 150.5 -53t55.5 -170q0 -112 -54 -161t-152 -49zM326 644h-84
q-10 0 -10 10v86q0 10 10 10h84q10 0 10 -10v-86q0 -10 -10 -10zM262 515h-84q-10 0 -10 10v86q0 10 10 10h84q10 0 10 -10v-86q0 -10 -10 -10zM392 515h-84q-10 0 -10 10v86q0 10 10 10h84q10 0 10 -10v-86q0 -10 -10 -10z" />
    <glyph glyph-name="aVeh.medi" unicode="&#x6a4;" horiz-adv-x="538" arabic-form="medial" 
d="M269 344q-41 0 -68.5 -25.5t-27.5 -71.5q0 -89 96 -131q95 42 95 131q0 46 -27 71.5t-68 25.5zM269 433q101 0 155.5 -47.5t54.5 -130.5q0 -99 -83 -156h142q21 0 30.5 -10t9.5 -37q0 -29 -9.5 -40.5t-30.5 -11.5h-139q-90 0 -129 24q-44 -24 -137 -24h-133q-40 0 -40 51
q0 28 9 38t31 10h141q-82 59 -82 156q0 83 54.5 130.5t155.5 47.5zM314 644h-84q-10 0 -10 10v86q0 10 10 10h84q10 0 10 -10v-86q0 -10 -10 -10zM250 515h-84q-10 0 -10 10v86q0 10 10 10h84q10 0 10 -10v-86q0 -10 -10 -10zM380 515h-84q-10 0 -10 10v86q0 10 10 10h84
q10 0 10 -10v-86q0 -10 -10 -10z" />
    <glyph glyph-name="uniFB7A" unicode="&#x686;" horiz-adv-x="563" arabic-form="isolated" 
d="M383 -209h-56q-7 0 -7 6v59q0 6 7 6h56q7 0 7 -6v-59q0 -6 -7 -6zM337 -126h-56q-7 0 -7 7v58q0 7 7 7h56q7 0 7 -7v-58q0 -7 -7 -7zM425 -126h-57q-6 0 -6 7v58q0 7 6 7h57q7 0 7 -7v-58q0 -7 -7 -7zM363 0h-170q-51 0 -51 -51q0 -28 15.5 -39.5t59.5 -11.5h27
q10 0 10 -10v-80q0 -10 -10 -10h-39q-88 0 -133 35.5t-45 115.5q0 81 44 115.5t109 34.5h139q50 0 66 17.5t16 67.5q0 149 -119 149q-60 0 -108 -48q-7 -7 -14 -1l-51 54q-9 7 -3 14q74 81 179 81q125 0 179.5 -69.5t54.5 -182.5q0 -103 -37 -142t-119 -39z" />
    <glyph glyph-name="aTcheh.fina" unicode="&#x686;" horiz-adv-x="618" arabic-form="final" 
d="M383 -209h-56q-7 0 -7 6v59q0 6 7 6h56q7 0 7 -6v-59q0 -6 -7 -6zM337 -126h-56q-7 0 -7 7v58q0 7 7 7h56q7 0 7 -7v-58q0 -7 -7 -7zM425 -126h-57q-6 0 -6 7v58q0 7 6 7h57q7 0 7 -7v-58q0 -7 -7 -7zM367 0h-174q-51 0 -51 -51q0 -28 15.5 -39.5t59.5 -11.5h27
q10 0 10 -10v-80q0 -10 -10 -10h-39q-88 0 -133 35.5t-45 115.5q0 81 44 115.5t109 34.5h144q50 0 66 17.5t16 67.5q0 149 -117 149q-60 0 -108 -48q-7 -7 -14 -1l-51 54q-9 7 -3 14q74 81 179 81q125 0 178.5 -69.5t53.5 -182.5q0 -5 -0.5 -13t-0.5 -12q3 -27 24.5 -42
t58.5 -15h17q40 0 40 -48q0 -29 -9 -40t-31 -11q-47 0 -76.5 12.5t-45.5 46.5q-33 -59 -134 -59z" />
    <glyph glyph-name="aTcheh.init" unicode="&#x686;" horiz-adv-x="517" arabic-form="initial" 
d="M309 0h-309q-40 0 -40 50q0 28 9 38.5t31 10.5h266q50 0 66 17.5t16 67.5q0 149 -119 149q-62 0 -108 -48q-7 -7 -14 -1l-52 54q-8 8 -2 14q71 81 179 81q125 0 179.5 -69.5t54.5 -182.5q0 -103 -37.5 -142t-119.5 -39zM299 -316h-84q-10 0 -10 10v86q0 10 10 10h84
q10 0 10 -10v-86q0 -10 -10 -10zM231 -192h-84q-10 0 -10 10v86q0 10 10 10h84q10 0 10 -10v-86q0 -10 -10 -10zM361 -192h-84q-10 0 -10 10v86q0 10 10 10h84q10 0 10 -10v-86q0 -10 -10 -10z" />
    <glyph glyph-name="aTcheh.medi" unicode="&#x686;" horiz-adv-x="565" arabic-form="medial" 
d="M53 352q71 81 179 81q125 0 179.5 -69.5t54.5 -182.5q0 -5 -0.5 -13t-0.5 -12q3 -27 24.5 -42t58.5 -15h17q40 0 40 -48q0 -29 -9 -40t-31 -11q-47 0 -76.5 12.5t-45.5 46.5q-33 -59 -134 -59h-309q-40 0 -40 50q0 28 9 38.5t31 10.5h266q50 0 66 17.5t16 67.5
q0 149 -119 149q-62 0 -108 -48q-7 -7 -14 -1l-52 54q-8 8 -2 14zM299 -316h-84q-10 0 -10 10v86q0 10 10 10h84q10 0 10 -10v-86q0 -10 -10 -10zM231 -192h-84q-10 0 -10 10v86q0 10 10 10h84q10 0 10 -10v-86q0 -10 -10 -10zM361 -192h-84q-10 0 -10 10v86q0 10 10 10h84
q10 0 10 -10v-86q0 -10 -10 -10z" />
    <glyph glyph-name="uniFB88" unicode="&#x688;" horiz-adv-x="492" arabic-form="isolated" 
d="M440 254v-83q0 -96 -35 -133.5t-113 -37.5h-232q-10 0 -10 10v79q0 10 10 10h186q52 0 66.5 16t14.5 63v67q0 88 -102 88h-120q-10 0 -10 10v80q0 10 10 10h160q83 0 129 -44.5t46 -134.5zM253 612q-21 0 -59 -16v-50h75q15 0 19 5.5t4 23.5q0 37 -39 37zM123 546h8
q10 0 12 6t2 30v135q0 7 8 7h33q8 0 8 -7v-78q33 15 67 15q80 0 80 -80q0 -38 -13 -54t-41 -16h-164q-7 0 -7 7v28q0 7 7 7z" />
    <glyph glyph-name="aDdal.fina" unicode="&#x688;" horiz-adv-x="539" arabic-form="final" 
d="M225 333h-120q-10 0 -10 10v80q0 10 10 10h152q183 0 183 -179v-94q0 -29 21.5 -45t60.5 -16h17q40 0 40 -48q0 -29 -9 -40t-31 -11q-46 0 -75 12t-45 45q-18 -32 -49.5 -44.5t-85.5 -12.5h-224q-10 0 -10 10v79q0 10 10 10h186q52 0 66.5 16t14.5 63v67q0 88 -102 88z
M253 612q-21 0 -59 -16v-50h75q15 0 19 5.5t4 23.5q0 37 -39 37zM123 546h8q10 0 12 6t2 30v135q0 7 8 7h33q8 0 8 -7v-78q33 15 67 15q80 0 80 -80q0 -38 -13 -54t-41 -16h-164q-7 0 -7 7v28q0 7 7 7z" />
    <glyph glyph-name="uniFB8A" unicode="&#x698;" horiz-adv-x="286" arabic-form="isolated" 
d="M48 -202h-37q-10 0 -10 10v80q0 10 10 10h22q41 0 60 21t19 64v422q0 10 10 10h93q10 0 10 -10v-424q0 -183 -177 -183zM211 644h-84q-10 0 -10 10v86q0 10 10 10h84q10 0 10 -10v-86q0 -10 -10 -10zM147 515h-84q-10 0 -10 10v86q0 10 10 10h84q10 0 10 -10v-86
q0 -10 -10 -10zM277 515h-84q-10 0 -10 10v86q0 10 10 10h84q10 0 10 -10v-86q0 -10 -10 -10z" />
    <glyph glyph-name="aJeh.fina" unicode="&#x698;" horiz-adv-x="325" arabic-form="final" 
d="M112 48v357q0 10 10 10h93q10 0 10 -10v-244q0 -30 22 -46t61 -16h17q40 0 40 -48q0 -29 -9 -40t-31 -11q-73 0 -100 33v-19q0 -112 -40 -164t-137 -52h-37q-10 0 -10 10v80q0 10 10 10h22q23 0 38 7t23 17.5t12 32.5t5 40t1 53zM213 644h-84q-10 0 -10 10v86q0 10 10 10
h84q10 0 10 -10v-86q0 -10 -10 -10zM149 515h-84q-10 0 -10 10v86q0 10 10 10h84q10 0 10 -10v-86q0 -10 -10 -10zM279 515h-84q-10 0 -10 10v86q0 10 10 10h84q10 0 10 -10v-86q0 -10 -10 -10z" />
    <glyph glyph-name="uniFB8C" unicode="&#x691;" horiz-adv-x="286" arabic-form="isolated" 
d="M48 -202h-37q-10 0 -10 10v80q0 10 10 10h22q41 0 60 21t19 64v422q0 10 10 10h93q10 0 10 -10v-424q0 -183 -177 -183zM191 612q-21 0 -59 -16v-50h75q15 0 19 5.5t4 23.5q0 37 -39 37zM61 546h8q10 0 12 6t2 30v135q0 7 8 7h33q8 0 8 -7v-78q33 15 67 15q80 0 80 -80
q0 -38 -13 -54t-41 -16h-164q-7 0 -7 7v28q0 7 7 7z" />
    <glyph glyph-name="aRreh.fina" unicode="&#x691;" horiz-adv-x="325" arabic-form="final" 
d="M112 48v357q0 10 10 10h93q10 0 10 -10v-244q0 -30 22 -46t61 -16h17q40 0 40 -48q0 -29 -9 -40t-31 -11q-73 0 -100 33v-19q0 -112 -40 -164t-137 -52h-37q-10 0 -10 10v80q0 10 10 10h22q23 0 38 7t23 17.5t12 32.5t5 40t1 53zM192 612q-21 0 -59 -16v-50h75
q15 0 19 5.5t4 23.5q0 37 -39 37zM62 546h8q10 0 12 6t2 30v135q0 7 8 7h33q8 0 8 -7v-78q33 15 67 15q80 0 80 -80q0 -38 -13 -54t-41 -16h-164q-7 0 -7 7v28q0 7 7 7z" />
    <glyph glyph-name="uniFB8E" unicode="&#x6a9;" horiz-adv-x="862" arabic-form="isolated" 
d="M208 99h410q50 0 64.5 16t14.5 63v54q0 54 -30.5 71t-100.5 17h-131q-10 0 -10 19v60q0 7 9 16l222 262q6 7 13 3l65 -54q8 -8 4 -14l-165 -193q47 -1 78.5 -4.5t64.5 -14.5t51.5 -30t30.5 -52t12 -80v-67q0 -96 -35 -133.5t-113 -37.5h-497q-63 0 -90 30t-27 96v215
q0 10 10 10h92q10 0 10 -10v-189q0 -29 11.5 -41t36.5 -12z" />
    <glyph glyph-name="aKeheh.fina" unicode="&#x6a9;" horiz-adv-x="908" arabic-form="final" 
d="M662 0h-497q-63 0 -90 30t-27 96v215q0 10 10 10h92q10 0 10 -10v-189q0 -29 11.5 -41t36.5 -12h409q51 0 65.5 16t14.5 63v54q0 88 -102 88h-160q-10 0 -10 19v60q0 7 9 16l222 262q6 7 13 3l65 -54q8 -8 4 -14l-165 -193q47 -1 78.5 -4.5t64.5 -14.5t51.5 -30t30.5 -52
t12 -80v-86q0 -26 22.5 -39.5t58.5 -13.5h17q40 0 40 -48q0 -29 -9 -40t-31 -11q-46 0 -75 12t-45 44q-17 -31 -46.5 -43.5t-79.5 -12.5z" />
    <glyph glyph-name="aKeheh.init" unicode="&#x6a9;" horiz-adv-x="494" arabic-form="initial" 
d="M370 612l-165 -193q60 -1 98 -8t72.5 -25.5t50.5 -56.5t16 -98v-60q0 -96 -35 -133.5t-113 -37.5h-294q-21 0 -30.5 11.5t-9.5 40.5q0 28 9 37.5t31 9.5h248q52 0 66.5 16t14.5 63v54q0 45 -24 66.5t-78 21.5h-161q-10 0 -10 10v69q0 4 2.5 8t7 9t6.5 7l216 254q6 7 13 3
l65 -54q8 -8 4 -14z" />
    <glyph glyph-name="aKeheh.medi" unicode="&#x6a9;" horiz-adv-x="541" arabic-form="medial" 
d="M56 330v69q0 4 2.5 8t7 9t6.5 7l216 254q6 7 13 3l65 -54q8 -8 4 -14l-165 -193q46 -1 77.5 -4.5t64 -14.5t51.5 -30t31.5 -52t12.5 -80v-83q0 -27 22.5 -41.5t59.5 -14.5h17q40 0 40 -48q0 -29 -9 -40t-31 -11q-46 0 -75.5 12t-45.5 45q-30 -57 -126 -57h-294
q-21 0 -30.5 11.5t-9.5 40.5q0 28 9 37.5t31 9.5h248q52 0 66.5 16t14.5 63v54q0 88 -102 88h-161q-10 0 -10 10z" />
    <glyph glyph-name="uniFB92" unicode="&#x6af;" horiz-adv-x="862" arabic-form="isolated" 
d="M208 99h410q50 0 64.5 16t14.5 63v54q0 54 -30.5 71t-100.5 17h-131q-10 0 -10 19v60q0 7 9 16l222 262q6 7 13 3l65 -54q8 -8 4 -14l-165 -193q47 -1 78.5 -4.5t64.5 -14.5t51.5 -30t30.5 -52t12 -80v-67q0 -96 -35 -133.5t-113 -37.5h-497q-63 0 -90 30t-27 96v215
q0 10 10 10h92q10 0 10 -10v-189q0 -29 11.5 -41t36.5 -12zM614 712l-220 -259q-6 -7 -13 -3l-60 49q-8 5 -4 14l221 259q6 7 13 3l59 -49q8 -8 4 -14z" />
    <glyph glyph-name="aGaf.fina" unicode="&#x6af;" horiz-adv-x="923" arabic-form="final" 
d="M621 712l-220 -259q-6 -7 -13 -3l-60 49q-8 5 -4 14l221 259q6 7 13 3l59 -49q8 -8 4 -14zM669 0h-497q-63 0 -90 30t-27 96v215q0 10 10 10h92q10 0 10 -10v-189q0 -29 11.5 -41t36.5 -12h409q51 0 65.5 16t14.5 63v54q0 88 -102 88h-160q-10 0 -10 19v60q0 7 9 16
l222 262q6 7 13 3l65 -54q8 -8 4 -14l-165 -193q47 -1 78.5 -4.5t64.5 -14.5t51.5 -30t30.5 -52t12 -80v-86q0 -26 22.5 -39.5t58.5 -13.5h17q40 0 40 -48q0 -29 -9 -40t-31 -11q-46 0 -75 12t-45 44q-17 -31 -46.5 -43.5t-79.5 -12.5z" />
    <glyph glyph-name="aGaf.init" unicode="&#x6af;" horiz-adv-x="527" arabic-form="initial" 
d="M283 712l-220 -259q-6 -7 -13 -3l-60 49q-8 5 -4 14l221 259q6 7 13 3l59 -49q8 -8 4 -14zM403 612l-165 -193q60 -1 98 -8t72.5 -25.5t50.5 -56.5t16 -98v-60q0 -96 -35 -133.5t-113 -37.5h-327q-21 0 -30.5 11.5t-9.5 40.5q0 28 9 37.5t31 9.5h276q52 0 66.5 16
t14.5 63v54q0 45 -24 66.5t-78 21.5h-156q-10 0 -10 10v69q0 4 2.5 8t7 9t6.5 7l216 254q6 7 13 3l65 -54q8 -8 4 -14z" />
    <glyph glyph-name="aGaf.medi" unicode="&#x6af;" horiz-adv-x="574" arabic-form="medial" 
d="M283 712l-220 -259q-6 -7 -13 -3l-60 49q-8 5 -4 14l221 259q6 7 13 3l59 -49q8 -8 4 -14zM403 612l-165 -193q46 -1 77.5 -4.5t64 -14.5t51.5 -30t31.5 -52t12.5 -80v-59q0 -3 -1 -11t0 -13q5 -56 83 -56h17q40 0 40 -48q0 -29 -9 -40t-31 -11q-46 0 -75.5 12t-45.5 45
q-30 -57 -126 -57h-327q-21 0 -30.5 11.5t-9.5 40.5q0 28 9 37.5t31 9.5h276q52 0 66.5 16t14.5 63v54q0 88 -102 88h-156q-10 0 -10 10v69q0 8 15 23l217 255q6 7 13 3l65 -54q8 -8 4 -14z" />
    <glyph glyph-name="uniFB9E" unicode="&#x6ba;" horiz-adv-x="595" arabic-form="isolated" 
d="M103 223q5 9 15 2l81 -32q8 -4 4 -13q-45 -79 -45 -148q0 -72 40.5 -104.5t94.5 -32.5q128 0 128 129v297q0 10 10 10h93q10 0 10 -10v-300q0 -112 -65.5 -170t-179.5 -58q-110 0 -177.5 58.5t-67.5 170.5q0 108 59 201z" />
    <glyph glyph-name="aNunGhunna.fina" unicode="&#x6ba;" horiz-adv-x="628" arabic-form="final" 
d="M421 24v297q0 10 10 10h93q10 0 10 -10v-160q0 -30 22 -46t61 -16h11q40 0 40 -48q0 -29 -9 -40t-31 -11q-67 0 -94 32v-11q0 -112 -65.5 -170t-179.5 -58q-110 0 -177.5 58.5t-67.5 170.5q0 108 59 201q5 9 15 2l81 -32q8 -4 4 -13q-45 -79 -45 -148q0 -72 40.5 -104.5
t94.5 -32.5q128 0 128 129z" />
    <glyph glyph-name="aHehYeh.fina" unicode="&#x6c0;" horiz-adv-x="534" arabic-form="final" 
d="M144 593h37q-16 27 -16 57q0 39 26.5 69.5t79.5 30.5q59 0 85 -38q3 -6 0 -9l-26 -25q-6 -5 -10 -1q-23 23 -48 23q-23 0 -36 -14.5t-13 -36.5q0 -37 32 -56h102q6 0 6 -7v-37q0 -7 -6 -7h-213q-6 0 -6 7v37q0 7 6 7zM242 140q94 0 94 108v85h-89q-46 0 -70.5 -23.5
t-24.5 -79.5q0 -90 90 -90zM237 433h99v43q0 10 10 10h93q10 0 10 -10v-324q0 -29 11.5 -41t36.5 -12h37q40 0 40 -50q0 -29 -9 -39t-31 -10h-81q-50 0 -77 17.5t-36 59.5q-42 -36 -111 -36q-83 0 -136 47.5t-53 141.5q0 108 55.5 155.5t141.5 47.5z" />
    <glyph glyph-name="uniFBA6" unicode="&#x6c1;" horiz-adv-x="507" arabic-form="isolated" 
d="M250 333q-95 0 -95 -121q0 -63 23 -91.5t72 -28.5q48 0 71 28.5t23 91.5q0 121 -94 121zM250 -7q-206 0 -206 217q0 117 55.5 170t150.5 53t150.5 -53t55.5 -170q0 -112 -55 -164.5t-151 -52.5z" />
    <glyph glyph-name="aHehGoal.fina" unicode="&#x6c1;" horiz-adv-x="514" arabic-form="final" 
d="M416 405v-234q0 -38 13 -55t53 -17h32q22 0 31 -11.5t9 -40.5q0 -26 -9.5 -36.5t-30.5 -10.5h-67q-144 0 -144 141v169h-58q-52 0 -72 -27t-20 -89v-184q0 -10 -10 -10h-93q-10 0 -10 10v218q0 187 197 187h169q10 0 10 -10z" />
    <glyph glyph-name="aHehGoal.init" unicode="&#x6c1;" horiz-adv-x="285" arabic-form="initial" 
d="M193 -158q-9 -1 -29 -1q-55 0 -92.5 26.5t-37.5 87.5q0 28 4 45h-38q-21 0 -30.5 7.5t-9.5 27.5q0 27 10 45.5t30 18.5h49q25 0 36.5 12t11.5 41v253q0 10 10 10h93q10 0 10 -10v-279q0 -55 -19.5 -85t-61.5 -38q-4 -12 -4 -29q0 -49 68 -49q10 0 10 -10v-63
q0 -9 -10 -10z" />
    <glyph glyph-name="aHehGoal.medi" unicode="&#x6c1;" horiz-adv-x="464" arabic-form="medial" 
d="M0 99h158q10 0 10 -10v-79q0 -51 17 -71.5t63 -20.5v31q0 75 38.5 112.5t104.5 37.5h73q21 0 30.5 -10.5t9.5 -36.5q0 -29 -9 -40.5t-31 -11.5h-45q-33 0 -47.5 -15t-14.5 -52v-111q0 -10 -10 -10h-84q-98 0 -151 39.5t-53 116.5v32h-59q-40 0 -40 49q0 28 9 39t31 11z
" />
    <glyph glyph-name="uniFBAA" unicode="&#x6be;" horiz-adv-x="698" arabic-form="isolated" 
d="M313 238q-28 0 -43.5 -18.5t-15.5 -52.5q0 -65 53 -70h11q52 0 52 70q0 71 -57 71zM475 0h-317q-23 0 -29.5 -6.5t-6.5 -27.5v-37q0 -10 -10 -10h-93q-10 0 -10 10v93q0 77 88 77h86q-14 33 -14 70q0 74 41 111t103 37q66 0 106 -37.5t40 -110.5q0 -40 -10 -70
q49 0 65 23t16 79q0 77 -42.5 119.5t-128.5 42.5q-78 0 -147 -31q-4 -4 -10 -4q-5 0 -6 4l-24 61q0 2 -0.5 4t-1.5 3v2q0 5 5 8q94 49 204 49q76 0 130.5 -22t83.5 -60.5t41.5 -81t12.5 -92.5q0 -111 -39 -157t-133 -46z" />
    <glyph glyph-name="aHehDoachashmi.fina" unicode="&#x6be;" horiz-adv-x="658" arabic-form="final" 
d="M386 -117q86 0 86 59q0 61 -70 61h-107v-52q0 -68 91 -68zM389 333q-43 0 -68.5 -31t-25.5 -90v-114h99q43 0 65 34.5t22 83.5q0 117 -92 117zM97 99h87v112q0 113 60 167.5t148 54.5q90 0 145 -49.5t55 -154.5q0 -74 -35 -130h102q22 0 31 -10.5t9 -38.5q0 -50 -40 -50
h-97q21 -28 21 -69q0 -69 -52 -106.5t-143 -37.5q-204 0 -204 156v57h-26q-23 0 -29.5 -6.5t-6.5 -27.5v-37q0 -10 -10 -10h-93q-10 0 -10 10v93q0 77 88 77z" />
    <glyph glyph-name="aHehDoachashmi.init" unicode="&#x6be;" horiz-adv-x="626" arabic-form="initial" 
d="M241 238q-28 0 -43.5 -18.5t-15.5 -52.5q0 -65 53 -70h11q52 0 52 70q0 71 -57 71zM403 0h-403q-40 0 -40 49q0 28 9 39t31 11h111q-14 33 -14 70q0 74 41 111t103 37q66 0 106 -37.5t40 -110.5q0 -40 -10 -70q49 0 65 23t16 79q0 77 -42.5 119.5t-128.5 42.5
q-78 0 -147 -31q-4 -4 -10 -4q-5 0 -6 4l-24 61q0 2 -0.5 4t-1.5 3v2q0 5 5 8q94 49 204 49q76 0 130.5 -22t83.5 -60.5t41.5 -81t12.5 -92.5q0 -111 -39 -157t-133 -46z" />
    <glyph glyph-name="aHehDoachashmi.medi" unicode="&#x6be;" horiz-adv-x="572" arabic-form="medial" 
d="M300 -116q86 0 86 58q0 32 -19.5 47t-74.5 15h-83v-53q0 -67 91 -67zM300 333q-43 0 -67 -28.5t-24 -81.5v-125h99q43 0 65 35t22 85q0 115 -95 115zM-40 50q0 28 9 38.5t31 10.5h98v114q0 114 57 167t144 53q95 0 151 -49.5t56 -152.5q0 -76 -35 -132h102q22 0 31 -10.5
t9 -38.5q0 -50 -40 -50h-97q21 -28 21 -70q0 -68 -51.5 -105.5t-143.5 -37.5q-204 0 -204 155v58h-98q-40 0 -40 50z" />
    <glyph glyph-name="uniFBAE" unicode="&#x6d2;" horiz-adv-x="766" arabic-form="isolated" 
d="M344 346q-20 -31 -56 -60t-66 -47t-53 -41t-23 -45q0 -54 90 -54h500q10 0 10 -10v-79q0 -10 -10 -10h-503q-101 0 -149 37t-48 99q0 35 16 66t43 57t55.5 49t60.5 51t51 53q7 7 15 1l66 -53q6 -6 1 -14z" />
    <glyph glyph-name="aYehBarri.fina" unicode="&#x6d2;" horiz-adv-x="341" arabic-form="final" 
d="M212 -103h359q10 0 10 -10v-79q0 -10 -10 -10h-374q-90 0 -132 38.5t-42 104.5q0 76 49 117t127 41h142q21 0 30.5 -10t9.5 -37q0 -30 -9 -41t-31 -11h-139q-67 0 -67 -55q0 -29 17.5 -38.5t59.5 -9.5z" />
    <glyph glyph-name="uniFBB0" unicode="&#x6d3;" horiz-adv-x="819" arabic-form="isolated" 
d="M351 346q-20 -31 -56 -60t-66 -47t-53 -41t-23 -45q0 -54 90 -54h500q10 0 10 -10v-79q0 -10 -10 -10h-503q-101 0 -149 37t-48 99q0 35 16 66t43 57t55.5 49t60.5 51t51 53q7 7 15 1l66 -53q6 -6 1 -14zM54 489h37q-16 27 -16 57q0 39 26.5 69.5t79.5 30.5q57 0 85 -38
q3 -6 0 -9l-26 -25q-6 -5 -10 -1q-23 23 -48 23q-23 0 -36 -14.5t-13 -36.5q0 -37 32 -56h101q6 0 6 -7v-37q0 -7 -6 -7h-212q-6 0 -6 7v37q0 7 6 7z" />
    <glyph glyph-name="aYehBarriHamzaabove.fina" unicode="&#x6d3;" horiz-adv-x="341" arabic-form="final" 
d="M55 210h37q-16 27 -16 57q0 39 26.5 69.5t79.5 30.5q57 0 85 -38q3 -6 0 -9l-26 -25q-6 -5 -10 -1q-23 23 -48 23q-23 0 -36 -14.5t-13 -36.5q0 -37 32 -56h101q6 0 6 -7v-37q0 -7 -6 -7h-212q-6 0 -6 7v37q0 7 6 7zM212 -103h359q10 0 10 -10v-79q0 -10 -10 -10h-374
q-90 0 -132 38.5t-42 104.5q0 76 49 117t127 41h142q21 0 30.5 -10t9.5 -37q0 -30 -9 -41t-31 -11h-139q-67 0 -67 -55q0 -29 17.5 -38.5t59.5 -9.5z" />
    <glyph glyph-name="aAlifMaksura.init" unicode="&#x649;" horiz-adv-x="275" arabic-form="initial" 
d="M93 0h-93q-21 0 -30.5 7.5t-9.5 27.5q0 27 10 45.5t30 18.5h49q25 0 36.5 12t11.5 41v253q0 10 10 10h93q10 0 10 -10v-279q0 -66 -27 -96t-90 -30z" />
    <glyph glyph-name="aAlifMaksura.medi" unicode="&#x649;" horiz-adv-x="310" arabic-form="medial" 
d="M210 405v-244q0 -30 22 -46t61 -16h17q40 0 40 -48q0 -29 -9 -40t-31 -11q-44 0 -71 10.5t-43 40.5q-14 -29 -41 -40t-76 -11h-79q-22 0 -31 7t-9 28q0 27 10.5 45.5t30.5 18.5h48q32 0 40 18.5t8 75.5v212q0 10 10 10h93q10 0 10 -10z" />
    <glyph glyph-name="uniFBFC" unicode="&#x6cc;" horiz-adv-x="792" arabic-form="isolated" 
d="M148 31q0 -70 45.5 -100.5t111.5 -30.5h199q101 0 101 54q0 17 -23.5 36t-56.5 39.5t-66 45.5t-56.5 63t-23.5 82q0 74 54.5 123.5t141.5 49.5q116 0 181 -78q6 -7 -3 -14l-54 -53q-8 -6 -14 1q-44 44 -104 44q-36 0 -61.5 -19.5t-25.5 -53.5q0 -26 23.5 -51.5t57 -48
t67.5 -47t57.5 -57.5t23.5 -70q0 -66 -49 -107t-150 -41h-233q-127 0 -192 59t-65 164q0 108 59 201q5 9 15 2l81 -32q8 -4 4 -13q-45 -79 -45 -148z" />
    <glyph glyph-name="aYehFarsi.fina" unicode="&#x6cc;" horiz-adv-x="773" arabic-form="final" 
d="M310 -100h195q104 0 104 53q0 34 -48 58q-18 10 -150 59q-9 3 -6 12l27 79q3 10 12 7q19 -7 59 -23.5t60.5 -24t51.5 -14.5t58 -7h100q21 0 30.5 -10t9.5 -36q0 -29 -9.5 -41t-30.5 -12h-69q18 -28 18 -63q0 -61 -48.5 -100t-149.5 -39h-228q-127 0 -192 59t-65 164
q0 53 19 109.5t46 93.5q5 8 14 2l79 -41q8 -5 3 -13q-46 -74 -46 -141q0 -69 45 -100t111 -31z" />
    <glyph glyph-name="aYehFarsi.init" unicode="&#x6cc;" horiz-adv-x="297" arabic-form="initial" 
d="M109 0h-109q-21 0 -30.5 10t-9.5 36q0 29 9.5 41t30.5 12h65q25 0 36.5 12t11.5 41v253q0 10 10 10h93q10 0 10 -10v-279q0 -66 -27 -96t-90 -30zM120 -192h-84q-10 0 -10 10v86q0 10 10 10h84q10 0 10 -10v-86q0 -10 -10 -10zM250 -192h-84q-10 0 -10 10v86q0 10 10 10
h84q10 0 10 -10v-86q0 -10 -10 -10z" />
    <glyph glyph-name="aYehFarsi.medi" unicode="&#x6cc;" horiz-adv-x="331" arabic-form="medial" 
d="M152 -192h-84q-10 0 -10 10v86q0 10 10 10h84q10 0 10 -10v-86q0 -10 -10 -10zM282 -192h-84q-10 0 -10 10v86q0 10 10 10h84q10 0 10 -10v-86q0 -10 -10 -10zM217 51q-14 -28 -41.5 -39.5t-77.5 -11.5h-93q-21 0 -30.5 10t-9.5 37q0 29 9.5 40.5t30.5 11.5h65
q33 0 40.5 19.5t7.5 78.5v208q0 10 17 10h86q10 0 10 -10v-244q0 -30 22 -46t61 -16h17q40 0 40 -48q0 -29 -9 -40t-31 -11q-44 0 -71 10.5t-43 40.5z" />
    <glyph glyph-name="aShadda_aDammatan" unicode="&#xfc5e;" horiz-adv-x="0" arabic-form="isolated" 
d="M-127 829v71q0 10 10 10h20q10 0 10 -10v-74q0 -40 34 -40t34 36v78q0 10 10 10h20q10 0 10 -10v-78q0 -36 34 -36t34 40v74q0 10 10 10h20q10 0 10 -10v-71q0 -36 -19.5 -58.5t-54.5 -22.5q-36 0 -55 22q-19 -22 -54 -22t-54 22.5t-19 58.5zM50 1067h33q1 5 1 17
q0 55 -38 55q-19 0 -28.5 -12t-9.5 -28q0 -17 13.5 -24.5t28.5 -7.5zM-135 1081h-11q-10 0 -10 10v17q0 10 10 10h8q34 0 55 -22t21 -68q0 -23 12.5 -29.5t45.5 -6.5q66 0 79 40h-30q-35 0 -54.5 18t-19.5 49q0 32 21.5 54t53.5 22q34 0 54.5 -22.5t20.5 -68.5
q0 -128 -125 -128q-47 0 -71.5 14t-24.5 58q0 53 -35 53z" />
    <glyph glyph-name="aShadda_aKasratan" unicode="&#xfc5f;" horiz-adv-x="0" arabic-form="isolated" 
d="M-127 979v71q0 10 10 10h20q10 0 10 -10v-74q0 -40 34 -40t34 36v78q0 10 10 10h20q10 0 10 -10v-78q0 -36 34 -36t34 40v74q0 10 10 10h20q10 0 10 -10v-71q0 -36 -19.5 -58.5t-54.5 -22.5q-36 0 -55 22q-19 -22 -54 -22t-54 22.5t-19 58.5zM129 815h-254q-10 0 -10 10
v17q0 10 10 10h254q10 0 10 -10v-17q0 -10 -10 -10zM129 750h-254q-10 0 -10 10v17q0 10 10 10h254q10 0 10 -10v-17q0 -10 -10 -10z" />
    <glyph glyph-name="aShadda_aFatha" unicode="&#xfc60;" horiz-adv-x="0" arabic-form="isolated" 
d="M124 960h-254q-10 0 -10 10v17q0 10 10 10h254q10 0 10 -10v-17q0 -10 -10 -10zM-127 829v71q0 10 10 10h20q10 0 10 -10v-74q0 -40 34 -40t34 36v78q0 10 10 10h20q10 0 10 -10v-78q0 -36 34 -36t34 40v74q0 10 10 10h20q10 0 10 -10v-71q0 -36 -19.5 -58.5t-54.5 -22.5
q-36 0 -55 22q-19 -22 -54 -22t-54 22.5t-19 58.5z" />
    <glyph glyph-name="aShadda_aDamma" unicode="&#xfc61;" horiz-adv-x="0" arabic-form="isolated" 
d="M-74 991h29q62 0 80 39h-31q-35 0 -54.5 18t-19.5 50t21.5 54t53.5 22q34 0 55 -23t21 -69q0 -128 -126 -128h-29q-10 0 -10 10v17q0 10 10 10zM9 1065h34v17q0 55 -38 55q-18 0 -28 -12t-10 -27q0 -18 13.5 -25.5t28.5 -7.5zM-127 829v71q0 10 10 10h20q10 0 10 -10v-74
q0 -40 34 -40t34 36v78q0 10 10 10h20q10 0 10 -10v-78q0 -36 34 -36t34 40v74q0 10 10 10h20q10 0 10 -10v-71q0 -36 -19.5 -58.5t-54.5 -22.5q-36 0 -55 22q-19 -22 -54 -22t-54 22.5t-19 58.5z" />
    <glyph glyph-name="aShadda_aKasra" unicode="&#xfc62;" horiz-adv-x="0" arabic-form="isolated" 
d="M124 752h-254q-10 0 -10 10v17q0 10 10 10h254q10 0 10 -10v-17q0 -10 -10 -10zM-127 919v71q0 10 10 10h20q10 0 10 -10v-74q0 -40 34 -40t34 36v78q0 10 10 10h20q10 0 10 -10v-78q0 -36 34 -36t34 40v74q0 10 10 10h20q10 0 10 -10v-71q0 -36 -19.5 -58.5t-54.5 -22.5
q-36 0 -55 22q-19 -22 -54 -22t-54 22.5t-19 58.5z" />
    <glyph glyph-name="aShadda_aAlifabove" unicode="&#xfc63;" horiz-adv-x="0" arabic-form="isolated" 
d="M-127 829v71q0 10 10 10h20q10 0 10 -10v-74q0 -40 34 -40t34 36v78q0 10 10 10h20q10 0 10 -10v-78q0 -36 34 -36t34 40v74q0 10 10 10h20q10 0 10 -10v-71q0 -36 -19.5 -58.5t-54.5 -22.5q-36 0 -55 22q-19 -22 -54 -22t-54 22.5t-19 58.5zM21 1094v-124q0 -10 -10 -10
h-22q-10 0 -10 10v124q0 10 10 10h22q10 0 10 -10z" />
    <glyph glyph-name="aAllah" unicode="&#xfdf2;" horiz-adv-x="1411" arabic-form="isolated" 
d="M1346 670v-660q0 -10 -10 -10h-93q-10 0 -10 10v660q0 10 10 10h93q10 0 10 -10zM237 140q94 0 94 108v85h-89q-46 0 -70.5 -23.5t-24.5 -79.5q0 -90 90 -90zM932 0h-99q-41 0 -66.5 10.5t-41.5 40.5q-26 -51 -112 -51h-165q-50 0 -77 17.5t-36 59.5q-42 -36 -111 -36
q-83 0 -136 47.5t-53 141.5q0 108 55.5 155.5t140.5 47.5h100v43q0 10 10 10h92q10 0 10 -10v-324q0 -29 11.5 -41t36.5 -12h87q25 0 36.5 12t11.5 41v518q0 10 10 10h93q10 0 10 -10v-509q0 -30 22 -46t61 -16h66q25 0 36.5 12t11.5 41v518q0 10 10 10h93q10 0 10 -10v-544
q0 -66 -27 -96t-90 -30z" />
    <glyph glyph-name="aAllahlong" unicode="&#xfdfa;" horiz-adv-x="1057" arabic-form="isolated" 
d="M979 10q-6 32 -26 32q-16 0 -20 -25q5 -18 31 -18q13 0 15 11zM214 -39q0 19 -24 35q-20 14 -34 14t-14 -12t26 -27q27 -15 39 -15q7 0 7 5zM190 448l-1 39q-16 -9 -41 -17q-34 -16 -34 -25q0 -10 25 -10q29 0 51 13zM324 665q0 -32 -21 -32q-13 0 -21 8q-18 -15 -30 -15
q-21 0 -21 27q0 19 3 27l6 6q0 -37 17 -37q12 0 19 16l-2 23l9 14l4 -30q1 -16 15 -16q11 0 11 12q0 2 -3 25l7 10q7 -15 7 -38zM171 225l-2 38q-88 -34 -88 -52q0 -10 31 -10q34 0 59 24zM618 612l197 93l-6 -22l-195 -96zM632 -121q0 -16 -2 -30q-6 -13 -25 -13
q-10 0 -14 4q-15 -16 -30 -16q-6 0 -16.5 8.5t-12.5 8.5q-8 0 -37 -17q-29 -18 -70 -18q-44 0 -44 8q0 7 32 7t46 2q18 3 35 16q28 19 40 19q6 0 19 -8l13 -8q15 0 18 17q1 13 11 13q4 0 4 -6q0 -8 -1 -9q1 -4 11 -6q12 0 12 12q0 16 11 16zM989 420q0 7 -18 16q-17 9 -26 9
q-21 0 -60 -24q-37 -24 -47 -34q2 -1 20 -1q43 0 82 8q49 10 49 26zM553 74l49 -37l-26 -31l-48 35l-28 -36l-50 36l29 35l47 -35zM460 673l16 -226q-3 -66 -13 -73l-25 242zM979 664l-9 -25q-39 -14 -116 -51q-96 -46 -96 -61q0 -11 26 -25l-9 -24q-33 10 -33 40
q0 29 26 44q135 76 211 102zM1008 2q0 -50 -39 -108q-42 -64 -89 -64q-26 0 -59 16q-37 16 -37 23q0 4 5 4q9 0 27 -7q22 -8 37 -8q68 0 138 106l-7 22q-18 -26 -37 -26q-15 0 -25.5 13.5t-10.5 31.5q0 21 15 50q16 31 28 31t32 -24q22 -25 22 -60zM1017 437q0 -14 -16 -39
q-15 -24 -31 -31q-46 -21 -116 -21q-37 0 -48 2q-24 -47 -38 -47q-4 0 -4 6q0 16 22 47q-44 17 -48 26q-41 -26 -50 -26q7 -139 25 -176q19 -38 87 -39q-22 16 -22 44q0 32 32 76q24 32 61 32q27 0 53 -17q24 -17 24 -31q-26 9 -52 9q-35 0 -65 -14q-26 -12 -26 -27
q0 -14 25 -39q23 -24 44 -29q19 2 68 18q58 19 67 25l-17 -37q-101 -53 -191 -53q-97 0 -119 73q-30 -65 -57 -65q-26 0 -67 44q-65 -56 -197 -56q-37 0 -70 5q4 -33 9 -52q9 -36 23 -50q44 -44 176 -44q112 0 165 32q15 37 28 37q4 0 4 -8q0 -14 -12 -44q6 -13 27 -13
q27 0 49 12q21 66 33 66q4 0 4 -11q0 -22 -10 -43q27 -13 44 -13q8 0 8 4q0 1 -8 38l17 36q12 -36 12 -52q0 -67 -44 -67q-23 0 -48 19q-15 -26 -59 -26q-48 0 -48 26q-19 -13 -64 -24q-48 -11 -121 -11q-97 0 -143 28q-59 35 -60 126l-22 -32q-16 -24 -26 -26
q12 -21 12 -41q0 -26 -16 -42q-8 -8 -21 -8q-20 0 -61 23q-13 -30 -42 -47q-5 -3 -24 -5t-21 -2l-11 -4q-6 0 -6 5q0 4 24 15q32 12 39 19l34 26q-10 16 -10 40q0 21 18 41q18 21 34 21q2 -1 6 -2q16 -10 29 -10q18 0 36 23l23 42q-39 12 -55 27q-29 26 -41 85
q-29 -50 -79 -50q-18 0 -39 8q-16 6 -16 12q0 25 43 58q38 29 85 44l-2 17l20 33q8 -108 21 -141q13 -31 56 -45l-13 132l19 43l17 -180q52 -6 95 -6q104 0 177 40q14 38 19 38q4 0 4 -9q0 -13 -4 -25q38 -35 59 -35q26 0 42 43l-13 161q-73 0 -90 74q-8 -32 -14 -42
q-11 -25 -27 -30l3 -3q36 0 52.5 -8.5t16.5 -29.5q0 -30 -25 -46q-86 -59 -160 -59q-46 0 -74 23.5t-28 65.5q0 35 16 67q-27 7 -38 43q-18 -51 -57 -51q-47 0 -47 77l-27 -24q-7 -7 -39 -7q-49 0 -49 18q0 12 13 31q13 22 25 27l76 37v10l17 36l4 -120q1 -42 32 -42
q15 0 29.5 10.5t16.5 22.5l-16 114l18 39l28 -161q9 -21 33 -21q23 0 23 13q0 25 -16 74q-2 7 -20 65l13 33q40 -121 40 -157q0 -20 -10 -44q-12 -28 -25 -28q-5 0 -9 3q-7 -17 -7 -39q0 -75 91 -75q72 0 142 48q2 2 2 3q0 6 -38 12q-60 9 -61 10q-4 3 -4 8q0 9 17 32
q60 25 64 53q1 1 1 14q0 94 -20 231l17 56q23 -205 38 -256q18 -57 72 -66l-5 96l21 45l8 -140q28 11 60 36l30 -21q13 -9 39 -15q20 21 65 55q53 38 70 38q18 0 41 -14q26 -15 26 -33z" />
    <glyph glyph-name="uniFE80" unicode="&#x621;" horiz-adv-x="405" arabic-form="isolated" 
d="M29 84h58q-24 37 -24 88q0 65 42.5 113t127.5 48q90 0 135 -61q5 -8 0 -15l-42 -41q-9 -7 -16 0q-36 34 -76 34q-36 0 -56 -21.5t-20 -57.5q0 -54 44 -87h168q10 0 10 -11v-62q0 -11 -10 -11h-341q-10 0 -10 11v62q0 11 10 11z" />
    <glyph glyph-name="uniFE81" unicode="&#x622;" horiz-adv-x="243" arabic-form="isolated" 
d="M178 670v-660q0 -10 -10 -10h-93q-10 0 -10 10v660q0 10 10 10h93q10 0 10 -10zM-60 770q18 73 81 73q31 0 95 -26.5t92 -26.5q16 0 22 7.5t6 26.5q0 10 10 10h37q10 0 10 -10q0 -94 -77 -94q-39 0 -102.5 25t-83.5 25q-24 0 -33 -28q-3 -10 -13 -7l-37 12q-8 3 -7 13z
" />
    <glyph glyph-name="aAlifMadda.fina" unicode="&#x622;" horiz-adv-x="261" arabic-form="final" 
d="M-59 770q18 73 81 73q30 0 95 -26.5t92 -26.5q16 0 22 7.5t6 26.5q0 10 10 10h37q10 0 10 -10q0 -94 -77 -94q-39 0 -102.5 25t-83.5 25q-24 0 -33 -28q-3 -10 -13 -7l-37 12q-8 3 -7 13zM65 126v544q0 10 10 10h93q10 0 10 -10v-518q0 -29 11.5 -41t36.5 -12h35
q40 0 40 -51q0 -29 -9 -38.5t-31 -9.5h-79q-63 0 -90 30t-27 96z" />
    <glyph glyph-name="uniFE83" unicode="&#x623;" horiz-adv-x="243" arabic-form="isolated" 
d="M178 670v-660q0 -10 -10 -10h-93q-10 0 -10 10v660q0 10 10 10h93q10 0 10 -10zM13 781h37q-16 27 -16 57q0 39 26.5 69.5t79.5 30.5q57 0 85 -38q3 -6 0 -9l-26 -25q-6 -5 -10 -1q-23 23 -48 23q-23 0 -36 -14.5t-13 -36.5q0 -37 32 -56h101q6 0 6 -7v-37q0 -7 -6 -7
h-212q-6 0 -6 7v37q0 7 6 7z" />
    <glyph glyph-name="aAlifHamza.fina" unicode="&#x623;" horiz-adv-x="261" arabic-form="final" 
d="M65 126v544q0 10 10 10h93q10 0 10 -10v-518q0 -29 11.5 -41t36.5 -12h35q40 0 40 -51q0 -29 -9 -38.5t-31 -9.5h-79q-63 0 -90 30t-27 96zM16 781h37q-16 27 -16 57q0 39 26.5 69.5t79.5 30.5q57 0 85 -38q3 -6 0 -9l-26 -25q-6 -5 -10 -1q-23 23 -48 23
q-23 0 -36 -14.5t-13 -36.5q0 -37 32 -56h101q6 0 6 -7v-37q0 -7 -6 -7h-212q-6 0 -6 7v37q0 7 6 7z" />
    <glyph glyph-name="uniFE85" unicode="&#x624;" horiz-adv-x="521" arabic-form="isolated" 
d="M266 333q-45 0 -70.5 -33.5t-25.5 -91.5q0 -60 24 -84.5t75 -24.5h89v114q0 120 -92 120zM358 0h-101q-97 0 -147 47.5t-50 157.5q0 116 58 172t147 56q204 0 204 -221v-234q0 -93 -46 -136.5t-138 -43.5h-135q-10 0 -10 10v80q0 10 10 10h117q46 0 68.5 20.5t22.5 81.5z
M144 563h34q-16 23 -16 53q0 38 27.5 67.5t83.5 29.5q64 0 92 -40q3 -7 -1 -10l-30 -28q-3 -3 -8 2q-22 22 -53 22q-23 0 -36 -13t-13 -33q0 -33 31 -50h109q6 0 6 -7v-39q0 -7 -6 -7h-220q-6 0 -6 7v39q0 7 6 7z" />
    <glyph glyph-name="aWawHamza.fina" unicode="&#x624;" horiz-adv-x="528" arabic-form="final" 
d="M256 333q-45 0 -70.5 -34t-25.5 -91q0 -60 24 -84.5t75 -24.5h89v114q0 120 -92 120zM275 -202h-135q-10 0 -10 10v80q0 10 10 10h117q48 0 69.5 21.5t21.5 80.5h-101q-97 0 -147 47.5t-50 157.5q0 116 58 172t147 56q204 0 204 -221v-113h69q40 0 40 -48q0 -31 -9 -41
t-31 -10h-69v-22q0 -93 -46 -136.5t-138 -43.5zM147 563h34q-16 23 -16 53q0 38 27.5 67.5t83.5 29.5q64 0 92 -40q3 -7 -1 -10l-30 -28q-3 -3 -8 2q-22 22 -53 22q-23 0 -36 -13t-13 -33q0 -33 31 -50h109q6 0 6 -7v-39q0 -7 -6 -7h-220q-6 0 -6 7v39q0 7 6 7z" />
    <glyph glyph-name="uniFE87" unicode="&#x625;" horiz-adv-x="243" arabic-form="isolated" 
d="M178 670v-660q0 -10 -10 -10h-93q-10 0 -10 10v660q0 10 10 10h93q10 0 10 -10zM11 -227h37q-16 27 -16 58q0 39 26.5 69t79.5 30q58 0 85 -37q4 -6 0 -10l-26 -24q-6 -6 -10 -2q-21 23 -48 23q-23 0 -36 -14t-13 -36q0 -34 32 -57h101q6 0 6 -7v-36q0 -7 -6 -7h-212
q-6 0 -6 7v36q0 7 6 7z" />
    <glyph glyph-name="aAlifHamzabelow.fina" unicode="&#x625;" horiz-adv-x="261" arabic-form="final" 
d="M65 126v544q0 10 10 10h93q10 0 10 -10v-518q0 -29 11.5 -41t36.5 -12h35q40 0 40 -51q0 -29 -9 -38.5t-31 -9.5h-79q-63 0 -90 30t-27 96zM14 -227h37q-16 27 -16 58q0 39 26.5 69t79.5 30q58 0 85 -37q4 -6 0 -10l-26 -24q-6 -6 -10 -2q-21 23 -48 23q-23 0 -36 -14
t-13 -36q0 -34 32 -57h101q6 0 6 -7v-36q0 -7 -6 -7h-212q-6 0 -6 7v36q0 7 6 7z" />
    <glyph glyph-name="uniFE89" unicode="&#x626;" horiz-adv-x="792" arabic-form="isolated" 
d="M70 387h34q-16 23 -16 53q0 38 27.5 67.5t83.5 29.5q64 0 92 -40q3 -7 -1 -10l-30 -28q-3 -3 -8 2q-22 22 -53 22q-23 0 -36 -13t-13 -33q0 -33 31 -50h109q6 0 6 -7v-39q0 -7 -6 -7h-220q-6 0 -6 7v39q0 7 6 7zM148 31q0 -70 45.5 -100.5t111.5 -30.5h199q101 0 101 54
q0 17 -23.5 36t-56.5 39.5t-66 45.5t-56.5 63t-23.5 82q0 74 54.5 123.5t141.5 49.5q116 0 181 -78q6 -7 -3 -14l-54 -53q-8 -6 -14 1q-44 44 -104 44q-36 0 -61.5 -19.5t-25.5 -53.5q0 -26 23.5 -51.5t57 -48t67.5 -47t57.5 -57.5t23.5 -70q0 -66 -49 -107t-150 -41h-233
q-127 0 -192 59t-65 164q0 108 59 201q5 9 15 2l81 -32q8 -4 4 -13q-45 -79 -45 -148z" />
    <glyph glyph-name="aYehHamza.fina" unicode="&#x626;" horiz-adv-x="773" arabic-form="final" 
d="M76 387h34q-16 23 -16 53q0 38 27.5 67.5t83.5 29.5q64 0 92 -40q3 -7 -1 -10l-30 -28q-3 -3 -8 2q-22 22 -53 22q-23 0 -36 -13t-13 -33q0 -33 31 -50h109q6 0 6 -7v-39q0 -7 -6 -7h-220q-6 0 -6 7v39q0 7 6 7zM310 -100h195q104 0 104 53q0 34 -48 58q-18 10 -150 59
q-9 3 -6 12l27 79q3 10 12 7q19 -7 59 -23.5t60.5 -24t51.5 -14.5t58 -7h100q21 0 30.5 -10t9.5 -36q0 -29 -9.5 -41t-30.5 -12h-69q18 -28 18 -63q0 -61 -48.5 -100t-149.5 -39h-228q-127 0 -192 59t-65 164q0 53 19 109.5t46 93.5q5 8 14 2l79 -41q8 -5 3 -13
q-46 -74 -46 -141q0 -69 45 -100t111 -31z" />
    <glyph glyph-name="aYehHamza.init" unicode="&#x626;" horiz-adv-x="287" arabic-form="initial" 
d="M45 563h34q-16 23 -16 53q0 38 27.5 67.5t83.5 29.5q64 0 92 -40q3 -7 -1 -10l-30 -28q-3 -3 -8 2q-22 22 -53 22q-23 0 -36 -13t-13 -33q0 -33 31 -50h109q6 0 6 -7v-39q0 -7 -6 -7h-220q-6 0 -6 7v39q0 7 6 7zM98 0h-93q-21 0 -30.5 7.5t-9.5 27.5q0 27 10 45.5
t30 18.5h49q25 0 36.5 12t11.5 41v253q0 10 10 10h93q10 0 10 -10v-279q0 -66 -27 -96t-90 -30z" />
    <glyph glyph-name="aYehHamza.medi" unicode="&#x626;" horiz-adv-x="310" arabic-form="medial" 
d="M47 563h34q-16 23 -16 53q0 38 27.5 67.5t83.5 29.5q64 0 92 -40q3 -7 -1 -10l-30 -28q-3 -3 -8 2q-22 22 -53 22q-23 0 -36 -13t-13 -33q0 -33 31 -50h109q6 0 6 -7v-39q0 -7 -6 -7h-220q-6 0 -6 7v39q0 7 6 7zM215 405v-244q0 -30 22 -46t61 -16h17q40 0 40 -48
q0 -29 -9 -40t-31 -11q-44 0 -71 10.5t-43 40.5q-14 -29 -41 -40t-76 -11h-79q-22 0 -31 7t-9 28q0 27 10.5 45.5t30.5 18.5h48q32 0 40 18.5t8 75.5v212q0 10 10 10h93q10 0 10 -10z" />
    <glyph glyph-name="uniFE8D" unicode="&#x627;" horiz-adv-x="243" arabic-form="isolated" 
d="M178 670v-660q0 -10 -10 -10h-93q-10 0 -10 10v660q0 10 10 10h93q10 0 10 -10z" />
    <glyph glyph-name="aAlif.fina" unicode="&#x627;" horiz-adv-x="261" arabic-form="final" 
d="M65 126v544q0 10 10 10h93q10 0 10 -10v-518q0 -29 11.5 -41t36.5 -12h35q40 0 40 -51q0 -29 -9 -38.5t-31 -9.5h-79q-63 0 -90 30t-27 96z" />
    <glyph glyph-name="uniFE8F" unicode="&#x628;" horiz-adv-x="839" arabic-form="isolated" 
d="M213 99h414q27 0 38 11.5t11 41.5v253q0 10 10 10h92q10 0 10 -10v-279q0 -67 -27 -96.5t-92 -29.5h-499q-63 0 -90 30t-27 96v215q0 10 10 10h92q10 0 10 -10v-189q0 -29 11.5 -41t36.5 -12zM467 -192h-96q-10 0 -10 10v86q0 10 10 10h96q10 0 10 -10v-86q0 -10 -10 -10
z" />
    <glyph glyph-name="aBeh.fina" unicode="&#x628;" horiz-adv-x="883" arabic-form="final" 
d="M788 405v-247q0 -29 22.5 -44t60.5 -15h17q40 0 40 -48q0 -29 -9 -40t-31 -11q-43 0 -70 10.5t-43 40.5q-14 -28 -41 -39.5t-75 -11.5h-489q-63 0 -90 30t-27 96v215q0 10 10 10h92q10 0 10 -10v-189q0 -29 11.5 -41t36.5 -12h414q32 0 40.5 17.5t8.5 69.5v219
q0 10 10 10h92q10 0 10 -10zM467 -192h-96q-10 0 -10 10v86q0 10 10 10h96q10 0 10 -10v-86q0 -10 -10 -10z" />
    <glyph glyph-name="aBeh.init" unicode="&#x628;" horiz-adv-x="275" arabic-form="initial" 
d="M185 -190h-96q-10 0 -10 10v86q0 10 10 10h96q10 0 10 -10v-86q0 -10 -10 -10zM93 0h-93q-21 0 -30.5 7.5t-9.5 27.5q0 27 10 45.5t30 18.5h49q25 0 36.5 12t11.5 41v253q0 10 10 10h93q10 0 10 -10v-279q0 -66 -27 -96t-90 -30z" />
    <glyph glyph-name="aBeh.medi" unicode="&#x628;" horiz-adv-x="310" arabic-form="medial" 
d="M207 -190h-96q-10 0 -10 10v86q0 10 10 10h96q10 0 10 -10v-86q0 -10 -10 -10zM215 405v-244q0 -30 22 -46t61 -16h17q40 0 40 -48q0 -29 -9 -40t-31 -11q-44 0 -71 10.5t-43 40.5q-14 -29 -41 -40t-76 -11h-79q-22 0 -31 7t-9 28q0 27 10.5 45.5t30.5 18.5h48
q32 0 40 18.5t8 75.5v212q0 10 10 10h93q10 0 10 -10z" />
    <glyph glyph-name="uniFE93" unicode="&#x629;" horiz-adv-x="507" arabic-form="isolated" 
d="M250 333q-95 0 -95 -121q0 -63 23 -91.5t72 -28.5q48 0 71 28.5t23 91.5q0 121 -94 121zM250 -7q-206 0 -206 217q0 117 55.5 170t150.5 53t150.5 -53t55.5 -170q0 -112 -55 -164.5t-151 -52.5zM229 515h-84q-10 0 -10 10v86q0 10 10 10h84q10 0 10 -10v-86
q0 -10 -10 -10zM359 515h-84q-10 0 -10 10v86q0 10 10 10h84q10 0 10 -10v-86q0 -10 -10 -10z" />
    <glyph glyph-name="aTehMarbuta.fina" unicode="&#x629;" horiz-adv-x="546" arabic-form="final" 
d="M229 555h-84q-10 0 -10 10v86q0 10 10 10h84q10 0 10 -10v-86q0 -10 -10 -10zM359 555h-84q-10 0 -10 10v86q0 10 10 10h84q10 0 10 -10v-86q0 -10 -10 -10zM242 140q94 0 94 108v85h-89q-46 0 -70.5 -23.5t-24.5 -79.5q0 -90 90 -90zM236 433h100v43q0 10 10 10h92
q10 0 10 -10v-324q0 -29 11.5 -41t36.5 -12h38q40 0 40 -50q0 -29 -9 -39t-31 -10h-81q-50 0 -77 17.5t-36 59.5q-42 -36 -111 -36q-83 0 -136 47.5t-53 141.5q0 108 55.5 155.5t140.5 47.5z" />
    <glyph glyph-name="uniFE95" unicode="&#x62a;" horiz-adv-x="839" arabic-form="isolated" 
d="M213 99h414q27 0 38 11.5t11 41.5v253q0 10 10 10h92q10 0 10 -10v-279q0 -67 -27 -96.5t-92 -29.5h-499q-63 0 -90 30t-27 96v215q0 10 10 10h92q10 0 10 -10v-189q0 -29 11.5 -41t36.5 -12zM401 457h-84q-10 0 -10 10v86q0 10 10 10h84q10 0 10 -10v-86q0 -10 -10 -10z
M531 457h-84q-10 0 -10 10v86q0 10 10 10h84q10 0 10 -10v-86q0 -10 -10 -10z" />
    <glyph glyph-name="aTeh.fina" unicode="&#x62a;" horiz-adv-x="883" arabic-form="final" 
d="M401 457h-84q-10 0 -10 10v86q0 10 10 10h84q10 0 10 -10v-86q0 -10 -10 -10zM531 457h-84q-10 0 -10 10v86q0 10 10 10h84q10 0 10 -10v-86q0 -10 -10 -10zM788 405v-247q0 -29 22.5 -44t60.5 -15h17q40 0 40 -48q0 -29 -9 -40t-31 -11q-43 0 -70 10.5t-43 40.5
q-14 -28 -41 -39.5t-75 -11.5h-489q-63 0 -90 30t-27 96v215q0 10 10 10h92q10 0 10 -10v-189q0 -29 11.5 -41t36.5 -12h414q32 0 40.5 17.5t8.5 69.5v219q0 10 10 10h92q10 0 10 -10z" />
    <glyph glyph-name="aTeh.init" unicode="&#x62a;" horiz-adv-x="297" arabic-form="initial" 
d="M147 515h-84q-10 0 -10 10v86q0 10 10 10h84q10 0 10 -10v-86q0 -10 -10 -10zM277 515h-84q-10 0 -10 10v86q0 10 10 10h84q10 0 10 -10v-86q0 -10 -10 -10zM109 0h-109q-21 0 -30.5 10t-9.5 36q0 29 9.5 41t30.5 12h65q25 0 36.5 12t11.5 41v253q0 10 10 10h93
q10 0 10 -10v-279q0 -66 -27 -96t-90 -30z" />
    <glyph glyph-name="aTeh.medi" unicode="&#x62a;" horiz-adv-x="331" arabic-form="medial" 
d="M153 515h-84q-10 0 -10 10v86q0 10 10 10h84q10 0 10 -10v-86q0 -10 -10 -10zM283 515h-84q-10 0 -10 10v86q0 10 10 10h84q10 0 10 -10v-86q0 -10 -10 -10zM217 51q-14 -28 -41.5 -39.5t-77.5 -11.5h-93q-21 0 -30.5 10t-9.5 37q0 29 9.5 40.5t30.5 11.5h65
q33 0 40.5 19.5t7.5 78.5v208q0 10 17 10h86q10 0 10 -10v-244q0 -30 22 -46t61 -16h17q40 0 40 -48q0 -29 -9 -40t-31 -11q-44 0 -71 10.5t-43 40.5z" />
    <glyph glyph-name="uniFE99" unicode="&#x62b;" horiz-adv-x="839" arabic-form="isolated" 
d="M213 99h414q27 0 38 11.5t11 41.5v253q0 10 10 10h92q10 0 10 -10v-279q0 -67 -27 -96.5t-92 -29.5h-499q-63 0 -90 30t-27 96v215q0 10 10 10h92q10 0 10 -10v-189q0 -29 11.5 -41t36.5 -12zM466 586h-84q-10 0 -10 10v86q0 10 10 10h84q10 0 10 -10v-86q0 -10 -10 -10z
M402 457h-84q-10 0 -10 10v86q0 10 10 10h84q10 0 10 -10v-86q0 -10 -10 -10zM532 457h-84q-10 0 -10 10v86q0 10 10 10h84q10 0 10 -10v-86q0 -10 -10 -10z" />
    <glyph glyph-name="aTheh.fina" unicode="&#x62b;" horiz-adv-x="883" arabic-form="final" 
d="M788 405v-247q0 -29 22.5 -44t60.5 -15h17q40 0 40 -48q0 -29 -9 -40t-31 -11q-43 0 -70 10.5t-43 40.5q-14 -28 -41 -39.5t-75 -11.5h-489q-63 0 -90 30t-27 96v215q0 10 10 10h92q10 0 10 -10v-189q0 -29 11.5 -41t36.5 -12h414q32 0 40.5 17.5t8.5 69.5v219
q0 10 10 10h92q10 0 10 -10zM466 586h-84q-10 0 -10 10v86q0 10 10 10h84q10 0 10 -10v-86q0 -10 -10 -10zM402 457h-84q-10 0 -10 10v86q0 10 10 10h84q10 0 10 -10v-86q0 -10 -10 -10zM532 457h-84q-10 0 -10 10v86q0 10 10 10h84q10 0 10 -10v-86q0 -10 -10 -10z" />
    <glyph glyph-name="aTheh.init" unicode="&#x62b;" horiz-adv-x="297" arabic-form="initial" 
d="M109 0h-109q-21 0 -30.5 10t-9.5 36q0 29 9.5 41t30.5 12h65q25 0 36.5 12t11.5 41v253q0 10 10 10h93q10 0 10 -10v-279q0 -66 -27 -96t-90 -30zM210 644h-84q-10 0 -10 10v86q0 10 10 10h84q10 0 10 -10v-86q0 -10 -10 -10zM146 515h-84q-10 0 -10 10v86q0 10 10 10h84
q10 0 10 -10v-86q0 -10 -10 -10zM276 515h-84q-10 0 -10 10v86q0 10 10 10h84q10 0 10 -10v-86q0 -10 -10 -10z" />
    <glyph glyph-name="aTheh.medi" unicode="&#x62b;" horiz-adv-x="331" arabic-form="medial" 
d="M218 644h-84q-10 0 -10 10v86q0 10 10 10h84q10 0 10 -10v-86q0 -10 -10 -10zM154 515h-84q-10 0 -10 10v86q0 10 10 10h84q10 0 10 -10v-86q0 -10 -10 -10zM284 515h-84q-10 0 -10 10v86q0 10 10 10h84q10 0 10 -10v-86q0 -10 -10 -10zM217 51q-14 -28 -41.5 -39.5
t-77.5 -11.5h-93q-21 0 -30.5 10t-9.5 37q0 29 9.5 40.5t30.5 11.5h65q33 0 40.5 19.5t7.5 78.5v208q0 10 17 10h86q10 0 10 -10v-244q0 -30 22 -46t61 -16h17q40 0 40 -48q0 -29 -9 -40t-31 -11q-44 0 -71 10.5t-43 40.5z" />
    <glyph glyph-name="uniFE9D" unicode="&#x62c;" horiz-adv-x="572" arabic-form="isolated" 
d="M388 -171h-96q-10 0 -10 10v86q0 10 10 10h96q10 0 10 -10v-86q0 -10 -10 -10zM365 0h-170q-53 0 -53 -51q0 -28 15.5 -39.5t59.5 -11.5h27q10 0 10 -10v-80q0 -10 -10 -10h-39q-88 0 -133 35.5t-45 115.5q0 81 44.5 115.5t110.5 34.5h139q50 0 66 17.5t16 67.5
q0 149 -119 149q-60 0 -108 -48q-7 -7 -14 -1l-51 54q-9 7 -3 14q74 81 179 81q125 0 179.5 -69.5t54.5 -182.5q0 -103 -37 -142t-119 -39z" />
    <glyph glyph-name="aJim.fina" unicode="&#x62c;" horiz-adv-x="618" arabic-form="final" 
d="M388 -171h-96q-10 0 -10 10v86q0 10 10 10h96q10 0 10 -10v-86q0 -10 -10 -10zM367 0h-172q-53 0 -53 -51q0 -28 15.5 -39.5t59.5 -11.5h27q10 0 10 -10v-80q0 -10 -10 -10h-39q-88 0 -133 35.5t-45 115.5q0 81 44.5 115.5t110.5 34.5h142q50 0 66 17.5t16 67.5
q0 149 -117 149q-60 0 -108 -48q-7 -7 -14 -1l-51 54q-9 7 -3 14q74 81 179 81q125 0 178.5 -69.5t53.5 -182.5q0 -5 -0.5 -13t-0.5 -12q3 -27 24.5 -42t58.5 -15h17q40 0 40 -48q0 -29 -9 -40t-31 -11q-47 0 -76.5 12.5t-45.5 46.5q-33 -59 -134 -59z" />
    <glyph glyph-name="aJim.init" unicode="&#x62c;" horiz-adv-x="517" arabic-form="initial" 
d="M309 0h-309q-40 0 -40 50q0 28 9 38.5t31 10.5h266q50 0 66 17.5t16 67.5q0 149 -119 149q-62 0 -108 -48q-7 -7 -14 -1l-52 54q-8 8 -2 14q71 81 179 81q125 0 179.5 -69.5t54.5 -182.5q0 -103 -37.5 -142t-119.5 -39zM295 -190h-96q-10 0 -10 10v86q0 10 10 10h96
q10 0 10 -10v-86q0 -10 -10 -10z" />
    <glyph glyph-name="aJim.medi" unicode="&#x62c;" horiz-adv-x="565" arabic-form="medial" 
d="M53 352q71 81 179 81q125 0 179.5 -69.5t54.5 -182.5q0 -5 -0.5 -13t-0.5 -12q3 -27 24.5 -42t58.5 -15h17q40 0 40 -48q0 -29 -9 -40t-31 -11q-47 0 -76.5 12.5t-45.5 46.5q-33 -59 -134 -59h-309q-40 0 -40 50q0 28 9 38.5t31 10.5h266q50 0 66 17.5t16 67.5
q0 149 -119 149q-62 0 -108 -48q-7 -7 -14 -1l-52 54q-8 8 -2 14zM294 -190h-96q-10 0 -10 10v86q0 10 10 10h96q10 0 10 -10v-86q0 -10 -10 -10z" />
    <glyph glyph-name="uniFEA1" unicode="&#x62d;" horiz-adv-x="572" arabic-form="isolated" 
d="M365 0h-170q-53 0 -53 -51q0 -28 15.5 -39.5t59.5 -11.5h92q10 0 10 -10v-80q0 -10 -10 -10h-104q-88 0 -133 35.5t-45 115.5q0 81 44.5 115.5t110.5 34.5h139q50 0 66 17.5t16 67.5q0 149 -119 149q-60 0 -108 -48q-7 -7 -14 -1l-51 54q-9 7 -3 14q74 81 179 81
q125 0 179.5 -69.5t54.5 -182.5q0 -103 -37 -142t-119 -39z" />
    <glyph glyph-name="aHah.fina" unicode="&#x62d;" horiz-adv-x="618" arabic-form="final" 
d="M182 99h137q50 0 66 17.5t16 67.5q0 149 -117 149q-60 0 -108 -48q-7 -7 -14 -1l-51 54q-9 7 -3 14q74 81 179 81q125 0 178.5 -69.5t53.5 -182.5q0 -5 -0.5 -13t-0.5 -12q3 -27 24.5 -42t58.5 -15h17q40 0 40 -48q0 -29 -9 -40t-31 -11q-47 0 -76.5 12.5t-45.5 46.5
q-33 -59 -134 -59h-167q-53 0 -53 -51q0 -28 15.5 -39.5t59.5 -11.5h92q10 0 10 -10v-80q0 -10 -10 -10h-104q-88 0 -133 35.5t-45 115.5q0 81 44.5 115.5t110.5 34.5z" />
    <glyph glyph-name="aHah.init" unicode="&#x62d;" horiz-adv-x="517" arabic-form="initial" 
d="M309 0h-309q-40 0 -40 50q0 28 9 38.5t31 10.5h266q50 0 66 17.5t16 67.5q0 149 -119 149q-62 0 -108 -48q-7 -7 -14 -1l-52 54q-8 8 -2 14q71 81 179 81q125 0 179.5 -69.5t54.5 -182.5q0 -103 -37.5 -142t-119.5 -39z" />
    <glyph glyph-name="aHah.medi" unicode="&#x62d;" horiz-adv-x="565" arabic-form="medial" 
d="M53 352q71 81 179 81q125 0 179.5 -69.5t54.5 -182.5q0 -5 -0.5 -13t-0.5 -12q3 -27 24.5 -42t58.5 -15h17q40 0 40 -48q0 -29 -9 -40t-31 -11q-47 0 -76.5 12.5t-45.5 46.5q-33 -59 -134 -59h-309q-40 0 -40 50q0 28 9 38.5t31 10.5h266q50 0 66 17.5t16 67.5
q0 149 -119 149q-62 0 -108 -48q-7 -7 -14 -1l-52 54q-8 8 -2 14z" />
    <glyph glyph-name="uniFEA5" unicode="&#x62e;" horiz-adv-x="572" arabic-form="isolated" 
d="M365 0h-170q-53 0 -53 -51q0 -28 15.5 -39.5t59.5 -11.5h92q10 0 10 -10v-80q0 -10 -10 -10h-104q-88 0 -133 35.5t-45 115.5q0 81 44.5 115.5t110.5 34.5h139q50 0 66 17.5t16 67.5q0 149 -119 149q-60 0 -108 -48q-7 -7 -14 -1l-51 54q-9 7 -3 14q74 81 179 81
q125 0 179.5 -69.5t54.5 -182.5q0 -103 -37 -142t-119 -39zM344 515h-96q-10 0 -10 10v86q0 10 10 10h96q10 0 10 -10v-86q0 -10 -10 -10z" />
    <glyph glyph-name="aKhah.fina" unicode="&#x62e;" horiz-adv-x="618" arabic-form="final" 
d="M347 515h-96q-10 0 -10 10v86q0 10 10 10h96q10 0 10 -10v-86q0 -10 -10 -10zM187 99h137q50 0 66 17.5t16 67.5q0 149 -117 149q-60 0 -108 -48q-7 -7 -14 -1l-51 54q-9 7 -3 14q74 81 179 81q125 0 178.5 -69.5t53.5 -182.5q0 -5 -0.5 -13t-0.5 -12q3 -27 24.5 -42
t58.5 -15h17q40 0 40 -48q0 -29 -9 -40t-31 -11q-47 0 -76.5 12.5t-45.5 46.5q-33 -59 -134 -59h-167q-53 0 -53 -51q0 -28 15.5 -39.5t59.5 -11.5h92q10 0 10 -10v-80q0 -10 -10 -10h-104q-88 0 -133 35.5t-45 115.5q0 81 44.5 115.5t110.5 34.5z" />
    <glyph glyph-name="aKhah.init" unicode="&#x62e;" horiz-adv-x="517" arabic-form="initial" 
d="M289 515h-96q-10 0 -10 10v86q0 10 10 10h96q10 0 10 -10v-86q0 -10 -10 -10zM309 0h-309q-40 0 -40 50q0 28 9 38.5t31 10.5h266q50 0 66 17.5t16 67.5q0 149 -119 149q-62 0 -108 -48q-7 -7 -14 -1l-52 54q-8 8 -2 14q71 81 179 81q125 0 179.5 -69.5t54.5 -182.5
q0 -103 -37.5 -142t-119.5 -39z" />
    <glyph glyph-name="aKhah.medi" unicode="&#x62e;" horiz-adv-x="565" arabic-form="medial" 
d="M289 515h-96q-10 0 -10 10v86q0 10 10 10h96q10 0 10 -10v-86q0 -10 -10 -10zM53 352q71 81 179 81q125 0 179.5 -69.5t54.5 -182.5q0 -5 -0.5 -13t-0.5 -12q3 -27 24.5 -42t58.5 -15h17q40 0 40 -48q0 -29 -9 -40t-31 -11q-47 0 -76.5 12.5t-45.5 46.5q-33 -59 -134 -59
h-309q-40 0 -40 50q0 28 9 38.5t31 10.5h266q50 0 66 17.5t16 67.5q0 149 -119 149q-62 0 -108 -48q-7 -7 -14 -1l-52 54q-8 8 -2 14z" />
    <glyph glyph-name="uniFEA9" unicode="&#x62f;" horiz-adv-x="492" arabic-form="isolated" 
d="M440 254v-83q0 -96 -35 -133.5t-113 -37.5h-232q-10 0 -10 10v79q0 10 10 10h186q52 0 66.5 16t14.5 63v67q0 88 -102 88h-120q-10 0 -10 10v80q0 10 10 10h160q83 0 129 -44.5t46 -134.5z" />
    <glyph glyph-name="aDal.fina" unicode="&#x62f;" horiz-adv-x="539" arabic-form="final" 
d="M225 333h-120q-10 0 -10 10v80q0 10 10 10h152q183 0 183 -179v-94q0 -29 21.5 -45t60.5 -16h17q40 0 40 -48q0 -29 -9 -40t-31 -11q-46 0 -75 12t-45 45q-18 -32 -49.5 -44.5t-85.5 -12.5h-224q-10 0 -10 10v79q0 10 10 10h186q52 0 66.5 16t14.5 63v67q0 88 -102 88z
" />
    <glyph glyph-name="uniFEAB" unicode="&#x630;" horiz-adv-x="492" arabic-form="isolated" 
d="M440 254v-83q0 -96 -35 -133.5t-113 -37.5h-232q-10 0 -10 10v79q0 10 10 10h186q52 0 66.5 16t14.5 63v67q0 88 -102 88h-120q-10 0 -10 10v80q0 10 10 10h160q83 0 129 -44.5t46 -134.5zM268 515h-96q-10 0 -10 10v86q0 10 10 10h96q10 0 10 -10v-86q0 -10 -10 -10z
" />
    <glyph glyph-name="aDhal.fina" unicode="&#x630;" horiz-adv-x="539" arabic-form="final" 
d="M261 515h-96q-10 0 -10 10v86q0 10 10 10h96q10 0 10 -10v-86q0 -10 -10 -10zM230 333h-120q-10 0 -10 10v80q0 10 10 10h152q183 0 183 -179v-94q0 -29 21.5 -45t60.5 -16h17q40 0 40 -48q0 -29 -9 -40t-31 -11q-46 0 -75 12t-45 45q-18 -32 -49.5 -44.5t-85.5 -12.5
h-224q-10 0 -10 10v79q0 10 10 10h186q52 0 66.5 16t14.5 63v67q0 88 -102 88z" />
    <glyph glyph-name="uniFEAD" unicode="&#x631;" horiz-adv-x="286" arabic-form="isolated" 
d="M48 -202h-37q-10 0 -10 10v80q0 10 10 10h22q41 0 60 21t19 64v422q0 10 10 10h93q10 0 10 -10v-424q0 -183 -177 -183z" />
    <glyph glyph-name="aReh.fina" unicode="&#x631;" horiz-adv-x="325" arabic-form="final" 
d="M112 48v357q0 10 10 10h93q10 0 10 -10v-244q0 -30 22 -46t61 -16h17q40 0 40 -48q0 -29 -9 -40t-31 -11q-73 0 -100 33v-19q0 -112 -40 -164t-137 -52h-37q-10 0 -10 10v80q0 10 10 10h22q23 0 38 7t23 17.5t12 32.5t5 40t1 53z" />
    <glyph glyph-name="uniFEAF" unicode="&#x632;" horiz-adv-x="286" arabic-form="isolated" 
d="M48 -202h-37q-10 0 -10 10v80q0 10 10 10h22q41 0 60 21t19 64v422q0 10 10 10h93q10 0 10 -10v-424q0 -183 -177 -183zM217 515h-96q-10 0 -10 10v86q0 10 10 10h96q10 0 10 -10v-86q0 -10 -10 -10z" />
    <glyph glyph-name="aZeh.fina" unicode="&#x632;" horiz-adv-x="325" arabic-form="final" 
d="M217 515h-96q-10 0 -10 10v86q0 10 10 10h96q10 0 10 -10v-86q0 -10 -10 -10zM112 48v357q0 10 10 10h93q10 0 10 -10v-244q0 -30 22 -46t61 -16h17q40 0 40 -48q0 -29 -9 -40t-31 -11q-73 0 -100 33v-19q0 -112 -40 -164t-137 -52h-37q-10 0 -10 10v80q0 10 10 10h22
q23 0 38 7t23 17.5t12 32.5t5 40t1 53z" />
    <glyph glyph-name="uniFEB1" unicode="&#x633;" horiz-adv-x="1096" arabic-form="isolated" 
d="M529 326v-168q0 -59 79 -59q40 0 50.5 16.5t10.5 63.5v147q0 10 10 10h93q10 0 10 -10v-167q0 -60 83 -60q39 0 47.5 16t8.5 66v224q0 10 10 10h93q10 0 10 -10v-279q0 -66 -27 -96t-90 -30h-51q-70 0 -97 52q-14 -29 -40 -40.5t-72 -11.5h-44q-56 0 -84 34v-13
q0 -112 -65.5 -170t-179.5 -58q-110 0 -177.5 58.5t-67.5 170.5q0 108 59 201q5 9 15 2l81 -32q8 -4 4 -13q-45 -79 -45 -148q0 -72 40.5 -104.5t94.5 -32.5q128 0 128 129v302q0 10 10 10h93q10 0 10 -10z" />
    <glyph glyph-name="aSin.fina" unicode="&#x633;" horiz-adv-x="1134" arabic-form="final" 
d="M39 22q0 108 59 201q5 9 15 2l81 -32q8 -4 4 -13q-45 -79 -45 -148q0 -72 40.5 -104.5t94.5 -32.5q128 0 128 129v302q0 10 10 10h93q10 0 10 -10v-163q0 -64 72 -64q43 0 55.5 16.5t12.5 63.5v147q0 10 10 10h93q10 0 10 -10v-166q0 -61 74 -61q24 0 37.5 5.5t19.5 21
t7 30.5t1 47v202q0 10 10 10h93q10 0 10 -10v-244q0 -30 22 -46t61 -16h16q40 0 40 -48q0 -29 -9 -40t-31 -11q-43 0 -69.5 10.5t-42.5 40.5q-26 -51 -111 -51h-26q-88 0 -115 52q-25 -52 -104 -52h-52q-56 0 -84 34v-13q0 -112 -65.5 -170t-179.5 -58q-110 0 -177.5 58.5
t-67.5 170.5z" />
    <glyph glyph-name="aSin.init" unicode="&#x633;" horiz-adv-x="806" arabic-form="initial" 
d="M240 326v-165q0 -62 72 -62q44 0 56 13t12 63v151q0 10 10 10h93q10 0 10 -10v-164q0 -63 70 -63q47 0 58 16.5t11 81.5v208q0 10 10 10h93q10 0 10 -10v-279q0 -69 -28.5 -97.5t-96.5 -28.5h-43q-70 0 -97 52q-14 -29 -40 -40.5t-72 -11.5h-44q-71 0 -97 53
q-14 -29 -40.5 -41t-72.5 -12h-114q-21 0 -30.5 10t-9.5 35q0 30 9.5 42t30.5 12h80q30 0 38.5 15.5t8.5 60.5v151q0 10 10 10h93q10 0 10 -10z" />
    <glyph glyph-name="aSin.medi" unicode="&#x633;" horiz-adv-x="845" arabic-form="medial" 
d="M240 326v-165q0 -32 16.5 -47t52.5 -15q49 0 60 16.5t11 82.5v128q0 10 10 10h93q10 0 10 -10v-167q0 -60 69 -60q46 0 58 17t12 81v208q0 10 10 10h93q10 0 10 -10v-244q0 -30 22 -46t61 -16h17q40 0 40 -48q0 -28 -9.5 -39.5t-30.5 -11.5q-43 0 -70 10.5t-43 40.5
q-26 -51 -112 -51h-43q-70 0 -97 52q-14 -29 -40 -40.5t-72 -11.5h-44q-71 0 -97 53q-14 -29 -40 -41t-72 -12h-108q-27 0 -37 7.5t-10 37.5t9.5 42t30.5 12h80q12 0 20 2t13.5 8.5t8 11.5t4 20.5t1.5 24v32.5v128q0 10 10 10h93q10 0 10 -10z" />
    <glyph glyph-name="uniFEB5" unicode="&#x634;" horiz-adv-x="1096" arabic-form="isolated" 
d="M529 326v-168q0 -59 79 -59q40 0 50.5 16.5t10.5 63.5v147q0 10 10 10h93q10 0 10 -10v-167q0 -60 83 -60q39 0 47.5 16t8.5 66v224q0 10 10 10h93q10 0 10 -10v-279q0 -66 -27 -96t-90 -30h-51q-70 0 -97 52q-14 -29 -40 -40.5t-72 -11.5h-44q-56 0 -84 34v-13
q0 -112 -65.5 -170t-179.5 -58q-110 0 -177.5 58.5t-67.5 170.5q0 108 59 201q5 9 15 2l81 -32q8 -4 4 -13q-45 -79 -45 -148q0 -72 40.5 -104.5t94.5 -32.5q128 0 128 129v302q0 10 10 10h93q10 0 10 -10zM767 644h-84q-10 0 -10 10v86q0 10 10 10h84q10 0 10 -10v-86
q0 -10 -10 -10zM703 515h-84q-10 0 -10 10v86q0 10 10 10h84q10 0 10 -10v-86q0 -10 -10 -10zM833 515h-84q-10 0 -10 10v86q0 10 10 10h84q10 0 10 -10v-86q0 -10 -10 -10z" />
    <glyph glyph-name="aShin.fina" unicode="&#x634;" horiz-adv-x="1134" arabic-form="final" 
d="M39 22q0 108 59 201q5 9 15 2l81 -32q8 -4 4 -13q-45 -79 -45 -148q0 -72 40.5 -104.5t94.5 -32.5q128 0 128 129v302q0 10 10 10h93q10 0 10 -10v-163q0 -64 72 -64q43 0 55.5 16.5t12.5 63.5v147q0 10 10 10h93q10 0 10 -10v-166q0 -61 74 -61q24 0 37.5 5.5t19.5 21
t7 30.5t1 47v202q0 10 10 10h93q10 0 10 -10v-244q0 -30 22 -46t61 -16h16q40 0 40 -48q0 -29 -9 -40t-31 -11q-43 0 -69.5 10.5t-42.5 40.5q-26 -51 -111 -51h-26q-88 0 -115 52q-25 -52 -104 -52h-52q-56 0 -84 34v-13q0 -112 -65.5 -170t-179.5 -58q-110 0 -177.5 58.5
t-67.5 170.5zM767 644h-84q-10 0 -10 10v86q0 10 10 10h84q10 0 10 -10v-86q0 -10 -10 -10zM703 515h-84q-10 0 -10 10v86q0 10 10 10h84q10 0 10 -10v-86q0 -10 -10 -10zM833 515h-84q-10 0 -10 10v86q0 10 10 10h84q10 0 10 -10v-86q0 -10 -10 -10z" />
    <glyph glyph-name="aShin.init" unicode="&#x634;" horiz-adv-x="806" arabic-form="initial" 
d="M240 326v-165q0 -62 72 -62q44 0 56 13t12 63v151q0 10 10 10h93q10 0 10 -10v-164q0 -63 70 -63q47 0 58 16.5t11 81.5v208q0 10 10 10h93q10 0 10 -10v-279q0 -69 -28.5 -97.5t-96.5 -28.5h-43q-70 0 -97 52q-14 -29 -40 -40.5t-72 -11.5h-44q-71 0 -97 53
q-14 -29 -40.5 -41t-72.5 -12h-114q-21 0 -30.5 10t-9.5 35q0 30 9.5 42t30.5 12h80q30 0 38.5 15.5t8.5 60.5v151q0 10 10 10h93q10 0 10 -10zM477 644h-84q-10 0 -10 10v86q0 10 10 10h84q10 0 10 -10v-86q0 -10 -10 -10zM413 515h-84q-10 0 -10 10v86q0 10 10 10h84
q10 0 10 -10v-86q0 -10 -10 -10zM543 515h-84q-10 0 -10 10v86q0 10 10 10h84q10 0 10 -10v-86q0 -10 -10 -10z" />
    <glyph glyph-name="aShin.medi" unicode="&#x634;" horiz-adv-x="845" arabic-form="medial" 
d="M245 326v-165q0 -32 16.5 -47t52.5 -15q49 0 60 16.5t11 82.5v128q0 10 10 10h93q10 0 10 -10v-167q0 -60 69 -60q46 0 58 17t12 81v208q0 10 10 10h93q10 0 10 -10v-244q0 -30 22 -46t61 -16h17q40 0 40 -48q0 -28 -9.5 -39.5t-30.5 -11.5q-43 0 -70 10.5t-43 40.5
q-26 -51 -112 -51h-43q-70 0 -97 52q-14 -29 -40 -40.5t-72 -11.5h-44q-71 0 -97 53q-14 -29 -40 -41t-72 -12h-108q-27 0 -37 7.5t-10 37.5t9.5 42t30.5 12h80q12 0 20 2t13.5 8.5t8 11.5t4 20.5t1.5 24v32.5v128q0 10 10 10h93q10 0 10 -10zM482 644h-84q-10 0 -10 10v86
q0 10 10 10h84q10 0 10 -10v-86q0 -10 -10 -10zM418 515h-84q-10 0 -10 10v86q0 10 10 10h84q10 0 10 -10v-86q0 -10 -10 -10zM548 515h-84q-10 0 -10 10v86q0 10 10 10h84q10 0 10 -10v-86q0 -10 -10 -10z" />
    <glyph glyph-name="uniFEB9" unicode="&#x635;" horiz-adv-x="1046" arabic-form="isolated" 
d="M735 333q-94 0 -206 -54v-180h214q89 0 111.5 14.5t22.5 85.5q0 68 -31.5 101t-110.5 33zM98 223q5 9 15 2l81 -32q8 -4 4 -13q-45 -79 -45 -148q0 -72 40.5 -104.5t94.5 -32.5q128 0 128 129v386q0 10 10 10h93q10 0 10 -10v-33q116 56 222 56q244 0 244 -239
q0 -63 -10.5 -101t-37.5 -58.5t-63 -27.5t-97 -7h-166q-31 0 -93 2q-6 -103 -71 -156t-173 -53q-110 0 -177.5 58.5t-67.5 170.5q0 108 59 201z" />
    <glyph glyph-name="aSad.fina" unicode="&#x635;" horiz-adv-x="1094" arabic-form="final" 
d="M735 333q-94 0 -206 -54v-180h214q89 0 111.5 14.5t22.5 85.5q0 68 -31.5 101t-110.5 33zM39 22q0 108 59 201q5 9 15 2l81 -32q8 -4 4 -13q-45 -79 -45 -148q0 -72 40.5 -104.5t94.5 -32.5q128 0 128 129v386q0 10 10 10h93q10 0 10 -10v-33q116 56 222 56
q244 0 244 -239q0 -7 -0.5 -18.5t-0.5 -14.5q2 -62 83 -62h16q40 0 40 -48q0 -29 -9 -40t-31 -11q-97 0 -123 63q-20 -39 -60 -51t-117 -12h-183q-28 0 -82 2q-6 -103 -71 -156t-173 -53q-110 0 -177.5 58.5t-67.5 170.5z" />
    <glyph glyph-name="aSad.init" unicode="&#x635;" horiz-adv-x="726" arabic-form="initial" 
d="M209 409v-32q116 56 222 56q244 0 244 -239q0 -117 -42.5 -155.5t-152.5 -38.5h-187q-109 0 -129 17q-24 -17 -89 -17h-75q-21 0 -30.5 10t-9.5 37q0 31 9 41.5t31 10.5h52q31 0 37.5 16t6.5 66v228q0 10 10 10h93q10 0 10 -10zM415 333q-94 0 -206 -54v-136
q0 -27 -4 -44h217q31 0 44.5 0.5t32.5 2t25 5.5t15.5 10.5t11.5 18t4 26.5t2 37q0 68 -31.5 101t-110.5 33z" />
    <glyph glyph-name="aSad.medi" unicode="&#x635;" horiz-adv-x="774" arabic-form="medial" 
d="M209 409v-32q116 56 222 56q244 0 244 -239q0 -7 -0.5 -18.5t-0.5 -14.5q2 -62 83 -62h17q40 0 40 -48q0 -29 -9 -40t-31 -11q-98 0 -124 63q-20 -38 -58.5 -50.5t-109.5 -12.5h-197q-92 0 -121 17q-24 -17 -81 -17h-83q-21 0 -30.5 10t-9.5 37q0 31 9 41.5t31 10.5h46
q24 0 35.5 16t13 33.5t1.5 54.5v206q0 10 10 10h93q10 0 10 -10zM415 333q-94 0 -206 -54v-136q0 -27 -4 -44h217q31 0 44.5 0.5t32.5 2t25 5.5t15.5 10.5t11.5 18t4 26.5t2 37q0 68 -31.5 101t-110.5 33z" />
    <glyph glyph-name="uniFEBD" unicode="&#x636;" horiz-adv-x="1046" arabic-form="isolated" 
d="M735 333q-94 0 -206 -54v-180h214q89 0 111.5 14.5t22.5 85.5q0 68 -31.5 101t-110.5 33zM98 223q5 9 15 2l81 -32q8 -4 4 -13q-45 -79 -45 -148q0 -72 40.5 -104.5t94.5 -32.5q128 0 128 129v386q0 10 10 10h93q10 0 10 -10v-33q116 56 222 56q244 0 244 -239
q0 -63 -10.5 -101t-37.5 -58.5t-63 -27.5t-97 -7h-166q-31 0 -93 2q-6 -103 -71 -156t-173 -53q-110 0 -177.5 58.5t-67.5 170.5q0 108 59 201zM788 515h-96q-10 0 -10 10v86q0 10 10 10h96q10 0 10 -10v-86q0 -10 -10 -10z" />
    <glyph glyph-name="aDad.fina" unicode="&#x636;" horiz-adv-x="1094" arabic-form="final" 
d="M788 515h-96q-10 0 -10 10v86q0 10 10 10h96q10 0 10 -10v-86q0 -10 -10 -10zM735 333q-94 0 -206 -54v-180h214q89 0 111.5 14.5t22.5 85.5q0 68 -31.5 101t-110.5 33zM39 22q0 108 59 201q5 9 15 2l81 -32q8 -4 4 -13q-45 -79 -45 -148q0 -72 40.5 -104.5t94.5 -32.5
q128 0 128 129v386q0 10 10 10h93q10 0 10 -10v-33q116 56 222 56q244 0 244 -239q0 -7 -0.5 -18.5t-0.5 -14.5q2 -62 83 -62h16q40 0 40 -48q0 -29 -9 -40t-31 -11q-97 0 -123 63q-20 -39 -60 -51t-117 -12h-183q-28 0 -82 2q-6 -103 -71 -156t-173 -53q-110 0 -177.5 58.5
t-67.5 170.5z" />
    <glyph glyph-name="aDad.init" unicode="&#x636;" horiz-adv-x="726" arabic-form="initial" 
d="M470 515h-96q-10 0 -10 10v86q0 10 10 10h96q10 0 10 -10v-86q0 -10 -10 -10zM209 409v-32q116 56 222 56q244 0 244 -239q0 -117 -42.5 -155.5t-152.5 -38.5h-187q-109 0 -129 17q-24 -17 -89 -17h-75q-21 0 -30.5 10t-9.5 37q0 31 9 41.5t31 10.5h52q31 0 37.5 16
t6.5 66v228q0 10 10 10h93q10 0 10 -10zM415 333q-94 0 -206 -54v-136q0 -27 -4 -44h217q31 0 44.5 0.5t32.5 2t25 5.5t15.5 10.5t11.5 18t4 26.5t2 37q0 68 -31.5 101t-110.5 33z" />
    <glyph glyph-name="aDad.medi" unicode="&#x636;" horiz-adv-x="774" arabic-form="medial" 
d="M475 515h-96q-10 0 -10 10v86q0 10 10 10h96q10 0 10 -10v-86q0 -10 -10 -10zM214 409v-32q116 56 222 56q244 0 244 -239q0 -7 -0.5 -18.5t-0.5 -14.5q2 -62 83 -62h17q40 0 40 -48q0 -29 -9 -40t-31 -11q-98 0 -124 63q-20 -38 -58.5 -50.5t-109.5 -12.5h-197
q-92 0 -121 17q-24 -17 -81 -17h-83q-21 0 -30.5 10t-9.5 37q0 31 9 41.5t31 10.5h46q24 0 35.5 16t13 33.5t1.5 54.5v206q0 10 10 10h93q10 0 10 -10zM420 333q-94 0 -206 -54v-136q0 -27 -4 -44h217q31 0 44.5 0.5t32.5 2t25 5.5t15.5 10.5t11.5 18t4 26.5t2 37
q0 68 -31.5 101t-110.5 33z" />
    <glyph glyph-name="uniFEC1" unicode="&#x637;" horiz-adv-x="746" arabic-form="isolated" 
d="M435 333q-94 0 -206 -54v-136q0 -27 -4 -44h218q30 0 43.5 0.5t32 2t25 5.5t15.5 10.5t11.5 18t4.5 26.5t2 37q0 68 -31.5 101t-110.5 33zM33 99h30q36 0 44.5 22t8.5 99v450q0 10 10 10h93q10 0 10 -10v-293q116 56 222 56q244 0 244 -239q0 -118 -42.5 -156t-156.5 -38
h-266q-32 0 -46 17q-24 -17 -91 -17h-60q-10 0 -10 10v79q0 10 10 10z" />
    <glyph glyph-name="aTah.fina" unicode="&#x637;" horiz-adv-x="794" arabic-form="final" 
d="M435 333q-94 0 -206 -54v-136q0 -27 -4 -44h218q30 0 43.5 0.5t32 2t25 5.5t15.5 10.5t11.5 18t4.5 26.5t2 37q0 68 -31.5 101t-110.5 33zM33 99h31q35 0 43.5 22.5t8.5 98.5v450q0 10 10 10h93q10 0 10 -10v-293q116 56 222 56q244 0 244 -239q0 -7 -0.5 -18.5
t-0.5 -14.5q5 -62 83 -62h16q40 0 40 -48q0 -29 -9 -40t-31 -11q-96 0 -122 63q-20 -39 -59 -51t-116 -12h-266q-32 0 -46 17q-24 -17 -91 -17h-60q-10 0 -10 10v79q0 10 10 10z" />
    <glyph glyph-name="aTah.init" unicode="&#x637;" horiz-adv-x="732" arabic-form="initial" 
d="M215 670v-293q116 56 222 56q244 0 244 -239q0 -119 -43.5 -156.5t-159.5 -37.5h-263q-31 0 -45 17q-24 -17 -85 -17h-85q-21 0 -30.5 10t-9.5 37q0 31 9 41.5t31 10.5h52q33 0 41.5 23.5t8.5 103.5v444q0 10 10 10h93q10 0 10 -10zM421 333q-94 0 -206 -54v-136
q0 -27 -4 -44h218q30 0 43.5 0.5t32 2t25 5.5t15.5 10.5t11.5 18t4.5 26.5t2 37q0 68 -31.5 101t-110.5 33z" />
    <glyph glyph-name="aTah.medi" unicode="&#x637;" horiz-adv-x="780" arabic-form="medial" 
d="M215 670v-293q116 56 222 56q244 0 244 -239q0 -7 -0.5 -18.5t-0.5 -14.5q2 -62 83 -62h17q40 0 40 -48q0 -29 -9 -40t-31 -11q-98 0 -123 63q-20 -39 -59 -51t-116 -12h-267q-31 0 -45 17q-24 -17 -92 -17h-78q-21 0 -30.5 10t-9.5 37q0 31 9 41.5t31 10.5h50
q35 0 43.5 22.5t8.5 98.5v450q0 10 10 10h93q10 0 10 -10zM421 333q-94 0 -206 -54v-136q0 -27 -4 -44h218q30 0 43.5 0.5t32 2t25 5.5t15.5 10.5t11.5 18t4.5 26.5t2 37q0 68 -31.5 101t-110.5 33z" />
    <glyph glyph-name="uniFEC5" unicode="&#x638;" horiz-adv-x="746" arabic-form="isolated" 
d="M435 333q-94 0 -206 -54v-136q0 -27 -4 -44h218q30 0 43.5 0.5t32 2t25 5.5t15.5 10.5t11.5 18t4.5 26.5t2 37q0 68 -31.5 101t-110.5 33zM33 99h30q36 0 44.5 22t8.5 99v450q0 10 10 10h93q10 0 10 -10v-293q116 56 222 56q244 0 244 -239q0 -118 -42.5 -156t-156.5 -38
h-266q-32 0 -46 17q-24 -17 -91 -17h-60q-10 0 -10 10v79q0 10 10 10zM500 515h-96q-10 0 -10 10v86q0 10 10 10h96q10 0 10 -10v-86q0 -10 -10 -10z" />
    <glyph glyph-name="aZah.fina" unicode="&#x638;" horiz-adv-x="794" arabic-form="final" 
d="M504 515h-96q-10 0 -10 10v86q0 10 10 10h96q10 0 10 -10v-86q0 -10 -10 -10zM440 333q-94 0 -206 -54v-136q0 -27 -4 -44h218q30 0 43.5 0.5t32 2t25 5.5t15.5 10.5t11.5 18t4.5 26.5t2 37q0 68 -31.5 101t-110.5 33zM38 99h31q35 0 43.5 22.5t8.5 98.5v450q0 10 10 10
h93q10 0 10 -10v-293q116 56 222 56q244 0 244 -239q0 -7 -0.5 -18.5t-0.5 -14.5q5 -62 83 -62h16q40 0 40 -48q0 -29 -9 -40t-31 -11q-96 0 -122 63q-20 -39 -59 -51t-116 -12h-266q-32 0 -46 17q-24 -17 -91 -17h-60q-10 0 -10 10v79q0 10 10 10z" />
    <glyph glyph-name="aZah.init" unicode="&#x638;" horiz-adv-x="732" arabic-form="initial" 
d="M488 515h-96q-10 0 -10 10v86q0 10 10 10h96q10 0 10 -10v-86q0 -10 -10 -10zM215 670v-293q116 56 222 56q244 0 244 -239q0 -119 -43.5 -156.5t-159.5 -37.5h-263q-31 0 -45 17q-24 -17 -85 -17h-85q-21 0 -30.5 10t-9.5 37q0 31 9 41.5t31 10.5h52q33 0 41.5 23.5
t8.5 103.5v444q0 10 10 10h93q10 0 10 -10zM421 333q-94 0 -206 -54v-136q0 -27 -4 -44h218q30 0 43.5 0.5t32 2t25 5.5t15.5 10.5t11.5 18t4.5 26.5t2 37q0 68 -31.5 101t-110.5 33z" />
    <glyph glyph-name="aZah.medi" unicode="&#x638;" horiz-adv-x="780" arabic-form="medial" 
d="M492 515h-96q-10 0 -10 10v86q0 10 10 10h96q10 0 10 -10v-86q0 -10 -10 -10zM220 670v-293q116 56 222 56q244 0 244 -239q0 -7 -0.5 -18.5t-0.5 -14.5q2 -62 83 -62h17q40 0 40 -48q0 -29 -9 -40t-31 -11q-98 0 -123 63q-20 -39 -59 -51t-116 -12h-267q-31 0 -45 17
q-24 -17 -92 -17h-78q-21 0 -30.5 10t-9.5 37q0 31 9 41.5t31 10.5h50q35 0 43.5 22.5t8.5 98.5v450q0 10 10 10h93q10 0 10 -10zM426 333q-94 0 -206 -54v-136q0 -27 -4 -44h218q30 0 43.5 0.5t32 2t25 5.5t15.5 10.5t11.5 18t4.5 26.5t2 37q0 68 -31.5 101t-110.5 33z" />
    <glyph glyph-name="uniFEC9" unicode="&#x639;" horiz-adv-x="550" arabic-form="isolated" 
d="M33 -53q0 63 29 98.5t75 46.5q-51 55 -51 136q0 37 11.5 71.5t35.5 65.5t68 49.5t102 18.5q123 0 184 -79q5 -8 -3 -14l-54 -56q-6 -6 -14 1q-44 48 -106 48q-50 0 -78 -29.5t-28 -81.5q0 -36 16.5 -65t32.5 -40.5t30 -17.5h215q10 0 10 -10v-79q0 -10 -10 -10h-302
q-49 0 -49 -50q0 -28 15.5 -40t57.5 -12h99q10 0 10 -10v-80q0 -10 -10 -10h-109q-177 0 -177 149z" />
    <glyph glyph-name="aAyn.fina" unicode="&#x639;" horiz-adv-x="579" arabic-form="final" 
d="M319 -202h-83q-103 0 -153 30.5t-50 107.5q0 40 15.5 69.5t46 47.5t55.5 27.5t65 19.5q-10 43 -33 77t-41.5 49.5t-56.5 42.5q-14 10 -14 29v63q0 27 70.5 49.5t156.5 22.5q55 0 101.5 -14t80.5 -50.5t34 -91.5q0 -101 -102 -174q4 0 18.5 -2t22.5 -2h126q21 0 30.5 -10
t9.5 -36q0 -29 -9.5 -41t-30.5 -12h-154q-74 0 -121 31q-20 -8 -54 -18.5t-52.5 -16.5t-34 -20t-15.5 -34q0 -26 21.5 -35t81.5 -9h69q10 0 10 -10v-80q0 -10 -10 -10zM307 131q36 23 62.5 57.5t26.5 71.5q0 73 -105 73q-73 0 -109 -22q96 -61 125 -180z" />
    <glyph glyph-name="aAyn.init" unicode="&#x639;" horiz-adv-x="518" arabic-form="initial" 
d="M0 99h97q-46 53 -46 129q0 37 11.5 71.5t35.5 65.5t68 49.5t102 18.5q123 0 184 -79q5 -8 -3 -14l-54 -56q-7 -6 -14 1q-43 48 -106 48q-50 0 -78 -29.5t-28 -81.5q0 -36 16.5 -65t32.5 -40.5t30 -17.5h217q10 0 10 -10v-79q0 -10 -10 -10h-465q-40 0 -40 50q0 28 9 38.5
t31 10.5z" />
    <glyph glyph-name="aAyn.medi" unicode="&#x639;" horiz-adv-x="559" arabic-form="medial" 
d="M295 131q37 23 63.5 57t26.5 72q0 73 -105 73q-69 0 -110 -22q96 -61 125 -180zM280 433q111 0 166 -41.5t55 -114.5q0 -55 -31 -101t-74 -75q7 -2 38 -2h125q23 0 31 -11.5t8 -40.5q0 -27 -9 -37t-30 -10h-149q-80 0 -130 31q-57 -31 -136 -31h-144q-39 0 -39 47
q0 29 7 40.5t32 11.5h117q43 0 83 9q-10 41 -33 74t-40.5 47t-54.5 40q-14 10 -14 29v63q0 24 70.5 48t151.5 24z" />
    <glyph glyph-name="uniFECD" unicode="&#x63a;" horiz-adv-x="550" arabic-form="isolated" 
d="M33 -53q0 63 29 98.5t75 46.5q-51 55 -51 136q0 37 11.5 71.5t35.5 65.5t68 49.5t102 18.5q123 0 184 -79q5 -8 -3 -14l-54 -56q-6 -6 -14 1q-44 48 -106 48q-50 0 -78 -29.5t-28 -81.5q0 -36 16.5 -65t32.5 -40.5t30 -17.5h215q10 0 10 -10v-79q0 -10 -10 -10h-302
q-49 0 -49 -50q0 -28 15.5 -40t57.5 -12h99q10 0 10 -10v-80q0 -10 -10 -10h-109q-177 0 -177 149zM348 515h-96q-10 0 -10 10v86q0 10 10 10h96q10 0 10 -10v-86q0 -10 -10 -10z" />
    <glyph glyph-name="aGhayn.fina" unicode="&#x63a;" horiz-adv-x="579" arabic-form="final" 
d="M358 515h-96q-10 0 -10 10v86q0 10 10 10h96q10 0 10 -10v-86q0 -10 -10 -10zM324 -202h-83q-103 0 -153 30.5t-50 107.5q0 40 15.5 69.5t46 47.5t55.5 27.5t65 19.5q-10 43 -33 77t-41.5 49.5t-56.5 42.5q-14 10 -14 29v63q0 27 70.5 49.5t156.5 22.5q55 0 101.5 -14
t80.5 -50.5t34 -91.5q0 -101 -102 -174q4 0 19 -2t22 -2h126q21 0 30.5 -10t9.5 -36q0 -29 -9.5 -41t-30.5 -12h-154q-74 0 -121 31q-20 -8 -54 -18.5t-52.5 -16.5t-34 -20t-15.5 -34q0 -26 21.5 -35t81.5 -9h69q10 0 10 -10v-80q0 -10 -10 -10zM312 131q36 23 62.5 57.5
t26.5 71.5q0 73 -105 73q-73 0 -109 -22q96 -61 125 -180z" />
    <glyph glyph-name="aGhayn.init" unicode="&#x63a;" horiz-adv-x="518" arabic-form="initial" 
d="M313 515h-96q-10 0 -10 10v86q0 10 10 10h96q10 0 10 -10v-86q0 -10 -10 -10zM0 99h97q-46 53 -46 129q0 37 11.5 71.5t35.5 65.5t68 49.5t102 18.5q123 0 184 -79q5 -8 -3 -14l-54 -56q-7 -6 -14 1q-43 48 -106 48q-50 0 -78 -29.5t-28 -81.5q0 -36 16.5 -65t32.5 -40.5
t30 -17.5h217q10 0 10 -10v-79q0 -10 -10 -10h-465q-40 0 -40 50q0 28 9 38.5t31 10.5z" />
    <glyph glyph-name="aGhayn.medi" unicode="&#x63a;" horiz-adv-x="559" arabic-form="medial" 
d="M328 515h-96q-10 0 -10 10v86q0 10 10 10h96q10 0 10 -10v-86q0 -10 -10 -10zM295 131q37 23 63.5 57t26.5 72q0 73 -105 73q-69 0 -110 -22q96 -61 125 -180zM280 433q111 0 166 -41.5t55 -114.5q0 -55 -31 -101t-74 -75q7 -2 38 -2h125q23 0 31 -11.5t8 -40.5
q0 -27 -9 -37t-30 -10h-149q-80 0 -130 31q-57 -31 -136 -31h-144q-39 0 -39 47q0 29 7 40.5t32 11.5h117q43 0 83 9q-10 41 -33 74t-40.5 47t-54.5 40q-14 10 -14 29v63q0 24 70.5 48t151.5 24z" />
    <glyph glyph-name="uniFED1" unicode="&#x641;" horiz-adv-x="961" arabic-form="isolated" 
d="M702 333q-46 0 -70.5 -30.5t-24.5 -85.5q0 -65 23 -92t72 -27t71.5 26t22.5 88q0 121 -94 121zM702 0h-537q-63 0 -90 30t-27 96v215q0 10 10 10h92q10 0 10 -10v-189q0 -29 11.5 -41t36.5 -12h311q-23 44 -23 111q0 115 57.5 169t148.5 54q95 0 150.5 -53t55.5 -170
q0 -210 -206 -210zM755 515h-96q-10 0 -10 10v86q0 10 10 10h96q10 0 10 -10v-86q0 -10 -10 -10z" />
    <glyph glyph-name="aFeh.fina" unicode="&#x641;" horiz-adv-x="964" arabic-form="final" 
d="M208 99h360q-83 57 -83 155q0 83 54.5 131t155.5 48t155.5 -48t54.5 -131q0 -98 -83 -155h142q21 0 30.5 -10t9.5 -37q0 -29 -9.5 -40.5t-30.5 -11.5h-127q-101 0 -141 24q-33 -16 -70 -20t-104 -4h-357q-63 0 -90 30t-27 96v217q0 10 10 10h92q10 0 10 -10v-191
q0 -29 11.5 -41t36.5 -12zM695 344q-41 0 -68 -25.5t-27 -72.5q0 -88 95 -130q96 42 96 130q0 47 -27.5 72.5t-68.5 25.5zM741 515h-96q-10 0 -10 10v86q0 10 10 10h96q10 0 10 -10v-86q0 -10 -10 -10z" />
    <glyph glyph-name="aFeh.init" unicode="&#x641;" horiz-adv-x="542" arabic-form="initial" 
d="M331 515h-96q-10 0 -10 10v86q0 10 10 10h96q10 0 10 -10v-86q0 -10 -10 -10zM283 333q-45 0 -69.5 -30.5t-24.5 -85.5q0 -65 22.5 -92t71.5 -27q50 0 72.5 26t22.5 88q0 121 -95 121zM283 0h-278q-22 0 -31 10.5t-9 40.5q0 48 40 48h95q-23 44 -23 111q0 115 57.5 169
t148.5 54q95 0 150.5 -53t55.5 -170q0 -112 -54 -161t-152 -49z" />
    <glyph glyph-name="aFeh.medi" unicode="&#x641;" horiz-adv-x="538" arabic-form="medial" 
d="M269 344q-41 0 -68.5 -25.5t-27.5 -71.5q0 -89 96 -131q95 42 95 131q0 46 -27 71.5t-68 25.5zM269 433q101 0 155.5 -47.5t54.5 -130.5q0 -99 -83 -156h142q21 0 30.5 -10t9.5 -37q0 -29 -9.5 -40.5t-30.5 -11.5h-139q-90 0 -129 24q-44 -24 -137 -24h-133q-40 0 -40 51
q0 28 9 38t31 10h141q-82 59 -82 156q0 83 54.5 130.5t155.5 47.5zM318 515h-96q-10 0 -10 10v86q0 10 10 10h96q10 0 10 -10v-86q0 -10 -10 -10z" />
    <glyph glyph-name="uniFED5" unicode="&#x642;" horiz-adv-x="797" arabic-form="isolated" 
d="M530 333q-45 0 -70 -32t-25 -89q0 -61 24.5 -87t74.5 -26h89v114q0 120 -93 120zM735 211v-266q0 -66 -49.5 -106.5t-151.5 -40.5h-243q-127 0 -192 59t-65 164q0 53 19 109.5t46 93.5q5 8 14 2l79 -41q8 -5 3 -13q-46 -74 -46 -141q0 -69 45 -100t111 -31h215
q104 0 104 55v45h-102q-97 0 -147 50t-50 160q0 115 57 169t147 54q95 0 150.5 -53t55.5 -169zM508 515h-84q-10 0 -10 10v86q0 10 10 10h84q10 0 10 -10v-86q0 -10 -10 -10zM638 515h-84q-10 0 -10 10v86q0 10 10 10h84q10 0 10 -10v-86q0 -10 -10 -10z" />
    <glyph glyph-name="aQaf.fina" unicode="&#x642;" horiz-adv-x="804" arabic-form="final" 
d="M513 515h-84q-10 0 -10 10v86q0 10 10 10h84q10 0 10 -10v-86q0 -10 -10 -10zM643 515h-84q-10 0 -10 10v86q0 10 10 10h84q10 0 10 -10v-86q0 -10 -10 -10zM535 333q-45 0 -70 -32t-25 -89q0 -61 24.5 -87t74.5 -26h89v114q0 120 -93 120zM310 -100h215q104 0 104 55v45
h-102q-97 0 -147 50t-50 160q0 115 57 169t147 54q95 0 150.5 -53t55.5 -169v-112h69q21 0 30.5 -11t9.5 -38q0 -28 -9 -39t-31 -11h-69v-55q0 -66 -49.5 -106.5t-151.5 -40.5h-243q-127 0 -192 59t-65 164q0 53 19 109.5t46 93.5q5 8 14 2l79 -41q8 -5 3 -13
q-46 -74 -46 -141q0 -69 45 -100t111 -31z" />
    <glyph glyph-name="aQaf.init" unicode="&#x642;" horiz-adv-x="550" arabic-form="initial" 
d="M267 515h-84q-10 0 -10 10v86q0 10 10 10h84q10 0 10 -10v-86q0 -10 -10 -10zM397 515h-84q-10 0 -10 10v86q0 10 10 10h84q10 0 10 -10v-86q0 -10 -10 -10zM288 333q-45 0 -69.5 -30.5t-24.5 -85.5q0 -65 22.5 -92t71.5 -27q50 0 72.5 26t22.5 88q0 121 -95 121zM288 0
h-278q-22 0 -31 10.5t-9 40.5q0 48 40 48h95q-23 44 -23 111q0 115 57.5 169t148.5 54q95 0 150.5 -53t55.5 -170q0 -112 -54 -161t-152 -49z" />
    <glyph glyph-name="aQaf.medi" unicode="&#x642;" horiz-adv-x="538" arabic-form="medial" 
d="M269 344q-41 0 -68.5 -25.5t-27.5 -71.5q0 -89 96 -131q95 42 95 131q0 46 -27 71.5t-68 25.5zM269 433q101 0 155.5 -47.5t54.5 -130.5q0 -99 -83 -156h142q21 0 30.5 -10t9.5 -37q0 -29 -9.5 -40.5t-30.5 -11.5h-139q-90 0 -129 24q-44 -24 -137 -24h-133q-40 0 -40 51
q0 28 9 38t31 10h141q-82 59 -82 156q0 83 54.5 130.5t155.5 47.5zM250 515h-84q-10 0 -10 10v86q0 10 10 10h84q10 0 10 -10v-86q0 -10 -10 -10zM380 515h-84q-10 0 -10 10v86q0 10 10 10h84q10 0 10 -10v-86q0 -10 -10 -10z" />
    <glyph glyph-name="uniFED9" unicode="&#x643;" horiz-adv-x="848" arabic-form="isolated" 
d="M784 670v-544q0 -67 -27.5 -96.5t-92.5 -29.5h-499q-63 0 -90 30t-27 96v215q0 10 10 10h92q10 0 10 -10v-189q0 -34 18.5 -43.5t72.5 -9.5h371q33 0 41 20t8 78v473q0 10 10 10h93q10 0 10 -10zM478 501l-49 -57h17q33 0 47.5 -17.5t14.5 -56.5v-19q0 -39 -13.5 -53.5
t-45.5 -14.5h-118q-10 0 -10 10v30q0 10 10 10h101q12 0 16 4.5t4 16.5q0 27 -6.5 33.5t-31.5 6.5h-47q-14 0 -14 14v23q0 8 7 15l77 91q8 10 16 2l25 -22q6 -6 0 -16z" />
    <glyph glyph-name="aKaf.fina" unicode="&#x643;" horiz-adv-x="883" arabic-form="final" 
d="M784 670v-509q0 -30 21.5 -46t60.5 -16h17q40 0 40 -48q0 -29 -9 -40t-31 -11q-43 0 -70 10.5t-43 40.5q-14 -28 -41.5 -39.5t-76.5 -11.5h-487q-63 0 -90 30t-27 96v215q0 10 10 10h92q10 0 10 -10v-189q0 -34 17.5 -43.5t68.5 -9.5h376q33 0 41 18.5t8 75.5v477
q0 10 10 10h93q10 0 10 -10zM478 501l-49 -57h17q33 0 47.5 -17.5t14.5 -56.5v-19q0 -39 -13.5 -53.5t-45.5 -14.5h-118q-10 0 -10 10v30q0 10 10 10h101q12 0 16 4.5t4 16.5q0 27 -6.5 33.5t-31.5 6.5h-47q-14 0 -14 14v23q0 8 7 15l77 91q8 10 16 2l25 -22q6 -6 0 -16z
" />
    <glyph glyph-name="aKaf.init" unicode="&#x643;" horiz-adv-x="494" arabic-form="initial" 
d="M370 612l-165 -193q60 -1 98 -8t72.5 -25.5t50.5 -56.5t16 -98v-60q0 -96 -35 -133.5t-113 -37.5h-294q-21 0 -30.5 11.5t-9.5 40.5q0 28 9 37.5t31 9.5h248q52 0 66.5 16t14.5 63v54q0 45 -24 66.5t-78 21.5h-161q-10 0 -10 10v69q0 4 2.5 8t7 9t6.5 7l216 254q6 7 13 3
l65 -54q8 -8 4 -14z" />
    <glyph glyph-name="aKaf.medi" unicode="&#x643;" horiz-adv-x="541" arabic-form="medial" 
d="M56 330v69q0 4 2.5 8t7 9t6.5 7l216 254q6 7 13 3l65 -54q8 -8 4 -14l-165 -193q46 -1 77.5 -4.5t64 -14.5t51.5 -30t31.5 -52t12.5 -80v-83q0 -27 22.5 -41.5t59.5 -14.5h17q40 0 40 -48q0 -29 -9 -40t-31 -11q-46 0 -75.5 12t-45.5 45q-30 -57 -126 -57h-294
q-21 0 -30.5 11.5t-9.5 40.5q0 28 9 37.5t31 9.5h248q52 0 66.5 16t14.5 63v54q0 88 -102 88h-161q-10 0 -10 10z" />
    <glyph glyph-name="uniFEDD" unicode="&#x644;" horiz-adv-x="599" arabic-form="isolated" 
d="M103 223q4 7 15 2l81 -32q8 -4 4 -13q-45 -79 -45 -148q0 -72 40.5 -104.5t94.5 -32.5q128 0 128 129v646q0 10 10 10h93q10 0 10 -10v-649q0 -112 -65.5 -170t-179.5 -58q-110 0 -177.5 58.5t-67.5 170.5q0 108 59 201z" />
    <glyph glyph-name="aLam.fina" unicode="&#x644;" horiz-adv-x="633" arabic-form="final" 
d="M44 22q0 108 59 201q4 7 15 2l81 -32q8 -4 4 -13q-45 -79 -45 -148q0 -72 40.5 -104.5t94.5 -32.5q128 0 128 129v646q0 10 10 10h93q10 0 10 -10v-509q0 -30 22 -46t61 -16h16q40 0 40 -48q0 -29 -9 -40t-31 -11q-72 0 -99 32v-11q0 -112 -65.5 -170t-179.5 -58
q-110 0 -177.5 58.5t-67.5 170.5z" />
    <glyph glyph-name="aLam.init" unicode="&#x644;" horiz-adv-x="275" arabic-form="initial" 
d="M93 0h-93q-21 0 -30.5 10t-9.5 38t9.5 39.5t30.5 11.5h49q25 0 36.5 12t11.5 41v518q0 10 10 10h93q10 0 10 -10v-544q0 -66 -27 -96t-90 -30z" />
    <glyph glyph-name="aLam.medi" unicode="&#x644;" horiz-adv-x="310" arabic-form="medial" 
d="M0 99h49q25 0 36.5 12t11.5 41v518q0 10 10 10h93q10 0 10 -10v-509q0 -30 22 -46t61 -16h17q40 0 40 -48q0 -29 -9 -40t-31 -11q-44 0 -71 10.5t-43 40.5q-26 -51 -112 -51h-84q-22 0 -31 10t-9 41q0 27 9.5 37.5t30.5 10.5z" />
    <glyph glyph-name="uniFEE1" unicode="&#x645;" horiz-adv-x="611" arabic-form="isolated" 
d="M354 333q-95 0 -95 -121q0 -63 23 -91.5t72 -28.5q48 0 71 28.5t23 91.5q0 121 -94 121zM354 -7q-102 0 -152 59q-8 -12 -25 -22.5t-28 -24.5t-11 -41v-166h-113v187q0 36 12 61t29.5 38t35.5 23.5t32 25t16 34.5q-2 26 -2 43q0 117 55.5 170t150.5 53t150.5 -53
t55.5 -170q0 -112 -55 -164.5t-151 -52.5z" />
    <glyph glyph-name="aMim.fina" unicode="&#x645;" horiz-adv-x="648" arabic-form="final" 
d="M354 333q-95 0 -95 -121q0 -63 23 -91.5t72 -28.5q48 0 71 28.5t23 91.5q0 121 -94 121zM354 -7q-102 0 -152 59q-8 -12 -25 -22.5t-28 -24.5t-11 -41v-166h-113v187q0 36 12 61t29.5 38t35.5 23.5t32 25t16 34.5q-2 26 -2 43q0 117 55.5 170t150.5 53t150.5 -53
t55.5 -170q0 -12 -2 -34q2 -39 19.5 -58t42.5 -19h29q40 0 40 -48q0 -29 -9 -40t-31 -11q-30 0 -49 2t-45 14.5t-42 36.5q-50 -60 -159 -60z" />
    <glyph glyph-name="aMim.init" unicode="&#x645;" horiz-adv-x="564" arabic-form="initial" 
d="M306 333q-94 0 -94 -121q0 -63 23 -91.5t71 -28.5q49 0 72 28.5t23 91.5q0 121 -95 121zM306 -7q-106 0 -157 58q-32 -51 -114 -51h-35q-40 0 -40 50q0 28 9 38.5t31 10.5h39q25 0 44 22t19 69q-1 11 -1 30q2 111 57 162t148 51q95 0 150.5 -53t55.5 -170
q0 -217 -206 -217z" />
    <glyph glyph-name="aMim.medi" unicode="&#x645;" horiz-adv-x="601" arabic-form="medial" 
d="M101 220q2 111 57 162t148 51q95 0 150.5 -53t55.5 -170q0 -23 -1 -34q1 -39 18.5 -58t43.5 -19h29q40 0 40 -48q0 -29 -9 -40t-31 -11q-29 0 -48.5 2t-46 14.5t-42.5 36.5q-50 -60 -159 -60q-106 0 -157 58q-32 -51 -114 -51h-35q-40 0 -40 50q0 28 9 38.5t31 10.5h39
q62 0 63 91q-1 11 -1 30zM306 333q-94 0 -94 -121q0 -63 23 -91.5t71 -28.5q49 0 72 28.5t23 91.5q0 121 -95 121z" />
    <glyph glyph-name="uniFEE5" unicode="&#x646;" horiz-adv-x="595" arabic-form="isolated" 
d="M365 382h-96q-10 0 -10 10v86q0 10 10 10h96q10 0 10 -10v-86q0 -10 -10 -10zM103 223q5 9 15 2l81 -32q8 -4 4 -13q-45 -79 -45 -148q0 -72 40.5 -104.5t94.5 -32.5q128 0 128 129v297q0 10 10 10h93q10 0 10 -10v-300q0 -112 -65.5 -170t-179.5 -58q-110 0 -177.5 58.5
t-67.5 170.5q0 108 59 201z" />
    <glyph glyph-name="aNun.fina" unicode="&#x646;" horiz-adv-x="628" arabic-form="final" 
d="M365 382h-96q-10 0 -10 10v86q0 10 10 10h96q10 0 10 -10v-86q0 -10 -10 -10zM421 24v297q0 10 10 10h93q10 0 10 -10v-160q0 -30 22 -46t61 -16h11q40 0 40 -48q0 -29 -9 -40t-31 -11q-67 0 -94 32v-11q0 -112 -65.5 -170t-179.5 -58q-110 0 -177.5 58.5t-67.5 170.5
q0 108 59 201q5 9 15 2l81 -32q8 -4 4 -13q-45 -79 -45 -148q0 -72 40.5 -104.5t94.5 -32.5q128 0 128 129z" />
    <glyph glyph-name="aNun.init" unicode="&#x646;" horiz-adv-x="265" arabic-form="initial" 
d="M208 515h-96q-10 0 -10 10v86q0 10 10 10h96q10 0 10 -10v-86q0 -10 -10 -10zM98 0h-93q-21 0 -30.5 7.5t-9.5 27.5q0 27 10 45.5t30 18.5h49q25 0 36.5 12t11.5 41v253q0 10 10 10h93q10 0 10 -10v-279q0 -66 -27 -96t-90 -30z" />
    <glyph glyph-name="aNun.medi" unicode="&#x646;" horiz-adv-x="310" arabic-form="medial" 
d="M208 515h-96q-10 0 -10 10v86q0 10 10 10h96q10 0 10 -10v-86q0 -10 -10 -10zM215 405v-244q0 -30 22 -46t61 -16h17q40 0 40 -48q0 -29 -9 -40t-31 -11q-44 0 -71 10.5t-43 40.5q-14 -29 -41 -40t-76 -11h-79q-22 0 -31 7t-9 28q0 27 10.5 45.5t30.5 18.5h48
q32 0 40 18.5t8 75.5v212q0 10 10 10h93q10 0 10 -10z" />
    <glyph glyph-name="aHeh.isol" unicode="&#x647;" horiz-adv-x="698" arabic-form="isolated" 
d="M313 238q-28 0 -43.5 -18.5t-15.5 -52.5q0 -65 53 -70h11q52 0 52 70q0 71 -57 71zM475 0h-317q-23 0 -29.5 -6.5t-6.5 -27.5v-37q0 -10 -10 -10h-93q-10 0 -10 10v93q0 77 88 77h86q-14 33 -14 70q0 74 41 111t103 37q66 0 106 -37.5t40 -110.5q0 -40 -10 -70
q49 0 65 23t16 79q0 77 -42.5 119.5t-128.5 42.5q-78 0 -147 -31q-4 -4 -10 -4q-5 0 -6 4l-24 61q0 2 -0.5 4t-1.5 3v2q0 5 5 8q94 49 204 49q76 0 130.5 -22t83.5 -60.5t41.5 -81t12.5 -92.5q0 -111 -39 -157t-133 -46z" />
    <glyph glyph-name="aHeh.fina" unicode="&#x647;" horiz-adv-x="529" arabic-form="final" 
d="M237 140q94 0 94 108v85h-89q-46 0 -70.5 -23.5t-24.5 -79.5q0 -90 90 -90zM231 433h100v43q0 10 10 10h92q10 0 10 -10v-324q0 -29 11.5 -41t36.5 -12h38q40 0 40 -50q0 -29 -9 -39t-31 -10h-81q-50 0 -77 17.5t-36 59.5q-42 -36 -111 -36q-83 0 -136 47.5t-53 141.5
q0 108 55.5 155.5t140.5 47.5z" />
    <glyph glyph-name="aHeh.init" unicode="&#x647;" horiz-adv-x="626" arabic-form="initial" 
d="M241 238q-28 0 -43.5 -18.5t-15.5 -52.5q0 -65 53 -70h11q52 0 52 70q0 71 -57 71zM403 0h-403q-40 0 -40 49q0 28 9 39t31 11h111q-14 33 -14 70q0 74 41 111t103 37q66 0 106 -37.5t40 -110.5q0 -40 -10 -70q49 0 65 23t16 79q0 77 -42.5 119.5t-128.5 42.5
q-78 0 -147 -31q-4 -4 -10 -4q-5 0 -6 4l-24 61q0 2 -0.5 4t-1.5 3v2q0 5 5 8q94 49 204 49q76 0 130.5 -22t83.5 -60.5t41.5 -81t12.5 -92.5q0 -111 -39 -157t-133 -46z" />
    <glyph glyph-name="aHeh.medi" unicode="&#x647;" horiz-adv-x="572" arabic-form="medial" 
d="M300 -116q86 0 86 58q0 32 -19.5 47t-74.5 15h-83v-53q0 -67 91 -67zM300 333q-43 0 -67 -28.5t-24 -81.5v-125h99q43 0 65 35t22 85q0 115 -95 115zM-40 50q0 28 9 38.5t31 10.5h98v114q0 114 57 167t144 53q95 0 151 -49.5t56 -152.5q0 -76 -35 -132h102q22 0 31 -10.5
t9 -38.5q0 -50 -40 -50h-97q21 -28 21 -70q0 -68 -51.5 -105.5t-143.5 -37.5q-204 0 -204 155v58h-98q-40 0 -40 50z" />
    <glyph glyph-name="uniFEED" unicode="&#x648;" horiz-adv-x="521" arabic-form="isolated" 
d="M256 333q-45 0 -70.5 -33.5t-25.5 -91.5q0 -60 24 -84.5t75 -24.5h89v114q0 120 -92 120zM348 0h-101q-97 0 -147 47.5t-50 157.5q0 116 58 172t147 56q204 0 204 -221v-234q0 -93 -46 -136.5t-138 -43.5h-135q-10 0 -10 10v80q0 10 10 10h117q46 0 68.5 20.5t22.5 81.5z
" />
    <glyph glyph-name="aWaw.fina" unicode="&#x648;" horiz-adv-x="528" arabic-form="final" 
d="M256 333q-45 0 -70.5 -34t-25.5 -91q0 -60 24 -84.5t75 -24.5h89v114q0 120 -92 120zM275 -202h-135q-10 0 -10 10v80q0 10 10 10h117q48 0 69.5 21.5t21.5 80.5h-101q-97 0 -147 47.5t-50 157.5q0 116 58 172t147 56q204 0 204 -221v-113h69q40 0 40 -48q0 -31 -9 -41
t-31 -10h-69v-22q0 -93 -46 -136.5t-138 -43.5z" />
    <glyph glyph-name="uniFEEF" unicode="&#x649;" horiz-adv-x="792" arabic-form="isolated" 
d="M148 31q0 -70 45.5 -100.5t111.5 -30.5h199q101 0 101 54q0 17 -23.5 36t-56.5 39.5t-66 45.5t-56.5 63t-23.5 82q0 74 54.5 123.5t141.5 49.5q116 0 181 -78q6 -7 -3 -14l-54 -53q-8 -6 -14 1q-44 44 -104 44q-36 0 -61.5 -19.5t-25.5 -53.5q0 -26 23.5 -51.5t57 -48
t67.5 -47t57.5 -57.5t23.5 -70q0 -66 -49 -107t-150 -41h-233q-127 0 -192 59t-65 164q0 108 59 201q5 9 15 2l81 -32q8 -4 4 -13q-45 -79 -45 -148z" />
    <glyph glyph-name="aAlifMaksura.fina" unicode="&#x649;" horiz-adv-x="767" arabic-form="final" 
d="M305 -100h195q104 0 104 53q0 34 -48 58q-18 10 -150 59q-9 3 -6 12l27 79q3 10 12 7q19 -7 59 -23.5t60.5 -24t51.5 -14.5t58 -7h100q21 0 30.5 -10t9.5 -36q0 -29 -9.5 -41t-30.5 -12h-69q18 -28 18 -63q0 -61 -48.5 -100t-149.5 -39h-228q-127 0 -192 59t-65 164
q0 53 19 109.5t46 93.5q5 8 14 2l79 -41q8 -5 3 -13q-46 -74 -46 -141q0 -69 45 -100t111 -31z" />
    <glyph glyph-name="uniFEF1" unicode="&#x64a;" horiz-adv-x="792" arabic-form="isolated" 
d="M148 106q0 -70 45.5 -100.5t111.5 -30.5h199q101 0 101 54q0 17 -23.5 36t-56.5 39.5t-66 45.5t-56.5 63t-23.5 82q0 74 54.5 123.5t141.5 49.5q116 0 181 -78q6 -7 -3 -14l-54 -53q-8 -6 -14 1q-44 44 -104 44q-36 0 -61.5 -19.5t-25.5 -53.5q0 -26 23.5 -51.5t57 -48
t67.5 -47t57.5 -57.5t23.5 -70q0 -66 -49 -107t-150 -41h-233q-127 0 -192 59t-65 164q0 108 59 201q5 9 15 2l81 -32q8 -4 4 -13q-45 -79 -45 -148zM364 -297h-84q-10 0 -10 10v86q0 10 10 10h84q10 0 10 -10v-86q0 -10 -10 -10zM494 -297h-84q-10 0 -10 10v86q0 10 10 10
h84q10 0 10 -10v-86q0 -10 -10 -10z" />
    <glyph glyph-name="aYeh.fina" unicode="&#x64a;" horiz-adv-x="773" arabic-form="final" 
d="M365 -377h-84q-10 0 -10 10v86q0 10 10 10h84q10 0 10 -10v-86q0 -10 -10 -10zM495 -377h-84q-10 0 -10 10v86q0 10 10 10h84q10 0 10 -10v-86q0 -10 -10 -10zM310 -100h195q104 0 104 53q0 34 -48 58q-18 10 -150 59q-9 3 -6 12l27 79q3 10 12 7q19 -7 59 -23.5
t60.5 -24t51.5 -14.5t58 -7h100q21 0 30.5 -10t9.5 -36q0 -29 -9.5 -41t-30.5 -12h-69q18 -28 18 -63q0 -61 -48.5 -100t-149.5 -39h-228q-127 0 -192 59t-65 164q0 53 19 109.5t46 93.5q5 8 14 2l79 -41q8 -5 3 -13q-46 -74 -46 -141q0 -69 45 -100t111 -31z" />
    <glyph glyph-name="aYeh.init" unicode="&#x64a;" horiz-adv-x="297" arabic-form="initial" 
d="M109 0h-109q-21 0 -30.5 10t-9.5 36q0 29 9.5 41t30.5 12h65q25 0 36.5 12t11.5 41v253q0 10 10 10h93q10 0 10 -10v-279q0 -66 -27 -96t-90 -30zM123 -192h-84q-10 0 -10 10v86q0 10 10 10h84q10 0 10 -10v-86q0 -10 -10 -10zM253 -192h-84q-10 0 -10 10v86q0 10 10 10
h84q10 0 10 -10v-86q0 -10 -10 -10z" />
    <glyph glyph-name="aYeh.medi" unicode="&#x64a;" horiz-adv-x="331" arabic-form="medial" 
d="M146 -192h-84q-10 0 -10 10v86q0 10 10 10h84q10 0 10 -10v-86q0 -10 -10 -10zM276 -192h-84q-10 0 -10 10v86q0 10 10 10h84q10 0 10 -10v-86q0 -10 -10 -10zM217 51q-14 -28 -41.5 -39.5t-77.5 -11.5h-93q-21 0 -30.5 10t-9.5 37q0 29 9.5 40.5t30.5 11.5h65
q33 0 40.5 19.5t7.5 78.5v208q0 10 17 10h86q10 0 10 -10v-244q0 -30 22 -46t61 -16h17q40 0 40 -48q0 -29 -9 -40t-31 -11q-44 0 -71 10.5t-43 40.5z" />
    <glyph glyph-name="aLam.init_aAlifMadda.fina" unicode="&#xfef5;" horiz-adv-x="666" arabic-form="isolated" 
d="M100 633q18 73 81 73q30 0 94.5 -26.5t92.5 -26.5q16 0 22 7.5t6 26.5q0 10 10 10h37q10 0 10 -10q0 -94 -77 -94q-39 0 -102.5 25t-83.5 25q-24 0 -33 -28q-3 -10 -13 -7l-37 12q-8 3 -7 13zM336 529v-430h104q25 0 36.5 12t11.5 41v518q0 10 10 10h93q10 0 10 -10v-544
q0 -66 -27 -96t-90 -30h-439q-10 0 -10 10v79q0 10 10 10h178v430q0 10 10 10h93q10 0 10 -10z" />
    <glyph glyph-name="aLam.medi_aAlifMadda.fina" unicode="&#xfef6;" horiz-adv-x="700" arabic-form="final" 
d="M100 633q18 73 81 73q30 0 94.5 -26.5t92.5 -26.5q16 0 22 7.5t6 26.5q0 10 10 10h37q10 0 10 -10q0 -94 -77 -94q-39 0 -102.5 25t-83.5 25q-24 0 -33 -28q-3 -10 -13 -7l-37 12q-8 3 -7 13zM488 189v481q0 10 10 10h93q10 0 10 -10v-519q9 -52 82 -52h17q40 0 40 -48
q0 -29 -9 -40t-31 -11q-43 0 -69.5 10t-43.5 40q-26 -50 -115 -50h-427q-10 0 -10 10v79q0 10 10 10h178v430q0 10 10 10h93q10 0 10 -10v-430h104q32 0 40 17.5t8 72.5z" />
    <glyph glyph-name="aLam.init_aAlifHamza.fina" unicode="&#xfef7;" horiz-adv-x="666" arabic-form="isolated" 
d="M171 656h37q-16 27 -16 57q0 39 26.5 69.5t79.5 30.5q57 0 85 -38q3 -6 0 -9l-26 -25q-6 -5 -10 -1q-23 23 -48 23q-23 0 -36 -14.5t-13 -36.5q0 -37 32 -56h101q6 0 6 -7v-37q0 -7 -6 -7h-212q-6 0 -6 7v37q0 7 6 7zM336 529v-430h104q25 0 36.5 12t11.5 41v518
q0 10 10 10h93q10 0 10 -10v-544q0 -66 -27 -96t-90 -30h-439q-10 0 -10 10v79q0 10 10 10h178v430q0 10 10 10h93q10 0 10 -10z" />
    <glyph glyph-name="aLam.medi_aAlifHamza.fina" unicode="&#xfef8;" horiz-adv-x="700" arabic-form="final" 
d="M171 656h37q-16 27 -16 57q0 39 26.5 69.5t79.5 30.5q57 0 85 -38q3 -6 0 -9l-26 -25q-6 -5 -10 -1q-23 23 -48 23q-23 0 -36 -14.5t-13 -36.5q0 -37 32 -56h101q6 0 6 -7v-37q0 -7 -6 -7h-212q-6 0 -6 7v37q0 7 6 7zM488 189v481q0 10 10 10h93q10 0 10 -10v-519
q9 -52 82 -52h17q40 0 40 -48q0 -29 -9 -40t-31 -11q-43 0 -69.5 10t-43.5 40q-26 -50 -115 -50h-427q-10 0 -10 10v79q0 10 10 10h178v430q0 10 10 10h93q10 0 10 -10v-430h104q32 0 40 17.5t8 72.5z" />
    <glyph glyph-name="aLam.init_aAlifHamzabelow.fina" unicode="&#xfef9;" horiz-adv-x="666" arabic-form="isolated" 
d="M171 -227h37q-16 27 -16 58q0 39 26.5 69t79.5 30q58 0 85 -37q4 -6 0 -10l-26 -24q-6 -6 -10 -2q-21 23 -48 23q-23 0 -36 -14t-13 -36q0 -34 32 -57h101q6 0 6 -7v-36q0 -7 -6 -7h-212q-6 0 -6 7v36q0 7 6 7zM336 529v-430h104q25 0 36.5 12t11.5 41v518q0 10 10 10h93
q10 0 10 -10v-544q0 -66 -27 -96t-90 -30h-439q-10 0 -10 10v79q0 10 10 10h178v430q0 10 10 10h93q10 0 10 -10z" />
    <glyph glyph-name="aLam.medi_aAlifHamzabelow.fina" unicode="&#xfefa;" horiz-adv-x="700" arabic-form="final" 
d="M171 -227h37q-16 27 -16 58q0 39 26.5 69t79.5 30q58 0 85 -37q4 -6 0 -10l-26 -24q-6 -6 -10 -2q-21 23 -48 23q-23 0 -36 -14t-13 -36q0 -34 32 -57h101q6 0 6 -7v-36q0 -7 -6 -7h-212q-6 0 -6 7v36q0 7 6 7zM488 189v481q0 10 10 10h93q10 0 10 -10v-519q9 -52 82 -52
h17q40 0 40 -48q0 -29 -9 -40t-31 -11q-43 0 -69.5 10t-43.5 40q-26 -50 -115 -50h-427q-10 0 -10 10v79q0 10 10 10h178v430q0 10 10 10h93q10 0 10 -10v-430h104q32 0 40 17.5t8 72.5z" />
    <glyph glyph-name="aLam.init_aAlif.fina" unicode="&#xfefb;" horiz-adv-x="666" arabic-form="isolated" 
d="M336 529v-430h104q25 0 36.5 12t11.5 41v518q0 10 10 10h93q10 0 10 -10v-544q0 -66 -27 -96t-90 -30h-439q-10 0 -10 10v79q0 10 10 10h178v430q0 10 10 10h93q10 0 10 -10z" />
    <glyph glyph-name="aLam.medi_aAlif.fina" unicode="&#xfefc;" horiz-adv-x="700" arabic-form="final" 
d="M488 189v481q0 10 10 10h93q10 0 10 -10v-519q9 -52 82 -52h17q40 0 40 -48q0 -29 -9 -40t-31 -11q-43 0 -69.5 10t-43.5 40q-26 -50 -115 -50h-427q-10 0 -10 10v79q0 10 10 10h178v430q0 10 10 10h93q10 0 10 -10v-430h104q32 0 40 17.5t8 72.5z" />
    <glyph glyph-name=".notdef" horiz-adv-x="483" 
d="M190 124v59q0 10 10 10h58q10 0 10 -10v-59q0 -10 -10 -10h-58q-10 0 -10 10zM256 237h-54q-10 0 -10 10v24q0 30 17 55l51 70q21 28 21 53q0 21 -13.5 35t-34.5 14q-43 0 -55 -45q-2 -11 -11 -9l-52 9q-9 1 -8 11q10 46 43 72.5t86 26.5q51 0 85 -33t34 -81
q0 -37 -26 -74l-50 -71q-13 -18 -13 -41v-16q0 -10 -10 -10zM59 619v-558q0 -6 6 -6h353q6 0 6 6v558q0 6 -6 6h-353q-6 0 -6 -6zM0 10v660q0 10 10 10h463q10 0 10 -10v-660q0 -10 -10 -10h-463q-10 0 -10 10z" />
    <glyph glyph-name=".null" horiz-adv-x="500" 
 />
    <glyph glyph-name=".null" horiz-adv-x="500" 
 />
    <glyph glyph-name="nonmarkingreturn" horiz-adv-x="333" 
 />
    <glyph glyph-name="CR" unicode="&#xd;" horiz-adv-x="0" 
 />
    <glyph glyph-name="space" unicode=" " horiz-adv-x="236" 
 />
    <glyph glyph-name="exclam" unicode="!" horiz-adv-x="307" 
d="M93 10v102q0 10 10 10h100q10 0 10 -10v-102q0 -10 -10 -10h-100q-10 0 -10 10zM183 190h-59q-10 0 -10 10l-23 470q0 10 10 10h105q10 0 10 -10l-23 -470q0 -10 -10 -10z" />
    <glyph glyph-name="quotedbl" unicode="&#x22;" horiz-adv-x="345" 
d="M132 488h-61q-10 0 -10 10v172q0 10 10 10h61q10 0 10 -10v-172q0 -10 -10 -10zM274 488h-62q-10 0 -10 10v172q0 10 10 10h62q10 0 10 -10v-172q0 -10 -10 -10z" />
    <glyph glyph-name="numbersign" unicode="#" horiz-adv-x="514" 
d="M190 288h116l16 116h-116zM69 10l27 200h-66q-10 0 -10 10v58q0 10 10 10h77l16 116h-67q-10 0 -10 10v58q0 10 10 10h77l26 188q1 10 11 10h63q10 0 9 -10l-26 -188h116l26 188q1 10 11 10h63q10 0 9 -10l-26 -188h69q10 0 10 -10v-58q0 -10 -10 -10h-79l-16 -116h69
q10 0 10 -10v-58q0 -10 -10 -10h-80l-27 -200q-1 -10 -11 -10h-63q-10 0 -9 10l27 200h-116l-27 -200q-1 -10 -11 -10h-63q-10 0 -9 10z" />
    <glyph glyph-name="dollar" unicode="$" 
d="M312 284v-191q75 18 75 103q0 66 -75 88zM253 405v183q-34 -7 -54 -32t-20 -61q0 -69 74 -90zM60 61q-9 8 -2 15l53 67q7 7 14 1q57 -47 128 -54v205q-87 14 -135 64t-48 128q0 83 51 138.5t132 63.5v52q0 10 10 10h39q10 0 10 -10v-52q82 -7 153 -53q7 -6 2 -14l-46 -68
q-6 -7 -14 -2q-43 28 -95 36v-195q90 -15 137 -64.5t47 -128.5q0 -85 -48.5 -140.5t-135.5 -67.5v-53q0 -10 -10 -10h-39q-10 0 -10 10v51q-108 4 -193 71z" />
    <glyph glyph-name="percent" unicode="%" horiz-adv-x="782" 
d="M546 92q11 -29 44 -29q32 0 43 29q4 12 4 78q0 68 -4 79q-10 28 -43 28q-34 0 -44 -28q-4 -11 -4 -79q0 -66 4 -78zM467 71q-8 34 -8 99t8 99q12 36 45 58t78 22q44 0 76.5 -21.5t45.5 -58.5q8 -23 8 -99q0 -77 -8 -99q-14 -37 -46 -58.5t-76 -21.5q-45 0 -78 22t-45 58z
M192 402q32 0 43 29q4 12 4 78q0 68 -4 79q-10 28 -43 28q-34 0 -44 -28q-4 -11 -4 -79q0 -66 4 -78q11 -29 44 -29zM192 330q-44 0 -76 21.5t-46 58.5q-8 22 -8 99q0 76 8 99q13 37 45.5 58.5t76.5 21.5t76.5 -21.5t45.5 -58.5q8 -23 8 -99q0 -77 -8 -99q-14 -37 -46 -58.5
t-76 -21.5zM151 -1l395 682q6 10 16 10h65q11 0 5 -10l-395 -682q-6 -10 -15 -10h-66q-11 0 -5 10z" />
    <glyph glyph-name="ampersand" unicode="&#x26;" horiz-adv-x="646" 
d="M167 177q0 -43 24.5 -67t68.5 -24q28 0 53 14t58 49l-120 154q-84 -66 -84 -126zM274 440q46 34 60.5 55t14.5 44q0 25 -18 42.5t-45 17.5q-29 0 -47 -17t-18 -44q0 -18 10 -36.5t43 -61.5zM63 171q0 56 29.5 104.5t99.5 103.5q-44 57 -60 88.5t-16 67.5q0 68 49 112
t120 44q73 0 119.5 -45t46.5 -108q0 -46 -26 -85t-92 -89l106 -136l68 81q6 7 14 1l55 -47q8 -6 2 -14l-80 -97l24 -30q16 -22 41 -22h15q10 0 10 -10v-80q0 -10 -10 -10h-33q-33 0 -53.5 11t-45.5 42l-17 21q-43 -45 -84 -65t-93 -20q-91 0 -140 50t-49 132z" />
    <glyph glyph-name="quotesingle" unicode="'" horiz-adv-x="203" 
d="M132 488h-61q-10 0 -10 10v172q0 10 10 10h61q10 0 10 -10v-172q0 -10 -10 -10z" />
    <glyph glyph-name="parenleft" unicode="(" horiz-adv-x="293" 
d="M179 -74q-128 180 -128 402q0 226 128 402q7 10 17 10h49q10 0 6 -10q-93 -188 -93 -402q0 -221 93 -402q4 -10 -6 -10h-49q-10 0 -17 10z" />
    <glyph glyph-name="parenright" unicode=")" horiz-adv-x="293" 
d="M42 -74q93 181 93 402q0 214 -93 402q-4 10 6 10h49q10 0 17 -10q128 -176 128 -402q0 -222 -128 -402q-7 -10 -17 -10h-49q-10 0 -6 10z" />
    <glyph glyph-name="asterisk" unicode="*" horiz-adv-x="335" 
d="M189 392h-43q-10 0 -10 10l1 81l-70 -42q-10 -4 -14 4l-21 38q-4 10 4 14l70 39l-70 39q-8 4 -4 14l21 38q4 8 14 4l70 -42l-1 81q0 10 10 10h43q10 0 10 -10l-1 -81l70 42q10 4 14 -4l21 -38q4 -10 -4 -14l-70 -39l70 -39q8 -4 4 -14l-21 -38q-4 -8 -14 -4l-70 42l1 -81
q0 -10 -10 -10z" />
    <glyph glyph-name="plus" unicode="+" 
d="M224 67v154q0 6 -6 6h-153q-10 0 -10 10v78q0 10 10 10h153q6 0 6 6v154q0 10 10 10h81q10 0 10 -10v-154q0 -6 6 -6h153q10 0 10 -10v-78q0 -10 -10 -10h-153q-6 0 -6 -6v-154q0 -10 -10 -10h-81q-10 0 -10 10z" />
    <glyph glyph-name="comma" unicode="," horiz-adv-x="246" 
d="M66 -101v213q0 10 10 10h94q10 0 10 -10v-109q0 -14 -7 -21l-83 -86q-7 -7 -14 -7q-10 0 -10 10z" />
    <glyph glyph-name="hyphen" unicode="-" horiz-adv-x="385" 
d="M330 216h-275q-10 0 -10 10v79q0 10 10 10h275q10 0 10 -10v-79q0 -10 -10 -10z" />
    <glyph glyph-name="period" unicode="." horiz-adv-x="252" 
d="M66 10v102q0 10 10 10h100q10 0 10 -10v-102q0 -10 -10 -10h-100q-10 0 -10 10z" />
    <glyph glyph-name="slash" unicode="/" horiz-adv-x="425" 
d="M54 -1l222 682q3 10 13 10h75q10 0 7 -10l-222 -682q-3 -10 -13 -10h-75q-10 0 -7 10z" />
    <glyph glyph-name="zero" unicode="0" 
d="M191 143q21 -54 83 -54q63 0 84 54q9 23 9 197q0 171 -9 197q-20 54 -84 54t-83 -54q-9 -26 -9 -197q0 -174 9 -197zM81 122q-14 44 -14 218q0 173 14 218q41 133 193 133q153 0 194 -133q14 -45 14 -218q0 -174 -14 -218q-41 -133 -194 -133q-152 0 -193 133z" />
    <glyph glyph-name="one" unicode="1" 
d="M247 10v536h-2l-104 -73q-11 -8 -11 6v102q0 8 7 14l109 79q8 6 18 6h85q10 0 10 -10v-660q0 -10 -10 -10h-92q-10 0 -10 10z" />
    <glyph glyph-name="two" unicode="2" 
d="M72 10v75q0 8 5 13l240 299q44 54 44 104q0 39 -24 64.5t-66 25.5q-81 0 -92 -85q-1 -9 -11 -8l-88 18q-10 1 -8 12q7 66 59.5 114.5t142.5 48.5q93 0 146.5 -54t53.5 -136t-64 -159l-198 -240v-2h252q10 0 10 -10v-80q0 -10 -10 -10h-382q-10 0 -10 10z" />
    <glyph glyph-name="three" unicode="3" 
d="M61 135q-1 10 8 13l87 20q9 2 12 -7q27 -72 103 -72q47 0 73.5 27.5t26.5 73.5q0 52 -30 81.5t-81 29.5h-29q-10 0 -10 10v79q0 10 10 10h27q45 0 72 27t27 72q0 42 -24.5 67t-66.5 25q-71 0 -91 -70q-3 -9 -12 -7l-85 20q-10 1 -8 12q12 64 66 104.5t134 40.5
q93 0 146.5 -52t53.5 -136q0 -92 -76 -141v-2q34 -14 62 -59.5t28 -105.5q0 -93 -60 -149.5t-153 -56.5q-81 0 -138 38.5t-72 107.5z" />
    <glyph glyph-name="four" unicode="4" 
d="M323 104h-267q-10 0 -10 10v77q0 7 3 12l220 469q5 8 14 8h95q12 0 7 -9l-216 -465v-2h154q6 0 6 6v170q0 10 10 10h92q10 0 10 -10v-170q0 -6 6 -6h50q10 0 10 -10v-80q0 -10 -10 -10h-50q-6 0 -6 -6v-88q0 -10 -10 -10h-92q-10 0 -10 10v88q0 6 -6 6z" />
    <glyph glyph-name="five" unicode="5" 
d="M81 129q-2 9 8 12l85 21q9 1 12 -8q22 -65 94 -65q65 0 84 56q9 24 9 75q0 53 -9 75q-21 56 -85 56q-61 0 -83 -47q-4 -10 -12 -10h-84q-10 0 -10 10v366q0 10 10 10h362q10 0 10 -10v-80q0 -10 -10 -10h-263q-6 0 -6 -6v-153h3q37 30 100 30q139 0 175 -115
q15 -48 15 -116q0 -66 -14 -107q-19 -59 -70.5 -91.5t-121.5 -32.5q-78 0 -132.5 38.5t-66.5 101.5z" />
    <glyph glyph-name="six" unicode="6" 
d="M172 197q0 -49 28 -78.5t75 -29.5q48 0 76 30t28 78t-28 78t-76 30q-47 0 -75 -29.5t-28 -78.5zM58 199q0 76 45 156l178 319q5 6 12 6h96q10 0 6 -10l-150 -272l2 -2q20 9 51 9q81 0 137.5 -55.5t56.5 -145.5q0 -101 -61.5 -158t-155.5 -57t-155.5 56.5t-61.5 153.5z
" />
    <glyph glyph-name="seven" unicode="7" 
d="M139 11l222 566v3h-169q-6 0 -6 -6v-78q0 -10 -10 -10h-86q-10 0 -10 10v174q0 10 10 10h381q10 0 10 -10v-78q0 -10 -3 -18l-225 -565q-4 -9 -13 -9h-95q-11 0 -6 11z" />
    <glyph glyph-name="eight" unicode="8" 
d="M168 198q0 -48 29 -78.5t77 -30.5t77.5 30.5t29.5 78.5t-29.5 78.5t-77.5 30.5t-77 -30.5t-29 -78.5zM274 407q41 0 66.5 27t25.5 65q0 39 -25.5 65.5t-66.5 26.5t-66 -26.5t-25 -65.5q0 -38 25 -65t66 -27zM55 193q0 55 23.5 97.5t61.5 65.5v2q-29 19 -49.5 55.5
t-20.5 83.5q0 80 55 137t149 57q95 0 150 -57t55 -137q0 -47 -20.5 -83.5t-49.5 -55.5v-2q38 -23 61.5 -65.5t23.5 -97.5q0 -90 -61.5 -147t-158.5 -57q-96 0 -157.5 57t-61.5 147z" />
    <glyph glyph-name="nine" unicode="9" 
d="M274 375q48 0 76 30t28 78t-28 78t-76 30q-47 0 -75 -29.5t-28 -78.5t28 -78.5t75 -29.5zM154 10l150 272l-2 2q-16 -9 -51 -9q-81 0 -137.5 55.5t-56.5 145.5q0 101 61.5 158t155.5 57t155.5 -56.5t61.5 -153.5q0 -76 -45 -156l-177 -319q-5 -6 -12 -6h-97q-10 0 -6 10z
" />
    <glyph glyph-name="colon" unicode=":" horiz-adv-x="260" 
d="M70 10v102q0 10 10 10h100q10 0 10 -10v-102q0 -10 -10 -10h-100q-10 0 -10 10zM180 360h-100q-10 0 -10 10v102q0 10 10 10h100q10 0 10 -10v-102q0 -10 -10 -10z" />
    <glyph glyph-name="semicolon" unicode=";" horiz-adv-x="260" 
d="M73 -101v213q0 10 10 10h94q10 0 10 -10v-109q0 -13 -6 -20l-84 -87q-7 -7 -14 -7q-10 0 -10 10zM180 360h-100q-10 0 -10 10v102q0 10 10 10h100q10 0 10 -10v-102q0 -10 -10 -10z" />
    <glyph glyph-name="less" unicode="&#x3c;" 
d="M484 57l-419 172q-10 3 -10 14v66q0 11 10 14l419 172q10 3 10 -6v-89q0 -9 -10 -13l-286 -110v-2l286 -110q10 -4 10 -13v-89q0 -9 -10 -6z" />
    <glyph glyph-name="equal" unicode="=" 
d="M484 127h-419q-10 0 -10 10v78q0 10 10 10h419q10 0 10 -10v-78q0 -10 -10 -10zM484 327h-419q-10 0 -10 10v78q0 10 10 10h419q10 0 10 -10v-78q0 -10 -10 -10z" />
    <glyph glyph-name="greater" unicode="&#x3e;" 
d="M55 63v89q0 9 10 13l286 110v2l-286 110q-10 4 -10 13v89q0 9 10 6l419 -172q10 -3 10 -14v-66q0 -11 -10 -14l-419 -172q-10 -3 -10 6z" />
    <glyph glyph-name="question" unicode="?" horiz-adv-x="464" 
d="M163 10v102q0 10 10 10h100q10 0 10 -10v-102q0 -10 -10 -10h-100q-10 0 -10 10zM270 190h-93q-10 0 -10 10v41q0 51 26 85l79 108q34 45 34 82q0 33 -21.5 54t-56.5 21q-71 0 -85 -80q-1 -9 -11 -8l-90 14q-10 1 -8 12q12 76 63.5 119t134.5 43q82 0 135 -49t53 -125
q0 -61 -41 -117l-79 -108q-20 -27 -20 -63v-29q0 -10 -10 -10z" />
    <glyph glyph-name="at" unicode="@" horiz-adv-x="900" 
d="M369 193q19 -55 79 -55t78 55q7 22 7 71t-7 70q-18 56 -78 56q-59 0 -79 -56q-7 -21 -7 -70t7 -71zM54 268q0 173 110.5 282.5t285.5 109.5t285.5 -110t110.5 -282q0 -105 -47 -159.5t-118 -54.5q-83 0 -121 64h-1q-32 -63 -132 -63q-112 0 -144 98q-13 39 -13 111
t13 111q32 98 140 98q38 0 66.5 -14.5t41.5 -36.5h2v31q0 9 8 9h74q8 0 8 -9v-247q0 -36 16.5 -53t41.5 -17q73 0 73 132q0 139 -82 224.5t-222 85.5t-222 -85t-82 -225t82 -225t222 -85q118 0 214 45q9 4 14 -5l23 -54q5 -8 -4 -13q-102 -55 -247 -55q-175 0 -285.5 109.5
t-110.5 282.5z" />
    <glyph glyph-name="A" unicode="A" horiz-adv-x="617" 
d="M216 247h184l-90 264h-3zM18 10l233 660q3 10 13 10h92q10 0 13 -10l230 -660q3 -10 -7 -10h-98q-10 0 -13 10l-45 132h-256l-45 -132q-3 -10 -13 -10h-97q-10 0 -7 10z" />
    <glyph glyph-name="B" unicode="B" horiz-adv-x="607" 
d="M193 287v-177q0 -6 6 -6h142q50 0 76.5 25.5t26.5 69.5q0 43 -26.5 68.5t-76.5 25.5h-142q-6 0 -6 -6zM199 397h136q45 0 71 24.5t26 64.5q0 42 -26 66t-71 24h-136q-6 0 -6 -6v-167q0 -6 6 -6zM75 10v660q0 10 10 10h253q105 0 158.5 -48.5t53.5 -132.5q0 -102 -79 -144
v-2q36 -14 63.5 -55t27.5 -98q0 -200 -234 -200h-243q-10 0 -10 10z" />
    <glyph glyph-name="C" unicode="C" horiz-adv-x="575" 
d="M73 156q-18 60 -18 184q0 126 18 184q52 167 236 167q81 0 141 -38.5t89 -107.5q3 -9 -5 -12l-85 -41q-8 -4 -13 5q-42 88 -127 88q-93 0 -122 -90q-12 -37 -12 -155t12 -155q29 -90 122 -90q85 0 127 88q5 9 13 5l85 -41q8 -3 5 -12q-29 -69 -89 -107.5t-141 -38.5
q-184 0 -236 167z" />
    <glyph glyph-name="D" unicode="D" horiz-adv-x="625" 
d="M193 568v-456q0 -6 6 -6h101q57 0 91 20.5t50 65.5q12 33 12 148q0 121 -12 148q-28 86 -141 86h-101q-6 0 -6 -6zM75 10v660q0 10 10 10h243q178 0 227 -151q17 -53 17 -189t-17 -189q-49 -151 -227 -151h-243q-10 0 -10 10z" />
    <glyph glyph-name="E" unicode="E" horiz-adv-x="570" 
d="M75 10v660q0 10 10 10h426q10 0 10 -10v-86q0 -10 -10 -10h-312q-6 0 -6 -6v-166q0 -6 6 -6h263q10 0 10 -10v-86q0 -10 -10 -10h-263q-6 0 -6 -6v-172q0 -6 6 -6h312q10 0 10 -10v-86q0 -10 -10 -10h-426q-10 0 -10 10z" />
    <glyph glyph-name="F" unicode="F" horiz-adv-x="561" 
d="M75 10v660q0 10 10 10h426q10 0 10 -10v-86q0 -10 -10 -10h-312q-6 0 -6 -6v-173q0 -6 6 -6h263q10 0 10 -10v-86q0 -10 -10 -10h-263q-6 0 -6 -6v-267q0 -10 -10 -10h-98q-10 0 -10 10z" />
    <glyph glyph-name="G" unicode="G" horiz-adv-x="627" 
d="M73 153q-18 58 -18 187t18 187q26 80 88.5 122t154.5 42q90 0 151 -41t86 -103q4 -9 -4 -14l-84 -37q-8 -3 -13 5q-24 43 -55.5 63.5t-81.5 20.5q-98 0 -128 -89q-12 -38 -12 -156q0 -119 12 -156q30 -89 128 -89q46 0 80.5 22t48.5 63q11 33 11 88q0 6 -6 6h-112
q-10 0 -10 10v80q0 10 10 10h225q10 0 10 -10v-59q0 -98 -16 -149q-24 -80 -87.5 -123.5t-152.5 -43.5q-92 0 -154.5 42t-88.5 122z" />
    <glyph glyph-name="H" unicode="H" horiz-adv-x="657" 
d="M75 10v660q0 10 10 10h98q10 0 10 -10v-268q0 -6 6 -6h259q6 0 6 6v268q0 10 10 10h98q10 0 10 -10v-660q0 -10 -10 -10h-98q-10 0 -10 10v274q0 6 -6 6h-259q-6 0 -6 -6v-274q0 -10 -10 -10h-98q-10 0 -10 10z" />
    <glyph glyph-name="I" unicode="I" horiz-adv-x="268" 
d="M75 10v660q0 10 10 10h98q10 0 10 -10v-660q0 -10 -10 -10h-98q-10 0 -10 10z" />
    <glyph glyph-name="J" unicode="J" horiz-adv-x="507" 
d="M24 71q-5 8 2 14l73 55q7 4 15 -3q36 -42 91 -42t84 34t29 100v441q0 10 10 10h98q10 0 10 -10v-441q0 -115 -63 -177.5t-172 -62.5q-56 0 -104.5 23.5t-72.5 58.5z" />
    <glyph glyph-name="K" unicode="K" horiz-adv-x="633" 
d="M75 10v660q0 10 10 10h98q10 0 10 -10v-320l257 322q8 8 16 8h114q13 0 4 -13l-211 -254l235 -401q8 -12 -7 -12h-111q-10 0 -15 8l-178 314l-104 -126v-186q0 -10 -10 -10h-98q-10 0 -10 10z" />
    <glyph glyph-name="L" unicode="L" horiz-adv-x="545" 
d="M75 10v660q0 10 10 10h98q10 0 10 -10v-558q0 -6 6 -6h312q10 0 10 -10v-86q0 -10 -10 -10h-426q-10 0 -10 10z" />
    <glyph glyph-name="M" unicode="M" horiz-adv-x="756" 
d="M75 10v660q0 10 10 10h89q13 0 17 -10l187 -419h4l184 419q4 10 17 10h88q10 0 10 -10v-660q0 -10 -10 -10h-87q-10 0 -10 10v416h-4l-144 -320q-6 -13 -19 -13h-58q-13 0 -19 13l-144 320h-4v-416q0 -10 -10 -10h-87q-10 0 -10 10z" />
    <glyph glyph-name="N" unicode="N" horiz-adv-x="657" 
d="M75 10v660q0 10 10 10h92q11 0 17 -10l277 -469h4v469q0 10 10 10h87q10 0 10 -10v-660q0 -10 -10 -10h-91q-11 0 -17 10l-278 468h-4v-468q0 -10 -10 -10h-87q-10 0 -10 10z" />
    <glyph glyph-name="O" unicode="O" horiz-adv-x="627" 
d="M313 95q97 0 127 89q12 34 12 156t-12 156q-30 89 -127 89q-96 0 -126 -89q-12 -38 -12 -156q0 -119 12 -156q30 -89 126 -89zM313 -11q-89 0 -151.5 42t-88.5 122q-18 58 -18 187t18 187q26 80 88.5 122t151.5 42q91 0 153 -42t88 -122q18 -58 18 -187t-18 -187
q-26 -80 -88 -122t-153 -42z" />
    <glyph glyph-name="P" unicode="P" horiz-adv-x="598" 
d="M199 364h134q53 0 83 28t30 77t-30 77t-83 28h-134q-6 0 -6 -6v-198q0 -6 6 -6zM183 0h-98q-10 0 -10 10v660q0 10 10 10h255q99 0 161.5 -58.5t62.5 -152.5q0 -95 -62.5 -153.5t-161.5 -58.5h-141q-6 0 -6 -6v-241q0 -10 -10 -10z" />
    <glyph glyph-name="Q" unicode="Q" horiz-adv-x="627" 
d="M313 94q38 0 61 11l-68 66q-8 5 0 14l63 66q7 7 14 1l61 -59q10 29 10 147q0 122 -12 156q-31 90 -129 90q-97 0 -128 -90q-12 -38 -12 -156q0 -119 12 -156q31 -90 128 -90zM608 22l-62 -66q-8 -8 -15 0l-74 70q-58 -37 -144 -37q-89 0 -151.5 42t-88.5 122
q-18 58 -18 187t18 187q26 80 88.5 122t151.5 42q91 0 153 -42t88 -122q18 -58 18 -187t-18 -187q-15 -37 -20 -46l74 -71q6 -6 0 -14z" />
    <glyph glyph-name="R" unicode="R" horiz-adv-x="619" 
d="M199 381h145q48 0 76 25.5t28 70.5t-28 71t-76 26h-145q-6 0 -6 -6v-181q0 -6 6 -6zM572 0h-111q-11 0 -15 10l-130 265h-117q-6 0 -6 -6v-259q0 -10 -10 -10h-98q-10 0 -10 10v660q0 10 10 10h263q94 0 155.5 -57t61.5 -146q0 -66 -34.5 -115.5t-94.5 -71.5l143 -277
q3 -5 0.5 -9t-7.5 -4z" />
    <glyph glyph-name="S" unicode="S" horiz-adv-x="587" 
d="M289 -11q-73 0 -141 25.5t-109 64.5q-8 8 -2 15l62 72q7 7 14 1q88 -72 185 -72q60 0 94 27t34 71q0 38 -28.5 61.5t-95.5 32.5l-36 5q-205 28 -205 194q0 93 62.5 149t167.5 56q127 0 220 -68q7 -6 2 -14l-48 -74q-6 -8 -14 -3q-82 53 -163 53q-51 0 -79 -25t-28 -66
q0 -74 125 -92l36 -5q203 -27 203 -197q0 -94 -66.5 -152.5t-189.5 -58.5z" />
    <glyph glyph-name="T" unicode="T" horiz-adv-x="550" 
d="M324 0h-98q-10 0 -10 10v558q0 6 -6 6h-178q-10 0 -10 10v86q0 10 10 10h486q10 0 10 -10v-86q0 -10 -10 -10h-178q-6 0 -6 -6v-558q0 -10 -10 -10z" />
    <glyph glyph-name="U" unicode="U" horiz-adv-x="643" 
d="M321 95q61 0 97 37.5t36 108.5v429q0 10 10 10h98q10 0 10 -10v-431q0 -115 -70.5 -182.5t-180.5 -67.5t-180 67.5t-70 182.5v431q0 10 10 10h98q10 0 10 -10v-429q0 -70 36 -108t96 -38z" />
    <glyph glyph-name="V" unicode="V" horiz-adv-x="565" 
d="M323 0h-82q-9 0 -12 10l-215 660q-3 10 8 10h97q10 0 13 -10l152 -482h3l146 482q3 10 13 10h97q11 0 8 -10l-216 -660q-3 -10 -12 -10z" />
    <glyph glyph-name="W" unicode="W" horiz-adv-x="827" 
d="M633 0h-76q-9 0 -12 10l-130 465h-2l-131 -465q-3 -10 -12 -10h-75q-9 0 -12 10l-167 660q-1 10 8 10h94q11 0 12 -10l108 -458h2l127 458q3 10 12 10h70q9 0 12 -10l130 -458h2l105 458q3 10 12 10h93q9 0 8 -10l-166 -660q-1 -10 -12 -10z" />
    <glyph glyph-name="X" unicode="X" horiz-adv-x="572" 
d="M549 0h-109q-10 0 -16 10l-137 231h-2l-138 -231q-6 -10 -16 -10h-108q-13 0 -6 13l203 339l-188 315q-7 13 6 13h108q10 0 16 -10l123 -206h2l123 206q6 10 16 10h108q13 0 6 -13l-188 -315l203 -339q7 -13 -6 -13z" />
    <glyph glyph-name="Y" unicode="Y" horiz-adv-x="536" 
d="M317 0h-98q-10 0 -10 10v268l-197 392q-4 10 8 10h101q10 0 14 -10l133 -264h3l134 264q4 10 14 10h97q12 0 8 -10l-197 -392v-268q0 -10 -10 -10z" />
    <glyph glyph-name="Z" unicode="Z" horiz-adv-x="532" 
d="M478 0h-423q-10 0 -10 10v86q0 5 3 11l307 465v2h-289q-10 0 -10 10v86q0 10 10 10h412q10 0 10 -10v-86q0 -6 -3 -10l-307 -466v-2h300q10 0 10 -10v-86q0 -10 -10 -10z" />
    <glyph glyph-name="bracketleft" unicode="[" horiz-adv-x="280" 
d="M239 -84h-167q-10 0 -10 10v804q0 10 10 10h167q10 0 10 -10v-66q0 -10 -10 -10h-68q-6 0 -6 -6v-640q0 -6 6 -6h68q10 0 10 -10v-66q0 -10 -10 -10z" />
    <glyph glyph-name="backslash" unicode="\" horiz-adv-x="425" 
d="M364 -11h-75q-10 0 -13 10l-222 682q-3 10 7 10h75q10 0 13 -10l222 -682q3 -10 -7 -10z" />
    <glyph glyph-name="bracketright" unicode="]" horiz-adv-x="280" 
d="M208 -84h-167q-10 0 -10 10v66q0 10 10 10h68q6 0 6 6v640q0 6 -6 6h-68q-10 0 -10 10v66q0 10 10 10h167q10 0 10 -10v-804q0 -10 -10 -10z" />
    <glyph glyph-name="asciicircum" unicode="^" 
d="M487 263h-83q-10 0 -14 10l-115 270h-2l-115 -270q-4 -10 -13 -10h-83q-10 0 -6 10l173 397q4 10 14 10h62q10 0 14 -10l174 -397q4 -10 -6 -10z" />
    <glyph glyph-name="underscore" unicode="_" horiz-adv-x="492" 
d="M492 -136h-492v66h492v-66z" />
    <glyph glyph-name="grave" unicode="`" horiz-adv-x="422" 
d="M298 555h-67q-11 0 -20 10l-95 125q-3 4 -1.5 7t6.5 3h91q12 0 18 -10l74 -125q4 -10 -6 -10z" />
    <glyph glyph-name="a" unicode="a" horiz-adv-x="523" 
d="M241 80q107 0 107 82v37q0 6 -6 6h-80q-104 0 -104 -65q0 -60 83 -60zM444 0h-84q-10 0 -10 10v35h-1q-39 -56 -136 -56q-70 0 -116 37.5t-46 109.5q0 153 193 153h98q6 0 6 6v23q0 43 -23.5 61.5t-83.5 18.5q-70 0 -110 -33q-10 -8 -14 2l-37 66q-5 9 2 13q65 47 171 47
q109 0 155 -39.5t46 -128.5v-315q0 -10 -10 -10z" />
    <glyph glyph-name="b" unicode="b" horiz-adv-x="545" 
d="M285 89q69 0 89 62q10 33 10 90t-10 90q-20 62 -89 62q-70 0 -90 -62q-10 -33 -10 -90t10 -90q20 -62 90 -62zM314 -11q-88 0 -128 57h-1v-36q0 -10 -10 -10h-92q-10 0 -10 10v660q0 10 10 10h92q10 0 10 -10v-234h1q40 57 128 57q129 0 167 -116q17 -52 17 -136
t-17 -136q-38 -116 -167 -116z" />
    <glyph glyph-name="c" unicode="c" horiz-adv-x="475" 
d="M261 -11q-74 0 -126 34t-73 99q-15 45 -15 119t15 119q21 65 73 99t126 34q105 0 167 -75q6 -8 -1 -14l-63 -55q-8 -6 -14 2q-37 42 -89 42q-68 0 -90 -63q-10 -30 -10 -89q0 -60 10 -90q23 -62 90 -62q52 0 89 42q6 7 14 1l63 -55q5 -4 1 -14q-64 -74 -167 -74z" />
    <glyph glyph-name="d" unicode="d" horiz-adv-x="545" 
d="M260 89q70 0 90 62q10 33 10 90t-10 90q-20 62 -90 62q-69 0 -89 -62q-10 -33 -10 -90t10 -90q20 -62 89 -62zM462 0h-92q-10 0 -10 10v36h-1q-40 -57 -128 -57q-129 0 -167 116q-17 52 -17 136t17 136q38 116 167 116q88 0 128 -57h1v234q0 10 10 10h92q10 0 10 -10
v-660q0 -10 -10 -10z" />
    <glyph glyph-name="e" unicode="e" horiz-adv-x="521" 
d="M361 295q0 23 -6 41q-10 29 -35 45.5t-59 16.5q-74 0 -95 -62q-6 -18 -6 -41q0 -6 6 -6h189q6 0 6 6zM265 -11q-77 0 -128.5 35t-72.5 99q-17 48 -17 118q0 74 16 119q21 63 73 98t124 35q75 0 126.5 -35t71.5 -98q16 -51 16 -145q0 -10 -11 -10h-297q-6 0 -6 -6
q0 -18 7 -37q25 -73 108 -73q72 0 113 46q8 8 15 2l59 -52q7 -6 1 -14q-70 -82 -198 -82z" />
    <glyph glyph-name="f" unicode="f" horiz-adv-x="328" 
d="M190 0h-92q-10 0 -10 10v379q0 6 -6 6h-32q-10 0 -10 10v67q0 10 10 10h32q6 0 6 6v31q0 83 40 122t120 39h44q10 0 10 -10v-80q0 -10 -10 -10h-31q-38 0 -49.5 -11.5t-11.5 -47.5v-33q0 -6 6 -6h86q10 0 10 -10v-67q0 -10 -10 -10h-86q-6 0 -6 -6v-379q0 -10 -10 -10z
" />
    <glyph glyph-name="g" unicode="g" horiz-adv-x="536" 
d="M254 112q66 0 86 62q11 33 11 79q0 44 -11 79q-20 61 -86 61t-85 -61q-11 -35 -11 -79q0 -46 11 -79q20 -62 85 -62zM238 -191q-51 0 -99 19.5t-76 52.5q-6 7 1 14l59 59q7 8 15 0q46 -45 105 -45q56 0 82 28.5t26 86.5v45h-1q-37 -56 -125 -56q-61 0 -103 30t-61 87
q-16 49 -16 123q0 73 16 122q38 118 164 118q88 0 125 -57h1v36q0 10 10 10h92q10 0 10 -10v-442q0 -106 -57 -163.5t-168 -57.5z" />
    <glyph glyph-name="h" unicode="h" horiz-adv-x="548" 
d="M470 0h-92q-10 0 -10 10v278q0 49 -23.5 77t-67.5 28t-68 -28t-24 -77v-278q0 -10 -10 -10h-92q-10 0 -10 10v660q0 10 10 10h92q10 0 10 -10v-233h1q38 56 127 56q76 0 121.5 -50t45.5 -129v-304q0 -10 -10 -10z" />
    <glyph glyph-name="i" unicode="i" horiz-adv-x="258" 
d="M175 0h-92q-10 0 -10 10v462q0 10 10 10h92q10 0 10 -10v-462q0 -10 -10 -10zM175 573h-92q-10 0 -10 10v87q0 10 10 10h92q10 0 10 -10v-87q0 -10 -10 -10z" />
    <glyph glyph-name="j" unicode="j" horiz-adv-x="258" 
d="M23 -180h-28q-10 0 -10 10v80q0 10 10 10h22q31 0 43.5 12.5t12.5 44.5v495q0 10 10 10h92q10 0 10 -10v-493q0 -83 -40.5 -121t-121.5 -38zM175 573h-92q-10 0 -10 10v87q0 10 10 10h92q10 0 10 -10v-87q0 -10 -10 -10z" />
    <glyph glyph-name="k" unicode="k" horiz-adv-x="522" 
d="M493 0h-105q-10 0 -16 10l-122 202l-65 -75v-127q0 -10 -10 -10h-92q-10 0 -10 10v660q0 10 10 10h92q10 0 10 -10v-392l165 194q9 10 19 10h102q5 0 6 -3.5t-2 -6.5l-153 -176l176 -286q3 -3 1.5 -6.5t-6.5 -3.5z" />
    <glyph glyph-name="l" unicode="l" horiz-adv-x="291" 
d="M247 -6h-44q-71 0 -101.5 33.5t-30.5 104.5v538q0 10 10 10h92q10 0 10 -10v-532q0 -24 10 -34t32 -10h22q10 0 10 -10v-80q0 -10 -10 -10z" />
    <glyph glyph-name="m" unicode="m" horiz-adv-x="843" 
d="M765 0h-92q-10 0 -10 10v278q0 49 -23.5 77t-67.5 28t-68 -28t-24 -77v-278q0 -10 -10 -10h-92q-10 0 -10 10v278q0 49 -23.5 77t-67.5 28t-68 -28t-24 -77v-278q0 -10 -10 -10h-92q-10 0 -10 10v462q0 10 10 10h92q10 0 10 -10v-35h1q38 56 127 56q87 0 132 -64h1
q59 64 154 64q82 0 128.5 -50t46.5 -129v-304q0 -10 -10 -10z" />
    <glyph glyph-name="n" unicode="n" horiz-adv-x="548" 
d="M470 0h-92q-10 0 -10 10v278q0 49 -23.5 77t-67.5 28t-68 -28t-24 -77v-278q0 -10 -10 -10h-92q-10 0 -10 10v462q0 10 10 10h92q10 0 10 -10v-35h1q38 56 127 56q76 0 121.5 -50t45.5 -129v-304q0 -10 -10 -10z" />
    <glyph glyph-name="o" unicode="o" horiz-adv-x="523" 
d="M262 89q66 0 90 63q10 28 10 89q0 62 -10 89q-22 63 -90 63q-69 0 -91 -63q-10 -27 -10 -89q0 -61 10 -89q24 -63 91 -63zM262 -11q-75 0 -127 35t-72 98q-16 51 -16 119t16 119q20 63 72 98t127 35q73 0 125.5 -35t72.5 -98q16 -51 16 -119t-16 -119q-20 -63 -72.5 -98
t-125.5 -35z" />
    <glyph glyph-name="p" unicode="p" horiz-adv-x="545" 
d="M285 89q69 0 89 62q10 33 10 90t-10 90q-20 62 -89 62q-70 0 -90 -62q-10 -33 -10 -90t10 -90q20 -62 90 -62zM175 -180h-92q-10 0 -10 10v642q0 10 10 10h92q10 0 10 -10v-36h1q40 57 128 57q129 0 167 -116q17 -52 17 -136t-17 -136q-38 -116 -167 -116q-88 0 -128 57
h-1v-216q0 -10 -10 -10z" />
    <glyph glyph-name="q" unicode="q" horiz-adv-x="545" 
d="M260 89q70 0 90 62q10 33 10 90t-10 90q-20 62 -90 62q-69 0 -89 -62q-10 -33 -10 -90t10 -90q20 -62 89 -62zM462 -180h-92q-10 0 -10 10v216h-1q-40 -57 -128 -57q-129 0 -167 116q-17 52 -17 136t17 136q38 116 167 116q88 0 128 -57h1v36q0 10 10 10h92q10 0 10 -10
v-642q0 -10 -10 -10z" />
    <glyph glyph-name="r" unicode="r" horiz-adv-x="423" 
d="M175 0h-92q-10 0 -10 10v462q0 10 10 10h92q10 0 10 -10v-41h1q39 62 125 62q61 0 101 -40q6 -7 2 -14l-53 -67q-6 -8 -14 -2q-35 23 -71 23q-91 0 -91 -122v-261q0 -10 -10 -10z" />
    <glyph glyph-name="s" unicode="s" horiz-adv-x="498" 
d="M251 -11q-125 0 -207 76q-7 7 0 14l57 60q7 7 14 0q60 -55 141 -55q44 0 66.5 15.5t22.5 41.5q0 23 -17.5 36t-62.5 17l-52 5q-148 15 -148 142q0 71 48.5 111.5t138.5 40.5q109 0 181 -59q8 -6 2 -14l-49 -59q-6 -7 -14 -2q-59 40 -126 40q-35 0 -54 -14t-19 -36
t17 -34.5t62 -16.5l52 -5q149 -15 149 -141q0 -74 -52.5 -118.5t-149.5 -44.5z" />
    <glyph glyph-name="t" unicode="t" horiz-adv-x="321" 
d="M262 -6h-48q-72 0 -103 34t-31 107v254q0 6 -6 6h-32q-10 0 -10 10v67q0 10 10 10h32q6 0 6 6v132q0 10 10 10h92q10 0 10 -10v-132q0 -6 6 -6h64q10 0 10 -10v-67q0 -10 -10 -10h-64q-6 0 -6 -6v-250q0 -25 10.5 -35t34.5 -10h25q10 0 10 -10v-80q0 -10 -10 -10z" />
    <glyph glyph-name="u" unicode="u" horiz-adv-x="544" 
d="M461 0h-92q-10 0 -10 10v35h-1q-46 -56 -125 -56q-76 0 -121 50t-45 129v304q0 10 10 10h92q10 0 10 -10v-278q0 -49 22.5 -77t67.5 -28q42 0 66 28.5t24 75.5v279q0 10 10 10h92q10 0 10 -10v-462q0 -10 -10 -10z" />
    <glyph glyph-name="v" unicode="v" horiz-adv-x="486" 
d="M283 0h-80q-9 0 -13 10l-170 462q-4 10 8 10h98q9 0 12 -10l106 -313h2l104 313q3 10 12 10h96q12 0 8 -10l-170 -462q-4 -10 -13 -10z" />
    <glyph glyph-name="w" unicode="w" horiz-adv-x="753" 
d="M565 0h-82q-9 0 -12 10l-93 308h-2l-94 -308q-3 -10 -12 -10h-82q-9 0 -12 10l-152 462q-3 10 7 10h96q10 0 13 -10l93 -318h2l92 318q3 10 13 10h72q10 0 13 -10l98 -318h2l88 318q3 10 13 10h96q10 0 7 -10l-152 -462q-3 -10 -12 -10z" />
    <glyph glyph-name="x" unicode="x" horiz-adv-x="495" 
d="M464 0h-100q-9 0 -16 10l-100 147h-1l-100 -147q-7 -10 -17 -10h-99q-14 0 -8 10l163 240l-151 222q-6 10 8 10h100q11 0 17 -10l87 -130h1l88 130q7 10 16 10h100q14 0 8 -10l-151 -222l163 -240q6 -10 -8 -10z" />
    <glyph glyph-name="y" unicode="y" horiz-adv-x="485" 
d="M121 -180h-31q-10 0 -10 10v80q0 10 10 10h18q29 0 45 13t27 44l14 41l-176 454q-3 10 8 10h99q9 0 12 -10l109 -315h2l104 315q3 10 12 10h95q12 0 8 -10l-184 -502q-31 -85 -66.5 -117.5t-95.5 -32.5z" />
    <glyph glyph-name="z" unicode="z" horiz-adv-x="485" 
d="M423 0h-361q-10 0 -10 10v73q0 5 3 10l246 289v2h-226q-10 0 -10 10v78q0 10 10 10h348q10 0 10 -10v-78q0 -6 -3 -10l-243 -284v-2h236q10 0 10 -10v-78q0 -10 -10 -10z" />
    <glyph glyph-name="braceleft" unicode="{" horiz-adv-x="346" 
d="M306 -84h-58q-119 0 -119 120v168q0 77 -68 77q-10 0 -10 10v79q0 10 10 10q68 0 68 77v163q0 120 119 120h58q10 0 10 -10v-66q0 -10 -10 -10h-31q-43 0 -43 -42v-158q0 -56 -15.5 -83t-54.5 -40v-1q39 -13 54.5 -40t15.5 -83v-163q0 -42 43 -42h31q10 0 10 -10v-66
q0 -10 -10 -10z" />
    <glyph glyph-name="bar" unicode="|" horiz-adv-x="330" 
d="M201 -84h-72q-10 0 -10 10v804q0 10 10 10h72q10 0 10 -10v-804q0 -10 -10 -10z" />
    <glyph glyph-name="braceright" unicode="}" horiz-adv-x="346" 
d="M98 -84h-57q-10 0 -10 10v66q0 10 10 10h31q42 0 42 42v163q0 56 16 83t55 40v1q-39 13 -55 40t-16 83v158q0 42 -42 42h-31q-10 0 -10 10v66q0 10 10 10h57q119 0 119 -120v-163q0 -77 68 -77q10 0 10 -10v-79q0 -10 -10 -10q-68 0 -68 -77v-168q0 -120 -119 -120z" />
    <glyph glyph-name="asciitilde" unicode="~" 
d="M359 200q-45 0 -104 36q-38 25 -67 25q-23 0 -38 -12t-31 -38q-5 -8 -15 -2l-52 31q-8 5 -3 14q20 45 57.5 71t82.5 26q47 0 105 -35q38 -25 66 -25q23 0 39 12t31 38q5 8 15 2l52 -31q8 -5 3 -14q-20 -45 -58 -71.5t-83 -26.5z" />
    <glyph glyph-name="uni00A0.001" unicode="&#xa0;" horiz-adv-x="236" 
 />
    <glyph glyph-name="exclamdown" unicode="&#xa1;" horiz-adv-x="307" 
d="M214 472v-102q0 -10 -10 -10h-100q-10 0 -10 10v102q0 10 10 10h100q10 0 10 -10zM124 292h59q10 0 10 -10l23 -470q0 -10 -10 -10h-105q-10 0 -10 10l23 470q0 10 10 10z" />
    <glyph glyph-name="cent" unicode="&#xa2;" 
d="M194 241q0 -60 10 -90q15 -49 66 -60v299q-51 -10 -66 -60q-10 -30 -10 -89zM324 571v-79q96 -10 147 -74q6 -8 -1 -14l-62 -55q-8 -6 -14 2q-30 35 -70 40v-301q40 6 70 41q6 7 14 1l62 -55q5 -4 1 -14q-52 -63 -147 -73v-79q0 -10 -10 -10h-34q-10 0 -10 10v80
q-138 13 -175 131q-15 45 -15 119t15 119q39 119 175 131v80q0 10 10 10h34q10 0 10 -10z" />
    <glyph glyph-name="sterling" unicode="&#xa3;" 
d="M466 0h-361q-10 0 -10 10v78q0 7 5 12q12 12 18 20.5t10.5 26t4.5 44.5v78q0 6 -6 6h-47q-10 0 -10 10v64q0 10 10 10h47q6 0 6 6v138q0 90 47 139t129 49q67 0 110.5 -34.5t55.5 -91.5q2 -9 -9 -11l-88 -21q-10 -1 -11 8q-4 22 -19 36t-40 14q-30 0 -45.5 -18.5
t-15.5 -51.5v-156q0 -6 6 -6h119q10 0 10 -10v-64q0 -10 -10 -10h-119q-6 0 -6 -6v-59q0 -73 -23 -108v-2h242q10 0 10 -10v-80q0 -10 -10 -10z" />
    <glyph glyph-name="currency" unicode="&#xa4;" 
d="M274 208q48 0 80 33t32 82t-32 82t-80 33t-79.5 -33t-31.5 -82t31.5 -82t79.5 -33zM508 145l-53 -54q-7 -7 -14 0l-59 59q-49 -30 -108 -30t-108 30l-58 -58q-6 -6 -14 0l-53 54q-7 7 0 14l58 59q-27 49 -27 104q0 59 28 105l-59 60q-6 6 0 14l53 54q8 6 14 0l59 -59
q47 29 107 29t107 -29l59 59q7 7 14 0l53 -54q6 -8 0 -14l-59 -59q29 -47 29 -106t-28 -105l59 -59q6 -6 0 -14z" />
    <glyph glyph-name="yen" unicode="&#xa5;" 
d="M320 0h-92q-10 0 -10 10v121q0 6 -6 6h-122q-10 0 -10 10v58q0 10 10 10h122q6 0 6 6v41q0 6 -6 6h-122q-10 0 -10 10v58q0 10 10 10h99v2l-151 322q-4 10 7 10h98q10 0 13 -10l118 -278h3l116 278q3 10 13 10h97q11 0 7 -10l-151 -322v-2h98q10 0 10 -10v-58
q0 -10 -10 -10h-121q-6 0 -6 -6v-41q0 -6 6 -6h121q10 0 10 -10v-58q0 -10 -10 -10h-121q-6 0 -6 -6v-121q0 -10 -10 -10z" />
    <glyph glyph-name="brokenbar" unicode="&#xa6;" horiz-adv-x="330" 
d="M201 -84h-72q-10 0 -10 10v336q0 10 10 10h72q10 0 10 -10v-336q0 -10 -10 -10zM201 388h-72q-10 0 -10 10v332q0 10 10 10h72q10 0 10 -10v-332q0 -10 -10 -10z" />
    <glyph glyph-name="section" unicode="&#xa7;" horiz-adv-x="579" 
d="M290 156q43 0 67.5 24.5t24.5 71.5t-24.5 71.5t-67.5 24.5t-68 -24.5t-25 -71.5t25 -71.5t68 -24.5zM287 -191q-82 0 -127 37.5t-51 98.5q-2 9 6 11l82 17q9 1 10 -7q9 -67 78 -67q37 0 56.5 18.5t19.5 49.5q0 38 -27 61t-92 38q-149 36 -149 186q0 53 25 94.5t68 62.5v1
q-68 39 -68 124q0 65 49 111t125 46q82 0 126.5 -40.5t48.5 -96.5q0 -9 -7 -10l-81 -17q-10 -1 -10 7q-9 67 -75 67q-33 0 -52.5 -17.5t-19.5 -49.5q0 -38 26 -58.5t90 -37.5q148 -38 148 -186q0 -54 -26.5 -96t-66.5 -61v-1q41 -21 56.5 -51t15.5 -81q0 -64 -49.5 -108.5
t-128.5 -44.5z" />
    <glyph glyph-name="dieresis" unicode="&#xa8;" horiz-adv-x="422" 
d="M152 573h-77q-10 0 -10 10v87q0 10 10 10h77q10 0 10 -10v-87q0 -10 -10 -10zM348 573h-77q-10 0 -10 10v87q0 10 10 10h77q10 0 10 -10v-87q0 -10 -10 -10z" />
    <glyph glyph-name="copyright" unicode="&#xa9;" horiz-adv-x="826" 
d="M424 143q-125 0 -161 108q-11 30 -11 89t11 89q36 108 161 108q84 0 130 -56q6 -7 -1 -14l-46 -41q-7 -6 -14 1q-29 33 -68 33q-59 0 -79 -54q-6 -18 -6 -66t6 -66q20 -54 79 -54q39 0 68 33q7 7 14 1l46 -41q7 -7 1 -14q-46 -56 -130 -56zM413 65q116 0 193.5 78.5
t77.5 196.5t-77.5 196.5t-193.5 78.5t-193.5 -78.5t-77.5 -196.5t77.5 -196.5t193.5 -78.5zM413 -11q-149 0 -250 101.5t-101 249.5t101.5 249.5t249.5 101.5t249.5 -101.5t101.5 -249.5t-101.5 -249.5t-249.5 -101.5z" />
    <glyph glyph-name="ordfeminine" unicode="&#xaa;" horiz-adv-x="347" 
d="M160 455q31 0 45 9t14 32v7q0 6 -6 6h-46q-48 0 -48 -28q0 -26 41 -26zM295 392h-64q-10 0 -10 10v13h-2q-26 -28 -83 -28q-43 0 -72.5 22t-29.5 64q0 97 126 97h53q6 0 6 6v7q0 31 -61 31q-37 0 -65 -15q-9 -5 -14 3l-27 47q-5 9 3 14q42 25 114 25q75 0 105.5 -24.5
t30.5 -78.5v-183q0 -10 -10 -10z" />
    <glyph glyph-name="guillemotleft" unicode="&#xab;" horiz-adv-x="542" 
d="M239 52l-204 205q-7 7 0 14l204 205q3 3 6.5 2t3.5 -6v-96q0 -11 -10 -21l-87 -87q-4 -4 0 -8l87 -87q10 -10 10 -21v-96q0 -5 -3.5 -6t-6.5 2zM466 52l-204 205q-7 7 0 14l204 205q3 3 6.5 2t3.5 -6v-96q0 -11 -10 -21l-87 -87q-4 -4 0 -8l87 -87q10 -10 10 -21v-96
q0 -5 -3.5 -6t-6.5 2z" />
    <glyph glyph-name="logicalnot" unicode="&#xac;" 
d="M484 92h-81q-10 0 -10 10v119q0 6 -6 6h-322q-10 0 -10 10v78q0 10 10 10h419q10 0 10 -10v-213q0 -10 -10 -10z" />
    <glyph glyph-name="uni00AD" unicode="&#xad;" horiz-adv-x="385" 
d="M330 216h-275q-10 0 -10 10v79q0 10 10 10h275q10 0 10 -10v-79q0 -10 -10 -10z" />
    <glyph glyph-name="registered" unicode="&#xae;" horiz-adv-x="447" 
d="M196 511h38q32 0 32 24t-32 24h-38q-4 0 -4 -4v-40q0 -4 4 -4zM185 388h-34q-7 0 -7 7v198q0 7 7 7h83q78 0 78 -65q0 -44 -40 -60l42 -80q3 -7 -5 -7h-36q-6 0 -9 7l-39 74h-29q-4 0 -4 -4v-70q0 -7 -7 -7zM223 340q64 0 107 43.5t43 109.5q0 65 -43 108.5t-107 43.5
t-107 -43.5t-43 -108.5q0 -66 43 -109.5t107 -43.5zM223 301q-81 0 -136 55.5t-55 136.5q0 80 55 135.5t136 55.5t136 -55.5t55 -135.5q0 -81 -55 -136.5t-136 -55.5z" />
    <glyph glyph-name="macron" unicode="&#xaf;" horiz-adv-x="422" 
d="M342 587h-263q-10 0 -10 10v61q0 10 10 10h263q10 0 10 -10v-61q0 -10 -10 -10z" />
    <glyph glyph-name="degree" unicode="&#xb0;" horiz-adv-x="465" 
d="M233 460q35 0 57 23.5t22 59.5t-22 59.5t-57 23.5t-57.5 -23.5t-22.5 -59.5t22.5 -59.5t57.5 -23.5zM233 395q-64 0 -106 42.5t-42 105.5t42 105.5t106 42.5q62 0 104.5 -42.5t42.5 -105.5t-42.5 -105.5t-104.5 -42.5z" />
    <glyph glyph-name="plusminus" unicode="&#xb1;" 
d="M484 0h-419q-10 0 -10 10v79q0 10 10 10h419q10 0 10 -10v-79q0 -10 -10 -10zM315 157h-81q-10 0 -10 10v154q0 6 -6 6h-153q-10 0 -10 10v78q0 10 10 10h153q6 0 6 6v154q0 10 10 10h81q10 0 10 -10v-154q0 -6 6 -6h153q10 0 10 -10v-78q0 -10 -10 -10h-153q-6 0 -6 -6
v-154q0 -10 -10 -10z" />
    <glyph glyph-name="twosuperior" unicode="&#xb2;" horiz-adv-x="349" 
d="M297 430h-245q-10 0 -10 10v57q0 8 6 14l144 158q27 29 27 55q0 43 -43 43q-42 0 -49 -42q-1 -9 -11 -8l-65 14q-9 1 -8 11q5 37 40 69.5t94 32.5t94.5 -34t35.5 -86q0 -53 -44 -100l-109 -116v-1h143q10 0 10 -10v-57q0 -10 -10 -10z" />
    <glyph glyph-name="threesuperior" unicode="&#xb3;" horiz-adv-x="349" 
d="M176 422q-54 0 -91.5 22.5t-48.5 68.5q-1 12 7 13l64 16q7 1 12 -8q17 -35 55 -35q23 0 37.5 13.5t14.5 36.5t-15 36.5t-42 13.5h-20q-10 0 -10 10v57q0 10 10 10h15q52 0 52 45q0 46 -46 46q-34 0 -48 -29q-4 -7 -13 -6l-60 14q-9 1 -7 12q9 38 43.5 62t86.5 24
q62 0 97 -31.5t35 -84.5q0 -51 -41 -83v-1q19 -8 35 -33.5t16 -59.5q0 -60 -37.5 -94.5t-100.5 -34.5z" />
    <glyph glyph-name="acute" unicode="&#xb4;" horiz-adv-x="422" 
d="M191 555h-68q-10 0 -6 10l75 125q6 10 18 10h91q5 0 6.5 -3t-1.5 -7l-95 -125q-9 -10 -20 -10z" />
    <glyph glyph-name="micron" unicode="&#xb5;" horiz-adv-x="550" 
d="M467 0h-92q-10 0 -10 10v39h-1q-14 -26 -42 -43t-66 -17q-47 0 -69 24h-2v-183q0 -10 -10 -10h-92q-10 0 -10 10v642q0 10 10 10h92q10 0 10 -10v-279q0 -49 22.5 -76.5t67.5 -27.5q44 0 67 27.5t23 76.5v279q0 10 10 10h92q10 0 10 -10v-462q0 -10 -10 -10z" />
    <glyph glyph-name="paragraph" unicode="&#xb6;" horiz-adv-x="634" 
d="M537 -180h-77q-10 0 -10 10v750q0 6 -6 6h-71q-6 0 -6 -6v-750q0 -10 -10 -10h-77q-10 0 -10 10v428q-89 6 -143.5 65t-54.5 146q0 91 60 151t165 60h240q10 0 10 -10v-840q0 -10 -10 -10z" />
    <glyph glyph-name="periodcentered" unicode="&#xb7;" horiz-adv-x="252" 
d="M176 204h-100q-10 0 -10 10v102q0 10 10 10h100q10 0 10 -10v-102q0 -10 -10 -10z" />
    <glyph glyph-name="cedilla" unicode="&#xb8;" horiz-adv-x="422" 
d="M224 -155h-78q-10 0 -7 10l59 145q4 10 13 10h68q10 0 7 -10l-46 -145q-3 -10 -16 -10z" />
    <glyph glyph-name="onesuperior" unicode="&#xb9;" horiz-adv-x="349" 
d="M233 430h-67q-10 0 -10 10v294h-2l-63 -41q-4 -2 -7 0t-3 7v72q0 10 8 15l62 42q10 7 17 7h65q10 0 10 -10v-386q0 -10 -10 -10z" />
    <glyph glyph-name="ordmasculine" unicode="&#xba;" horiz-adv-x="356" 
d="M178 463q38 0 48 33q5 15 5 40t-5 40q-10 33 -48 33t-49 -33q-5 -15 -5 -40t5 -40q11 -33 49 -33zM178 384q-108 0 -137 87q-9 25 -9 65t9 65q28 87 137 87t137 -87q9 -25 9 -65t-9 -65q-28 -87 -137 -87z" />
    <glyph glyph-name="guillemotright" unicode="&#xbb;" horiz-adv-x="542" 
d="M280 257l-204 -205q-3 -3 -6.5 -2t-3.5 6v96q0 11 10 21l87 87q4 4 0 8l-87 87q-10 10 -10 21v96q0 5 3.5 6t6.5 -2l204 -205q7 -7 0 -14zM507 257l-204 -205q-3 -3 -6.5 -2t-3.5 6v96q0 11 10 21l87 87q4 4 0 8l-87 87q-10 10 -10 21v96q0 5 3.5 6t6.5 -2l204 -205
q7 -7 0 -14z" />
    <glyph glyph-name="onequarter" unicode="&#xbc;" horiz-adv-x="841" 
d="M239 -11h-66q-11 0 -5 10l395 682q6 10 16 10h65q12 0 6 -10l-395 -682q-6 -10 -16 -10zM707 0h-64q-10 0 -10 10v44q0 6 -6 6h-162q-10 0 -10 10v55q0 8 4 15l124 256q4 10 14 10h72q10 0 6 -10l-122 -260v-1h74q6 0 6 6v82q0 10 10 10h64q10 0 10 -10v-82q0 -6 6 -6h17
q10 0 10 -10v-55q0 -10 -10 -10h-17q-6 0 -6 -6v-44q0 -10 -10 -10zM243 274h-67q-10 0 -10 10v294h-2l-63 -41q-4 -2 -7 0t-3 7v72q0 10 8 15l62 42q10 7 17 7h65q10 0 10 -10v-386q0 -10 -10 -10z" />
    <glyph glyph-name="onehalf" unicode="&#xbd;" horiz-adv-x="881" 
d="M239 -11h-66q-11 0 -5 10l395 682q6 10 16 10h65q12 0 6 -10l-395 -682q-6 -10 -16 -10zM780 0h-245q-10 0 -10 10v57q0 8 6 14l144 158q27 29 27 55q0 43 -43 43q-41 0 -49 -42q-1 -9 -11 -8l-65 14q-9 1 -8 11q5 37 40 69.5t94 32.5t94.5 -34t35.5 -86q0 -53 -44 -100
l-109 -116v-1h143q10 0 10 -10v-57q0 -10 -10 -10zM243 274h-67q-10 0 -10 10v294h-2l-63 -41q-4 -2 -7 0t-3 7v72q0 10 8 15l62 42q10 7 17 7h65q10 0 10 -10v-386q0 -10 -10 -10z" />
    <glyph glyph-name="threequarters" unicode="&#xbe;" horiz-adv-x="914" 
d="M231 266q-54 0 -91.5 22.5t-48.5 68.5q-1 12 7 13l64 16q7 1 12 -8q17 -35 55 -35q23 0 37.5 13.5t14.5 36.5t-15 36.5t-42 13.5h-20q-10 0 -10 10v57q0 10 10 10h15q52 0 52 45q0 46 -46 46q-34 0 -48 -29q-4 -7 -13 -6l-60 14q-9 1 -7 12q9 38 43.5 62t86.5 24
q62 0 97 -31.5t35 -84.5q0 -51 -41 -83v-1q19 -8 35 -33.5t16 -59.5q0 -60 -37.5 -94.5t-100.5 -34.5zM314 -11h-66q-11 0 -5 10l395 682q6 10 16 10h65q12 0 6 -10l-395 -682q-6 -10 -16 -10zM780 0h-64q-10 0 -10 10v44q0 6 -6 6h-162q-10 0 -10 10v55q0 8 4 15l124 256
q4 10 14 10h72q10 0 6 -10l-122 -260v-1h74q6 0 6 6v82q0 10 10 10h64q10 0 10 -10v-82q0 -6 6 -6h17q10 0 10 -10v-55q0 -10 -10 -10h-17q-6 0 -6 -6v-44q0 -10 -10 -10z" />
    <glyph glyph-name="questiondown" unicode="&#xbf;" horiz-adv-x="464" 
d="M301 472v-102q0 -10 -10 -10h-100q-10 0 -10 10v102q0 10 10 10h100q10 0 10 -10zM194 292h93q10 0 10 -10v-41q0 -51 -26 -85l-79 -108q-34 -45 -34 -82q0 -33 21.5 -54t56.5 -21q71 0 85 80q1 9 11 8l90 -14q10 -1 8 -12q-12 -76 -63.5 -119t-134.5 -43q-82 0 -135 49
t-53 125q0 61 41 117l79 108q20 27 20 63v29q0 10 10 10z" />
    <glyph glyph-name="Agrave" unicode="&#xc0;" horiz-adv-x="617" 
d="M342 761h-72q-10 0 -18 8l-116 109q-4 4 -2.5 7t6.5 3h98q10 0 19 -10l89 -107q8 -10 -4 -10zM216 247h184l-90 264h-3zM18 10l233 660q3 10 13 10h92q10 0 13 -10l230 -660q3 -10 -7 -10h-98q-10 0 -13 10l-45 132h-256l-45 -132q-3 -10 -13 -10h-97q-10 0 -7 10z" />
    <glyph glyph-name="Aacute" unicode="&#xc1;" horiz-adv-x="617" 
d="M347 761h-71q-12 0 -4 10l88 107q7 10 19 10h98q5 0 7 -3t-2 -7l-117 -109q-8 -8 -18 -8zM216 247h184l-90 264h-3zM18 10l233 660q3 10 13 10h92q10 0 13 -10l230 -660q3 -10 -7 -10h-98q-10 0 -13 10l-45 132h-256l-45 -132q-3 -10 -13 -10h-97q-10 0 -7 10z" />
    <glyph glyph-name="Acircumflex" unicode="&#xc2;" horiz-adv-x="617" 
d="M450 753h-63q-11 0 -21 10l-57 59h-2l-57 -59q-10 -10 -21 -10h-63q-12 0 -4 10l98 125q7 10 18 10h60q11 0 18 -10l98 -125q8 -10 -4 -10zM216 247h184l-90 264h-3zM18 10l233 660q3 10 13 10h92q10 0 13 -10l230 -660q3 -10 -7 -10h-98q-10 0 -13 10l-45 132h-256
l-45 -132q-3 -10 -13 -10h-97q-10 0 -7 10z" />
    <glyph glyph-name="Atilde" unicode="&#xc3;" horiz-adv-x="617" 
d="M367 757q-29 0 -67 20q-33 18 -56 18q-30 0 -67 -31q-9 -7 -9 2v61q0 8 8 19q32 34 72 34q29 0 67 -20q33 -18 57 -18q29 0 66 31q9 7 9 -2v-61q0 -8 -8 -19q-32 -34 -72 -34zM216 247h184l-90 264h-3zM18 10l233 660q3 10 13 10h92q10 0 13 -10l230 -660q3 -10 -7 -10
h-98q-10 0 -13 10l-45 132h-256l-45 -132q-3 -10 -13 -10h-97q-10 0 -7 10z" />
    <glyph glyph-name="Adieresis" unicode="&#xc4;" horiz-adv-x="617" 
d="M244 769h-73q-10 0 -10 10v87q0 10 10 10h73q10 0 10 -10v-87q0 -10 -10 -10zM444 769h-73q-10 0 -10 10v87q0 10 10 10h73q10 0 10 -10v-87q0 -10 -10 -10zM216 247h184l-90 264h-3zM18 10l233 660q3 10 13 10h92q10 0 13 -10l230 -660q3 -10 -7 -10h-98q-10 0 -13 10
l-45 132h-256l-45 -132q-3 -10 -13 -10h-97q-10 0 -7 10z" />
    <glyph glyph-name="Aring" unicode="&#xc5;" horiz-adv-x="617" 
d="M308 769q21 0 35 14.5t14 36.5t-14 36.5t-35 14.5t-35 -14.5t-14 -36.5t14 -36.5t35 -14.5zM308 721q-43 0 -71 28t-28 71t28 71.5t71 28.5t71 -28.5t28 -71.5t-28 -71t-71 -28zM216 247h184l-90 264h-3zM18 10l233 660q3 10 13 10h92q10 0 13 -10l230 -660q3 -10 -7 -10
h-98q-10 0 -13 10l-45 132h-256l-45 -132q-3 -10 -13 -10h-97q-10 0 -7 10z" />
    <glyph glyph-name="AE" unicode="&#xc6;" horiz-adv-x="926" 
d="M429 574l-161 -327h157q6 0 6 6v321h-2zM867 0h-426q-10 0 -10 10v126q0 6 -6 6h-209l-65 -132q-4 -10 -13 -10h-112q-11 0 -7 10l334 660q4 10 14 10h500q10 0 10 -10v-86q0 -10 -10 -10h-312q-6 0 -6 -6v-166q0 -6 6 -6h263q10 0 10 -10v-86q0 -10 -10 -10h-263
q-6 0 -6 -6v-172q0 -6 6 -6h312q10 0 10 -10v-86q0 -10 -10 -10z" />
    <glyph glyph-name="Ccedilla" unicode="&#xc7;" horiz-adv-x="575" 
d="M288 -155h-78q-10 0 -7 10l55 137q-142 27 -185 164q-18 55 -18 184q0 126 18 184q52 167 236 167q81 0 141 -38.5t89 -107.5q3 -9 -5 -12l-85 -41q-8 -4 -13 5q-42 88 -127 88q-93 0 -122 -90q-12 -37 -12 -155t12 -155q29 -90 122 -90q85 0 127 88q5 9 13 5l85 -41
q8 -3 5 -12q-54 -125 -192 -144l-43 -136q-3 -10 -16 -10z" />
    <glyph glyph-name="Egrave" unicode="&#xc8;" horiz-adv-x="570" 
d="M75 10v660q0 10 10 10h426q10 0 10 -10v-86q0 -10 -10 -10h-312q-6 0 -6 -6v-166q0 -6 6 -6h263q10 0 10 -10v-86q0 -10 -10 -10h-263q-6 0 -6 -6v-172q0 -6 6 -6h312q10 0 10 -10v-86q0 -10 -10 -10h-426q-10 0 -10 10zM354 761h-72q-10 0 -18 8l-116 109q-4 4 -2.5 7
t6.5 3h98q10 0 19 -10l89 -107q8 -10 -4 -10z" />
    <glyph glyph-name="Eacute" unicode="&#xc9;" horiz-adv-x="570" 
d="M75 10v660q0 10 10 10h426q10 0 10 -10v-86q0 -10 -10 -10h-312q-6 0 -6 -6v-166q0 -6 6 -6h263q10 0 10 -10v-86q0 -10 -10 -10h-263q-6 0 -6 -6v-172q0 -6 6 -6h312q10 0 10 -10v-86q0 -10 -10 -10h-426q-10 0 -10 10zM304 761h-71q-12 0 -4 10l88 107q7 10 19 10h98
q5 0 7 -3t-2 -7l-117 -109q-8 -8 -18 -8z" />
    <glyph glyph-name="Ecircumflex" unicode="&#xca;" horiz-adv-x="570" 
d="M441 753h-63q-11 0 -21 10l-57 59h-2l-57 -59q-10 -10 -21 -10h-63q-12 0 -4 10l98 125q7 10 18 10h60q11 0 18 -10l98 -125q8 -10 -4 -10zM75 10v660q0 10 10 10h426q10 0 10 -10v-86q0 -10 -10 -10h-312q-6 0 -6 -6v-166q0 -6 6 -6h263q10 0 10 -10v-86q0 -10 -10 -10
h-263q-6 0 -6 -6v-172q0 -6 6 -6h312q10 0 10 -10v-86q0 -10 -10 -10h-426q-10 0 -10 10z" />
    <glyph glyph-name="Edieresis" unicode="&#xcb;" horiz-adv-x="570" 
d="M75 10v660q0 10 10 10h426q10 0 10 -10v-86q0 -10 -10 -10h-312q-6 0 -6 -6v-166q0 -6 6 -6h263q10 0 10 -10v-86q0 -10 -10 -10h-263q-6 0 -6 -6v-172q0 -6 6 -6h312q10 0 10 -10v-86q0 -10 -10 -10h-426q-10 0 -10 10zM233 769h-73q-10 0 -10 10v87q0 10 10 10h73
q10 0 10 -10v-87q0 -10 -10 -10zM433 769h-73q-10 0 -10 10v87q0 10 10 10h73q10 0 10 -10v-87q0 -10 -10 -10z" />
    <glyph glyph-name="Igrave" unicode="&#xcc;" horiz-adv-x="268" 
d="M169 761h-72q-10 0 -18 8l-116 109q-4 4 -2.5 7t6.5 3h98q10 0 19 -10l89 -107q8 -10 -4 -10zM75 10v660q0 10 10 10h98q10 0 10 -10v-660q0 -10 -10 -10h-98q-10 0 -10 10z" />
    <glyph glyph-name="Iacute" unicode="&#xcd;" horiz-adv-x="268" 
d="M173 761h-71q-12 0 -4 10l88 107q7 10 19 10h98q5 0 7 -3t-2 -7l-117 -109q-8 -8 -18 -8zM75 10v660q0 10 10 10h98q10 0 10 -10v-660q0 -10 -10 -10h-98q-10 0 -10 10z" />
    <glyph glyph-name="Icircumflex" unicode="&#xce;" horiz-adv-x="268" 
d="M277 753h-63q-11 0 -21 10l-57 59h-2l-57 -59q-10 -10 -21 -10h-63q-12 0 -4 10l98 125q7 10 18 10h60q11 0 18 -10l98 -125q8 -10 -4 -10zM75 10v660q0 10 10 10h98q10 0 10 -10v-660q0 -10 -10 -10h-98q-10 0 -10 10z" />
    <glyph glyph-name="Idieresis" unicode="&#xcf;" horiz-adv-x="268" 
d="M71 769h-73q-10 0 -10 10v87q0 10 10 10h73q10 0 10 -10v-87q0 -10 -10 -10zM271 769h-73q-10 0 -10 10v87q0 10 10 10h73q10 0 10 -10v-87q0 -10 -10 -10zM75 10v660q0 10 10 10h98q10 0 10 -10v-660q0 -10 -10 -10h-98q-10 0 -10 10z" />
    <glyph glyph-name="Eth" unicode="&#xd0;" horiz-adv-x="625" 
d="M199 106h101q57 0 91 20.5t50 65.5q12 33 12 148q0 121 -12 148q-28 86 -141 86h-101q-6 0 -6 -6v-174q0 -6 6 -6h97q10 0 10 -10v-70q0 -10 -10 -10h-97q-6 0 -6 -6v-180q0 -6 6 -6zM328 0h-243q-10 0 -10 10v282q0 6 -6 6h-26q-10 0 -10 10v70q0 10 10 10h26q6 0 6 6
v276q0 10 10 10h243q178 0 227 -151q17 -53 17 -189t-17 -189q-49 -151 -227 -151z" />
    <glyph glyph-name="Ntilde" unicode="&#xd1;" horiz-adv-x="657" 
d="M75 10v660q0 10 10 10h92q11 0 17 -10l277 -469h4v469q0 10 10 10h87q10 0 10 -10v-660q0 -10 -10 -10h-91q-11 0 -17 10l-278 468h-4v-468q0 -10 -10 -10h-87q-10 0 -10 10zM387 757q-29 0 -67 20q-33 18 -56 18q-30 0 -67 -31q-9 -7 -9 2v61q0 8 8 19q32 34 72 34
q29 0 67 -20q33 -18 57 -18q29 0 66 31q9 7 9 -2v-61q0 -8 -8 -19q-32 -34 -72 -34z" />
    <glyph glyph-name="Ograve" unicode="&#xd2;" horiz-adv-x="627" 
d="M313 95q97 0 127 89q12 34 12 156t-12 156q-30 89 -127 89q-96 0 -126 -89q-12 -38 -12 -156q0 -119 12 -156q30 -89 126 -89zM313 -11q-89 0 -151.5 42t-88.5 122q-18 58 -18 187t18 187q26 80 88.5 122t151.5 42q91 0 153 -42t88 -122q18 -58 18 -187t-18 -187
q-26 -80 -88 -122t-153 -42zM366 761h-72q-10 0 -18 8l-116 109q-4 4 -2.5 7t6.5 3h98q10 0 19 -10l89 -107q8 -10 -4 -10z" />
    <glyph glyph-name="Oacute" unicode="&#xd3;" horiz-adv-x="627" 
d="M313 95q97 0 127 89q12 34 12 156t-12 156q-30 89 -127 89q-96 0 -126 -89q-12 -38 -12 -156q0 -119 12 -156q30 -89 126 -89zM313 -11q-89 0 -151.5 42t-88.5 122q-18 58 -18 187t18 187q26 80 88.5 122t151.5 42q91 0 153 -42t88 -122q18 -58 18 -187t-18 -187
q-26 -80 -88 -122t-153 -42zM332 761h-71q-12 0 -4 10l88 107q7 10 19 10h98q5 0 7 -3t-2 -7l-117 -109q-8 -8 -18 -8z" />
    <glyph glyph-name="Ocircumflex" unicode="&#xd4;" horiz-adv-x="627" 
d="M455 753h-63q-11 0 -21 10l-57 59h-2l-57 -59q-10 -10 -21 -10h-63q-12 0 -4 10l98 125q7 10 18 10h60q11 0 18 -10l98 -125q8 -10 -4 -10zM313 95q97 0 127 89q12 34 12 156t-12 156q-30 89 -127 89q-96 0 -126 -89q-12 -38 -12 -156q0 -119 12 -156q30 -89 126 -89z
M313 -11q-89 0 -151.5 42t-88.5 122q-18 58 -18 187t18 187q26 80 88.5 122t151.5 42q91 0 153 -42t88 -122q18 -58 18 -187t-18 -187q-26 -80 -88 -122t-153 -42z" />
    <glyph glyph-name="Otilde" unicode="&#xd5;" horiz-adv-x="627" 
d="M313 95q97 0 127 89q12 34 12 156t-12 156q-30 89 -127 89q-96 0 -126 -89q-12 -38 -12 -156q0 -119 12 -156q30 -89 126 -89zM313 -11q-89 0 -151.5 42t-88.5 122q-18 58 -18 187t18 187q26 80 88.5 122t151.5 42q91 0 153 -42t88 -122q18 -58 18 -187t-18 -187
q-26 -80 -88 -122t-153 -42zM372 757q-29 0 -67 20q-33 18 -56 18q-30 0 -67 -31q-9 -7 -9 2v61q0 8 8 19q32 34 72 34q29 0 67 -20q33 -18 57 -18q29 0 66 31q9 7 9 -2v-61q0 -8 -8 -19q-32 -34 -72 -34z" />
    <glyph glyph-name="Odieresis" unicode="&#xd6;" horiz-adv-x="627" 
d="M313 95q97 0 127 89q12 34 12 156t-12 156q-30 89 -127 89q-96 0 -126 -89q-12 -38 -12 -156q0 -119 12 -156q30 -89 126 -89zM313 -11q-89 0 -151.5 42t-88.5 122q-18 58 -18 187t18 187q26 80 88.5 122t151.5 42q91 0 153 -42t88 -122q18 -58 18 -187t-18 -187
q-26 -80 -88 -122t-153 -42zM249 769h-73q-10 0 -10 10v87q0 10 10 10h73q10 0 10 -10v-87q0 -10 -10 -10zM449 769h-73q-10 0 -10 10v87q0 10 10 10h73q10 0 10 -10v-87q0 -10 -10 -10z" />
    <glyph glyph-name="multiply" unicode="&#xd7;" 
d="M463 141l-53 -54q-7 -7 -14 0l-118 116q-4 4 -8 0l-117 -116q-7 -7 -14 0l-53 54q-7 7 0 14l116 117q4 4 0 8l-116 117q-7 7 0 14l53 54q7 7 14 0l117 -116q4 -5 9 0l117 116q7 7 14 0l53 -54q7 -7 0 -14l-117 -116q-4 -5 0 -9l117 -117q7 -7 0 -14z" />
    <glyph glyph-name="Oslash" unicode="&#xd8;" horiz-adv-x="627" 
d="M313 95q98 0 128 89q12 34 12 156q0 95 -10 149l-216 -367q33 -27 86 -27zM174 340q0 -121 10 -151l216 368q-34 28 -87 28q-97 0 -127 -89q-12 -38 -12 -156zM124 -30h-63q-11 0 -5 10l57 96q-29 39 -40 77q-18 58 -18 187t18 187q26 80 88.5 122t151.5 42q84 0 146 -38
l29 48q4 9 15 9h63q11 0 5 -10l-58 -96q29 -40 41 -77q18 -58 18 -187t-18 -187q-26 -80 -88 -122t-153 -42q-84 0 -146 38l-28 -48q-5 -9 -15 -9z" />
    <glyph glyph-name="Ugrave" unicode="&#xd9;" horiz-adv-x="643" 
d="M321 95q61 0 97 37.5t36 108.5v429q0 10 10 10h98q10 0 10 -10v-431q0 -115 -70.5 -182.5t-180.5 -67.5t-180 67.5t-70 182.5v431q0 10 10 10h98q10 0 10 -10v-429q0 -70 36 -108t96 -38zM372 761h-72q-10 0 -18 8l-116 109q-4 4 -2.5 7t6.5 3h98q10 0 19 -10l89 -107
q8 -10 -4 -10z" />
    <glyph glyph-name="Uacute" unicode="&#xda;" horiz-adv-x="643" 
d="M321 95q61 0 97 37.5t36 108.5v429q0 10 10 10h98q10 0 10 -10v-431q0 -115 -70.5 -182.5t-180.5 -67.5t-180 67.5t-70 182.5v431q0 10 10 10h98q10 0 10 -10v-429q0 -70 36 -108t96 -38zM342 761h-71q-12 0 -4 10l88 107q7 10 19 10h98q5 0 7 -3t-2 -7l-117 -109
q-8 -8 -18 -8z" />
    <glyph glyph-name="Ucircumflex" unicode="&#xdb;" horiz-adv-x="643" 
d="M463 753h-63q-11 0 -21 10l-57 59h-2l-57 -59q-10 -10 -21 -10h-63q-12 0 -4 10l98 125q7 10 18 10h60q11 0 18 -10l98 -125q8 -10 -4 -10zM321 95q61 0 97 37.5t36 108.5v429q0 10 10 10h98q10 0 10 -10v-431q0 -115 -70.5 -182.5t-180.5 -67.5t-180 67.5t-70 182.5v431
q0 10 10 10h98q10 0 10 -10v-429q0 -70 36 -108t96 -38z" />
    <glyph glyph-name="Udieresis" unicode="&#xdc;" horiz-adv-x="643" 
d="M321 95q61 0 97 37.5t36 108.5v429q0 10 10 10h98q10 0 10 -10v-431q0 -115 -70.5 -182.5t-180.5 -67.5t-180 67.5t-70 182.5v431q0 10 10 10h98q10 0 10 -10v-429q0 -70 36 -108t96 -38zM258 769h-73q-10 0 -10 10v87q0 10 10 10h73q10 0 10 -10v-87q0 -10 -10 -10z
M458 769h-73q-10 0 -10 10v87q0 10 10 10h73q10 0 10 -10v-87q0 -10 -10 -10z" />
    <glyph glyph-name="Yacute" unicode="&#xdd;" horiz-adv-x="536" 
d="M297 761h-71q-12 0 -4 10l88 107q7 10 19 10h98q5 0 7 -3t-2 -7l-117 -109q-8 -8 -18 -8zM317 0h-98q-10 0 -10 10v268l-197 392q-4 10 8 10h101q10 0 14 -10l133 -264h3l134 264q4 10 14 10h97q12 0 8 -10l-197 -392v-268q0 -10 -10 -10z" />
    <glyph glyph-name="Thorn" unicode="&#xde;" horiz-adv-x="598" 
d="M199 250h134q53 0 83 28t30 77t-30 77t-83 28h-134q-6 0 -6 -6v-198q0 -6 6 -6zM183 0h-98q-10 0 -10 10v660q0 10 10 10h98q10 0 10 -10v-98q0 -6 6 -6h141q100 0 162 -58t62 -153t-62.5 -153.5t-161.5 -58.5h-141q-6 0 -6 -6v-127q0 -10 -10 -10z" />
    <glyph glyph-name="germandbls" unicode="&#xdf;" horiz-adv-x="546" 
d="M313 -3h-29q-10 0 -10 10v79q0 10 10 10h25q30 0 45 8.5t23 31.5q5 23 5 89q0 65 -6 93q-16 46 -81 46h-11q-10 0 -10 10v80q0 10 10 10h23q67 0 67 63q0 65 -90 65q-52 0 -75.5 -23t-23.5 -75v-484q0 -10 -10 -10h-92q-10 0 -10 10v479q0 202 208 202q100 0 152.5 -41
t52.5 -122q0 -69 -55 -109v-2q38 -21 52 -63q11 -37 11 -129q0 -97 -12 -134q-16 -50 -57 -72t-112 -22z" />
    <glyph glyph-name="agrave" unicode="&#xe0;" horiz-adv-x="523" 
d="M326 555h-67q-11 0 -20 10l-95 125q-3 4 -1.5 7t6.5 3h91q12 0 18 -10l74 -125q4 -10 -6 -10zM241 80q107 0 107 82v37q0 6 -6 6h-80q-104 0 -104 -65q0 -60 83 -60zM444 0h-84q-10 0 -10 10v35h-1q-39 -56 -136 -56q-70 0 -116 37.5t-46 109.5q0 153 193 153h98q6 0 6 6
v23q0 43 -23.5 61.5t-83.5 18.5q-70 0 -110 -33q-10 -8 -14 2l-37 66q-5 9 2 13q65 47 171 47q109 0 155 -39.5t46 -128.5v-315q0 -10 -10 -10z" />
    <glyph glyph-name="aacute" unicode="&#xe1;" horiz-adv-x="523" 
d="M281 555h-68q-10 0 -6 10l75 125q6 10 18 10h91q5 0 6.5 -3t-1.5 -7l-95 -125q-9 -10 -20 -10zM241 80q107 0 107 82v37q0 6 -6 6h-80q-104 0 -104 -65q0 -60 83 -60zM444 0h-84q-10 0 -10 10v35h-1q-39 -56 -136 -56q-70 0 -116 37.5t-46 109.5q0 153 193 153h98
q6 0 6 6v23q0 43 -23.5 61.5t-83.5 18.5q-70 0 -110 -33q-10 -8 -14 2l-37 66q-5 9 2 13q65 47 171 47q109 0 155 -39.5t46 -128.5v-315q0 -10 -10 -10z" />
    <glyph glyph-name="acircumflex" unicode="&#xe2;" horiz-adv-x="523" 
d="M403 555h-63q-11 0 -21 10l-57 59h-2l-57 -59q-10 -10 -21 -10h-63q-12 0 -4 10l98 125q7 10 18 10h60q11 0 18 -10l98 -125q8 -10 -4 -10zM241 80q107 0 107 82v37q0 6 -6 6h-80q-104 0 -104 -65q0 -60 83 -60zM444 0h-84q-10 0 -10 10v35h-1q-39 -56 -136 -56
q-70 0 -116 37.5t-46 109.5q0 153 193 153h98q6 0 6 6v23q0 43 -23.5 61.5t-83.5 18.5q-70 0 -110 -33q-10 -8 -14 2l-37 66q-5 9 2 13q65 47 171 47q109 0 155 -39.5t46 -128.5v-315q0 -10 -10 -10z" />
    <glyph glyph-name="atilde" unicode="&#xe3;" horiz-adv-x="523" 
d="M320 561q-29 0 -67 20q-33 18 -56 18q-30 0 -67 -31q-9 -7 -9 2v61q0 8 8 19q32 34 72 34q29 0 67 -20q33 -18 57 -18q29 0 66 31q9 7 9 -2v-61q0 -8 -8 -19q-32 -34 -72 -34zM241 80q107 0 107 82v37q0 6 -6 6h-80q-104 0 -104 -65q0 -60 83 -60zM444 0h-84
q-10 0 -10 10v35h-1q-39 -56 -136 -56q-70 0 -116 37.5t-46 109.5q0 153 193 153h98q6 0 6 6v23q0 43 -23.5 61.5t-83.5 18.5q-70 0 -110 -33q-10 -8 -14 2l-37 66q-5 9 2 13q65 47 171 47q109 0 155 -39.5t46 -128.5v-315q0 -10 -10 -10z" />
    <glyph glyph-name="adieresis" unicode="&#xe4;" horiz-adv-x="523" 
d="M201 573h-77q-10 0 -10 10v87q0 10 10 10h77q10 0 10 -10v-87q0 -10 -10 -10zM397 573h-77q-10 0 -10 10v87q0 10 10 10h77q10 0 10 -10v-87q0 -10 -10 -10zM241 80q107 0 107 82v37q0 6 -6 6h-80q-104 0 -104 -65q0 -60 83 -60zM444 0h-84q-10 0 -10 10v35h-1
q-39 -56 -136 -56q-70 0 -116 37.5t-46 109.5q0 153 193 153h98q6 0 6 6v23q0 43 -23.5 61.5t-83.5 18.5q-70 0 -110 -33q-10 -8 -14 2l-37 66q-5 9 2 13q65 47 171 47q109 0 155 -39.5t46 -128.5v-315q0 -10 -10 -10z" />
    <glyph glyph-name="aring" unicode="&#xe5;" horiz-adv-x="523" 
d="M266 578q21 0 35 14.5t14 36.5t-14 36.5t-35 14.5t-35 -14.5t-14 -36.5t14 -36.5t35 -14.5zM266 529q-43 0 -71 28.5t-28 71.5t28 71.5t71 28.5t71 -28.5t28 -71.5t-28 -71.5t-71 -28.5zM241 80q107 0 107 82v37q0 6 -6 6h-80q-104 0 -104 -65q0 -60 83 -60zM444 0h-84
q-10 0 -10 10v35h-1q-39 -56 -136 -56q-70 0 -116 37.5t-46 109.5q0 153 193 153h98q6 0 6 6v23q0 43 -23.5 61.5t-83.5 18.5q-70 0 -110 -33q-10 -8 -14 2l-37 66q-5 9 2 13q65 47 171 47q109 0 155 -39.5t46 -128.5v-315q0 -10 -10 -10z" />
    <glyph glyph-name="ae" unicode="&#xe6;" horiz-adv-x="815" 
d="M241 80q107 0 107 82v37q0 6 -6 6h-80q-104 0 -104 -65q0 -60 83 -60zM655 295q0 23 -6 41q-10 29 -35 45.5t-59 16.5q-74 0 -95 -62q-6 -18 -6 -41q0 -6 6 -6h189q6 0 6 6zM560 -11q-115 0 -167 76h-1q-42 -76 -179 -76q-70 0 -116 37.5t-46 109.5q0 153 193 153h98
q6 0 6 6v23q0 43 -23.5 61.5t-83.5 18.5q-70 0 -110 -33q-10 -8 -14 2l-37 66q-5 9 2 13q65 47 171 47q119 0 161 -50h2q50 50 139 50q75 0 126 -35t71 -98q16 -51 16 -145q0 -10 -11 -10h-297q-6 0 -6 -6q0 -18 7 -37q25 -73 108 -73q72 0 113 46q8 8 15 2l59 -52
q7 -6 1 -14q-70 -82 -197 -82z" />
    <glyph glyph-name="ccedilla" unicode="&#xe7;" horiz-adv-x="475" 
d="M237 -155h-78q-10 0 -7 10l57 139q-114 25 -147 128q-15 45 -15 119t15 119q21 65 73 99t126 34q105 0 167 -75q6 -8 -1 -14l-63 -55q-8 -6 -14 2q-37 42 -89 42q-68 0 -90 -63q-10 -30 -10 -89q0 -60 10 -90q23 -62 90 -62q52 0 89 42q6 7 14 1l63 -55q5 -4 1 -14
q-51 -60 -132 -71l-43 -137q-3 -10 -16 -10z" />
    <glyph glyph-name="egrave" unicode="&#xe8;" horiz-adv-x="521" 
d="M312 555h-67q-11 0 -20 10l-95 125q-3 4 -1.5 7t6.5 3h91q12 0 18 -10l74 -125q4 -10 -6 -10zM361 295q0 23 -6 41q-10 29 -35 45.5t-59 16.5q-74 0 -95 -62q-6 -18 -6 -41q0 -6 6 -6h189q6 0 6 6zM265 -11q-77 0 -128.5 35t-72.5 99q-17 48 -17 118q0 74 16 119
q21 63 73 98t124 35q75 0 126.5 -35t71.5 -98q16 -51 16 -145q0 -10 -11 -10h-297q-6 0 -6 -6q0 -18 7 -37q25 -73 108 -73q72 0 113 46q8 8 15 2l59 -52q7 -6 1 -14q-70 -82 -198 -82z" />
    <glyph glyph-name="eacute" unicode="&#xe9;" horiz-adv-x="521" 
d="M361 295q0 23 -6 41q-10 29 -35 45.5t-59 16.5q-74 0 -95 -62q-6 -18 -6 -41q0 -6 6 -6h189q6 0 6 6zM265 -11q-77 0 -128.5 35t-72.5 99q-17 48 -17 118q0 74 16 119q21 63 73 98t124 35q75 0 126.5 -35t71.5 -98q16 -51 16 -145q0 -10 -11 -10h-297q-6 0 -6 -6
q0 -18 7 -37q25 -73 108 -73q72 0 113 46q8 8 15 2l59 -52q7 -6 1 -14q-70 -82 -198 -82zM278 555h-68q-10 0 -6 10l75 125q6 10 18 10h91q5 0 6.5 -3t-1.5 -7l-95 -125q-9 -10 -20 -10z" />
    <glyph glyph-name="ecircumflex" unicode="&#xea;" horiz-adv-x="521" 
d="M361 295q0 23 -6 41q-10 29 -35 45.5t-59 16.5q-74 0 -95 -62q-6 -18 -6 -41q0 -6 6 -6h189q6 0 6 6zM265 -11q-77 0 -128.5 35t-72.5 99q-17 48 -17 118q0 74 16 119q21 63 73 98t124 35q75 0 126.5 -35t71.5 -98q16 -51 16 -145q0 -10 -11 -10h-297q-6 0 -6 -6
q0 -18 7 -37q25 -73 108 -73q72 0 113 46q8 8 15 2l59 -52q7 -6 1 -14q-70 -82 -198 -82zM402 555h-63q-11 0 -21 10l-57 59h-2l-57 -59q-10 -10 -21 -10h-63q-12 0 -4 10l98 125q7 10 18 10h60q11 0 18 -10l98 -125q8 -10 -4 -10z" />
    <glyph glyph-name="edieresis" unicode="&#xeb;" horiz-adv-x="521" 
d="M361 295q0 23 -6 41q-10 29 -35 45.5t-59 16.5q-74 0 -95 -62q-6 -18 -6 -41q0 -6 6 -6h189q6 0 6 6zM265 -11q-77 0 -128.5 35t-72.5 99q-17 48 -17 118q0 74 16 119q21 63 73 98t124 35q75 0 126.5 -35t71.5 -98q16 -51 16 -145q0 -10 -11 -10h-297q-6 0 -6 -6
q0 -18 7 -37q25 -73 108 -73q72 0 113 46q8 8 15 2l59 -52q7 -6 1 -14q-70 -82 -198 -82zM200 573h-77q-10 0 -10 10v87q0 10 10 10h77q10 0 10 -10v-87q0 -10 -10 -10zM396 573h-77q-10 0 -10 10v87q0 10 10 10h77q10 0 10 -10v-87q0 -10 -10 -10z" />
    <glyph glyph-name="igrave" unicode="&#xec;" horiz-adv-x="258" 
d="M167 555h-67q-11 0 -20 10l-95 125q-3 4 -1.5 7t6.5 3h91q12 0 18 -10l74 -125q4 -10 -6 -10zM175 0h-92q-10 0 -10 10v462q0 10 10 10h92q10 0 10 -10v-462q0 -10 -10 -10z" />
    <glyph glyph-name="iacute" unicode="&#xed;" horiz-adv-x="258" 
d="M175 0h-92q-10 0 -10 10v462q0 10 10 10h92q10 0 10 -10v-462q0 -10 -10 -10zM161 555h-68q-10 0 -6 10l75 125q6 10 18 10h91q5 0 6.5 -3t-1.5 -7l-95 -125q-9 -10 -20 -10z" />
    <glyph glyph-name="icircumflex" unicode="&#xee;" horiz-adv-x="258" 
d="M175 0h-92q-10 0 -10 10v462q0 10 10 10h92q10 0 10 -10v-462q0 -10 -10 -10zM271 555h-63q-11 0 -21 10l-57 59h-2l-57 -59q-10 -10 -21 -10h-63q-12 0 -4 10l98 125q7 10 18 10h60q11 0 18 -10l98 -125q8 -10 -4 -10z" />
    <glyph glyph-name="idieresis" unicode="&#xef;" horiz-adv-x="258" 
d="M175 0h-92q-10 0 -10 10v462q0 10 10 10h92q10 0 10 -10v-462q0 -10 -10 -10zM70 573h-77q-10 0 -10 10v87q0 10 10 10h77q10 0 10 -10v-87q0 -10 -10 -10zM266 573h-77q-10 0 -10 10v87q0 10 10 10h77q10 0 10 -10v-87q0 -10 -10 -10z" />
    <glyph glyph-name="eth" unicode="&#xf0;" horiz-adv-x="523" 
d="M365 226q0 50 -10 79q-21 62 -93 62q-70 0 -93 -62q-10 -29 -10 -79q0 -49 10 -78q23 -62 93 -62t93 62q10 29 10 78zM401 579l-63 -19l24 -32q59 -79 87 -147.5t28 -141.5q0 -69 -15 -116q-21 -63 -74 -98.5t-126 -35.5q-75 0 -126.5 34.5t-72.5 98.5q-16 50 -16 103
q0 60 15 107q20 60 64 93.5t104 33.5q39 0 65 -17h2l-63 87l-91 -28q-10 -3 -13 6l-17 58q-3 10 7 13l65 19l-53 73q-6 10 6 10h99q11 0 18 -10l31 -42l92 28q10 3 13 -6l17 -58q3 -10 -7 -13z" />
    <glyph glyph-name="ntilde" unicode="&#xf1;" horiz-adv-x="548" 
d="M332 561q-29 0 -67 20q-33 18 -56 18q-30 0 -67 -31q-9 -7 -9 2v61q0 8 8 19q32 34 72 34q29 0 67 -20q33 -18 57 -18q29 0 66 31q9 7 9 -2v-61q0 -8 -8 -19q-32 -34 -72 -34zM470 0h-92q-10 0 -10 10v278q0 49 -23.5 77t-67.5 28t-68 -28t-24 -77v-278q0 -10 -10 -10
h-92q-10 0 -10 10v462q0 10 10 10h92q10 0 10 -10v-35h1q38 56 127 56q76 0 121.5 -50t45.5 -129v-304q0 -10 -10 -10z" />
    <glyph glyph-name="ograve" unicode="&#xf2;" horiz-adv-x="523" 
d="M262 89q66 0 90 63q10 28 10 89q0 62 -10 89q-22 63 -90 63q-69 0 -91 -63q-10 -27 -10 -89q0 -61 10 -89q24 -63 91 -63zM262 -11q-75 0 -127 35t-72 98q-16 51 -16 119t16 119q20 63 72 98t127 35q73 0 125.5 -35t72.5 -98q16 -51 16 -119t-16 -119q-20 -63 -72.5 -98
t-125.5 -35zM307 555h-67q-11 0 -20 10l-95 125q-3 4 -1.5 7t6.5 3h91q12 0 18 -10l74 -125q4 -10 -6 -10z" />
    <glyph glyph-name="oacute" unicode="&#xf3;" horiz-adv-x="523" 
d="M262 89q66 0 90 63q10 28 10 89q0 62 -10 89q-22 63 -90 63q-69 0 -91 -63q-10 -27 -10 -89q0 -61 10 -89q24 -63 91 -63zM262 -11q-75 0 -127 35t-72 98q-16 51 -16 119t16 119q20 63 72 98t127 35q73 0 125.5 -35t72.5 -98q16 -51 16 -119t-16 -119q-20 -63 -72.5 -98
t-125.5 -35zM284 555h-68q-10 0 -6 10l75 125q6 10 18 10h91q5 0 6.5 -3t-1.5 -7l-95 -125q-9 -10 -20 -10z" />
    <glyph glyph-name="ocircumflex" unicode="&#xf4;" horiz-adv-x="523" 
d="M262 89q66 0 90 63q10 28 10 89q0 62 -10 89q-22 63 -90 63q-69 0 -91 -63q-10 -27 -10 -89q0 -61 10 -89q24 -63 91 -63zM262 -11q-75 0 -127 35t-72 98q-16 51 -16 119t16 119q20 63 72 98t127 35q73 0 125.5 -35t72.5 -98q16 -51 16 -119t-16 -119q-20 -63 -72.5 -98
t-125.5 -35zM403 555h-63q-11 0 -21 10l-57 59h-2l-57 -59q-10 -10 -21 -10h-63q-12 0 -4 10l98 125q7 10 18 10h60q11 0 18 -10l98 -125q8 -10 -4 -10z" />
    <glyph glyph-name="otilde" unicode="&#xf5;" horiz-adv-x="523" 
d="M262 89q66 0 90 63q10 28 10 89q0 62 -10 89q-22 63 -90 63q-69 0 -91 -63q-10 -27 -10 -89q0 -61 10 -89q24 -63 91 -63zM262 -11q-75 0 -127 35t-72 98q-16 51 -16 119t16 119q20 63 72 98t127 35q73 0 125.5 -35t72.5 -98q16 -51 16 -119t-16 -119q-20 -63 -72.5 -98
t-125.5 -35zM320 561q-29 0 -67 20q-33 18 -56 18q-30 0 -67 -31q-9 -7 -9 2v61q0 8 8 19q32 34 72 34q29 0 67 -20q33 -18 57 -18q29 0 66 31q9 7 9 -2v-61q0 -8 -8 -19q-32 -34 -72 -34z" />
    <glyph glyph-name="odieresis" unicode="&#xf6;" horiz-adv-x="523" 
d="M262 89q66 0 90 63q10 28 10 89q0 62 -10 89q-22 63 -90 63q-69 0 -91 -63q-10 -27 -10 -89q0 -61 10 -89q24 -63 91 -63zM262 -11q-75 0 -127 35t-72 98q-16 51 -16 119t16 119q20 63 72 98t127 35q73 0 125.5 -35t72.5 -98q16 -51 16 -119t-16 -119q-20 -63 -72.5 -98
t-125.5 -35zM201 573h-77q-10 0 -10 10v87q0 10 10 10h77q10 0 10 -10v-87q0 -10 -10 -10zM397 573h-77q-10 0 -10 10v87q0 10 10 10h77q10 0 10 -10v-87q0 -10 -10 -10z" />
    <glyph glyph-name="divide" unicode="&#xf7;" 
d="M274 33q-28 0 -47 19t-19 48t19 48t47 19q29 0 48 -19t19 -48t-19 -48t-48 -19zM484 227h-419q-10 0 -10 10v78q0 10 10 10h419q10 0 10 -10v-78q0 -10 -10 -10zM274 385q-28 0 -47 19.5t-19 47.5q0 29 19 48t47 19q29 0 48 -19t19 -48q0 -28 -19 -47.5t-48 -19.5z" />
    <glyph glyph-name="oslash" unicode="&#xf8;" horiz-adv-x="523" 
d="M262 88q68 0 92 63q10 28 10 90q0 56 -10 90l-153 -225q24 -18 61 -18zM159 241q0 -59 10 -90l153 225q-24 18 -60 18q-71 0 -93 -63q-10 -27 -10 -90zM262 -11q-72 0 -122 32l-29 -41q-7 -10 -18 -10h-39q-11 0 -5 10l52 74q-26 29 -38 68q-16 51 -16 119t16 119
q20 63 72 98t127 35q68 0 121 -32l29 41q7 10 19 10h38q11 0 5 -10l-52 -75q26 -29 38 -67q16 -47 16 -119q0 -68 -16 -119q-20 -63 -72.5 -98t-125.5 -35z" />
    <glyph glyph-name="ugrave" unicode="&#xf9;" horiz-adv-x="544" 
d="M318 555h-67q-11 0 -20 10l-95 125q-3 4 -1.5 7t6.5 3h91q12 0 18 -10l74 -125q4 -10 -6 -10zM461 0h-92q-10 0 -10 10v35h-1q-46 -56 -125 -56q-76 0 -121 50t-45 129v304q0 10 10 10h92q10 0 10 -10v-278q0 -49 22.5 -77t67.5 -28q42 0 66 28.5t24 75.5v279q0 10 10 10
h92q10 0 10 -10v-462q0 -10 -10 -10z" />
    <glyph glyph-name="uacute" unicode="&#xfa;" horiz-adv-x="544" 
d="M461 0h-92q-10 0 -10 10v35h-1q-46 -56 -125 -56q-76 0 -121 50t-45 129v304q0 10 10 10h92q10 0 10 -10v-278q0 -49 22.5 -77t67.5 -28q42 0 66 28.5t24 75.5v279q0 10 10 10h92q10 0 10 -10v-462q0 -10 -10 -10zM296 555h-68q-10 0 -6 10l75 125q6 10 18 10h91
q5 0 6.5 -3t-1.5 -7l-95 -125q-9 -10 -20 -10z" />
    <glyph glyph-name="ucircumflex" unicode="&#xfb;" horiz-adv-x="544" 
d="M461 0h-92q-10 0 -10 10v35h-1q-46 -56 -125 -56q-76 0 -121 50t-45 129v304q0 10 10 10h92q10 0 10 -10v-278q0 -49 22.5 -77t67.5 -28q42 0 66 28.5t24 75.5v279q0 10 10 10h92q10 0 10 -10v-462q0 -10 -10 -10zM413 555h-63q-11 0 -21 10l-57 59h-2l-57 -59
q-10 -10 -21 -10h-63q-12 0 -4 10l98 125q7 10 18 10h60q11 0 18 -10l98 -125q8 -10 -4 -10z" />
    <glyph glyph-name="udieresis" unicode="&#xfc;" horiz-adv-x="544" 
d="M461 0h-92q-10 0 -10 10v35h-1q-46 -56 -125 -56q-76 0 -121 50t-45 129v304q0 10 10 10h92q10 0 10 -10v-278q0 -49 22.5 -77t67.5 -28q42 0 66 28.5t24 75.5v279q0 10 10 10h92q10 0 10 -10v-462q0 -10 -10 -10zM211 573h-77q-10 0 -10 10v87q0 10 10 10h77
q10 0 10 -10v-87q0 -10 -10 -10zM407 573h-77q-10 0 -10 10v87q0 10 10 10h77q10 0 10 -10v-87q0 -10 -10 -10z" />
    <glyph glyph-name="yacute" unicode="&#xfd;" horiz-adv-x="485" 
d="M271 555h-68q-10 0 -6 10l75 125q6 10 18 10h91q5 0 6.5 -3t-1.5 -7l-95 -125q-9 -10 -20 -10zM121 -180h-31q-10 0 -10 10v80q0 10 10 10h18q29 0 45 13t27 44l14 41l-176 454q-3 10 8 10h99q9 0 12 -10l109 -315h2l104 315q3 10 12 10h95q12 0 8 -10l-184 -502
q-31 -85 -66.5 -117.5t-95.5 -32.5z" />
    <glyph glyph-name="thorn" unicode="&#xfe;" horiz-adv-x="545" 
d="M285 89q69 0 89 62q10 33 10 90t-10 90q-20 62 -89 62q-70 0 -90 -62q-10 -33 -10 -90t10 -90q20 -62 90 -62zM175 -180h-92q-10 0 -10 10v840q0 10 10 10h92q10 0 10 -10v-234h1q40 57 128 57q129 0 167 -116q17 -52 17 -136t-17 -136q-38 -116 -167 -116q-88 0 -128 57
h-1v-216q0 -10 -10 -10z" />
    <glyph glyph-name="ydieresis" unicode="&#xff;" horiz-adv-x="485" 
d="M186 573h-77q-10 0 -10 10v87q0 10 10 10h77q10 0 10 -10v-87q0 -10 -10 -10zM382 573h-77q-10 0 -10 10v87q0 10 10 10h77q10 0 10 -10v-87q0 -10 -10 -10zM121 -180h-31q-10 0 -10 10v80q0 10 10 10h18q29 0 45 13t27 44l14 41l-176 454q-3 10 8 10h99q9 0 12 -10
l109 -315h2l104 315q3 10 12 10h95q12 0 8 -10l-184 -502q-31 -85 -66.5 -117.5t-95.5 -32.5z" />
    <glyph glyph-name="dotlessi" unicode="&#x131;" horiz-adv-x="258" 
d="M175 0h-92q-10 0 -10 10v462q0 10 10 10h92q10 0 10 -10v-462q0 -10 -10 -10z" />
    <glyph glyph-name="Lslash" unicode="&#x141;" horiz-adv-x="545" 
d="M511 0h-426q-10 0 -10 10v249l-51 -26q-10 -4 -10 6v81q0 10 10 14l51 26v310q0 10 10 10h98q10 0 10 -10v-252l127 66q10 6 10 -6v-81q0 -8 -10 -14l-127 -66v-205q0 -6 6 -6h312q10 0 10 -10v-86q0 -10 -10 -10z" />
    <glyph glyph-name="lslash" unicode="&#x142;" horiz-adv-x="291" 
d="M247 367l-64 -33v-196q0 -24 10 -34t32 -10h22q10 0 10 -10v-80q0 -10 -10 -10h-44q-71 0 -101.5 33.5t-30.5 104.5v151l-33 -17q-10 -4 -10 6v74q0 11 10 15l33 17v292q0 10 10 10h92q10 0 10 -10v-241l64 33q10 4 10 -6v-74q0 -11 -10 -15z" />
    <glyph glyph-name="OE" unicode="&#x152;" horiz-adv-x="947" 
d="M313 95q97 0 127 89q12 34 12 156t-12 156q-30 89 -127 89q-96 0 -126 -89q-12 -38 -12 -156q0 -119 12 -156q30 -89 126 -89zM888 0h-426q-10 0 -10 10v27h-1q-49 -48 -138 -48t-151.5 42t-88.5 122q-18 58 -18 187t18 187q26 80 88.5 122t151.5 42t138 -48h1v27
q0 10 10 10h426q10 0 10 -10v-86q0 -10 -10 -10h-312q-6 0 -6 -6v-166q0 -6 6 -6h263q10 0 10 -10v-86q0 -10 -10 -10h-263q-6 0 -6 -6v-172q0 -6 6 -6h312q10 0 10 -10v-86q0 -10 -10 -10z" />
    <glyph glyph-name="oe" unicode="&#x153;" horiz-adv-x="835" 
d="M262 89q66 0 90 63q10 28 10 89q0 62 -10 89q-22 63 -90 63q-69 0 -91 -63q-10 -27 -10 -89q0 -61 10 -89q24 -63 91 -63zM675 295q0 23 -6 41q-10 29 -35 45.5t-59 16.5q-74 0 -95 -62q-6 -18 -6 -41q0 -6 6 -6h189q6 0 6 6zM580 -11q-105 0 -159 66h-2
q-56 -66 -157 -66q-75 0 -127 35t-72 98q-16 51 -16 119t16 119q20 63 72 98t127 35q100 0 156 -63h2q52 63 155 63q75 0 126 -35t71 -98q16 -51 16 -145q0 -10 -11 -10h-297q-6 0 -6 -6q0 -18 7 -37q25 -73 108 -73q72 0 113 46q8 8 15 2l59 -52q7 -6 1 -14
q-70 -82 -197 -82z" />
    <glyph glyph-name="Scaron" unicode="&#x160;" horiz-adv-x="587" 
d="M326 751h-60q-11 0 -18 10l-98 125q-8 10 4 10h63q11 0 21 -10l57 -59h2l57 59q10 10 21 10h63q12 0 4 -10l-98 -125q-7 -10 -18 -10zM289 -11q-73 0 -141 25.5t-109 64.5q-8 8 -2 15l62 72q7 7 14 1q88 -72 185 -72q60 0 94 27t34 71q0 38 -28.5 61.5t-95.5 32.5l-36 5
q-205 28 -205 194q0 93 62.5 149t167.5 56q127 0 220 -68q7 -6 2 -14l-48 -74q-6 -8 -14 -3q-82 53 -163 53q-51 0 -79 -25t-28 -66q0 -74 125 -92l36 -5q203 -27 203 -197q0 -94 -66.5 -152.5t-189.5 -58.5z" />
    <glyph glyph-name="scaron" unicode="&#x161;" horiz-adv-x="498" 
d="M251 -11q-125 0 -207 76q-7 7 0 14l57 60q7 7 14 0q60 -55 141 -55q44 0 66.5 15.5t22.5 41.5q0 23 -17.5 36t-62.5 17l-52 5q-148 15 -148 142q0 71 48.5 111.5t138.5 40.5q109 0 181 -59q8 -6 2 -14l-49 -59q-6 -7 -14 -2q-59 40 -126 40q-35 0 -54 -14t-19 -36
t17 -34.5t62 -16.5l52 -5q149 -15 149 -141q0 -74 -52.5 -118.5t-149.5 -44.5zM280 553h-60q-11 0 -18 10l-98 125q-8 10 4 10h63q11 0 21 -10l57 -59h2l57 59q10 10 21 10h63q12 0 4 -10l-98 -125q-7 -10 -18 -10z" />
    <glyph glyph-name="Ydieresis" unicode="&#x178;" horiz-adv-x="536" 
d="M204 769h-73q-10 0 -10 10v87q0 10 10 10h73q10 0 10 -10v-87q0 -10 -10 -10zM404 769h-73q-10 0 -10 10v87q0 10 10 10h73q10 0 10 -10v-87q0 -10 -10 -10zM317 0h-98q-10 0 -10 10v268l-197 392q-4 10 8 10h101q10 0 14 -10l133 -264h3l134 264q4 10 14 10h97
q12 0 8 -10l-197 -392v-268q0 -10 -10 -10z" />
    <glyph glyph-name="Zcaron" unicode="&#x17d;" horiz-adv-x="532" 
d="M478 0h-423q-10 0 -10 10v86q0 5 3 11l307 465v2h-289q-10 0 -10 10v86q0 10 10 10h412q10 0 10 -10v-86q0 -6 -3 -10l-307 -466v-2h300q10 0 10 -10v-86q0 -10 -10 -10zM296 751h-60q-11 0 -18 10l-98 125q-8 10 4 10h63q11 0 21 -10l57 -59h2l57 59q10 10 21 10h63
q12 0 4 -10l-98 -125q-7 -10 -18 -10z" />
    <glyph glyph-name="zcaron" unicode="&#x17e;" horiz-adv-x="485" 
d="M423 0h-361q-10 0 -10 10v73q0 5 3 10l246 289v2h-226q-10 0 -10 10v78q0 10 10 10h348q10 0 10 -10v-78q0 -6 -3 -10l-243 -284v-2h236q10 0 10 -10v-78q0 -10 -10 -10zM275 553h-60q-11 0 -18 10l-98 125q-8 10 4 10h63q11 0 21 -10l57 -59h2l57 59q10 10 21 10h63
q12 0 4 -10l-98 -125q-7 -10 -18 -10z" />
    <glyph glyph-name="florin" unicode="&#x192;" 
d="M439 324h-100l-52 -342q-14 -87 -53 -124.5t-118 -37.5h-28q-10 0 -10 10v77q0 10 10 10h17q37 0 52.5 12.5t21.5 50.5l52 344h-65q-10 0 -10 10v65q0 10 10 10h78l18 113q13 82 52 120t117 38h30q10 0 10 -10v-77q0 -10 -10 -10h-20q-32 0 -49 -14t-22 -47l-18 -113h87
q10 0 10 -10v-65q0 -10 -10 -10z" />
    <glyph glyph-name="circumflex" unicode="&#x2c6;" horiz-adv-x="422" 
d="M353 555h-63q-11 0 -21 10l-57 59h-2l-57 -59q-10 -10 -21 -10h-63q-12 0 -4 10l98 125q7 10 18 10h60q11 0 18 -10l98 -125q8 -10 -4 -10z" />
    <glyph glyph-name="caron" unicode="&#x2c7;" horiz-adv-x="422" 
d="M241 553h-60q-11 0 -18 10l-98 125q-8 10 4 10h63q11 0 21 -10l57 -59h2l57 59q10 10 21 10h63q12 0 4 -10l-98 -125q-7 -10 -18 -10z" />
    <glyph glyph-name="breve" unicode="&#x2d8;" horiz-adv-x="422" 
d="M211 554q-65 0 -103 33t-42 88q0 10 9 10h49q9 0 12 -10q15 -45 75 -45t75 45q3 10 12 10h49q9 0 9 -10q-4 -55 -42 -88t-103 -33z" />
    <glyph glyph-name="dotaccent" unicode="&#x2d9;" horiz-adv-x="422" 
d="M257 573h-93q-10 0 -10 10v87q0 10 10 10h93q10 0 10 -10v-87q0 -10 -10 -10z" />
    <glyph glyph-name="ring" unicode="&#x2da;" horiz-adv-x="422" 
d="M211 578q21 0 35 14.5t14 36.5t-14 36.5t-35 14.5t-35 -14.5t-14 -36.5t14 -36.5t35 -14.5zM211 529q-43 0 -71 28.5t-28 71.5t28 71.5t71 28.5t71 -28.5t28 -71.5t-28 -71.5t-71 -28.5z" />
    <glyph glyph-name="ogonek" unicode="&#x2db;" horiz-adv-x="422" 
d="M200 -190q-44 0 -70 22t-26 66q0 56 66 102q13 10 25 10h81q3 0 5 -2t1 -4.5t-4 -3.5q-83 -48 -83 -83q0 -26 24 -26q7 0 25 8q8 5 13 -4l24 -50q5 -8 -4 -13q-29 -22 -77 -22z" />
    <glyph glyph-name="tilde" unicode="&#x2dc;" horiz-adv-x="422" 
d="M268 561q-29 0 -67 20q-33 18 -56 18q-30 0 -67 -31q-9 -7 -9 2v61q0 8 8 19q32 34 72 34q29 0 67 -20q33 -18 57 -18q29 0 66 31q9 7 9 -2v-61q0 -8 -8 -19q-32 -34 -72 -34z" />
    <glyph glyph-name="hungarumlaut" unicode="&#x2dd;" horiz-adv-x="422" 
d="M126 555h-65q-12 0 -6 10l65 125q6 10 16 10h78q11 0 5 -10l-77 -125q-6 -10 -16 -10zM284 555h-65q-12 0 -6 10l65 125q6 10 16 10h78q11 0 5 -10l-77 -125q-6 -10 -16 -10z" />
    <glyph glyph-name="pi" unicode="&#x3c0;" horiz-adv-x="593" 
d="M526 -6h-22q-68 0 -97.5 33.5t-29.5 103.5v245q0 6 -6 6h-151q-6 0 -6 -6v-366q0 -10 -10 -10h-92q-10 0 -10 10v366q0 6 -6 6h-45q-10 0 -10 10v80q0 10 10 10h489q10 0 10 -10v-80q0 -10 -10 -10h-45q-6 0 -6 -6v-242q0 -23 7.5 -31.5t25.5 -8.5h4q10 0 10 -10v-80
q0 -10 -10 -10z" />
    <glyph glyph-name="aComma" unicode="&#x60c;" horiz-adv-x="243" 
d="M177 221v-211q0 -10 -10 -10h-91q-10 0 -10 10v106q0 14 7 21l80 87q7 7 14 7q10 0 10 -10z" />
    <glyph glyph-name="aTahabove" unicode="&#x615;" horiz-adv-x="0" 
d="M17 612q-21 0 -59 -16v-50h75q15 0 19 5.5t4 23.5q0 37 -39 37zM-113 546h8q10 0 12 6t2 30v135q0 7 8 7h33q8 0 8 -7v-78q33 15 67 15q80 0 80 -80q0 -38 -13 -54t-41 -16h-164q-7 0 -7 7v28q0 7 7 7z" />
    <glyph glyph-name="aSemicolon" unicode="&#x61b;" horiz-adv-x="252" 
d="M182 455v-211q0 -10 -10 -10h-91q-10 0 -10 10v106q0 14 7 21l80 87q7 7 14 7q10 0 10 -10zM66 10v102q0 10 10 10h100q10 0 10 -10v-102q0 -10 -10 -10h-100q-10 0 -10 10z" />
    <glyph glyph-name="aQuestion" unicode="&#x61f;" horiz-adv-x="496" 
d="M305 109v-99q0 -10 -10 -10h-97q-10 0 -10 10v99q0 10 10 10h97q10 0 10 -10zM291 172h-89q-10 0 -10 10v12q0 37 -25 70l-60 78q-32 42 -45.5 71.5t-13.5 66.5q0 76 53.5 126.5t139.5 50.5q83 0 134.5 -45t63.5 -122q1 -10 -8 -11l-85 -14q-9 -2 -11 9q-17 83 -91 83
q-39 0 -61.5 -21.5t-22.5 -59.5q0 -22 10 -42.5t38 -55.5l62 -81q31 -41 31 -89v-26q0 -10 -10 -10z" />
    <glyph glyph-name="aHamza" unicode="&#x621;" horiz-adv-x="405" 
d="M29 84h58q-24 37 -24 88q0 65 42.5 113t127.5 48q90 0 135 -61q5 -8 0 -15l-42 -41q-9 -7 -16 0q-36 34 -76 34q-36 0 -56 -21.5t-20 -57.5q0 -54 44 -87h168q10 0 10 -11v-62q0 -11 -10 -11h-341q-10 0 -10 11v62q0 11 10 11z" />
    <glyph glyph-name="aAlifMadda" unicode="&#x622;" horiz-adv-x="243" 
d="M178 670v-660q0 -10 -10 -10h-93q-10 0 -10 10v660q0 10 10 10h93q10 0 10 -10zM-60 770q18 73 81 73q31 0 95 -26.5t92 -26.5q16 0 22 7.5t6 26.5q0 10 10 10h37q10 0 10 -10q0 -94 -77 -94q-39 0 -102.5 25t-83.5 25q-24 0 -33 -28q-3 -10 -13 -7l-37 12q-8 3 -7 13z
" />
    <glyph glyph-name="aAlifHamza" unicode="&#x623;" horiz-adv-x="243" 
d="M178 670v-660q0 -10 -10 -10h-93q-10 0 -10 10v660q0 10 10 10h93q10 0 10 -10zM13 781h37q-16 27 -16 57q0 39 26.5 69.5t79.5 30.5q57 0 85 -38q3 -6 0 -9l-26 -25q-6 -5 -10 -1q-23 23 -48 23q-23 0 -36 -14.5t-13 -36.5q0 -37 32 -56h101q6 0 6 -7v-37q0 -7 -6 -7
h-212q-6 0 -6 7v37q0 7 6 7z" />
    <glyph glyph-name="aWawHamza" unicode="&#x624;" horiz-adv-x="521" 
d="M266 333q-45 0 -70.5 -33.5t-25.5 -91.5q0 -60 24 -84.5t75 -24.5h89v114q0 120 -92 120zM358 0h-101q-97 0 -147 47.5t-50 157.5q0 116 58 172t147 56q204 0 204 -221v-234q0 -93 -46 -136.5t-138 -43.5h-135q-10 0 -10 10v80q0 10 10 10h117q46 0 68.5 20.5t22.5 81.5z
M144 563h34q-16 23 -16 53q0 38 27.5 67.5t83.5 29.5q64 0 92 -40q3 -7 -1 -10l-30 -28q-3 -3 -8 2q-22 22 -53 22q-23 0 -36 -13t-13 -33q0 -33 31 -50h109q6 0 6 -7v-39q0 -7 -6 -7h-220q-6 0 -6 7v39q0 7 6 7z" />
    <glyph glyph-name="aAlifHamzabelow" unicode="&#x625;" horiz-adv-x="243" 
d="M178 670v-660q0 -10 -10 -10h-93q-10 0 -10 10v660q0 10 10 10h93q10 0 10 -10zM11 -227h37q-16 27 -16 58q0 39 26.5 69t79.5 30q58 0 85 -37q4 -6 0 -10l-26 -24q-6 -6 -10 -2q-21 23 -48 23q-23 0 -36 -14t-13 -36q0 -34 32 -57h101q6 0 6 -7v-36q0 -7 -6 -7h-212
q-6 0 -6 7v36q0 7 6 7z" />
    <glyph glyph-name="aYehHamza" unicode="&#x626;" horiz-adv-x="792" 
d="M70 387h34q-16 23 -16 53q0 38 27.5 67.5t83.5 29.5q64 0 92 -40q3 -7 -1 -10l-30 -28q-3 -3 -8 2q-22 22 -53 22q-23 0 -36 -13t-13 -33q0 -33 31 -50h109q6 0 6 -7v-39q0 -7 -6 -7h-220q-6 0 -6 7v39q0 7 6 7zM148 31q0 -70 45.5 -100.5t111.5 -30.5h199q101 0 101 54
q0 17 -23.5 36t-56.5 39.5t-66 45.5t-56.5 63t-23.5 82q0 74 54.5 123.5t141.5 49.5q116 0 181 -78q6 -7 -3 -14l-54 -53q-8 -6 -14 1q-44 44 -104 44q-36 0 -61.5 -19.5t-25.5 -53.5q0 -26 23.5 -51.5t57 -48t67.5 -47t57.5 -57.5t23.5 -70q0 -66 -49 -107t-150 -41h-233
q-127 0 -192 59t-65 164q0 108 59 201q5 9 15 2l81 -32q8 -4 4 -13q-45 -79 -45 -148z" />
    <glyph glyph-name="aAlif" unicode="&#x627;" horiz-adv-x="243" 
d="M178 670v-660q0 -10 -10 -10h-93q-10 0 -10 10v660q0 10 10 10h93q10 0 10 -10z" />
    <glyph glyph-name="aBeh" unicode="&#x628;" horiz-adv-x="839" 
d="M213 99h414q27 0 38 11.5t11 41.5v253q0 10 10 10h92q10 0 10 -10v-279q0 -67 -27 -96.5t-92 -29.5h-499q-63 0 -90 30t-27 96v215q0 10 10 10h92q10 0 10 -10v-189q0 -29 11.5 -41t36.5 -12zM467 -192h-96q-10 0 -10 10v86q0 10 10 10h96q10 0 10 -10v-86q0 -10 -10 -10
z" />
    <glyph glyph-name="aTehMarbuta" unicode="&#x629;" horiz-adv-x="507" 
d="M250 333q-95 0 -95 -121q0 -63 23 -91.5t72 -28.5q48 0 71 28.5t23 91.5q0 121 -94 121zM250 -7q-206 0 -206 217q0 117 55.5 170t150.5 53t150.5 -53t55.5 -170q0 -112 -55 -164.5t-151 -52.5zM229 515h-84q-10 0 -10 10v86q0 10 10 10h84q10 0 10 -10v-86
q0 -10 -10 -10zM359 515h-84q-10 0 -10 10v86q0 10 10 10h84q10 0 10 -10v-86q0 -10 -10 -10z" />
    <glyph glyph-name="aTeh" unicode="&#x62a;" horiz-adv-x="839" 
d="M213 99h414q27 0 38 11.5t11 41.5v253q0 10 10 10h92q10 0 10 -10v-279q0 -67 -27 -96.5t-92 -29.5h-499q-63 0 -90 30t-27 96v215q0 10 10 10h92q10 0 10 -10v-189q0 -29 11.5 -41t36.5 -12zM401 457h-84q-10 0 -10 10v86q0 10 10 10h84q10 0 10 -10v-86q0 -10 -10 -10z
M531 457h-84q-10 0 -10 10v86q0 10 10 10h84q10 0 10 -10v-86q0 -10 -10 -10z" />
    <glyph glyph-name="aTheh" unicode="&#x62b;" horiz-adv-x="839" 
d="M213 99h414q27 0 38 11.5t11 41.5v253q0 10 10 10h92q10 0 10 -10v-279q0 -67 -27 -96.5t-92 -29.5h-499q-63 0 -90 30t-27 96v215q0 10 10 10h92q10 0 10 -10v-189q0 -29 11.5 -41t36.5 -12zM466 586h-84q-10 0 -10 10v86q0 10 10 10h84q10 0 10 -10v-86q0 -10 -10 -10z
M402 457h-84q-10 0 -10 10v86q0 10 10 10h84q10 0 10 -10v-86q0 -10 -10 -10zM532 457h-84q-10 0 -10 10v86q0 10 10 10h84q10 0 10 -10v-86q0 -10 -10 -10z" />
    <glyph glyph-name="aJim" unicode="&#x62c;" horiz-adv-x="572" 
d="M388 -171h-96q-10 0 -10 10v86q0 10 10 10h96q10 0 10 -10v-86q0 -10 -10 -10zM365 0h-170q-53 0 -53 -51q0 -28 15.5 -39.5t59.5 -11.5h27q10 0 10 -10v-80q0 -10 -10 -10h-39q-88 0 -133 35.5t-45 115.5q0 81 44.5 115.5t110.5 34.5h139q50 0 66 17.5t16 67.5
q0 149 -119 149q-60 0 -108 -48q-7 -7 -14 -1l-51 54q-9 7 -3 14q74 81 179 81q125 0 179.5 -69.5t54.5 -182.5q0 -103 -37 -142t-119 -39z" />
    <glyph glyph-name="aHah" unicode="&#x62d;" horiz-adv-x="572" 
d="M365 0h-170q-53 0 -53 -51q0 -28 15.5 -39.5t59.5 -11.5h92q10 0 10 -10v-80q0 -10 -10 -10h-104q-88 0 -133 35.5t-45 115.5q0 81 44.5 115.5t110.5 34.5h139q50 0 66 17.5t16 67.5q0 149 -119 149q-60 0 -108 -48q-7 -7 -14 -1l-51 54q-9 7 -3 14q74 81 179 81
q125 0 179.5 -69.5t54.5 -182.5q0 -103 -37 -142t-119 -39z" />
    <glyph glyph-name="aKhah" unicode="&#x62e;" horiz-adv-x="572" 
d="M365 0h-170q-53 0 -53 -51q0 -28 15.5 -39.5t59.5 -11.5h92q10 0 10 -10v-80q0 -10 -10 -10h-104q-88 0 -133 35.5t-45 115.5q0 81 44.5 115.5t110.5 34.5h139q50 0 66 17.5t16 67.5q0 149 -119 149q-60 0 -108 -48q-7 -7 -14 -1l-51 54q-9 7 -3 14q74 81 179 81
q125 0 179.5 -69.5t54.5 -182.5q0 -103 -37 -142t-119 -39zM344 515h-96q-10 0 -10 10v86q0 10 10 10h96q10 0 10 -10v-86q0 -10 -10 -10z" />
    <glyph glyph-name="aDal" unicode="&#x62f;" horiz-adv-x="492" 
d="M440 254v-83q0 -96 -35 -133.5t-113 -37.5h-232q-10 0 -10 10v79q0 10 10 10h186q52 0 66.5 16t14.5 63v67q0 88 -102 88h-120q-10 0 -10 10v80q0 10 10 10h160q83 0 129 -44.5t46 -134.5z" />
    <glyph glyph-name="aDhal" unicode="&#x630;" horiz-adv-x="492" 
d="M440 254v-83q0 -96 -35 -133.5t-113 -37.5h-232q-10 0 -10 10v79q0 10 10 10h186q52 0 66.5 16t14.5 63v67q0 88 -102 88h-120q-10 0 -10 10v80q0 10 10 10h160q83 0 129 -44.5t46 -134.5zM268 515h-96q-10 0 -10 10v86q0 10 10 10h96q10 0 10 -10v-86q0 -10 -10 -10z
" />
    <glyph glyph-name="aReh" unicode="&#x631;" horiz-adv-x="286" 
d="M48 -202h-37q-10 0 -10 10v80q0 10 10 10h22q41 0 60 21t19 64v422q0 10 10 10h93q10 0 10 -10v-424q0 -183 -177 -183z" />
    <glyph glyph-name="aZeh" unicode="&#x632;" horiz-adv-x="286" 
d="M48 -202h-37q-10 0 -10 10v80q0 10 10 10h22q41 0 60 21t19 64v422q0 10 10 10h93q10 0 10 -10v-424q0 -183 -177 -183zM217 515h-96q-10 0 -10 10v86q0 10 10 10h96q10 0 10 -10v-86q0 -10 -10 -10z" />
    <glyph glyph-name="aSin" unicode="&#x633;" horiz-adv-x="1096" 
d="M529 326v-168q0 -59 79 -59q40 0 50.5 16.5t10.5 63.5v147q0 10 10 10h93q10 0 10 -10v-167q0 -60 83 -60q39 0 47.5 16t8.5 66v224q0 10 10 10h93q10 0 10 -10v-279q0 -66 -27 -96t-90 -30h-51q-70 0 -97 52q-14 -29 -40 -40.5t-72 -11.5h-44q-56 0 -84 34v-13
q0 -112 -65.5 -170t-179.5 -58q-110 0 -177.5 58.5t-67.5 170.5q0 108 59 201q5 9 15 2l81 -32q8 -4 4 -13q-45 -79 -45 -148q0 -72 40.5 -104.5t94.5 -32.5q128 0 128 129v302q0 10 10 10h93q10 0 10 -10z" />
    <glyph glyph-name="aShin" unicode="&#x634;" horiz-adv-x="1096" 
d="M529 326v-168q0 -59 79 -59q40 0 50.5 16.5t10.5 63.5v147q0 10 10 10h93q10 0 10 -10v-167q0 -60 83 -60q39 0 47.5 16t8.5 66v224q0 10 10 10h93q10 0 10 -10v-279q0 -66 -27 -96t-90 -30h-51q-70 0 -97 52q-14 -29 -40 -40.5t-72 -11.5h-44q-56 0 -84 34v-13
q0 -112 -65.5 -170t-179.5 -58q-110 0 -177.5 58.5t-67.5 170.5q0 108 59 201q5 9 15 2l81 -32q8 -4 4 -13q-45 -79 -45 -148q0 -72 40.5 -104.5t94.5 -32.5q128 0 128 129v302q0 10 10 10h93q10 0 10 -10zM767 644h-84q-10 0 -10 10v86q0 10 10 10h84q10 0 10 -10v-86
q0 -10 -10 -10zM703 515h-84q-10 0 -10 10v86q0 10 10 10h84q10 0 10 -10v-86q0 -10 -10 -10zM833 515h-84q-10 0 -10 10v86q0 10 10 10h84q10 0 10 -10v-86q0 -10 -10 -10z" />
    <glyph glyph-name="aSad" unicode="&#x635;" horiz-adv-x="1046" 
d="M735 333q-94 0 -206 -54v-180h214q89 0 111.5 14.5t22.5 85.5q0 68 -31.5 101t-110.5 33zM98 223q5 9 15 2l81 -32q8 -4 4 -13q-45 -79 -45 -148q0 -72 40.5 -104.5t94.5 -32.5q128 0 128 129v386q0 10 10 10h93q10 0 10 -10v-33q116 56 222 56q244 0 244 -239
q0 -63 -10.5 -101t-37.5 -58.5t-63 -27.5t-97 -7h-166q-31 0 -93 2q-6 -103 -71 -156t-173 -53q-110 0 -177.5 58.5t-67.5 170.5q0 108 59 201z" />
    <glyph glyph-name="aDad" unicode="&#x636;" horiz-adv-x="1046" 
d="M735 333q-94 0 -206 -54v-180h214q89 0 111.5 14.5t22.5 85.5q0 68 -31.5 101t-110.5 33zM98 223q5 9 15 2l81 -32q8 -4 4 -13q-45 -79 -45 -148q0 -72 40.5 -104.5t94.5 -32.5q128 0 128 129v386q0 10 10 10h93q10 0 10 -10v-33q116 56 222 56q244 0 244 -239
q0 -63 -10.5 -101t-37.5 -58.5t-63 -27.5t-97 -7h-166q-31 0 -93 2q-6 -103 -71 -156t-173 -53q-110 0 -177.5 58.5t-67.5 170.5q0 108 59 201zM788 515h-96q-10 0 -10 10v86q0 10 10 10h96q10 0 10 -10v-86q0 -10 -10 -10z" />
    <glyph glyph-name="aTah" unicode="&#x637;" horiz-adv-x="746" 
d="M435 333q-94 0 -206 -54v-136q0 -27 -4 -44h218q30 0 43.5 0.5t32 2t25 5.5t15.5 10.5t11.5 18t4.5 26.5t2 37q0 68 -31.5 101t-110.5 33zM33 99h30q36 0 44.5 22t8.5 99v450q0 10 10 10h93q10 0 10 -10v-293q116 56 222 56q244 0 244 -239q0 -118 -42.5 -156t-156.5 -38
h-266q-32 0 -46 17q-24 -17 -91 -17h-60q-10 0 -10 10v79q0 10 10 10z" />
    <glyph glyph-name="aZah" unicode="&#x638;" horiz-adv-x="746" 
d="M435 333q-94 0 -206 -54v-136q0 -27 -4 -44h218q30 0 43.5 0.5t32 2t25 5.5t15.5 10.5t11.5 18t4.5 26.5t2 37q0 68 -31.5 101t-110.5 33zM33 99h30q36 0 44.5 22t8.5 99v450q0 10 10 10h93q10 0 10 -10v-293q116 56 222 56q244 0 244 -239q0 -118 -42.5 -156t-156.5 -38
h-266q-32 0 -46 17q-24 -17 -91 -17h-60q-10 0 -10 10v79q0 10 10 10zM500 515h-96q-10 0 -10 10v86q0 10 10 10h96q10 0 10 -10v-86q0 -10 -10 -10z" />
    <glyph glyph-name="aAyn" unicode="&#x639;" horiz-adv-x="550" 
d="M33 -53q0 63 29 98.5t75 46.5q-51 55 -51 136q0 37 11.5 71.5t35.5 65.5t68 49.5t102 18.5q123 0 184 -79q5 -8 -3 -14l-54 -56q-6 -6 -14 1q-44 48 -106 48q-50 0 -78 -29.5t-28 -81.5q0 -36 16.5 -65t32.5 -40.5t30 -17.5h215q10 0 10 -10v-79q0 -10 -10 -10h-302
q-49 0 -49 -50q0 -28 15.5 -40t57.5 -12h99q10 0 10 -10v-80q0 -10 -10 -10h-109q-177 0 -177 149z" />
    <glyph glyph-name="aGhayn" unicode="&#x63a;" horiz-adv-x="550" 
d="M33 -53q0 63 29 98.5t75 46.5q-51 55 -51 136q0 37 11.5 71.5t35.5 65.5t68 49.5t102 18.5q123 0 184 -79q5 -8 -3 -14l-54 -56q-6 -6 -14 1q-44 48 -106 48q-50 0 -78 -29.5t-28 -81.5q0 -36 16.5 -65t32.5 -40.5t30 -17.5h215q10 0 10 -10v-79q0 -10 -10 -10h-302
q-49 0 -49 -50q0 -28 15.5 -40t57.5 -12h99q10 0 10 -10v-80q0 -10 -10 -10h-109q-177 0 -177 149zM348 515h-96q-10 0 -10 10v86q0 10 10 10h96q10 0 10 -10v-86q0 -10 -10 -10z" />
    <glyph glyph-name="aKashida" unicode="&#x640;" horiz-adv-x="120" 
d="M120 0h-120q-20 0 -27.5 10t-7.5 37q0 30 7 41t28 11h120q40 0 40 -49q0 -30 -9 -40t-31 -10z" />
    <glyph glyph-name="aFeh" unicode="&#x641;" horiz-adv-x="961" 
d="M702 333q-46 0 -70.5 -30.5t-24.5 -85.5q0 -65 23 -92t72 -27t71.5 26t22.5 88q0 121 -94 121zM702 0h-537q-63 0 -90 30t-27 96v215q0 10 10 10h92q10 0 10 -10v-189q0 -29 11.5 -41t36.5 -12h311q-23 44 -23 111q0 115 57.5 169t148.5 54q95 0 150.5 -53t55.5 -170
q0 -210 -206 -210zM755 515h-96q-10 0 -10 10v86q0 10 10 10h96q10 0 10 -10v-86q0 -10 -10 -10z" />
    <glyph glyph-name="aQaf" unicode="&#x642;" horiz-adv-x="797" 
d="M530 333q-45 0 -70 -32t-25 -89q0 -61 24.5 -87t74.5 -26h89v114q0 120 -93 120zM735 211v-266q0 -66 -49.5 -106.5t-151.5 -40.5h-243q-127 0 -192 59t-65 164q0 53 19 109.5t46 93.5q5 8 14 2l79 -41q8 -5 3 -13q-46 -74 -46 -141q0 -69 45 -100t111 -31h215
q104 0 104 55v45h-102q-97 0 -147 50t-50 160q0 115 57 169t147 54q95 0 150.5 -53t55.5 -169zM508 515h-84q-10 0 -10 10v86q0 10 10 10h84q10 0 10 -10v-86q0 -10 -10 -10zM638 515h-84q-10 0 -10 10v86q0 10 10 10h84q10 0 10 -10v-86q0 -10 -10 -10z" />
    <glyph glyph-name="aKaf" unicode="&#x643;" horiz-adv-x="848" 
d="M784 670v-544q0 -67 -27.5 -96.5t-92.5 -29.5h-499q-63 0 -90 30t-27 96v215q0 10 10 10h92q10 0 10 -10v-189q0 -34 18.5 -43.5t72.5 -9.5h371q33 0 41 20t8 78v473q0 10 10 10h93q10 0 10 -10zM478 501l-49 -57h17q33 0 47.5 -17.5t14.5 -56.5v-19q0 -39 -13.5 -53.5
t-45.5 -14.5h-118q-10 0 -10 10v30q0 10 10 10h101q12 0 16 4.5t4 16.5q0 27 -6.5 33.5t-31.5 6.5h-47q-14 0 -14 14v23q0 8 7 15l77 91q8 10 16 2l25 -22q6 -6 0 -16z" />
    <glyph glyph-name="aLam" unicode="&#x644;" horiz-adv-x="599" 
d="M103 223q4 7 15 2l81 -32q8 -4 4 -13q-45 -79 -45 -148q0 -72 40.5 -104.5t94.5 -32.5q128 0 128 129v646q0 10 10 10h93q10 0 10 -10v-649q0 -112 -65.5 -170t-179.5 -58q-110 0 -177.5 58.5t-67.5 170.5q0 108 59 201z" />
    <glyph glyph-name="aMim" unicode="&#x645;" horiz-adv-x="611" 
d="M354 333q-95 0 -95 -121q0 -63 23 -91.5t72 -28.5q48 0 71 28.5t23 91.5q0 121 -94 121zM354 -7q-102 0 -152 59q-8 -12 -25 -22.5t-28 -24.5t-11 -41v-166h-113v187q0 36 12 61t29.5 38t35.5 23.5t32 25t16 34.5q-2 26 -2 43q0 117 55.5 170t150.5 53t150.5 -53
t55.5 -170q0 -112 -55 -164.5t-151 -52.5z" />
    <glyph glyph-name="aNun" unicode="&#x646;" horiz-adv-x="595" 
d="M365 382h-96q-10 0 -10 10v86q0 10 10 10h96q10 0 10 -10v-86q0 -10 -10 -10zM103 223q5 9 15 2l81 -32q8 -4 4 -13q-45 -79 -45 -148q0 -72 40.5 -104.5t94.5 -32.5q128 0 128 129v297q0 10 10 10h93q10 0 10 -10v-300q0 -112 -65.5 -170t-179.5 -58q-110 0 -177.5 58.5
t-67.5 170.5q0 108 59 201z" />
    <glyph glyph-name="aHeh" unicode="&#x647;" horiz-adv-x="507" 
d="M250 333q-95 0 -95 -121q0 -63 23 -91.5t72 -28.5q48 0 71 28.5t23 91.5q0 121 -94 121zM250 -7q-206 0 -206 217q0 117 55.5 170t150.5 53t150.5 -53t55.5 -170q0 -112 -55 -164.5t-151 -52.5z" />
    <glyph glyph-name="aWaw" unicode="&#x648;" horiz-adv-x="521" 
d="M256 333q-45 0 -70.5 -33.5t-25.5 -91.5q0 -60 24 -84.5t75 -24.5h89v114q0 120 -92 120zM348 0h-101q-97 0 -147 47.5t-50 157.5q0 116 58 172t147 56q204 0 204 -221v-234q0 -93 -46 -136.5t-138 -43.5h-135q-10 0 -10 10v80q0 10 10 10h117q46 0 68.5 20.5t22.5 81.5z
" />
    <glyph glyph-name="aAlifMaksura" unicode="&#x649;" horiz-adv-x="792" 
d="M148 31q0 -70 45.5 -100.5t111.5 -30.5h199q101 0 101 54q0 17 -23.5 36t-56.5 39.5t-66 45.5t-56.5 63t-23.5 82q0 74 54.5 123.5t141.5 49.5q116 0 181 -78q6 -7 -3 -14l-54 -53q-8 -6 -14 1q-44 44 -104 44q-36 0 -61.5 -19.5t-25.5 -53.5q0 -26 23.5 -51.5t57 -48
t67.5 -47t57.5 -57.5t23.5 -70q0 -66 -49 -107t-150 -41h-233q-127 0 -192 59t-65 164q0 108 59 201q5 9 15 2l81 -32q8 -4 4 -13q-45 -79 -45 -148z" />
    <glyph glyph-name="aYeh" unicode="&#x64a;" horiz-adv-x="792" 
d="M148 106q0 -70 45.5 -100.5t111.5 -30.5h199q101 0 101 54q0 17 -23.5 36t-56.5 39.5t-66 45.5t-56.5 63t-23.5 82q0 74 54.5 123.5t141.5 49.5q116 0 181 -78q6 -7 -3 -14l-54 -53q-8 -6 -14 1q-44 44 -104 44q-36 0 -61.5 -19.5t-25.5 -53.5q0 -26 23.5 -51.5t57 -48
t67.5 -47t57.5 -57.5t23.5 -70q0 -66 -49 -107t-150 -41h-233q-127 0 -192 59t-65 164q0 108 59 201q5 9 15 2l81 -32q8 -4 4 -13q-45 -79 -45 -148zM364 -297h-84q-10 0 -10 10v86q0 10 10 10h84q10 0 10 -10v-86q0 -10 -10 -10zM494 -297h-84q-10 0 -10 10v86q0 10 10 10
h84q10 0 10 -10v-86q0 -10 -10 -10z" />
    <glyph glyph-name="aFathatan" unicode="&#x64b;" horiz-adv-x="0" 
d="M129 815h-254q-10 0 -10 10v17q0 10 10 10h254q10 0 10 -10v-17q0 -10 -10 -10zM129 750h-254q-10 0 -10 10v17q0 10 10 10h254q10 0 10 -10v-17q0 -10 -10 -10z" />
    <glyph glyph-name="aDammatan" unicode="&#x64c;" horiz-adv-x="0" 
d="M52 857h33q1 5 1 17q0 55 -38 55q-19 0 -28.5 -12t-9.5 -28q0 -17 13.5 -24.5t28.5 -7.5zM-133 871h-11q-10 0 -10 10v17q0 10 10 10h8q34 0 55 -22t21 -68q0 -23 12.5 -29.5t45.5 -6.5q66 0 79 40h-30q-35 0 -54.5 18t-19.5 49q0 32 21.5 54t53.5 22q34 0 54.5 -22.5
t20.5 -68.5q0 -128 -125 -128q-47 0 -71.5 14t-24.5 58q0 53 -35 53z" />
    <glyph glyph-name="aKasratan" unicode="&#x64d;" horiz-adv-x="0" 
d="M131 -137h-254q-10 0 -10 10v17q0 10 10 10h254q10 0 10 -10v-17q0 -10 -10 -10zM131 -202h-254q-10 0 -10 10v17q0 10 10 10h254q10 0 10 -10v-17q0 -10 -10 -10z" />
    <glyph glyph-name="aFatha" unicode="&#x64e;" horiz-adv-x="0" 
d="M128 750h-254q-10 0 -10 10v17q0 10 10 10h254q10 0 10 -10v-17q0 -10 -10 -10z" />
    <glyph glyph-name="aDamma" unicode="&#x64f;" horiz-adv-x="0" 
d="M-78 781h29q62 0 80 39h-31q-35 0 -54.5 18t-19.5 50t21.5 54t53.5 22q34 0 55 -23t21 -69q0 -128 -126 -128h-29q-10 0 -10 10v17q0 10 10 10zM5 855h34v17q0 55 -38 55q-18 0 -28 -12t-10 -27q0 -18 13.5 -25.5t28.5 -7.5z" />
    <glyph glyph-name="aKasra" unicode="&#x650;" horiz-adv-x="0" 
d="M131 -138h-254q-10 0 -10 10v17q0 10 10 10h254q10 0 10 -10v-17q0 -10 -10 -10z" />
    <glyph glyph-name="aShadda" unicode="&#x651;" horiz-adv-x="0" 
d="M-128 829v71q0 10 10 10h20q10 0 10 -10v-74q0 -40 34 -40t34 36v78q0 10 10 10h20q10 0 10 -10v-78q0 -36 34 -36t34 40v74q0 10 10 10h20q10 0 10 -10v-71q0 -36 -19.5 -58.5t-54.5 -22.5q-36 0 -55 22q-19 -22 -54 -22t-54 22.5t-19 58.5z" />
    <glyph glyph-name="aSukun" unicode="&#x652;" horiz-adv-x="0" 
d="M-43 830q0 -18 13 -31t31 -13t31 13t13 31t-13 31t-31 13t-31 -13t-13 -31zM-81 829q0 34 23.5 57.5t57.5 23.5t57.5 -23.5t23.5 -57.5t-23.5 -57.5t-57.5 -23.5t-57.5 23.5t-23.5 57.5z" />
    <glyph glyph-name="aMadda" unicode="&#x653;" horiz-adv-x="0" 
d="M-183 770q18 73 81 73q30 0 95 -26.5t92 -26.5q16 0 22 7.5t6 26.5q0 10 10 10h37q10 0 10 -10q0 -94 -77 -94q-39 0 -102.5 25t-83.5 25q-24 0 -33 -28q-3 -10 -13 -7l-37 12q-8 3 -7 13z" />
    <glyph glyph-name="aHamzaabove" unicode="&#x654;" horiz-adv-x="0" 
d="M-109 781h37q-16 27 -16 57q0 39 26.5 69.5t79.5 30.5q57 0 85 -38q3 -6 0 -9l-26 -25q-6 -5 -10 -1q-23 23 -48 23q-23 0 -36 -14.5t-13 -36.5q0 -37 32 -56h101q6 0 6 -7v-37q0 -7 -6 -7h-212q-6 0 -6 7v37q0 7 6 7z" />
    <glyph glyph-name="aHamzabelow" unicode="&#x655;" horiz-adv-x="0" 
d="M-109 -227h37q-16 27 -16 58q0 39 26.5 69t79.5 30q58 0 85 -37q4 -6 0 -10l-26 -24q-6 -6 -10 -2q-21 23 -48 23q-23 0 -36 -14t-13 -36q0 -34 32 -57h101q6 0 6 -7v-36q0 -7 -6 -7h-212q-6 0 -6 7v36q0 7 6 7z" />
    <glyph glyph-name="aAlifbelow" unicode="&#x656;" horiz-adv-x="0" 
d="M21 -114v-124q0 -10 -10 -10h-22q-10 0 -10 10v124q0 10 10 10h22q10 0 10 -10z" />
    <glyph glyph-name="aNasalnun" unicode="&#x658;" horiz-adv-x="0" 
d="M-89 842v48q0 10 10 10h20q10 0 10 -10v-52q0 -24 13 -39t36 -15q48 0 48 55v51q0 10 10 10h20q10 0 10 -10v-48q0 -44 -22 -69t-66 -25t-66.5 25.5t-22.5 68.5z" />
    <glyph glyph-name="aZero" unicode="&#x660;" horiz-adv-x="491" 
d="M330 176l-52 -52q-18 -18 -32 -18t-32 18l-51 53q-18 18 -18 30.5t18 31.5l51 52q16 16 28 18t31 -14l57 -56q32 -31 0 -63z" />
    <glyph glyph-name="aOne" unicode="&#x661;" horiz-adv-x="491" 
d="M302 595v-585q0 -10 -10 -10h-93q-10 0 -10 10v585q0 10 10 10h93q10 0 10 -10z" />
    <glyph glyph-name="aTwo" unicode="&#x662;" horiz-adv-x="491" 
d="M105 10v468q0 127 120 127h206q10 0 10 -10v-80q0 -10 -10 -10h-152q-35 0 -48 -15.5t-13 -50.5v-429q0 -10 -10 -10h-93q-10 0 -10 10z" />
    <glyph glyph-name="aThree" unicode="&#x663;" horiz-adv-x="491" 
d="M147 595v-160h62v113q0 10 10 10h77q10 0 10 -10v-113q33 2 46 13t13 40v107q0 10 10 10h90q10 0 10 -10v-115q0 -80 -40.5 -111.5t-123.5 -31.5h-164v-327q0 -10 -10 -10h-93q-10 0 -10 10v585q0 10 10 10h93q10 0 10 -10z" />
    <glyph glyph-name="aFour" unicode="&#x664;" horiz-adv-x="491" 
d="M277 98h143q10 0 10 -10v-78q0 -10 -10 -10h-161q-85 0 -140.5 40t-55.5 121q0 105 92 153q-62 44 -62 125q0 80 51 123t137 43h99q10 0 10 -10v-78q0 -10 -10 -10h-83q-44 0 -65.5 -17.5t-21.5 -58.5q0 -38 24.5 -56.5t62.5 -18.5h82q10 0 10 -10v-78q0 -10 -10 -10
h-108q-40 0 -65.5 -22t-25.5 -63q0 -75 97 -75z" />
    <glyph glyph-name="aFive" unicode="&#x665;" horiz-adv-x="491" 
d="M246 102q44 0 63.5 23.5t19.5 83.5v120q0 98 -19 139.5t-64 41.5q-44 0 -63.5 -41t-19.5 -138v-122q0 -63 20 -85t63 -22zM244 0q-42 0 -72.5 7t-60 26.5t-45.5 61.5t-16 105v137q0 146 52 208t145 62q92 0 143.5 -61t51.5 -210v-131q0 -62 -15.5 -104t-44.5 -63
t-61.5 -29.5t-76.5 -8.5z" />
    <glyph glyph-name="aSix" unicode="&#x666;" horiz-adv-x="491" 
d="M226 505h-149q-10 0 -10 10v80q0 10 10 10h203q120 0 120 -127v-468q0 -10 -10 -10h-93q-10 0 -10 10v429q0 35 -13 50.5t-48 15.5z" />
    <glyph glyph-name="aSeven" unicode="&#x667;" horiz-adv-x="491" 
d="M244 161l118 443q3 10 12 7l90 -23q11 -3 9 -11l-169 -565q-5 -17 -60 -17q-53 0 -58 17l-169 566q-2 8 9 11l90 22q9 3 12 -7z" />
    <glyph glyph-name="aEight" unicode="&#x668;" horiz-adv-x="491" 
d="M246 441l-118 -442q-3 -10 -12 -7l-90 22q-11 3 -9 11l170 566q5 17 59 17t59 -17l168 -566q2 -8 -9 -11l-90 -22q-9 -3 -12 7z" />
    <glyph glyph-name="aNine" unicode="&#x669;" horiz-adv-x="491" 
d="M246 345h63v85q0 35 -17 55t-50 20t-53.5 -21.5t-20.5 -60.5q0 -40 21.5 -59t56.5 -19zM309 244h-60q-84 0 -137 42t-53 135q0 89 54 136.5t132 47.5q82 0 129 -40.5t47 -117.5v-437q0 -10 -10 -10h-92q-10 0 -10 10v234z" />
    <glyph glyph-name="aPercent" unicode="&#x66a;" horiz-adv-x="675" 
d="M552 68l-46 -47q-15 -16 -27.5 -16.5t-30.5 16.5l-46 48q-17 17 -17 28t17 28l46 47q28 28 53 3l51 -50q28 -28 0 -57zM252 488l-46 -47q-15 -16 -27.5 -16.5t-30.5 16.5l-46 48q-17 17 -17 28t17 28l46 47q28 28 53 3l51 -50q28 -28 0 -57zM88 -2l386 622q6 10 13 10h89
q10 0 7 -10l-386 -622q-6 -10 -13 -10h-89q-5 0 -7 3t0 7z" />
    <glyph glyph-name="aDecimal" unicode="&#x66b;" horiz-adv-x="236" 
d="M63 -97v211q0 10 10 10h91q10 0 10 -10v-106q0 -11 -7 -21l-80 -86q-8 -8 -14 -8q-10 0 -10 10z" />
    <glyph glyph-name="aThousands" unicode="&#x66c;" horiz-adv-x="230" 
d="M63 37v211q0 10 10 10h91q10 0 10 -10v-106q0 -11 -7 -21l-80 -86q-8 -8 -14 -8q-10 0 -10 10z" />
    <glyph glyph-name="aStar" unicode="&#x66d;" horiz-adv-x="343" 
d="M178 554l-70 -65q-7 -7 -14 -3l-6 4q-8 5 -4 14l42 86l-88 50q-7 3 -4 11l3 9q2 6 9 5l99 -12l20 97q0 10 10 10h8q10 0 10 -10l18 -97l99 12q7 1 10 -5l2 -9q3 -8 -4 -11l-87 -50l41 -86q4 -10 -4 -14l-5 -4q-6 -5 -14 3z" />
    <glyph glyph-name="aAlifabove" unicode="&#x670;" horiz-adv-x="0" 
d="M21 884v-124q0 -10 -10 -10h-22q-10 0 -10 10v124q0 10 10 10h22q10 0 10 -10z" />
    <glyph glyph-name="aAlifWasla" unicode="&#x671;" horiz-adv-x="243" 
d="M178 670v-660q0 -10 -10 -10h-93q-10 0 -10 10v660q0 10 10 10h93q10 0 10 -10zM144 867q-19 0 -60 -15v-50h76q14 0 18 5t4 23q0 37 -38 37zM13 802h12q10 0 10 11v91q0 7 8 7h33q8 0 8 -7v-10q36 16 67 16q80 0 80 -82q0 -36 -13 -52.5t-41 -16.5h-164q-7 0 -7 7v29
q0 7 7 7z" />
    <glyph glyph-name="aTteh" unicode="&#x679;" horiz-adv-x="839" 
d="M213 99h414q27 0 38 11.5t11 41.5v253q0 10 10 10h92q10 0 10 -10v-279q0 -67 -27 -96.5t-92 -29.5h-499q-63 0 -90 30t-27 96v215q0 10 10 10h92q10 0 10 -10v-189q0 -29 11.5 -41t36.5 -12zM439 547q-21 0 -59 -16v-50h75q15 0 19 5.5t4 23.5q0 37 -39 37zM309 481h8
q10 0 12 6t2 30v135q0 7 8 7h33q8 0 8 -7v-78q33 15 67 15q80 0 80 -80q0 -38 -13 -54t-41 -16h-164q-7 0 -7 7v28q0 7 7 7z" />
    <glyph glyph-name="aPeh" unicode="&#x67e;" horiz-adv-x="839" 
d="M213 99h414q27 0 38 11.5t11 41.5v253q0 10 10 10h92q10 0 10 -10v-279q0 -67 -27 -96.5t-92 -29.5h-499q-63 0 -90 30t-27 96v215q0 10 10 10h92q10 0 10 -10v-189q0 -29 11.5 -41t36.5 -12zM467 -316h-84q-10 0 -10 10v86q0 10 10 10h84q10 0 10 -10v-86q0 -10 -10 -10
zM399 -192h-84q-10 0 -10 10v86q0 10 10 10h84q10 0 10 -10v-86q0 -10 -10 -10zM529 -192h-84q-10 0 -10 10v86q0 10 10 10h84q10 0 10 -10v-86q0 -10 -10 -10z" />
    <glyph glyph-name="aTcheh" unicode="&#x686;" horiz-adv-x="563" 
d="M383 -209h-56q-7 0 -7 6v59q0 6 7 6h56q7 0 7 -6v-59q0 -6 -7 -6zM337 -126h-56q-7 0 -7 7v58q0 7 7 7h56q7 0 7 -7v-58q0 -7 -7 -7zM425 -126h-57q-6 0 -6 7v58q0 7 6 7h57q7 0 7 -7v-58q0 -7 -7 -7zM363 0h-170q-51 0 -51 -51q0 -28 15.5 -39.5t59.5 -11.5h27
q10 0 10 -10v-80q0 -10 -10 -10h-39q-88 0 -133 35.5t-45 115.5q0 81 44 115.5t109 34.5h139q50 0 66 17.5t16 67.5q0 149 -119 149q-60 0 -108 -48q-7 -7 -14 -1l-51 54q-9 7 -3 14q74 81 179 81q125 0 179.5 -69.5t54.5 -182.5q0 -103 -37 -142t-119 -39z" />
    <glyph glyph-name="aDdal" unicode="&#x688;" horiz-adv-x="492" 
d="M440 254v-83q0 -96 -35 -133.5t-113 -37.5h-232q-10 0 -10 10v79q0 10 10 10h186q52 0 66.5 16t14.5 63v67q0 88 -102 88h-120q-10 0 -10 10v80q0 10 10 10h160q83 0 129 -44.5t46 -134.5zM253 612q-21 0 -59 -16v-50h75q15 0 19 5.5t4 23.5q0 37 -39 37zM123 546h8
q10 0 12 6t2 30v135q0 7 8 7h33q8 0 8 -7v-78q33 15 67 15q80 0 80 -80q0 -38 -13 -54t-41 -16h-164q-7 0 -7 7v28q0 7 7 7z" />
    <glyph glyph-name="aRreh" unicode="&#x691;" horiz-adv-x="286" 
d="M48 -202h-37q-10 0 -10 10v80q0 10 10 10h22q41 0 60 21t19 64v422q0 10 10 10h93q10 0 10 -10v-424q0 -183 -177 -183zM191 612q-21 0 -59 -16v-50h75q15 0 19 5.5t4 23.5q0 37 -39 37zM61 546h8q10 0 12 6t2 30v135q0 7 8 7h33q8 0 8 -7v-78q33 15 67 15q80 0 80 -80
q0 -38 -13 -54t-41 -16h-164q-7 0 -7 7v28q0 7 7 7z" />
    <glyph glyph-name="aJeh" unicode="&#x698;" horiz-adv-x="286" 
d="M48 -202h-37q-10 0 -10 10v80q0 10 10 10h22q41 0 60 21t19 64v422q0 10 10 10h93q10 0 10 -10v-424q0 -183 -177 -183zM211 644h-84q-10 0 -10 10v86q0 10 10 10h84q10 0 10 -10v-86q0 -10 -10 -10zM147 515h-84q-10 0 -10 10v86q0 10 10 10h84q10 0 10 -10v-86
q0 -10 -10 -10zM277 515h-84q-10 0 -10 10v86q0 10 10 10h84q10 0 10 -10v-86q0 -10 -10 -10z" />
    <glyph glyph-name="aVeh" unicode="&#x6a4;" horiz-adv-x="961" 
d="M702 333q-46 0 -70.5 -30.5t-24.5 -85.5q0 -65 23 -92t72 -27t71.5 26t22.5 88q0 121 -94 121zM702 0h-537q-63 0 -90 30t-27 96v215q0 10 10 10h92q10 0 10 -10v-189q0 -29 11.5 -41t36.5 -12h311q-23 44 -23 111q0 115 57.5 169t148.5 54q95 0 150.5 -53t55.5 -170
q0 -210 -206 -210zM743 644h-84q-10 0 -10 10v86q0 10 10 10h84q10 0 10 -10v-86q0 -10 -10 -10zM679 515h-84q-10 0 -10 10v86q0 10 10 10h84q10 0 10 -10v-86q0 -10 -10 -10zM809 515h-84q-10 0 -10 10v86q0 10 10 10h84q10 0 10 -10v-86q0 -10 -10 -10z" />
    <glyph glyph-name="aKeheh" unicode="&#x6a9;" horiz-adv-x="862" 
d="M208 99h410q50 0 64.5 16t14.5 63v54q0 54 -30.5 71t-100.5 17h-131q-10 0 -10 19v60q0 7 9 16l222 262q6 7 13 3l65 -54q8 -8 4 -14l-165 -193q47 -1 78.5 -4.5t64.5 -14.5t51.5 -30t30.5 -52t12 -80v-67q0 -96 -35 -133.5t-113 -37.5h-497q-63 0 -90 30t-27 96v215
q0 10 10 10h92q10 0 10 -10v-189q0 -29 11.5 -41t36.5 -12z" />
    <glyph glyph-name="aGaf" unicode="&#x6af;" horiz-adv-x="862" 
d="M208 99h410q50 0 64.5 16t14.5 63v54q0 54 -30.5 71t-100.5 17h-131q-10 0 -10 19v60q0 7 9 16l222 262q6 7 13 3l65 -54q8 -8 4 -14l-165 -193q47 -1 78.5 -4.5t64.5 -14.5t51.5 -30t30.5 -52t12 -80v-67q0 -96 -35 -133.5t-113 -37.5h-497q-63 0 -90 30t-27 96v215
q0 10 10 10h92q10 0 10 -10v-189q0 -29 11.5 -41t36.5 -12zM614 712l-220 -259q-6 -7 -13 -3l-60 49q-8 5 -4 14l221 259q6 7 13 3l59 -49q8 -8 4 -14z" />
    <glyph glyph-name="aNunGhunna" unicode="&#x6ba;" horiz-adv-x="595" 
d="M103 223q5 9 15 2l81 -32q8 -4 4 -13q-45 -79 -45 -148q0 -72 40.5 -104.5t94.5 -32.5q128 0 128 129v297q0 10 10 10h93q10 0 10 -10v-300q0 -112 -65.5 -170t-179.5 -58q-110 0 -177.5 58.5t-67.5 170.5q0 108 59 201z" />
    <glyph glyph-name="aHehDoachashmi" unicode="&#x6be;" horiz-adv-x="698" 
d="M313 238q-28 0 -43.5 -18.5t-15.5 -52.5q0 -65 53 -70h11q52 0 52 70q0 71 -57 71zM475 0h-317q-23 0 -29.5 -6.5t-6.5 -27.5v-37q0 -10 -10 -10h-93q-10 0 -10 10v93q0 77 88 77h86q-14 33 -14 70q0 74 41 111t103 37q66 0 106 -37.5t40 -110.5q0 -40 -10 -70
q49 0 65 23t16 79q0 77 -42.5 119.5t-128.5 42.5q-78 0 -147 -31q-4 -4 -10 -4q-5 0 -6 4l-24 61q0 2 -0.5 4t-1.5 3v2q0 5 5 8q94 49 204 49q76 0 130.5 -22t83.5 -60.5t41.5 -81t12.5 -92.5q0 -111 -39 -157t-133 -46z" />
    <glyph glyph-name="aHehYeh" unicode="&#x6c0;" horiz-adv-x="507" 
d="M142 554h37q-16 27 -16 58q0 39 26.5 69t79.5 30q58 0 85 -37q4 -6 0 -10l-26 -24q-6 -6 -10 -2q-21 23 -48 23q-23 0 -36 -14t-13 -36q0 -38 32 -57h101q6 0 6 -15v-28q0 -7 -6 -7h-212q-6 0 -6 7v36q0 7 6 7zM250 333q-95 0 -95 -121q0 -63 23 -91.5t72 -28.5
q48 0 71 28.5t23 91.5q0 121 -94 121zM250 -7q-206 0 -206 217q0 117 55.5 170t150.5 53t150.5 -53t55.5 -170q0 -112 -55 -164.5t-151 -52.5z" />
    <glyph glyph-name="aHehGoal" unicode="&#x6c1;" horiz-adv-x="507" 
d="M250 333q-95 0 -95 -121q0 -63 23 -91.5t72 -28.5q48 0 71 28.5t23 91.5q0 121 -94 121zM250 -7q-206 0 -206 217q0 117 55.5 170t150.5 53t150.5 -53t55.5 -170q0 -112 -55 -164.5t-151 -52.5z" />
    <glyph glyph-name="aHehGoalHamzaabove" unicode="&#x6c2;" horiz-adv-x="507" 
d="M142 554h37q-16 27 -16 58q0 39 26.5 69t79.5 30q58 0 85 -37q4 -6 0 -10l-26 -24q-6 -6 -10 -2q-21 23 -48 23q-23 0 -36 -14t-13 -36q0 -38 32 -57h101q6 0 6 -15v-28q0 -7 -6 -7h-212q-6 0 -6 7v36q0 7 6 7zM250 333q-95 0 -95 -121q0 -63 23 -91.5t72 -28.5
q48 0 71 28.5t23 91.5q0 121 -94 121zM250 -7q-206 0 -206 217q0 117 55.5 170t150.5 53t150.5 -53t55.5 -170q0 -112 -55 -164.5t-151 -52.5z" />
    <glyph glyph-name="aTehMarbutaGoal" unicode="&#x6c3;" horiz-adv-x="507" 
d="M250 333q-95 0 -95 -121q0 -63 23 -91.5t72 -28.5q48 0 71 28.5t23 91.5q0 121 -94 121zM250 -7q-206 0 -206 217q0 117 55.5 170t150.5 53t150.5 -53t55.5 -170q0 -112 -55 -164.5t-151 -52.5zM229 515h-84q-10 0 -10 10v86q0 10 10 10h84q10 0 10 -10v-86
q0 -10 -10 -10zM359 515h-84q-10 0 -10 10v86q0 10 10 10h84q10 0 10 -10v-86q0 -10 -10 -10z" />
    <glyph glyph-name="aYehFarsi" unicode="&#x6cc;" horiz-adv-x="792" 
d="M148 31q0 -70 45.5 -100.5t111.5 -30.5h199q101 0 101 54q0 17 -23.5 36t-56.5 39.5t-66 45.5t-56.5 63t-23.5 82q0 74 54.5 123.5t141.5 49.5q116 0 181 -78q6 -7 -3 -14l-54 -53q-8 -6 -14 1q-44 44 -104 44q-36 0 -61.5 -19.5t-25.5 -53.5q0 -26 23.5 -51.5t57 -48
t67.5 -47t57.5 -57.5t23.5 -70q0 -66 -49 -107t-150 -41h-233q-127 0 -192 59t-65 164q0 108 59 201q5 9 15 2l81 -32q8 -4 4 -13q-45 -79 -45 -148z" />
    <glyph glyph-name="aYehBarri" unicode="&#x6d2;" horiz-adv-x="766" 
d="M344 346q-20 -31 -56 -60t-66 -47t-53 -41t-23 -45q0 -54 90 -54h500q10 0 10 -10v-79q0 -10 -10 -10h-503q-101 0 -149 37t-48 99q0 35 16 66t43 57t55.5 49t60.5 51t51 53q7 7 15 1l66 -53q6 -6 1 -14z" />
    <glyph glyph-name="aYehBarriHamzaabove" unicode="&#x6d3;" horiz-adv-x="819" 
d="M351 346q-20 -31 -56 -60t-66 -47t-53 -41t-23 -45q0 -54 90 -54h500q10 0 10 -10v-79q0 -10 -10 -10h-503q-101 0 -149 37t-48 99q0 35 16 66t43 57t55.5 49t60.5 51t51 53q7 7 15 1l66 -53q6 -6 1 -14zM54 489h37q-16 27 -16 57q0 39 26.5 69.5t79.5 30.5q57 0 85 -38
q3 -6 0 -9l-26 -25q-6 -5 -10 -1q-23 23 -48 23q-23 0 -36 -14.5t-13 -36.5q0 -37 32 -56h101q6 0 6 -7v-37q0 -7 -6 -7h-212q-6 0 -6 7v37q0 7 6 7z" />
    <glyph glyph-name="aPeriodUrdu" unicode="&#x6d4;" horiz-adv-x="309" 
d="M204 99h66q10 0 10 -10v-79q0 -10 -10 -10h-88q-89 0 -155 49q-7 4 -1 14l39 68q5 8 13 3q54 -35 126 -35z" />
    <glyph glyph-name="aAe" unicode="&#x6d5;" horiz-adv-x="507" 
d="M250 333q-95 0 -95 -121q0 -63 23 -91.5t72 -28.5q48 0 71 28.5t23 91.5q0 121 -94 121zM250 -7q-206 0 -206 217q0 117 55.5 170t150.5 53t150.5 -53t55.5 -170q0 -112 -55 -164.5t-151 -52.5z" />
    <glyph glyph-name="aZeroFarsi" unicode="&#x6f0;" horiz-adv-x="491" 
d="M330 176l-52 -52q-18 -18 -32 -18t-32 18l-51 53q-18 18 -18 30.5t18 31.5l51 52q16 16 28 18t31 -14l57 -56q32 -31 0 -63z" />
    <glyph glyph-name="aOneFarsi" unicode="&#x6f1;" horiz-adv-x="491" 
d="M302 595v-585q0 -10 -10 -10h-93q-10 0 -10 10v585q0 10 10 10h93q10 0 10 -10z" />
    <glyph glyph-name="aTwoFarsi" unicode="&#x6f2;" horiz-adv-x="491" 
d="M105 10v468q0 127 120 127h206q10 0 10 -10v-80q0 -10 -10 -10h-152q-35 0 -48 -15.5t-13 -50.5v-429q0 -10 -10 -10h-93q-10 0 -10 10z" />
    <glyph glyph-name="aThreeFarsi" unicode="&#x6f3;" horiz-adv-x="491" 
d="M147 595v-160h62v113q0 10 10 10h77q10 0 10 -10v-113q33 2 46 13t13 40v107q0 10 10 10h90q10 0 10 -10v-115q0 -80 -40.5 -111.5t-123.5 -31.5h-164v-327q0 -10 -10 -10h-93q-10 0 -10 10v585q0 10 10 10h93q10 0 10 -10z" />
    <glyph glyph-name="aFourFarsi" unicode="&#x6f4;" horiz-adv-x="491" 
d="M304 606h19q10 0 10 -10v-52q0 -10 -10 -10q-30 0 -41 -11.5t-11 -40.5v-40q58 0 77 10.5t19 45.5v14q0 10 18 10h80q10 0 10 -10v-17q0 -145 -128 -145h-205v-340q0 -10 -25 -10h-78q-10 0 -10 10v585q0 10 10 10h93q10 0 10 -10v-153h51v56q0 108 111 108z" />
    <glyph glyph-name="aFiveFarsi" unicode="&#x6f5;" horiz-adv-x="491" 
d="M42 237q0 35 1 63t5.5 68t12.5 71t23.5 64t36.5 54.5t52.5 35.5t71.5 14q204 0 204 -355q0 -254 -115 -254q-48 0 -86 33q-36 -32 -80 -32q-58 0 -92 60t-34 178zM342 245q0 122 -24 195.5t-73 73.5q-48 0 -73 -67.5t-25 -189.5q0 -156 53 -156q13 0 27.5 13t18.5 13
q3 0 17.5 -13t31.5 -13q47 0 47 144z" />
    <glyph glyph-name="aSixFarsi" unicode="&#x6f6;" horiz-adv-x="491" 
d="M292 227l-158 -246q-5 -8 -14 -3l-74 52q-8 6 -3 14l174 266q-78 40 -78 128q0 81 51 124t134 43h90q10 0 10 -10v-79q0 -10 -10 -10h-73q-91 0 -91 -79q0 -40 26.5 -59t64.5 -19h72q10 0 10 -10v-79q0 -10 -10 -10h-47q-37 0 -50.5 -3.5t-23.5 -19.5z" />
    <glyph glyph-name="aSevenFarsi" unicode="&#x6f7;" horiz-adv-x="491" 
d="M244 161l118 443q3 10 12 7l90 -23q11 -3 9 -11l-169 -565q-5 -17 -60 -17q-53 0 -58 17l-169 566q-2 8 9 11l90 22q9 3 12 -7z" />
    <glyph glyph-name="aEightFarsi" unicode="&#x6f8;" horiz-adv-x="491" 
d="M246 441l-118 -442q-3 -10 -12 -7l-90 22q-11 3 -9 11l170 566q5 17 59 17t59 -17l168 -566q2 -8 -9 -11l-90 -22q-9 -3 -12 7z" />
    <glyph glyph-name="aNineFarsi" unicode="&#x6f9;" horiz-adv-x="491" 
d="M246 345h63v85q0 35 -17 55t-50 20t-53.5 -21.5t-20.5 -60.5q0 -40 21.5 -59t56.5 -19zM309 244h-60q-84 0 -137 42t-53 135q0 89 54 136.5t132 47.5q82 0 129 -40.5t47 -117.5v-437q0 -10 -10 -10h-92q-10 0 -10 10v234z" />
    <glyph glyph-name="enspace" unicode="&#x2002;" horiz-adv-x="500" 
 />
    <glyph glyph-name="thinspace" unicode="&#x2009;" horiz-adv-x="100" 
 />
    <glyph glyph-name="hairspace" unicode="&#x200a;" horiz-adv-x="20" 
 />
    <glyph glyph-name="ZWNJ" unicode="&#x200c;" horiz-adv-x="33" 
d="M33 1321v-1319h-33v1319h33z" />
    <glyph glyph-name="ZWJ" unicode="&#x200d;" horiz-adv-x="33" 
d="M96 1245l-18 -18l-45 46v-1273h-33v1276l-49 -49l-17 18l63 63l-63 64l17 17l64 -63l63 63l18 -17l-63 -63v-1z" />
    <glyph glyph-name="LTR" unicode="&#x200e;" horiz-adv-x="32" 
d="M190 1308l-81 -81v61h-77v-1286h-32v1319h109v68z" />
    <glyph glyph-name="RTL" unicode="&#x200f;" horiz-adv-x="33" 
d="M-77 1321h110v-1319h-33v1286h-77v-61l-81 81l81 81v-68z" />
    <glyph glyph-name="uni2010" unicode="&#x2010;" horiz-adv-x="385" 
d="M330 216h-275q-10 0 -10 10v79q0 10 10 10h275q10 0 10 -10v-79q0 -10 -10 -10z" />
    <glyph glyph-name="endash" unicode="&#x2013;" horiz-adv-x="519" 
d="M489 219h-459q-10 0 -10 10v73q0 10 10 10h459q10 0 10 -10v-73q0 -10 -10 -10z" />
    <glyph glyph-name="emdash" unicode="&#x2014;" horiz-adv-x="867" 
d="M837 219h-807q-10 0 -10 10v73q0 10 10 10h807q10 0 10 -10v-73q0 -10 -10 -10z" />
    <glyph glyph-name="quoteleft" unicode="&#x2018;" horiz-adv-x="223" 
d="M152 488h-81q-10 0 -10 10v94q0 13 8 21l69 62q6 7 14 7q10 0 10 -10v-174q0 -10 -10 -10z" />
    <glyph glyph-name="quoteright" unicode="&#x2019;" horiz-adv-x="223" 
d="M71 486q-10 0 -10 10v174q0 10 10 10h81q10 0 10 -10v-94q0 -13 -8 -21l-68 -62q-7 -7 -15 -7z" />
    <glyph glyph-name="quotesinglbase" unicode="&#x201a;" horiz-adv-x="223" 
d="M71 -90q-10 0 -10 10v174q0 10 10 10h81q10 0 10 -10v-94q0 -13 -8 -21l-68 -62q-7 -7 -15 -7z" />
    <glyph glyph-name="quotedblleft" unicode="&#x201c;" horiz-adv-x="396" 
d="M152 488h-81q-10 0 -10 10v94q0 13 8 21l69 62q6 7 14 7q10 0 10 -10v-174q0 -10 -10 -10zM325 488h-81q-10 0 -10 10v94q0 13 8 21l68 62q7 7 15 7q10 0 10 -10v-174q0 -10 -10 -10z" />
    <glyph glyph-name="quotedblright" unicode="&#x201d;" horiz-adv-x="396" 
d="M71 486q-10 0 -10 10v174q0 10 10 10h81q10 0 10 -10v-94q0 -13 -8 -21l-68 -62q-7 -7 -15 -7zM244 486q-10 0 -10 10v174q0 10 10 10h81q10 0 10 -10v-94q0 -13 -8 -21l-69 -62q-6 -7 -14 -7z" />
    <glyph glyph-name="quotedblbase" unicode="&#x201e;" horiz-adv-x="396" 
d="M71 -90q-10 0 -10 10v174q0 10 10 10h81q10 0 10 -10v-94q0 -13 -8 -21l-68 -62q-7 -7 -15 -7zM244 -90q-10 0 -10 10v174q0 10 10 10h81q10 0 10 -10v-94q0 -13 -8 -21l-69 -62q-6 -7 -14 -7z" />
    <glyph glyph-name="dagger" unicode="&#x2020;" horiz-adv-x="535" 
d="M311 -180h-87q-10 0 -10 10v520q0 6 -6 6h-144q-10 0 -10 10v75q0 10 10 10h144q6 0 6 6v213q0 10 10 10h87q10 0 10 -10v-213q0 -6 6 -6h144q10 0 10 -10v-75q0 -10 -10 -10h-144q-6 0 -6 -6v-520q0 -10 -10 -10z" />
    <glyph glyph-name="daggerdbl" unicode="&#x2021;" horiz-adv-x="535" 
d="M311 -180h-87q-10 0 -10 10v183q0 6 -6 6h-144q-10 0 -10 10v75q0 10 10 10h144q6 0 6 6v260q0 6 -6 6h-144q-10 0 -10 10v75q0 10 10 10h144q6 0 6 6v183q0 10 10 10h87q10 0 10 -10v-183q0 -6 6 -6h144q10 0 10 -10v-75q0 -10 -10 -10h-144q-6 0 -6 -6v-260q0 -6 6 -6
h144q10 0 10 -10v-75q0 -10 -10 -10h-144q-6 0 -6 -6v-183q0 -10 -10 -10z" />
    <glyph glyph-name="bullet" unicode="&#x2022;" horiz-adv-x="458" 
d="M229 169q-61 0 -100 38.5t-39 100.5t39 100.5t100 38.5t100 -38.5t39 -100.5t-39 -100.5t-100 -38.5z" />
    <glyph glyph-name="ellipsis" unicode="&#x2026;" horiz-adv-x="759" 
d="M176 0h-100q-10 0 -10 10v102q0 10 10 10h100q10 0 10 -10v-102q0 -10 -10 -10zM429 0h-100q-10 0 -10 10v102q0 10 10 10h100q10 0 10 -10v-102q0 -10 -10 -10zM682 0h-100q-10 0 -10 10v102q0 10 10 10h100q10 0 10 -10v-102q0 -10 -10 -10z" />
    <glyph glyph-name="LTRE" unicode="&#x202a;" horiz-adv-x="500" 
 />
    <glyph glyph-name="RTLE" unicode="&#x202b;" horiz-adv-x="500" 
 />
    <glyph glyph-name="POP" unicode="&#x202c;" horiz-adv-x="500" 
 />
    <glyph glyph-name="LTRO" unicode="&#x202d;" horiz-adv-x="500" 
 />
    <glyph glyph-name="RTLO" unicode="&#x202e;" horiz-adv-x="500" 
 />
    <glyph glyph-name="perthousand" unicode="&#x2030;" horiz-adv-x="1089" 
d="M590 63q32 0 43 29q4 12 4 78q0 68 -4 79q-10 28 -43 28q-34 0 -44 -28q-4 -11 -4 -79q0 -66 4 -78q11 -29 44 -29zM897 63q33 0 44 29q4 12 4 78q0 68 -4 79q-10 28 -44 28q-33 0 -43 -28q-4 -11 -4 -79q0 -66 4 -78q11 -29 43 -29zM590 -9q-45 0 -78 22t-45 58
q-8 34 -8 99t8 99q12 36 45 58t78 22q44 0 76.5 -21.5t45.5 -58.5q8 -23 8 -99q0 -77 -8 -99q-14 -37 -46 -58.5t-76 -21.5zM897 -9q-44 0 -76 21.5t-46 58.5q-8 22 -8 99q0 76 8 99q13 37 45.5 58.5t76.5 21.5q45 0 77.5 -22t44.5 -58q8 -23 8 -99q0 -77 -8 -99
q-13 -37 -45.5 -58.5t-76.5 -21.5zM192 402q32 0 43 29q4 12 4 78q0 68 -4 79q-10 28 -43 28q-34 0 -44 -28q-4 -11 -4 -79q0 -66 4 -78q11 -29 44 -29zM192 330q-44 0 -76 21.5t-46 58.5q-8 22 -8 99q0 76 8 99q13 37 45.5 58.5t76.5 21.5t76.5 -21.5t45.5 -58.5
q8 -23 8 -99q0 -77 -8 -99q-14 -37 -46 -58.5t-76 -21.5zM222 -11h-66q-11 0 -5 10l395 682q6 10 16 10h65q11 0 5 -10l-395 -682q-6 -10 -15 -10z" />
    <glyph glyph-name="guilsinglleft" unicode="&#x2039;" horiz-adv-x="315" 
d="M239 52l-204 205q-7 7 0 14l204 205q3 3 6.5 2t3.5 -6v-96q0 -11 -10 -21l-87 -87q-4 -4 0 -8l87 -87q10 -10 10 -21v-96q0 -5 -3.5 -6t-6.5 2z" />
    </font>
</defs>
</svg>
