<?xml version="1.0" encoding="UTF-8"?>
<svg id="Layer_1" data-name="Layer 1" xmlns="http://www.w3.org/2000/svg" viewBox="0 0 841.89 595.28">
  <defs>
    <style>
      .cls-1 {
        fill: #fdfdfe;
      }

      .cls-1, .cls-2, .cls-3, .cls-4, .cls-5, .cls-6, .cls-7, .cls-8, .cls-9, .cls-10, .cls-11, .cls-12, .cls-13 {
        stroke-width: 0px;
      }

      .cls-2 {
        fill: #fcfcfb;
      }

      .cls-3 {
        fill: #0202fc;
      }

      .cls-4 {
        fill: #373cb6;
      }

      .cls-5 {
        fill: #fef401;
      }

      .cls-6 {
        fill: #0b09f3;
      }

      .cls-7 {
        fill: #f8f009;
      }

      .cls-8 {
        fill: #fdfdfc;
      }

      .cls-9 {
        fill: #0303fa;
      }

      .cls-10 {
        fill: #fbfafa;
      }

      .cls-11 {
        fill: #0807f6;
      }

      .cls-12 {
        fill: #0504f9;
      }

      .cls-13 {
        fill: #0605f8;
      }
    </style>
  </defs>
  <path class="cls-4" d="m499.6,142.55c-4.32.28-8.64,0-12.95.09-1.69.03-3.4.17-5.09-.08,0-.12.03-.23.09-.34h17.87c.07.1.1.21.09.33Z"/>
  <path class="cls-5" d="m426.86,136.9c6.04-.05,17.94.46,29.81,1.39,35.02,2.75,69.29,9.23,102.54,20.73,20.4,7.05,39.99,15.85,58.44,27.11,15.81,9.64,30.39,20.82,43.04,34.4,11.01,11.81,20.05,24.93,26.12,39.97,5.85,14.5,8.29,29.55,7,45.13-1.2,14.53-5.62,28.11-12.59,40.89-7.92,14.53-18.43,26.99-30.63,38.08-15.95,14.49-33.92,25.99-53.16,35.58-23.48,11.7-48.14,20.12-73.61,26.25-13.29,3.2-26.73,5.69-40.27,7.56-10.39,1.43-20.82,2.47-31.29,3.17-15.93,1.06-31.87,1.35-47.82.77-9.92-.36-19.81-1.04-29.69-2.01-11.71-1.15-23.35-2.76-34.92-4.89-17.9-3.29-35.53-7.68-52.82-13.43-20.62-6.85-40.46-15.42-59.21-26.44-15.71-9.23-30.29-19.95-43.13-32.92-11.51-11.63-21.14-24.59-27.87-39.57-6.41-14.24-9.57-29.16-8.96-44.79.57-14.5,4.33-28.2,10.77-41.19,7.36-14.84,17.47-27.6,29.38-39.01,14.95-14.32,31.93-25.79,50.17-35.45,24.08-12.75,49.53-21.89,75.92-28.51,13.74-3.44,27.64-6.12,41.66-8.15,21.64-3.13,43.4-4.59,71.13-4.66Zm74.27,224.52l.1.09c.12.11.25.21.37.32,5.36,3.93,11.29,5.72,17.92,4.7,13.89-2.13,18.73-13.87,17.07-23.5.04-2.19-.18-4.36-.61-6.5,3.1,3.76,6.29,7.44,9.26,11.29,2.9,3.75,7.68,4.15,11.09,3.09,3.28-1.02,5.36-3.29,6.6-6.39.37-.92.73-1.23,1.83-1.01,2.76.54,5.48.36,7.93-1.26.71-.2,1.29-.57,1.64-1.24l.04-.04c.39-.13.56-.44.66-.8l.21-.39c.9-.97,1.22-2.18,1.46-3.43.2-.26.23-.56.16-.87.89-2.76.54-5.55.07-8.37.77.24.99.9,1.35,1.39,1.61,2.15,3.21,4.32,4.77,6.51.51.71,1,.87,1.75.42,1.39-.83,3.47-1.02,4.15-2.35.62-1.22.06-3.04,0-4.59-.01-.34-.14-.68-.21-1.02-.36-1.5-1.63-2.46-2.24-3.81,1-.33,2.03-.58,2.99-1,.94-.42,1.44-.07,1.88.7.28.49.62.94.92,1.41,1,1.61,1.99,3.23,2.97,4.86.44.73.91.9,1.72.48,1.37-.71,2.8-1.29,4.2-1.93.92-.22.64-.97.66-1.55.03-1.38,0-2.75,0-4.13.14-.05.28-.09.42-.14.92,1.2,1.84,2.41,2.77,3.6.25.32.52.79,1.01.54,1-.52,2.03-1.04,2.92-1.71.63-.48.06-1.35.29-2.01.2-.99-.37-2.1.45-2.99,3.46,2.95,7.14,3.26,11.08.99.97-.56,2-1.02,3.02-1.49.62-.29,1.01-.7,1.02-1.44.03-1.61.41-3.2.1-4.82-.78-2.01-2.51-3.35-3.67-5.09-.33-.5-.83-.42-1.33-.27-1.22.35-2.47.62-3.68,1.02-2.42.8-4.29.04-5.77-1.92-.34-.45-.7-.89-1.01-1.36-2.39-3.5-4.76-7.02-7.17-10.52-.6-.87-.92-2.17-1.89-2.47-1.05-.33-2.09.62-3.12,1.03-.67.27-1.6.3-1.68,1.34-.27.82.18,1.61.07,2.42.07.15.14.31.22.46.15.28.18.58.1.89-.4.36-.15.73-.03,1.11.17.54.2,1.08-.35,1.45-1.42-1.45-2.44-3.2-3.68-4.78-.3-.38-.58-.83-.99-1.04-.67-.34-3.2.97-3.81,1.86-.36,1.92.55,3.75.37,5.66-.67-.52-1.32-1.05-2-1.55-4.52-3.33-9.95-3.11-14.15.57-1.15,1.01-2.02,2.16-2.09,3.75-.7,1.03-.79,2.21-.88,3.4-.15,2.01.44,3.9.85,5.83-2.17-2.32-3.97-4.93-5.88-7.45-2.98-3.94-3.02-3.96-7.3-1.38-.17.1-.32.26-.42.43-.05.09.03.26.05.39-.32,1.61.11,3.21.11,4.81,0,1.91.73,3.45,1.95,4.93,3.66,4.46,7.19,9.03,10.77,13.55-2.2.92-3.54.69-5.14-.9-.3-.3-.55-.65-.81-.98-3.78-4.94-7.55-9.88-11.35-14.81-.95-1.22-1.6-3.11-2.95-3.47-1.46-.39-2.94,1.07-4.4,1.73-.66.3-1.58.32-1.77,1.29-.25,2.18.08,4.35.15,6.52.03.96.35,1.73.95,2.48,3.91,4.89,7.79,9.8,11.67,14.71-2.38.57-4.29-.23-5.87-2-.56-.63-1.1-1.29-1.6-1.96-2.46-3.27-4.9-6.54-7.34-9.82-1.52-2.03-3.06-4.05-4.53-6.11-.5-.71-.96-.88-1.75-.46-1.67.88-3.49,1.47-5.08,2.52.03,2.69.06,5.37.09,8.06-5.53-3.61-11.56-5.23-18.16-4.58-6.85.67-15.45,4.71-17.72,14.11-.07.23-.14.45-.21.68-.02.18-.04.37-.07.55-.47.54-.45,1.09-.03,1.65,0,.31-.02.63-.02.94-1.1,1.21-.95,2.45-.11,3.72.21.43.22.88.13,1.34-.26,1.27-.04,2.55.65,3.82.24.25.29.54.24.87-.52.98.28,1.69.51,2.51.12.44.59.86,0,1.29-2.57-3.37-4.77-6.99-7.16-10.49-2.11-3.09-4.15-6.23-6.24-9.34-.89-1.31-.92-1.31-2.38-.64-1.54.71-3.06,1.44-4.59,2.18-.42.2-.98.32-.91.99-.55,2.15-.17,4.36-.46,6.51-.37,2.69.25,5,2.09,6.99-1.65.79-3.29,1.6-4.94,2.36-1.66.77-1.68.76-2.62-.74-2.06-3.28-4.13-6.55-6.14-9.85-.53-.88-1.03-1.17-2.03-.68-1.77.87-3.59,1.61-5.4,2.4-.45.2-.96.32-.92.98-.38.64-.3,1.37-.34,2.07-.14,2.33-.2,4.67-.41,6.99-.11,1.26.16,2.32.83,3.4,6.25,10.1,12.47,20.23,18.7,30.35.28.45.42,1.06,1.12,1.22,1.21-.93,2.37-2.02,3.7-2.79,2.35-1.37,3.52-3.23,3.45-6-.06-2.32.75-4.6.49-6.95.17-.55-.21-.91-.46-1.32-.98-1.59-1.97-3.17-2.96-4.76,1.52-.74,3.04-1.49,4.57-2.21,2.55-1.19,1.89-1.41,3.56.97,2.68,3.82,5.31,7.66,7.97,11.49.96,1.38.98,1.38,2.48.55,1.73-.96,3.44-1.94,5.18-2.88.61-.33.93-.71.85-1.49-.33-3.23-.6-6.47-.89-9.7-.54-1.53-1.9-2.57-2.46-4.09.62-.07,1.1.38,1.68.45h.12s0,.14,0,.14c.11.67.49,1.06,1.17,1.13h.12s.01.11.01.11c.11.1.22.21.33.31Zm-153.03,39.99s-.02-.05-.02-.05c-.04,1.23.32,2.37.84,3.47.58,2.4,1.16,4.8,1.76,7.2.08.34.24.67.41.97,1.26,2.21,2.55,4.41,3.79,6.63.42.76.82.93,1.68.57,2.67-1.12,5.39-2.13,8.09-3.17,1.58-.6,1.6-.6,2.45.86,2.16,3.74,4.28,7.49,6.44,11.23.74,1.29.77,1.3,2.07.67,3.75-1.82,7.48-3.69,11.26-5.45,1.07-.5,1.61-1.2,1.96-2.28.72-2.19,1.33-4.43,2.38-6.66,3.11,2.96,6.77,3.54,10.73,3.02,2.27-.3,4.4-1,6.47-1.94,4.26-1.93,8.25-4.36,12.35-6.57.72-.39.98-.86.99-1.66.02-3.4.1-6.79.17-10.19,0-.44-.05-.84-.29-1.21.02-.07.08-.15.06-.2-1.42-3.17-3.58-5.89-5.39-8.83-.2-.33-.54-.44-.92-.26-.45.2-.9.41-1.35.62-3.29,1.47-6.57,2.99-9.89,4.38-2.5,1.05-4.72.51-6.46-1.64-.4-.49-.78-1-1.15-1.53-1.58-2.28-2.76-4.77-4.01-7.23-2.85-5.62-5.72-11.22-8.52-16.86-.5-1.01-.99-1.18-1.96-.67-1.94,1.03-3.94,1.92-5.88,2.96-1.04.56-2.28.8-3.06,1.81-1.42,1.38-1.95,3.37-3.31,4.78-1.07.5-.9,1.25-.45,2.08,1.06,1.97,1.9,4.05,3.11,5.94.37.58.81,1.17.48,1.94-.85-.37-1.05-1.27-1.51-1.93-2.92-4.17-6.72-7.07-11.8-7.94-3.58-.61-7.19-.27-10.74.53-6.66,1.51-12.51,4.71-18.07,8.57-2.79,1.94-5.07,4.25-6.52,7.34-1.75,1.71-2.43,3.96-2.99,6.21-1.37,5.53-1.09,11.07.18,16.6.8,3.5,2.53,6.58,4.15,9.71,4,7.72,8,15.44,12,23.15.78,1.5.8,1.49,2.33.71,3.46-1.77,6.87-3.65,10.4-5.27,1.94-.89,3.14-2.01,2.92-4.26-.03-.27.1-.56.13-.84.34-3.72,1.11-7.4,1.22-11.14,0-.82-.51-1.45-.86-2.13-3.93-7.63-7.88-15.26-11.82-22.89,2.05-1.53,4.27-2.74,6.7-3.51,2.63-.84,5.3-1.37,8.04-.43-2.72.99-5.43,1.99-8.15,2.98-.49.18-.98.31-.71,1.01.02.29.04.58.27.81Zm51.5-68.88h0c1.72-2.27,2.33-4.89,2.34-7.68.01-.27.02-.55.03-.82,0-.15,0-.31.01-.46,0-.28,0-.55,0-.83.22-2.35-.29-4.58-1.18-6.72-.85-2.04-2.13-3.74-4.16-4.77-2.5-2.1-5.13-4.02-7.9-5.74-1.21-.75-2.46-1.4-3.79-1.91-6.82-2.65-12.4-.88-16.38,5.23-.54.82-.94,1.74-1.32,2.65-.51,1.24-.92,2.53-1.42,3.78-.55,1.39-.58,1.42-1.98.73-2.03-1-4-2.15-6.07-3.05-5.45-2.37-10.71-.98-14.41,3.68-.27.34-.39.9-1.12.92-.02-.36-.04-.63-.04-.89,0-6.23,0-12.47,0-18.7,0-1.68.02-1.7,1.78-1.74,5.24-.12,10.49-.2,15.73-.32,12.26-.28,24.52-.57,36.78-.85,1.82-.04,1.84-.02,2.13,1.76.57,3.5,1.47,6.92,2.66,10.26,2.89,8.13,7.1,15.44,13.61,21.24,5.3,4.73,11.4,7.69,18.65,7.56,7.06-.13,13.23-2.79,18.7-7.16,4.84-3.87,8.4-8.78,11.33-14.19,2.98-5.5,5.13-11.34,7.05-17.27.59-1.81.2-1.68,2.33-1.66,20.2.17,40.41-.07,60.61-.29,9.43-.1,18.86-.12,28.29-.1,3.79,0,6.9-1.28,9.35-4.19.56-.67,1.07-1.47,1.96-1.77,2.2,2.66,4.17,3.67,7.61,3.72,4.25.06,8.51,0,12.76-.01.49,0,.99-.04,1.48-.12,2.67-.43,3.65-1.44,4.03-4.14.34-2.39.33-4.8.33-7.21,0-20.97,0-41.94,0-62.92,0-2.91,0-5.81.5-8.69.33-1.88.69-3.76,1.07-5.63.37-1.83-.26-3.22-1.82-4.16-1.03-.62-2.09-1.2-3.19-1.67-11.31-4.87-22.61-9.75-33.95-14.56-2.47-1.05-4.92-2.2-7.57-2.75-2-.42-2.46-.19-3.45,1.56-1.57,2.77-2.86,3.32-5.94,2.54-2.21-.55-4.34-1.4-6.31-2.47-3.17-1.73-5.64-1.15-8.18,1.32-4.21,4.1-8.67,7.95-12.99,11.94-1.04.96-2.07,1.95-2.95,3.05-1.63,2.01-1.63,3.46-.13,5.58,1.56,2.2,3.25,4.29,5.04,6.3,2.07,2.33,4.08,4.71,6.11,7.08,1.58,1.84,2.45,3.95,2.5,6.39.17,6.87.25,13.74-.08,20.61-.03.56-.1,1.14-.27,1.67-.27.86-.78.96-1.36.24-.95-1.16-1.54-2.54-2.22-3.86-5.42-10.42-13.57-17.83-24.47-22.21-6.88-2.76-14.11-4.14-21.4-5.22-5.89-.87-11.82-1.39-17.74-2.01-1.9-.2-3.81-.36-5.73-.28-1.34.06-2.32.55-2.65,1.97-.06.27-.2.53-.29.8-.33.96-.93,1.32-1.96,1.05-3.1-.8-6.28-1.11-9.45-1.37-4.81-.39-9.62-.41-14.41.48-8.2,1.51-14.55,5.99-19.87,12.19-4.12,4.8-7.54,10.09-10.93,15.41-.51.8-.88,1.74-1.94,2.38-.31-1.03-.21-1.93-.21-2.81,0-8.29.03-16.58.03-24.87,0-1.34-.03-2.69-.15-4.03-.14-1.52-.89-2.66-2.41-3.19-.93-.33-1.85-.7-2.77-1.06-5.87-2.28-11.77-4.49-17.6-6.85-3.27-1.33-6.06-.97-8.88,1.27-4.71,3.75-9.62,7.24-14.42,10.88-3.73,2.82-4.43,5.19-1.42,9.14,1.49,1.96,2.08,4.16,2.08,6.55,0,6.52,0,13.04-.03,19.55-.01,2.06-.32,4.1-.89,6.08-.28.95-.65,1.88-1.29,2.66-1.03,1.23-2.2,1.23-3.21,0-.73-.9-1.08-1.99-1.36-3.09-.71-2.77-.8-5.6-.8-8.44,0-21.61,0-43.22,0-64.83,0-2.55-.06-5.1-.1-7.65-.06-3.31-1.62-5.57-4.6-7.03-6.87-3.35-13.77-6.66-20.51-10.25-4.4-2.34-8.21-2.01-12.25.84-5.9,4.16-12.04,7.98-18.08,11.95-.71.47-1.42.94-2.06,1.5-1.18,1.03-1.38,1.76-.76,3.19.44,1.04,1.02,2.02,1.6,2.99,1.22,2.07,2.5,4.11,3.73,6.19,1.8,3.04,2.83,6.32,2.88,9.88.03,1.77.11,3.54.11,5.31,0,38.47,0,76.95,0,115.42,0,1.77-.08,3.54-.21,5.31-.11,1.56-.44,3.09-1.11,4.51-1.35,2.87-3.6,3.47-6.24,1.67-1.38-.94-2.38-2.22-3.17-3.66-1.98-3.61-2.93-7.51-3.11-11.59-.7-16.2,2.57-31.67,8.75-46.57.47-1.14.47-1.8-.48-2.71-9.67-9.27-19.28-18.6-28.91-27.9-1.33-1.29-1.35-1.29-2.98-.22-4.52,2.95-8.1,6.85-11.15,11.26-4.47,6.47-7.61,13.57-9.87,21.07-4.84,16.06-5.88,32.41-3.47,48.97,2.62,18,9.57,34.14,21.14,48.21,7.77,9.45,17.06,16.96,28.57,21.46,8.98,3.51,18.23,4.67,27.73,2.71,11.53-2.38,20.16-8.98,26.44-18.78,5.21-8.14,7.97-17.15,9.35-26.64.23-1.58.43-3.16.64-4.7.51-.03.69.19.89.39,4.2,4.03,8.88,7.49,13.41,11.12,1.73,1.39,3.72,2.33,5.94,2.67,4.15.63,7.48-.98,10.3-3.88,2.46-2.53,4.08-5.58,5.37-8.84.28-.71.36-1.51.89-2.1,9.21,3.39,15.45,2.3,20.02-3.47.49-.28.8-.7.87-1.27Zm20.63,41.81c-.43,1.2-.38,2.43-.22,3.66-.53,3.3.12,6.45,1.26,9.53.48,1.31.47,1.35,1.77.86,3.9-1.46,7.78-2.95,11.67-4.43,6.13-2.33,12.26-4.65,18.39-7,.67-.26,1.63-.26,1.6-1.38-.09-3.17.22-6.34-.15-9.51.03-1.73-.8-3.26-1.19-4.89-.32-1.3-.45-1.31-1.8-.77-1.51.6-3,1.25-4.5,1.88-8.39,3.56-16.79,7.1-25.17,10.69-.65.28-1.63.27-1.66,1.36Zm221.48-79.23c10.75.04,19.82-8.95,19.85-19.69.04-10.87-8.81-19.81-19.63-19.84-10.94-.02-19.86,8.73-19.92,19.55-.06,11.03,8.71,19.93,19.7,19.97Z"/>
  <path class="cls-9" d="m398.72,333.8c-4.57,5.77-10.81,6.86-20.02,3.47-.53.59-.61,1.39-.89,2.1-1.28,3.26-2.9,6.31-5.37,8.84-2.82,2.9-6.15,4.5-10.3,3.88-2.23-.34-4.22-1.28-5.94-2.67-4.53-3.64-9.21-7.09-13.41-11.12-.2-.19-.38-.42-.89-.39-.21,1.54-.41,3.12-.64,4.7-1.39,9.49-4.14,18.5-9.35,26.64-6.28,9.8-14.91,16.39-26.44,18.78-9.5,1.96-18.75.8-27.73-2.71-11.51-4.5-20.8-12.01-28.57-21.46-11.57-14.07-18.52-30.21-21.14-48.21-2.41-16.57-1.37-32.92,3.47-48.97,2.26-7.5,5.4-14.6,9.87-21.07,3.05-4.41,6.62-8.3,11.15-11.26,1.63-1.07,1.65-1.07,2.98.22,9.63,9.31,19.25,18.64,28.91,27.9.95.91.95,1.57.48,2.71-6.18,14.9-9.45,30.37-8.75,46.57.18,4.08,1.13,7.98,3.11,11.59.79,1.44,1.79,2.72,3.17,3.66,2.63,1.8,4.89,1.19,6.24-1.67.67-1.43,1.01-2.95,1.11-4.51.12-1.77.2-3.54.21-5.31.01-38.47,0-76.95,0-115.42,0-1.77-.09-3.54-.11-5.31-.05-3.56-1.08-6.83-2.88-9.88-1.23-2.07-2.5-4.11-3.73-6.19-.57-.97-1.15-1.96-1.6-2.99-.62-1.43-.42-2.16.76-3.19.64-.56,1.35-1.03,2.06-1.5,6.03-3.97,12.17-7.8,18.08-11.95,4.05-2.85,7.85-3.19,12.25-.84,6.75,3.59,13.64,6.9,20.51,10.25,2.98,1.46,4.55,3.72,4.6,7.03.04,2.55.1,5.1.1,7.65,0,21.61,0,43.22,0,64.83,0,2.84.08,5.67.8,8.44.28,1.1.63,2.19,1.36,3.09,1.01,1.24,2.18,1.24,3.21,0,.64-.77,1.01-1.7,1.29-2.66.58-1.98.88-4.02.89-6.08.04-6.52.04-13.04.03-19.55,0-2.39-.59-4.59-2.08-6.55-3.01-3.95-2.31-6.32,1.42-9.14,4.8-3.63,9.71-7.13,14.42-10.88,2.82-2.24,5.61-2.59,8.88-1.27,5.84,2.36,11.73,4.58,17.6,6.85.92.36,1.84.74,2.77,1.06,1.52.53,2.27,1.67,2.41,3.19.12,1.34.15,2.69.15,4.03,0,8.29-.03,16.58-.03,24.87,0,.88-.1,1.78.21,2.81,1.05-.64,1.43-1.58,1.94-2.38,3.39-5.32,6.81-10.61,10.93-15.41,5.32-6.19,11.68-10.67,19.87-12.19,4.78-.88,9.6-.87,14.41-.48,3.17.26,6.35.57,9.45,1.37,1.03.27,1.64-.09,1.96-1.05.09-.27.23-.52.29-.8.33-1.41,1.31-1.91,2.65-1.97,1.92-.09,3.83.08,5.73.28,5.92.62,11.85,1.14,17.74,2.01,7.29,1.08,14.52,2.46,21.4,5.22,10.91,4.38,19.05,11.79,24.47,22.21.69,1.32,1.28,2.7,2.22,3.86.58.71,1.08.62,1.36-.24.17-.53.24-1.11.27-1.67.33-6.87.24-13.74.08-20.61-.06-2.44-.93-4.55-2.5-6.39-2.03-2.36-4.04-4.75-6.11-7.08-1.79-2.01-3.48-4.11-5.04-6.3-1.51-2.12-1.5-3.57.13-5.58.89-1.1,1.91-2.09,2.95-3.05,4.33-3.98,8.78-7.84,12.99-11.94,2.54-2.47,5.01-3.05,8.18-1.32,1.97,1.08,4.1,1.92,6.31,2.47,3.08.77,4.37.23,5.94-2.54.99-1.74,1.44-1.97,3.45-1.56,2.65.56,5.1,1.71,7.57,2.75,11.33,4.81,22.64,9.68,33.95,14.56,1.1.47,2.17,1.05,3.19,1.67,1.56.94,2.19,2.33,1.82,4.16-.38,1.87-.74,3.75-1.07,5.63-.5,2.87-.5,5.78-.5,8.69,0,20.97,0,41.94,0,62.92,0,2.41,0,4.82-.33,7.21-.38,2.7-1.36,3.7-4.03,4.14-.49.08-.99.12-1.48.12-4.25.02-8.51.07-12.76.01-3.44-.05-5.41-1.06-7.61-3.72-.89.3-1.4,1.11-1.96,1.77-2.46,2.91-5.57,4.2-9.35,4.19-9.43-.02-18.86,0-28.29.1-20.2.22-40.41.46-60.61.29-2.13-.02-1.75-.15-2.33,1.66-1.92,5.93-4.07,11.77-7.05,17.27-2.93,5.4-6.49,10.32-11.33,14.19-5.46,4.37-11.64,7.03-18.7,7.16-7.24.13-13.35-2.83-18.65-7.56-6.51-5.81-10.72-13.11-13.61-21.24-1.19-3.34-2.08-6.76-2.66-10.26-.29-1.78-.31-1.8-2.13-1.76-12.26.28-24.52.57-36.78.85-5.24.12-10.49.2-15.73.32-1.76.04-1.78.07-1.78,1.74-.01,6.23,0,12.47,0,18.7,0,.26.02.53.04.89.73-.02.86-.59,1.12-.92,3.7-4.66,8.96-6.05,14.41-3.68,2.07.9,4.03,2.06,6.07,3.05,1.39.68,1.43.66,1.98-.73.49-1.25.9-2.53,1.42-3.78.38-.91.79-1.83,1.32-2.65,3.98-6.11,9.57-7.88,16.38-5.23,1.32.51,2.58,1.16,3.79,1.91,2.77,1.72,5.4,3.64,7.9,5.74.26.59.11.89-.57.82-4.94-2.92-9.82-.77-12.08,3.14-2.71,4.69-2.67,9.48.35,14,3.6,5.4,10.69,5.3,14.36-.07,1.06-1.54,1.57-3.3,2.06-5.06.81-.55.21-1.57.69-2.27.2.35.37.64.53.93,0,.28,0,.55,0,.83-.31.14-.32.3-.01.46-.01.27-.02.55-.03.82-.13.16-.36.3-.38.47-.26,2.51-1.1,4.87-1.96,7.22h0c-.57.23-.89.63-.87,1.27Zm126.69-73.16c-.42-1.42-.79-2.86-1.27-4.26-4.27-12.53-11.98-22.05-24.27-27.48-5.46-2.41-11.22-3.41-17.19-3.22-.75.02-1.59-.13-1.57,1.12.04,4.32.02,8.64,0,12.96,0,.69.22,1.05.95,1.07.99.03,1.98.16,2.97.2,8.69.29,15.62,4.12,21.22,10.57,2.43,2.8,4.35,5.95,5.32,9.58.53,1.97-.11,2.93-2.12,3.34-1.75.35-3.53.34-5.3.34-11.2.03-22.4.05-33.6.08-3.39,0-3.33,0-3.73-3.43-.92-7.92-2.78-15.6-6.09-22.88-1.79-3.95-4.01-7.65-7.08-10.77-6.52-6.62-15.56-7.46-23.19-2.15-2.05,1.43-3.81,3.16-5.36,5.11-4.49,5.63-7.25,12.13-9.36,18.92-3.59,11.51-5.05,23.35-5.41,35.36-.07,2.29-.06,2.28,2.3,2.23,10.49-.22,20.98-.45,31.46-.65,3.86-.07,3.91-.03,3.09,3.86-1.14,5.39-3.22,10.4-6.38,14.93-1.47,2.11-3.22,3.97-5.52,5.2-3.32,1.78-7.23.94-9.06-1.94-1.2-1.89-1.69-4.71.58-6.54,1.82-1.48,1.95-3.5,2.08-5.56.05-.84-.39-1.11-1.17-1.1-3.33.02-6.66-.02-9.99.03-1.43.02-1.85.62-1.69,2.04.12,1.01.47,1.96,1.03,2.76,1.75,2.48,2.59,5.31,3.43,8.17,1.43,4.88,4.05,9.03,8.08,12.19,5.59,4.38,11.92,4.49,17.63.3.85-.63,1.65-1.34,2.4-2.09,4.58-4.59,7.6-10.19,10.26-16.01,2.21-4.83,4.04-9.81,5.5-14.93.46-1.61.49-1.61,2.16-1.66.64-.02,1.28-.02,1.91-.03,20.13-.16,40.26-.33,60.39-.49,11.77-.1,23.53-.2,35.3-.3,1.86-.02,1.86-.04,1.88-1.83,0-.28,0-.57,0-.85,0-26.42,0-52.85,0-79.27,0-.69.16-1.41-.16-2.07-.39-.13-.72.04-1.03.18-4.65,2.08-9.3,4.17-13.94,6.27-.58.26-1.14.58-1.65.96-1.19.89-1.34,1.65-.47,2.89.57.81,1.28,1.51,1.92,2.27.78.92,1.6,1.82,1.64,3.12-.02.42-.05.85-.05,1.27,0,13.52.01,27.03.01,40.55,0,2.11-.01,2.13-2.08,2.13-7.44,0-14.87,0-22.31,0-.85,0-1.71.05-2.45-.47Zm-244.58,8.8c-1.38.6-2.4,1.57-3.39,2.55-5.78,5.68-9.57,12.61-12.31,20.13-5.16,14.17-6.63,28.78-4.62,43.7,1.4,10.39,5.28,19.79,12.17,27.82,5.51,6.42,12.1,11.31,20.31,13.71,9.68,2.82,18.51,1.13,26.27-5.41,3.95-3.33,6.94-7.45,9.26-12.05,3.32-6.59,5-13.66,5.97-20.92.93-6.97,1.11-13.97,1.15-20.99.05-9.14,0-18.28.02-27.42,0-2.65-.32-2.37,2.38-2.37,15.74,0,31.47,0,47.21,0,2.74,0,2.48.28,2.48-2.52,0-21.89,0-43.78,0-65.67,0-.68.15-1.38-.19-2.08-.71.06-1.19.51-1.72.82-4.28,2.5-8.52,5.07-12.84,7.51-1.44.81-2.05,1.72-2.04,3.46.09,13.6.05,27.2.05,40.8,0,.5-.02.99,0,1.49.04.74-.32,1.02-1.02.99-.5-.02-.99,0-1.49,0-9.99,0-19.99.01-29.98,0-3.25,0-2.83.5-2.83-2.76-.01-31.31,0-62.62-.01-93.93,0-.73.14-1.5-.2-2.42-1.31.76-2.47,1.42-3.62,2.09-5.45,3.16-10.91,6.31-16.36,9.47-1.35.78-2.71,1.56-3.69,2.82-.94,1.22-.9,2.07.13,3.21.24.26.49.53.78.71,2.05,1.3,2.78,3.33,3.03,5.58.18,1.69.29,3.39.29,5.09.01,38.96.01,77.92,0,116.89,0,3.33-.16,6.66-.72,9.95-.74,4.36-1.91,8.57-4.54,12.23-2.77,3.86-6.5,6.04-11.29,6.24-2.88.12-5.63-.56-8.24-1.76-6.28-2.89-10.61-7.66-13.32-13.96-2.99-6.94-4.09-14.26-4.27-21.74-.32-13.4,2.15-26.33,6.65-38.92.25-.7.77-1.36.54-2.3Zm297.52-68.31c0,1.09,0,1.86,0,2.63.21,14.3.42,28.61.62,42.91.16,11.83.3,23.65.46,35.48.02,1.85.04,1.87,1.84,1.87,3.83,0,7.65.01,11.48,0,1.79,0,1.82-.02,1.8-1.67-.24-20.25-.49-40.51-.74-60.76-.05-4.25-.13-8.5-.19-12.75-.01-.71.03-1.38-.84-1.73-4.71-1.93-9.4-3.89-14.42-5.98Zm-204.93,133.35c.1-2.87-.9-5.94-2.63-8.1-3.51-4.38-9.32-4.58-13.1-.45-4.08,4.45-3.91,12.58.35,16.88,3.57,3.6,9.04,3.45,12.41-.35,2.01-2.27,2.88-4.98,2.98-7.98Zm106.36-79.29c3.04,0,6.09.03,9.13,0,2.19-.03,2.74-.69,2.56-2.88-.31-3.71-2.12-5.64-5.8-6.18-.63-.09-1.27-.19-1.9-.19-4.39-.03-8.78.01-13.17-.06-1.22-.02-1.41.5-1.38,1.53.05,2.12.07,4.25,0,6.37-.04,1.1.3,1.47,1.43,1.45,3.04-.07,6.09-.02,9.13-.03Z"/>
  <path class="cls-8" d="m341.95,400.56c3.94,7.63,7.89,15.25,11.82,22.89.35.68.85,1.31.86,2.13-4.69,2.25-9.37,4.51-14,6.73-.24-.25-.38-.33-.44-.45-4.84-9.59-9.71-19.17-14.49-28.8-1.94-3.91-2.63-8.04-1.41-12.36,1.45-3.09,3.73-5.41,6.52-7.34,5.56-3.86,11.41-7.05,18.07-8.57,3.55-.81,7.15-1.15,10.74-.53,5.08.87,8.88,3.77,11.8,7.94.47.66.66,1.57,1.51,1.93,0,0,.01,0,.01,0-.07.28.11.46.26.65.17.86.75,1.5,1.2,2.2,1.55,2.42,2.84,5.01,4.71,7.21v-.05c.14.3.28.6.42.9,3,5.03,6.01,10.06,8.98,15.03-.18.46-.53.56-.86.7-3.49,1.56-6.97,3.14-10.46,4.69-1.32.59-1.35.57-2.09-.73-1.99-3.51-3.94-7.04-5.95-10.54-1.5-2.63-.97-2.23-3.48-1.32-3.92,1.42-7.82,2.93-11.74,4.34-2.45.89-1.99,1.08-3.28-1.34-.43-.81-.88-1.61-1.32-2.42-.26-.8-.5-1.61-1.25-2.12,0,0,.02.05.02.05-.09-.27-.18-.54-.27-.81-.27-.7.22-.83.71-1.01,2.72-.99,5.43-1.98,8.15-2.98,2.23-.77,4.49-1.44,6.69-2.52-1.18-2.04-2.19-3.9-3.31-5.7-2.54-4.09-5.53-5.25-10.28-4.11-2.49.6-4.75,1.77-7.03,2.87-2.37,1.14-3.42,3.04-3.3,5.64.13,2.82,1.15,5.35,2.49,7.78Z"/>
  <path class="cls-12" d="m349.33,403.47c.44.81.89,1.61,1.32,2.42,1.29,2.42.83,2.22,3.28,1.34,3.93-1.42,7.82-2.92,11.74-4.34,2.51-.91,1.98-1.3,3.48,1.32,2,3.5,3.96,7.03,5.95,10.54.74,1.3.77,1.32,2.09.73,3.49-1.55,6.97-3.13,10.46-4.69.32-.14.67-.24.86-.7-2.97-4.98-5.98-10.01-8.98-15.03-.01-.36-.18-.64-.42-.9,0,0,0,.05,0,.05-.1-.26-.18-.53-.32-.78-1.85-3.38-3.59-6.82-5.49-10.18-1.3-2.3-2.36-4.77-3.63-7.1-.43-.79-.02-1.32.11-1.97,1.36-1.42,1.89-3.41,3.31-4.78,1.57,3,3.15,6,4.71,9.01,3.61,6.95,7.24,13.9,10.81,20.88,2.31,4.51,6,6.55,11,6.46,3.4-.06,6.54-1.05,9.54-2.55,4.17-2.08,8.3-4.23,12.45-6.35.24.37.3.77.29,1.21-.07,3.4-.14,6.79-.17,10.19,0,.8-.27,1.27-.99,1.66-4.11,2.21-8.1,4.64-12.35,6.57-2.07.94-4.21,1.65-6.47,1.94-3.96.52-7.62-.06-10.73-3.02-1.05,2.23-1.65,4.47-2.38,6.66-.36,1.07-.89,1.78-1.96,2.28-3.78,1.75-7.51,3.63-11.26,5.45-1.3.63-1.33.62-2.07-.67-2.15-3.74-4.28-7.49-6.44-11.23-.84-1.46-.87-1.46-2.45-.86-2.71,1.04-5.42,2.05-8.09,3.17-.86.36-1.26.19-1.68-.57-1.24-2.22-2.53-4.42-3.79-6.63-.17-.3-.32-.64-.41-.97-.6-2.4-1.17-4.8-1.76-7.2.2-.43-.07-1,.41-1.35Z"/>
  <path class="cls-2" d="m535.99,336.53c.43,2.15.65,4.31.61,6.5-.15.45-.33.9-.44,1.36-1.08,4.61-3.85,7.97-7.79,10.41-4.62,2.86-9.69,3.74-15.06,3.29-10.41-.86-17.79-6.88-20.59-16.89-.05-.33-.1-.66-.15-.99,0-.31.02-.63.02-.94.13-.55.15-1.1.03-1.65.02-.18.04-.37.07-.55.27-.16.35-.39.21-.68,2.27-9.4,10.87-13.44,17.72-14.11,6.61-.65,12.64.97,18.16,4.58,3.13,2.68,5.66,5.81,7.21,9.66Zm-33.28,7.08c2.74,4.92,9.99,8.2,17.06,6.47,3.07-.75,5.61-2.27,7.19-5.13,1.85-3.24,1.39-6.4-.48-9.42-1.79-2.88-4.45-4.73-7.63-5.78-4.89-1.63-9.65-1.47-13.96,1.66-4.07,2.95-4.91,8.03-2.19,12.21Z"/>
  <path class="cls-10" d="m542.09,312.93c.2-.96,1.11-.99,1.77-1.29,1.46-.66,2.94-2.12,4.4-1.73,1.35.36,2,2.25,2.95,3.47,3.8,4.92,7.57,9.87,11.35,14.81.26.34.51.68.81.98,1.6,1.59,2.94,1.82,5.14.9.92-.5,1.17-1.36,1.25-2.31.16-1.79-.45-3.32-1.54-4.71-1.66-2.11-3.3-4.24-4.94-6.37-2.54-3.3-5.07-6.61-7.61-9.91-.02-.13-.1-.3-.05-.39.1-.17.26-.33.42-.43,4.27-2.58,4.31-2.56,7.3,1.38,1.91,2.52,3.71,5.13,5.88,7.45,1.12,2.15,2.75,3.93,4.18,5.85,1.96,2.65,3.58,5.41,3.16,8.91-.43,1.35-.93,2.66-1.95,3.72-2.49,2.58-5.54,3.54-9.06,3.17-.83-.09-1.76-.55-2.45-.3-.75.27-.73,1.43-1.11,2.18-3.35,6.67-11.98,7.71-16.74,1.98-1.67-2.01-3.31-4.05-4.9-6.13-3.91-5.1-7.78-10.23-11.66-15.35,1.59-1.05,3.41-1.64,5.08-2.52.79-.42,1.25-.24,1.75.46,1.47,2.06,3.01,4.08,4.53,6.11,2.44,3.28,4.89,6.55,7.34,9.82.51.67,1.04,1.33,1.6,1.96,1.57,1.77,3.49,2.57,5.87,2,1.34-.52,1.66-1.64,1.62-2.9-.04-1.6-.65-3.01-1.63-4.26-1.3-1.66-2.6-3.33-3.89-5-2.96-3.85-5.92-7.7-8.87-11.55Z"/>
  <path class="cls-2" d="m452.3,344.44c-.04-.65.47-.78.92-.98,1.8-.79,3.63-1.53,5.4-2.4,1-.49,1.5-.2,2.03.68,2.01,3.31,4.08,6.58,6.14,9.85.94,1.5.96,1.51,2.62.74,1.66-.77,3.3-1.57,4.94-2.36,1.58-.44,2.95-1.35,4.46-1.92,1.01-.38.83-.9.36-1.61-2.17-3.31-4.31-6.64-6.46-9.97-.07-.67.49-.78.91-.99,1.52-.74,3.05-1.48,4.59-2.18,1.46-.67,1.49-.67,2.38.64,2.09,3.1,4.13,6.25,6.24,9.34,2.39,3.49,4.58,7.12,7.16,10.49,1.06,1.96,2.3,3.79,3.69,5.52.55,1.52,1.91,2.56,2.46,4.09-1.95.65-3.73,1.69-5.59,2.54-2.19,1-1.77,1.05-3.09-.93-2.39-3.59-4.75-7.21-7.13-10.81-.98-1.48-.99-1.48-2.65-.71-3.08,1.43-6.15,2.87-9.22,4.33-.43.2-.98.28-1.22,1,1.69,2.56,3.43,5.22,5.18,7.87.99,1.59,1.98,3.17,2.96,4.76.25.4.63.77.46,1.32-2.05,1.25-4.1,2.51-6.16,3.76-1.38.84-1.4.84-2.22-.51-2.42-3.99-4.82-7.99-7.25-11.98-3.97-6.53-7.95-13.04-11.92-19.56Z"/>
  <path class="cls-8" d="m421.62,396.85c-4.15,2.12-8.28,4.27-12.45,6.35-3,1.5-6.14,2.49-9.54,2.55-5.01.09-8.69-1.96-11-6.46-3.58-6.97-7.2-13.92-10.81-20.88-1.56-3.01-3.14-6-4.71-9.01.78-1.01,2.02-1.25,3.06-1.81,1.93-1.03,3.94-1.93,5.88-2.96.97-.51,1.46-.34,1.96.67,2.8,5.64,5.67,11.25,8.52,16.86,1.25,2.46,2.43,4.96,4.01,7.23.36.52.74,1.03,1.15,1.53,1.74,2.15,3.96,2.68,6.46,1.64,3.33-1.39,6.6-2.92,9.89-4.38.45-.2.9-.41,1.35-.62.38-.17.72-.06.92.26,1.8,2.94,3.97,5.66,5.39,8.83.02.05-.04.13-.06.2Z"/>
  <path class="cls-13" d="m324.29,390.7c-1.22,4.31-.53,8.44,1.41,12.36,4.78,9.62,9.65,19.2,14.49,28.8.06.12.19.2.44.45,4.63-2.22,9.31-4.48,14-6.73-.11,3.75-.88,7.42-1.22,11.14-.03.28-.15.56-.13.84.22,2.25-.98,3.37-2.92,4.26-3.53,1.62-6.94,3.5-10.4,5.27-1.53.78-1.55.78-2.33-.71-4.01-7.71-8.01-15.43-12-23.15-1.62-3.13-3.35-6.22-4.15-9.71-1.27-5.53-1.55-11.06-.18-16.6.56-2.25,1.24-4.5,2.99-6.21Z"/>
  <path class="cls-6" d="m641.71,295.1c-10.99-.04-19.76-8.94-19.7-19.97.06-10.82,8.98-19.58,19.92-19.55,10.82.02,19.67,8.97,19.63,19.84-.04,10.74-9.1,19.73-19.85,19.69Zm-.05-4.3c8.41.08,15.47-6.82,15.59-15.25.12-8.43-6.74-15.5-15.18-15.66-8.51-.16-15.55,6.75-15.66,15.37-.11,8.46,6.75,15.46,15.24,15.54Z"/>
  <path class="cls-10" d="m569.27,305.55c.07-1.6.94-2.75,2.09-3.75,4.2-3.68,9.63-3.9,14.15-.57.68.5,1.34,1.03,2,1.55,4.74,6.28,9.48,12.56,14.18,18.79-.28.75-1.07.59-1.37,1.08v.02c-.47,0-.87.12-1.18.49-.21.04-.42.05-.62.12-1.63.62-1.64.63-2.66-.8-1.4-1.96-2.82-3.91-4.16-5.91-.53-.79-1.07-.98-1.94-.65-.99.37-2.05.56-3.04.95-.76.3-1.17.09-1.58-.54-.76-1.19-1.58-2.34-2.38-3.51,0,0-.04-.11-.04-.11.49-.87,1.48-.65,2.2-1.02.78-.4,1.8-.25,2.47-1.06-1.12-1.62-2.13-3.24-3.46-4.62-1.88-1.94-3.95-2.25-6.35-1.03-1.37.7-1.61,1.19-1.19,2.73.55,2.01,1.68,3.71,2.9,5.37,1.23,1.91,2.44,3.82,3.93,5.54,1.09,1.67,2.18,3.34,3.27,5,.61,1.35,1.88,2.31,2.25,3.81-1.32.67-2.67,1.3-3.96,2.01-.83.46-1.31.39-1.88-.47-3.79-5.79-7.67-11.52-11.46-17.31-1.21-1.84-2.07-3.85-2.19-6.1Z"/>
  <path class="cls-11" d="m528.69,318.81c3.88,5.12,7.75,10.25,11.66,15.35,1.59,2.08,3.23,4.12,4.9,6.13,4.76,5.73,13.39,4.69,16.74-1.98.38-.75.36-1.91,1.11-2.18.69-.25,1.62.21,2.45.3,3.51.37,6.56-.59,9.06-3.17,1.02-1.05,1.52-2.36,1.95-3.72.68,1.51.45,3.06.17,4.6-.09.48-.3.92.15,1.32.08.31.04.61-.16.87-.91.97-1.38,2.12-1.46,3.43-.07.13-.14.26-.21.39-.47.06-.65.36-.66.8,0,0-.04.04-.04.04-.96-.14-1.33.52-1.64,1.24-2.45,1.62-5.17,1.8-7.93,1.26-1.1-.22-1.46.09-1.83,1.01-1.24,3.1-3.32,5.37-6.6,6.39-3.41,1.06-8.2.66-11.09-3.09-2.97-3.85-6.16-7.54-9.26-11.29-1.56-3.85-4.09-6.98-7.21-9.66-.03-2.69-.06-5.37-.09-8.06Z"/>
  <path class="cls-11" d="m492.72,341.21c2.81,10.01,10.18,16.03,20.59,16.89,5.37.44,10.44-.43,15.06-3.29,3.94-2.44,6.71-5.8,7.79-10.41.11-.46.29-.91.44-1.36,1.65,9.63-3.19,21.37-17.07,23.5-6.63,1.02-12.57-.77-17.92-4.7-.03-.22-.15-.33-.37-.32,0,0-.1-.09-.1-.09,0-.21-.11-.32-.33-.31v-.12s-.13,0-.13,0c-.28-.49-.67-.87-1.17-1.13v-.12s-.13-.01-.13-.01c-2.52-2.92-4.66-6.08-5.89-9.78.05-.33,0-.63-.24-.87-.04-1.3-.37-2.56-.65-3.82.09-.46.08-.91-.13-1.34.09-.91.17-1.82.26-2.73Z"/>
  <path class="cls-13" d="m454.54,366.07c.37,3.16.06,6.34.15,9.51.03,1.11-.93,1.12-1.6,1.38-6.12,2.35-12.26,4.67-18.39,7-3.89,1.48-7.78,2.97-11.67,4.43-1.29.49-1.28.45-1.77-.86-1.14-3.08-1.79-6.23-1.26-9.53.49-.28.23-1.04.81-1.27.52.92.43,2.07,1.18,3.05,1.93-.81,3.87-1.63,5.81-2.45,8.91-3.75,17.82-7.51,26.73-11.26Z"/>
  <path class="cls-11" d="m452.3,344.44c3.97,6.52,7.95,13.04,11.92,19.56,2.42,3.99,4.83,7.99,7.25,11.98.82,1.35.84,1.34,2.22.51,2.05-1.25,4.1-2.5,6.16-3.76.26,2.35-.55,4.63-.49,6.95.07,2.76-1.1,4.63-3.45,6-1.33.78-2.49,1.86-3.7,2.79-.69-.16-.84-.77-1.12-1.22-6.23-10.12-12.45-20.25-18.7-30.35-.67-1.08-.94-2.13-.83-3.4.2-2.32.27-4.66.41-6.99.04-.7-.04-1.42.34-2.07Z"/>
  <path class="cls-13" d="m476.43,366.65c-1.75-2.65-3.49-5.31-5.18-7.87.24-.72.79-.79,1.22-1,3.07-1.46,6.14-2.9,9.22-4.33,1.66-.77,1.68-.77,2.65.71,2.38,3.6,4.73,7.22,7.13,10.81,1.32,1.98.9,1.93,3.09.93,1.86-.85,3.64-1.89,5.59-2.54.29,3.23.56,6.47.89,9.7.08.78-.24,1.16-.85,1.49-1.74.94-3.45,1.93-5.18,2.88-1.5.83-1.52.83-2.48-.55-2.66-3.83-5.29-7.67-7.97-11.49-1.67-2.39-1.01-2.16-3.56-.97-1.53.72-3.05,1.47-4.57,2.21Z"/>
  <path class="cls-12" d="m341.95,400.56c-1.34-2.43-2.36-4.96-2.49-7.78-.12-2.6.93-4.5,3.3-5.64,2.29-1.1,4.54-2.27,7.03-2.87,4.75-1.14,7.74.02,10.28,4.11,1.12,1.8,2.13,3.66,3.31,5.7-2.19,1.08-4.46,1.75-6.69,2.52-2.74-.94-5.41-.4-8.04.43-2.43.77-4.65,1.99-6.7,3.51Z"/>
  <path class="cls-10" d="m454.54,366.07c-8.91,3.75-17.82,7.51-26.73,11.26-1.94.82-3.89,1.64-5.81,2.45-.75-.98-.66-2.13-1.18-3.05.09-.87-.47-1.57-.59-2.39.03-1.08,1.01-1.08,1.66-1.36,8.38-3.58,16.78-7.13,25.17-10.69,1.5-.63,2.99-1.28,4.5-1.88,1.35-.54,1.48-.53,1.8.77.4,1.63,1.22,3.16,1.19,4.89Z"/>
  <path class="cls-10" d="m595.63,294.73c.08-1.03,1.01-1.07,1.68-1.34,1.03-.41,2.06-1.36,3.12-1.03.96.3,1.29,1.61,1.89,2.47,2.41,3.49,4.78,7.01,7.17,10.52.32.47.67.91,1.01,1.36,1.48,1.96,3.35,2.72,5.77,1.92,1.21-.4,2.45-.66,3.68-1.02.51-.15,1-.23,1.33.27,1.16,1.74,2.89,3.08,3.67,5.09-1.85.69-3.69,1.41-5.55,2.06-6.13,2.17-10.04.12-12.72-4.32-.36-.6-.79-1.17-1.19-1.75-3.01-4.35-6.02-8.7-9.03-13.05-.11-.51-.46-.86-.83-1.18Z"/>
  <path class="cls-6" d="m596.46,295.92c3.01,4.35,6.02,8.7,9.03,13.05.4.58.83,1.14,1.19,1.75,2.68,4.45,6.59,6.5,12.72,4.32,1.86-.66,3.7-1.37,5.55-2.06.31,1.61-.07,3.21-.1,4.82-.01.73-.4,1.14-1.02,1.44-1.02.48-2.05.94-3.02,1.49-3.94,2.26-7.62,1.96-11.08-.99-.7-.87-1.08-2-2.14-2.58l.03.04c.1-.66-.42-1.01-.73-1.46-2.57-3.64-5.13-7.28-7.73-10.9-1.4-1.95-2.95-3.8-3.15-6.34.09-.31.05-.6-.1-.89.06-.09.1-.19.11-.3.21-.45-.03-1.04.44-1.41Z"/>
  <path class="cls-6" d="m576.88,335.46c-.45-.4-.23-.84-.15-1.32.28-1.54.52-3.09-.17-4.6.43-3.49-1.2-6.25-3.16-8.91-1.42-1.93-3.06-3.71-4.18-5.85-.41-1.92-1-3.81-.85-5.82.09-1.19.18-2.37.88-3.4.12,2.25.99,4.27,2.19,6.11,3.79,5.79,7.67,11.52,11.46,17.31.56.86,1.05.92,1.88.47,1.3-.71,2.64-1.34,3.96-2.01.07.34.2.68.21,1.02.07,1.55.62,3.37,0,4.59-.67,1.33-2.76,1.52-4.15,2.35-.76.45-1.25.3-1.75-.42-1.56-2.19-3.16-4.35-4.77-6.51-.37-.49-.59-1.14-1.35-1.39.46,2.83.82,5.61-.07,8.37Z"/>
  <path class="cls-10" d="m587.14,297.12c.61-.9,3.14-2.2,3.81-1.86.4.2.69.66.99,1.04,1.25,1.58,2.27,3.33,3.68,4.78.11.51.46.87.75,1.27,2.35,3.19,4.67,6.41,7.07,9.57,1.36,1.79,2.47,3.79,4.18,5.3,0,0-.03-.04-.03-.04.06.85.99,1.26,1.07,2.11-.92.36-1.88.66-2.77,1.08-.85.41-1.46.33-1.96-.52-.25-.43-.58-.8-.88-1.2-5.3-7.17-10.61-14.34-15.91-21.51Z"/>
  <path class="cls-6" d="m587.14,297.12c5.3,7.17,10.61,14.34,15.91,21.51.29.4.63.77.88,1.2.49.85,1.1.93,1.96.52.89-.43,1.84-.73,2.77-1.08.21,1.15.42,2.31.63,3.46-.23.66.34,1.53-.29,2.01-.9.68-1.92,1.19-2.92,1.71-.49.26-.76-.21-1.01-.54-.93-1.2-1.85-2.4-2.77-3.6-.14.05-.28.09-.42.14,0,1.38.02,2.75,0,4.13-.01.58.26,1.33-.66,1.55,0-1.34-.01-2.68,0-4.02,0-.68-.08-1.28-.88-1.46.31-.5,1.09-.33,1.37-1.08-4.7-6.22-9.44-12.51-14.18-18.79.18-1.91-.73-3.74-.37-5.66Z"/>
  <path class="cls-11" d="m600.32,322.65c.81.18.89.77.88,1.46-.02,1.34,0,2.68,0,4.02-1.4.64-2.84,1.22-4.2,1.93-.81.42-1.29.25-1.72-.48-.97-1.63-1.97-3.24-2.97-4.86-.29-.48-.64-.93-.92-1.41-.44-.77-.95-1.11-1.88-.7-.96.42-1.99.68-2.99,1-1.09-1.67-2.18-3.34-3.27-5-.13-1.93-.66-3.84-.47-5.79.8,1.17,1.62,2.32,2.38,3.51.41.63.82.84,1.58.54.98-.39,2.04-.58,3.04-.95.87-.32,1.41-.14,1.94.65,1.34,2,2.76,3.95,4.16,5.91,1.02,1.43,1.02,1.42,2.66.8.19-.07.41-.08.62-.12.45-.01.94.06,1.17-.49v-.02Z"/>
  <path class="cls-6" d="m542.09,312.93c2.96,3.85,5.91,7.71,8.87,11.55,1.29,1.67,2.59,3.34,3.89,5,.99,1.25,1.59,2.66,1.63,4.26.03,1.27-.28,2.38-1.62,2.9-3.89-4.91-7.76-9.82-11.67-14.71-.6-.75-.92-1.53-.95-2.48-.07-2.17-.4-4.34-.15-6.52Z"/>
  <path class="cls-6" d="m555.68,306.77c2.54,3.3,5.07,6.61,7.61,9.91,1.64,2.13,3.28,4.26,4.94,6.37,1.09,1.39,1.7,2.92,1.54,4.71-.09.95-.34,1.81-1.25,2.31-3.58-4.53-7.11-9.09-10.77-13.55-1.22-1.49-1.95-3.02-1.95-4.93,0-1.6-.43-3.2-.11-4.81Z"/>
  <path class="cls-6" d="m472.73,336.47c2.15,3.32,4.29,6.65,6.46,9.97.46.71.64,1.23-.36,1.61-1.52.57-2.89,1.48-4.46,1.92-1.84-1.99-2.46-4.3-2.09-6.99.29-2.15-.08-4.37.46-6.51Z"/>
  <path class="cls-7" d="m607.62,317.2c-1.72-1.51-2.82-3.51-4.18-5.3-2.4-3.16-4.72-6.37-7.07-9.57-.29-.4-.64-.76-.75-1.27.56-.38.52-.91.35-1.45-.12-.38-.36-.75.03-1.11.21,2.53,1.76,4.39,3.15,6.34,2.6,3.62,5.16,7.26,7.73,10.9.31.44.83.8.73,1.46Z"/>
  <path class="cls-4" d="m401.97,322.73c-.17-.29-.33-.58-.53-.93-.48.7.12,1.72-.69,2.27.31-4.74-.86-8.89-4.69-12.01.68.07.84-.23.57-.82,2.03,1.03,3.32,2.73,4.16,4.77.89,2.14,1.4,4.37,1.18,6.72Z"/>
  <path class="cls-7" d="m369.78,374.18c-.13.65-.54,1.18-.11,1.97,1.27,2.34,2.33,4.81,3.63,7.1,1.9,3.36,3.64,6.8,5.49,10.18.13.24.21.52.32.78-1.87-2.21-3.16-4.8-4.71-7.21-.45-.7-1.02-1.35-1.2-2.2.42-.42.45-.69-.26-.65,0,0-.01,0-.01,0,.33-.77-.11-1.36-.48-1.94-1.21-1.89-2.05-3.97-3.11-5.94-.45-.83-.62-1.59.45-2.08Z"/>
  <path class="cls-7" d="m493.49,349.96c1.23,3.7,3.36,6.86,5.89,9.78-.58-.07-1.06-.52-1.68-.45-1.39-1.73-2.64-3.57-3.69-5.52.59-.43.12-.85,0-1.29-.23-.82-1.03-1.54-.51-2.51Z"/>
  <path class="cls-4" d="m399.59,332.53c.86-2.35,1.7-4.7,1.96-7.22.02-.17.25-.31.38-.47,0,2.8-.62,5.41-2.34,7.69Z"/>
  <path class="cls-7" d="m609.28,322.73c-.21-1.15-.42-2.31-.63-3.46-.07-.85-1.01-1.26-1.07-2.11,1.06.57,1.45,1.7,2.14,2.58-.82.9-.25,2-.45,2.99Z"/>
  <path class="cls-7" d="m492.72,341.21c-.09.91-.17,1.82-.26,2.73-.84-1.27-1-2.51.11-3.72.05.33.1.66.15.99Z"/>
  <path class="cls-4" d="m349.33,403.47c-.48.34-.21.92-.41,1.35-.53-1.1-.88-2.23-.84-3.47.75.51.99,1.32,1.25,2.12Z"/>
  <path class="cls-7" d="m492.59,345.27c.29,1.26.61,2.51.65,3.82-.69-1.26-.91-2.55-.65-3.82Z"/>
  <path class="cls-6" d="m575.27,339.76c.08-1.32.55-2.47,1.46-3.43-.24,1.25-.56,2.46-1.46,3.43Z"/>
  <path class="cls-4" d="m420.23,374.34c.12.82.68,1.52.59,2.39-.58.23-.32.99-.81,1.27-.16-1.23-.22-2.46.22-3.66Z"/>
  <path class="cls-4" d="m596.46,295.92c-.46.37-.22.96-.44,1.41-.11-.06-.22-.11-.33-.16.12-.81-.34-1.61-.07-2.42.37.33.72.67.83,1.18Z"/>
  <path class="cls-6" d="m572.71,342.24c.31-.72.68-1.38,1.64-1.24-.35.67-.93,1.04-1.64,1.24Z"/>
  <path class="cls-7" d="m499.5,359.87c.5.27.89.64,1.17,1.13-.68-.08-1.07-.46-1.17-1.13Z"/>
  <path class="cls-4" d="m398.72,333.8c-.01-.63.3-1.04.87-1.27-.07.57-.38.99-.87,1.27Z"/>
  <path class="cls-7" d="m492.62,337.63c.12.55.1,1.1-.03,1.65-.42-.56-.44-1.11.03-1.65Z"/>
  <path class="cls-6" d="m574.39,340.95c.01-.44.19-.74.66-.8-.1.37-.27.68-.66.8Z"/>
  <path class="cls-4" d="m347.83,400.6c.09.27.18.54.27.81-.23-.22-.25-.51-.27-.81Z"/>
  <path class="cls-7" d="m492.9,336.4c.14.29.06.52-.21.68.07-.23.14-.45.21-.68Z"/>
  <path class="cls-7" d="m501.23,361.51c.23-.02.35.1.37.32-.12-.11-.25-.21-.37-.32Z"/>
  <path class="cls-4" d="m401.96,324.02c-.3-.16-.3-.31.01-.46,0,.15,0,.31-.01.46Z"/>
  <path class="cls-7" d="m595.69,297.16c.11.05.22.11.33.16-.01.11-.05.21-.11.3-.07-.15-.14-.31-.22-.46Z"/>
  <path class="cls-7" d="m500.8,361.11c.22-.01.32.1.33.31-.11-.1-.22-.21-.33-.31Z"/>
  <path class="cls-1" d="m280.83,269.44c.23.93-.29,1.6-.54,2.3-4.5,12.58-6.97,25.52-6.65,38.92.18,7.48,1.28,14.8,4.27,21.74,2.72,6.3,7.04,11.07,13.32,13.96,2.61,1.2,5.36,1.88,8.24,1.76,4.79-.2,8.52-2.38,11.29-6.24,2.63-3.66,3.8-7.87,4.54-12.23.56-3.29.72-6.62.72-9.95.02-38.96.02-77.92,0-116.89,0-1.7-.1-3.4-.29-5.09-.24-2.25-.97-4.28-3.03-5.58-.29-.19-.55-.45-.78-.71-1.03-1.14-1.07-1.99-.13-3.21.98-1.26,2.34-2.04,3.69-2.82,5.45-3.16,10.91-6.32,16.36-9.47,1.15-.67,2.3-1.33,3.62-2.09.34.92.2,1.69.2,2.42,0,31.31,0,62.62.01,93.93,0,3.27-.41,2.76,2.83,2.76,9.99.02,19.99,0,29.98,0,.5,0,.99-.02,1.49,0,.7.03,1.06-.25,1.02-.99-.03-.49,0-.99,0-1.49,0-13.6.04-27.2-.05-40.8-.01-1.74.59-2.65,2.04-3.46,4.32-2.43,8.56-5,12.84-7.51.53-.31,1.01-.76,1.72-.82.35.7.19,1.4.19,2.08,0,21.89,0,43.78,0,65.67,0,2.81.25,2.52-2.48,2.52-15.74,0-31.47,0-47.21,0-2.69,0-2.37-.28-2.38,2.37-.01,9.14.03,18.28-.02,27.42-.04,7.01-.22,14.02-1.15,20.99-.97,7.27-2.66,14.33-5.97,20.92-2.32,4.6-5.31,8.72-9.26,12.05-7.76,6.54-16.59,8.23-26.27,5.41-8.21-2.4-14.8-7.29-20.31-13.71-6.89-8.03-10.77-17.43-12.17-27.82-2.01-14.92-.54-29.53,4.62-43.7,2.74-7.52,6.53-14.45,12.31-20.13.99-.98,2.01-1.95,3.39-2.55Z"/>
  <path class="cls-1" d="m552.29,217.15c-.04-1.31-.85-2.21-1.64-3.12-.64-.75-1.36-1.46-1.92-2.27-.86-1.23-.72-2,.47-2.89.51-.38,1.07-.7,1.65-.96,4.64-2.1,9.29-4.19,13.94-6.27.31-.14.64-.31,1.03-.18.32.66.16,1.38.16,2.07,0,26.42,0,52.85,0,79.27,0,.28,0,.57,0,.85-.02,1.79-.02,1.82-1.88,1.83-11.77.11-23.53.21-35.3.3-20.13.17-40.26.33-60.39.49-.64,0-1.28.01-1.91.03-1.67.05-1.69.05-2.16,1.66-1.46,5.11-3.29,10.09-5.5,14.93-2.66,5.82-5.68,11.42-10.26,16.01-.75.75-1.55,1.46-2.4,2.09-5.71,4.2-12.05,4.09-17.63-.3-4.04-3.17-6.66-7.32-8.08-12.19-.84-2.87-1.68-5.69-3.43-8.17-.57-.8-.92-1.76-1.03-2.76-.16-1.42.26-2.02,1.69-2.04,3.33-.05,6.66-.01,9.99-.03.77,0,1.22.26,1.17,1.1-.13,2.06-.26,4.09-2.08,5.56-2.27,1.84-1.78,4.65-.58,6.54,1.83,2.89,5.74,3.72,9.06,1.94,2.3-1.23,4.05-3.09,5.52-5.2,3.17-4.53,5.25-9.54,6.38-14.93.82-3.89.77-3.94-3.09-3.86-10.49.2-20.98.43-31.46.65-2.36.05-2.37.06-2.3-2.23.35-12.01,1.82-23.85,5.41-35.36,2.12-6.8,4.88-13.29,9.36-18.92,1.56-1.95,3.31-3.69,5.36-5.11,7.63-5.31,16.67-4.47,23.19,2.15,3.07,3.12,5.29,6.82,7.08,10.77,3.3,7.28,5.16,14.97,6.09,22.88.4,3.43.35,3.44,3.73,3.43,11.2-.02,22.4-.05,33.6-.08,1.77,0,3.55.01,5.3-.34,2.01-.41,2.65-1.36,2.12-3.34-.97-3.63-2.89-6.77-5.32-9.58-5.59-6.45-12.53-10.28-21.22-10.57-.99-.03-1.98-.16-2.97-.2-.74-.02-.96-.38-.95-1.07.02-4.32.03-8.64,0-12.96-.01-1.25.83-1.09,1.57-1.12,5.97-.19,11.73.81,17.19,3.22,12.29,5.43,20.01,14.95,24.27,27.48.48,1.4.85,2.84,1.27,4.26-.05,1.39,1.02.91,1.67.91,7.92.03,15.84.02,23.76.02,1.82,0,1.84-.02,1.84-1.86,0-13.36,0-26.72,0-40.08,0-.84.11-1.71-.38-2.47Zm-113.59,50.55c3.05,0,6.1-.03,9.14.01,1.02.01,1.54-.2,1.51-1.4-.06-3.05-.17-6.09-.59-9.11-.33-2.46-.9-4.87-2.07-7.1-1.6-3.03-4.11-4.65-7.53-4.67-3.36-.03-6.03,1.34-7.78,4.3-.77,1.29-1.28,2.67-1.66,4.12-1.07,4.15-1.17,8.4-1.23,12.65-.01.96.4,1.21,1.27,1.2,2.98-.03,5.95-.01,8.93,0Z"/>
  <path class="cls-1" d="m578.36,201.13c5.02,2.09,9.71,4.06,14.42,5.98.87.36.83,1.02.84,1.73.06,4.25.14,8.5.19,12.75.25,20.25.5,40.51.74,60.76.02,1.65,0,1.67-1.8,1.67-3.83,0-7.65,0-11.48,0-1.8,0-1.81-.02-1.84-1.87-.16-11.83-.3-23.65-.46-35.48-.2-14.3-.42-28.61-.62-42.91-.01-.77,0-1.54,0-2.63Z"/>
  <path class="cls-2" d="m396.06,312.07c3.83,3.12,5,7.27,4.69,12.01-.49,1.77-1,3.52-2.06,5.07-3.67,5.37-10.76,5.47-14.36.07-3.02-4.53-3.06-9.31-.35-14,2.25-3.91,7.14-6.06,12.08-3.14Z"/>
  <path class="cls-8" d="m373.43,334.47c-.1,2.99-.97,5.7-2.98,7.98-3.36,3.81-8.84,3.95-12.41.35-4.26-4.3-4.43-12.43-.35-16.88,3.78-4.13,9.6-3.93,13.1.45,1.73,2.16,2.73,5.23,2.63,8.1Z"/>
  <path class="cls-10" d="m479.79,255.19c-3.04,0-6.09-.04-9.13.02-1.12.02-1.46-.35-1.43-1.45.07-2.12.06-4.25,0-6.37-.03-1.03.17-1.55,1.38-1.53,4.39.07,8.78.04,13.17.06.63,0,1.27.1,1.9.19,3.68.54,5.48,2.47,5.8,6.18.18,2.19-.37,2.86-2.56,2.88-3.04.04-6.09,0-9.13,0Z"/>
  <path class="cls-4" d="m552.29,217.15c.49.77.38,1.64.38,2.47.01,13.36.01,26.72,0,40.08,0,1.84-.02,1.86-1.84,1.86-7.92,0-15.84.01-23.76-.02-.65,0-1.71.47-1.67-.91.75.52,1.6.47,2.45.47,7.44,0,14.87,0,22.31,0,2.07,0,2.08-.02,2.08-2.13,0-13.52-.01-27.03-.01-40.55,0-.42.03-.85.05-1.27Z"/>
  <path class="cls-5" d="m372.94,384.14c.71-.03.69.23.26.65-.15-.19-.33-.37-.26-.65Z"/>
  <path class="cls-7" d="m379.11,394.16c.24.25.41.54.42.9-.14-.3-.28-.6-.42-.9Z"/>
  <path class="cls-13" d="m502.71,343.6c-2.73-4.18-1.88-9.26,2.19-12.21,4.31-3.12,9.07-3.29,13.96-1.66,3.17,1.06,5.84,2.9,7.63,5.78,1.88,3.02,2.33,6.18.48,9.42-.4-.5-.78-1.01-1.2-1.49-5.92-6.72-18.18-6.85-23.05.15Z"/>
  <path class="cls-5" d="m502.71,343.6c4.87-7,17.13-6.87,23.05-.15.42.48.8.99,1.2,1.49-1.58,2.85-4.12,4.38-7.19,5.13-7.07,1.73-14.32-1.55-17.06-6.47Z"/>
  <path class="cls-7" d="m641.66,290.81c-8.49-.08-15.35-7.08-15.24-15.54.11-8.63,7.14-15.53,15.66-15.37,8.44.16,15.3,7.23,15.18,15.66-.12,8.43-7.18,15.33-15.59,15.25Zm4.51-14.99c2.69-1.84,3.58-4.18,2.74-6.95-.8-2.65-2.6-3.86-5.82-3.89-2.33-.02-4.67-.02-7,0-1.6,0-1.63.03-1.64,1.65-.01,5.58-.02,11.17,0,16.75,0,2.55-.49,2.32,2.62,2.35.81,0,1.14-.26,1.12-1.1-.05-1.55-.03-3.11,0-4.67.04-3.01-.35-2.59,2.58-2.6,2.76-.01,4,1.14,4.29,3.87.11,1.05.13,2.12.17,3.18.04.91.35,1.35,1.41,1.34,2.18,0,2.18.06,2.16-2.11,0-.49-.01-.99,0-1.48.1-2.51-.38-4.79-2.63-6.35Z"/>
  <path class="cls-11" d="m579.31,313.07c-1.22-1.65-2.35-3.36-2.9-5.37-.42-1.53-.18-2.03,1.19-2.73,2.4-1.22,4.47-.91,6.35,1.03,1.33,1.37,2.34,3,3.46,4.62-.66.8-1.69.65-2.47,1.06-.72.37-1.72.15-2.2,1.02-1.21-.54-2.33-.15-3.43.37Z"/>
  <path class="cls-7" d="m579.31,313.07c1.1-.52,2.21-.9,3.43-.37,0,0,.04.11.04.11-.19,1.96.34,3.86.47,5.79-1.49-1.72-2.71-3.63-3.93-5.54Z"/>
  <path class="cls-6" d="m600.31,322.67c-.23.54-.72.47-1.17.49.31-.36.71-.49,1.17-.49Z"/>
  <path class="cls-13" d="m438.7,267.7c-2.98,0-5.95-.02-8.93,0-.87,0-1.28-.24-1.27-1.2.06-4.25.16-8.5,1.23-12.65.37-1.45.89-2.83,1.66-4.12,1.75-2.95,4.42-4.33,7.78-4.3,3.42.03,5.93,1.65,7.53,4.67,1.17,2.22,1.74,4.64,2.07,7.1.41,3.02.53,6.06.59,9.11.02,1.2-.49,1.41-1.51,1.4-3.05-.04-6.1-.01-9.14-.02Z"/>
  <path class="cls-6" d="m646.17,275.82c2.25,1.56,2.72,3.84,2.63,6.35-.02.49-.01.99,0,1.48.02,2.17.02,2.1-2.16,2.11-1.05,0-1.37-.43-1.41-1.34-.04-1.06-.06-2.12-.17-3.18-.29-2.74-1.53-3.88-4.29-3.87-2.92.01-2.54-.41-2.58,2.6-.02,1.56-.04,3.11,0,4.67.02.84-.31,1.1-1.12,1.1-3.11-.03-2.61.2-2.62-2.35-.02-5.58-.01-11.17,0-16.75,0-1.63.03-1.65,1.64-1.65,2.33-.01,4.67-.02,7,0,3.23.03,5.02,1.24,5.82,3.89.84,2.78-.06,5.11-2.74,6.95Zm-7.92-4.67c0,.63.04,1.27-.01,1.9-.08.9.25,1.28,1.19,1.23,1.05-.05,2.12.03,3.17.02,1.78-.02,2.95-1.12,3.03-2.81.09-1.74-1.12-3.04-2.96-3.15-.56-.03-1.13-.01-1.69-.01q-2.74,0-2.74,2.83Z"/>
  <path class="cls-7" d="m638.24,271.15q0-2.83,2.74-2.83c.56,0,1.13-.02,1.69.01,1.84.11,3.04,1.41,2.96,3.15-.09,1.7-1.25,2.8-3.03,2.81-1.06.01-2.12-.07-3.17-.02-.94.05-1.27-.32-1.19-1.23.05-.63.01-1.27,0-1.9Z"/>
  <g>
    <g>
      <path class="cls-3" d="m722.01,296.79v2.13c-.87,1.34-.24,2.83-.43,4.25,0,1.37,0,2.75-.01,4.12.12,3-.46,5.93-.98,8.85-2.8,15.68-8.8,30.09-17.32,43.5-10.09,15.89-22.86,29.36-37.35,41.26-18.17,14.92-38.26,26.77-59.57,36.58-28.17,12.96-57.61,21.97-87.96,28.1-12.71,2.56-25.5,4.57-38.38,6.07-12.39,1.44-24.81,2.47-37.28,2.95-1.77.07-3.53.25-5.29.38-2.43,0-4.86.02-7.29.03-6.06-.12-12.13-.13-18.19,0-2.57-.02-5.14-.03-7.7-.05-.56-.06-1.12-.16-1.68-.19-9.63-.43-19.25-.99-28.85-1.88-14.54-1.36-28.99-3.34-43.34-5.99-21.06-3.89-41.74-9.21-61.97-16.24-26.33-9.15-51.42-20.86-74.57-36.48-16.3-11-31.15-23.64-43.73-38.81-11.33-13.65-20.22-28.68-25.49-45.71-2.54-8.21-4.26-16.58-4.6-25.2,0-4.67.02-9.35.03-14.02-.05-.14-.09-.28-.14-.41.4-3.3.69-6.62,1.24-9.9,2.69-16.08,8.77-30.84,17.47-44.56,10.05-15.83,22.76-29.26,37.18-41.14,16.6-13.67,34.84-24.76,54.17-34.1,27.74-13.4,56.83-22.81,86.89-29.34,13.36-2.91,26.83-5.19,40.39-6.89,10.41-1.3,20.84-2.35,31.31-2.95,5.38-.31,10.75-.58,16.13-.87,2.38,0,4.77,0,7.15,0,1.69.25,3.4.12,5.09.08,4.32-.09,8.64.19,12.95-.09,2.52,0,5.05,0,7.57,0,.21.03.42.08.63.09,17.15.57,34.23,1.98,51.23,4.31,15.16,2.07,30.19,4.86,45.07,8.43,23.52,5.65,46.43,13.12,68.52,23.01,22.33,9.99,43.37,22.13,62.39,37.62,14.87,12.12,27.99,25.85,38.23,42.15,10.02,15.93,16.6,33.09,18.21,51.97-.23,1.17.24,2.31.13,3.47-.27,1.83-.62,3.66.18,5.46Zm-295.15-159.89c-27.74.06-49.49,1.52-71.13,4.66-14.02,2.03-27.92,4.7-41.66,8.15-26.39,6.61-51.84,15.75-75.92,28.51-18.24,9.66-35.22,21.13-50.17,35.45-11.91,11.41-22.03,24.17-29.38,39.01-6.44,12.99-10.2,26.69-10.77,41.19-.61,15.63,2.55,30.55,8.96,44.79,6.74,14.98,16.37,27.94,27.87,39.57,12.84,12.98,27.42,23.7,43.13,32.92,18.75,11.01,38.59,19.59,59.21,26.44,17.29,5.75,34.92,10.14,52.82,13.43,11.57,2.13,23.21,3.74,34.92,4.89,9.88.97,19.77,1.65,29.69,2.01,15.95.58,31.89.29,47.82-.77,10.47-.7,20.9-1.74,31.29-3.17,13.54-1.87,26.97-4.36,40.27-7.56,25.47-6.13,50.13-14.55,73.61-26.25,19.24-9.59,37.21-21.08,53.16-35.58,12.2-11.09,22.7-23.55,30.63-38.08,6.97-12.78,11.39-26.36,12.59-40.89,1.29-15.59-1.14-30.63-7-45.13-6.07-15.04-15.11-28.16-26.12-39.97-12.65-13.57-27.23-24.76-43.04-34.4-18.45-11.25-38.04-20.06-58.44-27.11-33.25-11.49-67.52-17.98-102.54-20.73-11.87-.93-23.77-1.43-29.81-1.39Z"/>
      <path class="cls-6" d="m722.01,296.79c-.8-1.8-.45-3.63-.18-5.46.06.12.12.24.18.36v5.1Z"/>
      <path class="cls-4" d="m722.01,307.42c-.1-.18-.25-.23-.44-.13,0-1.38,0-2.75.01-4.12.14,0,.28,0,.43,0v4.25Z"/>
      <path class="cls-6" d="m722.01,303.17c-.14,0-.28,0-.43,0,.18-1.41-.45-2.9.43-4.25v4.25Z"/>
    </g>
    <path class="cls-3" d="m709.35,246.13s21.51,47.63,8.41,82"/>
  </g>
</svg>