<?xml version="1.0" encoding="utf-8"?>
<!-- Generator: Adobe Illustrator 24.1.2, SVG Export Plug-In . SVG Version: 6.00 Build 0)  -->
<svg version="1.1" id="Layer_1" xmlns="http://www.w3.org/2000/svg" xmlns:xlink="http://www.w3.org/1999/xlink" x="0px" y="0px"
	 viewBox="0 0 1169.9 601.5" style="enable-background:new 0 0 1169.9 601.5;" xml:space="preserve">
<style type="text/css">
	.st0{opacity:0.5;fill:#757575;}
	.st1{opacity:0.5;fill-rule:evenodd;clip-rule:evenodd;fill:#757575;}
	.st2{fill:#0E2141;}
	.st3{fill:#1E9DDE;}
	.st4{fill:#505256;}
	.st5{fill:#FDA917;}
	.st6{fill:#0E6827;}
	.st7{fill-rule:evenodd;clip-rule:evenodd;fill:#505256;}
	.st8{fill-rule:evenodd;clip-rule:evenodd;fill:#FFFFFF;}
</style>
<rect x="461.1" y="250.5" class="st0" width="1.4" height="50.9"/>
<rect id="Shape_1_copy_4" x="461.1" y="128.7" class="st0" width="1.4" height="50.9"/>
<rect id="Shape_1_copy_20" x="589.8" y="44" class="st0" width="1.4" height="85.3"/>
<rect id="Shape_1_copy_24" x="755" y="44" class="st0" width="1.4" height="85.3"/>
<rect id="Shape_1_copy_21" x="605.6" y="300.7" class="st0" width="1.4" height="48.2"/>
<rect id="Shape_1_copy_22" x="316.6" y="300.7" class="st0" width="1.4" height="48.2"/>
<rect id="Shape_1_copy_23" x="605.6" y="428.1" class="st0" width="1.4" height="90.2"/>
<rect id="Shape_1_copy_23-2" x="316.6" y="428.1" class="st0" width="1.4" height="90.2"/>
<rect id="Shape_1_copy_14" x="1030.2" y="256" class="st0" width="1.4" height="89.5"/>
<rect id="Shape_1_copy_16" x="1030.2" y="128" class="st0" width="1.4" height="71.6"/>
<rect id="Shape_1_copy_15" x="1030.2" y="428.7" class="st0" width="1.4" height="89.5"/>
<path id="Shape_1_copy" class="st1" d="M607,300.1v1.4H316.6v-1.4H607z"/>
<path id="Shape_1_copy_2" class="st1" d="M591.2,128v1.4H461.1V128H591.2z"/>
<path id="Shape_1_copy_5" class="st1" d="M807.3,128v1.4h-51.6V128H807.3z"/>
<path id="Shape_1_copy_6" class="st1" d="M1030.2,128v1.4h-51.6V128H1030.2z"/>
<rect x="443.9" y="1.4" class="st2" width="459.7" height="82.6"/>
<rect id="Rectangle_1_copy_21" x="324.1" y="173.4" class="st3" width="275.3" height="82.6"/>
<rect id="Rectangle_1_copy_19" x="468.7" y="345.5" class="st4" width="275.3" height="82.6"/>
<rect id="Rectangle_1_copy_23" x="179.6" y="345.5" class="st4" width="275.3" height="82.6"/>
<rect id="Rectangle_1_copy_13" x="893.3" y="517.5" class="st5" width="275.3" height="82.6"/>
<rect id="Rectangle_1_copy_12" x="893.3" y="345.5" class="st4" width="275.3" height="82.6"/>
<rect id="Rectangle_1_copy_24" x="893.3" y="173.4" class="st3" width="275.3" height="82.6"/>
<rect id="Rectangle_1_copy_24-2" x="179.6" y="517.5" class="st6" width="275.3" height="82.6"/>
<rect id="Rectangle_1_copy_24-3" x="468.7" y="517.5" class="st6" width="275.3" height="82.6"/>
<rect id="Rectangle_1_copy_22" x="1.1" y="84" class="st4" width="75.8" height="234.5"/>
<rect id="Rectangle_1_copy_25" x="1.1" y="366.1" class="st4" width="75.8" height="234"/>
<path id="Business_Activities_copy" class="st7" d="M822.9,128.1c0-0.1,0-0.1,0.1-0.1c0,0,0,0,0,0h3.1c1.6,0,2.4,0.8,2.4,2.2
	s-0.8,2.2-2.4,2.2h-3.1c-0.1,0-0.1,0-0.1-0.1c0,0,0,0,0,0V128.1z M823.1,126.4c-0.1,0-0.1,0-0.1-0.1c0,0,0,0,0,0v-3.9
	c0-0.1,0-0.1,0.1-0.1c0,0,0,0,0,0h3c1.5,0,2.3,0.8,2.3,2.1c0,1.2-0.8,2-2.3,2L823.1,126.4L823.1,126.4z M821.2,133.7
	c0,0.1,0,0.2,0.1,0.2c0,0,0,0,0.1,0h4.5c2.8,0,4.3-1.3,4.3-3.7c0.1-1.3-0.7-2.6-2-3v0c1.1-0.5,1.9-1.6,1.8-2.9c0-2.1-1.3-3.4-4-3.4
	h-4.6c-0.1,0-0.2,0-0.2,0.1c0,0,0,0,0,0.1V133.7L821.2,133.7z M839.4,133.9c0.1,0,0.2,0,0.2-0.1c0,0,0,0,0-0.1v-8.8
	c0-0.1,0-0.2-0.1-0.2c0,0,0,0-0.1,0h-1.2c-0.1,0-0.2,0-0.2,0.1c0,0,0,0,0,0.1v5.5c0.1,1.1-0.7,2.1-1.8,2.3c-0.1,0-0.2,0-0.3,0
	c-1.4,0-2-0.8-2-2.4v-5.4c0-0.1,0-0.2-0.1-0.2c0,0,0,0-0.1,0h-1.2c-0.1,0-0.2,0-0.2,0.1c0,0,0,0,0,0.1v5.8c0,2.1,1.2,3.5,3.2,3.5
	c1,0.1,2-0.4,2.5-1.3h0v0.9c0,0.1,0,0.2,0.1,0.2c0,0,0,0,0.1,0L839.4,133.9L839.4,133.9z M845.4,134.1c2.4,0,3.7-1.2,3.7-3
	c0-1.5-0.9-2.4-2.8-2.6l-1-0.1c-1.4-0.1-1.8-0.5-1.8-1.3s0.6-1.3,1.8-1.3c0.9,0,1.7,0.3,2.5,0.8c0.1,0.1,0.2,0.1,0.3,0c0,0,0,0,0,0
	l0.7-0.8c0.1-0.1,0.1-0.2,0-0.2c0,0,0,0,0,0c-0.9-0.7-2.1-1.1-3.3-1c-2.2,0-3.4,1-3.4,2.8c0,1.6,0.9,2.4,2.8,2.6l1,0.1
	c1.4,0.1,1.8,0.6,1.8,1.3c0,0.8-0.6,1.4-2,1.4c-1,0-2.1-0.4-2.8-1.1c0-0.1-0.1-0.1-0.2,0c0,0,0,0,0,0l-0.8,0.8c-0.1,0-0.1,0.1,0,0.2
	c0,0,0,0,0,0C842.6,133.6,844,134.1,845.4,134.1L845.4,134.1z M852.6,133.9c0.1,0,0.2,0,0.2-0.1c0,0,0,0,0-0.1v-8.8
	c0-0.1,0-0.2-0.1-0.2c0,0,0,0-0.1,0h-1.2c-0.1,0-0.2,0-0.2,0.1c0,0,0,0,0,0.1v8.8c0,0.1,0,0.2,0.1,0.2c0,0,0,0,0.1,0L852.6,133.9
	L852.6,133.9z M852.6,122.6c0.1,0,0.2,0,0.2-0.1c0,0,0,0,0-0.1V121c0-0.1,0-0.2-0.1-0.2c0,0,0,0-0.1,0h-1.3c-0.1,0-0.2,0-0.2,0.1
	c0,0,0,0,0,0.1v1.4c0,0.1,0,0.2,0.1,0.2c0,0,0,0,0.1,0L852.6,122.6L852.6,122.6z M862.7,133.9c0.1,0,0.2,0,0.2-0.1c0,0,0,0,0-0.1
	v-5.8c0-2.1-1.2-3.5-3.2-3.5c-1-0.1-2,0.4-2.6,1.3h0v-0.8c0-0.1,0-0.2-0.1-0.2c0,0,0,0-0.1,0h-1.2c-0.1,0-0.2,0-0.2,0.1
	c0,0,0,0,0,0.1v8.8c0,0.1,0,0.2,0.1,0.2c0,0,0,0,0.1,0h1.2c0.1,0,0.2,0,0.2-0.1c0,0,0,0,0-0.1v-5.5c-0.1-1.1,0.7-2.1,1.9-2.2
	c0.1,0,0.2,0,0.3,0c1.4,0,2.1,0.9,2.1,2.4v5.4c0,0.1,0,0.2,0.1,0.2c0,0,0,0,0.1,0L862.7,133.9L862.7,133.9z M866.6,128.5
	c-0.1,0-0.1,0-0.1-0.1c0,0,0,0,0,0c0-0.4,0-0.7,0.1-1c0.5-1.2,1.8-1.7,3-1.3c0.6,0.2,1.1,0.7,1.3,1.3c0.1,0.3,0.1,0.7,0.1,1
	c0,0.1,0,0.1-0.1,0.1c0,0,0,0,0,0H866.6L866.6,128.5z M868.9,134.1c1.4,0.1,2.7-0.5,3.6-1.6c0.1-0.1,0.1-0.2,0-0.2c0,0,0,0,0,0
	l-0.8-0.7c-0.1-0.1-0.2-0.1-0.3,0c0,0,0,0,0,0c-0.6,0.7-1.5,1.1-2.4,1c-1.1,0.1-2-0.6-2.3-1.6c-0.1-0.4-0.2-0.7-0.2-1.1
	c0-0.1,0-0.1,0.1-0.1c0,0,0,0,0,0h5.8c0.1,0,0.2,0,0.2-0.1c0,0,0,0,0-0.1c0-0.9,0-1.8-0.3-2.6c-0.8-2-3-3-5-2.2
	c-1,0.4-1.8,1.2-2.2,2.2c-0.2,0.8-0.3,1.5-0.3,2.3c0,0.8,0.1,1.6,0.3,2.3C865.7,133.2,867.2,134.2,868.9,134.1L868.9,134.1z
	 M878,134.1c2.4,0,3.7-1.2,3.7-3c0-1.5-0.9-2.4-2.8-2.6l-1-0.1c-1.4-0.1-1.8-0.5-1.8-1.3s0.6-1.3,1.8-1.3c0.9,0,1.7,0.3,2.5,0.8
	c0.1,0.1,0.2,0.1,0.3,0c0,0,0,0,0,0l0.7-0.8c0.1-0.1,0.1-0.2,0-0.2c0,0,0,0,0,0c-0.9-0.7-2.1-1.1-3.3-1c-2.2,0-3.4,1-3.4,2.8
	c0,1.6,0.9,2.4,2.8,2.6l1,0.1c1.4,0.1,1.8,0.6,1.8,1.3c0,0.8-0.6,1.4-2,1.4c-1,0-2.1-0.4-2.8-1.1c0-0.1-0.1-0.1-0.2,0c0,0,0,0,0,0
	l-0.8,0.8c-0.1,0-0.1,0.1,0,0.2c0,0,0,0,0,0C875.2,133.6,876.6,134.1,878,134.1L878,134.1z M886.9,134.1c2.4,0,3.7-1.2,3.7-3
	c0-1.5-0.9-2.4-2.8-2.6l-1-0.1c-1.4-0.1-1.8-0.5-1.8-1.3s0.6-1.3,1.8-1.3c0.9,0,1.7,0.3,2.5,0.8c0.1,0.1,0.2,0,0.3,0c0,0,0,0,0,0
	l0.7-0.8c0.1-0.1,0.1-0.2,0-0.2c0,0,0,0,0,0c-0.9-0.7-2.1-1.1-3.3-1c-2.2,0-3.4,1-3.4,2.8c0,1.6,0.9,2.4,2.8,2.6l1,0.1
	c1.4,0.1,1.8,0.6,1.8,1.3c0,0.8-0.6,1.4-2,1.4c-1,0-2.1-0.4-2.8-1.1c0-0.1-0.1-0.1-0.2,0c0,0,0,0,0,0l-0.8,0.8c-0.1,0-0.1,0.1,0,0.2
	c0,0,0,0,0,0C884.1,133.6,885.5,134.1,886.9,134.1L886.9,134.1z M899,129.2l2.1-6h0l2.1,6H899L899,129.2z M895.7,133.7
	c0,0.1,0,0.2,0.1,0.2h1.3c0.1,0,0.2-0.1,0.2-0.2l1-2.9h5.3l1,2.9c0,0.1,0.1,0.2,0.2,0.2h1.3c0.1,0,0.2-0.1,0.1-0.2l-4.5-12.7
	c0-0.1-0.1-0.2-0.2-0.2h-1.3c-0.1,0-0.2,0.1-0.2,0.2L895.7,133.7z M907.4,129.2c0,0.8,0.1,1.6,0.3,2.4c0.5,1.6,2,2.6,3.6,2.5
	c1.3,0.1,2.4-0.5,3.2-1.6c0.1-0.1,0-0.2-0.1-0.3l-0.8-0.7c-0.1-0.1-0.2-0.1-0.2,0c0,0,0,0,0,0c-0.4,0.7-1.2,1-2,1
	c-0.9,0.1-1.8-0.5-2.1-1.4c-0.2-0.6-0.2-1.3-0.2-1.9c0-0.6,0-1.3,0.2-1.9c0.3-0.9,1.1-1.5,2.1-1.4c0.8,0,1.5,0.3,2,1
	c0.1,0.1,0.2,0.1,0.2,0c0,0,0,0,0,0l0.8-0.7c0.1-0.1,0.1-0.2,0.1-0.3c-0.7-1-1.9-1.6-3.2-1.6c-1.6-0.1-3.2,0.9-3.6,2.5
	C907.5,127.7,907.4,128.5,907.4,129.2L907.4,129.2z M920,134c0.1,0,0.2,0,0.2-0.1c0,0,0,0,0-0.1v-1.1c0-0.1,0-0.2-0.1-0.2
	c0,0,0,0-0.1,0h-0.4c-0.8,0-1.2-0.3-1.2-1.2v-5.2c0-0.1,0-0.1,0.1-0.1c0,0,0,0,0,0h1.5c0.1,0,0.2,0,0.2-0.1c0,0,0,0,0-0.1v-0.9
	c0-0.1,0-0.2-0.1-0.2c0,0,0,0-0.1,0h-1.5c-0.1,0-0.1,0-0.1-0.1c0,0,0,0,0,0v-2.6c0-0.1,0-0.2-0.1-0.2c0,0,0,0-0.1,0H917
	c-0.1,0-0.2,0-0.2,0.1c0,0,0,0,0,0.1v2.6c0,0.1,0,0.1-0.1,0.1c0,0,0,0,0,0h-0.8c-0.1,0-0.2,0-0.2,0.1c0,0,0,0,0,0.1v0.9
	c0,0.1,0,0.2,0.1,0.2c0,0,0,0,0.1,0h0.8c0.1,0,0.1,0,0.1,0.1c0,0,0,0,0,0v5.3c0,1.8,0.7,2.6,2.5,2.6L920,134L920,134z M923.2,133.9
	c0.1,0,0.2,0,0.2-0.1c0,0,0,0,0-0.1v-8.8c0-0.1,0-0.2-0.1-0.2c0,0,0,0-0.1,0H922c-0.1,0-0.2,0-0.2,0.1c0,0,0,0,0,0.1v8.8
	c0,0.1,0,0.2,0.1,0.2c0,0,0,0,0.1,0L923.2,133.9L923.2,133.9z M923.3,122.6c0.1,0,0.2,0,0.2-0.1c0,0,0,0,0-0.1V121
	c0-0.1,0-0.2-0.1-0.2c0,0,0,0-0.1,0H922c-0.1,0-0.2,0-0.2,0.1c0,0,0,0,0,0.1v1.4c0,0.1,0,0.2,0.1,0.2c0,0,0,0,0.1,0L923.3,122.6
	L923.3,122.6z M929.7,133.9c0.1,0,0.2-0.1,0.2-0.2l3.3-8.8c0.1-0.1,0-0.2-0.2-0.2h-1.3c-0.1,0-0.2,0.1-0.2,0.2l-2.3,6.6h0l-2.4-6.6
	c0-0.1-0.1-0.2-0.3-0.2h-1.3c-0.2,0-0.2,0.1-0.2,0.2l3.3,8.8c0,0.1,0.1,0.2,0.2,0.2H929.7z M936.2,133.9c0.1,0,0.2,0,0.2-0.1
	c0,0,0,0,0-0.1v-8.8c0-0.1,0-0.2-0.1-0.2c0,0,0,0-0.1,0H935c-0.1,0-0.2,0-0.2,0.1c0,0,0,0,0,0.1v8.8c0,0.1,0,0.2,0.1,0.2
	c0,0,0,0,0.1,0L936.2,133.9L936.2,133.9z M936.2,122.6c0.1,0,0.2,0,0.2-0.1c0,0,0,0,0-0.1V121c0-0.1,0-0.2-0.1-0.2c0,0,0,0-0.1,0
	h-1.3c-0.1,0-0.2,0-0.2,0.1c0,0,0,0,0,0.1v1.4c0,0.1,0,0.2,0.1,0.2c0,0,0,0,0.1,0L936.2,122.6L936.2,122.6z M942.4,134
	c0.1,0,0.2,0,0.2-0.1c0,0,0,0,0-0.1v-1.1c0-0.1,0-0.2-0.1-0.2c0,0,0,0-0.1,0H942c-0.8,0-1.2-0.3-1.2-1.2v-5.2c0-0.1,0-0.1,0.1-0.1
	c0,0,0,0,0,0h1.5c0.1,0,0.2,0,0.2-0.1c0,0,0,0,0-0.1v-0.9c0-0.1,0-0.2-0.1-0.2c0,0,0,0-0.1,0H941c-0.1,0-0.1,0-0.1-0.1c0,0,0,0,0,0
	v-2.6c0-0.1,0-0.2-0.1-0.2c0,0,0,0-0.1,0h-1.2c-0.1,0-0.2,0-0.2,0.1c0,0,0,0,0,0.1v2.6c0,0.1,0,0.1-0.1,0.1c0,0,0,0,0,0h-0.8
	c-0.1,0-0.2,0-0.2,0.1c0,0,0,0,0,0.1v0.9c0,0.1,0,0.2,0.1,0.2c0,0,0,0,0.1,0h0.8c0.1,0,0.1,0,0.1,0.1c0,0,0,0,0,0v5.3
	c0,1.8,0.7,2.6,2.5,2.6L942.4,134L942.4,134z M945.7,133.9c0.1,0,0.2,0,0.2-0.1c0,0,0,0,0-0.1v-8.8c0-0.1,0-0.2-0.1-0.2
	c0,0,0,0-0.1,0h-1.2c-0.1,0-0.2,0-0.2,0.1c0,0,0,0,0,0.1v8.8c0,0.1,0,0.2,0.1,0.2c0,0,0,0,0.1,0L945.7,133.9L945.7,133.9z
	 M945.8,122.6c0.1,0,0.2,0,0.2-0.1c0,0,0,0,0-0.1V121c0-0.1,0-0.2-0.1-0.2c0,0,0,0-0.1,0h-1.3c-0.1,0-0.2,0-0.2,0.1c0,0,0,0,0,0.1
	v1.4c0,0.1,0,0.2,0.1,0.2c0,0,0,0,0.1,0L945.8,122.6L945.8,122.6z M949.8,128.5c-0.1,0-0.1,0-0.1-0.1c0,0,0,0,0,0c0-0.4,0-0.7,0.1-1
	c0.5-1.2,1.8-1.7,3-1.3c0.6,0.2,1.1,0.7,1.3,1.3c0.1,0.3,0.2,0.7,0.1,1c0,0.1,0,0.1-0.1,0.1c0,0,0,0,0,0H949.8L949.8,128.5z
	 M952,134.1c1.4,0.1,2.7-0.5,3.6-1.6c0.1-0.1,0.1-0.2,0-0.2c0,0,0,0,0,0l-0.8-0.7c-0.1-0.1-0.2-0.1-0.3,0c0,0,0,0,0,0
	c-0.6,0.7-1.5,1.1-2.4,1c-1.1,0.1-2-0.6-2.3-1.6c-0.1-0.4-0.2-0.7-0.2-1.1c0-0.1,0-0.1,0.1-0.1c0,0,0,0,0,0h5.8c0.1,0,0.2,0,0.2-0.1
	c0,0,0,0,0-0.1c0-0.9,0-1.8-0.3-2.6c-0.8-2-3-3-5-2.2c-1,0.4-1.8,1.2-2.2,2.2c-0.2,0.8-0.3,1.5-0.3,2.3c0,0.8,0.1,1.6,0.3,2.3
	C948.8,133.2,950.4,134.2,952,134.1L952,134.1z M961.1,134.1c2.4,0,3.7-1.2,3.7-3c0-1.5-0.9-2.4-2.8-2.6l-1-0.1
	c-1.4-0.1-1.8-0.5-1.8-1.3c0-0.8,0.6-1.3,1.8-1.3c0.9,0,1.7,0.3,2.5,0.8c0.1,0.1,0.2,0.1,0.3,0c0,0,0,0,0,0l0.7-0.8
	c0.1-0.1,0.1-0.2,0-0.2c0,0,0,0,0,0c-0.9-0.7-2.1-1.1-3.3-1c-2.2,0-3.4,1-3.4,2.8c0,1.6,0.9,2.4,2.8,2.6l1,0.1
	c1.4,0.1,1.8,0.6,1.8,1.3c0,0.8-0.6,1.4-2,1.4c-1,0-2.1-0.4-2.8-1.1c-0.1-0.1-0.2-0.1-0.2,0c0,0,0,0,0,0l-0.8,0.8
	c-0.1,0-0.1,0.1,0,0.2c0,0,0,0,0,0C958.4,133.6,959.7,134.1,961.1,134.1L961.1,134.1z"/>
<path id="Al_Muhaidib_Family_copy" class="st8" d="M579.9,53.3c0.1,0.3,0.4,0.6,0.7,0.5c0,0,0,0,0.1,0h2.8c0.2,0.1,0.4-0.1,0.5-0.3
	c0,0,0-0.1,0-0.1c0-0.1,0-0.3-0.1-0.4L577,34.7c-0.1-0.3-0.4-0.5-0.7-0.4c0,0,0,0,0,0h-1.6c-0.3,0-0.6,0.2-0.7,0.5c0,0,0,0,0,0
	l-6.7,18c-0.1,0.2-0.1,0.3-0.2,0.5c0,0.2,0.2,0.4,0.4,0.4c0,0,0.1,0,0.1,0h1.8c0.3,0.1,0.6-0.1,0.7-0.4c0,0,0,0,0-0.1l2-5.6h5.6
	L579.9,53.3z M572.9,45.6l2.1-6.4l2.1,6.4H572.9z M585.3,53.2c0,0.6,0.2,0.6,0.6,0.6h2.2c0.4,0,0.6-0.1,0.6-0.6v-20
	c0-0.5-0.1-0.5-0.6-0.5h-2.2c-0.5,0-0.6,0.1-0.6,0.5V53.2L585.3,53.2z M614.3,53.1c0,0.5,0.1,0.6,0.6,0.6h2.2c0.5,0,0.7-0.1,0.7-0.6
	V34.8c0-0.5-0.1-0.5-0.6-0.5h-2.7c-0.4-0.1-0.7,0.2-0.8,0.5c0,0,0,0,0,0.1l-5.2,12.5l-5.3-12.6c0-0.4-0.4-0.6-0.8-0.6
	c0,0-0.1,0-0.1,0h-2.6c-0.3-0.1-0.5,0.1-0.6,0.3c0,0.1,0,0.2,0,0.2v18.2c0,0.5,0.1,0.6,0.6,0.6h1.7c0.3,0.1,0.5-0.1,0.6-0.4
	c0-0.1,0-0.1,0-0.2V40l5.4,13.3c0.1,0.4,0.4,0.6,0.8,0.6c0.4,0,0.5-0.1,0.7-0.6l5.4-13.3V53.1z M632.2,40.1c0-0.5-0.2-0.6-0.7-0.6
	h-2.2c-0.3-0.1-0.5,0.1-0.6,0.3c0,0.1,0,0.2,0,0.2v9.5c0,0.9,0,2.2-2.2,2.2c-2.4,0-2.4-1.7-2.4-2.6v-9.2c0.1-0.3-0.1-0.5-0.3-0.6
	c-0.1,0-0.2,0-0.3,0h-2.3c-0.2-0.1-0.5,0.1-0.6,0.3c0,0.1,0,0.1,0,0.2v9.6c0,1.7,0.3,4.5,5.6,4.5c1.7,0.1,3.3-0.3,4.8-1.1
	c1-0.7,1.1-1.5,1.1-2.7L632.2,40.1L632.2,40.1z M643.1,53.2c0,0.6,0.1,0.6,0.7,0.6h2.2c0.5,0,0.6-0.1,0.6-0.7v-9.3
	c0.1-1.1-0.2-2.1-0.8-3c-0.7-1.1-2-1.7-3.3-1.6c-1.5,0-2.9,0.5-3.9,1.6v-7.5c0-0.5-0.1-0.5-0.6-0.5h-2.3c-0.3-0.1-0.5,0.1-0.6,0.3
	c0,0.1,0,0.1,0,0.2v19.9c0,0.6,0.1,0.6,0.6,0.6h2.3c0.5,0,0.6-0.2,0.6-0.7V42.6c0.6-0.6,1.5-1,2.4-1.1c0.7,0,1.4,0.4,1.8,1
	c0.3,0.6,0.4,1.3,0.4,2L643.1,53.2L643.1,53.2z M659.2,44c0-2,0-4.8-4.4-4.8c-3.3,0-5.5,1.7-5.5,3.3c0,0.8,0.6,1.4,1.4,1.5
	c0,0,0.1,0,0.1,0c1,0,1.3-0.7,1.5-1.4c0.2-0.9,1-1.5,1.9-1.5c1.7,0,1.7,1.5,1.7,2.5v1.4c-3.1,0.8-4.9,1.3-6.1,2.5
	c-0.8,0.7-1.2,1.7-1.2,2.8c0,3.9,4.5,3.9,5.3,3.9c1.4,0,2.8-0.3,4-0.8c1.1-0.6,1.2-1.2,1.2-2.5L659.2,44L659.2,44z M656,50.4
	c0,0.6,0,1.8-1.7,1.8c-1.2,0.1-2.2-0.9-2.3-2.1c0-0.1,0-0.2,0-0.3c0-2.1,1.8-2.6,4-3.3L656,50.4L656,50.4z M665.5,40.1
	c0-0.5-0.1-0.6-0.6-0.6h-2.3c-0.5,0-0.5,0.2-0.5,0.6v13.1c0,0.4,0,0.6,0.5,0.6h2.4c0.6,0,0.6-0.2,0.6-0.6L665.5,40.1L665.5,40.1z
	 M665.5,35.8c0-0.9-0.7-1.6-1.6-1.7c-0.1,0-0.1,0-0.2,0c-0.9-0.1-1.8,0.6-1.9,1.5c0,0.1,0,0.1,0,0.2c0.1,1,1,1.7,2,1.6
	C664.8,37.4,665.5,36.7,665.5,35.8L665.5,35.8z M679.7,33.3c0-0.5-0.1-0.6-0.7-0.6h-2.1c-0.3-0.1-0.6,0.1-0.6,0.4c0,0.1,0,0.2,0,0.3
	v6.5c-0.7-0.5-1.6-0.8-2.5-0.7c-4,0-6.1,4-6.1,7.9c0,4.5,2.4,7.1,6.5,7.1c1.8,0,3.7-0.5,4.7-1.2c0.6-0.5,1-1.2,0.9-2V33.3
	L679.7,33.3z M676.3,49.8c0,0.9,0,2.1-1.7,2.1c-2,0-3.5-2-3.5-5.5c0-2.9,1.2-5.4,3.4-5.4c0.7,0,1.3,0.3,1.8,0.7L676.3,49.8
	L676.3,49.8z M686.1,40.1c0-0.5-0.1-0.6-0.6-0.6h-2.3c-0.5,0-0.5,0.2-0.5,0.6v13.1c0,0.4,0,0.6,0.5,0.6h2.4c0.6,0,0.6-0.2,0.6-0.6
	V40.1z M686.1,35.8c0-0.9-0.7-1.6-1.6-1.7c-0.1,0-0.1,0-0.2,0c-0.9-0.1-1.8,0.6-1.9,1.5c0,0.1,0,0.1,0,0.2c0.1,1,1,1.7,2,1.6
	C685.4,37.4,686.1,36.7,686.1,35.8z M692.2,33.3c0-0.5-0.2-0.6-0.7-0.6h-2.2c-0.4,0-0.6,0.1-0.6,0.6V50c0,1.7,0,2.1,0.8,2.9
	c1.2,0.9,2.7,1.4,4.2,1.3c4.3,0,6.9-3.3,6.9-8.3c0-3.9-1.7-6.7-4.8-6.7c-1.4,0-2.8,0.6-3.8,1.7V33.3L692.2,33.3z M692.2,42.6
	c0.6-0.6,1.4-1,2.3-1c2.7,0,2.9,3.7,2.9,5c0,3.6-1.6,5.4-3.2,5.4c-0.9,0-1.8-0.6-1.9-1.6c-0.1-0.4-0.1-0.8-0.1-1.2V42.6L692.2,42.6z
	 M719.7,44.9c0.3,0,0.5-0.1,0.6-0.3c0-0.1,0-1.4,0-1.6c0-0.5-0.2-0.5-0.6-0.5h-5.3v-5.7h6.4c0.6,0,0.6-0.2,0.6-0.6v-1.3
	c0-0.5-0.2-0.5-0.6-0.5h-9.4c-0.3-0.1-0.6,0.1-0.6,0.4c0,0.1,0,0.2,0,0.2v18.2c0,0.5,0.1,0.6,0.6,0.6h2.5c0.4,0,0.6-0.1,0.6-0.6
	v-8.3L719.7,44.9L719.7,44.9z M732.5,44c0-2,0-4.8-4.4-4.8c-3.3,0-5.5,1.7-5.5,3.3c0,0.8,0.6,1.4,1.4,1.5c0,0,0.1,0,0.1,0
	c1,0,1.3-0.7,1.5-1.4c0.2-0.9,1-1.5,1.9-1.5c1.7,0,1.7,1.5,1.7,2.5V45c-3.1,0.8-4.9,1.3-6.1,2.5c-0.8,0.7-1.2,1.7-1.2,2.8
	c0,3.9,4.5,3.9,5.3,3.9c1.4,0,2.8-0.3,4-0.8c1.1-0.6,1.2-1.2,1.2-2.5V44L732.5,44z M729.2,50.4c0,0.6,0,1.8-1.7,1.8
	c-1.2,0.1-2.2-0.9-2.3-2.1c0-0.1,0-0.2,0-0.3c0-2.1,1.8-2.6,4-3.3L729.2,50.4L729.2,50.4z M735.2,53.2c0,0.4,0.1,0.6,0.6,0.6h2.2
	c0.5,0,0.6-0.1,0.6-0.6v-9.4c-0.1-0.7,0.1-1.5,0.7-2c0.4-0.4,1-0.6,1.5-0.6c2.1,0,2.1,2,2.1,2.9v9.2c0,0.5,0.2,0.6,0.7,0.6h2.2
	c0.5,0,0.6-0.2,0.6-0.6v-9.4c0-0.9,0-1.4,0.6-2c0.4-0.4,1-0.6,1.5-0.6c2.1,0,2.2,1.8,2.2,2.9v9c0,0.5,0.1,0.6,0.6,0.6h2.3
	c0.3,0.1,0.5-0.1,0.6-0.3c0-0.1,0-0.2,0-0.2v-9.5c0-0.9,0-2.6-1.4-3.7c-1-0.7-2.1-1-3.3-0.9c-0.8,0-1.6,0.1-2.4,0.3
	c-0.8,0.2-1.6,0.6-2.2,1.3c-0.5-0.5-1.5-1.6-4.3-1.6c-1.3,0-3.6,0.4-4.7,1.2c-0.7,0.5-0.7,0.8-0.7,2L735.2,53.2L735.2,53.2z
	 M760.5,40.1c0-0.5-0.1-0.6-0.6-0.6h-2.3c-0.5,0-0.5,0.2-0.5,0.6v13.1c0,0.4,0,0.6,0.5,0.6h2.4c0.6,0,0.6-0.2,0.6-0.6V40.1
	L760.5,40.1z M760.5,35.8c0-0.9-0.7-1.6-1.6-1.7c-0.1,0-0.1,0-0.2,0c-0.9-0.1-1.8,0.6-1.9,1.5c0,0.1,0,0.1,0,0.2c0.1,1,1,1.7,2,1.6
	C759.8,37.4,760.5,36.7,760.5,35.8L760.5,35.8z M763.2,53.2c0,0.6,0.2,0.6,0.6,0.6h2.2c0.4,0,0.6-0.1,0.6-0.6v-20
	c0-0.5-0.1-0.5-0.6-0.5h-2.2c-0.5,0-0.6,0.1-0.6,0.5V53.2L763.2,53.2z M781.1,40.4c0.1-0.2,0.1-0.3,0.1-0.5c0-0.2-0.2-0.4-0.5-0.4
	c0,0-0.1,0-0.1,0h-1.7c-0.3-0.1-0.7,0.1-0.8,0.5c0,0,0,0.1,0,0.1l-3.1,9.5l-3.2-9.5c-0.2-0.5-0.2-0.6-0.7-0.6h-2.5
	c-0.2-0.1-0.5,0.1-0.5,0.3c0,0,0,0.1,0,0.1c0,0.2,0.1,0.3,0.1,0.5l5.3,13.8c-0.8,2.4-1.4,3.3-2.5,3.3c-0.4,0-1.2-0.3-1.7-0.3
	c-0.8,0-1.5,0.6-1.5,1.4c0,0,0,0,0,0c0,0.9,0.7,1.7,2.4,1.7c3.3,0,4.5-3.1,5.1-4.8L781.1,40.4z"/>
<path id="Family_Council_copy" class="st8" d="M404.8,213.9c0.3,0,0.4,0,0.5-0.3c0-0.1,0-1.1,0-1.3c0-0.4-0.1-0.4-0.5-0.4h-4.2v-4.5
	h5.1c0.4,0,0.5-0.2,0.5-0.5v-1.1c0-0.4-0.2-0.4-0.5-0.4h-7.6c-0.2,0-0.4,0.1-0.5,0.3c0,0.1,0,0.1,0,0.2v14.6c0,0.4,0.1,0.5,0.5,0.5
	h2c0.3,0,0.5,0,0.5-0.5v-6.7L404.8,213.9L404.8,213.9z M415,213.2c0-1.6,0-3.9-3.5-3.9c-2.7,0-4.4,1.3-4.4,2.7
	c0,0.6,0.5,1.2,1.1,1.2c0,0,0.1,0,0.1,0c0.8,0,1-0.6,1.2-1.1c0.2-0.7,0.8-1.2,1.5-1.2c1.3,0,1.3,1.2,1.3,2v1.1c-2.5,0.7-3.9,1-4.9,2
	c-0.6,0.6-1,1.4-1,2.2c0,3.1,3.6,3.1,4.3,3.1c1.1,0,2.2-0.2,3.2-0.7c0.9-0.5,0.9-1,1-2L415,213.2L415,213.2z M412.4,218.3
	c0.1,0.7-0.3,1.3-1,1.4c-0.1,0-0.3,0-0.4,0c-1,0.1-1.8-0.7-1.8-1.6c0-0.1,0-0.2,0-0.3c0-1.7,1.5-2.1,3.2-2.6L412.4,218.3
	L412.4,218.3z M417.2,220.5c0,0.3,0.1,0.5,0.5,0.5h1.8c0.4,0,0.5-0.1,0.5-0.5V213c-0.1-0.6,0.1-1.2,0.5-1.6c0.3-0.3,0.8-0.5,1.2-0.4
	c1.7,0,1.7,1.6,1.7,2.3v7.4c0,0.4,0.2,0.5,0.5,0.5h1.8c0.4,0,0.4-0.1,0.4-0.5V213c0-0.7,0-1.1,0.5-1.6c0.3-0.3,0.8-0.5,1.2-0.4
	c1.7,0,1.7,1.4,1.7,2.4v7.2c0,0.4,0.1,0.5,0.5,0.5h1.8c0.2,0,0.4-0.1,0.4-0.3c0-0.1,0-0.1,0-0.2V213c0.1-1.1-0.3-2.2-1.1-2.9
	c-0.8-0.5-1.7-0.8-2.6-0.7c-0.7,0-1.3,0.1-1.9,0.2c-0.7,0.2-1.3,0.5-1.7,1c-0.4-0.4-1.2-1.3-3.4-1.3c-1.3,0-2.6,0.3-3.7,0.9
	c-0.6,0.4-0.6,0.6-0.6,1.6L417.2,220.5L417.2,220.5z M437.4,210.1c0-0.4-0.1-0.5-0.5-0.5h-1.9c-0.4,0-0.4,0.2-0.4,0.5v10.5
	c0,0.4,0,0.5,0.4,0.5h1.9c0.4,0,0.5-0.1,0.5-0.5V210.1z M437.5,206.6c0-0.7-0.6-1.3-1.3-1.3c0,0-0.1,0-0.1,0
	c-0.7-0.1-1.4,0.5-1.5,1.2c0,0.1,0,0.1,0,0.2c0.1,0.8,0.8,1.4,1.6,1.3C436.9,207.9,437.4,207.3,437.5,206.6L437.5,206.6z
	 M439.6,220.5c0,0.4,0.1,0.5,0.5,0.5h1.7c0.4,0,0.5-0.1,0.5-0.5v-16c0-0.4-0.1-0.4-0.5-0.4h-1.7c-0.4,0-0.5,0.1-0.5,0.4L439.6,220.5
	L439.6,220.5z M454,210.3c0.1-0.1,0.1-0.3,0.1-0.4c0-0.2-0.2-0.3-0.4-0.3c0,0-0.1,0-0.1,0h-1.3c-0.3-0.1-0.5,0.1-0.6,0.4
	c0,0,0,0.1,0,0.1l-2.4,7.6l-2.6-7.6c-0.2-0.4-0.2-0.5-0.6-0.5h-2c-0.2,0-0.4,0.1-0.4,0.2c0,0,0,0,0,0.1c0,0.1,0.1,0.3,0.1,0.4
	l4.3,11.1c-0.6,1.9-1.1,2.6-2,2.6c-0.4,0-1-0.2-1.3-0.2c-0.6,0-1.2,0.5-1.2,1.1c0,0,0,0,0,0c0,0.7,0.6,1.4,1.9,1.4
	c2.7,0,3.6-2.4,4.1-3.8L454,210.3z M470.5,208.9c0.4,0.6,1.2,0.8,1.8,0.5c0.4-0.2,0.6-0.6,0.7-1.1c0-1.3-1.9-3.2-5.2-3.2
	c-4.5,0-7.1,3.6-7.1,8c0,4.2,2.2,8.2,7.2,8.2c3.2,0,4.9-1.9,4.9-2.8c0-0.4-0.3-0.7-0.7-0.7c0,0,0,0,0,0c-0.3,0-0.6,0.2-0.8,0.4
	c-0.8,0.6-1.7,0.9-2.7,0.9c-2.6,0-4.7-2.4-4.7-6.7c0-3.5,1.7-5.5,3.7-5.5C469.2,206.9,469.9,208,470.5,208.9L470.5,208.9z
	 M484.5,215.2c-0.1-2.7-1.6-5.9-5.2-5.9c-3.2,0-5.3,2.6-5.3,6c0,3.4,2,6,5.2,6C482.7,221.3,484.5,218.4,484.5,215.2L484.5,215.2z
	 M481.6,215c0.1,2.5-0.9,4.4-2.3,4.4c-1.5,0-2.5-2-2.5-4.5c0-2.2,0.8-4,2.3-4C480.4,210.9,481.5,212.4,481.6,215L481.6,215z
	 M495.5,210c0-0.4-0.2-0.5-0.5-0.5h-1.7c-0.2-0.1-0.4,0.1-0.5,0.3c0,0.1,0,0.1,0,0.2v7.6c0,0.7,0,1.8-1.8,1.8c-1.9,0-1.9-1.3-1.9-2
	V210c0-0.2-0.1-0.4-0.3-0.5c-0.1,0-0.1,0-0.2,0h-1.8c-0.2-0.1-0.4,0.1-0.5,0.3c0,0.1,0,0.1,0,0.2v7.7c0,1.4,0.3,3.6,4.5,3.6
	c1.3,0,2.6-0.3,3.8-0.9c0.8-0.6,0.9-1.2,0.9-2.2L495.5,210L495.5,210z M506.9,212.8c0.1-1-0.3-2-1-2.6c-0.4-0.3-1.1-0.9-3.3-0.9
	c-1.3,0-2.5,0.2-3.7,0.7c-1,0.5-1,1-1,1.9v8.7c-0.1,0.2,0.1,0.4,0.3,0.5c0.1,0,0.1,0,0.2,0h1.7c0.4,0,0.5-0.1,0.5-0.5v-7.8
	c-0.1-0.9,0.4-1.7,1.3-1.8c0.2,0,0.3,0,0.5,0c1.9,0,1.9,1.4,1.9,2.2v7.4c0,0.3,0,0.5,0.5,0.5h1.8c0.4,0,0.5-0.1,0.5-0.5L506.9,212.8
	L506.9,212.8z M515.2,212.6c0.2,0.6,0.9,0.9,1.5,0.7c0.5-0.2,0.8-0.7,0.8-1.2c0-1.1-1.2-2.9-3.7-2.9c-3.6,0-5,3.1-5,6.1
	c0,3.1,1.5,5.9,4.6,5.9c2.2,0.1,4-1.6,4.1-3.8c0.1-0.4-0.2-0.7-0.5-0.8c0,0,0,0-0.1,0c-0.3,0.1-0.6,0.3-0.7,0.6
	c-0.4,0.9-1.3,1.4-2.2,1.5c-1.8,0-2.9-2-2.9-4.3c0-2,0.9-3.5,2.3-3.5C514.5,211,514.8,211.9,515.2,212.6L515.2,212.6z M522.1,210.1
	c0-0.4-0.1-0.5-0.5-0.5h-1.9c-0.4,0-0.4,0.2-0.4,0.5v10.5c0,0.4,0,0.5,0.4,0.5h1.9c0.4,0,0.5-0.1,0.5-0.5V210.1z M522.1,206.6
	c0-0.7-0.6-1.3-1.3-1.3c0,0-0.1,0-0.1,0c-0.7-0.1-1.4,0.5-1.5,1.2c0,0.1,0,0.1,0,0.2c0.1,0.8,0.8,1.4,1.6,1.3
	C521.5,207.9,522.1,207.3,522.1,206.6L522.1,206.6z M524.3,220.5c0,0.4,0.1,0.5,0.5,0.5h1.7c0.4,0,0.5-0.1,0.5-0.5v-16
	c0-0.4-0.1-0.4-0.5-0.4h-1.7c-0.4,0-0.5,0.1-0.5,0.4L524.3,220.5L524.3,220.5z"/>
<path id="Governance_Entities_copy" class="st8" d="M43.1,281c0.5-0.1,1.1,0.1,1.5,0.5c0.3,0.5,0.4,1.1,0.4,1.6
	c0,2.9-2.8,4.4-6.5,4.4c-4,0-5.9-1.7-5.9-3.9c0-1.2,0.7-2.2,1.7-2.7c0.6-0.2,1-0.8,1.1-1.5c0-0.7-0.5-1.3-1.2-1.3c0,0,0,0-0.1,0
	c-1.2,0-3.3,1.7-3.3,5.4c0,4.4,3.4,7.2,8.2,7.2c3.8,0,8.1-1.8,8.1-7.4c0-2.6-0.9-4.2-1.7-4.8c-0.3-0.3-0.8-0.4-1.3-0.4h-5
	c-0.4,0-0.6,0-0.6,0.5v4.7c0,0.3,0,0.5,0.4,0.5c0.4,0,1.1,0,1.1,0c0.2,0,0.3-0.2,0.3-0.5V281L43.1,281L43.1,281z M40.8,266.1
	c-2.7,0.1-5.9,1.6-5.9,5.2c0,3.2,2.6,5.3,6,5.3c3.4,0,6-2,6-5.2C46.9,268,44,266.1,40.8,266.1L40.8,266.1z M40.7,269
	c2.5-0.1,4.4,0.9,4.4,2.3c0,1.5-2,2.5-4.5,2.5c-2.2,0-4-0.8-4-2.3C36.6,270.2,38,269.1,40.7,269L40.7,269z M35.6,262.5
	c-0.2,0-0.4,0.2-0.4,0.4c0,0,0,0.1,0,0.1v2c0,0.2,0.1,0.3,0.2,0.4c0,0,0,0,0.1,0c0.1,0,0.3,0,0.4-0.1l10.4-3.8
	c0.2,0,0.4-0.2,0.4-0.4c0,0,0-0.1,0-0.1v-1.5c0.1-0.2-0.1-0.4-0.3-0.5c0,0,0,0-0.1,0l-10.4-3.6c-0.1-0.1-0.2-0.1-0.4-0.1
	c-0.2,0-0.3,0.1-0.3,0.3c0,0,0,0,0,0.1v1.4c-0.1,0.2,0.1,0.4,0.3,0.5c0,0,0,0,0.1,0l7.6,2.4L35.6,262.5z M40,246.3
	c0-0.4-0.3-0.8-0.8-0.8c0,0-0.1,0-0.1,0c-2.3,0-4.2,1.9-4.1,4.2c0,0,0,0,0,0c0,2.4,1.6,4.9,6,4.9c3.9,0,6-2,6-4.9
	c0-2.2-1.6-4.1-3.8-4.4c-0.3,0-0.6,0.2-0.7,0.5c0,0,0,0,0,0c0,0.3,0.1,0.4,0.6,0.7c0.9,0.6,1.4,1.6,1.5,2.6c0,1.1-0.6,2.7-3.6,3
	L40,246.3z M39.5,252.5c-1.5-0.1-2.9-0.8-2.9-2.3c0-1,0.8-1.8,2.2-1.9L39.5,252.5z M37.6,240.9c-0.6,0-1.3,0-1.3-1.2
	c0-0.5,0.2-0.9,0.6-1.1c0.5-0.3,0.8-0.5,0.8-1.1c0-0.6-0.5-1.2-1.1-1.2c0,0-0.1,0-0.1,0c-1.3,0-1.7,1.3-1.7,2.6c0,1.4,0.2,2.8,0.8,4
	c0.2,0.5,0.7,0.8,1.3,0.6h9.2c0.4,0,0.5-0.1,0.5-0.5v-1.8c0-0.4-0.1-0.4-0.5-0.5L37.6,240.9L37.6,240.9z M38.4,226.3
	c-1-0.1-2,0.3-2.6,1c-0.3,0.4-0.9,1.1-0.9,3.3c0,1.3,0.2,2.5,0.7,3.7c0.5,1,1,1,1.9,1h8.7c0.2,0.1,0.4-0.1,0.5-0.3
	c0-0.1,0-0.1,0-0.2v-1.7c0-0.4-0.1-0.5-0.5-0.5h-7.8c-0.9,0.1-1.7-0.4-1.8-1.3c0-0.2,0-0.3,0-0.5c0-1.9,1.4-1.9,2.2-1.9h7.4
	c0.3,0,0.5,0,0.5-0.5v-1.8c0-0.4-0.1-0.5-0.5-0.5L38.4,226.3L38.4,226.3z M38.8,216.1c-1.6,0-3.9,0-3.9,3.5c0,2.7,1.3,4.4,2.7,4.4
	c0.6,0,1.2-0.5,1.2-1.1c0,0,0-0.1,0-0.1c0-0.8-0.6-1-1.1-1.2c-0.7-0.2-1.2-0.8-1.2-1.5c0-1.3,1.2-1.3,2-1.3h1.1c0.7,2.5,1,3.9,2,4.9
	c0.6,0.6,1.4,1,2.2,1c3.1,0,3.1-3.6,3.1-4.3c0-1.1-0.2-2.2-0.7-3.2c-0.5-0.9-1-0.9-2-1L38.8,216.1L38.8,216.1z M43.9,218.7
	c0.7-0.1,1.3,0.3,1.4,1c0,0.1,0,0.3,0,0.4c0.1,1-0.7,1.8-1.6,1.8c-0.1,0-0.2,0-0.3,0c-1.7,0-2.1-1.5-2.6-3.2
	C40.9,218.7,43.9,218.7,43.9,218.7z M38.4,204.8c-1-0.1-2,0.3-2.6,1c-0.3,0.4-0.9,1.1-0.9,3.3c0,1.3,0.2,2.5,0.7,3.7
	c0.5,1,1,1,1.9,1h8.7c0.2,0.1,0.4-0.1,0.5-0.3c0-0.1,0-0.1,0-0.2v-1.7c0-0.4-0.1-0.5-0.5-0.5h-7.8c-0.9,0.1-1.7-0.4-1.8-1.3
	c0-0.2,0-0.3,0-0.5c0-1.9,1.4-1.9,2.2-1.9h7.4c0.3,0,0.5,0,0.5-0.5v-1.8c0-0.4-0.1-0.5-0.5-0.5L38.4,204.8L38.4,204.8z M38.3,196.5
	c0.6-0.2,0.9-0.9,0.7-1.5c-0.2-0.5-0.7-0.8-1.2-0.8c-1.1,0-2.9,1.2-2.9,3.7c0,3.6,3.1,5,6.1,5c3.1,0,5.9-1.5,5.9-4.6
	c0.1-2.2-1.6-4-3.8-4.1c-0.4-0.1-0.7,0.2-0.8,0.5c0,0,0,0,0,0.1c0.1,0.3,0.3,0.6,0.6,0.7c0.9,0.4,1.4,1.3,1.5,2.2
	c0,1.8-2,2.9-4.3,2.9c-2,0-3.5-0.9-3.5-2.3C36.6,197.3,37.5,196.9,38.3,196.5z M40,184.4c0-0.4-0.3-0.8-0.8-0.8c0,0-0.1,0-0.1,0
	c-2.3,0-4.2,1.9-4.1,4.2c0,0,0,0,0,0c0,2.4,1.6,4.9,6,4.9c3.9,0,6-2,6-4.9c0-2.2-1.6-4.1-3.8-4.4c-0.3,0-0.6,0.2-0.7,0.5
	c0,0,0,0,0,0c0,0.3,0.1,0.4,0.6,0.7c0.9,0.6,1.4,1.6,1.5,2.6c0,1.1-0.6,2.7-3.6,3L40,184.4z M39.5,190.7c-1.5-0.1-2.9-0.8-2.9-2.3
	c0-1,0.8-1.8,2.2-1.9L39.5,190.7z M39.5,168.4c0-0.4,0-0.5-0.4-0.5H38c-0.4,0-0.4,0.1-0.4,0.5v4.4H33v-5.2c0-0.4,0-0.5-0.5-0.5h-1.1
	c-0.4,0-0.4,0.2-0.4,0.5v7.7c0,0.4,0.1,0.5,0.6,0.5h14.5c0.5,0,0.5-0.2,0.5-0.5v-7.7c0-0.4-0.1-0.5-0.3-0.5h-1.3
	c-0.4,0-0.4,0.2-0.4,0.5v5.2h-5.1V168.4L39.5,168.4z M38.4,156.3c-1-0.1-2,0.3-2.6,1c-0.3,0.4-0.9,1.1-0.9,3.3
	c0,1.3,0.2,2.5,0.7,3.7c0.5,1,1,1,1.9,1h8.7c0.2,0.1,0.4-0.1,0.5-0.3c0-0.1,0-0.1,0-0.2v-1.7c0-0.4-0.1-0.5-0.5-0.5h-7.8
	c-0.9,0.1-1.7-0.4-1.8-1.3c0-0.2,0-0.3,0-0.5c0-1.9,1.4-1.9,2.2-1.9h7.4c0.3,0,0.5,0,0.5-0.5v-1.8c0-0.4-0.1-0.5-0.5-0.5L38.4,156.3
	L38.4,156.3z M36.4,149.2c0-0.4-0.1-0.4-0.9-0.4c-0.3,0-0.3,0.2-0.3,0.4v1.7h-2.6c-0.3,0-0.6,0-0.6,0.3c0,0.1,0.1,0.3,0.2,0.4l1,1.6
	c0.1,0.3,0.5,0.4,0.8,0.4h1.2v1.1c0,0.2,0,0.3,0.2,0.4c0,0,0.1,0,0.1,0c0.8,0,0.9,0,0.9-0.4v-1.1h7.3c0.8,0.1,1.6-0.2,2.2-0.6
	c0.7-0.6,1-1.5,1-2.4c0-0.9-0.4-2.1-1-2.1c-0.6,0-0.6,0.4-0.6,1c-0.1,1.5-1.5,1.5-2.1,1.5h-6.8L36.4,149.2L36.4,149.2z M35.7,144.8
	c-0.4,0-0.5,0.1-0.5,0.5v1.9c0,0.4,0.2,0.4,0.5,0.4h10.5c0.4,0,0.5,0,0.5-0.4v-1.9c0-0.4-0.1-0.5-0.5-0.5L35.7,144.8L35.7,144.8z
	 M32.2,144.7c-0.7,0-1.3,0.6-1.3,1.3c0,0,0,0.1,0,0.1c-0.1,0.7,0.5,1.4,1.2,1.5c0.1,0,0.1,0,0.2,0c0.8-0.1,1.4-0.8,1.3-1.6
	C33.5,145.3,33,144.7,32.2,144.7L32.2,144.7z M36.4,137.8c0-0.4-0.1-0.4-0.9-0.4c-0.3,0-0.3,0.2-0.3,0.4v1.7h-2.6
	c-0.3,0-0.6,0-0.6,0.3c0,0.1,0.1,0.3,0.2,0.4l1,1.6c0.1,0.3,0.5,0.4,0.8,0.4h1.2v1.1c0,0.2,0,0.3,0.2,0.4c0,0,0.1,0,0.1,0
	c0.8,0,0.9,0,0.9-0.4v-1.1h7.3c0.8,0.1,1.6-0.2,2.2-0.6c0.7-0.6,1-1.5,1-2.4c0-0.9-0.4-2.1-1-2.1c-0.6,0-0.6,0.4-0.6,1
	c-0.1,1.5-1.5,1.5-2.1,1.5h-6.8L36.4,137.8L36.4,137.8z M35.7,133.3c-0.4,0-0.5,0.1-0.5,0.5v1.9c0,0.4,0.2,0.4,0.5,0.4h10.5
	c0.4,0,0.5,0,0.5-0.4v-1.9c0-0.4-0.1-0.5-0.5-0.5L35.7,133.3L35.7,133.3z M32.2,133.3c-0.7,0-1.3,0.6-1.3,1.3c0,0,0,0.1,0,0.1
	c-0.1,0.7,0.5,1.4,1.2,1.5c0.1,0,0.1,0,0.2,0c0.8-0.1,1.4-0.8,1.3-1.6C33.5,133.9,33,133.3,32.2,133.3L32.2,133.3z M39.9,123.1
	c0-0.4-0.3-0.8-0.8-0.8c0,0-0.1,0-0.1,0c-2.3,0-4.2,1.9-4.1,4.2c0,0,0,0,0,0c0,2.4,1.6,4.9,6,4.9c3.9,0,6-2,6-4.9
	c0-2.2-1.6-4.1-3.8-4.4c-0.3,0-0.6,0.2-0.7,0.5c0,0,0,0,0,0c0,0.3,0.1,0.4,0.6,0.7c0.9,0.6,1.4,1.6,1.5,2.6c0,1.1-0.6,2.7-3.6,3
	L39.9,123.1z M39.5,129.3c-1.5-0.1-2.9-0.8-2.9-2.3c0-1,0.8-1.8,2.2-1.9L39.5,129.3z M39.6,116.6c-0.3,0.8-0.7,1.7-1.9,1.7
	c-0.7,0-1.3-0.6-1.3-1.3c0,0,0,0,0,0c0-0.7,0.4-1.3,1.1-1.5c0.5-0.2,0.9-0.7,0.9-1.2c0-0.6-0.4-1-1-1.1c0,0,0,0-0.1,0
	c-0.9,0-2.4,1-2.4,3.7c0,2.8,1.7,3.8,3.2,3.8c2,0,2.9-1.8,3.2-2.4c0.3-0.6,0.9-1.9,1.1-2.2c0.3-0.4,0.8-0.7,1.4-0.7
	c0.7,0,1.3,0.5,1.4,1.3c0,0,0,0.1,0,0.1c0,0.9-0.6,1.3-1.3,1.8c-0.5,0.2-0.8,0.7-0.9,1.2c0,0.6,0.5,1.1,1.2,1.1c0,0,0,0,0,0
	c0.9,0,2.7-1.1,2.7-4.1c0-3.3-2.2-4-3.5-4c-2.1,0-2.9,1.6-3.4,2.6L39.6,116.6z"/>
<path id="Institutions_copy" class="st8" d="M31.5,540.2c-0.2-0.1-0.4,0.1-0.5,0.3c0,0.1,0,0.1,0,0.2v2.1c0,0.4,0.2,0.4,0.5,0.5
	h14.6c0.2,0,0.4-0.1,0.5-0.3c0-0.1,0-0.1,0-0.2v-2c0-0.2-0.1-0.4-0.3-0.5c-0.1,0-0.1,0-0.2,0L31.5,540.2L31.5,540.2z M38.4,528.6
	c-1-0.1-2,0.3-2.6,1c-0.3,0.4-0.9,1.1-0.9,3.3c0,1.3,0.2,2.5,0.7,3.7c0.5,1,1,1,1.9,1h8.7c0.2,0.1,0.4-0.1,0.5-0.3
	c0-0.1,0-0.1,0-0.2v-1.7c0-0.4-0.1-0.5-0.5-0.5h-7.8c-0.9,0.1-1.7-0.4-1.8-1.3c0-0.2,0-0.3,0-0.5c0-1.9,1.4-1.9,2.2-1.9h7.4
	c0.3,0,0.5,0,0.5-0.5v-1.8c0-0.4-0.1-0.5-0.5-0.5L38.4,528.6L38.4,528.6z M39.6,522.4c-0.3,0.8-0.7,1.7-1.9,1.7
	c-0.7,0-1.3-0.6-1.3-1.3c0,0,0,0,0,0c0-0.7,0.4-1.3,1.1-1.5c0.5-0.2,0.9-0.7,0.9-1.2c0-0.6-0.4-1-1-1.1c0,0,0,0-0.1,0
	c-0.9,0-2.4,1-2.4,3.7c0,2.8,1.7,3.8,3.2,3.8c2,0,2.9-1.8,3.2-2.4c0.3-0.6,0.9-1.9,1.1-2.2c0.3-0.4,0.8-0.7,1.4-0.7
	c0.7,0,1.3,0.5,1.4,1.3c0,0,0,0.1,0,0.1c0,0.9-0.6,1.3-1.3,1.8c-0.5,0.2-0.8,0.7-0.9,1.2c0,0.6,0.5,1.1,1.2,1.1c0,0,0,0,0,0
	c0.9,0,2.7-1.1,2.7-4.1c0-3.3-2.2-4-3.5-4c-2.1,0-2.9,1.6-3.4,2.6L39.6,522.4z M36.4,512c0-0.4-0.1-0.4-0.9-0.4
	c-0.3,0-0.3,0.2-0.3,0.4v1.7h-2.6c-0.3,0-0.6,0-0.6,0.3c0,0.1,0.1,0.3,0.2,0.4l1,1.6c0.1,0.3,0.5,0.4,0.8,0.4h1.2v1.1
	c0,0.2,0,0.3,0.2,0.4c0,0,0.1,0,0.1,0c0.8,0,0.9,0,0.9-0.4v-1.1h7.3c0.8,0.1,1.6-0.2,2.2-0.6c0.7-0.6,1-1.5,1-2.4
	c0-0.9-0.4-2.1-1-2.1c-0.6,0-0.6,0.4-0.6,1c-0.1,1.5-1.5,1.5-2.1,1.5h-6.8L36.4,512L36.4,512z M35.7,507.5c-0.4,0-0.5,0.1-0.5,0.5
	v1.9c0,0.4,0.2,0.4,0.5,0.4h10.5c0.4,0,0.5,0,0.5-0.4V508c0-0.4-0.1-0.5-0.5-0.5L35.7,507.5L35.7,507.5z M32.2,507.5
	c-0.7,0-1.3,0.6-1.3,1.3c0,0,0,0.1,0,0.1c-0.1,0.7,0.5,1.4,1.2,1.5c0.1,0,0.1,0,0.2,0c0.8-0.1,1.4-0.8,1.3-1.6
	C33.5,508.1,32.9,507.5,32.2,507.5L32.2,507.5z M36.4,500.6c0-0.4-0.1-0.4-0.9-0.4c-0.3,0-0.3,0.2-0.3,0.4v1.7h-2.6
	c-0.3,0-0.6,0-0.6,0.3c0,0.1,0.1,0.3,0.2,0.4l1,1.6c0.1,0.3,0.5,0.4,0.8,0.4h1.2v1.1c0,0.2,0,0.3,0.2,0.4c0,0,0.1,0,0.1,0
	c0.8,0,0.9,0,0.9-0.4V505h7.3c0.8,0.1,1.6-0.2,2.2-0.6c0.7-0.6,1-1.5,1-2.4c0-0.9-0.4-2.1-1-2.1c-0.6,0-0.6,0.4-0.6,1
	c-0.1,1.5-1.5,1.5-2.1,1.5h-6.8L36.4,500.6L36.4,500.6z M35.7,489.7c-0.4,0-0.5,0.2-0.5,0.5v1.7c-0.1,0.2,0.1,0.4,0.3,0.5
	c0.1,0,0.1,0,0.2,0h7.6c0.7,0,1.8,0,1.8,1.8c0,1.9-1.3,1.9-2,1.9h-7.4c-0.2,0-0.4,0.1-0.4,0.3c0,0.1,0,0.1,0,0.2v1.8
	c-0.1,0.2,0.1,0.4,0.3,0.5c0.1,0,0.1,0,0.2,0h7.7c1.4,0,3.6-0.3,3.6-4.5c0-1.3-0.3-2.6-0.9-3.8c-0.6-0.8-1.2-0.9-2.2-0.9L35.7,489.7
	L35.7,489.7z M36.4,482.7c0-0.4-0.1-0.4-0.9-0.4c-0.3,0-0.3,0.2-0.3,0.4v1.7h-2.6c-0.3,0-0.6,0-0.6,0.3c0,0.1,0.1,0.3,0.2,0.4l1,1.6
	c0.1,0.3,0.5,0.4,0.8,0.4h1.2v1.1c0,0.2,0,0.3,0.2,0.4c0,0,0.1,0,0.1,0c0.8,0,0.9,0,0.9-0.4v-1.1h7.3c0.8,0.1,1.6-0.2,2.2-0.6
	c0.7-0.6,1-1.5,1-2.4c0-0.9-0.4-2.1-1-2.1c-0.6,0-0.6,0.4-0.6,1c-0.1,1.5-1.5,1.5-2.1,1.5h-6.8V482.7L36.4,482.7z M35.7,478.2
	c-0.4,0-0.5,0.1-0.5,0.5v1.9c0,0.4,0.2,0.4,0.5,0.4h10.5c0.4,0,0.5,0,0.5-0.4v-1.9c0-0.4-0.1-0.5-0.5-0.5H35.7z M32.2,478.2
	c-0.7,0-1.3,0.6-1.3,1.3c0,0,0,0.1,0,0.1c-0.1,0.7,0.5,1.4,1.2,1.5c0.1,0,0.1,0,0.2,0c0.8-0.1,1.4-0.8,1.3-1.6
	C33.5,478.8,32.9,478.2,32.2,478.2L32.2,478.2z M40.8,465.9c-2.7,0.1-5.9,1.6-5.9,5.2c0,3.2,2.6,5.3,6,5.3c3.4,0,6-2,6-5.2
	C46.9,467.8,44,465.9,40.8,465.9L40.8,465.9z M40.7,468.8c2.5-0.1,4.4,0.9,4.4,2.3c0,1.5-2,2.5-4.5,2.5c-2.2,0-4-0.8-4-2.3
	C36.6,470,38,468.9,40.7,468.8L40.7,468.8z M38.4,455c-1-0.1-2,0.3-2.6,1c-0.3,0.4-0.9,1.1-0.9,3.3c0,1.3,0.2,2.5,0.7,3.7
	c0.5,1,1,1,1.9,1h8.7c0.2,0.1,0.4-0.1,0.5-0.3c0-0.1,0-0.1,0-0.2v-1.7c0-0.4-0.1-0.5-0.5-0.5h-7.8c-0.9,0.1-1.7-0.4-1.8-1.3
	c0-0.2,0-0.3,0-0.5c0-1.9,1.4-1.9,2.2-1.9h7.4c0.3,0,0.5,0,0.5-0.5v-1.8c0-0.4-0.1-0.5-0.5-0.5L38.4,455L38.4,455z M39.6,448.7
	c-0.3,0.8-0.7,1.7-1.9,1.7c-0.7,0-1.3-0.6-1.3-1.3c0,0,0,0,0,0c0-0.7,0.4-1.3,1.1-1.5c0.5-0.2,0.9-0.7,0.9-1.2c0-0.6-0.4-1-1-1.1
	c0,0,0,0-0.1,0c-0.9,0-2.4,1-2.4,3.7c0,2.8,1.7,3.8,3.2,3.8c2,0,2.9-1.8,3.2-2.4c0.3-0.6,0.9-1.9,1.1-2.2c0.3-0.4,0.8-0.7,1.4-0.7
	c0.7,0,1.3,0.5,1.4,1.3c0,0,0,0.1,0,0.1c0,0.9-0.6,1.3-1.3,1.8c-0.5,0.2-0.8,0.7-0.9,1.2c0,0.6,0.5,1.1,1.2,1.1c0,0,0,0,0,0
	c0.9,0,2.7-1.1,2.7-4.1c0-3.3-2.2-4-3.5-4c-2.1,0-2.9,1.6-3.4,2.6L39.6,448.7z"/>
<path id="Board_of_Director_copy" class="st8" d="M527.5,394.8c0,0.6,0.1,0.7,0.5,0.8c1.1,0.2,2.3,0.3,3.5,0.3
	c1.5,0.1,3-0.1,4.4-0.6c1.5-0.6,2.5-2.1,2.5-3.7c0-1.9-1.3-3.6-3.2-4c-0.2,0-0.3-0.1-0.5-0.1c0.2-0.1,0.3-0.1,0.5-0.2
	c1.4-0.6,2.3-1.9,2.4-3.4c0-1.2-0.6-2.3-1.7-3c-1.1-0.7-2.8-0.9-4.4-0.9c-1.2,0-2.4,0.1-3.5,0.3c-0.3,0.1-0.5,0.4-0.4,0.7
	L527.5,394.8L527.5,394.8z M530.4,381.9c0.4-0.1,0.8-0.1,1.2-0.1c0.5,0,3,0,3,2.5c0,0.5-0.2,2.3-2.6,2.6c-0.5,0-1,0-1.5,0
	L530.4,381.9L530.4,381.9z M530.4,388.4c0.3,0,0.5,0,0.9,0c0.9,0,3.9,0,3.9,3c0,1.9-1.4,2.7-3.4,2.7c-0.5,0-1,0-1.4-0.1L530.4,388.4
	L530.4,388.4z M550.2,390c-0.1-2.7-1.6-5.9-5.2-5.9c-3.2,0-5.3,2.6-5.3,6c0,3.4,2,6,5.2,6C548.4,396.1,550.3,393.2,550.2,390
	L550.2,390z M547.4,389.8c0.1,2.5-0.9,4.4-2.3,4.4c-1.5,0-2.5-2-2.5-4.5c0-2.2,0.8-4,2.3-4C546.2,385.7,547.2,387.2,547.4,389.8
	L547.4,389.8z M559.9,388c0-1.6,0-3.9-3.5-3.9c-2.7,0-4.4,1.3-4.4,2.7c0,0.6,0.5,1.2,1.1,1.2c0,0,0.1,0,0.1,0c0.8,0,1-0.6,1.2-1.1
	c0.2-0.7,0.8-1.2,1.5-1.2c1.3,0,1.3,1.2,1.3,2v1.1c-2.5,0.7-3.9,1-4.9,2c-0.6,0.6-1,1.4-1,2.2c0,3.1,3.6,3.1,4.3,3.1
	c1.1,0,2.2-0.2,3.2-0.7c0.9-0.5,0.9-1,1-2L559.9,388L559.9,388z M557.4,393.1c0.1,0.7-0.3,1.3-1,1.4c-0.1,0-0.3,0-0.4,0
	c-1,0.1-1.8-0.7-1.8-1.6c0-0.1,0-0.2,0-0.3c0-1.7,1.5-2.1,3.2-2.6L557.4,393.1L557.4,393.1z M564.9,386.8c0-0.6,0-1.3,1.2-1.3
	c0.5,0,0.9,0.2,1.1,0.6c0.3,0.5,0.5,0.8,1.1,0.8c0.6,0,1.2-0.5,1.2-1.1c0,0,0-0.1,0-0.1c0-1.3-1.3-1.7-2.6-1.7c-1.4,0-2.8,0.2-4,0.8
	c-0.5,0.2-0.8,0.7-0.6,1.3v9.2c0,0.4,0.1,0.5,0.5,0.5h1.8c0.4,0,0.4-0.1,0.5-0.5L564.9,386.8L564.9,386.8z M579.6,379.4
	c0-0.4-0.1-0.5-0.5-0.5h-1.7c-0.2-0.1-0.5,0.1-0.5,0.3c0,0.1,0,0.1,0,0.2v5.2c-0.6-0.4-1.3-0.6-2-0.6c-3.2,0-4.9,3.2-4.9,6.3
	c0,3.6,1.9,5.7,5.2,5.7c1.3,0,2.6-0.3,3.7-0.9c0.5-0.4,0.8-1,0.7-1.6V379.4z M576.8,392.6c0,0.7,0,1.7-1.4,1.7
	c-1.6,0-2.8-1.6-2.8-4.4c0-2.4,1-4.3,2.7-4.3c0.5,0,1,0.2,1.4,0.6V392.6L576.8,392.6z M597.9,390c-0.1-2.7-1.6-5.9-5.2-5.9
	c-3.2,0-5.3,2.6-5.3,6c0,3.4,2,6,5.2,6C596,396.1,597.9,393.2,597.9,390L597.9,390z M595,389.8c0.1,2.5-0.9,4.4-2.3,4.4
	c-1.5,0-2.5-2-2.5-4.5c0-2.2,0.8-4,2.3-4C593.8,385.7,594.9,387.2,595,389.8L595,389.8z M604.6,385.6c0.3,0,0.4,0,0.4-0.2
	c0-0.2,0-0.5,0-0.7c0-0.3-0.2-0.3-0.4-0.3h-1.7c-0.3-0.6-0.5-1.3-0.5-2c0-1.1,0.5-1.6,1.1-1.6c0.1,0,0.7,0.1,0.8,0.1
	c0.5,0,1-0.4,1-0.9c0,0,0,0,0-0.1c0-0.6-0.5-1.1-1.1-1.1c-0.1,0-0.1,0-0.2,0c-1.3,0.1-2.5,0.8-3,2c-0.5,1.1-0.8,2.4-0.8,3.6h-1.2
	c-0.4,0-0.4,0.1-0.4,0.9c0,0.4,0.1,0.4,0.4,0.4h1.2v9.7c0,0.4,0.1,0.5,0.5,0.5h1.8c0.3,0,0.5,0,0.5-0.5v-9.7L604.6,385.6
	L604.6,385.6z M612.2,395c-0.1,0.3,0.1,0.6,0.4,0.7c0,0,0,0,0,0c1,0.2,2.1,0.3,3.2,0.3c2.5,0,5.2-0.6,6.9-2.4
	c2.9-3.3,2.8-8.3-0.3-11.5c-2.1-1.9-4.8-2-6.1-2c-1.3,0-2.5,0.1-3.7,0.4c-0.3,0.1-0.5,0.4-0.4,0.7V395L612.2,395z M615.2,382
	c0.3,0,0.6-0.1,1-0.1c1.7-0.1,3.3,0.7,4.4,2c0.8,1.2,1.2,2.6,1.1,4c0.1,1.4-0.3,2.8-1.1,4c-1.2,1.4-2.9,2.1-4.7,2
	c-0.2,0-0.4,0-0.7,0L615.2,382L615.2,382z M629.5,384.9c0-0.4-0.1-0.5-0.5-0.5h-1.9c-0.4,0-0.4,0.2-0.4,0.5v10.5
	c0,0.4,0,0.5,0.4,0.5h1.9c0.4,0,0.5-0.1,0.5-0.5V384.9L629.5,384.9z M629.6,381.4c0-0.7-0.6-1.3-1.3-1.3c0,0-0.1,0-0.1,0
	c-0.7-0.1-1.4,0.5-1.5,1.2c0,0.1,0,0.1,0,0.2c0.1,0.8,0.8,1.4,1.6,1.3C629,382.7,629.5,382.1,629.6,381.4L629.6,381.4z M634.5,386.8
	c0-0.6,0-1.3,1.2-1.3c0.5,0,0.9,0.2,1.1,0.6c0.3,0.5,0.5,0.8,1.1,0.8c0.6,0,1.2-0.5,1.2-1.1c0,0,0-0.1,0-0.1c0-1.3-1.3-1.7-2.6-1.7
	c-1.4,0-2.8,0.2-4,0.8c-0.5,0.2-0.8,0.7-0.6,1.3v9.2c0,0.4,0.1,0.5,0.5,0.5h1.8c0.4,0,0.4-0.1,0.5-0.5L634.5,386.8L634.5,386.8z
	 M648,389.1c0.4,0,0.8-0.3,0.8-0.8c0,0,0-0.1,0-0.1c0-2.3-1.9-4.2-4.2-4.1c0,0,0,0,0,0c-2.4,0-4.9,1.6-4.9,6c0,3.9,2,6,4.9,6
	c2.2,0,4.1-1.6,4.4-3.8c0-0.3-0.2-0.6-0.5-0.7c0,0,0,0,0,0c-0.3,0-0.4,0.1-0.7,0.6c-0.6,0.9-1.6,1.4-2.6,1.5c-1.1,0-2.7-0.6-3-3.6
	L648,389.1z M641.8,388.7c0.1-1.5,0.8-2.9,2.3-2.9c1,0,1.8,0.8,1.9,2.2L641.8,388.7z M656.5,387.4c0.2,0.6,0.9,0.9,1.5,0.7
	c0.5-0.2,0.8-0.7,0.8-1.2c0-1.1-1.2-2.9-3.7-2.9c-3.6,0-5,3.1-5,6.1c0,3.1,1.5,5.9,4.6,5.9c2.2,0.1,4-1.6,4.1-3.8
	c0.1-0.4-0.2-0.7-0.5-0.8c0,0,0,0-0.1,0c-0.3,0.1-0.6,0.3-0.7,0.6c-0.4,0.9-1.3,1.4-2.2,1.5c-1.8,0-2.9-2-2.9-4.3
	c0-2,0.9-3.5,2.3-3.5C655.8,385.8,656.1,386.7,656.5,387.4L656.5,387.4z M665.3,385.6c0.4,0,0.4-0.1,0.4-0.9c0-0.3-0.2-0.3-0.4-0.3
	h-1.7v-2.6c0-0.3,0-0.6-0.3-0.6c-0.1,0-0.3,0.1-0.4,0.2l-1.6,1c-0.3,0.1-0.4,0.5-0.4,0.8v1.2h-1.1c-0.2,0-0.3,0-0.4,0.2
	c0,0,0,0.1,0,0.1c0,0.8,0,0.9,0.4,0.9h1.1v7.2c-0.1,0.8,0.2,1.6,0.6,2.2c0.6,0.7,1.5,1,2.4,1c0.9,0,2.1-0.4,2.1-1
	c0-0.6-0.4-0.6-1-0.6c-1.5-0.1-1.5-1.5-1.5-2.1v-6.8L665.3,385.6L665.3,385.6z M677.1,390c-0.1-2.7-1.6-5.9-5.2-5.9
	c-3.2,0-5.3,2.6-5.3,6c0,3.4,2,6,5.2,6C675.2,396.1,677.1,393.2,677.1,390L677.1,390z M674.2,389.8c0.1,2.5-0.9,4.4-2.3,4.4
	c-1.5,0-2.5-2-2.5-4.5c0-2.2,0.8-4,2.3-4C673,385.7,674.1,387.2,674.2,389.8L674.2,389.8z M681.7,386.8c0-0.6,0-1.3,1.2-1.3
	c0.5,0,0.9,0.2,1.1,0.6c0.3,0.5,0.5,0.8,1.1,0.8c0.6,0,1.2-0.5,1.2-1.1c0,0,0-0.1,0-0.1c0-1.3-1.3-1.7-2.6-1.7c-1.4,0-2.8,0.2-4,0.8
	c-0.5,0.2-0.8,0.7-0.6,1.3v9.2c0,0.4,0.1,0.5,0.5,0.5h1.8c0.4,0,0.4-0.1,0.5-0.5L681.7,386.8L681.7,386.8z"/>
<path id="Board_of_Director_copy_2" class="st8" d="M238.4,394.8c0,0.6,0.1,0.7,0.5,0.8c1.1,0.2,2.3,0.3,3.5,0.3
	c1.5,0.1,3-0.1,4.4-0.6c1.5-0.6,2.5-2.1,2.5-3.7c0-1.9-1.3-3.6-3.2-4c-0.2,0-0.3-0.1-0.5-0.1c0.2-0.1,0.3-0.1,0.5-0.2
	c1.4-0.6,2.3-1.9,2.4-3.4c0-1.2-0.6-2.3-1.7-3c-1.1-0.7-2.8-0.9-4.4-0.9c-1.2,0-2.4,0.1-3.5,0.3c-0.3,0.1-0.5,0.4-0.4,0.7
	L238.4,394.8L238.4,394.8z M241.4,381.9c0.4-0.1,0.8-0.1,1.2-0.1c0.5,0,3,0,3,2.5c0,0.5-0.2,2.3-2.6,2.6c-0.5,0-1,0-1.5,0V381.9z
	 M241.4,388.4c0.3,0,0.5,0,0.9,0c0.9,0,3.9,0,3.9,3c0,1.9-1.4,2.7-3.4,2.7c-0.5,0-1,0-1.4-0.1L241.4,388.4L241.4,388.4z M261.2,390
	c-0.1-2.7-1.6-5.9-5.2-5.9c-3.2,0-5.3,2.6-5.3,6c0,3.4,2,6,5.2,6C259.3,396.1,261.2,393.2,261.2,390L261.2,390z M258.3,389.8
	c0.1,2.5-0.9,4.4-2.3,4.4c-1.5,0-2.5-2-2.5-4.5c0-2.2,0.8-4,2.3-4C257.1,385.7,258.2,387.2,258.3,389.8L258.3,389.8z M270.9,388
	c0-1.6,0-3.9-3.5-3.9c-2.7,0-4.4,1.3-4.4,2.7c0,0.6,0.5,1.2,1.1,1.2c0,0,0.1,0,0.1,0c0.8,0,1-0.6,1.2-1.1c0.2-0.7,0.8-1.2,1.5-1.2
	c1.3,0,1.3,1.2,1.3,2v1.1c-2.5,0.7-3.9,1-4.9,2c-0.6,0.6-1,1.4-1,2.2c0,3.1,3.6,3.1,4.3,3.1c1.1,0,2.2-0.2,3.2-0.7
	c0.9-0.5,0.9-1,1-2V388L270.9,388z M268.3,393.1c0.1,0.7-0.3,1.3-1,1.4c-0.1,0-0.3,0-0.4,0c-1,0.1-1.8-0.7-1.8-1.6
	c0-0.1,0-0.2,0-0.3c0-1.7,1.5-2.1,3.2-2.6V393.1z M275.9,386.8c0-0.6,0-1.3,1.2-1.3c0.5,0,0.9,0.2,1.1,0.6c0.3,0.5,0.5,0.8,1.1,0.8
	c0.6,0,1.2-0.5,1.2-1.1c0,0,0-0.1,0-0.1c0-1.3-1.3-1.7-2.6-1.7c-1.4,0-2.8,0.2-4,0.8c-0.5,0.2-0.8,0.7-0.6,1.3v9.2
	c0,0.4,0.1,0.5,0.5,0.5h1.8c0.4,0,0.4-0.1,0.5-0.5L275.9,386.8L275.9,386.8z M290.5,379.4c0-0.4-0.1-0.5-0.5-0.5h-1.7
	c-0.2-0.1-0.5,0.1-0.5,0.3c0,0.1,0,0.1,0,0.2v5.2c-0.6-0.4-1.3-0.6-2-0.6c-3.2,0-4.9,3.2-4.9,6.3c0,3.6,1.9,5.7,5.2,5.7
	c1.3,0,2.6-0.3,3.7-0.9c0.5-0.4,0.8-1,0.7-1.6V379.4z M287.8,392.6c0,0.7,0,1.7-1.4,1.7c-1.6,0-2.8-1.6-2.8-4.4c0-2.4,1-4.3,2.7-4.3
	c0.5,0,1,0.2,1.4,0.6V392.6L287.8,392.6z M308.8,390c-0.1-2.7-1.6-5.9-5.2-5.9c-3.2,0-5.3,2.6-5.3,6c0,3.4,2,6,5.2,6
	C307,396.1,308.9,393.2,308.8,390L308.8,390z M305.9,389.8c0.1,2.5-0.9,4.4-2.3,4.4c-1.5,0-2.5-2-2.5-4.5c0-2.2,0.8-4,2.3-4
	C304.8,385.7,305.8,387.2,305.9,389.8L305.9,389.8z M315.6,385.6c0.3,0,0.4,0,0.4-0.2c0-0.2,0-0.5,0-0.7c0-0.3-0.2-0.3-0.4-0.3h-1.7
	c-0.3-0.6-0.5-1.3-0.5-2c0-1.1,0.5-1.6,1.1-1.6c0.1,0,0.7,0.1,0.8,0.1c0.5,0,1-0.4,1-0.9c0,0,0,0,0-0.1c0-0.6-0.5-1.1-1.1-1.1
	c-0.1,0-0.1,0-0.2,0c-1.3,0.1-2.5,0.8-3,2c-0.5,1.1-0.8,2.4-0.8,3.6H310c-0.4,0-0.4,0.1-0.4,0.9c0,0.4,0.1,0.4,0.4,0.4h1.2v9.7
	c0,0.4,0.1,0.5,0.5,0.5h1.8c0.3,0,0.5,0,0.5-0.5v-9.7L315.6,385.6L315.6,385.6z M323.1,395c-0.1,0.3,0.1,0.6,0.4,0.7c0,0,0,0,0,0
	c1,0.2,2.1,0.3,3.2,0.3c2.5,0,5.2-0.6,6.9-2.4c2.9-3.3,2.8-8.3-0.3-11.5c-2.1-1.9-4.8-2-6.1-2c-1.3,0-2.5,0.1-3.7,0.4
	c-0.3,0.1-0.5,0.4-0.4,0.7L323.1,395L323.1,395z M326.1,382c0.3,0,0.6-0.1,1-0.1c1.7-0.1,3.3,0.7,4.4,2c0.8,1.2,1.2,2.6,1.1,4
	c0.1,1.4-0.3,2.8-1.1,4c-1.2,1.4-2.9,2.1-4.7,2c-0.2,0-0.4,0-0.7,0L326.1,382L326.1,382z M340.5,384.9c0-0.4-0.1-0.5-0.5-0.5h-1.9
	c-0.4,0-0.4,0.2-0.4,0.5v10.5c0,0.4,0,0.5,0.4,0.5h1.9c0.4,0,0.5-0.1,0.5-0.5V384.9L340.5,384.9z M340.5,381.4
	c0-0.7-0.6-1.3-1.3-1.3c0,0-0.1,0-0.1,0c-0.7-0.1-1.4,0.5-1.5,1.2c0,0.1,0,0.1,0,0.2c0.1,0.8,0.8,1.4,1.6,1.3
	C339.9,382.7,340.5,382.1,340.5,381.4L340.5,381.4z M345.5,386.8c0-0.6,0-1.3,1.2-1.3c0.5,0,0.9,0.2,1.1,0.6
	c0.3,0.5,0.5,0.8,1.1,0.8c0.6,0,1.2-0.5,1.2-1.1c0,0,0-0.1,0-0.1c0-1.3-1.3-1.7-2.6-1.7c-1.4,0-2.8,0.2-4,0.8
	c-0.5,0.2-0.8,0.7-0.6,1.3v9.2c0,0.4,0.1,0.5,0.5,0.5h1.8c0.4,0,0.4-0.1,0.5-0.5L345.5,386.8L345.5,386.8z M358.9,389.1
	c0.4,0,0.8-0.3,0.8-0.8c0,0,0-0.1,0-0.1c0-2.3-1.9-4.2-4.2-4.1c0,0,0,0,0,0c-2.4,0-4.9,1.6-4.9,6c0,3.9,2,6,4.9,6
	c2.2,0,4.1-1.6,4.4-3.8c0-0.3-0.2-0.6-0.5-0.7c0,0,0,0,0,0c-0.3,0-0.4,0.1-0.7,0.6c-0.6,0.9-1.6,1.4-2.6,1.5c-1.1,0-2.7-0.6-3-3.6
	L358.9,389.1z M352.7,388.7c0.1-1.5,0.8-2.9,2.3-2.9c1,0,1.8,0.8,1.9,2.2L352.7,388.7z M367.5,387.4c0.2,0.6,0.9,0.9,1.5,0.7
	c0.5-0.2,0.8-0.7,0.8-1.2c0-1.1-1.2-2.9-3.7-2.9c-3.6,0-5,3.1-5,6.1c0,3.1,1.5,5.9,4.6,5.9c2.2,0.1,4-1.6,4.1-3.8
	c0.1-0.4-0.2-0.7-0.5-0.8c0,0,0,0-0.1,0c-0.3,0.1-0.6,0.3-0.7,0.6c-0.4,0.9-1.3,1.4-2.2,1.5c-1.8,0-2.9-2-2.9-4.3
	c0-2,0.9-3.5,2.3-3.5C366.7,385.8,367.1,386.7,367.5,387.4L367.5,387.4z M376.3,385.6c0.4,0,0.4-0.1,0.4-0.9c0-0.3-0.2-0.3-0.4-0.3
	h-1.7v-2.6c0-0.3,0-0.6-0.3-0.6c-0.1,0-0.3,0.1-0.4,0.2l-1.6,1c-0.3,0.1-0.4,0.5-0.4,0.8v1.2h-1.1c-0.2,0-0.3,0-0.4,0.2
	c0,0,0,0.1,0,0.1c0,0.8,0,0.9,0.4,0.9h1.1v7.2c-0.1,0.8,0.2,1.6,0.6,2.2c0.6,0.7,1.5,1,2.4,1c0.9,0,2.1-0.4,2.1-1
	c0-0.6-0.4-0.6-1-0.6c-1.5-0.1-1.5-1.5-1.5-2.1v-6.8L376.3,385.6L376.3,385.6z M388,390c-0.1-2.7-1.6-5.9-5.2-5.9
	c-3.2,0-5.3,2.6-5.3,6c0,3.4,2,6,5.2,6C386.2,396.1,388.1,393.2,388,390L388,390z M385.2,389.8c0.1,2.5-0.9,4.4-2.3,4.4
	c-1.5,0-2.5-2-2.5-4.5c0-2.2,0.8-4,2.3-4C384,385.7,385.1,387.2,385.2,389.8L385.2,389.8z M392.6,386.8c0-0.6,0-1.3,1.2-1.3
	c0.5,0,0.9,0.2,1.1,0.6c0.3,0.5,0.5,0.8,1.1,0.8c0.6,0,1.2-0.5,1.2-1.1c0,0,0-0.1,0-0.1c0-1.3-1.3-1.7-2.6-1.7c-1.4,0-2.8,0.2-4,0.8
	c-0.5,0.2-0.8,0.7-0.6,1.3v9.2c0,0.4,0.1,0.5,0.5,0.5h1.8c0.4,0,0.4-0.1,0.5-0.5L392.6,386.8L392.6,386.8z"/>
<path id="Al_Muhaidib_Group_copy" class="st8" d="M955.4,564.7c0,0.3,0.3,0.5,0.6,0.4c0,0,0,0,0,0h2.2c0.2,0,0.3-0.1,0.4-0.2
	c0,0,0,0,0-0.1c0-0.1,0-0.2-0.1-0.3l-5.4-14.6c-0.1-0.2-0.3-0.4-0.5-0.3c0,0,0,0,0,0h-1.3c-0.2,0-0.5,0.1-0.5,0.4c0,0,0,0,0,0
	l-5.4,14.4c-0.1,0.1-0.1,0.3-0.1,0.4c0,0.2,0.2,0.3,0.4,0.3c0,0,0,0,0.1,0h1.5c0.3,0.1,0.5-0.1,0.6-0.4c0,0,0,0,0-0.1l1.6-4.5h4.5
	L955.4,564.7z M949.9,558.6l1.7-5.1l1.7,5.1H949.9z M959.7,564.6c0,0.4,0.1,0.5,0.5,0.5h1.7c0.4,0,0.5-0.1,0.5-0.5v-16
	c0-0.4-0.1-0.4-0.5-0.4h-1.7c-0.4,0-0.5,0.1-0.5,0.4V564.6L959.7,564.6z M983,564.6c0,0.4,0.1,0.5,0.5,0.5h1.8c0.4,0,0.5,0,0.5-0.5
	V550c0-0.4-0.1-0.4-0.5-0.4h-2.1c-0.3-0.1-0.6,0.1-0.7,0.4c0,0,0,0,0,0l-4.1,10l-4.3-10c0-0.3-0.3-0.5-0.6-0.5c0,0,0,0-0.1,0h-2.1
	c-0.2-0.1-0.4,0.1-0.5,0.3c0,0.1,0,0.1,0,0.2v14.6c0,0.4,0.1,0.5,0.5,0.5h1.3c0.2,0,0.4-0.1,0.5-0.3c0-0.1,0-0.1,0-0.2v-10.6
	l4.3,10.6c0,0.3,0.3,0.5,0.6,0.5c0.3,0,0.4-0.1,0.6-0.5l4.3-10.6L983,564.6L983,564.6z M997.3,554.1c0-0.4-0.2-0.5-0.5-0.5h-1.7
	c-0.2-0.1-0.4,0.1-0.5,0.3c0,0.1,0,0.1,0,0.2v7.6c0,0.7,0,1.8-1.8,1.8c-1.9,0-1.9-1.3-1.9-2v-7.4c0-0.2-0.1-0.4-0.3-0.5
	c-0.1,0-0.1,0-0.2,0h-1.8c-0.2-0.1-0.4,0.1-0.5,0.3c0,0.1,0,0.1,0,0.2v7.7c0,1.4,0.3,3.6,4.5,3.6c1.3,0,2.6-0.3,3.8-0.9
	c0.8-0.6,0.9-1.2,0.9-2.2V554.1L997.3,554.1z M1006,564.6c0,0.4,0.1,0.5,0.5,0.5h1.8c0.4,0,0.5-0.1,0.5-0.5v-7.5
	c0.1-0.9-0.2-1.7-0.6-2.4c-0.6-0.9-1.6-1.3-2.6-1.3c-1.2,0-2.3,0.4-3.1,1.3v-6c0-0.4-0.1-0.4-0.5-0.4h-1.8c-0.2-0.1-0.4,0.1-0.5,0.3
	c0,0.1,0,0.1,0,0.2v15.9c0,0.4,0.1,0.5,0.5,0.5h1.8c0.4,0,0.5-0.2,0.5-0.5v-8.4c0.5-0.5,1.2-0.8,1.9-0.9c0.6,0,1.1,0.3,1.4,0.8
	c0.2,0.5,0.3,1,0.3,1.6V564.6L1006,564.6z M1018.9,557.2c0-1.6,0-3.9-3.5-3.9c-2.7,0-4.4,1.3-4.4,2.7c0,0.6,0.5,1.2,1.1,1.2
	c0,0,0.1,0,0.1,0c0.8,0,1-0.6,1.2-1.1c0.2-0.7,0.8-1.2,1.5-1.2c1.3,0,1.3,1.2,1.3,2v1.1c-2.5,0.7-3.9,1-4.9,2c-0.6,0.6-1,1.4-1,2.2
	c0,3.1,3.6,3.1,4.3,3.1c1.1,0,2.2-0.2,3.2-0.7c0.9-0.5,0.9-1,1-2L1018.9,557.2L1018.9,557.2z M1016.3,562.4c0.1,0.7-0.3,1.3-1,1.4
	c-0.1,0-0.3,0-0.4,0c-1,0.1-1.8-0.7-1.8-1.6c0-0.1,0-0.2,0-0.3c0-1.7,1.5-2.1,3.2-2.6V562.4z M1023.9,554.2c0-0.4-0.1-0.5-0.5-0.5
	h-1.9c-0.4,0-0.4,0.2-0.4,0.5v10.5c0,0.4,0,0.5,0.4,0.5h1.9c0.4,0,0.5-0.1,0.5-0.5L1023.9,554.2L1023.9,554.2z M1024,550.7
	c0-0.7-0.6-1.3-1.3-1.3c0,0-0.1,0-0.1,0c-0.7-0.1-1.4,0.5-1.5,1.2c0,0.1,0,0.1,0,0.2c0.1,0.8,0.8,1.4,1.6,1.3
	C1023.4,552,1023.9,551.4,1024,550.7L1024,550.7z M1035.3,548.7c0-0.4-0.1-0.5-0.5-0.5h-1.7c-0.2-0.1-0.5,0.1-0.5,0.3
	c0,0.1,0,0.1,0,0.2v5.2c-0.6-0.4-1.3-0.6-2-0.6c-3.2,0-4.9,3.2-4.9,6.3c0,3.6,1.9,5.7,5.2,5.7c1.3,0,2.6-0.3,3.8-0.9
	c0.5-0.4,0.8-1,0.7-1.6V548.7L1035.3,548.7z M1032.6,561.9c0,0.7,0,1.7-1.4,1.7c-1.6,0-2.8-1.6-2.8-4.4c0-2.4,1-4.3,2.7-4.3
	c0.5,0,1,0.2,1.4,0.6L1032.6,561.9L1032.6,561.9z M1040.4,554.2c0-0.4-0.1-0.5-0.5-0.5h-1.9c-0.4,0-0.4,0.2-0.4,0.5v10.5
	c0,0.4,0,0.5,0.4,0.5h1.9c0.4,0,0.5-0.1,0.5-0.5L1040.4,554.2L1040.4,554.2z M1040.4,550.7c0-0.7-0.6-1.3-1.3-1.3c0,0-0.1,0-0.1,0
	c-0.7-0.1-1.4,0.5-1.5,1.2c0,0.1,0,0.1,0,0.2c0.1,0.8,0.8,1.4,1.6,1.3C1039.8,552,1040.4,551.4,1040.4,550.7L1040.4,550.7z
	 M1045.3,548.7c0-0.4-0.1-0.5-0.5-0.5h-1.7c-0.4,0-0.4,0.1-0.4,0.5v13.4c0,1.3,0,1.7,0.7,2.3c1,0.7,2.2,1.1,3.4,1
	c3.5,0,5.6-2.7,5.6-6.6c0-3.1-1.4-5.4-3.8-5.4c-1.2,0-2.3,0.5-3.1,1.3L1045.3,548.7L1045.3,548.7z M1045.3,556.1
	c0.5-0.5,1.1-0.8,1.8-0.8c2.1,0,2.4,2.9,2.4,4c0,2.9-1.3,4.3-2.6,4.3c-0.8,0-1.4-0.5-1.5-1.3c0-0.3-0.1-0.6,0-1V556.1L1045.3,556.1z
	 M1069.4,561.5c0.1,0.5-0.1,1.1-0.5,1.5c-0.5,0.3-1.1,0.4-1.6,0.4c-2.9,0-4.4-2.8-4.4-6.5c0-4,1.7-5.9,3.9-5.9
	c1.2,0,2.2,0.7,2.7,1.7c0.2,0.6,0.8,1,1.5,1.1c0.7,0,1.3-0.5,1.3-1.2c0,0,0,0,0-0.1c0-1.2-1.7-3.3-5.4-3.3c-4.4,0-7.2,3.4-7.2,8.2
	c0,3.8,1.8,8.1,7.4,8.1c2.6,0,4.2-0.9,4.8-1.7c0.3-0.3,0.4-0.8,0.4-1.3v-5c0-0.4,0-0.6-0.5-0.6h-4.7c-0.3,0-0.5,0-0.5,0.4
	c0,0.4,0,1.1,0,1.1c0,0.2,0.2,0.3,0.5,0.3h2.3V561.5L1069.4,561.5z M1077,556.1c0-0.6,0-1.3,1.2-1.3c0.5,0,0.9,0.2,1.1,0.6
	c0.3,0.5,0.5,0.8,1.1,0.8c0.6,0,1.2-0.5,1.2-1.1c0,0,0-0.1,0-0.1c0-1.3-1.3-1.7-2.6-1.7c-1.4,0-2.8,0.2-4,0.8
	c-0.5,0.2-0.8,0.7-0.6,1.3v9.2c0,0.4,0.1,0.5,0.5,0.5h1.8c0.4,0,0.4-0.1,0.5-0.5L1077,556.1L1077,556.1z M1092.5,559.3
	c-0.1-2.7-1.6-5.9-5.2-5.9c-3.2,0-5.3,2.6-5.3,6c0,3.4,2,6,5.2,6C1090.7,565.4,1092.6,562.5,1092.5,559.3L1092.5,559.3z
	 M1089.7,559.1c0.1,2.5-0.9,4.4-2.3,4.4c-1.5,0-2.5-2-2.5-4.5c0-2.2,0.8-4,2.3-4C1088.5,555,1089.6,556.5,1089.7,559.1L1089.7,559.1
	z M1103.6,554.1c0-0.4-0.2-0.5-0.5-0.5h-1.7c-0.2-0.1-0.4,0.1-0.5,0.3c0,0.1,0,0.1,0,0.2v7.6c0,0.7,0,1.8-1.8,1.8
	c-1.9,0-1.9-1.3-1.9-2v-7.4c0-0.2-0.1-0.4-0.3-0.5c-0.1,0-0.1,0-0.2,0h-1.8c-0.2-0.1-0.4,0.1-0.5,0.3c0,0.1,0,0.1,0,0.2v7.7
	c0,1.4,0.3,3.6,4.5,3.6c1.3,0,2.6-0.3,3.8-0.9c0.8-0.6,0.9-1.2,0.9-2.2V554.1L1103.6,554.1z M1105.9,569.8c0,0.4,0.2,0.5,0.6,0.5
	h1.7c0.2,0,0.4-0.1,0.4-0.3c0-0.1,0-0.1,0-0.2v-5c0.6,0.4,1.3,0.6,2,0.6c3.3,0,4.9-3.4,4.9-6.5c0.1-1.5-0.5-3.1-1.5-4.2
	c-1-0.9-2.3-1.4-3.7-1.3c-2,0-3.7,0.7-4.2,1.3c-0.3,0.4-0.3,0.7-0.3,1.5V569.8L1105.9,569.8z M1108.6,556.5c0-0.6,0-1.5,1.4-1.5
	c1.4,0,2.7,1.3,2.7,4.3c0,2.4-0.9,4.3-2.5,4.3c-0.6,0-1.1-0.2-1.6-0.5V556.5L1108.6,556.5z"/>
<path id="Board_of_Director_copy_3" class="st8" d="M952.1,394.8c0,0.6,0.1,0.7,0.5,0.8c1.1,0.2,2.3,0.3,3.5,0.3
	c1.5,0.1,3-0.1,4.4-0.6c1.5-0.6,2.5-2.1,2.5-3.7c0-1.9-1.3-3.6-3.2-4c-0.2,0-0.3-0.1-0.5-0.1c0.2-0.1,0.3-0.1,0.5-0.2
	c1.4-0.6,2.3-1.9,2.4-3.4c0-1.2-0.6-2.4-1.7-3c-1.1-0.7-2.8-0.9-4.4-0.9c-1.2,0-2.4,0.1-3.5,0.3c-0.3,0.1-0.5,0.4-0.4,0.7V394.8
	L952.1,394.8z M955,381.9c0.4-0.1,0.8-0.1,1.2-0.1c0.5,0,3,0,3,2.5c0,0.5-0.2,2.3-2.6,2.6c-0.5,0-1,0-1.5,0V381.9z M955,388.4
	c0.3,0,0.5,0,0.9,0c0.9,0,3.9,0,3.9,3c0,1.9-1.4,2.7-3.4,2.7c-0.5,0-1,0-1.4-0.1V388.4z M974.8,390c-0.1-2.7-1.6-5.9-5.2-5.9
	c-3.2,0-5.3,2.6-5.3,6c0,3.4,2,6,5.2,6C973,396.1,974.9,393.2,974.8,390z M972,389.8c0.1,2.5-0.9,4.4-2.3,4.4c-1.5,0-2.5-2-2.5-4.5
	c0-2.2,0.8-4,2.3-4C970.8,385.7,971.9,387.2,972,389.8L972,389.8z M984.6,388c0-1.6,0-3.9-3.5-3.9c-2.7,0-4.4,1.3-4.4,2.7
	c0,0.6,0.5,1.2,1.1,1.2c0,0,0.1,0,0.1,0c0.8,0,1-0.6,1.2-1.1c0.2-0.7,0.8-1.2,1.5-1.2c1.3,0,1.3,1.2,1.3,2v1.1c-2.5,0.7-3.9,1-4.9,2
	c-0.6,0.6-1,1.4-1,2.2c0,3.1,3.6,3.1,4.3,3.1c1.1,0,2.2-0.2,3.2-0.7c0.9-0.5,0.9-1,1-2L984.6,388L984.6,388z M982,393.1
	c0.1,0.7-0.3,1.3-1,1.4c-0.1,0-0.3,0-0.4,0c-1,0.1-1.8-0.7-1.8-1.6c0-0.1,0-0.2,0-0.3c0-1.7,1.5-2.1,3.2-2.6V393.1z M989.5,386.8
	c0-0.6,0-1.3,1.2-1.3c0.5,0,0.9,0.2,1.1,0.6c0.3,0.5,0.5,0.8,1.1,0.8c0.6,0,1.2-0.5,1.2-1.1c0,0,0,0,0-0.1c0-1.3-1.3-1.7-2.6-1.7
	c-1.4,0-2.8,0.2-4,0.8c-0.5,0.2-0.8,0.7-0.6,1.3v9.2c0,0.4,0.1,0.5,0.5,0.5h1.8c0.4,0,0.4-0.1,0.5-0.5L989.5,386.8L989.5,386.8z
	 M1004.2,379.4c0-0.4-0.1-0.5-0.5-0.5h-1.7c-0.2-0.1-0.5,0.1-0.5,0.3c0,0.1,0,0.1,0,0.2v5.2c-0.6-0.4-1.3-0.6-2-0.6
	c-3.2,0-4.9,3.2-4.9,6.3c0,3.6,1.9,5.7,5.2,5.7c1.3,0,2.6-0.3,3.7-0.9c0.5-0.4,0.8-1,0.7-1.6V379.4z M1001.5,392.6
	c0,0.7,0,1.7-1.4,1.7c-1.6,0-2.8-1.6-2.8-4.4c0-2.4,1-4.3,2.7-4.3c0.5,0,1,0.2,1.4,0.6V392.6L1001.5,392.6z M1022.5,390
	c-0.1-2.7-1.6-5.9-5.2-5.9c-3.2,0-5.3,2.6-5.3,6c0,3.4,2,6,5.2,6C1020.6,396.1,1022.5,393.2,1022.5,390L1022.5,390z M1019.6,389.8
	c0.1,2.5-0.9,4.4-2.3,4.4c-1.5,0-2.5-2-2.5-4.5c0-2.2,0.8-4,2.3-4C1018.4,385.7,1019.5,387.2,1019.6,389.8L1019.6,389.8z
	 M1029.3,385.6c0.3,0,0.4,0,0.4-0.2c0-0.2,0-0.5,0-0.7c0-0.3-0.2-0.3-0.4-0.3h-1.7c-0.3-0.6-0.5-1.3-0.5-2c0-1.1,0.5-1.6,1.1-1.6
	c0.1,0,0.7,0.1,0.8,0.1c0.5,0,1-0.4,1-0.9c0,0,0,0,0-0.1c0-0.6-0.5-1.1-1.1-1.1c-0.1,0-0.1,0-0.2,0c-1.3,0.1-2.5,0.8-3,2
	c-0.5,1.1-0.8,2.4-0.8,3.6h-1.2c-0.4,0-0.4,0.1-0.4,0.9c0,0.4,0.1,0.4,0.4,0.4h1.2v9.7c0,0.4,0.1,0.5,0.5,0.5h1.8
	c0.3,0,0.5,0,0.5-0.5v-9.7L1029.3,385.6L1029.3,385.6z M1036.8,395c-0.1,0.3,0.1,0.6,0.4,0.7c0,0,0,0,0,0c1,0.2,2.1,0.3,3.2,0.3
	c2.5,0,5.2-0.6,6.9-2.4c2.9-3.3,2.8-8.3-0.3-11.5c-2.1-1.9-4.8-2-6.1-2c-1.3,0-2.5,0.1-3.7,0.4c-0.3,0.1-0.5,0.4-0.4,0.7V395
	L1036.8,395z M1039.8,382c0.3,0,0.6-0.1,1-0.1c1.7-0.1,3.3,0.7,4.4,2c0.8,1.2,1.2,2.6,1.1,4c0.1,1.4-0.3,2.8-1.1,4
	c-1.2,1.4-2.9,2.1-4.7,2c-0.2,0-0.4,0-0.7,0V382L1039.8,382z M1054.1,384.9c0-0.4-0.1-0.5-0.5-0.5h-1.9c-0.4,0-0.4,0.2-0.4,0.5v10.5
	c0,0.4,0,0.5,0.4,0.5h1.9c0.4,0,0.5-0.1,0.5-0.5L1054.1,384.9L1054.1,384.9z M1054.2,381.4c0-0.7-0.6-1.3-1.3-1.3c0,0-0.1,0-0.1,0
	c-0.7-0.1-1.4,0.5-1.5,1.2c0,0.1,0,0.1,0,0.2c0.1,0.8,0.8,1.4,1.6,1.3C1053.6,382.7,1054.1,382.1,1054.2,381.4L1054.2,381.4z
	 M1059.1,386.8c0-0.6,0-1.3,1.2-1.3c0.5,0,0.9,0.2,1.1,0.6c0.3,0.5,0.5,0.8,1.1,0.8c0.6,0,1.2-0.5,1.2-1.1c0,0,0-0.1,0-0.1
	c0-1.3-1.3-1.7-2.6-1.7c-1.4,0-2.8,0.2-4,0.8c-0.5,0.2-0.8,0.7-0.6,1.3v9.2c0,0.4,0.1,0.5,0.5,0.5h1.8c0.4,0,0.4-0.1,0.5-0.5V386.8
	L1059.1,386.8z M1072.6,389.1c0.4,0,0.8-0.3,0.8-0.8c0,0,0-0.1,0-0.1c0-2.3-1.9-4.2-4.2-4.1c0,0,0,0,0,0c-2.4,0-4.9,1.6-4.9,6
	c0,3.9,2,6,4.9,6c2.2,0,4.1-1.6,4.4-3.8c0-0.3-0.2-0.6-0.6-0.7c0,0,0,0,0,0c-0.3,0-0.4,0.1-0.7,0.6c-0.6,0.9-1.6,1.4-2.6,1.5
	c-1.1,0-2.7-0.6-3-3.6L1072.6,389.1z M1066.4,388.7c0.1-1.5,0.8-2.9,2.3-2.9c1,0,1.8,0.8,1.9,2.2L1066.4,388.7z M1081.1,387.4
	c0.2,0.6,0.9,0.9,1.5,0.7c0.5-0.2,0.8-0.7,0.8-1.2c0-1.1-1.2-2.9-3.7-2.9c-3.6,0-5,3.1-5,6.1c0,3.1,1.5,5.9,4.6,5.9
	c2.2,0.1,4-1.6,4.1-3.8c0.1-0.4-0.2-0.7-0.5-0.8c0,0,0,0-0.1,0c-0.3,0.1-0.6,0.3-0.7,0.6c-0.4,0.9-1.3,1.4-2.2,1.5
	c-1.8,0-2.9-2-2.9-4.3c0-2,0.9-3.5,2.3-3.5C1080.4,385.8,1080.8,386.7,1081.1,387.4L1081.1,387.4z M1090,385.6
	c0.4,0,0.4-0.1,0.4-0.9c0-0.3-0.2-0.3-0.4-0.3h-1.7v-2.6c0-0.3,0-0.6-0.3-0.6c-0.1,0-0.3,0.1-0.4,0.2l-1.6,1
	c-0.3,0.1-0.4,0.5-0.4,0.8v1.2h-1.1c-0.3,0-0.4,0.1-0.4,0.4c0,0.8,0,0.9,0.4,0.9h1.1v7.2c-0.1,0.8,0.2,1.6,0.6,2.2
	c0.6,0.7,1.5,1,2.4,1c0.9,0,2.1-0.4,2.1-1c0-0.6-0.4-0.6-1-0.6c-1.5-0.1-1.5-1.5-1.5-2.1v-6.8L1090,385.6L1090,385.6z M1101.7,390
	c-0.1-2.7-1.6-5.9-5.2-5.9c-3.2,0-5.3,2.6-5.3,6c0,3.4,2,6,5.2,6C1099.9,396.1,1101.8,393.2,1101.7,390L1101.7,390z M1098.8,389.8
	c0.1,2.5-0.9,4.4-2.3,4.4c-1.5,0-2.5-2-2.5-4.5c0-2.2,0.8-4,2.3-4C1097.6,385.7,1098.7,387.2,1098.8,389.8L1098.8,389.8z
	 M1106.3,386.8c0-0.6,0-1.3,1.2-1.3c0.5,0,0.9,0.2,1.1,0.6c0.3,0.5,0.5,0.8,1.1,0.8c0.6,0,1.1-0.5,1.2-1.1c0,0,0-0.1,0-0.1
	c0-1.3-1.3-1.7-2.6-1.7c-1.4,0-2.8,0.2-4,0.8c-0.5,0.2-0.8,0.7-0.6,1.3v9.2c0,0.4,0.1,0.5,0.5,0.5h1.8c0.4,0,0.4-0.1,0.5-0.5V386.8
	L1106.3,386.8z"/>
<path id="Shareholders_Council_copy" class="st8" d="M939.9,214.3c-1.5-0.7-2.6-1.3-2.6-2.7c0-1,0.8-1.9,1.8-2c0,0,0.1,0,0.1,0
	c0.9,0.1,1.8,0.6,2.1,1.5c0.2,0.6,0.7,1,1.3,1c0.7,0,1.2-0.5,1.3-1.2c0,0,0,0,0-0.1c0-1.3-1.7-2.9-4.7-2.9c-2.7,0-4.7,1.6-4.7,4.3
	c0,2.7,2.2,3.8,3,4.3l1.2,0.6c1.8,0.9,2.9,1.5,2.9,3.1c0,1.1-0.8,2-1.9,2.1c-0.1,0-0.1,0-0.2,0c-1.1-0.1-2-0.8-2.4-1.8
	c-0.3-0.6-0.7-1.3-1.6-1.3c-0.7,0-1.3,0.6-1.3,1.3c0,0,0,0,0,0.1c0,1.3,1.5,3.6,5,3.6c2.9,0,5.1-1.7,5.1-4.5c0-2.9-2.2-4.1-3.6-4.8
	L939.9,214.3z M952.9,223.3c0,0.4,0.1,0.5,0.5,0.5h1.8c0.4,0,0.5-0.1,0.5-0.5v-7.5c0-0.9-0.2-1.7-0.6-2.4c-0.6-0.9-1.6-1.3-2.6-1.3
	c-1.2,0-2.3,0.4-3.2,1.3v-6c0-0.4-0.1-0.4-0.5-0.4H947c-0.2,0-0.4,0.1-0.5,0.3c0,0.1,0,0.1,0,0.2v15.9c0,0.4,0.1,0.5,0.5,0.5h1.8
	c0.4,0,0.5-0.2,0.5-0.5v-8.4c0.5-0.5,1.2-0.8,1.9-0.9c0.6,0,1.1,0.3,1.4,0.8c0.2,0.5,0.3,1,0.3,1.6V223.3L952.9,223.3z M965.8,215.9
	c0-1.6,0-3.9-3.5-3.9c-2.7,0-4.4,1.3-4.4,2.7c0,0.6,0.5,1.2,1.1,1.2c0,0,0.1,0,0.1,0c0.8,0,1-0.6,1.2-1.1c0.2-0.7,0.8-1.2,1.5-1.2
	c1.3,0,1.3,1.2,1.3,2v1.1c-2.5,0.7-3.9,1-4.9,2c-0.6,0.6-1,1.4-1,2.2c0,3.1,3.6,3.1,4.3,3.1c1.1,0,2.2-0.2,3.2-0.7
	c0.9-0.5,0.9-1,1-2L965.8,215.9L965.8,215.9z M963.2,221.1c0.1,0.7-0.3,1.3-1,1.4c-0.1,0-0.3,0-0.4,0c-1,0.1-1.8-0.7-1.8-1.6
	c0-0.1,0-0.2,0-0.3c0-1.7,1.5-2.1,3.2-2.6V221.1z M970.8,214.8c0-0.6,0-1.3,1.2-1.3c0.5,0,0.9,0.2,1.1,0.6c0.3,0.5,0.5,0.8,1.1,0.8
	c0.6,0,1.1-0.5,1.2-1.1c0,0,0-0.1,0-0.1c0-1.3-1.3-1.7-2.6-1.7c-1.4,0-2.8,0.2-4,0.8c-0.5,0.2-0.7,0.7-0.6,1.3v9.2
	c0,0.4,0.1,0.5,0.5,0.5h1.8c0.4,0,0.4-0.1,0.5-0.5L970.8,214.8L970.8,214.8z M984.2,217.1c0.4,0,0.8-0.3,0.8-0.8c0,0,0-0.1,0-0.1
	c0-2.3-1.9-4.2-4.2-4.1c0,0,0,0,0,0c-2.4,0-4.9,1.6-4.9,6c0,3.9,2,6,4.9,6c2.2,0,4.1-1.6,4.4-3.8c0-0.3-0.2-0.6-0.5-0.7c0,0,0,0,0,0
	c-0.3,0-0.4,0.1-0.8,0.6c-0.6,0.9-1.6,1.4-2.6,1.5c-1.1,0-2.7-0.6-3-3.6L984.2,217.1z M978,216.6c0.1-1.5,0.8-2.9,2.3-2.9
	c1,0,1.8,0.8,1.9,2.2L978,216.6z M993.2,223.3c0,0.4,0.1,0.5,0.5,0.5h1.8c0.4,0,0.5-0.1,0.5-0.5v-7.5c0-0.9-0.2-1.7-0.6-2.4
	c-0.6-0.9-1.6-1.3-2.6-1.3c-1.2,0-2.3,0.4-3.2,1.3v-6c0-0.4-0.1-0.4-0.5-0.4h-1.8c-0.2,0-0.4,0.1-0.5,0.3c0,0.1,0,0.1,0,0.2v15.9
	c0,0.4,0.1,0.5,0.5,0.5h1.8c0.4,0,0.5-0.2,0.5-0.5v-8.4c0.5-0.5,1.2-0.8,1.9-0.9c0.6,0,1.1,0.3,1.4,0.8c0.2,0.5,0.3,1,0.3,1.6V223.3
	L993.2,223.3z M1008.3,217.9c-0.1-2.7-1.6-5.9-5.2-5.9c-3.2,0-5.3,2.6-5.3,6c0,3.4,2,6,5.2,6C1006.5,224,1008.4,221.1,1008.3,217.9
	L1008.3,217.9z M1005.5,217.8c0.1,2.5-0.9,4.4-2.3,4.4c-1.5,0-2.5-2-2.5-4.5c0-2.2,0.8-4,2.3-4
	C1004.3,213.7,1005.3,215.2,1005.5,217.8L1005.5,217.8z M1010.2,223.3c0,0.4,0.1,0.5,0.5,0.5h1.7c0.4,0,0.5-0.1,0.5-0.5v-16
	c0-0.4-0.1-0.4-0.5-0.4h-1.7c-0.4,0-0.5,0.1-0.5,0.4V223.3L1010.2,223.3z M1024.4,207.4c0-0.4-0.1-0.5-0.5-0.5h-1.7
	c-0.2-0.1-0.5,0.1-0.5,0.3c0,0.1,0,0.1,0,0.2v5.2c-0.6-0.4-1.3-0.6-2-0.6c-3.2,0-4.9,3.2-4.9,6.3c0,3.6,1.9,5.7,5.2,5.7
	c1.3,0,2.6-0.3,3.7-0.9c0.5-0.4,0.8-1,0.7-1.6V207.4L1024.4,207.4z M1021.6,220.6c0,0.7,0,1.7-1.4,1.7c-1.6,0-2.8-1.6-2.8-4.4
	c0-2.4,1-4.3,2.7-4.3c0.5,0,1,0.2,1.4,0.6L1021.6,220.6L1021.6,220.6z M1034.6,217.1c0.4,0,0.8-0.3,0.8-0.8c0,0,0-0.1,0-0.1
	c0-2.3-1.9-4.2-4.2-4.1c0,0,0,0,0,0c-2.4,0-4.9,1.6-4.9,6c0,3.9,2,6,4.9,6c2.2,0,4.1-1.6,4.4-3.8c0-0.3-0.2-0.6-0.6-0.7c0,0,0,0,0,0
	c-0.3,0-0.4,0.1-0.7,0.6c-0.6,0.9-1.6,1.4-2.6,1.5c-1.1,0-2.7-0.6-3-3.6L1034.6,217.1z M1028.4,216.6c0.1-1.5,0.8-2.9,2.3-2.9
	c1,0,1.8,0.8,1.9,2.2L1028.4,216.6z M1039.9,214.8c0-0.6,0-1.3,1.2-1.3c0.5,0,0.9,0.2,1.1,0.6c0.3,0.5,0.5,0.8,1.1,0.8
	c0.6,0,1.1-0.5,1.2-1.1c0,0,0-0.1,0-0.1c0-1.3-1.3-1.7-2.6-1.7c-1.4,0-2.8,0.2-4,0.8c-0.5,0.2-0.7,0.7-0.6,1.3v9.2
	c0,0.4,0.1,0.5,0.5,0.5h1.8c0.4,0,0.4-0.1,0.5-0.5L1039.9,214.8L1039.9,214.8z M1049.4,216.7c-0.8-0.3-1.7-0.7-1.7-1.9
	c0-0.7,0.6-1.3,1.3-1.3c0,0,0,0,0,0c0.7,0,1.3,0.4,1.5,1.1c0.2,0.5,0.7,0.9,1.2,0.9c0.6,0,1-0.4,1.1-1c0,0,0,0,0-0.1
	c0-0.9-1-2.4-3.7-2.4c-2.8,0-3.8,1.7-3.8,3.2c0,2,1.8,2.9,2.4,3.2c0.6,0.3,1.9,0.9,2.2,1.1c0.4,0.3,0.7,0.8,0.7,1.4
	c0,0.7-0.6,1.3-1.3,1.4c0,0-0.1,0-0.1,0c-0.9,0-1.3-0.6-1.8-1.3c-0.2-0.5-0.7-0.8-1.2-0.9c-0.6,0-1.1,0.5-1.1,1.2c0,0,0,0,0,0
	c0,0.9,1.1,2.7,4.1,2.7c3.3,0,4-2.2,4-3.5c0-2.1-1.6-2.9-2.6-3.4L1049.4,216.7z M1070.4,211.7c0.2,0.4,0.7,0.7,1.2,0.7
	c0.7,0,1.3-0.5,1.3-1.2c0,0,0,0,0-0.1c0-1.3-1.9-3.2-5.2-3.2c-4.5,0-7.1,3.6-7.1,8c0,4.2,2.2,8.2,7.2,8.2c3.2,0,4.9-1.9,4.9-2.8
	c0-0.4-0.3-0.7-0.7-0.7c0,0,0,0,0,0c-0.3,0-0.6,0.2-0.8,0.4c-0.8,0.6-1.7,0.9-2.7,0.9c-2.6,0-4.7-2.4-4.7-6.7c0-3.5,1.7-5.5,3.7-5.5
	C1069,209.6,1069.7,210.7,1070.4,211.7L1070.4,211.7z M1084.3,217.9c-0.1-2.7-1.6-5.9-5.2-5.9c-3.2,0-5.3,2.6-5.3,6c0,3.4,2,6,5.2,6
	C1082.5,224,1084.4,221.1,1084.3,217.9L1084.3,217.9z M1081.5,217.8c0.1,2.5-0.9,4.4-2.3,4.4c-1.5,0-2.5-2-2.5-4.5
	c0-2.2,0.8-4,2.3-4C1080.3,213.7,1081.3,215.2,1081.5,217.8L1081.5,217.8z M1095.3,212.8c0-0.4-0.2-0.5-0.5-0.5h-1.7
	c-0.2-0.1-0.4,0.1-0.5,0.3c0,0.1,0,0.1,0,0.2v7.6c0,0.7,0,1.8-1.8,1.8c-1.9,0-1.9-1.3-1.9-2v-7.4c0-0.2-0.1-0.4-0.3-0.5
	c-0.1,0-0.1,0-0.2,0h-1.8c-0.2-0.1-0.4,0.1-0.5,0.3c0,0.1,0,0.1,0,0.2v7.7c0,1.4,0.3,3.6,4.5,3.6c1.3,0,2.6-0.3,3.8-0.9
	c0.8-0.6,0.9-1.2,0.9-2.2L1095.3,212.8L1095.3,212.8z M1106.8,215.5c0.1-1-0.3-2-1-2.6c-0.4-0.3-1.1-0.9-3.4-0.9
	c-1.3,0-2.5,0.2-3.7,0.7c-1,0.5-1,1-1,1.9v8.7c-0.1,0.2,0.1,0.4,0.3,0.5c0.1,0,0.1,0,0.2,0h1.7c0.4,0,0.5-0.1,0.5-0.5v-7.8
	c-0.1-0.9,0.4-1.7,1.3-1.8c0.2,0,0.3,0,0.5,0c1.9,0,1.9,1.4,1.9,2.2v7.4c0,0.3,0,0.5,0.5,0.5h1.8c0.4,0,0.5-0.1,0.5-0.5V215.5
	L1106.8,215.5z M1115,215.4c0.2,0.6,0.9,0.9,1.5,0.7c0.5-0.2,0.8-0.7,0.8-1.2c0-1.1-1.2-2.9-3.7-2.9c-3.6,0-5,3.1-5,6.1
	c0,3.1,1.5,5.9,4.6,5.9c2.2,0.1,4-1.6,4.1-3.8c0.1-0.4-0.2-0.7-0.5-0.8c0,0,0,0-0.1,0c-0.3,0.1-0.6,0.3-0.7,0.6
	c-0.4,0.9-1.3,1.4-2.2,1.5c-1.8,0-2.9-2-2.9-4.3c0-2,0.9-3.5,2.3-3.5C1114.3,213.8,1114.7,214.6,1115,215.4L1115,215.4z
	 M1121.9,212.8c0-0.4-0.1-0.5-0.5-0.5h-1.9c-0.4,0-0.4,0.2-0.4,0.5v10.5c0,0.4,0,0.5,0.4,0.5h1.9c0.4,0,0.5-0.1,0.5-0.5
	L1121.9,212.8L1121.9,212.8z M1122,209.4c0-0.7-0.6-1.3-1.3-1.3c0,0-0.1,0-0.1,0c-0.7-0.1-1.4,0.5-1.5,1.2c0,0.1,0,0.1,0,0.2
	c0.1,0.8,0.8,1.4,1.6,1.3C1121.4,210.7,1121.9,210.1,1122,209.4L1122,209.4z M1124.1,223.3c0,0.4,0.1,0.5,0.5,0.5h1.7
	c0.4,0,0.5-0.1,0.5-0.5v-16c0-0.4-0.1-0.4-0.5-0.4h-1.7c-0.4,0-0.5,0.1-0.5,0.4V223.3L1124.1,223.3z"/>
<path id="Foundation_Committee_copy" class="st8" d="M222.7,560.7c0.3,0,0.4,0,0.5-0.3c0-0.1,0-1.1,0-1.3c0-0.4-0.1-0.4-0.5-0.4
	h-4.2v-4.5h5.1c0.4,0,0.5-0.2,0.5-0.5v-1.1c0-0.4-0.2-0.4-0.5-0.4H216c-0.2,0-0.4,0.1-0.5,0.3c0,0.1,0,0.1,0,0.2v14.6
	c0,0.4,0.1,0.5,0.5,0.5h2c0.3,0,0.5,0,0.5-0.5v-6.7L222.7,560.7L222.7,560.7z M235.1,562c-0.1-2.7-1.6-5.9-5.2-5.9
	c-3.2,0-5.3,2.6-5.3,6c0,3.4,2,6,5.2,6C233.3,568.1,235.2,565.2,235.1,562z M232.2,561.9c0.1,2.5-0.9,4.4-2.3,4.4
	c-1.5,0-2.5-2-2.5-4.5c0-2.2,0.8-4,2.3-4C231,557.8,232.1,559.3,232.2,561.9L232.2,561.9z M246.1,556.9c0-0.4-0.2-0.5-0.5-0.5h-1.7
	c-0.2-0.1-0.4,0.1-0.5,0.3c0,0.1,0,0.1,0,0.2v7.6c0,0.7,0,1.8-1.8,1.8c-1.9,0-1.9-1.3-1.9-2v-7.4c0-0.2-0.1-0.4-0.3-0.5
	c-0.1,0-0.1,0-0.2,0h-1.8c-0.2-0.1-0.4,0.1-0.5,0.3c0,0.1,0,0.1,0,0.2v7.7c0,1.4,0.3,3.6,4.5,3.6c1.3,0,2.6-0.3,3.8-0.9
	c0.8-0.6,0.9-1.2,0.9-2.2V556.9z M257.5,559.6c0.1-1-0.3-2-1-2.6c-0.4-0.3-1.1-0.9-3.3-0.9c-1.3,0-2.5,0.2-3.7,0.7c-1,0.5-1,1-1,1.9
	v8.7c-0.1,0.2,0.1,0.4,0.3,0.5c0.1,0,0.1,0,0.2,0h1.7c0.4,0,0.5-0.1,0.5-0.5v-7.8c-0.1-0.9,0.4-1.7,1.3-1.8c0.2,0,0.3,0,0.5,0
	c1.9,0,1.9,1.4,1.9,2.2v7.4c0,0.3,0,0.5,0.5,0.5h1.8c0.4,0,0.5-0.1,0.5-0.5L257.5,559.6L257.5,559.6z M269,551.5
	c0-0.4-0.1-0.5-0.5-0.5h-1.7c-0.2-0.1-0.5,0.1-0.5,0.3c0,0.1,0,0.1,0,0.2v5.2c-0.6-0.4-1.3-0.6-2-0.6c-3.2,0-4.9,3.2-4.9,6.3
	c0,3.6,1.9,5.7,5.2,5.7c1.3,0,2.6-0.3,3.7-0.9c0.5-0.4,0.8-1,0.7-1.6V551.5z M266.3,564.7c0,0.7,0,1.7-1.4,1.7
	c-1.6,0-2.8-1.6-2.8-4.4c0-2.4,1-4.3,2.7-4.3c0.5,0,1,0.2,1.4,0.6V564.7L266.3,564.7z M279.2,560c0-1.6,0-3.9-3.5-3.9
	c-2.7,0-4.4,1.3-4.4,2.7c0,0.6,0.5,1.2,1.1,1.2c0,0,0.1,0,0.1,0c0.8,0,1-0.6,1.2-1.1c0.2-0.7,0.8-1.2,1.5-1.2c1.3,0,1.3,1.2,1.3,2
	v1.1c-2.5,0.7-3.9,1-4.9,2c-0.6,0.6-1,1.4-1,2.2c0,3.1,3.6,3.1,4.3,3.1c1.1,0,2.2-0.2,3.2-0.7c0.9-0.5,0.9-1,1-2L279.2,560
	L279.2,560z M276.6,565.2c0.1,0.7-0.3,1.3-1,1.4c-0.1,0-0.3,0-0.4,0c-1,0.1-1.8-0.7-1.8-1.6c0-0.1,0-0.2,0-0.3
	c0-1.7,1.5-2.1,3.2-2.6V565.2z M286.1,557.6c0.4,0,0.4-0.1,0.4-0.9c0-0.3-0.2-0.3-0.4-0.3h-1.7v-2.6c0-0.3,0-0.6-0.3-0.6
	c-0.1,0-0.3,0.1-0.4,0.2l-1.6,1c-0.3,0.1-0.4,0.5-0.4,0.8v1.2h-1.1c-0.2,0-0.3,0-0.4,0.2c0,0,0,0.1,0,0.1c0,0.8,0,0.9,0.4,0.9h1.1
	v7.2c-0.1,0.8,0.2,1.6,0.6,2.2c0.6,0.7,1.5,1,2.4,1c0.9,0,2.1-0.4,2.1-1c0-0.6-0.4-0.6-1-0.6c-1.5-0.1-1.5-1.5-1.5-2.1v-6.8H286.1
	L286.1,557.6z M290.6,556.9c0-0.4-0.1-0.5-0.5-0.5h-1.9c-0.4,0-0.4,0.2-0.4,0.5v10.5c0,0.4,0,0.5,0.4,0.5h1.9c0.4,0,0.5-0.1,0.5-0.5
	V556.9L290.6,556.9z M290.6,553.5c0-0.7-0.6-1.3-1.3-1.3c0,0-0.1,0-0.1,0c-0.7-0.1-1.4,0.5-1.5,1.2c0,0.1,0,0.1,0,0.2
	c0.1,0.8,0.8,1.4,1.6,1.3C290,554.8,290.6,554.2,290.6,553.5L290.6,553.5z M302.9,562c-0.1-2.7-1.6-5.9-5.2-5.9
	c-3.2,0-5.3,2.6-5.3,6c0,3.4,2,6,5.2,6C301,568.1,302.9,565.2,302.9,562L302.9,562z M300,561.9c0.1,2.5-0.9,4.4-2.3,4.4
	c-1.5,0-2.5-2-2.5-4.5c0-2.2,0.8-4,2.3-4C298.8,557.8,299.9,559.3,300,561.9L300,561.9z M313.8,559.6c0.1-1-0.3-2-1-2.6
	c-0.4-0.3-1.1-0.9-3.3-0.9c-1.3,0-2.5,0.2-3.7,0.7c-1,0.5-1,1-1,1.9v8.7c-0.1,0.2,0.1,0.4,0.3,0.5c0.1,0,0.1,0,0.2,0h1.7
	c0.4,0,0.5-0.1,0.5-0.5v-7.8c-0.1-0.9,0.4-1.7,1.3-1.8c0.2,0,0.3,0,0.5,0c1.9,0,1.9,1.4,1.9,2.2v7.4c0,0.3,0,0.5,0.5,0.5h1.8
	c0.4,0,0.5-0.1,0.5-0.5L313.8,559.6L313.8,559.6z M331.5,555.8c0.4,0.6,1.2,0.8,1.8,0.5c0.4-0.2,0.6-0.6,0.7-1.1
	c0-1.3-1.9-3.2-5.2-3.2c-4.5,0-7.1,3.6-7.1,8c0,4.2,2.2,8.2,7.2,8.2c3.2,0,4.9-1.9,4.9-2.8c0-0.4-0.3-0.7-0.7-0.7c0,0,0,0,0,0
	c-0.3,0-0.6,0.2-0.8,0.4c-0.8,0.6-1.7,0.9-2.7,0.9c-2.6,0-4.7-2.4-4.7-6.7c0-3.5,1.7-5.5,3.7-5.5
	C330.2,553.7,330.9,554.8,331.5,555.8L331.5,555.8z M345.4,562c-0.1-2.7-1.6-5.9-5.2-5.9c-3.2,0-5.3,2.6-5.3,6c0,3.4,2,6,5.2,6
	C343.6,568.1,345.5,565.2,345.4,562L345.4,562z M342.6,561.9c0.1,2.5-0.9,4.4-2.3,4.4c-1.5,0-2.5-2-2.5-4.5c0-2.2,0.8-4,2.3-4
	C341.4,557.8,342.5,559.3,342.6,561.9L342.6,561.9z M347.3,567.4c0,0.3,0.1,0.5,0.5,0.5h1.8c0.4,0,0.5-0.1,0.5-0.5v-7.6
	c-0.1-0.6,0.1-1.2,0.5-1.6c0.3-0.3,0.8-0.5,1.2-0.4c1.7,0,1.7,1.6,1.7,2.3v7.4c0,0.4,0.2,0.5,0.5,0.5h1.8c0.4,0,0.4-0.1,0.4-0.5
	v-7.6c0-0.7,0-1.1,0.5-1.6c0.3-0.3,0.8-0.5,1.2-0.4c1.7,0,1.7,1.4,1.7,2.4v7.2c0,0.4,0.1,0.5,0.5,0.5h1.8c0.2,0,0.4-0.1,0.4-0.3
	c0-0.1,0-0.1,0-0.2v-7.6c0.1-1.1-0.3-2.2-1.1-2.9c-0.8-0.5-1.7-0.8-2.6-0.7c-0.7,0-1.3,0.1-1.9,0.2c-0.7,0.2-1.3,0.5-1.7,1
	c-0.4-0.4-1.2-1.3-3.4-1.3c-1.3,0-2.6,0.3-3.7,0.9c-0.6,0.4-0.6,0.6-0.6,1.6L347.3,567.4L347.3,567.4z M364.7,567.4
	c0,0.3,0.1,0.5,0.5,0.5h1.8c0.4,0,0.5-0.1,0.5-0.5v-7.6c-0.1-0.6,0.1-1.2,0.5-1.6c0.3-0.3,0.8-0.5,1.2-0.4c1.7,0,1.7,1.6,1.7,2.3
	v7.4c0,0.4,0.2,0.5,0.5,0.5h1.8c0.4,0,0.4-0.1,0.4-0.5v-7.6c0-0.7,0-1.1,0.5-1.6c0.3-0.3,0.8-0.5,1.2-0.4c1.7,0,1.7,1.4,1.7,2.4v7.2
	c0,0.4,0.1,0.5,0.5,0.5h1.8c0.2,0,0.4-0.1,0.4-0.3c0-0.1,0-0.1,0-0.2v-7.6c0.1-1.1-0.3-2.2-1.1-2.9c-0.8-0.5-1.7-0.8-2.6-0.7
	c-0.7,0-1.3,0.1-1.9,0.2c-0.7,0.2-1.3,0.5-1.7,1c-0.4-0.4-1.2-1.3-3.4-1.3c-1.3,0-2.6,0.3-3.7,0.9c-0.6,0.4-0.6,0.6-0.6,1.6
	L364.7,567.4L364.7,567.4z M384.9,556.9c0-0.4-0.1-0.5-0.5-0.5h-1.9c-0.4,0-0.4,0.2-0.4,0.5v10.5c0,0.4,0,0.5,0.4,0.5h1.9
	c0.4,0,0.5-0.1,0.5-0.5L384.9,556.9L384.9,556.9z M385,553.5c0-0.7-0.6-1.3-1.3-1.3c0,0-0.1,0-0.1,0c-0.7-0.1-1.4,0.5-1.5,1.2
	c0,0.1,0,0.1,0,0.2c0.1,0.8,0.8,1.4,1.6,1.3C384.4,554.8,384.9,554.2,385,553.5L385,553.5z M391.9,557.6c0.4,0,0.4-0.1,0.4-0.9
	c0-0.3-0.2-0.3-0.4-0.3h-1.7v-2.6c0-0.3,0-0.6-0.3-0.6c-0.1,0-0.3,0.1-0.4,0.2l-1.6,1c-0.3,0.1-0.4,0.5-0.4,0.8v1.2h-1.1
	c-0.2,0-0.3,0-0.4,0.2c0,0,0,0.1,0,0.1c0,0.8,0,0.9,0.4,0.9h1.1v7.2c-0.1,0.8,0.2,1.6,0.6,2.2c0.6,0.7,1.5,1,2.4,1
	c0.9,0,2.1-0.4,2.1-1c0-0.6-0.4-0.6-1-0.6c-1.5-0.1-1.5-1.5-1.5-2.1v-6.8L391.9,557.6L391.9,557.6z M398.3,557.6
	c0.4,0,0.4-0.1,0.4-0.9c0-0.3-0.2-0.3-0.4-0.3h-1.7v-2.6c0-0.3,0-0.6-0.3-0.6c-0.1,0-0.3,0.1-0.4,0.2l-1.6,1
	c-0.3,0.1-0.4,0.5-0.4,0.8v1.2h-1.1c-0.2,0-0.3,0-0.4,0.2c0,0,0,0.1,0,0.1c0,0.8,0,0.9,0.4,0.9h1.1v7.2c-0.1,0.8,0.2,1.6,0.6,2.2
	c0.6,0.7,1.5,1,2.4,1c0.9,0,2.1-0.4,2.1-1c0-0.6-0.4-0.6-1-0.6c-1.5-0.1-1.5-1.5-1.5-2.1v-6.8L398.3,557.6L398.3,557.6z
	 M407.9,561.2c0.4,0,0.8-0.3,0.8-0.8c0,0,0-0.1,0-0.1c0-2.3-1.9-4.2-4.2-4.1c0,0,0,0,0,0c-2.4,0-4.9,1.6-4.9,6c0,3.9,2,6,4.9,6
	c2.2,0,4.1-1.6,4.4-3.8c0-0.3-0.2-0.6-0.5-0.7c0,0,0,0,0,0c-0.3,0-0.4,0.1-0.7,0.6c-0.6,0.9-1.6,1.4-2.6,1.5c-1.1,0-2.7-0.6-3-3.6
	L407.9,561.2z M401.7,560.7c0.1-1.5,0.8-2.9,2.3-2.9c1,0,1.8,0.8,1.9,2.2L401.7,560.7z M418.5,561.2c0.4,0,0.8-0.3,0.8-0.8
	c0,0,0-0.1,0-0.1c0-2.3-1.9-4.2-4.2-4.1c0,0,0,0,0,0c-2.4,0-4.9,1.6-4.9,6c0,3.9,2,6,4.9,6c2.2,0,4.1-1.6,4.4-3.8
	c0-0.3-0.2-0.6-0.5-0.7c0,0,0,0,0,0c-0.3,0-0.4,0.1-0.7,0.6c-0.6,0.9-1.6,1.4-2.6,1.5c-1.1,0-2.7-0.6-3-3.6L418.5,561.2z
	 M412.3,560.7c0.1-1.5,0.8-2.9,2.3-2.9c1,0,1.8,0.8,1.9,2.2L412.3,560.7z"/>
<path id="Education_Committee_copy" class="st8" d="M518.1,560.7c0.4,0,0.5,0,0.5-0.4v-1.1c0-0.4-0.1-0.4-0.5-0.4h-4.4v-4.5h5.2
	c0.4,0,0.5,0,0.5-0.5v-1.1c0-0.4-0.2-0.4-0.5-0.4h-7.7c-0.4,0-0.5,0.1-0.5,0.6v14.5c0,0.5,0.2,0.5,0.5,0.5h7.7
	c0.4,0,0.5-0.1,0.5-0.3v-1.3c0-0.4-0.2-0.4-0.5-0.4h-5.2v-5.1L518.1,560.7L518.1,560.7z M530.4,551.5c0-0.4-0.1-0.5-0.5-0.5h-1.7
	c-0.2-0.1-0.5,0.1-0.5,0.3c0,0.1,0,0.1,0,0.2v5.2c-0.6-0.4-1.3-0.6-2-0.6c-3.2,0-4.9,3.2-4.9,6.3c0,3.6,1.9,5.7,5.2,5.7
	c1.3,0,2.6-0.3,3.7-0.9c0.5-0.4,0.8-1,0.7-1.6L530.4,551.5L530.4,551.5z M527.6,564.7c0,0.7,0,1.7-1.4,1.7c-1.6,0-2.8-1.6-2.8-4.4
	c0-2.4,1-4.3,2.7-4.3c0.5,0,1,0.2,1.4,0.6V564.7L527.6,564.7z M541.8,556.9c0-0.4-0.2-0.5-0.5-0.5h-1.7c-0.2-0.1-0.4,0.1-0.5,0.3
	c0,0.1,0,0.1,0,0.2v7.6c0,0.7,0,1.8-1.8,1.8c-1.9,0-1.9-1.3-1.9-2v-7.4c0-0.2-0.1-0.4-0.3-0.5c-0.1,0-0.1,0-0.2,0h-1.8
	c-0.2-0.1-0.4,0.1-0.5,0.3c0,0.1,0,0.1,0,0.2v7.7c0,1.4,0.3,3.6,4.5,3.6c1.3,0,2.6-0.3,3.8-0.9c0.8-0.6,0.9-1.2,0.9-2.2L541.8,556.9
	L541.8,556.9z M550,559.5c0.2,0.6,0.9,0.9,1.5,0.7c0.5-0.2,0.8-0.7,0.8-1.2c0-1.1-1.2-2.9-3.7-2.9c-3.6,0-5,3.1-5,6.1
	c0,3.1,1.5,5.9,4.6,5.9c2.2,0.1,4-1.6,4.1-3.8c0.1-0.4-0.2-0.7-0.5-0.8c0,0,0,0-0.1,0c-0.3,0.1-0.6,0.3-0.7,0.6
	c-0.4,0.9-1.3,1.4-2.2,1.5c-1.8,0-2.9-2-2.9-4.3c0-2,0.9-3.5,2.3-3.5C549.3,557.9,549.7,558.7,550,559.5L550,559.5z M562,560
	c0-1.6,0-3.9-3.5-3.9c-2.7,0-4.4,1.3-4.4,2.7c0,0.6,0.5,1.2,1.1,1.2c0,0,0.1,0,0.1,0c0.8,0,1-0.6,1.2-1.1c0.2-0.7,0.8-1.2,1.5-1.2
	c1.3,0,1.3,1.2,1.3,2v1.1c-2.5,0.7-3.9,1-4.9,2c-0.6,0.6-1,1.4-1,2.2c0,3.1,3.6,3.1,4.3,3.1c1.1,0,2.2-0.2,3.2-0.7
	c0.9-0.5,0.9-1,1-2L562,560L562,560z M559.4,565.2c0.1,0.7-0.3,1.3-1,1.4c-0.1,0-0.3,0-0.4,0c-1,0.1-1.8-0.7-1.8-1.6
	c0-0.1,0-0.2,0-0.3c0-1.7,1.5-2.1,3.2-2.6V565.2L559.4,565.2z M568.9,557.6c0.4,0,0.4-0.1,0.4-0.9c0-0.3-0.2-0.3-0.4-0.3h-1.7v-2.6
	c0-0.3,0-0.6-0.3-0.6c-0.1,0-0.3,0.1-0.4,0.2l-1.6,1c-0.3,0.1-0.4,0.5-0.4,0.8v1.2h-1.1c-0.2,0-0.3,0-0.4,0.2c0,0,0,0.1,0,0.1
	c0,0.8,0,0.9,0.4,0.9h1.1v7.2c-0.1,0.8,0.2,1.6,0.6,2.2c0.6,0.7,1.5,1,2.4,1c0.9,0,2.1-0.4,2.1-1c0-0.6-0.4-0.6-1-0.6
	c-1.5-0.1-1.5-1.5-1.5-2.1v-6.8H568.9L568.9,557.6z M573.4,556.9c0-0.4-0.1-0.5-0.5-0.5h-1.9c-0.4,0-0.4,0.2-0.4,0.5v10.5
	c0,0.4,0,0.5,0.4,0.5h1.9c0.4,0,0.5-0.1,0.5-0.5L573.4,556.9L573.4,556.9z M573.5,553.5c0-0.7-0.6-1.3-1.3-1.3c0,0-0.1,0-0.1,0
	c-0.7-0.1-1.4,0.5-1.5,1.2c0,0.1,0,0.1,0,0.2c0.1,0.8,0.8,1.4,1.6,1.3C572.9,554.7,573.4,554.2,573.5,553.5L573.5,553.5z M585.7,562
	c-0.1-2.7-1.6-5.9-5.2-5.9c-3.2,0-5.3,2.6-5.3,6c0,3.4,2,6,5.2,6C583.9,568.1,585.8,565.2,585.7,562L585.7,562z M582.8,561.9
	c0.1,2.5-0.9,4.4-2.3,4.4c-1.5,0-2.5-2-2.5-4.5c0-2.2,0.8-4,2.3-4C581.6,557.8,582.7,559.3,582.8,561.9L582.8,561.9z M596.7,559.6
	c0.1-1-0.3-2-1-2.6c-0.4-0.3-1.1-0.9-3.3-0.9c-1.3,0-2.5,0.2-3.7,0.7c-1,0.5-1,1-1,1.9v8.7c-0.1,0.2,0.1,0.4,0.3,0.5
	c0.1,0,0.1,0,0.2,0h1.7c0.4,0,0.5-0.1,0.5-0.5v-7.8c-0.1-0.9,0.4-1.7,1.3-1.8c0.2,0,0.3,0,0.5,0c1.9,0,1.9,1.4,1.9,2.2v7.4
	c0,0.3,0,0.5,0.5,0.5h1.8c0.4,0,0.5-0.1,0.5-0.5V559.6L596.7,559.6z M614.4,555.8c0.4,0.6,1.2,0.8,1.8,0.5c0.4-0.2,0.6-0.6,0.7-1.1
	c0-1.3-1.9-3.2-5.2-3.2c-4.5,0-7.1,3.6-7.1,8c0,4.2,2.2,8.2,7.2,8.2c3.2,0,4.9-1.9,4.9-2.8c0-0.4-0.3-0.7-0.7-0.7c0,0,0,0,0,0
	c-0.3,0-0.6,0.2-0.8,0.4c-0.8,0.6-1.7,0.9-2.7,0.9c-2.6,0-4.7-2.4-4.7-6.7c0-3.5,1.7-5.5,3.7-5.5C613,553.7,613.7,554.8,614.4,555.8
	L614.4,555.8z M628.3,562c-0.1-2.7-1.6-5.9-5.2-5.9c-3.2,0-5.3,2.6-5.3,6c0,3.4,2,6,5.2,6C626.5,568.1,628.4,565.2,628.3,562
	L628.3,562z M625.4,561.9c0.1,2.5-0.9,4.4-2.3,4.4c-1.5,0-2.5-2-2.5-4.5c0-2.2,0.8-4,2.3-4C624.2,557.8,625.3,559.3,625.4,561.9
	L625.4,561.9z M630.1,567.4c0,0.3,0.1,0.5,0.5,0.5h1.8c0.4,0,0.5-0.1,0.5-0.5v-7.6c-0.1-0.6,0.1-1.2,0.5-1.6
	c0.3-0.3,0.8-0.5,1.2-0.4c1.7,0,1.7,1.6,1.7,2.3v7.4c0,0.4,0.2,0.5,0.5,0.5h1.8c0.4,0,0.4-0.1,0.4-0.5v-7.6c0-0.7,0-1.1,0.5-1.6
	c0.3-0.3,0.8-0.5,1.2-0.4c1.7,0,1.7,1.4,1.7,2.4v7.2c0,0.4,0.1,0.5,0.5,0.5h1.8c0.2,0,0.4-0.1,0.4-0.3c0-0.1,0-0.1,0-0.2v-7.6
	c0.1-1.1-0.3-2.2-1.1-2.9c-0.8-0.5-1.7-0.8-2.6-0.7c-0.7,0-1.3,0.1-1.9,0.2c-0.7,0.2-1.3,0.5-1.7,1c-0.4-0.4-1.2-1.3-3.4-1.3
	c-1.3,0-2.6,0.3-3.7,0.9c-0.6,0.4-0.6,0.6-0.6,1.6L630.1,567.4L630.1,567.4z M647.6,567.4c0,0.3,0.1,0.5,0.5,0.5h1.8
	c0.4,0,0.5-0.1,0.5-0.5v-7.6c-0.1-0.6,0.1-1.2,0.5-1.6c0.3-0.3,0.8-0.5,1.2-0.4c1.7,0,1.7,1.6,1.7,2.3v7.4c0,0.4,0.2,0.5,0.5,0.5
	h1.8c0.4,0,0.4-0.1,0.4-0.5v-7.6c0-0.7,0-1.1,0.5-1.6c0.3-0.3,0.8-0.5,1.2-0.4c1.7,0,1.7,1.4,1.7,2.4v7.2c0,0.4,0.1,0.5,0.5,0.5h1.8
	c0.2,0,0.4-0.1,0.4-0.3c0-0.1,0-0.1,0-0.2v-7.6c0.1-1.1-0.3-2.2-1.1-2.9c-0.8-0.5-1.7-0.8-2.6-0.7c-0.7,0-1.3,0.1-1.9,0.2
	c-0.7,0.2-1.3,0.5-1.7,1c-0.4-0.4-1.2-1.3-3.4-1.3c-1.3,0-2.6,0.3-3.7,0.9c-0.6,0.4-0.6,0.6-0.6,1.6L647.6,567.4L647.6,567.4z
	 M667.8,556.9c0-0.4-0.1-0.5-0.5-0.5h-1.9c-0.4,0-0.4,0.2-0.4,0.5v10.5c0,0.4,0,0.5,0.4,0.5h1.9c0.4,0,0.5-0.1,0.5-0.5L667.8,556.9
	L667.8,556.9z M667.8,553.5c0-0.7-0.6-1.3-1.3-1.3c0,0-0.1,0-0.1,0c-0.7-0.1-1.4,0.5-1.5,1.2c0,0.1,0,0.1,0,0.2
	c0.1,0.8,0.8,1.4,1.6,1.3C667.2,554.7,667.8,554.2,667.8,553.5L667.8,553.5z M674.7,557.6c0.4,0,0.4-0.1,0.4-0.9
	c0-0.3-0.2-0.3-0.4-0.3H673v-2.6c0-0.3,0-0.6-0.3-0.6c-0.1,0-0.3,0.1-0.4,0.2l-1.6,1c-0.3,0.1-0.4,0.5-0.4,0.8v1.2h-1.1
	c-0.2,0-0.3,0-0.4,0.2c0,0,0,0.1,0,0.1c0,0.8,0,0.9,0.4,0.9h1.1v7.2c-0.1,0.8,0.2,1.6,0.6,2.2c0.6,0.7,1.5,1,2.4,1
	c0.9,0,2.1-0.4,2.1-1c0-0.6-0.4-0.6-1-0.6c-1.5-0.1-1.5-1.5-1.5-2.1v-6.8L674.7,557.6L674.7,557.6z M681.1,557.6
	c0.4,0,0.4-0.1,0.4-0.9c0-0.3-0.2-0.3-0.4-0.3h-1.7v-2.6c0-0.3,0-0.6-0.3-0.6c-0.1,0-0.3,0.1-0.4,0.2l-1.6,1
	c-0.3,0.1-0.4,0.5-0.4,0.8v1.2h-1.1c-0.2,0-0.3,0-0.4,0.2c0,0,0,0.1,0,0.1c0,0.8,0,0.9,0.4,0.9h1.1v7.2c-0.1,0.8,0.2,1.6,0.6,2.2
	c0.6,0.7,1.5,1,2.4,1c0.9,0,2.1-0.4,2.1-1c0-0.6-0.4-0.6-1-0.6c-1.5-0.1-1.5-1.5-1.5-2.1v-6.8L681.1,557.6L681.1,557.6z
	 M690.8,561.2c0.4,0,0.8-0.3,0.8-0.8c0,0,0-0.1,0-0.1c0-2.3-1.9-4.2-4.2-4.1c0,0,0,0,0,0c-2.4,0-4.9,1.6-4.9,6c0,3.9,2,6,4.9,6
	c2.2,0,4.1-1.6,4.4-3.8c0-0.3-0.2-0.6-0.5-0.7c0,0,0,0,0,0c-0.3,0-0.4,0.1-0.8,0.6c-0.6,0.9-1.6,1.4-2.6,1.5c-1.1,0-2.7-0.6-3-3.6
	L690.8,561.2z M684.6,560.7c0.1-1.5,0.8-2.9,2.3-2.9c1,0,1.8,0.8,1.9,2.2L684.6,560.7z M701.3,561.2c0.4,0,0.8-0.3,0.8-0.8
	c0,0,0-0.1,0-0.1c0-2.3-1.9-4.2-4.2-4.1c0,0,0,0,0,0c-2.4,0-4.9,1.6-4.9,6c0,3.9,2,6,4.9,6c2.2,0,4.1-1.6,4.4-3.8
	c0-0.3-0.2-0.6-0.6-0.7c0,0,0,0,0,0c-0.3,0-0.4,0.1-0.8,0.6c-0.6,0.9-1.6,1.4-2.6,1.5c-1.1,0-2.7-0.6-3-3.6L701.3,561.2z
	 M695.1,560.7c0.1-1.5,0.8-2.9,2.3-2.9c1,0,1.8,0.8,1.9,2.2L695.1,560.7z"/>
</svg>
