<?xml version="1.0" encoding="utf-8"?>
<!-- Generator: Adobe Illustrator 25.0.0, SVG Export Plug-In . SVG Version: 6.00 Build 0)  -->
<svg version="1.1" id="Layer_1" xmlns="http://www.w3.org/2000/svg" xmlns:xlink="http://www.w3.org/1999/xlink" x="0px" y="0px"
	 viewBox="0 0 1169.9 601.5" style="enable-background:new 0 0 1169.9 601.5;" xml:space="preserve">
<style type="text/css">
	.st0{opacity:0.5;fill:#757575;enable-background:new    ;}
	.st1{opacity:0.5;fill-rule:evenodd;clip-rule:evenodd;fill:#757575;enable-background:new    ;}
	.st2{fill:#0E2141;}
	.st3{fill:#FFFFFF;}
	.st4{fill:#505256;}
	.st5{fill:#1E9DDE;}
	.st6{fill:#FDA917;}
	.st7{fill:#0E6827;}
</style>
<rect x="461.1" y="250.5" class="st0" width="1.4" height="50.9"/>
<rect id="Shape_1_copy_4" x="461.1" y="128.7" class="st0" width="1.4" height="50.9"/>
<rect id="Shape_1_copy_20" x="589.8" y="44" class="st0" width="1.4" height="85.3"/>
<rect id="Shape_1_copy_24" x="755" y="44" class="st0" width="1.4" height="85.3"/>
<rect id="Shape_1_copy_21" x="605.6" y="300.7" class="st0" width="1.4" height="48.2"/>
<rect id="Shape_1_copy_22" x="316.6" y="300.7" class="st0" width="1.4" height="48.2"/>
<rect id="Shape_1_copy_23" x="605.6" y="428.1" class="st0" width="1.4" height="90.2"/>
<rect id="Shape_1_copy_23-2" x="316.6" y="428.1" class="st0" width="1.4" height="90.2"/>
<rect id="Shape_1_copy_14" x="1030.2" y="256" class="st0" width="1.4" height="89.5"/>
<rect id="Shape_1_copy_16" x="1030.2" y="128" class="st0" width="1.4" height="71.6"/>
<rect id="Shape_1_copy_15" x="1030.2" y="428.7" class="st0" width="1.4" height="89.5"/>
<path id="Shape_1_copy" class="st1" d="M607,300.1v1.4H316.6v-1.4H607z"/>
<path id="Shape_1_copy_2" class="st1" d="M591.2,128v1.4H461.1V128H591.2z"/>
<path id="Shape_1_copy_5" class="st1" d="M836.6,128v1.4h-80.9V128H836.6z"/>
<path id="Shape_1_copy_6" class="st1" d="M1030.2,128v1.4h-79.1V128H1030.2z"/>
<rect x="442" y="1.7" class="st2" width="459.7" height="82.6"/>
<g>
	<path class="st3" d="M616.9,48c-1.7,0-0.6,0-4.3,0c-3.3,0-5.3-1.9-5.3-4.9v-6.3h3V43c0,1.5,0.5,2.3,2.1,2.3h4.5
		c1.6,0,2.2-0.8,2.2-2.3v-6.2h3v6.3C622.1,46.1,620.2,48,616.9,48z M613.4,52.9v-3h3v3H613.4z"/>
	<path class="st3" d="M624.4,48v-2.8h5.1V42c0-2.2-0.5-2.7-2-2.7l0.5-2.7c3.1,0,4.4,1.5,4.4,4.4v4.2h3.1V48
		C624.3,48,634.8,48,624.4,48z"/>
	<path class="st3" d="M634,52.9v-3h2.7v3H634z M642.9,48c-1.5,0-2.7-0.4-3.6-1.2c-0.9,0.8-2.1,1.2-3.6,1.2h-0.9v-2.8h0.9
		c1.2,0,1.9-0.7,1.9-1.7v-6.7h3v6.8c0,1,0.7,1.7,2.2,1.7h0.9V48H642.9z M637.8,52.9v-3h2.7v3H637.8z"/>
	<path class="st3" d="M641.8,48v-2.8h2.9v-4c0-2.8,2-4.8,4.9-5.3v-1.8h2.7v1.8c2.9,0.5,4.9,2.5,4.9,5.3v4h1.5V48
		C643.3,48,641.8,48,641.8,48z M649.6,38.7c-0.7,0.3-2,1-2,2.5v4h2V38.7z M654.4,41.3c0-1.6-1.4-2.2-2.1-2.6v6.6h2.1V41.3z"/>
	<path class="st3" d="M670.3,47.4c-0.8,1.7-2.3,2.7-4.4,2.7c-2,0-3.6-1-4.4-2.6c-0.7,0.4-1.7,0.5-2.6,0.5h-0.9v-2.8
		c1.2-0.1,2.6,0,2.7-1.5c0.2-3.5,2-5.7,5.2-5.7c3.3,0,5.1,2.6,5.1,5.7c0,1,0.7,1.5,2.2,1.5h0.9V48C672.8,48,671.4,48,670.3,47.4z
		 M665.8,40.6c-1.2,0-2,0.8-2,3.4c0,2.5,0.8,3.3,2,3.3c1.2,0,2-0.9,2-3.2C667.9,41.4,667.1,40.6,665.8,40.6z"/>
	<path class="st3" d="M673.3,48v-2.8c2.1,0,3-0.8,3-2.2V32.5h3v10.7C679.3,46.2,677,48,673.3,48z"/>
	<path class="st3" d="M681.6,48V32.5h3V48H681.6z"/>
	<path class="st3" d="M695.9,48c-2.1,0-4.8-1.4-4.8-5.5c0-3.8,1.8-5.7,4.8-5.7h4.9v8.4h3.5V48C701.5,48,698.5,48,695.9,48z
		 M693.8,34.7v-3h2.7v3H693.8z M697.9,39.5h-1.8c-1.7,0-2,1.8-2,3c0,1.4,0.8,2.8,2,2.8h1.8V39.5z M697.7,34.7v-3h2.7v3H697.7z"/>
	<path class="st3" d="M711.7,48c-1.5,0-2.7-0.4-3.6-1.2c-0.9,0.8-2.1,1.2-3.6,1.2h-0.9v-2.8h0.9c1.2,0,1.9-0.7,1.9-1.7v-11h3v11.1
		c0,1,0.7,1.7,2.2,1.7h0.9V48H711.7z"/>
	<path class="st3" d="M711.8,34.7v-1.3h1.2v-0.3c0-0.7,0.2-2.5,2.3-2.5c1,0,1.7,0.5,2,1.3c-0.2,0-1.4,0.3-1.4,0.3
		c-0.2-0.3-0.3-0.4-0.6-0.4c-0.8,0-0.8,0.8-0.8,1.2v0.3h3.1v1.3H711.8z M711.9,48v-2.8c2.1,0,3-0.7,3-2.2v-6.3h3v6.4
		C717.9,46.2,715.6,48,711.9,48z"/>
	<path class="st3" d="M720.2,43.1V32.5h3V43c0,1.5,0.7,2.2,2.7,2.2V48C722.2,48,720.2,46.1,720.2,43.1z"/>
	<path class="st3" d="M725,48v-2.8h2.2c-0.5-0.8-0.7-1.7-0.7-3.1c0-1.5,0.8-5.6,4.9-5.6c2,0,3.5,1.1,4.2,2.8c-0.7,0.2-3,0.6-3,0.6
		c-0.2-0.5-0.7-0.8-1.2-0.8c-1.6,0-1.9,2-1.9,2.9c0,1.8,1,3.1,2.3,3.1h3.9l0.9,2.8H725z"/>
</g>
<g>
	<path class="st4" d="M849.5,132.4c-1.2,0-3-0.9-3-3.6c0-2.6,1.2-3.9,3-3.9h3v6.2h1.9v1.3C852.7,132.4,851.2,132.4,849.5,132.4z
		 M851.1,126.1c-1.3,0-1.6,0-1.6,0c-1.3,0-1.6,1.6-1.6,2.6c0,1,0.4,2.3,1.6,2.3c0,0,0.7,0,1.6,0C851.1,128,851.1,129.6,851.1,126.1z
		 M849,123.5V122h1.4v1.5H849z M851.1,123.5V122h1.4v1.5H851.1z"/>
	<path class="st4" d="M853.4,135.3v-1.5h1.4v1.5H853.4z M854,132.4v-1.3c1.3,0,1.9-0.7,1.9-1.9v-4.3h1.4c0,0,0,4.3,0,4.3
		C857.2,131.2,856,132.4,854,132.4z M855.6,135.3v-1.5h1.4v1.5H855.6z"/>
	<path class="st4" d="M857.9,135.3v-1.2c0.5,0,1.1-0.4,1.3-1c0.3-0.6,0.2-1.4,0.2-1.9c0,0,0-6.2,0-6.3h1.4c0,0,0,0,0,7.1
		C860.8,133.7,859.8,135.3,857.9,135.3z"/>
	<path class="st4" d="M862.4,129.2c0,0,0-7.2,0-7.3h1.4l0,7.2c0,1.2,0.7,1.9,1.9,1.9v1.3C863.6,132.4,862.4,131.2,862.4,129.2z"/>
	<path class="st4" d="M865.3,132.4v-1.3h5.2c0-5-4.1-4.8-4.1-4.8v-1.2c3.8,0,5.5,2.8,5.5,6h2v1.3H865.3z M867.7,135.2v-1.5h1.4v1.5
		H867.7z"/>
	<path class="st4" d="M873.1,123.5V122h1.4v1.5H873.1z M878.5,132.4c-1.1,0-1.9-0.4-2.5-1c-0.5,0.7-1.3,1-2.4,1c0,0-0.1,0-0.2,0
		v-1.3c0,0,0.1,0,0.2,0c1,0,1.6-0.6,1.6-1.6v-4.6h1.4c0,0,0,4.6,0,4.6c0,1,0.7,1.5,1.8,1.5c0,0,0.1,0,0.1,0v1.3
		C878.7,132.4,878.6,132.4,878.5,132.4z M875.3,123.5V122h1.4v1.5H875.3z"/>
	<path class="st4" d="M878.3,132.4v-1.3c1.3,0,1.9-0.7,1.9-1.9V122h1.4c0,0,0,7.2,0,7.3C881.6,131.2,880.3,132.4,878.3,132.4z"/>
	<path class="st4" d="M883.2,132.4V122h1.4v10.4H883.2z"/>
	<path class="st4" d="M895,132.4c-0.1,0,0.4,0-2.9,0c-2,0-3.2-1.2-3.2-3.2c0,0,0-4.3,0-4.3h1.4v4.3c0,1.2,0.5,1.9,1.7,1.9h3
		c1.2,0,1.8-0.7,1.8-1.9v-4.3h1.4c0,0,0,4.3,0,4.3C898.1,131.2,897,132.4,895,132.4z M891.7,123.5V122h1.4v1.5H891.7z M893.9,123.5
		V122h1.4v1.5H893.9z"/>
	<path class="st4" d="M899.7,129.2c0,0,0-7.2,0-7.3h1.4l0,7.2c0,1.2,0.7,1.9,1.9,1.9v1.3C900.9,132.4,899.7,131.2,899.7,129.2z"/>
	<path class="st4" d="M908.5,132.4c-5.6,0-4.5,0-5.8,0v-1.3c0.4,0,1,0,1,0V123h1.4l-0.2,5.6v0c0.7-1.6,2-3.4,4-3.4
		c2,0,2.9,1.8,2.9,3.3C911.9,129.9,911.2,132.4,908.5,132.4z M908.9,126.5c-2.5,0-3.5,3.5-3.9,4.6h3.5c1.5,0,1.9-1.3,1.9-2.6
		C910.5,127.6,910,126.5,908.9,126.5z"/>
	<path class="st4" d="M913.4,129.2c0,0,0-7.2,0-7.3h1.4l0,7.2c0,1.2,0.7,1.9,1.9,1.9v1.3C914.7,132.4,913.4,131.2,913.4,129.2z"/>
	<path class="st4" d="M916.4,132.4v-1.3h2.6V125h1.3v6.1h2.4v-6.2h1.4v6.2h2.6v-6.2h1.4v6.2h1.9v1.3H916.4z M921.8,123.5V122h1.4
		v1.5H921.8z M922.9,121.3v-1.5h1.4v1.5H922.9z M924,123.5V122h1.4v1.5H924z"/>
	<path class="st4" d="M934.6,132.4c-1.1,0-1.9-0.4-2.5-1c-0.5,0.7-1.3,1-2.4,1c0,0-0.2,0-0.2,0v-1.3c0,0,0.2,0,0.2,0
		c1,0,1.6-0.6,1.6-1.6v-4.6h1.4c0,0,0,4.6,0,4.6c0,1,0.7,1.5,1.8,1.5c0,0,0.2,0,0.2,0v1.3C934.8,132.4,934.6,132.4,934.6,132.4z
		 M931.4,123.5V122h1.4v1.5H931.4z"/>
	<path class="st4" d="M934.4,132.4v-1.3c1.3,0,1.9-0.7,1.9-1.9V122h1.4c0,0,0,7.2,0,7.3C937.7,131.2,936.4,132.4,934.4,132.4z"/>
	<path class="st4" d="M939.2,132.4V122h1.4v10.4H939.2z"/>
</g>
<rect id="Rectangle_1_copy_21" x="324.1" y="173.4" class="st5" width="275.3" height="82.6"/>
<rect id="Rectangle_1_copy_19" x="468.7" y="345.5" class="st4" width="275.3" height="82.6"/>
<rect id="Rectangle_1_copy_23" x="179.6" y="345.5" class="st4" width="275.3" height="82.6"/>
<rect id="Rectangle_1_copy_13" x="893.3" y="517.5" class="st6" width="275.3" height="82.6"/>
<rect id="Rectangle_1_copy_12" x="893.3" y="345.5" class="st4" width="275.3" height="82.6"/>
<rect id="Rectangle_1_copy_24" x="893.3" y="173.4" class="st5" width="275.3" height="82.6"/>
<rect id="Rectangle_1_copy_24-2" x="179.6" y="517.5" class="st7" width="275.3" height="82.6"/>
<rect id="Rectangle_1_copy_24-3" x="468.7" y="517.5" class="st7" width="275.3" height="82.6"/>
<rect id="Rectangle_1_copy_22" x="1.1" y="84" class="st4" width="75.8" height="234.5"/>
<rect id="Rectangle_1_copy_25" x="1.1" y="366.1" class="st4" width="75.8" height="234"/>
<g>
	<path class="st3" d="M978.2,218.9v-1.7h2c0-0.2,0-0.5,0-0.7c0-1.3,0.4-4.3,3.4-4.3c1.5,0,2.6,0.7,3.1,2.2h-1.9
		c-0.3-0.4-0.7-0.7-1.2-0.7c-1.6,0-1.7,1.8-1.7,2.7c0,0.4,0,0.6,0,0.8h5.3v1.7H978.2z"/>
	<path class="st3" d="M989.2,214.9c0,0,0-9,0-9.1h1.7l0,9c0,1.5,0.8,2.4,2.4,2.4v1.7C990.8,218.9,989.2,217.4,989.2,214.9z"/>
	<path class="st3" d="M992.7,218.9v-1.7h8.1v-3c0-1.5-0.8-2.2-2.4-2.2h-5.2v-2.9c0-2,1.5-3.2,3.7-3.2h3.5v1.7h-3.5
		c-1.3,0-2.1,0.7-2.1,1.6v1.2h3.6c2.5,0,3.9,1.4,3.9,3.8v4.7H992.7z"/>
	<path class="st3" d="M1009.1,218.9c-0.9,0-1.7-0.2-2.3-0.6v0.1c0,2.1-1.3,4.1-3.7,4.1V221c0.7,0,1.4-0.5,1.7-1.3
		c0.3-0.8,0.3-1.8,0.3-2.3c0-0.1,0-7.8,0-7.8h1.7v5.9c0,1.2,0.9,1.8,2.3,1.8h0.2v1.7H1009.1z"/>
	<path class="st3" d="M1008.9,218.9v-1.7h3.3v-7.6h1.7v7.6h3v-7.7h1.7v7.7h3.2v-7.7h1.7v7.7h2.3v1.7H1008.9z M1015.7,207.7v-1.9h1.7
		v1.9H1015.7z M1017.1,205.1v-1.9h1.7v1.9H1017.1z M1018.4,207.7v-1.9h1.7v1.9H1018.4z"/>
	<path class="st3" d="M1025.3,218.9v-1.7c1.6,0,2.4-0.9,2.4-2.4v-9h1.7c0,0,0,9,0,9.1C1029.5,217.4,1027.8,218.9,1025.3,218.9z"/>
	<path class="st3" d="M1031.4,218.9v-13h1.7v13H1031.4z"/>
	<path class="st3" d="M1046.3,218.9c-0.1,2.2-1.6,3.6-3.7,3.6c-0.2,0-0.3,0-0.5,0c-2.1,0-3.7-1.6-3.7-4v-6.2h1.7v6.2
		c0,1.5,0.7,2.4,2.2,2.4c1.5,0,2.2-0.9,2.2-2.4v-8.9h1.7v7.7h3v-7.7h1.7v7.7h3.2v-7.7h1.7v7.7h2.3v1.7H1046.3z"/>
	<path class="st3" d="M1064.2,218.9c-1.4,0-2.4-0.5-3.1-1.3c-0.6,0.8-1.7,1.3-3,1.3c0,0-0.3,0-0.3,0v-1.7c0,0,0.3,0,0.3,0
		c1.3,0,2-0.7,2-2v-9.4h1.7c0,0,0,9.4,0,9.4c0,1.2,0.9,1.9,2.3,1.9c0,0,0.2,0,0.3,0v1.7C1064.4,218.9,1064.2,218.9,1064.2,218.9z"/>
	<path class="st3" d="M1063.9,218.9v-1.7h6.5c0-6.2-5.1-6-5.1-6v-1.6c4.7,0,6.8,3.4,6.8,7.5h2.5v1.7H1063.9z M1067,222.4v-1.8h1.7
		v1.8H1067z"/>
	<path class="st3" d="M1080.1,218.9c-1.3,0-2.3-0.5-3-1.5c-0.6,1-1.7,1.5-2.9,1.5v-1.7c0.8,0,1.4-0.5,1.8-1.3
		c0.3-0.8,0.2-1.6,0.2-2.3h0c0.1-3,1.5-4.8,3.8-4.8c2.4,0,3.9,1.9,3.9,5C1084,217.1,1082.6,218.9,1080.1,218.9z M1080.1,210.3
		c-1.4,0-2.1,1.2-2.1,3.6c0,2.3,0.7,3.5,2.1,3.5c1.4,0,2.1-1.2,2.1-3.4C1082.2,211.5,1081.6,210.3,1080.1,210.3z"/>
</g>
<g>
	<path class="st3" d="M990.9,391c-2.4,0-3.8-1.4-3.8-4.6c0-3.1,1.5-4.7,3.8-4.7c2.4,0,3.8,1.7,3.8,4.8
		C994.8,389.5,993.4,391,990.9,391z M988.8,379.8V378h1.7v1.9H988.8z M990.9,383.1c-1.4,0-2.1,0.9-2.1,3.3c0,2.2,0.7,3,2.1,3
		c1.4,0,2.1-0.7,2.1-2.9C993,384,992.3,383.1,990.9,383.1z M991.5,379.8V378h1.7v1.9H991.5z"/>
	<path class="st3" d="M995.6,394.6v-1.5c0.7,0,1.4-0.5,1.7-1.3c0.3-0.8,0.3-1.8,0.3-2.3c0-0.1,0-7.8,0-7.8h1.7c0,0,0,0,0,8.9
		C999.3,392.7,997.9,394.7,995.6,394.6z"/>
	<path class="st3" d="M1001.2,391v-13h1.7v13H1001.2z"/>
	<path class="st3" d="M1004.8,391v-1.7h4.2v-3.5c0-2.2-0.4-2.8-1.6-2.8l0.3-1.6c1.2,0,2.2,0.6,2.7,1.5c0.3,0.5,0.3,0.9,0.3,2v6.1
		H1004.8z"/>
	<path class="st3" d="M1011.3,395v-0.9c0.8,0,0.9,0,0.9,0s0-0.1,0-0.2c0-0.5,0.1-2,1.6-2c0.9,0,1.2,0.4,1.5,1.2h-1
		c-0.1-0.2-0.2-0.3-0.5-0.3c-0.5,0-0.6,0.6-0.6,1c0,0.2,0,0.2,0,0.2s0.1,0,2.3,0v0.9H1011.3z M1017,391c-0.7,0,0.1,0-4.2,0v-1.7h1.7
		V378h1.8v11.3h0.7c0.7,0,1.4-0.6,1.7-1.3c0.3-0.8,0.3-1.5,0.3-2.3c0,0,0-7.8,0-7.8h1.7c0,0,0,0.1,0,9
		C1020.6,389.5,1019,391,1017,391z"/>
	<path class="st3" d="M1022.5,391v-13h1.7v13H1022.5z"/>
	<path class="st3" d="M1037.4,391c-0.1,2.2-1.6,3.6-3.7,3.6c-0.2,0-0.3,0-0.5,0c-2.1,0-3.7-1.6-3.7-4v-6.2h1.7v6.2
		c0,1.5,0.7,2.4,2.2,2.4c1.5,0,2.2-0.9,2.2-2.4v-8.9h1.7v7.7h3v-7.7h1.7v7.7h3.2v-7.7h1.7v7.7h2.3v1.7H1037.4z"/>
	<path class="st3" d="M1055.3,391c-1.4,0-2.4-0.5-3.1-1.3c-0.6,0.8-1.7,1.3-3,1.3c0,0-0.3,0-0.3,0v-1.7c0,0,0.3,0,0.3,0
		c1.3,0,2-0.7,2-2V378h1.7c0,0,0,9.4,0,9.4c0,1.2,0.9,1.9,2.3,1.9c0,0,0.2,0,0.3,0v1.7C1055.5,391,1055.3,391,1055.3,391z"/>
	<path class="st3" d="M1055,391v-1.7h6.5c0-6.2-5.1-6-5.1-6v-1.6c4.7,0,6.8,3.4,6.8,7.5h2.5v1.7H1055z M1058.1,394.5v-1.8h1.7v1.8
		H1058.1z"/>
	<path class="st3" d="M1071.2,391c-1.3,0-2.3-0.5-3-1.5c-0.6,1-1.7,1.5-2.9,1.5v-1.7c0.8,0,1.4-0.5,1.8-1.3c0.3-0.8,0.2-1.6,0.2-2.3
		h0c0.1-3,1.5-4.8,3.8-4.8c2.4,0,3.9,1.9,3.9,5C1075.1,389.2,1073.7,391,1071.2,391z M1071.2,382.4c-1.4,0-2.1,1.2-2.1,3.6
		c0,2.3,0.7,3.5,2.1,3.5c1.4,0,2.1-1.2,2.1-3.4C1073.3,383.6,1072.7,382.4,1071.2,382.4z"/>
</g>
<g>
	<path class="st3" d="M975.9,563c-0.1,0,0.5,0-3.7,0c-2.5,0-4-1.5-4-4c0,0,0-5.4,0-5.4h1.7v5.3c0,1.5,0.6,2.4,2.1,2.4h3.8
		c1.6,0,2.2-0.9,2.2-2.4v-5.3h1.7c0,0,0,5.4,0,5.4C979.8,561.5,978.4,563,975.9,563z M973.2,566.6v-1.9h1.7v1.9H973.2z"/>
	<path class="st3" d="M981.8,563v-1.7h4.2v-3.5c0-2.2-0.4-2.8-1.6-2.8l0.3-1.6c1.2,0,2.2,0.6,2.7,1.5c0.3,0.5,0.3,0.9,0.3,2v4.4h2.6
		v1.7C990.3,563,988.3,563,981.8,563z"/>
	<path class="st3" d="M989.3,566.6v-1.9h1.7v1.9H989.3z M996,563c-1.4,0-2.4-0.5-3.1-1.3c-0.6,0.8-1.7,1.3-3,1.3c0,0-0.3,0-0.3,0
		v-1.7c0,0,0.3,0,0.3,0c1.3,0,2-0.7,2-2v-5.7h1.7c0,0,0,5.7,0,5.8c0,1.2,0.9,1.9,2.3,1.9c0,0,0.2,0,0.3,0v1.7
		C996.3,563,996.1,563,996,563z M992.1,566.6v-1.9h1.7v1.9H992.1z"/>
	<path class="st3" d="M995.7,563v-1.7h1.4v-3.9c0-2.5,1.1-4.1,3.6-4.4v-1.6h1.7v1.6c2.4,0.3,3.6,2,3.6,4.4v3.9h1.9v1.7
		C1002.6,563,1003.4,563,995.7,563z M1000.7,554.6c-1.1,0.2-1.9,0.9-1.9,2.9v3.9h1.9V554.6z M1004.3,557.5c0-1.9-0.8-2.7-1.9-2.9
		v6.7h1.9V557.5z"/>
	<path class="st3" d="M1019.6,563c-1.1,0-1.9-0.3-2.6-0.8c-0.6,1.7-1.8,2.6-3.6,2.6c-1.7,0-2.9-0.9-3.5-2.5
		c-0.6,0.5-1.4,0.7-2.4,0.7h-0.3v-1.7h0.3c1.2,0,1.9-0.5,2-1.7c0.1-3,1.6-4.9,4-4.9c2.3,0,3.8,1.7,3.9,4.7c0,1.2,0.9,1.9,2.3,1.9
		h0.3v1.7H1019.6z M1013.5,556.3c-1.4,0-2.1,1.2-2.1,3.5c0,2.2,0.7,3.4,2.1,3.4c1.4,0,2.1-1.2,2.1-3.4
		C1015.6,557.4,1014.9,556.3,1013.5,556.3z"/>
	<path class="st3" d="M1019.3,563v-1.7c1.6,0,2.4-0.9,2.4-2.4v-9h1.7c0,0,0,9,0,9.1C1023.5,561.5,1021.9,563,1019.3,563z"/>
	<path class="st3" d="M1025.4,563v-13h1.7v13H1025.4z"/>
	<path class="st3" d="M1036.2,563c-1.5,0-3.7-1.1-3.7-4.5c0-3.3,1.4-4.8,3.7-4.8h3.8v7.7h2.3v1.7C1040.3,563,1038.4,563,1036.2,563z
		 M1038.3,555.2c-1.6,0-2,0-2,0c-1.6,0-2,2-2,3.3c0,1.2,0.5,2.9,2,2.9c0,0,0.9,0,2,0C1038.3,557.5,1038.3,559.5,1038.3,555.2z
		 M1035.6,551.8V550h1.7v1.9H1035.6z M1038.3,551.8V550h1.7v1.9H1038.3z"/>
	<path class="st3" d="M1041.8,563v-1.7h2.2c-0.6-0.9-1-1.6-1-3.1c0-1.3,0.7-4.6,3.7-4.6c1.5,0,2.6,0.7,3.1,2.2h-1.9
		c-0.3-0.4-0.7-0.7-1.2-0.7c-1.6,0-2,2.1-2,2.9c0,1.7,0.8,3.2,2.3,3.2h3l0.5,1.7H1041.8z"/>
	<path class="st3" d="M1059.9,563L1059.9,563c-0.2,2.3-1.7,3.6-3.6,3.6c0,0-0.1,0-0.1,0v-1.5c1.1,0,1.9-1.2,1.9-2.1h-2
		c-1.5,0-3.7-1.1-3.7-4.5c0-3.3,1.4-4.8,3.7-4.8h3.8v7.7h2.3v1.7H1059.9z M1058.3,555.2c-1.6,0-2,0-2,0c-1.6,0-2,2-2,3.3
		c0,1.2,0.5,2.9,2,2.9c0,0,0.9,0,2,0C1058.3,557.5,1058.3,559.5,1058.3,555.2z"/>
	<path class="st3" d="M1074.1,563c-1.1,0-1.9-0.3-2.6-0.8c-0.6,1.7-1.8,2.6-3.6,2.6c-1.7,0-2.9-0.9-3.5-2.5
		c-0.6,0.5-1.4,0.7-2.4,0.7h-0.3v-1.7h0.3c1.2,0,1.9-0.5,2-1.7c0.1-3,1.6-4.9,4-4.9c2.3,0,3.8,1.7,3.9,4.7c0,1.2,0.9,1.9,2.3,1.9
		h0.3v1.7H1074.1z M1067.9,556.3c-1.4,0-2.1,1.2-2.1,3.5c0,2.2,0.7,3.4,2.1,3.4c1.4,0,2.1-1.2,2.1-3.4
		C1070.1,557.4,1069.4,556.3,1067.9,556.3z"/>
	<path class="st3" d="M1073.9,563v-1.7h6.5c0-6.2-5.1-6-5.1-6v-1.6c4.7,0,6.8,3.4,6.8,7.5h2.5v1.7H1073.9z M1076.9,566.5v-1.8h1.7
		v1.8H1076.9z"/>
	<path class="st3" d="M1090,563c-1.3,0-2.3-0.5-3-1.5c-0.6,1-1.7,1.5-2.9,1.5v-1.7c0.8,0,1.4-0.5,1.8-1.3c0.3-0.8,0.2-1.6,0.2-2.3h0
		c0.1-3,1.5-4.8,3.8-4.8c2.4,0,3.9,1.9,3.9,5C1094,561.2,1092.5,563,1090,563z M1090,554.4c-1.4,0-2.1,1.2-2.1,3.6
		c0,2.3,0.7,3.5,2.1,3.5c1.4,0,2.1-1.2,2.1-3.4C1092.2,555.6,1091.5,554.4,1090,554.4z"/>
</g>
<g>
	<path class="st3" d="M554.8,563c-1.5,0-3.7-1.1-3.7-4.5c0-3.3,1.4-4.8,3.7-4.8h3.8v7.7h2.3v1.7C558.9,563,557,563,554.8,563z
		 M556.9,555.2c-1.6,0-2,0-2,0c-1.6,0-2,2-2,3.3c0,1.2,0.5,2.9,2,2.9c0,0,0.9,0,2,0C556.9,557.5,556.9,559.5,556.9,555.2z
		 M554.2,551.8V550h1.7v1.9H554.2z M556.9,551.8V550h1.7v1.9H556.9z"/>
	<path class="st3" d="M560,566.6v-1.9h1.7v1.9H560z M566.7,563c-1.4,0-2.4-0.5-3.1-1.3c-0.6,0.8-1.7,1.3-3,1.3c0,0-0.3,0-0.3,0v-1.7
		c0,0,0.3,0,0.3,0c1.3,0,2-0.7,2-2v-5.7h1.7c0,0,0,5.7,0,5.8c0,1.2,0.9,1.9,2.3,1.9c0,0,0.2,0,0.3,0v1.7
		C567,563,566.8,563,566.7,563z M562.8,566.6v-1.9h1.7v1.9H562.8z"/>
	<path class="st3" d="M578.8,563c-1.1,0-1.9-0.3-2.6-0.8c-0.6,1.7-1.8,2.6-3.6,2.6c-1.7,0-2.9-0.9-3.5-2.5c-0.6,0.5-1.4,0.7-2.4,0.7
		h-0.3v-1.7h0.3c1.2,0,1.9-0.5,2-1.7c0.1-3,1.6-4.9,4-4.9c2.3,0,3.8,1.7,3.9,4.7c0,1.2,0.9,1.9,2.3,1.9h0.3v1.7H578.8z M572.7,556.3
		c-1.4,0-2.1,1.2-2.1,3.5c0,2.2,0.7,3.4,2.1,3.4c1.4,0,2.1-1.2,2.1-3.4C574.8,557.4,574.1,556.3,572.7,556.3z"/>
	<path class="st3" d="M578.2,566.6v-1.9h1.7v1.9H578.2z M584.9,563c-1.4,0-2.4-0.5-3.1-1.3c-0.6,0.8-1.7,1.3-3,1.3c0,0-0.3,0-0.3,0
		v-1.7c0,0,0.3,0,0.3,0c1.3,0,2-0.7,2-2v-5.7h1.7c0,0,0,5.7,0,5.8c0,1.2,0.9,1.9,2.3,1.9c0,0,0.2,0,0.3,0v1.7
		C585.1,563,584.9,563,584.9,563z M580.9,566.6v-1.9h1.7v1.9H580.9z"/>
	<path class="st3" d="M590.9,563c-1.4,0-2.4-0.5-3.1-1.3c-0.6,0.8-1.7,1.3-3,1.3c0,0-0.3,0-0.3,0v-1.7c0,0,0.3,0,0.3,0
		c1.3,0,2-0.7,2-2V550h1.7c0,0,0,9.4,0,9.4c0,1.2,0.9,1.9,2.3,1.9c0,0,0.2,0,0.3,0v1.7C591.2,563,591,563,590.9,563z"/>
	<path class="st3" d="M599.2,563c-0.6,0-1.3-0.1-2-0.3c-0.6,0.2-1.3,0.3-2,0.3h-4.6v-1.7h4.6l-3.2-2.9c0-2.7,1.9-4.9,5.1-4.9
		c3.2,0,5.1,2.2,5.1,4.9l-3.2,2.9h4.6v1.7H599.2z M597.3,555L597.3,555c-2,0-3.3,1.4-3.3,3c0.8,0.8,3.3,3,3.3,3l3.3-3
		C600.5,556.5,599.2,555.1,597.3,555z"/>
	<path class="st3" d="M602.8,551.8V550h1.7v1.9H602.8z M609.5,563c-1.4,0-2.4-0.5-3.1-1.3c-0.6,0.8-1.7,1.3-3,1.3c0,0-0.2,0-0.2,0
		v-1.7c0,0,0.2,0,0.2,0c1.3,0,2-0.7,2-2v-5.7h1.7c0,0,0,5.7,0,5.8c0,1.2,0.9,1.9,2.3,1.9c0,0,0.1,0,0.2,0v1.7
		C609.7,563,609.6,563,609.5,563z M605.5,551.8V550h1.7v1.9H605.5z"/>
	<path class="st3" d="M609.2,563v-1.7c1.6,0,2.4-0.9,2.4-2.4v-9h1.7c0,0,0,9,0,9.1C613.4,561.5,611.8,563,609.2,563z"/>
	<path class="st3" d="M615.3,563v-13h1.7v13H615.3z"/>
	<path class="st3" d="M626.1,563c-1.5,0-3.7-1.1-3.7-4.5c0-3.3,1.4-4.8,3.7-4.8h3.8v7.7h2.3v1.7C630.2,563,628.3,563,626.1,563z
		 M628.2,555.2c-1.6,0-2,0-2,0c-1.6,0-2,2-2,3.3c0,1.2,0.5,2.9,2,2.9c0,0,0.9,0,2,0C628.2,557.5,628.2,559.5,628.2,555.2z
		 M625.5,551.8V550h1.7v1.9H625.5z M628.2,551.8V550h1.7v1.9H628.2z"/>
	<path class="st3" d="M638,563c-1.4,0-2.4-0.5-3.1-1.3c-0.6,0.8-1.7,1.3-3,1.3c0,0-0.3,0-0.3,0v-1.7c0,0,0.3,0,0.3,0
		c1.3,0,2-0.7,2-2v-5.7h1.7c0,0,0,5.7,0,5.8c0,1.2,0.9,1.9,2.3,1.9c0,0,0.2,0,0.3,0v1.7C638.3,563,638,563,638,563z M634,551.8V550
		h1.7v1.9H634z"/>
	<path class="st3" d="M637.8,563v-1.7h6.5c0-6.2-5.1-6-5.1-6v-1.6c4.7,0,6.8,3.4,6.8,7.5h2.5v1.7H637.8z M640.8,566.5v-1.8h1.7v1.8
		H640.8z"/>
	<path class="st3" d="M654.3,563c-1.4,0-2.4-0.5-3.1-1.3c-0.6,0.8-1.7,1.3-3,1.3c0,0-0.3,0-0.3,0v-1.7c0,0,0.3,0,0.3,0
		c1.3,0,2-0.7,2-2V550h1.7c0,0,0,9.4,0,9.4c0,1.2,0.9,1.9,2.3,1.9c0,0,0.2,0,0.3,0v1.7C654.6,563,654.4,563,654.3,563z"/>
	<path class="st3" d="M654,563v-1.7c1.6,0,2.4-0.9,2.4-2.4v-9h1.7c0,0,0,9,0,9.1C658.2,561.5,656.6,563,654,563z"/>
	<path class="st3" d="M660.1,563v-13h1.7v13H660.1z"/>
</g>
<g>
	<path class="st3" d="M566.3,391c-2.4,0-3.8-1.4-3.8-4.6c0-3.1,1.5-4.7,3.8-4.7c2.4,0,3.8,1.7,3.8,4.8
		C570.2,389.5,568.8,391,566.3,391z M564.2,379.8V378h1.7v1.9H564.2z M566.3,383.1c-1.4,0-2.1,0.9-2.1,3.3c0,2.2,0.7,3,2.1,3
		c1.4,0,2.1-0.7,2.1-2.9C568.4,384,567.7,383.1,566.3,383.1z M566.9,379.8V378h1.7v1.9H566.9z"/>
	<path class="st3" d="M571,394.6v-1.5c0.7,0,1.4-0.5,1.7-1.3c0.3-0.8,0.3-1.8,0.3-2.3c0-0.1,0-7.8,0-7.8h1.7c0,0,0,0,0,8.9
		C574.7,392.7,573.3,394.7,571,394.6z"/>
	<path class="st3" d="M576.6,391v-13h1.7v13H576.6z"/>
	<path class="st3" d="M580.2,391v-1.7h4.2v-3.5c0-2.2-0.4-2.8-1.6-2.8l0.3-1.6c1.2,0,2.2,0.6,2.7,1.5c0.3,0.5,0.3,0.9,0.3,2v6.1
		H580.2z"/>
	<path class="st3" d="M586.7,395v-0.9c0.8,0,0.9,0,0.9,0s0-0.1,0-0.2c0-0.5,0.1-2,1.6-2c0.9,0,1.2,0.4,1.5,1.2h-1
		c-0.1-0.2-0.2-0.3-0.5-0.3c-0.5,0-0.6,0.6-0.6,1c0,0.2,0,0.2,0,0.2s0.1,0,2.3,0v0.9H586.7z M592.4,391c-0.7,0,0.1,0-4.2,0v-1.7h1.7
		V378h1.8v11.3h0.7c0.7,0,1.4-0.6,1.7-1.3c0.3-0.8,0.3-1.5,0.3-2.3c0,0,0-7.8,0-7.8h1.7c0,0,0,0.1,0,9
		C596,389.5,594.4,391,592.4,391z"/>
	<path class="st3" d="M597.9,391v-13h1.7v13H597.9z"/>
	<path class="st3" d="M612.8,391c-0.1,2.2-1.6,3.6-3.7,3.6c-0.2,0-0.3,0-0.5,0c-2.1,0-3.7-1.6-3.7-4v-6.2h1.7v6.2
		c0,1.5,0.7,2.4,2.2,2.4c1.5,0,2.2-0.9,2.2-2.4v-8.9h1.7v7.7h3v-7.7h1.7v7.7h3.2v-7.7h1.7v7.7h2.3v1.7H612.8z"/>
	<path class="st3" d="M630.7,391c-1.4,0-2.4-0.5-3.1-1.3c-0.6,0.8-1.7,1.3-3,1.3c0,0-0.3,0-0.3,0v-1.7c0,0,0.3,0,0.3,0
		c1.3,0,2-0.7,2-2V378h1.7c0,0,0,9.4,0,9.4c0,1.2,0.9,1.9,2.3,1.9c0,0,0.2,0,0.3,0v1.7C630.9,391,630.7,391,630.7,391z"/>
	<path class="st3" d="M630.4,391v-1.7h6.5c0-6.2-5.1-6-5.1-6v-1.6c4.7,0,6.8,3.4,6.8,7.5h2.5v1.7H630.4z M633.5,394.5v-1.8h1.7v1.8
		H633.5z"/>
	<path class="st3" d="M646.6,391c-1.3,0-2.3-0.5-3-1.5c-0.6,1-1.7,1.5-2.9,1.5v-1.7c0.8,0,1.4-0.5,1.8-1.3c0.3-0.8,0.2-1.6,0.2-2.3
		h0c0.1-3,1.5-4.8,3.8-4.8c2.4,0,3.9,1.9,3.9,5C650.5,389.2,649.1,391,646.6,391z M646.6,382.4c-1.4,0-2.1,1.2-2.1,3.6
		c0,2.3,0.7,3.5,2.1,3.5c1.4,0,2.1-1.2,2.1-3.4C648.7,383.6,648.1,382.4,646.6,382.4z"/>
</g>
<g>
	<path class="st3" d="M417.5,218.9c-1.5,0-3.7-1.1-3.7-4.5c0-3.3,1.4-4.8,3.7-4.8h3.8v7.7h2.3v1.7
		C421.6,218.9,419.6,218.9,417.5,218.9z M419.6,211.1c-1.6,0-2,0-2,0c-1.6,0-2,2-2,3.3c0,1.2,0.5,2.9,2,2.9c0,0,0.9,0,2,0
		C419.6,213.4,419.6,215.4,419.6,211.1z M416.9,207.7v-1.9h1.7v1.9H416.9z M419.5,207.7v-1.9h1.7v1.9H419.5z"/>
	<path class="st3" d="M429.4,218.9c-1.4,0-2.4-0.5-3.1-1.3c-0.6,0.8-1.7,1.3-3,1.3c0,0-0.3,0-0.3,0v-1.7c0,0,0.3,0,0.3,0
		c1.3,0,2-0.7,2-2v-9.4h1.7c0,0,0,9.4,0,9.4c0,1.2,0.9,1.9,2.3,1.9c0,0,0.2,0,0.3,0v1.7C429.6,218.9,429.4,218.9,429.4,218.9z"/>
	<path class="st3" d="M428.7,207.7v-1.1c0.9,0,1,0,1,0s0-0.1,0-0.2c0-0.6,0.1-2.3,1.9-2.3c1,0,1.5,0.5,1.8,1.4h-1.2
		c-0.1-0.2-0.3-0.4-0.6-0.4c-0.6,0-0.7,0.7-0.7,1.2c0,0.2,0,0.3,0,0.3s0.1,0,2.7,0v1.1H428.7z M429.2,218.9v-1.7
		c1.6,0,2.3-0.9,2.3-2.4v-5.3h1.7c0,0,0,5.4,0,5.4C433.2,217.4,431.7,218.9,429.2,218.9z"/>
	<path class="st3" d="M435.2,214.9c0,0,0-9,0-9.1h1.7l0,9c0,1.5,0.8,2.4,2.4,2.4v1.7C436.7,218.9,435.2,217.4,435.2,214.9z"/>
	<path class="st3" d="M447.3,218.9c-0.6,0-1.3-0.1-2-0.3c-0.6,0.2-1.3,0.3-2,0.3h-4.6v-1.7h4.6l-3.2-2.9c0-2.7,1.9-4.9,5.1-4.9
		c3.2,0,5.1,2.2,5.1,4.9l-3.2,2.9h4.6v1.7H447.3z M445.4,210.9L445.4,210.9c-2,0-3.3,1.4-3.3,3c0.8,0.8,3.3,3,3.3,3l3.3-3
		C448.6,212.4,447.3,211,445.4,210.9z"/>
	<path class="st3" d="M451.3,218.9v-1.7c1.6,0,2.4-0.9,2.4-2.4v-9h1.7c0,0,0,9,0,9.1C455.4,217.4,453.8,218.9,451.3,218.9z"/>
	<path class="st3" d="M457.4,218.9v-13h1.7v13H457.4z"/>
	<path class="st3" d="M472.3,218.9c-0.1,2.2-1.6,3.6-3.7,3.6c-0.2,0-0.3,0-0.5,0c-2.1,0-3.7-1.6-3.7-4v-6.2h1.7v6.2
		c0,1.5,0.7,2.4,2.2,2.4c1.5,0,2.2-0.9,2.2-2.4v-8.9h1.7v7.7h3v-7.7h1.7v7.7h3.2v-7.7h1.7v7.7h2.3v1.7H472.3z"/>
	<path class="st3" d="M490.1,218.9c-1.4,0-2.4-0.5-3.1-1.3c-0.6,0.8-1.7,1.3-3,1.3c0,0-0.3,0-0.3,0v-1.7c0,0,0.3,0,0.3,0
		c1.3,0,2-0.7,2-2v-9.4h1.7c0,0,0,9.4,0,9.4c0,1.2,0.9,1.9,2.3,1.9c0,0,0.2,0,0.3,0v1.7C490.4,218.9,490.2,218.9,490.1,218.9z"/>
	<path class="st3" d="M489.9,218.9v-1.7h6.5c0-6.2-5.1-6-5.1-6v-1.6c4.7,0,6.8,3.4,6.8,7.5h2.5v1.7H489.9z M493,222.4v-1.8h1.7v1.8
		H493z"/>
	<path class="st3" d="M506.1,218.9c-1.3,0-2.3-0.5-3-1.5c-0.6,1-1.7,1.5-2.9,1.5v-1.7c0.8,0,1.4-0.5,1.8-1.3
		c0.3-0.8,0.2-1.6,0.2-2.3h0c0.1-3,1.5-4.8,3.8-4.8c2.4,0,3.9,1.9,3.9,5C510,217.1,508.6,218.9,506.1,218.9z M506.1,210.3
		c-1.4,0-2.1,1.2-2.1,3.6c0,2.3,0.7,3.5,2.1,3.5c1.4,0,2.1-1.2,2.1-3.4C508.2,211.5,507.5,210.3,506.1,210.3z"/>
</g>
<g>
	<path class="st3" d="M277.2,391c-2.4,0-3.8-1.4-3.8-4.6c0-3.1,1.5-4.7,3.8-4.7c2.4,0,3.8,1.7,3.8,4.8
		C281.1,389.5,279.7,391,277.2,391z M275.1,379.8V378h1.7v1.9H275.1z M277.2,383.1c-1.4,0-2.1,0.9-2.1,3.3c0,2.2,0.7,3,2.1,3
		c1.4,0,2.1-0.7,2.1-2.9C279.3,384,278.6,383.1,277.2,383.1z M277.8,379.8V378h1.7v1.9H277.8z"/>
	<path class="st3" d="M281.9,394.6v-1.5c0.7,0,1.4-0.5,1.7-1.3c0.3-0.8,0.3-1.8,0.3-2.3c0-0.1,0-7.8,0-7.8h1.7c0,0,0,0,0,8.9
		C285.6,392.7,284.2,394.7,281.9,394.6z"/>
	<path class="st3" d="M287.5,391v-13h1.7v13H287.5z"/>
	<path class="st3" d="M291.1,391v-1.7h4.2v-3.5c0-2.2-0.4-2.8-1.6-2.8l0.3-1.6c1.2,0,2.2,0.6,2.7,1.5c0.3,0.5,0.3,0.9,0.3,2v6.1
		H291.1z"/>
	<path class="st3" d="M297.6,395v-0.9c0.8,0,0.9,0,0.9,0s0-0.1,0-0.2c0-0.5,0.1-2,1.6-2c0.9,0,1.2,0.4,1.5,1.2h-1
		c-0.1-0.2-0.2-0.3-0.5-0.3c-0.5,0-0.6,0.6-0.6,1c0,0.2,0,0.2,0,0.2s0.1,0,2.3,0v0.9H297.6z M303.3,391c-0.7,0,0.1,0-4.2,0v-1.7h1.7
		V378h1.8v11.3h0.7c0.7,0,1.4-0.6,1.7-1.3c0.3-0.8,0.3-1.5,0.3-2.3c0,0,0-7.8,0-7.8h1.7c0,0,0,0.1,0,9
		C306.9,389.5,305.3,391,303.3,391z"/>
	<path class="st3" d="M308.8,391v-13h1.7v13H308.8z"/>
	<path class="st3" d="M323.7,391c-0.1,2.2-1.6,3.6-3.7,3.6c-0.2,0-0.3,0-0.5,0c-2.1,0-3.7-1.6-3.7-4v-6.2h1.7v6.2
		c0,1.5,0.7,2.4,2.2,2.4c1.5,0,2.2-0.9,2.2-2.4v-8.9h1.7v7.7h3v-7.7h1.7v7.7h3.2v-7.7h1.7v7.7h2.3v1.7H323.7z"/>
	<path class="st3" d="M341.6,391c-1.4,0-2.4-0.5-3.1-1.3c-0.6,0.8-1.7,1.3-3,1.3c0,0-0.3,0-0.3,0v-1.7c0,0,0.3,0,0.3,0
		c1.3,0,2-0.7,2-2V378h1.7c0,0,0,9.4,0,9.4c0,1.2,0.9,1.9,2.3,1.9c0,0,0.2,0,0.3,0v1.7C341.8,391,341.6,391,341.6,391z"/>
	<path class="st3" d="M341.3,391v-1.7h6.5c0-6.2-5.1-6-5.1-6v-1.6c4.7,0,6.8,3.4,6.8,7.5h2.5v1.7H341.3z M344.4,394.5v-1.8h1.7v1.8
		H344.4z"/>
	<path class="st3" d="M357.5,391c-1.3,0-2.3-0.5-3-1.5c-0.6,1-1.7,1.5-2.9,1.5v-1.7c0.8,0,1.4-0.5,1.8-1.3c0.3-0.8,0.2-1.6,0.2-2.3
		h0c0.1-3,1.5-4.8,3.8-4.8c2.4,0,3.9,1.9,3.9,5C361.4,389.2,360,391,357.5,391z M357.5,382.4c-1.4,0-2.1,1.2-2.1,3.6
		c0,2.3,0.7,3.5,2.1,3.5c1.4,0,2.1-1.2,2.1-3.4C359.6,383.6,359,382.4,357.5,382.4z"/>
</g>
<g>
	<path class="st3" d="M276.7,563c-1.5,0-3.7-1.1-3.7-4.5c0-3.3,1.4-4.8,3.7-4.8h3.8v7.7h2.3v1.7C280.8,563,278.8,563,276.7,563z
		 M278.8,555.2c-1.6,0-2,0-2,0c-1.6,0-2,2-2,3.3c0,1.2,0.5,2.9,2,2.9c0,0,0.9,0,2,0C278.8,557.5,278.8,559.5,278.8,555.2z
		 M276.1,551.8V550h1.7v1.9H276.1z M278.8,551.8V550h1.7v1.9H278.8z"/>
	<path class="st3" d="M281.7,566.6v-1.9h1.7v1.9H281.7z M282.3,563v-1.7c1.6,0,2.3-0.9,2.3-2.4v-5.3h1.7c0,0,0,5.4,0,5.4
		C286.4,561.5,284.9,563,282.3,563z M284.4,566.6v-1.9h1.7v1.9H284.4z"/>
	<path class="st3" d="M293.2,563c-0.9,0-1.7-0.2-2.3-0.6v0.1c0,2.1-1.3,4.1-3.7,4.1v-1.5c0.7,0,1.4-0.5,1.7-1.3
		c0.3-0.8,0.3-1.8,0.3-2.3c0-0.1,0-7.8,0-7.8h1.7v5.9c0,1.2,0.9,1.8,2.3,1.8h0.2v1.7H293.2z"/>
	<path class="st3" d="M292.5,566.6v-1.9h1.7v1.9H292.5z M299.2,563c-1.4,0-2.4-0.5-3.1-1.3c-0.6,0.8-1.7,1.3-3,1.3c0,0-0.3,0-0.3,0
		v-1.7c0,0,0.3,0,0.3,0c1.3,0,2-0.7,2-2v-5.7h1.7c0,0,0,5.7,0,5.8c0,1.2,0.9,1.9,2.3,1.9c0,0,0.2,0,0.3,0v1.7
		C299.5,563,299.2,563,299.2,563z M295.2,566.6v-1.9h1.7v1.9H295.2z"/>
	<path class="st3" d="M299.1,563v-1.7h6.4c0-6.2-5.1-6-5.1-6v-1.6c4.7,0,6.8,3.4,6.8,7.5h2.6v1.7H299.1z M302,551.8V550h1.7v1.9H302
		z"/>
	<path class="st3" d="M309.2,563v-1.7c1.6,0,2.4-0.9,2.4-2.4v-9h1.7c0,0,0,9,0,9.1C313.3,561.5,311.7,563,309.2,563z"/>
	<path class="st3" d="M315.3,563v-13h1.7v13H315.3z"/>
	<path class="st3" d="M326.1,563c-1.5,0-3.7-1.1-3.7-4.5c0-3.3,1.4-4.8,3.7-4.8h3.8v7.7h2.3v1.7C330.1,563,328.2,563,326.1,563z
		 M328.1,555.2c-1.6,0-2,0-2,0c-1.6,0-2,2-2,3.3c0,1.2,0.5,2.9,2,2.9c0,0,0.9,0,2,0C328.1,557.5,328.1,559.5,328.1,555.2z
		 M325.4,551.8V550h1.7v1.9H325.4z M328.1,551.8V550h1.7v1.9H328.1z"/>
	<path class="st3" d="M338,563c-1.4,0-2.4-0.5-3.1-1.3c-0.6,0.8-1.7,1.3-3,1.3c0,0-0.3,0-0.3,0v-1.7c0,0,0.3,0,0.3,0
		c1.3,0,2-0.7,2-2v-5.7h1.7c0,0,0,5.7,0,5.8c0,1.2,0.9,1.9,2.3,1.9c0,0,0.2,0,0.3,0v1.7C338.2,563,338,563,338,563z M333.9,551.8
		V550h1.7v1.9H333.9z"/>
	<path class="st3" d="M337.8,563v-1.7h6.5c0-6.2-5.1-6-5.1-6v-1.6c4.7,0,6.8,3.4,6.8,7.5h2.5v1.7H337.8z M340.8,566.5v-1.8h1.7v1.8
		H340.8z"/>
	<path class="st3" d="M354.3,563c-1.4,0-2.4-0.5-3.1-1.3c-0.6,0.8-1.7,1.3-3,1.3c0,0-0.3,0-0.3,0v-1.7c0,0,0.3,0,0.3,0
		c1.3,0,2-0.7,2-2V550h1.7c0,0,0,9.4,0,9.4c0,1.2,0.9,1.9,2.3,1.9c0,0,0.2,0,0.3,0v1.7C354.5,563,354.3,563,354.3,563z"/>
	<path class="st3" d="M354,563v-1.7c1.6,0,2.4-0.9,2.4-2.4v-9h1.7c0,0,0,9,0,9.1C358.1,561.5,356.5,563,354,563z"/>
	<path class="st3" d="M360.1,563v-13h1.7v13H360.1z"/>
</g>
<g>
	<path class="st3" d="M32,516.5h-1.9v-1.7H32V516.5z M32,519.2h-1.9v-1.7H32V519.2z M43.2,515.1c0,0.1,0-0.5,0,3.7c0,2.5-1.5,4-4,4
		c0,0-5.4,0-5.4,0v-1.7h5.3c1.5,0,2.4-0.6,2.4-2.1v-3.8c0-1.6-0.9-2.2-2.4-2.2h-5.3v-1.7c0,0,5.4,0,5.4,0
		C41.7,511.2,43.2,512.7,43.2,515.1z"/>
	<path class="st3" d="M39.2,509.3c0,0-9,0-9.1,0v-1.7l9,0c1.5,0,2.4-0.8,2.4-2.4h1.7C43.2,507.7,41.7,509.3,39.2,509.3z"/>
	<path class="st3" d="M43.2,505.6h-1.7v-3.3h-7.6v-1.7h7.6v-3h-7.7v-1.7h7.7v-3.2h-7.7v-1.7h7.7v-2.3h1.7V505.6z"/>
	<path class="st3" d="M43.2,477.3v11.8h-1.7v-3.3h-7.6v-1.7h7.6v-3.3h-7.7v-1.7h7.7v-1.8c0-1.1-0.4-1.4-2.4-1.4h-5.3v-1.7H40
		C42.1,474.2,43.2,475.4,43.2,477.3z"/>
	<path class="st3" d="M32.3,470.5h-1.1c0-0.9,0-1,0-1s-0.1,0-0.2,0c-0.6,0-2.3-0.1-2.3-1.9c0-1,0.5-1.4,1.4-1.8v1.2
		c-0.2,0.1-0.4,0.3-0.4,0.6c0,0.6,0.7,0.7,1.2,0.7c0.2,0,0.3,0,0.3,0s0-0.1,0-2.7h1.1V470.5z M43.2,464.8L43.2,464.8
		c2.3,0.2,3.6,1.7,3.6,3.6c0,0,0,0.1,0,0.1h-1.5c0-1.1-1.2-1.9-2.1-1.9v2c0,1.5-1.1,3.7-4.5,3.7c-3.3,0-4.8-1.4-4.8-3.7v-3.8h7.7
		v-2.3h1.7V464.8z M35.4,466.5c0,1.6,0,2,0,2c0,1.6,2,2,3.3,2c1.2,0,2.9-0.5,2.9-2c0,0,0-0.9,0-2C37.7,466.5,39.7,466.5,35.4,466.5z
		"/>
	<path class="st3" d="M43.2,450.7c0,1.1-0.3,1.9-0.8,2.6c1.7,0.6,2.6,1.8,2.6,3.6c0,1.7-0.9,2.9-2.5,3.5c0.5,0.6,0.7,1.4,0.7,2.4
		v0.3h-1.7v-0.3c0-1.2-0.5-1.9-1.7-2c-3-0.1-4.9-1.6-4.9-4c0-2.3,1.7-3.8,4.7-3.9c1.2,0,1.9-0.9,1.9-2.3v-0.3h1.7V450.7z
		 M36.5,456.8c0,1.4,1.2,2.1,3.5,2.1c2.2,0,3.4-0.7,3.4-2.1c0-1.4-1.2-2.1-3.4-2.1C37.6,454.7,36.5,455.4,36.5,456.8z"/>
	<path class="st3" d="M43.2,450.9h-1.7c0-1.6-0.9-2.4-2.4-2.4h-9v-1.7c0,0,9,0,9.1,0C41.7,446.8,43.2,448.4,43.2,450.9z"/>
	<path class="st3" d="M43.2,444.9h-13v-1.7h13V444.9z"/>
</g>
<g>
	<path class="st3" d="M32,243.7h-1.9V242H32V243.7z M32,246.4h-1.9v-1.7H32V246.4z M43.2,245.8c0,1.5-1.1,3.7-4.5,3.7
		c-3.3,0-4.8-1.4-4.8-3.7V242h7.7v-2.3h1.7C43.2,241.7,43.2,243.7,43.2,245.8z M35.4,243.7c0,1.6,0,2,0,2c0,1.6,2,2,3.3,2
		c1.2,0,2.9-0.5,2.9-2c0,0,0-0.9,0-2C37.7,243.7,39.7,243.7,35.4,243.7z"/>
	<path class="st3" d="M43.2,240.2h-1.7c0-1.6-0.9-2.3-2.4-2.3h-5.3v-1.7c0,0,5.4,0,5.4,0C41.7,236.1,43.2,237.6,43.2,240.2z
		 M46.8,238.1h-1.9v-1.7h1.9V238.1z M46.8,240.8h-1.9v-1.7h1.9V240.8z"/>
	<path class="st3" d="M46.8,235.3h-1.5c0-0.7-0.5-1.4-1.3-1.7c-0.8-0.3-1.8-0.3-2.3-0.3c-0.1,0-7.8,0-7.8,0v-1.7c0,0,0,0,8.9,0
		C44.9,231.6,46.9,232.9,46.8,235.3z"/>
	<path class="st3" d="M43.2,229.7h-13V228h13V229.7z"/>
	<path class="st3" d="M43.2,226h-1.7v-4.2H38c-2.2,0-2.8,0.4-2.8,1.6l-1.6-0.3c0-1.2,0.6-2.2,1.5-2.7c0.5-0.3,0.9-0.3,2-0.3h6.1V226
		z"/>
	<path class="st3" d="M43.2,213.9c0,0.7,0-0.1,0,4.2h-1.7v-1.7H30.2v-1.8h11.3V214c0-0.7-0.6-1.4-1.3-1.7c-0.8-0.3-1.5-0.3-2.3-0.3
		c0,0-7.8,0-7.8,0v-1.7c0,0,0.1,0,9,0C41.7,210.3,43.2,211.9,43.2,213.9z M47.2,219.6h-0.9c0-0.8,0-0.9,0-0.9s-0.1,0-0.2,0
		c-0.5,0-2-0.1-2-1.6c0-0.9,0.4-1.2,1.2-1.5v1c-0.2,0.1-0.3,0.2-0.3,0.5c0,0.5,0.6,0.6,1,0.6c0.2,0,0.2,0,0.2,0s0-0.1,0-2.3h0.9
		V219.6z"/>
	<path class="st3" d="M43.2,208.4h-13v-1.7h13V208.4z"/>
	<path class="st3" d="M32,195h-1.9v-1.7H32V195z M32,197.7h-1.9V196H32V197.7z M43.2,193.6c0,0.1,0-0.5,0,3.7c0,2.5-1.5,4-4,4
		c0,0-5.4,0-5.4,0v-1.7h5.3c1.5,0,2.4-0.6,2.4-2.1v-3.8c0-1.6-0.9-2.2-2.4-2.2h-5.3v-1.7c0,0,5.4,0,5.4,0
		C41.7,189.7,43.2,191.2,43.2,193.6z"/>
	<path class="st3" d="M39.2,187.8c0,0-9,0-9.1,0V186l9,0c1.5,0,2.4-0.8,2.4-2.4h1.7C43.2,186.2,41.7,187.8,39.2,187.8z"/>
	<path class="st3" d="M32,184.4h-1.1c0-0.9,0-1,0-1s-0.1,0-0.2,0c-0.6,0-2.3-0.1-2.3-1.9c0-1,0.5-1.4,1.4-1.8v1.2
		c-0.2,0.1-0.4,0.2-0.4,0.5c0,0.6,0.7,0.7,1.2,0.7c0.2,0,0.3,0,0.3,0s0-0.1,0-2.7H32V184.4z M43.2,177.8c0,1.4-0.5,2.4-1.3,3.1
		c0.8,0.6,1.3,1.7,1.3,3c0,0,0,0.2,0,0.2h-1.7c0,0,0-0.2,0-0.2c0-1.3-0.7-2-2-2h-5.7v-1.7c0,0,5.7,0,5.8,0c1.2,0,1.9-0.9,1.9-2.3
		c0,0,0-0.2,0-0.3h1.7C43.2,177.6,43.2,177.8,43.2,177.8z"/>
	<path class="st3" d="M43.2,171.7c0,1.4-0.5,2.4-1.3,3.1c0.8,0.6,1.3,1.7,1.3,3c0,0,0,0.3,0,0.3h-1.7c0,0,0-0.3,0-0.3
		c0-1.3-0.7-2-2-2h-5.7V174c0,0,5.7,0,5.8,0c1.2,0,1.9-0.9,1.9-2.3c0,0,0-0.2,0-0.3h1.7C43.2,171.5,43.2,171.7,43.2,171.7z
		 M46.8,175.7h-1.9V174h1.9V175.7z M46.8,178.4h-1.9v-1.7h1.9V178.4z"/>
	<path class="st3" d="M43.2,172h-1.7v-1.4h-3.9c-2.5,0-4.1-1.1-4.4-3.6h-1.6v-1.7h1.6c0.3-2.4,2-3.6,4.4-3.6h3.9v-1.9h1.7
		C43.2,165.2,43.2,164.4,43.2,172z M37.7,163.5c-1.9,0-2.7,0.8-2.9,1.9h6.7v-1.9H37.7z M34.8,167.1c0.2,1.1,0.9,1.9,2.9,1.9h3.9
		v-1.9H34.8z"/>
	<path class="st3" d="M43.2,160.5h-1.7c0-1.6-0.9-2.4-2.4-2.4h-9v-1.7c0,0,9,0,9.1,0C41.7,156.4,43.2,158,43.2,160.5z"/>
	<path class="st3" d="M43.2,154.4h-13v-1.7h13V154.4z"/>
</g>
</svg>
